<svg version="1.1" xmlns="http://www.w3.org/2000/svg" xmlns:xlink="http://www.w3.org/1999/xlink" x="0px" y="0px"
	viewBox="0 0 143 143" style="enable-background:new 0 0 143 143;" xml:space="preserve">
	<path fill="#866841" d="M83.1,142.9c-13.2,0-19.6-1.3-35-1.3c-0.7,0-3.5,0-4.3,0c-9.8-0.1-19.5-3.6-27.2-9.6C5.7,123.4-0.1,109.8,0,96
	c0.3-16.9,1.6-19.1,1.9-34.1C2,60.3,2,45.1,2,43.5C1.7,25.1,13.8,7.9,31.4,2.7c4-1.2,8.3-1.8,12.4-1.8c12.9,0,32-1.2,47.9-1.2
	c2.4,0-3.9-0.1,7.5,0.3c17.3,0.6,33,12.9,38.1,29.2c1.3,4.2,1.9,8.3,2.1,12.6c0,9.5,1.2,15.7,2.1,25.1c0.5,7.4,1.2,11.3,1.2,19
	c0,2.5,0.3,7.4,0.3,9.9c0.7,25.5-23.6,46.9-48.7,47H83.1z M99.1,126.7c16.1,0.4,29.4-13.3,29.3-29.4c0-9.5,3.5-18.9,3.5-29.2
	c0.4-15.6-0.3-10.7,0-26.3c0-3.4-0.4-6.7-1.3-9.9c-4-13.5-17.4-23.3-31.3-23C88.2,9.1,94,9.1,92.5,9.1c-21,0-27.5-1-50.1-1
	C32,8,22,13.2,15.9,21.7C11.6,27.4,9.4,34.7,9.4,42c0,0.7,0.1,13.6,0.1,14.3c0.1,3.6,0.4,17.3,0.6,23.1c0.3,7.2,1.1,22,3.5,28.7
	c4.3,12.6,16.8,21.1,30.1,20.2c19.1,0,24.6-1.5,46.1-1.5H99.1z" />
</svg>