<?xml version="1.0" encoding="utf-8"?>
<!-- Generator: Adobe Illustrator 26.3.1, SVG Export Plug-In . SVG Version: 6.00 Build 0)  -->
<svg version="1.1" id="Laag_1" xmlns="http://www.w3.org/2000/svg" xmlns:xlink="http://www.w3.org/1999/xlink" x="0px" y="0px"
	 viewBox="0 0 300 301.1" style="enable-background:new 0 0 300 301.1;" xml:space="preserve">
<style type="text/css">
	.st0{fill:#332718;}
	.st1{fill:#4D3A22;}
	.st2{fill:#6D8D01;}
</style>
<g>
	<path class="st0" d="M150.3,24.2c-0.1-7.5-0.8-14.9-2.1-22.2c-0.6-3.5-4.7-1.5-4.2,2c0.8,7.5,1.4,15.1,1.9,22.7
		c0,0.9,0.4,1.6,1,2.1c1,0.8,2.5,0.7,3.2-1.1l0.3-0.7C150.8,26.1,150.7,25.1,150.3,24.2z"/>
	<path class="st1" d="M147.2,26.5c-0.2,0-0.3-0.1-0.4-0.2c-0.4-0.2-0.6-0.6-0.6-1c-0.5-7.7-1.1-15.3-1.9-22.9
		c-0.1-0.4,0-0.9,0.3-1.3c0.2-0.3,0.6-0.5,1-0.5c0.1,0,0.3,0.1,0.5,0.7c1.3,7.3,2,14.6,2.1,22l0,0.4l0.2,0.3c0.2,0.4,0.2,0.8,0,1.2
		l-0.3,0.7C148,26.3,147.6,26.6,147.2,26.5L147.2,26.5z"/>
</g>
<g>
	<g>
		<path class="st0" d="M80.7,2.8c0.8,11.6,0.4,17.4,1.2,29c-0.1-1.4-4.7-0.2-4.5,1.1c-0.8-11.6-0.4-17.4-1.2-29
			C75.8-0.4,80.4-1.6,80.7,2.8z"/>
	</g>
	<path class="st1" d="M79.2,26.8h0.2l-1-24.2c0-0.4-0.1-0.7-0.4-1c-0.3-0.2-0.7-0.2-1-0.1c-0.5,0.3-0.8,1-0.7,1.6l1,23.9
		C78,26.9,78.6,26.8,79.2,26.8z"/>
</g>
<g>
	<path class="st0" d="M114.1,2.3c-0.4-3.9-4.2-2.3-3.8,1.6c1.1,10.9,1.7,12.8,1.8,23.7c0.1,4,4,4.1,3.9,0.1
		C115.9,16.2,115.2,13.7,114.1,2.3z"/>
	<path class="st1" d="M113,27.6c-0.1,0-0.9-0.1-0.9-1.1c-0.1-11.2-0.8-13.3-1.8-24c-0.1-0.3,0-0.6,0.1-0.9c0.2-0.4,0.5-0.7,1-0.7
		c0.5,0,0.5,0.4,0.5,0.7c1.1,11.4,1.8,13.9,2,25.1c0,0.2,0,0.4-0.1,0.6C113.6,27.4,113.3,27.5,113,27.6L113,27.6z"/>
</g>
<g>
	<path class="st0" d="M182.4,2.1c-0.4-3.7-4.2-2.2-3.8,1.6c1.1,10.2,1.7,12,1.8,22.3c0.1,3.8,4,3.8,3.9,0
		C184.2,15.2,183.6,12.9,182.4,2.1z"/>
	<path class="st1" d="M181.4,25.9c-0.1,0-0.9-0.1-0.9-1.1c-0.1-10.5-0.8-12.5-1.8-22.6c-0.1-0.3,0-0.6,0.2-0.8
		c0.2-0.4,0.5-0.7,1-0.7c0.5,0,0.5,0.4,0.5,0.6c1.1,10.7,1.8,13.1,1.9,23.6c0,0.2,0,0.4-0.1,0.6C182,25.8,181.7,25.9,181.4,25.9
		L181.4,25.9z"/>
</g>
<g>
	<path class="st0" d="M250.7,2.1c-0.4-3.7-4.2-2.2-3.8,1.6c1.1,10.2,1.7,12,1.8,22.3c0.1,3.8,4,3.8,3.9,0
		C252.6,15.2,251.9,12.9,250.7,2.1z"/>
	<path class="st1" d="M249.7,25.9c-0.1,0-0.9-0.1-0.9-1.1c-0.1-10.5-0.8-12.5-1.8-22.6c-0.1-0.3,0-0.6,0.1-0.8
		c0.2-0.4,0.5-0.7,1-0.7c0.5,0,0.5,0.4,0.5,0.6c1.1,10.7,1.8,13.1,1.9,23.6c0,0.2,0,0.4-0.1,0.6C250.3,25.8,250,25.9,249.7,25.9
		L249.7,25.9z"/>
</g>
<g>
	<path class="st0" d="M46.5,28.1c-0.1,1.5-4.7,1.6-4.6,0.1c0.5-10.3,1-14.5,1.2-24.8c0.1-4.4,4.7-4.5,4.6-0.1
		C47.5,13.6,47.1,17.9,46.5,28.1z"/>
	<path class="st1" d="M42.5,28.6c0.6,0,1.3,0.1,1.8,0.2c0.5-9.8,0.8-15.1,1-26.1c0-0.4-0.1-0.8-0.2-1.1c-0.1-0.3-0.4-0.5-0.7-0.5
		c-0.2,0-1.1,0.1-1.1,1.7c-0.2,10.8-0.5,16.2-1,25.7H42.5z"/>
</g>
<g>
	<path class="st0" d="M286,6.2c-0.7-1.2-3.3,1.4-2.6,2.6c4.8,8.5,6.9,11.9,11.5,20.6c2,3.8,4.6,1.1,2.6-2.7
		C292.8,18.2,290.7,14.8,286,6.2z"/>
	<path class="st1" d="M295.5,27.5c-2.7-5.1-4.6-8.5-6.6-12.1c-0.1,0.3-0.1,0.6-0.1,0.9c-0.1,0.5-0.1,1.1-0.2,1.7
		c1.7,3,3.4,6.1,5.7,10.5c0.6,1.2,1.1,0.7,1.3,0.6c0.2-0.2,0.2-0.5,0.2-0.8C295.8,28.1,295.6,27.8,295.5,27.5z"/>
	<path class="st0" d="M286.5,3.1c-0.1-1.6-5.8-1.6-5.7-0.1c0.7,10.9,1.2,15.4,1.5,26.3c0.1,4.7,5.8,4.8,5.7,0.1
		C287.7,18.5,287.2,14,286.5,3.1z"/>
	<path class="st1" d="M281,4c0.6,9.2,1.1,14,1.3,24.1c0.1,1.5,1.1,1.6,1.3,1.6c0.4,0,0.7-0.1,0.9-0.4c0.2-0.3,0.3-0.7,0.2-1
		c-0.3-10.4-0.8-15-1.4-24.9C282.6,3.7,281.8,4,281,4z"/>
</g>
<g>
	<path class="st0" d="M213.4,2.7l-0.2,23.6c0,3.5,4.6,3.6,4.6,0.1L218,2.7C218-0.8,213.4-0.9,213.4,2.7z"/>
	<path class="st1" d="M214.2,26.5c-0.3,0-0.6-0.1-0.8-0.4c-0.2-0.2-0.2-0.5-0.2-0.8l0.2-23.6c-0.1-0.5,0.3-1,0.8-1.1
		c0.1,0,0.1,0,0.2,0c0.3,0,0.6,0.1,0.8,0.4c0.2,0.2,0.2,0.5,0.2,0.8l-0.2,23.6c0.1,0.5-0.3,1-0.8,1.1
		C214.4,26.5,214.3,26.5,214.2,26.5z"/>
</g>
<rect x="16.6" y="3.8" width="264.9" height="0.8"/>
<rect x="16.6" y="17.8" width="264.9" height="0.8"/>
<rect x="16.6" y="10.7" width="264.9" height="0.8"/>
<rect x="13.7" y="33.4" class="st2" width="268.7" height="258.5"/>
<path class="st2" d="M4.3,281.7c1.5-1,2.9-1.7,4.5-1.9c-0.4,1.5-0.9,1.3-1.3,2.3c0.3,0.8,0.7,0,1.1,1.1c-0.9,0.9-1.8,1.7-2.6,2.5
	c0,0.1,0,0.1,0,0.2c1.3,0,2.6,0,3.9,0c-0.5,1.4-1,1.3-1.7,2.5c1,1.3,2,0.3,2.9,1.3c-1.5,1.4-3.1,1.9-4.7,2.6
	c0.1,0.1,0.2,0.1,0.2,0.2c0.9-0.2,1.8-0.3,2.7-0.4c2.5-0.1,4.8,0.7,6.8,2l0.6-262.7c0,0-1.5,0-6.2,0c-0.8,1-1.6,1-2.4,1
	c-0.2,0-0.4-0.1-0.7,0.1c1.2,3.9,2.6,4.7,3.9,6.2c-1.5,0.6-3,0-4.5-1.4c0.3,1.6,0.4,2,1.1,3.4c0.4,0.8,0.8,1.5,1.4,2.5
	c-1.1,1.7-2.2,2.7-3.2,5.1c1.3,0.3,2.6,0.1,3.9,0.8c-1.8,4.3-3.6,9.1-5,16.1c1-2.5,1.9-5.5,2.9-7.4c1.1-2,2.2-3.3,3.3-3.7
	c-1.2,2.6-2.3,5-3.4,8.3c1.4-1.6,2.8-3.4,4.2-4.5c-0.5,1.5-1.1,1.7-1.7,3.2c0.7,1.3,1.4,0.9,2.1,2c-1.3,1.4-2.6,0.7-3.8,1.2
	c1.1,1.8,2.3,3.5,3.4,5.3c0,0.2,0,0.4,0,0.6C10,70,8,68.5,5.9,66.4c1.3,3.7,2.8,6.4,4.3,8.6c-1.4,0.9-2.9,0.5-4.3,0.7
	c1.2,1.8,2.4,2.9,3.7,3.8c-1.6,1.8-3.2,3.4-4.8,5.8c1.9-0.4,3.9-1.7,5.8-1.3c-1,1.7-2.1,1.9-3.2,2.8c1.2,0.7,2.4,0.5,3.6,0.7
	C9.1,91.7,7.2,96,5.9,104c0.8-2,1.7-4.1,2.6-5.3c0.9-1.2,1.8-2.2,2.8-1.8c-1,2.8-2,5.6-2.9,9.4c1.1-1.8,2.2-3.7,3.5-3.6
	c-0.4,1.7-0.8,2-1.2,2.8c-0.4,0.8-0.8,1.4-1.2,1.9c-0.4,0.5-0.9,0.8-1.3,1c-0.4,0.2-0.8,0-1.3,0.3c0.8,2.2,1.8,3,2.7,4.3
	c-1.4,2.1-2.9,3.8-4.2,6.7c2.3-0.1,4.6,0.7,6.8,1c-1.9,3-3.9,3.9-5.9,5.3c1.2,0.8,2.3,1.7,3.5,2.5c-0.6,1.5-1.3,1.4-1.9,2.2
	c1,1.6,2.1,1.3,3.1,2.2c-1.5,1.5-2.7,2.2-4.7,0.1c0.5,2,1.1,3,1.7,3.7c0.6,0.7,1.2,1.4,1.8,2.2c-1.6,0.5-3.2-0.9-4.7-2.5
	c1.7,4.7,3.4,8.2,5.4,10.7c-1.3,2.6-2.5,4.6-3.5,8.1c1.1-1.1,2.1-2.3,3.2-2.1c0.7,0.1,1.3,0.5,2,1.1c-0.8,1.5-1.8,1.1-2.6,2.3
	c-0.9,1.3-1.8,1.5-2.6,3.1c1.5,1,3.1,1.1,4.6,2.3c-0.8,0.3-1.6,0.5-2.5,0.8c1.5,1.9,2.9,2,4.3,3.1c-1.9,0.2-3.7,1.7-5.6-1.2
	c0.5,1.8,1,2.7,1.6,3.4c0.6,0.7,1.1,1.2,1.7,2c-1.4,1-2.8,0.3-4.1-2.5c0.7,3.5,1.7,5.1,2.8,7.2c-1.9,2.3-3.7,4.7-5.2,9.4
	c2.7-2.6,5.4-2.5,8.2-1.1c-0.9,1.1-1.7,2.1-2.6,3.2c-0.8,1.1-1.7,2.4-2.4,4.4c1-1,2.1-1.9,3.2-2.6c-0.2,1.3-0.6,0.8-0.8,2.1
	c0.5,0.2,1,0.3,1.4,0.5c-1,1.6-2,1.4-3.1,1.7c0.8,2.1,1.6,2.3,2.3,3.7c-2,1-4.1,1.9-6.1,2.9c0,0.2,0,0.4,0,0.6
	c1.7,1.7,3.5,2.5,5.3,3.7c-0.6,0.3-1.2,0.6-1.9,0.9c1,1.3,2,1.6,2.9,2.5c-1.8,0.9-3.6-0.8-5.3-1.9c1.2,2.6,2.4,3.9,3.7,5.4
	c-1.3,2.6-2.7,4.4-4,7.7l5.8-3.6c-1.2,3.6-2.6,3.5-4,4.6c0.9,0.9,1.9,1.6,2.8,1.9c-0.8,1.3-1.7,2.3-2.5,3.7
	c-0.8,1.5-1.7,2.9-2.4,5.1c2-2.2,3.9-3.4,5.9-4.5c-1.5,3.9-3.1,7-4.7,9.3c1.1,0,2.2-0.9,3.3-1.7c-0.8,2.9-1.6,5.7-2.3,9.1
	c1.3-2.3,2.6-5.1,4.2-6.7c-0.3,1.4-0.6,1.6-0.8,2.4c0,0.8,0.2,0.4,0.2,1.1c-0.4,0.6-0.8,1.2-1.3,1.9c0.7,1,1.3,1.3,2,1.8
	c-0.8,1.6-1.6,2-2.5,2.8c-0.9,0.8-1.7,1.4-2.8,1.6c1,1.3,1.9,1,2.9,1.1c-0.7,2.3-1.5,3.4-2.1,5.7c1.9-1.6,3.7-4.5,5.6-1.9
	c-1.3,1.6-2.7,2.6-4.1,3.5c0.7,1.3,1.3,0.5,2,1.6c-1.3,1.8-2.6,2.9-4,3.7c1,1.1,1.9,1.3,2.8,1.8c-0.8,1.2-1.7,2.5-2.5,3.7
	c2.1-1.1,4.3-1.8,6.4-2c-1.3,1.7-2.7,2.4-4.1,4.2c0.5,1.1,1,0.5,1.5,1.3c-1.9,2.1-3.7,3.1-5.6,2.1c1.4,2.4,3,3.3,4.5,4.2
	C7.7,277.2,6,278.7,4.3,281.7z"/>
<path class="st2" d="M280,296.7c-0.2-2.9,0.7-5.8,2.2-8.4l-264.8,2.6c0,0,0,0.2,0,4.5c1.1,0.7,1.1,1.4,1,2.2c0,0.2-0.1,0.4,0.1,0.6
	c4-1,4.9-2.3,6.4-3.5c0.6,1.3,0.1,2.7-1.5,4c1.7-0.3,2.1-0.4,3.5-1c0.8-0.4,1.6-0.7,2.6-1.2c1.7,1,2.8,2,5.3,2.9
	c0.3-1.2,0.1-2.3,0.9-3.5c4.5,1.7,9.5,3.2,16.8,4.5c-2.6-0.9-5.7-1.7-7.7-2.6c-2.1-1-3.4-1.9-3.9-3c2.7,1,5.2,2.1,8.6,3.1
	c-1.7-1.3-3.6-2.5-4.7-3.8c1.6,0.4,1.8,1,3.4,1.5c1.3-0.6,0.9-1.2,2-1.9c1.5,1.2,0.7,2.3,1.2,3.4c1.8-1,3.6-2,5.5-3
	c0.2,0,0.4,0,0.7,0c0,1.9-1.6,3.8-3.7,5.6c3.8-1.2,6.6-2.5,9-3.8c0.9,1.3,0.5,2.5,0.7,3.8c1.8-1.1,3-2.2,3.9-3.3
	c1.9,1.4,3.5,2.9,6.1,4.3c-0.4-1.7-1.7-3.4-1.4-5.2c1.8,0.9,2,1.9,2.9,2.8c0.8-1.1,0.6-2.1,0.7-3.2c4.3,1.7,8.8,3.4,17.2,4.6
	c-2.1-0.7-4.2-1.5-5.5-2.3c-1.2-0.8-2.3-1.6-1.8-2.5c2.9,0.9,5.8,1.8,9.8,2.6c-1.9-1-3.9-2-3.7-3.1c1.7,0.3,2.1,0.7,2.9,1
	c0.8,0.3,1.5,0.7,1.9,1.1c0.5,0.4,0.8,0.8,1,1.2c0.2,0.4,0,0.7,0.3,1.1c2.3-0.7,3.1-1.6,4.5-2.4c2.2,1.3,4,2.6,7,3.8
	c-0.1-2,0.8-4.1,1.1-6.1c3.1,1.7,4.1,3.5,5.5,5.3c0.9-1,1.7-2.1,2.6-3.1c1.5,0.6,1.5,1.2,2.2,1.7c1.7-0.9,1.3-1.8,2.3-2.8
	c1.5,1.3,2.3,2.4,0.1,4.2c2-0.5,3.1-1,3.9-1.5c0.8-0.5,1.4-1,2.3-1.6c0.5,1.4-1,2.8-2.6,4.2c4.8-1.5,8.6-3,11.2-4.9
	c2.7,1.2,4.8,2.2,8.5,3.1c-1.1-0.9-2.4-1.9-2.2-2.8c0.1-0.6,0.5-1.2,1.1-1.7c1.6,0.8,1.1,1.6,2.4,2.3c1.3,0.8,1.5,1.6,3.3,2.4
	c1-1.4,1.1-2.8,2.4-4.1c0.3,0.7,0.6,1.4,0.9,2.2c1.9-1.4,2.1-2.6,3.2-3.9c0.2,1.7,1.7,3.3-1.2,5c1.9-0.4,2.8-0.9,3.5-1.5
	c0.7-0.5,1.3-1,2-1.5c1,1.3,0.3,2.5-2.6,3.6c3.7-0.7,5.3-1.5,7.5-2.5c2.3,1.7,4.9,3.3,9.8,4.7c-2.7-2.4-2.6-4.9-1.2-7.3
	c1.1,0.8,2.1,1.6,3.3,2.3c1.2,0.7,2.5,1.5,4.5,2.2c-1-0.9-2-1.8-2.7-2.8c1.4,0.2,0.9,0.5,2.2,0.7c0.2-0.5,0.3-0.9,0.5-1.3
	c1.7,0.9,1.5,1.8,1.8,2.8c2.2-0.7,2.4-1.4,3.8-2c1,1.8,2,3.6,3,5.5c0.2,0,0.4,0,0.6,0c1.8-1.6,2.6-3.2,3.9-4.7c0.3,0.5,0.6,1,1,1.7
	c1.4-0.9,1.7-1.8,2.6-2.6c0.9,1.6-0.8,3.2-2,4.8c2.7-1.1,4.1-2.2,5.6-3.3c2.7,1.2,4.6,2.4,8,3.6c-1.2-1.7-2.5-3.5-3.7-5.2
	c3.7,1.1,3.7,2.3,4.8,3.5c1-0.8,1.6-1.7,1.9-2.5c1.4,0.8,2.4,1.5,3.9,2.3c1.5,0.7,3,1.5,5.3,2.2c-2.3-1.7-3.5-3.5-4.7-5.3
	c4,1.3,7.3,2.7,9.7,4.2c0-1-0.9-1.9-1.8-2.9c3,0.7,6,1.4,9.5,2c-2.4-1.2-5.3-2.4-7-3.7c1.5,0.3,1.6,0.5,2.5,0.7
	c0.8,0,0.4-0.2,1.1-0.2c0.6,0.4,1.3,0.8,1.9,1.1c1.1-0.6,1.4-1.2,1.9-1.7c1.6,0.7,2.1,1.5,2.9,2.2c0.8,0.8,1.5,1.5,1.6,2.5
	c1.3-0.9,1-1.7,1.1-2.6c2.4,0.7,3.5,1.3,5.9,1.9c-1.6-1.7-4.7-3.3-2-5c1.6,1.2,2.7,2.4,3.6,3.7c1.4-0.6,0.6-1.2,1.7-1.7
	c1.8,1.1,3,2.3,3.9,3.6c1.2-0.9,1.4-1.7,1.9-2.5c1.3,0.7,2.6,1.5,3.9,2.2c-1.2-1.9-1.9-3.8-2.1-5.7c1.8,1.2,2.5,2.4,4.3,3.6
	c1.1-0.4,0.5-0.9,1.4-1.3c2.1,1.7,3.2,3.3,2.2,5c2.5-1.3,3.5-2.6,4.3-4c1.5,1.6,3.1,3.1,6.2,4.6c-1-1.3-1.7-2.6-1.9-4
	c1.6,0.4,1.4,0.8,2.4,1.2c0.9-0.3,0-0.6,1.1-1c0.3,0.3,0.6,0.5,0.9,0.7C280,297.6,280,297.1,280,296.7z"/>
<path class="st2" d="M284.7,292.6c1.5-0.1,2.9,0.2,4.2,0.7c0.4-0.3,0.9-0.6,1.3-1c-1.6-0.7-3.1-1.3-4.7-2.6c0.9-1,1.9,0,2.9-1.3
	c-0.6-1.1-1.2-1-1.7-2.5c1.3,0,2.6,0,3.9,0c0-0.1,0-0.1,0-0.2c-0.8-0.8-1.6-1.6-2.6-2.5c0.5-1,0.8-0.2,1.1-1.1
	c-0.4-1-0.9-0.8-1.3-2.3c1.6,0.2,3,0.9,4.5,1.9c-1.7-3-3.4-4.5-5.2-6c1.5-0.8,3-1.8,4.5-4.2c-1.9,1-3.8,0-5.6-2.1
	c0.5-0.8,1-0.2,1.5-1.3c-1.4-1.8-2.8-2.4-4.1-4.2c2.1,0.2,4.3,0.9,6.4,2c-0.8-1.2-1.7-2.5-2.5-3.7c0.9-0.5,1.8-0.7,2.8-1.8
	c-1.5-0.9-2.8-2-4-3.7c0.6-1.1,1.3-0.3,2-1.6c-1.4-0.9-2.8-1.9-4.1-3.5c1.9-2.6,3.8,0.3,5.6,1.9c-0.6-2.3-1.3-3.3-2.1-5.7
	c1-0.1,1.9,0.2,2.9-1.1c-1-0.1-1.9-0.8-2.8-1.6c-0.8-0.8-1.7-1.2-2.5-2.8c0.7-0.5,1.3-0.8,2-1.8c-0.4-0.6-0.9-1.3-1.3-1.9
	c0-0.7,0.2-0.3,0.2-1.1c-0.2-0.8-0.5-0.9-0.8-2.4c1.5,1.6,2.8,4.4,4.2,6.7c-0.7-3.4-1.5-6.2-2.3-9.1c1.1,0.8,2.2,1.7,3.3,1.7
	c-1.7-2.2-3.2-5.4-4.7-9.3c2,1.1,4,2.3,5.9,4.5c-0.8-2.2-1.6-3.6-2.4-5.1c-0.8-1.5-1.7-2.4-2.5-3.7c1-0.3,1.9-0.9,2.8-1.9
	c-1.3-1.1-2.7-1-4-4.6l5.8,3.6c-1.3-3.3-2.7-5.1-4-7.7c1.3-1.5,2.5-2.8,3.7-5.4c-1.8,1.1-3.5,2.8-5.3,1.9c0.9-0.9,1.9-1.2,2.9-2.5
	c-0.7-0.4-1.3-0.6-1.9-0.9c1.8-1.2,3.6-2,5.3-3.7c0-0.2,0-0.4,0-0.6c-2-1-4.1-1.9-6.1-2.9c0.7-1.3,1.5-1.5,2.3-3.7
	c-1.1-0.3-2.2-0.1-3.1-1.7c0.5-0.2,0.9-0.3,1.4-0.5c-0.2-1.3-0.6-0.8-0.8-2.1c1.1,0.7,2.1,1.6,3.2,2.6c-0.8-2-1.6-3.2-2.4-4.4
	c-0.9-1.2-1.7-2.1-2.6-3.2c2.7-1.3,5.4-1.4,8.2,1.1c-1.6-4.7-3.3-7.2-5.2-9.4c1.1-2.1,2.1-3.7,2.8-7.2c-1.3,2.8-2.6,3.5-4.1,2.5
	c0.6-0.7,1.1-1.3,1.7-2c0.6-0.7,1.2-1.5,1.6-3.4c-1.8,2.8-3.7,1.3-5.6,1.2c1.4-1.1,2.8-1.2,4.3-3.1c-0.9-0.3-1.7-0.6-2.5-0.8
	c1.5-1.2,3.1-1.3,4.6-2.3c-0.9-1.7-1.8-1.9-2.6-3.1c-0.8-1.3-1.8-0.8-2.6-2.3c0.7-0.6,1.3-1,2-1.1c1.1-0.2,2.1,1,3.2,2.1
	c-1-3.5-2.2-5.5-3.5-8.1c2-2.5,3.8-6.1,5.4-10.7c-1.6,1.6-3.1,3-4.7,2.5c0.6-0.9,1.2-1.5,1.8-2.2c0.6-0.7,1.1-1.8,1.7-3.7
	c-2,2.2-3.2,1.4-4.7-0.1c1.1-0.9,2.1-0.5,3.1-2.2c-0.6-0.7-1.3-0.7-1.9-2.2c1.2-0.8,2.3-1.7,3.5-2.5c-2-1.4-4-2.3-5.9-5.3
	c2.3-0.3,4.6-1.1,6.8-1c-1.4-2.9-2.8-4.6-4.2-6.7c0.9-1.3,1.9-2.1,2.7-4.3c-0.4-0.2-0.8-0.1-1.3-0.3c-0.4-0.2-0.9-0.5-1.3-1
	c-0.4-0.5-0.8-1.1-1.2-1.9c-0.4-0.8-0.8-1.1-1.2-2.8c1.3-0.2,2.4,1.7,3.5,3.6c-0.9-3.8-1.9-6.6-2.9-9.4c1-0.4,1.9,0.6,2.8,1.8
	c0.9,1.2,1.7,3.2,2.6,5.3c-1.3-8-3.2-12.4-5.1-16.5c1.2-0.1,2.4,0.1,3.6-0.7c-1.1-0.9-2.2-1.1-3.2-2.8c1.9-0.4,3.9,0.9,5.8,1.3
	c-1.6-2.4-3.2-4-4.8-5.8c1.3-0.9,2.5-2,3.7-3.8c-1.4-0.2-2.9,0.2-4.3-0.7c1.5-2.3,3-5,4.3-8.6c-2.1,2-4.2,3.6-6.3,3.6
	c0-0.2,0-0.4,0-0.6c1.1-1.8,2.3-3.5,3.4-5.3c-1.3-0.5-2.5,0.3-3.8-1.2c0.7-1.1,1.4-0.7,2.1-2c-0.6-1.5-1.2-1.7-1.7-3.2
	c1.4,1.1,2.8,2.9,4.2,4.5c-1.1-3.3-2.3-5.7-3.4-8.3c1.2,0.5,2.3,1.8,3.3,3.7c1,1.9,2,4.8,2.9,7.4c-1.4-7-3.1-11.8-5-16.1
	c1.3-0.7,2.6-0.6,3.9-0.8c-1-2.4-2.1-3.4-3.2-5.1c0.5-0.9,0.9-1.7,1.4-2.5c0.7-1.3,0.8-1.8,1.1-3.4c-1.5,1.5-3,2-4.5,1.4
	c1.4-1.5,2.8-2.3,3.9-6.2c-0.2-0.2-0.4-0.1-0.7-0.1c-0.8,0.1-1.6,0.1-2.4-1c-7.2,0.3-7.2,0.3-7.2,0.3l0.4,262.2
	C280.9,293.2,282.8,292.7,284.7,292.6z"/>
<g>
	<path class="st0" d="M83.1,288.9c0-8.1-0.9-16.2-2.6-24.2c-0.8-3.6-5.9,1.4-5.4,5.1c1,8,1.7,16.3,2.2,24.8c0,1.1,0.6,1.7,1.3,1.7
		c1.2,0.4,3.1-0.8,4.1-3.4l0.4-1.1C83.6,290.5,83.5,289.5,83.1,288.9z"/>
	<path class="st1" d="M79,293.6c-0.2,0-0.4,0-0.6,0c-0.5,0-0.7-0.3-0.7-0.8c-0.5-8.5-1.2-16.9-2.3-25c0-0.6,0.1-1.2,0.4-1.7
		c0.3-0.6,0.7-1,1.3-1.2c0.1,0,0.5-0.1,0.6,0.5c1.6,7.9,2.4,15.8,2.5,23.8v0.5l0.2,0.3c0.2,0.3,0.2,0.8,0,1.4l-0.4,1.1
		C80,293,79.5,293.4,79,293.6L79,293.6z"/>
</g>
<g>
	<path class="st0" d="M151.6,291.6c0.1-10.2-1.4-12.2-1.8-22.4c0-0.8-0.2-1.5-0.5-2.1v-0.1c-0.1-5-5.5-4.4-5.4,0.6l2.4,24.7
		C146.4,297.2,151.5,296.6,151.6,291.6z"/>
	<path class="st1" d="M147.2,291.8c-0.5-0.2-0.8-0.8-0.8-1.4l-2.4-24.7c0-0.5,0.1-0.9,0.3-1.2c0.3-0.4,0.8-0.6,1.2-0.4
		c0.5,0.1,0.9,0.7,0.8,1.4v0.7l0.3,0.6c0.1,0.3,0.2,0.6,0.2,0.9c0.4,10.1,1.9,12.1,1.8,22.3c0,0.5-0.1,1-0.4,1.4
		C148.1,291.8,147.6,291.9,147.2,291.8L147.2,291.8z"/>
</g>
<g>
	<path class="st0" d="M3.8,27.5c3.5-6.4,7.9-12.2,13.1-17.2c-0.2-4.2-0.2-3.3-0.1-7.5c0.1-3.8,4.4-3.8,4.6-0.1l1.3,21.8
		c0,0.3,0,0.6-0.1,0.9c0.1,1,0.2,2,0.3,3c0.4,3.6-4,5.3-4.4,1.6c-0.5-4.2-0.9-8.5-1.1-12.7c-3.7,3.9-6.9,8.4-9.4,13.1
		C6.1,33.5,2.1,30.6,3.8,27.5z"/>
	<path class="st1" d="M19.2,29.6c0.4,0,0.8-0.2,1-0.6c0.2-0.4,0.3-0.8,0.2-1.1c-0.1-0.6-0.1-1.3-0.2-1.9l-0.2-1.5l0.1-0.3
		c0-0.1,0-0.2,0-0.4L18.9,2c-0.1-1.1-0.8-1.3-1-1.3s-1,0.1-1,1.2c-0.1,3.8-0.1,2.8,0.1,7.4v0.9l-0.5,0.5c-5.1,5-9.4,10.6-12.8,16.8
		c-0.2,0.2-0.2,0.6-0.1,0.9c0.2,0.4,0.6,0.7,1.1,0.8l0,0c0.4,0,0.7-0.2,0.8-0.6c2.6-4.8,5.9-9.4,9.7-13.4l1.9-2.1l0.2,3.2
		c0.3,4.7,0.7,8.8,1.1,12.6C18.6,29.4,18.8,29.6,19.2,29.6z"/>
</g>
<g>
	<path class="st0" d="M299.6,292.7c-3.5-6.8-8-12.9-13.3-18.3c0.2-4.5,0.2-3.5,0.1-8c-0.1-4-4.5-4-4.7,0l-1.3,23.2
		c0,0.3,0,0.6,0.1,0.9c-0.1,1.1-0.2,2.2-0.3,3.2c-0.4,3.9,4,5.6,4.5,1.7c0.5-4.5,0.9-9,1.2-13.5c3.8,4.2,7,8.9,9.6,13.9
		C297.3,299.1,301.3,296,299.6,292.7z"/>
	<path class="st1" d="M283.4,281.3c0-0.1,0-0.2,0-0.3s0-0.1,0-0.2l0.1-2.1c0-0.8,0-1.7,0-2.5c0-0.6,0-1.2,0-1.8
		c0-0.1,0.1-0.3,0.1-0.4v-0.6c0.2-4.9,0.2-3.9,0.1-7.9c0-1.1-0.7-1.3-1-1.3s-1,0.1-1.1,1.3l-1.3,23.2c0,0.1,0,0.3,0,0.4l0,0.3
		l-0.1,1.6c0,0.7-0.1,1.3-0.2,2c0,0.4,0,0.9,0.3,1.2c0.2,0.4,0.6,0.6,1,0.7c0.4,0,0.5-0.2,0.6-0.7c0.4-3.9,0.8-8.1,1.1-12.8
		C283.4,281.4,283.4,281.4,283.4,281.3z"/>
</g>
<g>
	<path class="st0" d="M18,292.6c-0.3-10.4-1.1-15.3-1.5-25.7c-0.1-4-6.5-4.6-6.4-0.5c0.1,3.8,0.7,2.2,0.8,6c-0.9,0.3-1.6,0.9-2,1.8
		c-2.9,6-5.8,12-8.7,17.9c-1.8,3.7,4.3,5.9,6,2.2l5-10.4l0.3,8.1C11.7,296,18.1,296.6,18,292.6z"/>
	<path class="st1" d="M13.2,273.8l-0.2-8c0-0.8-0.7-1.5-1.7-1.5c-0.3-0.1-0.6,0-0.9,0.2c-0.2,0.2-0.2,0.5-0.2,0.7l0.9,7.4l-1.3,0.4
		c-0.4,0.1-0.7,0.4-0.9,0.8l-8.7,18c-0.3,0.5-0.1,0.8,0,0.9c0.3,0.4,0.7,0.6,1.2,0.6c0.7,0.1,1.3-0.3,1.5-0.9
		C3,292.3,10.9,274.9,13.2,273.8z"/>
	<path class="st1" d="M13.9,280.1c-0.7,1.4-1.6,2.6-2.5,3.8c-0.1,0.8,0.4,6.9,0.4,6.9c0,0.8,0.8,1.5,1.6,1.6c0.3,0.1,0.6,0,0.9-0.2
		c0.2-0.2,0.2-0.4,0.2-0.7L13.9,280.1z"/>
</g>
<g>
	<path class="st0" d="M220.6,291.8c-1.5-9-2.9-18-4.4-26.9c-0.5-3.4-5.6,0.1-5.1,3.6c1.5,8.9,2.9,17.9,4.4,26.8
		C216.1,298.6,221.2,295.2,220.6,291.8z"/>
	<path class="st1" d="M216.6,294.4c-0.6,0.3-0.9,0.1-1-0.4l-4.4-26.8c0-0.3,0-0.7,0.1-1c0.2-0.4,0.6-0.7,1-1c0.5-0.3,0.9-0.1,1,0.4
		l4.4,26.8c0,0.3,0,0.7-0.1,1C217.3,293.9,217,294.3,216.6,294.4L216.6,294.4z"/>
</g>
<g>
	<path class="st0" d="M251.7,264.5c-0.5-2.9-5.2,0.7-4.7,3.6c1.3,8.2,2,16.6,2.1,24.9c0,3.2,5,0.9,4.9-2.3
		C253.8,282,253.1,273.2,251.7,264.5z"/>
	<path class="st1" d="M250.2,292.5c-0.1,0-1.1,0.5-1.1-0.4c-0.1-8.4-0.8-16.8-2.1-25.1c0-0.3,0-0.6,0.2-0.8c0.3-0.5,0.7-0.9,1.2-1.1
		c0.6-0.3,0.6,0,0.6,0.2c1.4,8.6,2.2,17.3,2.3,25.9c0,0.2,0,0.4-0.1,0.6C250.8,292.1,250.5,292.3,250.2,292.5L250.2,292.5z"/>
</g>
<g>
	<path class="st0" d="M47,265.4c-0.2-3.8-5.3-1.3-5.1,2.6c0.6,8.9,0.9,17.8,1.1,26.9c0.1,3.9,5.1,1.5,5.1-2.5
		C47.9,283.2,47.6,274.2,47,265.4z"/>
	<path class="st1" d="M44.3,294.4c-0.2,0.1-1.1,0.5-1.2-0.7c-0.2-9-0.6-18.1-1.1-27c0-0.3,0-0.6,0.1-0.8c0.2-0.3,0.4-0.6,0.7-0.7
		c0.1,0,1.2-0.6,1.3,0.7c0.6,8.8,0.9,17.8,1.1,26.8c0,0.3,0,0.6-0.2,0.9C44.9,294,44.6,294.3,44.3,294.4L44.3,294.4z"/>
</g>
<g>
	<path class="st0" d="M114.7,264.6c-0.5-3.2-5,0.8-4.5,3.9c1.2,9.1,1.9,18.2,2,27.4c0,3.5,4.7,1,4.6-2.5
		C116.8,283.8,116.1,274.2,114.7,264.6z"/>
	<path class="st1" d="M113.3,295.4c-0.1,0-1.1,0.6-1.1-0.4c-0.1-9.2-0.8-18.5-2-27.6c0-0.3,0-0.6,0.1-0.9c0.2-0.5,0.6-1,1.1-1.2
		c0.6-0.3,0.6,0,0.6,0.2c1.3,9.5,2.1,19,2.2,28.5c0,0.2,0,0.4-0.1,0.6C113.9,294.9,113.7,295.2,113.3,295.4z"/>
</g>
<g>
	<path class="st0" d="M183.8,265.3c-0.2-3.7-5.1-1.2-4.8,2.5c0.5,8.6,0.9,17.4,1.1,26.2c0.1,3.8,4.9,1.4,4.8-2.4
		C184.7,282.7,184.4,274,183.8,265.3z"/>
	<path class="st1" d="M181.2,293.7c-0.2,0.1-1.1,0.5-1.1-0.7c-0.2-8.8-0.6-17.7-1.1-26.3c0-0.3,0-0.6,0.1-0.8
		c0.2-0.3,0.4-0.5,0.7-0.7c0.1,0,1.1-0.6,1.2,0.7c0.5,8.6,0.9,17.4,1.1,26.1c0,0.3,0,0.6-0.2,0.9
		C181.8,293.2,181.6,293.5,181.2,293.7L181.2,293.7z"/>
</g>
<g>
	<path class="st0" d="M20.4,101c-1-7.4-2.7-14.7-4.9-21.8c-1.1-3.4-4.8-0.9-4,2.5c1.8,7.4,3.4,14.8,4.7,22.3c0.1,0.8,0.6,1.6,1.3,2
		c1.1,0.7,2.5,0.4,3-1.5l0.2-0.8C21,102.8,20.9,101.8,20.4,101z"/>
	<path class="st1" d="M17.5,103.7c-0.2,0-0.4-0.1-0.5-0.2c-0.4-0.2-0.7-0.5-0.7-1C15,95,13.4,87.5,11.6,80.2
		c-0.1-0.4-0.1-0.9,0.2-1.3c0.2-0.3,0.5-0.6,1-0.6c0.1,0,0.4,0,0.6,0.7c2.1,7,3.8,14.3,4.8,21.5l0.1,0.4l0.2,0.3
		c0.2,0.4,0.3,0.8,0.1,1.2l-0.2,0.8C18.3,103.4,17.9,103.8,17.5,103.7L17.5,103.7L17.5,103.7z"/>
</g>
<g>
	<path class="st0" d="M17.1,43.3c-0.4,9.8-1.3,14.6-1.7,24.3c0.1-1.2-3.9-1.4-4-0.2c0.4-9.8,1.3-14.6,1.6-24.3
		C13.3,39.4,17.3,39.5,17.1,43.3z"/>
	<path class="st1" d="M14,42c-0.4,0.1-0.7,0.5-0.7,1.1l-1.6,24.3c0,0.4,0.2-0.7,0.4-0.5c0.2,0.2,0.5,0.4,0.8,0.3
		c0.4-0.1,0.5,0.9,0.5,0.2L15,43.2c0.1-0.3-0.1-0.6-0.2-0.9C14.6,42,14.3,41.9,14,42z"/>
</g>
<g>
	<path class="st0" d="M15.7,232.6c1.8,9.6,2.1,14.4,3.9,24c-0.2-1.2-4.1-0.4-3.9,0.8c-1.8-9.6-2.1-14.4-3.9-24
		C11.1,229.7,14.9,228.9,15.7,232.6z"/>
	<path class="st1" d="M12.3,232.1c-0.4,0.2-0.5,0.6-0.4,1.3l3.9,24c0.1,0.4,0.1-0.7,0.2-0.5c0.2,0.2,0.6,0.2,0.9,0.1
		c0.4-0.2,0.7,0.7,0.6,0.1l-3.9-24c-0.1-0.3-0.2-0.6-0.4-0.8C13,232,12.6,232,12.3,232.1z"/>
</g>
<g>
	<path class="st0" d="M16.5,155.5c-0.4-3.7-4.2-2.1-3.8,1.6c1.1,10.2,1.7,12,1.8,22.3c0.1,3.8,4,3.8,3.9,0.1
		C18.3,168.6,17.6,166.3,16.5,155.5z"/>
	<path class="st1" d="M15.4,179.3c-0.1,0-0.9-0.1-0.9-1.1c-0.1-10.5-0.8-12.5-1.8-22.6c-0.1-0.3,0-0.6,0.1-0.8
		c0.2-0.4,0.5-0.7,1-0.7c0.5,0,0.5,0.4,0.5,0.6c1.1,10.7,1.8,13.1,1.9,23.6c0,0.2,0,0.4-0.1,0.6C16,179.2,15.7,179.4,15.4,179.3
		L15.4,179.3z"/>
</g>
<g>
	<path class="st0" d="M16.5,193.5c-0.4-3.7-4.2-2.1-3.8,1.6c1.1,10.2,1.7,12,1.8,22.3c0.1,3.8,4,3.8,3.9,0.1
		C18.3,206.5,17.6,204.2,16.5,193.5z"/>
	<path class="st1" d="M15.4,217.3c-0.1,0-0.9-0.1-0.9-1.1c-0.1-10.5-0.8-12.5-1.8-22.6c-0.1-0.3,0-0.6,0.1-0.8
		c0.2-0.4,0.5-0.7,1-0.7c0.5,0,0.5,0.4,0.5,0.6c1.1,10.7,1.8,13.1,1.9,23.6c0,0.2,0,0.4-0.1,0.6C16,217.2,15.7,217.3,15.4,217.3
		L15.4,217.3z"/>
</g>
<g>
	<path class="st0" d="M15.7,119.5c-0.3-3.2-3.5-1.8-3.2,1.3c0.9,8.7,1.4,10.2,1.5,19c0.1,3.2,3.3,3.3,3.3,0
		C17.2,130.6,16.7,128.6,15.7,119.5z"/>
	<path class="st1" d="M14.8,139.7c-0.1,0-0.7-0.1-0.7-0.9c-0.1-8.9-0.7-10.7-1.5-19.3c-0.1-0.2,0-0.5,0.1-0.7
		c0.1-0.3,0.4-0.5,0.8-0.6c0.4,0,0.4,0.4,0.4,0.5c1,9.1,1.5,11.2,1.6,20.1c0,0.2,0,0.4-0.1,0.5C15.3,139.6,15.1,139.7,14.8,139.7
		L14.8,139.7z"/>
</g>
<g>
	<path class="st0" d="M287.2,177.2c-0.1-7.5-0.8-14.9-2-22.2c-0.6-3.5-4.7-1.5-4.3,2c0.8,7.5,1.4,15.1,1.8,22.8c0,0.8,0.4,1.6,1,2.1
		c1,0.8,2.4,0.7,3.2-1.1l0.3-0.7C287.6,179.1,287.6,178,287.2,177.2z"/>
	<path class="st1" d="M284.1,179.4c-0.2-0.1-0.3-0.1-0.5-0.2c-0.4-0.2-0.6-0.6-0.6-1.1c-0.4-7.6-1-15.3-1.8-22.9
		c-0.1-0.5,0.1-0.9,0.4-1.3c0.2-0.3,0.6-0.5,1-0.5c0.1,0,0.4,0.1,0.5,0.7c1.3,7.3,1.9,14.6,2,22v0.4l0.1,0.3c0.2,0.4,0.2,0.8,0,1.2
		l-0.3,0.7C284.8,179.3,284.4,179.5,284.1,179.4L284.1,179.4z"/>
</g>
<g>
	<path class="st0" d="M285.5,48.5c0.8,9.7,0.5,14.6,1.3,24.3c-0.1-1.2-4.1-0.9-3.9,0.3c-0.8-9.7-0.5-14.6-1.4-24.3
		C281.2,45.1,285.2,44.8,285.5,48.5z"/>
	<path class="st1" d="M282.2,47.6c-0.4,0.1-0.6,0.5-0.5,1.2l1.3,24.3c0.1,0.4,0.1-0.7,0.3-0.5c0.2,0.2,0.5,0.3,0.8,0.2
		c0.4-0.1,0.6,0.8,0.5,0.2l-1.4-24.3c0-0.3-0.1-0.6-0.3-0.8C282.8,47.6,282.5,47.5,282.2,47.6L282.2,47.6z"/>
</g>
<g>
	<path class="st0" d="M285.2,228.7c0.9,9.7,0.7,14.6,1.6,24.3c-0.1-1.2-4.1-0.8-3.9,0.4c-0.9-9.7-0.7-14.6-1.6-24.3
		C280.9,225.3,284.8,224.9,285.2,228.7z"/>
	<path class="st1" d="M281.9,227.8c-0.4,0.2-0.6,0.5-0.5,1.2l1.6,24.3c0.1,0.4,0.1-0.7,0.3-0.5c0.2,0.2,0.5,0.3,0.8,0.2
		c0.4-0.2,0.6,0.8,0.5,0.2l-1.6-24.3c0-0.3-0.1-0.6-0.3-0.8C282.6,227.8,282.2,227.7,281.9,227.8z"/>
</g>
<g>
	<path class="st0" d="M285,119.3c-0.4-3.7-4.2-2.1-3.8,1.6c1.1,10.2,1.7,12,1.8,22.3c0.1,3.8,4,3.8,3.9,0
		C286.9,132.3,286.2,130,285,119.3z"/>
	<path class="st1" d="M284,143.1c-0.1,0-0.9-0.1-0.9-1.1c-0.1-10.5-0.8-12.5-1.8-22.6c-0.1-0.3,0-0.6,0.1-0.8c0.2-0.4,0.5-0.7,1-0.7
		c0.5,0,0.5,0.4,0.5,0.6c1.1,10.7,1.8,13.1,1.9,23.6c0,0.2,0,0.4-0.1,0.6C284.5,143,284.2,143.1,284,143.1L284,143.1z"/>
</g>
<g>
	<path class="st0" d="M284.4,85.1c-0.3-3.2-3.5-1.8-3.2,1.3c0.9,8.7,1.4,10.2,1.5,19c0.1,3.2,3.3,3.3,3.3,0
		C285.9,96.2,285.3,94.2,284.4,85.1z"/>
	<path class="st1" d="M283.5,105.4c-0.1,0-0.7-0.1-0.7-0.9c-0.1-8.9-0.7-10.7-1.5-19.3c-0.1-0.2,0-0.5,0.1-0.7
		c0.1-0.3,0.4-0.5,0.8-0.6c0.4,0,0.4,0.4,0.4,0.5c1,9.1,1.5,11.2,1.6,20.1c0,0.2,0,0.4-0.1,0.5C283.9,105.3,283.7,105.4,283.5,105.4
		L283.5,105.4z"/>
</g>
<g>
	<path class="st0" d="M286,191.8c0.3-3.7-3.7-2.9-4,0.8c-0.9,10.2-0.7,12.1-2.6,22.2c-0.7,3.7,3.2,4.5,3.9,0.8
		C285.3,205,285.1,202.5,286,191.8z"/>
	<path class="st1" d="M280.4,215c-0.1,0-0.9-0.2-0.7-1.2c1.9-10.3,1.7-12.4,2.6-22.5c0-0.3,0.1-0.6,0.3-0.8c0.2-0.3,0.7-0.5,1.1-0.5
		c0.5,0.1,0.4,0.4,0.4,0.7c-1,10.7-0.8,13.2-2.8,23.5c0,0.2-0.1,0.4-0.2,0.6C280.9,215,280.6,215,280.4,215L280.4,215z"/>
</g>
<g>
	<rect x="17.1" y="266.1" width="264.3" height="0.8"/>
	<rect x="17.1" y="281.3" width="264.3" height="0.8"/>
	<rect x="17.1" y="273.5" width="264.3" height="0.8"/>
</g>
<path class="st2" d="M281.3,33.9c-0.2-3.2,0.3-6.5,0.7-9.6c0-0.1,0-0.3,0.1-0.4c0-1,0-2,0-2.9c-0.1,0-0.2,0-0.2,0
	c-0.8,1.1-1.6,2.2-2.6,3.4c-1.1-0.6-0.2-1.1-1.1-1.5c-1,0.6-0.8,1.2-2.4,1.8c0.2-2.1,0.9-4.1,1.9-6c-3.1,2.2-4.7,4.6-6.2,6.9
	c-0.9-2.1-1.9-4.1-4.3-6c1,2.6,0,5-2.2,7.5c-0.8-0.6-0.2-1.3-1.4-2c-1.8,1.9-2.5,3.7-4.3,5.4c0.2-2.9,0.9-5.7,2.1-8.6
	c-1.3,1.1-2.6,2.2-3.9,3.3c-0.5-1.2-0.7-2.4-1.9-3.8c-0.9,2-2.1,3.7-3.9,5.4c-1.1-0.8-0.3-1.7-1.7-2.6c-0.9,1.9-2,3.7-3.6,5.5
	c-2.7-2.6,0.3-5.1,1.9-7.6c-2.4,0.8-3.5,1.8-5.9,2.8c-0.1-1.4,0.2-2.6-1.1-4c-0.2,1.4-0.8,2.6-1.6,3.7c-0.8,1.1-1.3,2.3-2.9,3.3
	c-0.5-0.9-0.8-1.7-1.9-2.6c-0.7,0.6-1.3,1.1-1.9,1.7c-0.7,0-0.3-0.3-1.1-0.3c-0.8,0.3-1,0.7-2.5,1.1c1.6-2,4.6-3.8,7-5.6
	c-3.6,0.9-6.5,2-9.5,3c0.8-1.5,1.7-2.9,1.8-4.4c-2.3,2.2-5.6,4.3-9.6,6.3c1.2-2.7,2.4-5.3,4.7-7.9c-2.3,1-3.8,2.1-5.3,3.2
	c-1.5,1.1-2.5,2.3-3.9,3.4c-0.3-1.3-1-2.5-1.9-3.8c-1.1,1.8-1.1,3.7-4.8,5.3c1.2-2.6,2.5-5.2,3.7-7.8c-3.4,1.7-5.3,3.6-8,5.4
	c-1.6-1.7-3-3.4-5.6-5c1.2,2.4,2.9,4.7,2,7.2c-0.9-1.2-1.3-2.5-2.6-3.9c-0.4,1-0.7,1.8-1,2.5c-1.3-2.4-2.1-4.8-3.9-7.1
	c-0.2,0-0.4,0-0.6,0c-1,2.7-2,5.5-3,8.2c-1.4-0.9-1.6-2-3.8-3c-0.3,1.5-0.1,2.9-1.8,4.2c-0.2-0.6-0.3-1.2-0.5-1.9
	c-1.3,0.3-0.8,0.8-2.2,1c0.7-1.5,1.7-2.8,2.7-4.2c-2.1,1-3.4,2.1-4.5,3.2c-1.2,1.2-2.2,2.3-3.3,3.5c-1.4-3.7-1.5-7.3,1.2-10.9
	c-4.9,2.1-7.5,4.4-9.8,7c-2.2-1.5-3.8-2.8-7.5-3.8c2.9,1.7,3.6,3.6,2.6,5.4c-0.8-0.8-1.3-1.5-2-2.3c-0.7-0.8-1.6-1.5-3.5-2.2
	c3,2.5,1.4,5,1.2,7.5c-1.1-1.9-1.2-3.8-3.2-5.8c-0.3,1.3-0.6,2.3-0.9,3.4c-1.3-2.1-1.4-4.2-2.4-6.2c-1.7,1.1-1.9,2.4-3.3,3.5
	c-1.3,1.1-0.8,2.4-2.4,3.5c-0.6-0.9-1-1.7-1.1-2.6c-0.2-1.5,1-2.8,2.1-4.3c-3.7,1.4-5.8,3-8.4,4.7c-2.6-2.7-6.3-5.1-11.2-7.3
	c1.6,2.1,3.1,4.2,2.6,6.3c-0.9-0.8-1.5-1.6-2.3-2.4c-0.8-0.8-1.8-1.5-3.9-2.3c2.2,2.7,1.4,4.3-0.1,6.3c-0.9-1.4-0.6-2.8-2.3-4.2
	c-0.8,0.9-0.7,1.8-2.2,2.6c-0.9-1.6-1.7-3.1-2.6-4.7c-1.4,2.7-2.4,5.4-5.5,7.9c-0.3-3.1-1.2-6.1-1.1-9.2c-3,1.8-4.8,3.8-7,5.7
	c-1.4-1.2-2.2-2.5-4.5-3.6c-0.2,0.6-0.1,1.1-0.3,1.7c-0.2,0.6-0.5,1.2-1,1.7c-0.5,0.5-1.1,1.1-1.9,1.6c-0.8,0.5-1.2,1.1-2.9,1.6
	c-0.2-1.7,1.8-3.2,3.7-4.6c-3.9,1.2-6.8,2.5-9.7,3.9c-0.4-1.3,0.6-2.5,1.8-3.7c1.2-1.2,3.4-2.3,5.5-3.4c-8.3,1.7-12.9,4.2-17.2,6.8
	c-0.1-1.6,0.1-3.2-0.7-4.9c-0.9,1.4-1.2,2.9-2.9,4.3c-0.4-2.6,0.9-5.2,1.4-7.8c-2.5,2.1-4.2,4.3-6.1,6.4c-0.9-1.7-2.1-3.3-3.9-5
	c-0.2,1.9,0.2,3.8-0.7,5.7c-2.3-2-5.2-4-9-5.8c2.1,2.8,3.7,5.6,3.7,8.4c-0.2,0-0.4,0-0.7,0c-1.8-1.5-3.6-3-5.5-4.6
	c-0.5,1.7,0.3,3.3-1.2,5.1c-1.1-1-0.7-1.9-2-2.8c-1.6,0.8-1.8,1.6-3.4,2.2c1.1-1.9,3-3.8,4.7-5.6c-3.4,1.5-5.9,3-8.6,4.6
	c0.5-1.6,1.8-3,3.9-4.5c2-1.4,5-2.6,7.7-3.9c-7.3,1.9-12.3,4.2-16.8,6.7c-0.8-1.8-0.6-3.5-0.9-5.3c-2.5,1.3-3.6,2.8-5.3,4.3
	c-1-0.7-1.7-1.3-2.6-1.8c-1.4-0.9-1.8-1.1-3.5-1.5c1.5,2,2.1,4,1.5,6c-1.5-1.8-2.4-3.7-6.4-5.3c-0.2,0.3-0.1,0.6-0.1,0.9
	c0.1,1.1-6.9,7-8,8c0,6.4,7,3.4,7,3.4L281.3,33.9z"/>
<path d="M282,3.8c0.5,89.5-0.1,188.6,0,278.3h-0.7c-0.1-64.1,0.1-144.6-0.2-208.7c0-23.2-0.2-46.4,0.2-69.6L282,3.8z"/>
<path d="M17.4,4c0.5,89.5-0.1,188.5,0,278.1h-0.7c-0.1-64.1,0.1-144.5-0.2-208.6c0-23.2-0.2-46.4,0.2-69.5L17.4,4z"/>
</svg>
