<?xml version="1.0" encoding="utf-8"?>
<!-- Generator: Adobe Illustrator 26.3.1, SVG Export Plug-In . SVG Version: 6.00 Build 0)  -->
<svg version="1.1" id="Laag_1" xmlns="http://www.w3.org/2000/svg" xmlns:xlink="http://www.w3.org/1999/xlink" x="0px" y="0px"
	 viewBox="0 0 812.2 711" style="enable-background:new 0 0 812.2 711;" xml:space="preserve">
<style type="text/css">
	.st0{fill:#332718;}
	.st1{fill:#4D3A22;}
</style>
<path class="st0" d="M305,38.1c-2.9-12.2-6.8-24.1-11.6-35.6c-2.3-5.5-8.2-0.7-6.2,4.8c4.1,12,7.9,24.2,11.4,36.5
	c0.3,1.4,1.2,2.5,2.5,3.1c1.9,1,4.3,0.3,4.8-3l0.2-1.3C306.4,41,306,39.4,305,38.1z"/>
<path class="st1" d="M300.7,43c-0.3,0-0.6-0.1-0.8-0.2c-0.7-0.2-1.2-0.8-1.3-1.5C295,28.9,291.2,16.6,287,4.6
	c-0.3-0.7-0.3-1.5,0.1-2.2c0.2-0.6,0.8-1.1,1.5-1.2c0.2,0,0.6,0,1.1,1c4.8,11.4,8.6,23.2,11.5,35.2l0.2,0.7l0.4,0.5
	c0.4,0.6,0.6,1.3,0.4,2l-0.2,1.3C301.9,42.4,301.4,43,300.7,43C300.7,43,300.7,43,300.7,43z"/>
<path class="st0" d="M501.7,691.8c-0.1-17.7-2-35.3-5.6-52.6c-1.7-7.8-12.8,3.1-11.8,11.2c2.2,17.5,3.8,35.6,4.8,54.1
	c0.1,2.5,1.3,3.7,2.9,3.8c2.6,0.8,6.8-1.7,8.9-7.3l0.8-2.3C502.9,695.4,502.7,693.1,501.7,691.8z"/>
<path class="st1" d="M492.8,702.1c-0.4,0.1-0.8,0.1-1.2,0c-1.1-0.1-1.5-0.7-1.6-1.8c-1-18.5-2.6-36.8-4.9-54.4
	c-0.1-1.3,0.2-2.6,0.9-3.7c0.6-1.2,1.6-2.1,2.8-2.7c0.2-0.1,1-0.3,1.3,1.1c3.5,17.1,5.3,34.4,5.5,51.8v1l0.4,0.6
	c0.5,0.7,0.5,1.7,0,3.1l-0.8,2.3C494.9,700.7,494,701.6,492.8,702.1L492.8,702.1z"/>
<path class="st0" d="M125.9,697.7c0.3-22.3-4-26.6-5.1-48.8c0-1.7-0.6-3.3-1.5-4.6V644c-0.4-10.9-15.5-9.5-15.1,1.4l6.7,53.7
	C111.2,710,125.7,708.6,125.9,697.7z"/>
<path class="st1" d="M113.7,698.2c-1.4-0.4-2.3-1.7-2.2-3.1l-6.7-53.7c-0.1-1,0.2-1.9,0.8-2.6c0.9-0.8,2.2-1.2,3.4-0.9
	c1.4,0.3,2.4,1.6,2.3,3.1v1.5l0.8,1.4c0.4,0.6,0.6,1.3,0.6,2c1.1,21.9,5.4,26.3,5.1,48.5c0.1,1.1-0.3,2.2-1.1,3
	C116,698.1,114.8,698.4,113.7,698.2L113.7,698.2z"/>
<path class="st0" d="M4.8,46.2c5.8-10.7,13.2-20.4,21.9-28.8c-0.3-7-0.4-5.5-0.2-12.6c0.1-6.3,7.4-6.3,7.7-0.1l2.1,36.6
	c0,0.5,0,1-0.1,1.5c0.2,1.7,0.3,3.4,0.5,5c0.7,6.1-6.7,8.9-7.4,2.7c-0.9-7.1-1.5-14.2-1.9-21.3c-6.2,6.6-11.5,14-15.8,21.9
	C8.6,56.2,1.9,51.4,4.8,46.2z"/>
<path class="st1" d="M30.5,49.6c0.7,0,1.3-0.4,1.7-1c0.4-0.6,0.5-1.3,0.4-1.9c-0.1-1-0.2-2.1-0.3-3.2L32,41l0.1-0.5
	c0-0.2,0-0.4,0-0.7l-2-36.5c-0.1-1.9-1.4-2.1-1.7-2.1s-1.6,0.2-1.6,2c-0.1,6.3-0.1,4.7,0.2,12.4l0,1.5L26.1,18
	c-8.5,8.3-15.7,17.8-21.4,28.2c-0.3,0.4-0.4,1-0.2,1.5c0.3,0.7,1,1.2,1.8,1.3l0,0c0.6,0,1.2-0.4,1.4-1c4.4-8.1,9.9-15.7,16.2-22.4
	l3.2-3.5l0.4,5.3c0.5,7.8,1.1,14.7,1.9,21.1C29.6,49.3,29.9,49.6,30.5,49.6z"/>
<path class="st0" d="M811.3,700.2c-7.8-14.7-17.7-28.1-29.5-39.8c0.4-9.7,0.5-7.7,0.3-17.4c-0.2-8.7-10-8.7-10.4-0.1l-2.9,50.6
	c0,0.7,0,1.3,0.2,2c-0.2,2.3-0.4,4.7-0.7,7c-1,8.5,9,12.2,10,3.7c1.2-9.8,2-19.6,2.7-29.4c8.4,9.2,15.5,19.3,21.4,30.3
	C806.1,714.1,815.1,707.4,811.3,700.2z"/>
<path class="st1" d="M775.3,675.3c0-0.2,0-0.4,0.1-0.6s0-0.3,0-0.5l0.3-4.6c0-1.8,0-3.6,0-5.4c-0.1-1.3-0.1-2.7,0.1-4
	c0.1-0.3,0.2-0.6,0.3-0.9V658c0.4-10.7,0.5-8.4,0.3-17.1c0-2.5-1.5-2.8-2.2-2.8s-2.2,0.2-2.4,2.9l-2.8,50.5c0,0.3,0,0.6,0.1,0.9
	l0.1,0.7l-0.3,3.4c-0.1,1.5-0.3,2.9-0.5,4.4c-0.1,0.9,0.1,1.9,0.6,2.7c0.5,0.8,1.4,1.4,2.3,1.5c0.8,0,1.2-0.4,1.3-1.6
	c1-8.5,1.8-17.7,2.5-27.8C775.3,675.5,775.3,675.4,775.3,675.3z"/>
<path class="st0" d="M36.8,699.1c-1.5-22.5-3.5-33.2-5-55.7c-0.6-8.7-13.7-9.5-13.1-0.6c0.5,8.3,1.7,4.7,2.2,13
	c-1.9,0.7-3.3,2.1-4,4C11.4,673,6,686.3,0.6,699.5c-3.3,8.2,9.2,12.4,12.4,4.3l9.4-23.1l1.2,17.7C24.2,707.1,37.3,707.9,36.8,699.1z
	"/>
<path class="st1" d="M25.5,658.6l-1-17.3c-0.1-1.8-1.6-3.2-3.5-3.2c-0.7-0.1-1.3,0.1-1.9,0.5c-0.3,0.4-0.4,1-0.3,1.5l2.4,16l-2.7,1
	c-0.8,0.3-1.5,1-1.8,1.8L0.4,698.7c-0.5,1.2-0.2,1.7,0,1.9c0.6,0.8,1.5,1.3,2.5,1.3c1.4,0.1,2.6-0.7,3.1-2
	C6.1,699.9,20.9,661.3,25.5,658.6z"/>
<path class="st1" d="M27.4,672.3c-1.3,3-3,5.8-4.9,8.4c-0.1,1.8,1.4,15,1.4,15c0.1,1.8,1.7,3.3,3.5,3.3c0.7,0.1,1.3-0.1,1.9-0.5
	c0.3-0.4,0.4-0.9,0.4-1.5L27.4,672.3z"/>
<path class="st0" d="M161.2,4.8c1.3,19.4,0.7,29.2,2,48.6c-0.1-2.4-7.8-0.4-7.6,1.9c-1.3-19.4-0.7-29.2-2-48.6
	C153.1-0.7,160.8-2.7,161.2,4.8z"/>
<path class="st1" d="M158.7,45h0.3l-1.7-40.6c0-0.6-0.2-1.2-0.6-1.6c-0.5-0.4-1.1-0.4-1.6-0.1c-0.9,0.5-1.3,1.6-1.1,2.6l1.6,40.1
	C156.7,45.1,157.7,45,158.7,45z"/>
<path class="st0" d="M715.3,4.9c-0.7,16.4-2.1,24.4-2.7,40.8c0.1-2-6.6-2.3-6.7-0.3C706.6,29,708,21,708.6,4.6
	C708.9-1.6,715.6-1.4,715.3,4.9z"/>
<path class="st1" d="M710,2.8c-0.7,0.2-1.1,0.8-1.2,1.8l-2.7,40.8c0,0.7,0.4-1.1,0.6-0.8c0.3,0.4,0.9,0.6,1.4,0.5
	c0.7-0.2,0.8,1.5,0.9,0.4l2.7-40.7c0.1-0.5-0.1-1-0.3-1.5C711,2.8,710.5,2.6,710,2.8z"/>
<path class="st0" d="M643.6,8.3c1.5,16.3,1.1,24.4,2.6,40.8c-0.2-2-6.8-1.3-6.6,0.6c-1.5-16.3-1.1-24.4-2.6-40.7
	C636.4,2.7,643.1,2.1,643.6,8.3z"/>
<path class="st1" d="M638.1,6.9c-0.7,0.3-1,0.9-0.9,2l2.6,40.8c0.1,0.7,0.2-1.2,0.5-0.9c0.4,0.4,0.9,0.5,1.4,0.3
	c0.7-0.3,1,1.3,0.9,0.3L640,8.6c0-0.5-0.2-1-0.5-1.4C639.1,6.9,638.5,6.7,638.1,6.9L638.1,6.9z"/>
<path class="st0" d="M219.1,693.5c-3-18.1-5.9-36.2-8.9-54.2c-1.1-6.9-11.3,0.3-10.2,7.2c3,18,5.9,36,8.9,54
	C210,707.4,220.3,700.5,219.1,693.5z"/>
<path class="st1" d="M211,698.9c-1.2,0.6-1.8,0.2-2-0.9l-8.9-54c-0.1-0.7,0-1.4,0.3-2c0.5-0.9,1.2-1.5,2.1-2c1.1-0.6,1.8-0.3,2,0.9
	l8.8,54.1c0.1,0.7,0,1.4-0.3,2C212.6,697.9,211.8,698.6,211,698.9L211,698.9z"/>
<path class="st0" d="M229,3.9c-0.7-6.6-7-3.9-6.4,2.7c1.8,18.2,2.9,21.4,3.1,39.8c0.1,6.7,6.7,6.8,6.6,0.1
	C232.1,27.1,230.9,23,229,3.9z"/>
<path class="st1" d="M227.2,46.3c-0.1,0-1.5-0.1-1.5-1.9c-0.2-18.7-1.3-22.3-3.1-40.3c-0.1-0.5,0-1,0.2-1.5c0.3-0.7,0.9-1.1,1.6-1.2
	c0.8,0,0.8,0.7,0.9,1.1c1.9,19.1,3.1,23.3,3.3,42c0,0.3,0,0.7-0.2,1C228.2,46,227.7,46.2,227.2,46.3L227.2,46.3z"/>
<path class="st0" d="M436.1,3.6c-0.7-6.2-7-3.7-6.4,2.6c1.8,17.1,2.8,20.1,3,37.4c0.1,6.3,6.7,6.4,6.6,0
	C439.1,25.5,438,21.6,436.1,3.6z"/>
<path class="st1" d="M434.3,43.5c-0.1,0-1.5-0.1-1.5-1.8c-0.2-17.6-1.3-21-3.1-37.9c-0.1-0.5,0-1,0.3-1.4c0.3-0.6,0.9-1.1,1.6-1.1
	c0.8,0,0.8,0.6,0.9,1c1.9,18,3,21.9,3.2,39.5c0,0.3,0,0.7-0.2,1C435.3,43.3,434.8,43.5,434.3,43.5L434.3,43.5z"/>
<path class="st0" d="M505.1,3.6c-0.7-6.2-7-3.7-6.4,2.6c1.8,17.1,2.9,20.1,3,37.4c0.1,6.3,6.7,6.4,6.6,0
	C508.2,25.5,507,21.6,505.1,3.6z"/>
<path class="st1" d="M503.3,43.5c-0.1,0-1.5-0.1-1.5-1.8c-0.2-17.6-1.3-21-3.1-37.9c-0.1-0.5,0-1,0.2-1.4c0.3-0.6,0.9-1.1,1.6-1.1
	c0.8,0,0.8,0.6,0.9,1c1.9,18,3,21.9,3.2,39.5c0,0.3,0,0.7-0.2,1C504.3,43.3,503.8,43.5,503.3,43.5L503.3,43.5z"/>
<path class="st0" d="M575.3,4.1c-0.2-6.3-6.7-4.8-6.5,1.4c0.6,17.3,1.4,20.5,0.5,37.7c-0.4,6.3,6.2,7.5,6.5,1.2
	C576.9,26.4,576,22.3,575.3,4.1z"/>
<path class="st1" d="M570.8,43.5c-0.9-0.2-1.5-1.1-1.4-2c1-17.5,0.2-21.1-0.4-38.2c0-0.5,0.1-1,0.3-1.4c0.3-0.6,1-0.9,1.7-0.9
	c0.8,0.1,0.8,0.8,0.8,1.2c0.7,18.2,1.5,22.3,0.5,39.9c0,0.3-0.1,0.6-0.3,0.9C571.7,43.4,571.3,43.6,570.8,43.5L570.8,43.5z"/>
<path class="st0" d="M306.9,638.8c-1-6.3-11.3,1.5-10.3,7.8c2.9,17.9,4.4,36.1,4.6,54.2c0.1,6.9,10.8,2,10.7-4.9
	C311.6,676.8,310,657.7,306.9,638.8z"/>
<path class="st1" d="M303.7,699.6c-0.2,0.1-2.4,1-2.4-0.8c-0.2-18.3-1.7-36.6-4.6-54.7c-0.1-0.6,0-1.2,0.4-1.7
	c0.6-1.1,1.5-1.9,2.6-2.5c1.2-0.6,1.3,0.1,1.4,0.5c3,18.7,4.7,37.6,4.9,56.5c0,0.4-0.1,0.8-0.3,1.2
	C305.1,698.7,304.4,699.3,303.7,699.6L303.7,699.6z"/>
<path class="st0" d="M92.3,47.2c-0.1,2.5-7.8,2.6-7.7,0.1c0.9-17.2,1.6-24.3,2-41.6c0.2-7.4,7.9-7.5,7.7-0.1
	C93.9,22.8,93.2,30,92.3,47.2z"/>
<path class="st1" d="M85.5,48c1,0,2.1,0.1,3.1,0.3C89.4,31.9,90,23,90.3,4.6c0-0.6-0.1-1.3-0.3-1.8C89.8,2.3,89.3,2,88.8,2
	c-0.3,0-1.8,0.2-1.8,2.9C86.7,23,86.1,32,85.3,48L85.5,48z"/>
<path class="st0" d="M773.8,10.5c-1.1-2-5.5,2.4-4.3,4.4c8,14.2,11.5,20,19.2,34.6c3.3,6.3,7.7,1.9,4.3-4.5
	C785.2,30.5,781.7,24.8,773.8,10.5z"/>
<path class="st1" d="M789.8,46.1c-4.5-8.6-7.7-14.2-11.1-20.3c-0.1,0.5-0.1,1-0.2,1.5c-0.1,0.9-0.2,1.9-0.3,2.9
	c2.9,5.1,5.7,10.3,9.6,17.6c1,2,1.9,1.2,2.1,1c0.3-0.3,0.4-0.8,0.4-1.3C790.2,47.1,790,46.6,789.8,46.1z"/>
<path class="st0" d="M774.7,5.3c-0.2-2.6-9.8-2.7-9.6-0.1c1.2,18.2,2,25.9,2.5,44.1c0.2,7.9,9.8,8,9.6,0.1
	C776.7,31.1,775.9,23.5,774.7,5.3z"/>
<path class="st1" d="M765.4,6.8c1,15.5,1.8,23.5,2.2,40.4c0.1,2.5,1.9,2.6,2.2,2.6c0.6,0,1.1-0.2,1.5-0.7c0.3-0.5,0.5-1.1,0.4-1.6
	c-0.5-17.4-1.3-25.2-2.3-41.7C768.2,6.3,766.8,6.7,765.4,6.8z"/>
<path class="st0" d="M403.1,640.6c-0.5-8.3-11.5-2.8-11,5.6c1.2,19.3,2,38.8,2.4,58.5c0.2,8.5,11.2,3.2,11-5.4
	C405.1,679.5,404.3,659.9,403.1,640.6z"/>
<path class="st1" d="M397.2,703.9c-0.4,0.2-2.5,1.1-2.6-1.5c-0.4-19.7-1.2-39.5-2.5-58.7c-0.1-0.6,0.1-1.2,0.3-1.8
	c0.4-0.6,0.9-1.2,1.6-1.5c0.3-0.1,2.7-1.3,2.8,1.5c1.2,19.2,2,38.8,2.4,58.4c0,0.7-0.1,1.4-0.5,2C398.5,703,397.9,703.5,397.2,703.9
	L397.2,703.9z"/>
<path class="st0" d="M361.8,4.5l-0.3,39.6c0,5.9,7.7,6,7.7,0.1l0.3-39.6C369.5-1.4,361.8-1.5,361.8,4.5z"/>
<path class="st1" d="M363.2,44.4c-0.5,0-1-0.2-1.3-0.6c-0.3-0.4-0.4-0.8-0.4-1.3L361.8,3c-0.1-0.9,0.5-1.7,1.4-1.8
	c0.1,0,0.2,0,0.3,0c0.5,0,1,0.2,1.3,0.6c0.3,0.4,0.4,0.8,0.4,1.3l-0.3,39.6c0.1,0.9-0.5,1.7-1.4,1.8
	C363.4,44.4,363.3,44.4,363.2,44.4z"/>
<path class="st0" d="M590.5,639c-1-7-10.8,1.7-9.8,8.6c2.7,19.8,4.2,39.7,4.4,59.6c0.1,7.6,10.2,2.2,10.1-5.4
	C595.1,680.8,593.5,659.9,590.5,639z"/>
<path class="st1" d="M587.5,705.9c-0.2,0.1-2.3,1.2-2.3-0.9c-0.2-20.1-1.7-40.2-4.4-60.2c-0.1-0.7,0-1.3,0.3-1.9
	c0.5-1.1,1.4-2.1,2.4-2.7c1.2-0.7,1.3,0.1,1.3,0.5c2.9,20.6,4.5,41.3,4.7,62.1c0,0.5-0.1,0.9-0.3,1.3
	C588.9,704.9,588.3,705.5,587.5,705.9z"/>
<path class="st0" d="M686.7,640.5c-0.5-8.1-11-2.7-10.5,5.5c1.1,18.8,1.9,37.8,2.3,57c0.2,8.3,10.6,3.1,10.5-5.3
	C688.6,678.4,687.8,659.3,686.7,640.5z"/>
<path class="st1" d="M681,702.2c-0.4,0.2-2.4,1.1-2.4-1.5c-0.4-19.2-1.2-38.5-2.3-57.2c-0.1-0.6,0-1.2,0.3-1.7
	c0.4-0.6,0.9-1.1,1.5-1.5c0.3-0.1,2.5-1.2,2.7,1.5c1.1,18.7,1.9,37.8,2.3,56.9c0,0.7-0.1,1.3-0.4,1.9
	C682.3,701.3,681.7,701.8,681,702.2L681,702.2z"/>
<path class="st0" d="M38,168.6c-2.9-12.2-6.9-24.1-11.7-35.6c-2.3-5.5-8.2-0.7-6.2,4.8c4.1,12,8,24.2,11.4,36.5
	c0.3,1.4,1.2,2.5,2.5,3.1c1.9,1,4.3,0.3,4.8-3l0.2-1.3C39.3,171.5,38.9,169.9,38,168.6z"/>
<path class="st1" d="M33.6,173.6c-0.3,0-0.6-0.1-0.8-0.2c-0.7-0.2-1.2-0.8-1.3-1.5c-3.5-12.4-7.3-24.7-11.5-36.7
	c-0.3-0.7-0.3-1.5,0.1-2.2c0.2-0.6,0.8-1.1,1.5-1.2c0.2,0,0.6,0,1.1,1c4.7,11.4,8.6,23.2,11.5,35.2l0.2,0.6l0.4,0.5
	c0.4,0.6,0.6,1.3,0.4,2l-0.2,1.3C34.8,173,34.2,173.6,33.6,173.6C33.6,173.6,33.6,173.6,33.6,173.6L33.6,173.6z"/>
<path class="st0" d="M28.4,512.8c2,19.3,1.8,29.2,3.8,48.5c-0.2-2.4-7.8-0.2-7.5,2.2c-2-19.3-1.8-29.2-3.8-48.5
	C20.1,507.6,27.6,505.4,28.4,512.8z"/>
<path class="st1" d="M27.3,553.1h0.3l-3.1-40.5c0-0.6-0.2-1.2-0.6-1.6c-0.5-0.4-1.1-0.4-1.6-0.1c-0.8,0.6-1.2,1.6-1,2.6l3.1,40
	C25.3,553.3,26.3,553.2,27.3,553.1z"/>
<path class="st0" d="M29.1,72.6C28.4,89,27,97,26.3,113.3c0.1-2-6.6-2.3-6.7-0.3c0.7-16.4,2.1-24.4,2.7-40.7
	C22.7,66,29.3,66.3,29.1,72.6z"/>
<path class="st1" d="M23.8,70.4c-0.7,0.2-1.1,0.8-1.2,1.8L19.9,113c0,0.7,0.4-1.1,0.6-0.8c0.3,0.4,0.9,0.6,1.4,0.5
	c0.7-0.2,0.9,1.5,0.9,0.4l2.7-40.7c0.1-0.5-0.1-1-0.3-1.5C24.8,70.5,24.3,70.3,23.8,70.4z"/>
<path class="st0" d="M26.6,390c3,16.1,3.5,24.2,6.6,40.3c-0.4-2-6.9-0.7-6.5,1.3c-3-16.1-3.5-24.2-6.6-40.3
	C18.9,385.1,25.4,383.8,26.6,390z"/>
<path class="st1" d="M21,389.1c-0.7,0.3-0.9,1-0.7,2.1l6.6,40.3c0.1,0.6,0.1-1.2,0.4-0.9c0.4,0.3,1,0.4,1.5,0.2
	c0.7-0.3,1.2,1.2,1,0.2l-6.6-40.3c-0.1-0.5-0.3-1-0.6-1.4C22.1,388.9,21.5,388.9,21,389.1z"/>
<path class="st0" d="M28,450.3c-0.7-6.6-7-3.9-6.4,2.7c1.8,18.2,2.8,21.4,3,39.8c0.1,6.7,6.7,6.8,6.6,0
	C31,473.6,29.9,469.4,28,450.3z"/>
<path class="st1" d="M26.2,492.8c-0.2,0-1.5-0.1-1.5-1.9c-0.2-18.7-1.3-22.3-3.1-40.3c-0.1-0.5,0-1,0.2-1.5c0.3-0.7,0.9-1.1,1.6-1.2
	c0.8,0,0.8,0.7,0.9,1.1c1.9,19.1,3,23.3,3.2,42c0,0.3,0,0.7-0.2,1C27.1,492.4,26.7,492.7,26.2,492.8L26.2,492.8z"/>
<path class="st0" d="M28,260.8c-0.7-6.2-7-3.6-6.4,2.6c1.8,17.1,2.8,20.1,3,37.4c0.1,6.3,6.7,6.4,6.6,0.1
	C31,282.7,29.9,278.8,28,260.8z"/>
<path class="st1" d="M26.2,300.7c-0.2,0-1.5-0.1-1.5-1.8c-0.2-17.6-1.3-21-3.1-37.9c-0.1-0.5,0-1,0.2-1.4c0.3-0.6,0.9-1.1,1.6-1.1
	c0.8,0,0.8,0.6,0.9,1c1.9,18,3,21.9,3.2,39.5c0,0.3,0,0.7-0.2,1C27.1,300.5,26.7,300.8,26.2,300.7L26.2,300.7z"/>
<path class="st0" d="M28,324.4c-0.7-6.2-7-3.6-6.4,2.6c1.8,17.1,2.8,20.1,3,37.4c0.1,6.3,6.7,6.4,6.6,0.1
	C31,346.3,29.9,342.4,28,324.4z"/>
<path class="st1" d="M26.2,364.3c-0.2,0-1.5-0.1-1.5-1.8c-0.2-17.6-1.3-21-3.1-37.9c-0.1-0.5,0-1,0.2-1.4c0.3-0.6,0.9-1.1,1.6-1.1
	c0.8,0,0.8,0.6,0.9,1c1.9,18,3,21.9,3.2,39.5c0,0.3,0,0.7-0.2,1C27.1,364.1,26.7,364.4,26.2,364.3L26.2,364.3z"/>
<path class="st0" d="M26.7,200.3c-0.5-5.3-5.8-3.1-5.3,2.2c1.5,14.6,2.4,17.1,2.5,31.9c0.1,5.4,5.5,5.5,5.5,0
	C29.2,218.9,28.3,215.6,26.7,200.3z"/>
<path class="st1" d="M25.2,234.3c-0.1,0-1.2-0.1-1.2-1.5c-0.2-15-1.1-17.9-2.5-32.3c-0.1-0.4,0-0.8,0.2-1.2c0.2-0.5,0.7-0.9,1.3-1
	c0.6,0,0.7,0.6,0.7,0.9c1.6,15.3,2.5,18.7,2.7,33.7c0,0.3,0,0.6-0.2,0.8C26,234.1,25.6,234.3,25.2,234.3L25.2,234.3z"/>
<path class="st0" d="M19.8,580.4c1.9,13.1,3.7,26.1,5.6,39.2c0.8,5.9,8.5,4.8,7.6-1.1c-1.8-13.1-3.7-26.1-5.6-39.2
	C26.6,573.4,19,574.5,19.8,580.4z"/>
<path class="st1" d="M27.1,619.7c-0.5,0.1-1-0.1-1.4-0.4c-0.3-0.3-0.5-0.8-0.5-1.2l-5.6-39.2c-0.3-0.9,0.2-1.8,1.1-2
	c0.1,0,0.2,0,0.3-0.1c0.5-0.1,1,0.1,1.4,0.4c0.3,0.3,0.5,0.8,0.5,1.2l5.6,39.2c0.3,0.9-0.2,1.8-1.1,2
	C27.3,619.6,27.2,619.7,27.1,619.7z"/>
<path d="M771.1,7.3c0.8,215.9-0.2,454.8,0,671.1h-1.2c-0.2-154.6,0.1-348.7-0.3-503.3c0-55.9-0.4-111.8,0.3-167.8L771.1,7.3z"/>
<path class="st0" d="M779.9,327.3c-0.2-12.5-1.3-25-3.4-37.3c-1-5.9-7.8-2.5-7.2,3.3c1.3,12.6,2.3,25.3,3,38.2
	c0,1.4,0.6,2.7,1.7,3.5c1.6,1.4,4.1,1.2,5.3-1.8l0.5-1.2C780.6,330.5,780.6,328.8,779.9,327.3z"/>
<path class="st1" d="M774.6,331.1c-0.3-0.1-0.5-0.2-0.8-0.4c-0.6-0.4-1-1-1-1.8c-0.6-12.8-1.6-25.7-3-38.4c-0.1-0.8,0.1-1.5,0.6-2.2
	c0.4-0.5,1-0.9,1.7-0.8c0.2,0,0.6,0.1,0.8,1.2c2.1,12.2,3.2,24.5,3.3,36.8v0.7l0.2,0.5c0.3,0.7,0.3,1.4,0,2l-0.5,1.2
	C775.8,330.9,775.2,331.3,774.6,331.1L774.6,331.1z"/>
<path class="st0" d="M777.4,570.7c1.3,19.4,0.7,29.2,2,48.6c-0.2-2.4-7.8-0.4-7.6,1.9c-1.3-19.4-0.7-29.2-2-48.6
	C769.3,565.1,777,563.2,777.4,570.7z"/>
<path class="st1" d="M774.9,610.9h0.3l-1.7-40.6c0-0.6-0.2-1.2-0.6-1.6c-0.5-0.4-1.1-0.4-1.6-0.1c-0.9,0.5-1.3,1.6-1.1,2.6l1.7,40.1
	C773,611,774,610.9,774.9,610.9z"/>
<path class="st0" d="M777,81.3c1.3,16.3,0.9,24.4,2.2,40.8c-0.2-2-6.8-1.5-6.6,0.5c-1.3-16.3-0.9-24.5-2.3-40.8
	C769.8,75.6,776.5,75.1,777,81.3z"/>
<path class="st1" d="M771.5,79.8c-0.7,0.2-1,0.9-0.9,2l2.2,40.8c0.1,0.7,0.2-1.2,0.5-0.9c0.4,0.4,0.9,0.5,1.4,0.3
	c0.7-0.2,1,1.4,0.9,0.3l-2.3-40.8c0-0.5-0.2-1-0.5-1.4C772.5,79.8,772,79.7,771.5,79.8L771.5,79.8z"/>
<path class="st0" d="M776.5,363.4c1.5,16.3,1.1,24.4,2.6,40.8c-0.2-2-6.8-1.4-6.6,0.6c-1.5-16.3-1.1-24.4-2.6-40.8
	C769.3,357.8,775.9,357.1,776.5,363.4z"/>
<path class="st1" d="M771,362c-0.7,0.3-1,0.9-0.9,2l2.6,40.8c0.1,0.6,0.2-1.2,0.5-0.9c0.4,0.4,0.9,0.5,1.4,0.3
	c0.7-0.3,1,1.4,0.9,0.3l-2.6-40.8c0-0.5-0.2-1-0.5-1.4C772.1,361.9,771.5,361.8,771,362z"/>
<path class="st0" d="M776.2,501.1c-0.7-6.6-7-3.9-6.4,2.7c1.8,18.2,2.8,21.4,3,39.7c0.1,6.7,6.7,6.8,6.6,0.1
	C779.3,524.3,778.2,520.2,776.2,501.1z"/>
<path class="st1" d="M774.5,543.5c-0.2,0-1.5-0.1-1.5-1.9c-0.2-18.7-1.3-22.3-3.1-40.3c-0.1-0.5,0-1,0.2-1.5
	c0.3-0.7,0.9-1.1,1.6-1.2c0.8,0,0.8,0.7,0.9,1.1c1.9,19.1,3,23.3,3.2,42c0,0.3,0,0.7-0.2,1C775.4,543.2,774.9,543.5,774.5,543.5
	L774.5,543.5z"/>
<path class="st0" d="M776.2,220.3c-0.7-6.2-7-3.6-6.4,2.6c1.8,17.1,2.8,20.1,3,37.4c0.1,6.3,6.7,6.4,6.6,0
	C779.3,242.1,778.2,238.2,776.2,220.3z"/>
<path class="st1" d="M774.5,260.2c-0.2,0-1.5-0.1-1.5-1.8c-0.2-17.6-1.3-21-3.1-37.9c-0.1-0.5,0-1,0.2-1.4c0.3-0.6,0.9-1.1,1.6-1.1
	c0.8,0,0.8,0.6,0.9,1c1.9,17.9,3,21.9,3.2,39.5c0,0.3,0,0.7-0.2,1C775.4,260,774.9,260.2,774.5,260.2L774.5,260.2z"/>
<path class="st0" d="M775.1,152.8c-0.5-5.3-5.8-3.1-5.3,2.2c1.5,14.6,2.3,17.1,2.5,31.9c0.1,5.4,5.5,5.5,5.5,0
	C777.7,171.4,776.7,168.1,775.1,152.8z"/>
<path class="st1" d="M773.7,186.8c-0.1,0-1.2-0.1-1.2-1.5c-0.2-15-1.1-17.9-2.5-32.3c-0.1-0.4,0-0.8,0.2-1.2c0.2-0.5,0.7-0.9,1.3-1
	c0.6,0,0.7,0.6,0.7,0.9c1.6,15.3,2.5,18.7,2.7,33.7c0,0.3,0,0.6-0.2,0.8C774.4,186.6,774,186.8,773.7,186.8L773.7,186.8z"/>
<path class="st0" d="M768,433.1c1.3,13.1,2.6,26.3,3.9,39.4c0.6,5.9,8.2,5.2,7.7-0.8c-1.3-13.1-2.6-26.3-3.9-39.4
	C775.1,426.5,767.5,427.2,768,433.1z"/>
<path class="st1" d="M773.6,472.7c-0.5,0.1-1-0.1-1.3-0.4c-0.3-0.3-0.5-0.8-0.5-1.2l-3.9-39.4c-0.2-0.9,0.3-1.7,1.2-2
	c0.1,0,0.2,0,0.3,0c0.5-0.1,1,0.1,1.3,0.4c0.3,0.3,0.5,0.8,0.5,1.2l3.8,39.4c0.2,0.9-0.3,1.7-1.2,2
	C773.8,472.7,773.7,472.7,773.6,472.7z"/>
<path d="M29.5,6.9c0.8,216-0.2,455,0,671.4h-1.2c-0.2-154.7,0.1-348.9-0.3-503.6c0-56-0.4-111.9,0.3-167.9L29.5,6.9z"/>
<rect x="28.2" y="6.4" width="742.8" height="1.4"/>
<rect x="28.2" y="29.9" width="742.8" height="1.4"/>
<rect x="28.2" y="17.9" width="742.8" height="1.4"/>
<g>
	<rect x="28.2" y="643.4" width="742.8" height="1.4"/>
	<rect x="28.2" y="676.9" width="742.8" height="1.4"/>
	<rect x="28.2" y="659.9" width="742.8" height="1.4"/>
</g>
</svg>
