<?xml version="1.0" encoding="utf-8"?>
<!-- Generator: Adobe Illustrator 26.3.1, SVG Export Plug-In . SVG Version: 6.00 Build 0)  -->
<svg version="1.1" id="Laag_1" xmlns="http://www.w3.org/2000/svg" xmlns:xlink="http://www.w3.org/1999/xlink" x="0px" y="0px"
	 viewBox="0 0 648.2 220" style="enable-background:new 0 0 648.2 220;" xml:space="preserve">
<style type="text/css">
	.st0{fill:#483823;}
</style>
<g>
	<path class="st0" d="M648,130.2c-4.3-3.5-9.3-6.8-15-9.6c-3.1-1.5-5.6-5-7.4-6.4c-9.2-6.7-12.5-7.7-11.2-24.2
		c5.8-21.6-25.1-14.9-28-17.9c-6.7-6.9,50.1-6.9,43.8-30.1c-10.4-14.1-56.3-16.4-76.8-15.6c-5,0.2-10,0.3-15,0.4
		c-11.9,0.2-20.7-3.4-27.7-11.5c-13-15.1-25.6-18.1-47-12.8c-9.1,2.3-18.7,3.8-28.4,4.7c-17.5,1.6-34.1,5.6-43.9,15.6
		c-2.3,2.3-3.8,5.4-6.3,6.5c-2.6,1.1-5.7,0-8.5,0c-19.9,0-60.1-29.2-60.1,0c4,6.9,8.3,13.2,11.5,19.7c1.9,4,3.2,8.2,3,12.3
		c-0.7,12,2.9,16.2,22.2,19.3c3,0.5,5.7,2,8.2,3.2c9.9,4.5,17.8,16.8,28.5,20.7c10.9,3.9,24.5-0.6,36.3,2.5c4,1.1,8.2,2.2,12.5,2.8
		c10.6,4.9,22,4,35.8-1.1c13.9-5.2,28.2-4.7,42.8,5.4c15.8,11,33.9,20.4,50.9,30.4c22.4,18.1,43,12.5,66.3,17.4
		c4.8,1,9.3,1.3,13.6,1.1v-32.9L648,130.2L648,130.2z"/>
	<path class="st0" d="M234,195.9c7,13.3,17.7,23.9,33.2,24.1c15.8,0.3,51.6-8.3,67.9-1.9c20.2,1.9,24-7.3,26-7.7
		c13.8-3.3,26.5,2.7,40.3-0.2c13.9-2.9,32.1-21,31.8-34c-1-8.2-6.9-11.4-16.2-13.7c-14.8-3.5-45.3,1.3-62.2-18.5
		c-35.1-21.8-90.8-17.3-115.8,15.1C230.6,170.2,227.2,182.8,234,195.9z"/>
	<path class="st0" d="M0,181.8c3.4-1.2,7.4-2.1,12.2-2.5c22.5-1.9,33-10,49.4-32.1c21.8-14.6,36.2-6.6,68.1,2.4
		c27.8,7.9,44.1,12.2,62.8,5.3c10.9-4.7,18.6-19.1,21.6-29.2c2.3-8.1,13.3-29.2-4-27.4c-17.7,1.9-32,4.1-46-1.2
		c-17.9-6.8-26.8-21.1-35.3-33c-8.2-11.7-17.7-22.6-26.6-33.8C85.7,10.8,28.7,27,0,37.8V181.8z"/>
</g>
</svg>
