<?xml version="1.0" encoding="utf-8"?>
<!-- Generator: Adobe Illustrator 26.3.1, SVG Export Plug-In . SVG Version: 6.00 Build 0)  -->
<svg version="1.1" id="Laag_1" xmlns="http://www.w3.org/2000/svg" xmlns:xlink="http://www.w3.org/1999/xlink" x="0px" y="0px"
	 viewBox="0 0 434.6 342.3" style="enable-background:new 0 0 434.6 342.3;" xml:space="preserve">
<style type="text/css">
	.st0{clip-path:url(#SVGID_00000163042075337833136070000008235993452056989874_);}
	.st1{fill:#ADA49E;}
	.st2{fill:#8C8580;}
	.st3{fill:#57524F;}
	.st4{fill:#F0E0B4;}
	.st5{fill:#FFF0CF;}
	.st6{fill:#633E27;}
	.st7{fill:#4F321F;}
	.st8{fill:none;stroke:#F0E0B4;stroke-width:1.9121;stroke-miterlimit:10;}
	.st9{fill:#FFF0CF;stroke:#000000;stroke-width:4.9513;stroke-miterlimit:10;}
	.st10{fill:none;stroke:#000000;stroke-width:1.7683;stroke-miterlimit:10;}
	.st11{fill:none;stroke:#FFF0CF;stroke-width:0.3423;stroke-miterlimit:10;}
	.st12{fill:none;stroke:#FFF0CF;stroke-width:0.3376;stroke-miterlimit:10;}
	.st13{fill:#454138;}
	.st14{fill:#36322B;}
	.st15{fill:#C4B894;}
	.st16{fill:#FFFFFF;}
	.st17{fill:#9E390E;}
	.st18{fill:#8B2900;}
	.st19{fill:none;stroke:#A3D7FF;stroke-width:1.7683;stroke-miterlimit:10;}
	.st20{fill:#875435;}
	.st21{fill:#9C9C9C;}
	.st22{fill:#7D4E31;}
	.st23{fill:#5C3924;}
</style>
<g>
	<g>
		<defs>
			<rect id="SVGID_1_" x="42.8" width="281.2" height="287.4"/>
		</defs>
		<clipPath id="SVGID_00000178902904642557562540000017757596315123240889_">
			<use xlink:href="#SVGID_1_"  style="overflow:visible;"/>
		</clipPath>
		<g style="clip-path:url(#SVGID_00000178902904642557562540000017757596315123240889_);">
			<g>
				<polygon class="st1" points="100,5.3 127.5,18.6 135.5,44.2 100,28.2 				"/>
				<polygon class="st2" points="100,5.3 67.3,42.5 65,65 100,28.2 				"/>
				<g>
					<path d="M125.9,20c-6.8-3-20.3-9.2-27-12.3l3.1-0.6c-9.5,10.8-23.1,26.8-32.8,37.2l0.6-1.4c-1.1,7.3-2,15.2-2.6,22.5L65.6,63
						c8.1,2.2,19.9,5.1,28.2,7.1l-2.3,0.4c11.8-8.4,30.2-21.2,42.1-29.2l-1.4,4C129.6,36.9,127.5,28.6,125.9,20L125.9,20z
						 M129.1,17.3c4.2,9.1,7.6,18.8,10.6,28.4l-2.2,1.5c-11.8,8.1-30.8,20.1-42.9,27.9l-1.1,0.7l-1.2-0.4
						c-8.9-2.7-20.9-6.2-29.7-8.7c1-7.9,1.8-16.4,2.2-24.4v-0.7l0.6-0.7c9-10.9,23.3-26.5,32.7-37.2l1.3-1.5l1.7,0.9
						C108.1,6.5,122.2,13.6,129.1,17.3L129.1,17.3z"/>
				</g>
				<g>
					<polygon class="st3" points="135.5,44.2 100,28.2 65,65 93,72.7 					"/>
					<path d="M134.4,44.3c-10.4-4.2-24.9-10.3-35-14.8l1.6-0.3L83.6,47.7c-5.8,6.2-12,12-17.7,18.2l-0.6-2c7,1.9,21.1,5.5,28.1,7.3
						l-1.3,0.2C105.8,61.8,119.8,52.6,134.4,44.3L134.4,44.3z M136.7,44.1c-13.3,10.5-28.5,20.7-42.8,30l-0.6,0.4l-0.7-0.2
						c-6.9-2.1-21-6.1-27.9-8.1l-2-0.6c6.4-6.5,12.4-13.4,18.7-20L99,27.3l0.7-0.7C110.7,31.4,125.7,38.8,136.7,44.1L136.7,44.1z"/>
				</g>
			</g>
			<g>
				<path class="st4" d="M125.4,271.2c0,0-38.1-96.1-42.9-127.6c-3.2-21.1,1.6-33.1,8.3-39.1c7.9-7.3,24.4-5,17.1,10
					c-4.5,9.3,20.1,62.9,34,87.6s24.1,0.4,24.1,0.4"/>
				<g>
					<path d="M123.4,271.9c-12.9-32.8-25.4-65.8-35.8-99.5c-5-17.1-10.9-35-7.5-53c1.5-7.4,5.3-14.9,11.7-19.2
						c5.1-3.1,12.5-4.4,17.5-0.2c4.3,3.7,3,10.3,0.8,14.7c-0.5,2,0,4.4,0.4,6.6c2.7,11.8,7.7,23,12.5,34.1
						c5.7,12.8,11.9,25.3,18.6,37.6c3.5,6,9.3,19.7,17.8,15.4c2.4-1.2,4.9-3.6,6.9-5.9l3.7,2c-0.7,1.9-1.7,3.5-2.9,5.1
						c-4,5.7-11.4,8.7-17.8,4.8c-6.8-4-10.1-11.6-13.7-18.2c-6.6-12.6-12.5-25.4-17.9-38.5c-2.7-6.5-5.3-13.2-7.6-19.9
						c-2.2-7-4.7-13.9-4.9-21.3c0-1,0.1-2.1,0.5-3.4c1-2.3,2-4.4,1.9-6.7c-0.5-6.4-9.6-5.4-13.5-2.6c-2.6,1.8-4.5,4.4-5.9,7.2
						c-5.7,12.1-4.1,26.8-1.2,39.6c3.2,13.6,7.5,27,11.9,40.2c8.8,26.7,18.4,53.1,28.3,79.4C127.3,270.4,123.4,271.9,123.4,271.9
						L123.4,271.9z"/>
				</g>
			</g>
			<path class="st5" d="M179.8,75.3c0,0-22,61.7-28.5,45.2c-9.8-24.8-7.9-52.4-7.9-52.4S178,60.4,188.3,54c30.6-19,84.1,5.3,98.1,24
				c7.2,9.6,31.8,56.7,31.8,56.7s-12.8,22.1-36.6,34.5c-15.7,8.2-9-57.9-9-57.9"/>
			<g>
				<path d="M181.4,75.8c-3.2,8.9-6.6,17.7-10.5,26.4c-3,6.5-6,13.1-10.5,18.9c-2.5,3.4-7.2,6.5-10.2,1.7c-1-1.8-1.5-3.5-2.2-5.3
					c-3.9-11.3-5.9-23.2-6.6-35.2c-0.3-5.3-0.4-10.6,0-16c14.8-3.6,29.9-7,43.8-13.1c3.1-1.6,6.1-3.5,9.4-4.7
					c27.7-10.3,70.7,4.8,90.9,25.2c3.3,3.4,5.6,7.6,8.1,11.6c9.4,15.8,18.1,31.9,26.8,48.1l0.6,1.2l-0.7,1.2
					c-7.7,12.6-18.1,23.6-30.5,31.7c-2.1,1.3-4.2,2.6-6.4,3.8c-1.3,0.7-3.2,1.5-5.1,1.3c-10.5-1.4-9.9-24.7-9.9-32.7
					c0.2-9.7,1-19.3,2.5-28.9l3.4,0.3c-0.1,3.6-0.3,10.7-0.3,14.3c0.1,8.7-1,35.5,4.6,41.1c0.4,0.2,0.5,0.2,1,0.1
					c0.3-0.1,0.6-0.2,1.1-0.5c6.2-3.2,11.9-7.3,17.1-11.9c6.9-6.1,13.3-13.2,18.2-21l-0.1,2.4c-8.4-16.2-16.9-32.5-26-48.3
					c-0.8-1.5-2.6-4.4-3.5-5.8c-3.5-5.7-8.6-9.9-14.1-13.8c-21.2-14.2-51.4-24.6-76.3-15.4c-3.2,1.2-6,3-9,4.6
					c-5.3,2.6-10.9,4.4-16.4,6.1c-8.9,2.7-17.8,4.9-26.8,7l1.7-2c-0.7,16.1,1.1,32.6,6.3,47.9c0.7,2,1.7,5,2.2,5.1c0.1,0,0,0,0.2,0
					c7.9-4.4,20.1-36.8,23.9-46.6C178.1,74.7,181.4,75.8,181.4,75.8L181.4,75.8z"/>
			</g>
			<path class="st5" d="M158.2,211.2c8.5-0.8,7-7.5,7.8-9v0.1c7.9-13,2.4-38.3-1.6-42.3c-14.9-14.9-13.7-55.8,8.8-84.5
				c0,0,25.8-25.1,61.5-8.1s42.8,23,42.8,23c3.3,22.1,1.4,45.2-16.3,68.5c-10.5,13.8,5.8,16.5,14,50.4c7.2,29.7,9.2,50.3,9.2,50.3
				c2.7,8.8,17.6,45.3,23.9,75.2c0,0,0,0,0,0.1c0.2,0.9,0.4,1.9,0.6,2.8c0.1,0.3,0.1,0.7,0.2,1c0.2,0.8,0.3,1.6,0.4,2.5
				c0.1,0.4,0.1,0.9,0.2,1.3c0.1,0.7,0.2,1.5,0.3,2.2c0.1,0.5,0.1,1,0.2,1.4c0.1,0.7,0.2,1.4,0.3,2c0.1,0.6,0.1,1.1,0.2,1.7
				c0.1,0.7,0.1,1.4,0.2,2.1c0.1,0.9,0.1,1.8,0.2,2.6c0,0.4,0,0.8,0,1.3c0,0.6,0,1.3,0,1.9c0,0.4,0,0.8,0,1.2c0,0.6,0,1.2-0.1,1.7
				c0,0.4-0.1,0.8-0.1,1.2c-0.1,0.6-0.1,1.1-0.2,1.6c0,0.3-0.1,0.7-0.2,1c-0.1,0.6-0.2,1.1-0.3,1.6c-0.1,0.3-0.1,0.5-0.2,0.8
				c-0.2,0.8-0.5,1.5-0.7,2.2c-10.6,26.4-40.4,30.4-68.9,14.5c-24.1-13.5-47.4-33.1-65.7-54c-22.1-23.7-36.7-48.3-36.8-72.6
				c0-0.7,0-1.3,0-2c0.4-15.7,0.8-19.3,19.3-42.2C157.1,213,162.5,210.1,158.2,211.2z"/>
			<path class="st4" d="M311.4,378c15.3,10.9,34,19.7,55.1,17.5s43.6-8,44.5,0.8s-29.2,17.1-62.3,17c-33.8-0.1-54.2-8.7-48.2-20
				S307.5,375.3,311.4,378z"/>
			<path class="st6" d="M366.5,395.6c-4.8,0.5-9.4,0.4-13.9-0.1c-5.2,3.9-11.5,6.2-17.9,6.3c-9.9,0.1-19.6,1.2-29.5-0.2
				c-1.6-0.2-3.2-0.5-4.7-0.8c4.4,7.4,22.4,12.5,48.2,12.6c33,0.1,63.2-8.2,62.3-17C410.1,387.6,387.6,393.4,366.5,395.6z"/>
			<g>
				<g>
					<path d="M312.6,376.3c15.5,11.3,34.4,19.2,53.8,16.8c12-1.3,23.4-4,35.7-4.1c3.2,0.2,6.3,0.3,9.2,2.6c3.4,2.8,2.8,8-0.4,10.7
						c-10.4,8.7-33.4,11.8-46.7,13.2c-10.6,1-21.4,1.2-32.1,0.3c-8.1-0.7-16.4-2-24.1-5.2c-6.8-2.6-14.7-9-11-17.3
						c0.9-1.9,2.1-3.6,3.1-5.4c1.3-2.2,2.5-4.5,3.8-6.9C305.5,377.7,308.4,373.3,312.6,376.3L312.6,376.3z M310.2,379.7
						c-0.4-0.2-0.5-0.2-0.3-0.2c0.1,0,0.1,0,0,0c-2.2,3-3.2,7.2-4.7,10.8c-0.6,1.8-1.5,3.5-2.2,5.2c-2.1,9.1,23.2,13,29.7,13.7
						c20.5,2.1,41.9,1.6,61.7-3.9c4.5-1.4,9.7-3.3,12.9-6.6c0.9-1.1,1.3-1.7,0.9-2.7c-3.3-4.6-30.6,1.1-37.4,1.4
						C348.8,400.8,327.8,392.3,310.2,379.7L310.2,379.7z"/>
				</g>
			</g>
			<path class="st4" d="M155.7,331.3c3.2-15.7,129.1-1.8,132.6,26.5c4.3,34.5-6.5,37.3-8.8,46s-61.9,9.6-97.5,12.7
				s-34.2-19.9-12.7-23.8s51.5-6.6,51.5-6.6C203.5,380.8,143.4,391.4,155.7,331.3z"/>
			<path class="st7" d="M280.3,380.6c-5.4,4.8-12.3,7.7-19.4,7.3c-2-0.2-4-0.3-5.9-0.2c-0.6,0.1-1.1,0.1-1.5,0.1
				c-1.2,0.3-4.8,0.9-5.3,1c-7.4,1.3-15.1,3-22.7,2.7c-1.9-0.1-3.8-0.2-5.7-0.5c-4,2-8.4,3.1-12.9,3.1c-3.3,0-6.3-0.5-9.2-1.5
				c-5,3.6-11.1,5.8-17.3,5.8c-5.8,0-11.1-1.7-15.6-4.6c-17,6.1-15.7,25.4,17.2,22.6c35.6-3.1,95.2-4,97.5-12.7
				c1.7-6.3,7.8-9.5,9.4-23.8C286,380.2,283.1,380.4,280.3,380.6z"/>
			<g>
				<path d="M154,330.9c2.7-11.1,40.4-7.7,49.8-7c16.6,1.6,33.2,4.4,49.3,8.9c8,2.3,16,5.1,23.5,9.2c6.5,3.6,14,9.3,14.1,17.6
					c0.6,5.3,1,10.5,0.8,15.8c-0.2,6.4-1.4,13.2-4.4,18.9c-1.4,2.9-3.3,5.2-4.6,8c-0.2,0.6-0.5,1.2-0.7,1.8
					c-0.5,1.9-2.5,3.4-3.9,4.1c-5,2.4-10.5,3.2-15.7,4.1c-12.4,1.8-24.9,2.7-37.4,3.6c-12.4,0.8-24.8,1.3-37.3,2.1
					c-6.1,0.4-12.9,1.1-19,0.1c-4.4-0.7-8.9-1.8-12.5-4.8c-6.8-5.7-4-14.5,2.7-18.8c3.7-2.5,8.2-3.8,12.5-4.5
					c16.4-3,32.9-4.9,49.5-6.6l-0.5,5.1c-3.8-1-8.2-1.2-12.2-1.5c-8.7-0.6-17.4-1.1-26-3.2C153.4,376.7,147.9,357.5,154,330.9
					L154,330.9z M157.5,331.7c-2.4,12-1.9,25.1,5.7,34.7c7.7,9.6,20.4,12.2,32.5,13.8c8.6,1.3,17.4,1.1,25.9,3.3l13.1,3.9
					c-20.8,1.7-42.2,3.5-62.8,6.9c-6.3,0.8-16.2,4.2-15.8,11.9c1.7,7.2,12.4,8.4,18.8,8.5c3.5,0.2,8.7-0.5,12.2-0.8
					c12-1.1,25.3-1.9,37.3-2.7c8.3-0.5,16.5-1.1,24.7-1.9c8-0.9,16.4-1.6,24-4c1.4-0.4,3.4-1.3,4.1-2.1c0-0.1,0,0,0-0.1l0.3-0.9
					c1.2-3.6,3.8-6.6,5.5-9.8c2.8-5.3,3.9-11.1,4.1-17.1c0.3-5.9-0.1-12.2-1-18.1c-1.5-5.5-6.8-8.9-11.6-11.8
					c-26.2-13.7-66.3-19.1-95.9-18.9C173.9,326.8,159.7,327.2,157.5,331.7L157.5,331.7z"/>
			</g>
			<path class="st4" d="M304.7,320.6c-0.5,0-1,0-1.6,0c-6.1,1.5-12.6,1.7-18.7,0.2c-3.2-0.8-6.3-1.6-9.4-2.6
				c-21.7-3.3-42.8-10-61.2-21.5c-15.6-9.7-30.3-22.9-42.6-36.6c-10.4-11.6-16.6-13.1-16.7-28.9c-0.1-7.8,7.8-14.8,9.6-21.9
				c-0.4,0.5-0.8,1.1-1.2,1.5c-0.2,0.2-0.4,0.5-0.7,0.7c-0.7,0.6-1.4,1.2-2.2,1.7c-0.1,0-0.1,0.1-0.2,0.1c-1.1,1.5-2.9,2.5-5.4,2.5
				c-0.9,0-1.7-0.2-2.4-0.4c-2.5,2.3-4.4,4.1-4.8,4.6c-2,2.3-16.5,7.1-18.1,9.7c-12.2,18.6-3.7,23.3-4,35.5c2.2,2.6,2.2,6.9,0,9.6
				c4.7,36.8,70.9,69.8,114.9,108.8c24.4,21.6,58.3,11.9,68.9-14.5C313.2,359.1,310,340.1,304.7,320.6z"/>
			<g>
				<path d="M307.6,368.7c6.5-19.9-9.3-61.1-15.4-81.6c-2.9-9.2-6.7-17.8-9.8-26.9c-1.8-14.7-4.7-29.4-8-43.9
					c-2.3-10.8-5.7-21.1-11.2-30.7c-3.4-6.8-10.5-14.3-7.4-22.6c1.1-3.1,3-5.3,4.8-7.7c9.1-12.4,14.8-27.2,15.9-42.6
					c0.6-7.2,0.2-14.6-0.6-21.9l3.2-0.5c2.1,11.1,2.5,22.8,0.5,34c-2,11.3-6.6,22.2-13,31.7c-1.7,2.8-4.6,5.8-5.7,8.8s0,5.6,1.4,8.5
					c1.6,3.1,3.7,6.3,5.5,9.7c1.8,3.3,3.5,6.8,4.9,10.4c2.8,7,4.6,14.5,6.2,21.9c3.2,14.7,5.8,29.4,7.3,44.3c0.6,1.7,3.3,9.7,4.5,13
					c2.9,8.9,6.8,17.9,9.7,26.8c5.6,18.2,11.5,36.7,12.3,55.9c0.1,4.9-0.2,10-2.1,14.7C310.6,369.9,307.6,368.7,307.6,368.7
					L307.6,368.7z"/>
			</g>
			<g>
				<path d="M153.1,208.6c4.8-0.6,7.5-6.1,9-10.6c1.8-5.5,2.7-11.5,2.8-17.5c0-2.7,0.2-6.4,0.3-9.1c-0.2-3.2-0.6-6.9-2.3-9.6
					c-1.8-1.8-3.5-3.9-4.8-6.1c-13.3-24.2-4.3-61.3,13.7-81l2.6,2c-3.4,5.1-6.3,10.4-8.8,15.9c-4.9,11-8,22.9-8.4,34.9
					c-0.2,10.8,1.2,22.7,8.7,31c0.7,0.8,1.2,1.9,1.5,2.8c1.1,3.4,1.3,6.5,1.8,9.7c0.7,3.1,1.1,6.3,1.1,9.5
					c-0.2,9.8-0.6,20.2-6.2,28.9c-2.2,3.3-5.8,6-9.8,6.7C154.3,216.2,153.1,208.6,153.1,208.6L153.1,208.6z"/>
			</g>
			<g>
				<path d="M192.2,349.3c-13.5-11.5-28.5-20.7-41.9-32.5c-3.3-3-6.3-6.4-9.6-9.4c-9.8-9.1-20.1-21.9-17-36.2l3.3,0.1
					c0.8,4.3,1.6,8.2,2.9,12.1c3.1,9,8.9,17,15.9,23.5c2.4,2.2,5.2,4,7.8,6c7,5.2,13.8,10.8,20.7,16.4s13.6,11.4,20,17.6
					C194.4,346.8,192.2,349.3,192.2,349.3L192.2,349.3z"/>
			</g>
			<g>
				<g>
					<path class="st8" d="M322.3,213.7"/>
				</g>
			</g>
			<path class="st5" d="M284.6,303.8c16.8-0.1,42.6,20.8,36.2,56.7s-13.5,40.2-14.6,49.6s-15.5,16.1-52,24.7s-38.5-15.5-16.7-22.9
				c21.8-7.3,36.6-8.5,36.6-8.5C256.1,389.9,232.5,304.2,284.6,303.8z"/>
			<path class="st4" d="M287.2,303.9c8.8,7.4,14.9,18.1,15.8,29.6c1.1,13.2,0.7,25.7-2,37.6c1.2,4.9,1.2,9.9,0.1,15
				c-0.9,5.6-3,10.6-6.4,15c-1.4,2.6-3.2,5-5.2,7.1c-2.3,3.1-5.1,5.8-8.5,8c-1.3,0.7-2.6,1.4-3.9,2.1c-0.1,0.1-0.3,0.2-0.4,0.3
				c-4.9,3.3-11.9,6.6-18.5,7.8c-9,4.3-18.8,7-28.6,8c5,2.3,13.1,2.9,24.7,0.2c36.6-8.5,50.9-15.3,52-24.7
				c1.1-9.4,8.2-13.7,14.6-49.6C326.9,326.4,303.9,305.8,287.2,303.9z"/>
			<path class="st6" d="M281.5,417.3c-2,0-4-0.2-5.9-0.6c-2.8,0.9-5.8,1.4-8.8,1.4c-4.7,0-9-1.1-12.8-3c-3.8-1.1-7.3-2.9-10.3-5.4
				c-2,0.6-4.1,1.3-6.3,2c-21.8,7.3-19.8,31.4,16.7,22.9c19.3-4.5,32.4-8.5,40.6-12.6c-2.9-1.3-5.5-3.1-7.8-5.3
				C285.2,417.1,283.3,417.3,281.5,417.3z"/>
			<g>
				<path d="M252.5,328c3.2-15.4,13.9-25.6,29.9-26.2c7.3-0.7,14.5,2.1,20.4,6c11.9,7.9,19.5,21.5,20.9,35.6
					c0.8,6.9,0.1,14.1-1.3,20.9c-1.9,10.1-4.3,20.2-8.2,29.7c-2,5.5-5.3,10.4-6.2,16.1c-0.1,0.6-0.3,1.5-0.5,2.2
					c-0.3,0.7-0.5,1.4-0.9,2.1c-0.5,0.7-1.1,1.8-1.6,2.4c-1.3,1.7-3.4,3.3-5.2,4.6c-6,3.8-12.6,6.2-19.1,8.4
					c-6.5,2.1-13.1,4-19.7,5.7c-11.2,2.8-26.8,7.1-36.8-0.9c-5.5-4.6-4.7-12.6-0.2-17.6c5-6,12.1-8.1,19.2-10.2
					c8.2-2.5,16.6-4.6,25.2-5.8c1.7-0.2,3.4-0.4,5.3-0.6l-1.5,5.2c-3.6-2.9-5.8-6.5-7.9-10.4c-2-3.7-3.5-7.5-4.8-11.4l3.4-1.4
					c3.5,6.6,7,13.8,12.8,18.5l5.9,4.4c-8.9,0.8-18.2,2.4-26.8,4.6c-4.9,1.2-9.7,2.6-14.4,4.1c-4.3,1.2-8.8,3.3-11.6,6.6
					c-4,4.5-2.9,9.7,2.9,11.7c9.3,3.2,19.2,0.5,28.5-1.6c10.8-2.8,39.5-8.7,43.7-19.2l0.2-0.5l0.1-0.5c0.5-3,1.2-6.1,2.4-8.8
					c5.4-12.4,8.8-25.2,11.3-38.5c1.4-6.5,2-12.9,1.3-19.5c-1.2-12.9-8-25.2-18.7-32.5c-5.3-3.5-11.5-6-17.8-5.5
					c-3.2,0.2-6.4,0.7-9.4,1.7c-9.4,3.1-15.1,11.7-17.2,21.1C256.1,328.8,252.5,328,252.5,328L252.5,328z"/>
			</g>
			<g>
				<path class="st6" d="M241.8,373.8c-1.3,0.9-2.8,1.5-4.7,1.9c-2.7,0.5-5.1,0.1-7-0.9c-1.9,1.2-3.9,2.4-6,3.3
					c-0.1,2.4-0.2,4.1-0.5,5.1c-3.4,11.4-2.4,27.3,9.8,25.2c11.1-1.9,19.2-12.3,22.9-25.5C251,380.5,246.1,377.5,241.8,373.8z"/>
			</g>
			<path class="st9" d="M154.9,307.4"/>
			<g>
				<g>
					<path class="st10" d="M133.9,285.2"/>
				</g>
			</g>
			<g>
				<g>
					<g>
						<path class="st11" d="M207.8,130.2"/>
					</g>
				</g>
				<g>
					<g>
						<path class="st12" d="M206.6,127.7"/>
					</g>
				</g>
				<g>
					<path d="M204.4,125.5c0,0-6,19.9-34.1-4.5c0,0,0.8,33.2,19.4,40.9c29.5,12.3,45.6-17.5,45.6-17.5c-36,3.3-30.8-17.5-30.8-17.5"
						/>
					<path d="M205.6,125.9c-1.8,5.6-7.6,9.4-13.4,8.7c-9-1-16.4-6.9-23.1-12.4l2.7-1.3c0.9,13.1,4.3,30.3,15.7,38.3
						c5.1,3.1,11.5,4.4,17.4,4.1c12.3-0.6,22.6-9.7,28.4-19.9l2,3.1c-10.4,0.8-24.2,1.3-30.8-8.5c-2.1-3.4-2.7-7.6-1.5-11.4l2.6,0.6
						c-0.3,4.5,1.7,9.1,5.6,11.5c7,4.4,15.8,4.1,23.8,3.6l4-0.2l-1.9,3.3c-6.8,11.2-18.4,20.5-32,20.9c-6.7,0.2-13.2-1.5-19.1-4.7
						c-5.8-3.4-9.8-9.3-12.3-15.4c-3.7-9.2-5.1-19.1-5.3-29l2.8,2.4c7.8,6.9,25.2,19.9,31.8,5.4
						C203.1,125.1,205.6,125.9,205.6,125.9L205.6,125.9z"/>
				</g>
				<g>
					<path class="st13" d="M229.1,113.3c-3.2-7.9-26-15.4-32.1-11.5s0.6,24.2,7.5,25.7S233.8,124.9,229.1,113.3z"/>
					<path class="st14" d="M200.3,114.5c1.1,0.6,2,1.4,3,2.2c2.2,1.8,4.5,3,7.2,4c2.8,1.1,5.7,1.4,8.6,1.3c1.8,0.8,3.9,1.2,6.1,1.3
						c-6.1,3.7-16.1,4.9-20.3,4c-4.6-1-9.2-10.6-9.8-18C196.5,111.5,198.3,113.4,200.3,114.5z"/>
					<g>
						<path d="M228.3,113.4c-3.2-6.2-13.6-9.5-20.1-10.8c-3-0.5-8.1-1.4-10.3,0.7c-3.7,5.1,1.3,20.2,7.3,22.1
							C211.3,126.4,231.6,122,228.3,113.4L228.3,113.4z M230.8,112.4c4.6,10.9-8.6,15.8-17.1,16.6c-3.3,0.3-7,0.7-10.2-0.6
							c-3.3-1.6-5.1-4.9-6.6-7.9c-0.9-2-1.6-4-2.2-6.1c-3.6-13,0.8-18,14.1-15C216,101.2,227.4,105.4,230.8,112.4L230.8,112.4z"/>
					</g>
					<g>
						<path d="M197.8,119.2c0.6-1,1.3-2.3,1.8-3.4c0.1-0.4,0.7-0.6,0.8-1.1c0.3-1.3-0.2-2.6-0.1-3.9c0-0.4,0.1-0.8,0.8-1.3l2.5-0.2
							c1.4,0.9,0.9,2.1,0.6,3.2c-0.4,1.1-1,2-1.4,3c-0.2,0.5,0,1.1-0.3,1.6c-0.7,1.5-1.6,2.7-3,3.8
							C199.6,121,197.8,119.2,197.8,119.2L197.8,119.2z"/>
					</g>
					<g>
						<path d="M212.4,125.8c-0.1-1.7,0.2-3.2,0.8-4.8c0.1-0.5,0.8-0.8,1-1.3c0.8-1.7,1.7-5.5,4.3-4.7l1.4,2.1
							c0.1,0.9-0.1,1.2-0.4,1.5c-0.9,0.8-2.3,1.3-3,2.4c-0.3,0.4,0,1-0.3,1.3c-0.5,1.1-1,2.5-1.3,3.6
							C215,125.9,212.4,125.8,212.4,125.8L212.4,125.8z"/>
					</g>
				</g>
				<g>
					<path class="st15" d="M250.9,118.8c-11-6.4-22.2-11.9-34-16.3c-10.2-3.9-20.9-6.9-31.6-9.5c-1.2-0.3-3.5-0.9-4.7-1.3v-0.4
						l4.8,0.4c17.6,1.3,35,6.6,50.2,15.5c5.5,3.3,10.8,6.9,15.6,11.3L250.9,118.8L250.9,118.8z"/>
				</g>
				<g>
					<path class="st16" d="M210.1,69.8c0,0-18.1-3.6-26.1,11.4c-1.6,3,7.4,3.5,14.5,5.8c7.8,2.5,12.5,6.2,12.5,6.2L210.1,69.8z"/>
					<path d="M209.3,70.5c0.1,0.2,0.4,0.3,0.5,0.3h-0.1h-0.1h-0.2c-9.3-1.2-20,2.3-24.3,11.1c0,0.1,0,0,0-0.1
						c0.2,0.2,0.9,0.6,1.5,0.8c2.2,0.8,8.5,2.4,10.9,3.1c5.1,1.5,9.9,3.4,14.4,6.4l-2.5,1.3C209,85.6,208.5,78.2,209.3,70.5
						L209.3,70.5z M210.9,69.1c1.7,8.8,1.5,18.3,1.7,27.3c-4.5-3.8-9.9-6.9-15.6-8.7c-3.6-1.2-7.6-1.3-11.3-2.6
						c-1.8-0.6-4-2.2-2.9-4.4c0.4-0.7,0.6-1.2,1-1.8c2.5-4,6.4-7.2,10.8-8.8c4.9-1.9,10.3-2.2,15.4-1.4
						C210.4,68.8,210.7,68.9,210.9,69.1L210.9,69.1z"/>
				</g>
				<g>
					<path class="st16" d="M246.4,83.9c0,0,14.6,10.2,9.4,27.1c-1.1,3.4-6.8-2.4-13.6-5.9c-7.6-3.9-13.7-4.7-13.7-4.7L246.4,83.9z"
						/>
					<path d="M246.4,82.9c0.4,0,0.7,0.2,0.9,0.3c5.8,3.3,9.7,9.6,11,16.1c0.7,4,0.2,8.2-1,12.1c-0.8,2.5-3.3,2.3-5.1,1.2
						c-3.4-1.9-6.4-4.4-9.7-6.2c-5.3-2.5-11-4.3-16.7-5.1C232.4,95,239.4,88.9,246.4,82.9L246.4,82.9z M246.5,85
						c-5.7,5.6-11.3,11.1-17.1,16.4l-0.7-2.3c5.3,0.8,10.1,2.7,14.7,5.4c2.3,1.2,4.5,2.6,6.6,4c1.4,0.8,3,2,4.5,2.2c0.1,0,0,0,0,0
						c-0.1,0,0,0,0-0.1c2.9-9.8-1.7-18.4-8.4-25.4l-0.2-0.2l-0.1-0.1l0,0c-0.1,0,0.1,0.1,0.2,0.1C246.2,85,246.4,85,246.5,85
						L246.5,85z"/>
				</g>
				<path d="M194.8,85.9c3.4,0,6,1.3,7.7,3.2c1.3-0.6,1.7-2.2,1.7-4.3c0.1-2.7-3.4-4.2-5.8-4.2c-2.4,0.1-4.5,2.3-4.6,5.1l0.4,0.2
					C194.4,85.9,194.6,85.9,194.8,85.9z"/>
				<path d="M249.4,103.7c-0.4-3.3-3.5-5.6-6.8-5.2c-2.7,0.4-4.8,1.8-5.2,4.1c0.2,0,0.3-0.1,0.5,0c1.8,1.1,4.3,2.5,9.3,5.4
					C248.8,107.3,249.7,106.1,249.4,103.7z"/>
				<g>
					<path class="st17" d="M203.5,128.6c1.1,5.7,4.3,11,8.9,14.6c-1.1,1.5-2.1,3-2.9,4.4c-4.1,7.6-1.7,17.5-8,24.3
						s-22.6,1.8-19.2-18.8c1.5-9.1,5-14.2,9.2-18.9C196,133.4,200.2,131.5,203.5,128.6z"/>
					<path class="st18" d="M203.5,128.6c1.1,5.7,4.3,11,8.9,14.6c-1.1,1.5-2.1,3-2.9,4.4c-4.1,7.6-1.7,17.5-8,24.3
						c-4.5,4.9-14.3,3.7-18.1-5.2c0.3,0.1,0.7,0.1,1,0.2c1,0.8,2.1,1.5,3.3,1.9c3.8,1.2,7.4-0.4,9.2-3.4c1.8-2.9,1.5-4.7,2.6-7.9
						c0.2-0.5,0.2-1,0.1-1.5c1.1-1.5,0.4-4.2-2.2-4.4c-2.6-0.3-5.2,0.3-7.8,0.1c-2.3-0.1-4.6-1-6.9-1.6c1.9-6.9,5.4-12.1,8.9-15.9
						C196,133.4,200.2,131.5,203.5,128.6z"/>
					<g>
						<path d="M204.3,127.2c0.8,0.7,1.1,2,1.3,3c1.4,5.1,4.8,9.6,9.1,12.6c-1.3,1.8-2.8,3.8-3.8,5.7c-2.5,4.9-2.3,10.2-3.7,15.8
							c-0.8,3.4-2.4,6.8-5,9.2c-3.6,3.4-9.3,3.5-13.5,1.2c-11.2-6.4-9.4-22.1-4.8-32.2c1.7-3.5,4-6.6,6.6-9.4l0.4-0.4
							c2.2-0.3,4.4-0.9,6.5-1.9c1.4-0.7,2.8-1.5,4-2.4l0.6-0.5C202.6,127.5,203.5,127.2,204.3,127.2L204.3,127.2z M203.1,130
							c0.2,0.2,0.6,0.3,0.6,0.2c-3.4,2.8-7.6,4.7-11.9,5.4l0.9-0.5c-2.4,2.7-4.5,5.5-6,8.7c-3.8,8.6-5.9,22.4,3.5,28
							c4.6,2.5,9.7,0.9,12-3.7c2.6-4.8,2.5-10.1,3.8-15.6c0.7-3.8,2.8-7.5,5.1-10.5l0.3,2.3c-2.5-1.9-4.6-4.3-6.2-6.9
							c-1.4-2.3-2.4-4.9-3.1-7.5C202.3,130.3,202.9,130.2,203.1,130L203.1,130z"/>
					</g>
				</g>
			</g>
			<g>
				<g>
					<path class="st19" d="M296.2,473.9"/>
				</g>
			</g>
			<g>
				<path d="M74.5,97.1c-9.7,10.1-14.6,22.8-10.2,36.6l-0.3,0.1c-6.8-8.8-5.1-22.1,2-30.3c2.3-2.8,5-5,8.2-6.6L74.5,97.1L74.5,97.1z
					"/>
			</g>
			<g>
				<path d="M56.1,108.7c-4.1,4.4-5.2,10.7-4.1,16.5c0.3,1.3,0.6,2.7,0.9,4l-0.3,0.1c-5-4.1-5.7-12.1-1.9-17.2
					c1.3-1.7,3-3.1,5.2-3.6L56.1,108.7L56.1,108.7z"/>
			</g>
			<path class="st6" d="M105.8,63.7c0,0-1.5-7.1-3.4-13.1c-2.2,0.4-4.5,0.4-7.1-0.5c-0.1,0-0.2-0.1-0.3-0.1c-0.4,3-0.8,6.9-1.1,12.1
				c-2.2,44.8-4.5,90.9,11.5,87.8C122.8,146.5,105.8,63.7,105.8,63.7z"/>
			<path class="st20" d="M105.8,63.7c0,0-1.2-6-2.9-11.6c-0.6-0.1-1.2-0.2-1.8-0.4c-1.7-0.6-3.1-1.5-4.2-2.4c0.3,1,0.6,2.1,0.7,3.3
				c1.5,17.6,4.7,41,3.1,58.6c-1.2,13.1,4,24.9,4,38.8c0.3,0,0.5,0,0.8-0.1C119.7,147.6,105.8,63.7,105.8,63.7z"/>
			<g>
				<g>
					<path d="M106.1,55.2c4,17.7,6,35.7,7.4,53.8c0.6,11.3,1.3,23-1,34.3c-0.8,3.3-2.1,7.2-5.8,8.5c-2.3,0.6-4.6,0.2-6.6-1.1
						c-7.9-4.9-8-25-8.7-33.6c-0.9-20.8-0.8-41.7-1.6-62.5c-0.5-4.9,2.7-9,7.9-8.3C102.1,47.1,105,51.2,106.1,55.2L106.1,55.2z
						 M102.8,56.1c-0.7-2.5-3.5-3.7-5.9-3.9c-0.6,0-1,0.1-1.1,0.1s-0.3,0.3-0.4,0.9c0,0.1,0,0.3,0,0.5c0.2,12.1,0,24.2-0.2,36.3
						c0.2,11.7-2.6,51,7,57.1c0.8,0.6,2.3,0.6,3.1,0.5c1.6-0.9,2.2-3.5,2.8-5.3c2.3-10.7,1.7-22,1.4-33
						C108.6,91.5,106.8,73.4,102.8,56.1L102.8,56.1z"/>
				</g>
			</g>
			<path class="st4" d="M92.5,104.7c11.3-4.1,28.5,11.2,3.1,23.6C76.5,137.7,90.8,104.4,92.5,104.7"/>
			<g>
				<path d="M91.1,100.8c7.1-2.7,16,1.4,19.4,8c3.1,9.3-3.2,17.2-11.1,21.2c-1.9,1-4,1.6-6.2,1.2l-1.5-3.9c1.7-2.6,4.4-3.5,6.9-4.9
					c3.4-1.9,7.8-4.1,8.3-8.3c0-0.7-0.2-1.5-0.6-2.1c-2.4-4.7-8.7-8.5-13.8-7.4C92.5,104.7,91.1,100.8,91.1,100.8L91.1,100.8z"/>
			</g>
			<path class="st5" d="M179.8,75.3"/>
		</g>
	</g>
</g>
<g>
	<path d="M434.6,287.9c-71.2,0.4-146,1-217.3,0.5c-70.4,0-147.2,2.7-217.3,0.4v-2.9c74.8-2.7,155.8,0,230.9-0.6
		c25.4-0.5,69.2-0.4,95.1-0.4c36.2,0,72.4-0.1,108.7,0.1C434.6,285,434.6,287.9,434.6,287.9L434.6,287.9z"/>
</g>
<g>
	<g>
		<ellipse class="st21" cx="222.6" cy="218.7" rx="20.9" ry="5.5"/>
		<path d="M242.3,218.7c-0.5-1.2-2.2-1.7-3.4-2.2c-8.8-2.6-18.4-2.2-27.3-0.9c-2.6,0.5-5.3,0.9-7.6,2c-0.5,0.3-1,0.7-1.1,1.1
			c0.6,1.2,2.2,1.6,3.4,2.1c8.8,2.4,18.3,1.9,27.2,0.6l5.3-0.9C240,220.1,241.7,219.9,242.3,218.7L242.3,218.7z M244.7,218.7
			c0,1.6-1.1,2.5-2.1,3.3c-7.6,5.5-22.6,4.4-31.4,2.8c-14.3-2.5-14.2-9.6,0-12.1c7.6-1.2,15.3-1,22.9,0.3
			C237.1,213.6,244.3,214.7,244.7,218.7L244.7,218.7z"/>
	</g>
	<g>
		<path class="st21" d="M220.3,262.6l4.7-1.8l1.5-41.1c0,0-1.7-1.6-4.2-1.7c-3.5-0.1-4.6,0.9-4.6,0.9L220.3,262.6z"/>
		<path d="M220.9,261.6c1.3-0.8,2.4-1.5,3.6-2l-0.8,1.1c0.4-13.5,0.4-27.7,1.5-41.1l0.4,0.9c-1.7-1.8-5.2-1.6-7.1-0.8l0.4-1
			c0.3,3.6,0.6,7.1,0.9,10.6C220.7,240.3,221.4,250.4,220.9,261.6L220.9,261.6z M219.6,263.5c-2.5-14.2-2.6-30.1-3.3-44.6v-0.7
			l0.4-0.4c0.9-0.7,1.9-0.9,2.9-1.1c2.9-0.4,5.8,0.2,8,2.3c0.2,6.1-0.3,15-0.5,21.2c-0.3,7.1-0.6,14.3-1,21.4
			C224.1,262.5,221.7,263.1,219.6,263.5L219.6,263.5z"/>
	</g>
</g>
<g>
	<polygon class="st22" points="185.4,324.7 214.1,339.9 226.1,339.9 224.5,254.3 214.5,254.3 187,254.3 	"/>
	<polygon class="st23" points="214.1,339.9 214.1,339.9 226.1,339.9 224.5,254.3 214.5,254.3 214.5,254.3 	"/>
	<g>
		<path d="M186.7,324c9.5,4.8,18.8,9.6,28.1,14.5l-0.8-0.2h12l-1.6,1.7c-0.3-14.2-1.2-50.5-1.4-64.2c-0.1-7.1-0.3-14.3-0.3-21.4
			l1.7,1.7c-6.3-0.1-12.5-0.3-18.8-0.2l-18.8,0.2l1.7-1.6c-0.1,10-0.1,24.4-0.2,34.6C188.3,300.8,188.2,312,186.7,324L186.7,324z
			 M184.2,325.4c-1-11.4-0.5-23.7-0.2-35.3c0.4-11.2,1-26.4,1.4-37.5c11.7,0.2,27.6,0.3,39.1,0h1.7l0.1,1.7c0.8,24.3,1,61,1.5,85.6
			v1.7h-1.7h-12h-0.4C203.8,336.2,193.9,330.8,184.2,325.4L184.2,325.4z"/>
	</g>
</g>
<g>
	<polygon class="st22" points="187.8,246 214.8,242.5 367.4,242.8 367.6,253.7 215.2,253.5 187.4,254 	"/>
	<polygon class="st23" points="214.8,242.5 214.8,242.5 367.4,242.8 367.6,253.7 215.2,253.5 215.2,253.5 	"/>
	<g>
		<path d="M186.7,245c9.2-1.4,18.6-2.9,28-4.1l152.7,0.2h1.5c0.1,1.4,0.2,3,0.3,4.3c0.1,1.4,0.2,4.1,0.2,5.5
			c0.1,0.8,0.1,1.9-0.1,2.7l-0.4,1.8h-1.4c-36.2-0.1-111-0.3-146.4-0.4c-11.2-0.1-22.6,0.4-33.8,0.6h-1.6c0-2.2-0.4-4.4-0.3-6.6
			C185.5,247.8,185.4,245.7,186.7,245L186.7,245z M188.8,247c1.5,2.6,0.9,4.5,0.2,7.1l-1.7-1.8c51.2-0.7,128.4-0.2,180.3-0.3
			l-1.7,1.8c-0.2-0.8-0.2-1.9-0.2-2.7c0-2.5,0-5.7,0.1-8.2l1.6,1.6c0,0-153.3-0.3-152.4-0.3C206.3,245.2,197.7,246.1,188.8,247
			L188.8,247z"/>
	</g>
</g>
<g>
	<path class="st23" d="M227.1,255.4l-2.2,84.6h129.9h11.8l0.2-84.6H227.1z M326.2,315.4c-9.7,0-17.6-7.9-17.6-17.6
		s7.9-17.6,17.6-17.6s17.6,7.9,17.6,17.6C343.8,307.5,336,315.4,326.2,315.4z"/>
	<g>
		<g>
			<path d="M365.3,265v-9.7l1.4,1.5c-39-0.1-100.3,0.3-139.7,0.4l1.8-1.8c-0.4,19.7-1.1,43.7-1.9,63.4c-0.3,7-0.4,14.1-0.6,21.1
				l-1.5-1.5c17.7-0.1,53.2-0.3,70.9-0.4c17.6-0.2,53.2-0.4,70.9-0.5l-2.4,2.4c-0.1-11.1,0-26.5,0.1-37.4
				C364.5,290,365.3,277.5,365.3,265L365.3,265z M368.2,265c0,12.5,0.7,25,0.9,37.4c0.2,10.9-0.2,26.4-0.1,37.4v2.4h-2.4l-35.4-0.2
				c-32.2-0.3-75.6-0.6-107.8-0.7c0.6-20.9,0.7-44.1,1.3-65l0.6-21.1v-1.8h1.8c39.6,0.2,100.6,0.4,139.7,0.4h1.5
				C368.3,254,368.2,264.5,368.2,265L368.2,265z"/>
			<path d="M326.2,316.8c-16.9-0.2-25.7-20.6-13.7-32.8c7.2-7.2,20.1-7,27.5,0c7.9,7.2,8.2,20.4,0.5,27.9
				C336.8,315.8,331.2,316.9,326.2,316.8L326.2,316.8z M326.2,313.9c4.2,0,7.8-2.7,10.7-5.4c5.9-5.7,6.2-15.8,0.5-21.8
				c-8.1-8.6-21.1-5.2-25.7,5.1C307.2,302.1,314.9,314.1,326.2,313.9L326.2,313.9z"/>
		</g>
	</g>
</g>
<g>
	<path class="st5" d="M318.4,234.2c0,0-1.9-19.2-12.6-22.9c-10.7-3.6-28-3.8-35.5,10.9c0,0-12.1,17,14.9,21.9
		C298.6,246.5,314.1,245.8,318.4,234.2z"/>
	<path class="st4" d="M318.4,234.2c0,0-0.5-5.2-2.5-10.8c-0.2,0.1-0.4,0.2-0.6,0.3c-1.3,1.4-3,2.4-4.9,3.3
		c-13.1,6.3-28.9,6.9-42.8,2.5c-0.5,5.2,2.3,11.9,17.5,14.6C298.6,246.5,314.1,245.8,318.4,234.2z"/>
	<g>
		<path d="M316.6,233.9c0,0.1,0,0.1,0,0.2c0,0.1,0,0.2,0,0.1C316.6,234.2,316.5,234,316.6,233.9c-0.9-5.2-2.4-10.4-5.1-14.8
			c-2-3.5-4.9-5.6-8.7-6.4c-6.3-1.6-13.4-1.9-19.5,0.5c-4.8,1.9-9.1,5.1-11.5,9.8c-0.4,0.6-0.8,1.2-1.1,1.9
			c-5.6,12,7.5,15.9,17,16.9C298.1,242.9,310.1,243,316.6,233.9L316.6,233.9z M320.1,234.4c-3.9,17.7-29.1,14.9-42.2,10.4
			c-11.2-3.8-16.1-13.2-9.3-23.7c0.7-1.5,3.2-5.4,5.2-7.3c2.2-2.2,5-3.8,7.9-4.9c6.4-2.4,13.5-2.4,20.1-1c1.3,0.3,3.1,0.8,4.3,1.2
			c3.9,1.2,7.1,4.6,8.9,7.8c2.9,5.1,4.3,10.7,5,16.4C320.1,233.7,320.2,234.1,320.1,234.4L320.1,234.4z"/>
	</g>
</g>
</svg>
