<?xml version="1.0" encoding="utf-8"?>
<!-- Generator: Adobe Illustrator 26.3.1, SVG Export Plug-In . SVG Version: 6.00 Build 0)  -->
<svg version="1.1" id="Laag_1" xmlns="http://www.w3.org/2000/svg" xmlns:xlink="http://www.w3.org/1999/xlink" x="0px" y="0px"
	 viewBox="0 0 500 527.4" style="enable-background:new 0 0 500 527.4;" xml:space="preserve">
<style type="text/css">
	.st0{fill:#483823;}
	.st1{fill:#342819;}
	.st2{fill:#F0E0B4;}
	.st3{fill:#FFF0CF;}
	.st4{fill:none;stroke:#F0E0B4;stroke-width:1.7897;stroke-miterlimit:10;}
	.st5{fill:#FFF0CF;stroke:#000000;stroke-width:4.6342;stroke-miterlimit:10;}
	.st6{fill:none;stroke:#000000;stroke-width:1.6551;stroke-miterlimit:10;}
	.st7{fill:none;stroke:#A3D7FF;stroke-width:1.6551;stroke-miterlimit:10;}
	.st8{fill:#454138;}
	.st9{fill:#36322B;}
	.st10{fill:#FFFFFF;}
	.st11{fill:#DEE000;}
	.st12{fill:#FDFE7A;}
	.st13{fill:#FDFEC1;}
	.st14{fill:#FDCD04;}
	.st15{fill:#8A8A8A;}
	.st16{fill:#FEFEFE;}
</style>
<g>
	<path class="st0" d="M450.5,488.5c-17.8,3.4-62.9,3.6-83.8,8.6c-21.4,5.1-17.8,8.6,1.8,13.7c19.6,5.1,3.6,24-41,13.7
		c-44.6-10.3-60.6-20.5-83.8-17.1c-23.2,3.4-48.1,10.3-58.8,8.6c-10.7-1.7-17.8-10.3-42.8-8.6c-25,1.7-55.3,3.4-67.7-10.3
		s-42.8-3.4-53.5-10.3c-10.7-6.8,7.1-15.4,32.1-18.8s26.7-10.3,12.5-17.1c-14.3-6.8,17.8-17.1,51.7-17.1s92.5,10.7,136.3,3.6
		c43.8-7.1,68.7-12.2,118.6-7.1s80.1,7,71.3,15.4c-5.3,5.1-11.8,12.4,21.4,18.8C500.4,471.3,485.6,481.7,450.5,488.5z M13.8,464.5
		c12.5-3.4,14.3,5.1,37.4-1.7s-19.6-15.4-41-6.8C-8.1,463.3,1.4,467.9,13.8,464.5z M381,503.9c-1.5,1.9,21.4,1.7,28.5,3.4
		c7.1,1.7,35.6,3.4,35.6-3.4C445.2,497,391.7,490.2,381,503.9z M477.3,447.4c-32.1-5.1-16.1,12.9,0,12
		C505.8,457.7,509.3,452.5,477.3,447.4z"/>
	<path class="st1" d="M447,448.2c-15.1-0.4-30.2-0.7-45.3-1.1c-14-0.3-28-0.5-41.5,2.9c-5.6,1.4-11,3.3-16.4,5.3
		c-2.7-2.8-6.8-4.8-12-4.9c-12.5-0.1-24.9-0.4-37.3-0.8c-6.1-0.2-12.8-1.3-18.3,1.4c-1.5,0.7-2.9,1.7-4,2.7c-4.9,0.6-9.8,1.5-14.5,3
		c-7-10.1-22.3-9.5-34.9-9.2c-12.4,0.3-24.8,1.4-37,3.2c-9.8-1.6-19.3-5.3-29.7-4.9c-7.8,0.3-14.9,2.5-21.5,5.7
		c-4.4,2.2-10.7,7.6-16.1,6.2c-19.7-5.1-28.2,20.3-8.5,25.3c7.7,2,15.4,1.5,22.7-0.7c0,0,0.1,0,0.1,0c0.3,0,0.6,0,0.8,0.1
		c2.4,4.5,6.8,8,13.5,8.4c18.3,1,37,1.3,55.2-0.9c4.5-0.5,8.8-1.3,13.1-2.7c0.9-0.3,2-0.9,3.1-1.5c1.2,4.3,5.2,8,11.2,9.8
		c16.8,5.1,35.2-1,45.1-12.4c10,6.8,26.4,9.1,38.5,7.9c22.1-2.1,39.9-13.3,61.3-17.1c11-1.9,23-0.8,34.2-0.5
		c12.8,0.3,25.5,0.6,38.3,0.9C467.6,474.9,467.6,448.7,447,448.2z"/>
</g>
<g>
	<path class="st2" d="M340.8,381.7c-3.7-14.4-122.1,3.5-124.4,29.8c-2.7,32.1,7.6,34.2,10.1,42.2c2.5,8,58.9,6.5,92.7,7.9
		s31.5-19.7,11.1-22.5s-49-4.1-49-4.1C297.6,429.4,354.8,436.8,340.8,381.7z"/>
	<path class="st1" d="M225,432.2c5.3,4.2,11.9,6.7,18.6,6c1.9-0.3,3.7-0.4,5.6-0.4c0.6,0,1,0,1.4,0.1c1.2,0.2,4.6,0.6,5,0.7
		c7,0.9,14.4,2.1,21.5,1.6c1.8-0.1,3.6-0.4,5.4-0.7c3.9,1.7,8.1,2.6,12.3,2.4c3.1-0.1,6-0.8,8.6-1.8c4.9,3.1,10.7,4.9,16.6,4.7
		c5.5-0.2,10.5-2,14.6-4.9c16.3,5,15.8,22.9-15.4,21.6c-33.8-1.4-90.1,0.1-92.7-7.9c-1.8-5.8-7.7-8.5-9.8-21.7
		C219.5,432.1,222.3,432.1,225,432.2z"/>
	<g>
		<path d="M339.2,382.1c-2.3-4-15.7-3.8-20.2-3.8c-24.8,0.4-81.6,9.5-98.2,28c-1.4,1.8-2.3,3.5-2.4,5.6c0,0-0.1,1.4-0.1,1.4
			c-0.3,4.8-0.4,9.6,0,14.3c0.5,5.6,1.8,11.1,4.7,15.8c1.7,2.9,4.4,5.7,5.6,9.1c0,0,0.1,0.3,0.1,0.3c0,0,0,0,0,0c0,0,0,0.1,0.1,0.1
			c1,0.8,2.9,1.5,4.3,1.8c7.3,1.8,15.2,2.2,22.8,2.6c19.3,0.9,39.2,0.9,58.5,1.8c7.3,0.4,15.6,0.9,22.4-1.9c3-1.2,6.2-3.3,6.5-6.6
			c0.1-7.2-9.7-9.8-15.6-10.3c-19.5-2.3-39.8-3.1-59.5-3.9c0,0,12.2-4.2,12.2-4.2c7.9-2.4,16.1-2.6,24.2-4.1
			c11.2-2,23.1-4.7,30.2-13.8C341.9,405.5,341.9,393.2,339.2,382.1L339.2,382.1z M342.5,381.3c6.9,24.9,1.8,42.7-24.8,50.2
			c-7.9,2.2-16.1,3-24.2,3.9c-3.8,0.4-7.8,0.8-11.4,1.9c0,0-0.7-4.7-0.7-4.7c7.8,0.4,15.7,1,23.5,1.7c9.8,1,19.8,1.5,29.5,3.6
			c9,2.1,18,11.6,9.4,19.9c-6.6,5.5-15.5,5.8-23.6,5.8c-21.5-0.6-43-0.2-64.5-1.4c-6.8-0.6-27.3-0.9-30.7-6.9
			c-1.2-3.5-3.6-6.1-5.5-9.4c-3.2-5.3-4.6-11.6-5.1-17.6c-0.4-5-0.2-10,0.1-14.9c-0.1-7.9,6.9-13.3,12.9-16.9
			c7-4.1,14.4-6.9,21.9-9.4c15-4.8,30.5-8,46.1-10.1C304.1,375.7,339.5,371.1,342.5,381.3L342.5,381.3z"/>
	</g>
	<g>
		<path class="st2" d="M309.3,345.4c0,0,14.5,68.7,27.3,95.6c8.6,18,18.8,25.3,27.4,27.1c10.3,2.2,22.5-6.9,8.6-15.4
			c-8.6-5.3-17.1-45.6-18.7-71.2c-1.7-25.6-3.3-52.8-3.3-52.8"/>
		<path class="st0" d="M347.1,422c0-0.5,0-1,0-1.5c5.5-5.1,9.5-11.6,10.6-18.8c3.4,23.1,10,48.4,16.7,52.5
			c13.9,8.5,1.7,17.6-8.6,15.4c-8.5-1.8-18.6-8.9-27-26.3C343.6,437.6,346.7,430.1,347.1,422z"/>
		<g>
			<path d="M307,322.4c7.6,32.5,15.5,65,25.3,96.9c4,12.4,8.2,25.1,16.2,35.5c5.5,7,13.6,14.4,23,13c6-1.2,9.9-5.6,3.8-10.1
				c-1-0.8-2-1.3-3.1-2.2c-1.9-1.6-3.2-3.7-4.3-5.7c-3.3-6.3-5.3-12.8-7.2-19.3c-5.5-19.5-8.3-39.8-9.2-59.9
				c-0.9-13.4-1.6-26.7-1.2-40.1c0,0,3.9-0.2,3.9-0.2c2.1,13.3,3.1,26.6,3.8,40c0.9,19.8,2.9,39.8,7.7,59c2.1,7.6,3.9,15.9,8.6,22.2
				c0.5,0.6,0.7,0.8,1.5,1.2c2.4,1.6,4.6,3.3,6,6.2c3.3,6.7-3.6,12.1-9.7,13c-3.7,0.7-7.5,0.1-11-1.1c-25.1-9.4-32.3-46.2-39.3-69.2
				c-7-25.9-13.1-52-18.8-78.2C303.2,323.3,307,322.4,307,322.4L307,322.4z"/>
		</g>
	</g>
	<path class="st3" d="M336,255.4c-1.1-1.2-2.1-2.5-2.9-3.9c0,0,0,0.1,0,0.1c-8-11.7-5.5-10.1-0.3-12.6c0,0,9.4-29.3,5.4-54.1
		c0,0-6.7-22.9-29.7-17.6s-28.2,8.2-28.2,8.2c-7.5,15.1-18.6,4.2-27,32.8c-2.7,9.3-15.4,37.3-21.8,69c-5.6,27.7-10.4,32.8-14.9,43.3
		c-3.4,7.9-14.9,42.6-19.7,70.5c0,0,0,0,0,0.1c-0.2,0.9-0.3,1.8-0.4,2.6c0,0.3-0.1,0.6-0.1,0.9c-0.1,0.8-0.2,1.5-0.3,2.3
		c-0.1,0.4-0.1,0.8-0.2,1.2c-0.1,0.7-0.2,1.4-0.2,2.1c0,0.5-0.1,0.9-0.1,1.3c-0.1,0.6-0.1,1.3-0.2,1.9c0,0.5-0.1,1-0.1,1.6
		c0,0.7-0.1,1.3-0.1,2c0,0.8,0,1.6,0,2.4c0,0.4,0,0.8,0,1.2c0,0.6,0,1.2,0.1,1.7c0,0.4,0.1,0.8,0.1,1.1c0,0.5,0.1,1.1,0.1,1.6
		c0,0.4,0.1,0.7,0.1,1.1c0.1,0.5,0.2,1,0.3,1.5c0.1,0.3,0.1,0.6,0.2,0.9c0.1,0.5,0.3,1,0.4,1.5c0.1,0.2,0.1,0.5,0.2,0.7
		c0.2,0.7,0.5,1.4,0.8,2c11,24,39.4,26.5,65.7,10.7c22.3-13.4,43.5-32.5,60-52.6c20-22.8,32.8-46.2,32-68.6c0-0.6,0-1.2-0.1-1.8
		C353.8,296.1,354.4,275.8,336,255.4C336,255.4,336,255.4,336,255.4z"/>
	<path class="st2" d="M195.5,431.1c-14.1,10.7-31.4,19.5-51.4,18.4c-20-1.1-41.6-5.6-42.1,2.5s28.3,14.7,59.5,13.2
		c31.9-1.5,50.9-10.2,44.8-20.4C200.3,434.6,199,428.4,195.5,431.1z"/>
	<path class="st0" d="M144.1,449.5c4.5,0.3,8.9,0,13.1-0.7c5,3.4,11.1,5.3,17.2,5.1c9.4-0.3,18.6,0.3,27.9-1.3
		c1.5-0.3,3-0.6,4.4-0.9c-3.8,7-20.7,12.4-45.1,13.5c-31.2,1.4-60-5.1-59.5-13.2C102.5,443.8,124.1,448.3,144.1,449.5z"/>
	<g>
		<g>
			<path d="M196.7,432.6c-16.1,12.3-35.8,21-56.6,18.9c-6,0.1-33.7-4.4-35.6,0.4c-0.2,3.7,10.2,6.9,13.4,7.7c19,4.3,39.1,4,58.4,1.2
				c6-0.9,31.1-5.7,27.7-14.3c-1.8-3.6-3.4-7.5-5.1-11c-0.6-1.2-1.1-2.4-1.9-3.1c-0.1-0.1,0,0,0,0
				C197.2,432.4,197,432.4,196.7,432.6L196.7,432.6z M194.3,429.5c3.8-3,6.7,1,8.4,4c2,3.3,3.8,6.3,6,9.4
				c7.6,11.4-7.5,18.7-16.5,21.1c-23.1,6.1-52.1,5.1-75.3-0.4c-2.5-0.6-4.9-1.4-7.4-2.3c-3-1.2-6.8-2.7-8.9-5.8
				c-1.7-2.4-1.2-6.4,1.2-8.2c2.7-2.1,5.5-2.3,8.5-2.5c5.3-0.3,10.3,0.2,15.3,0.7c7.4,0.6,14.7,1.7,22.1,1.9
				C164.9,447.6,180.9,439.9,194.3,429.5L194.3,429.5z"/>
		</g>
	</g>
	<path class="st2" d="M201,377.6c5.9,1.2,11.9,1.1,17.7-0.6c3-0.8,5.9-1.8,8.8-2.8c20.4-3.9,40.1-10.9,57-22.3
		c14.4-9.6,27.8-22.4,38.9-35.5c9.4-11.1,14.7-23.7,14.2-38.3c-0.3-9.4-0.6-17.3-4.7-25.9c0.1-0.3,0.1-0.6,0.2-0.8
		c0.8,1.3,1.7,2.6,2.9,3.9c2,2,1.1,3.9,2.7,6.3c12.9,17.7,15.2,36,16.1,48.9c2.5,35.2-42.2,93-91.8,123
		c-26.3,15.9-54.7,13.3-65.7-10.7c-4.2-9.2-2-26.9,2.3-45.2C200.1,377.7,200.6,377.7,201,377.6z"/>
	<g>
		<path d="M195.9,423.5c-3.9-9.1-2.8-19.2-1.8-28.7c1.8-14.1,5.2-27.9,9.2-41.5c3-8.9,6-17.9,9-26.8c2.8-8.9,7.9-17.1,10.8-25.9
			c1.5-4.3,2.7-8.8,3.8-13.3c2.1-9,3.7-18.7,6.2-27.6c3.6-13.6,8.8-26.6,11.4-40.3c0.8-4.4,1-8.9,0.3-13.3c0,0,2.9-0.8,2.9-0.8
			c1.7,4.7,1.8,9.9,1.4,14.7c-0.5,4.9-1.6,9.6-2.9,14.1c-4,13.6-8.8,26.6-12,40.4c-2.9,13.8-6.4,28-13.1,40.5
			c-6.2,12.5-10.6,25.9-14.2,39.4c-3.8,13.4-7.4,27.1-9.3,40.9c-0.9,6.8-1.5,13.8-0.7,20.6c0.3,2.2,0.8,4.4,1.7,6.4
			C198.7,422.3,195.9,423.5,195.9,423.5L195.9,423.5z"/>
	</g>
	<g>
		<path d="M304.9,397.6c22.2-22.4,49.2-53.1,47.3-86.6c-0.5-7.6-0.8-15.1-2.2-22.6c-2.1-10.9-6.6-21.5-13.8-30
			c-3.1-3.9-7.4-7-9.5-11.8c-1.2-2.4-0.5-6.3,2.1-7.8c1.1-0.7,2.1-1,3.2-1.1c0,0,1.4,2.7,1.4,2.7c-0.8,1-2,2.1-2.1,3.1
			c-0.1,1,0.6,2.5,1.1,3.6c1.7,3.3,4,6.2,6.6,9c5.1,6,9.6,12.6,12.6,20c3,7.4,4.5,15.3,5.1,23.1c0.5,7.9,1.4,15.7,0.2,23.5
			c-2.3,15.7-9.8,30-18.9,42.7c-9.1,12.7-19.7,23.9-31,34.4L304.9,397.6L304.9,397.6z"/>
	</g>
	<g>
		<g>
			<path class="st4" d="M178.8,279.5"/>
		</g>
	</g>
	<path class="st3" d="M217.9,361.4c-15.9,0.5-39.5,20.9-32,53.9c7.5,32.9,14.4,36.6,15.8,45.3c1.4,8.6,15.2,14.3,50.1,20.7
		c34.9,6.4,35.8-15.9,14.9-21.8s-34.9-6.4-34.9-6.4C248.2,439.8,267.2,359.7,217.9,361.4z"/>
	<path class="st2" d="M215.5,361.6c-8,7.2-13.4,17.4-13.8,28c-0.5,12.2,0.4,23.8,3.4,34.7c-0.9,4.6-0.8,9.2,0.5,13.9
		c1,5.2,3.3,9.7,6.7,13.7c1.4,2.4,3.2,4.5,5.2,6.4c2.3,2.8,5.1,5.1,8.3,7c1.2,0.6,2.5,1.2,3.7,1.8c0.1,0.1,0.3,0.2,0.4,0.2
		c4.8,2.8,11.6,5.6,17.8,6.5c8.6,3.6,18,5.7,27.4,6.3c-4.6,2.3-12.3,3.2-23.3,1.1c-34.9-6.4-48.7-12.1-50.1-20.7
		c-1.4-8.6-8.3-12.3-15.8-45.3C178.8,383.9,199.7,364,215.5,361.6z"/>
	<path class="st0" d="M225.2,466.3c1.9-0.1,3.8-0.4,5.5-0.8c2.7,0.8,5.5,1.1,8.4,1c4.4-0.2,8.5-1.4,12-3.3c3.6-1.2,6.8-3,9.5-5.4
		c2,0.5,4,1,6.1,1.6c20.8,5.9,20,28.2-14.9,21.8c-18.4-3.4-30.9-6.6-38.9-10.1c2.7-1.3,5.1-3.1,7.2-5.2
		C221.8,466.2,223.5,466.3,225.2,466.3z"/>
	<g>
		<path d="M245.9,383.4c-3.5-12.7-12.8-20.2-26.1-20c-5.9-0.3-11.6,2.2-16.5,5.7c-9.8,7.1-15.9,18.8-16.5,30.9
			c-0.4,6.2,0.5,12.1,2.1,18.2c2.9,12.3,6.8,24.1,12.4,35.5c0.9,2.1,1.8,4.4,2.1,6.7c0.2,0.4,0.2,1,0.4,1.4c1.2,3,4,4.8,6.8,6.3
			c11.2,5.6,23.8,7.7,36,10.1c6.1,1.1,12.2,2.3,18.3,1.9c4.8-0.3,11.7-1.4,12.9-6.6c0.6-3.3-2.9-6.9-5.9-8.6
			c-3.8-2.3-8.4-3.1-12.7-4.3c-11.2-2.8-23.1-4.6-34.6-5.2c0,0,5.4-4.4,5.4-4.4c2.5-2,4.6-5.1,6.4-7.9c1.9-3.1,3.5-6.4,5-9.7
			c0,0,3.2,1.2,3.2,1.2c-2.3,7.5-5.2,15.2-11.2,20.7c0,0-1.6-4.9-1.6-4.9c9.8,0.4,19.3,2.3,28.7,4.6c4.9,1.3,9.9,2.4,14.2,5
			c4.8,2.9,9.3,8.2,8.2,14.3c-2.8,11.6-18.6,11.2-27.9,9.9c-9.6-1.6-18.8-3.8-28.2-6.2c-8.3-2.5-19.8-5.3-25.2-12.6
			c-0.8-1.1-1.5-2.5-1.7-3.8c-1-5.4-4.2-9.9-6.4-14.9c-1.4-2.9-2.7-5.9-3.7-8.9c-3.2-9.2-5.8-18.4-7.3-28.1
			c-1.2-9.9,0.3-20.2,5.1-29c6.3-11.5,18.4-21.5,32-21.2c6.7,0,13.6,1.9,18.9,6.2c5.3,4.2,8.6,10.5,10.4,16.9
			C249.2,382.5,245.9,383.4,245.9,383.4L245.9,383.4z"/>
	</g>
	<path class="st3" d="M256.2,352.5c0,0,26.4,79.2,32.4,101.9c4.7,17.7,17,30.4,31.4,29.8c11.7-0.5,9.5-13.5,4.1-23.1
		c-4.1-7.3-25.9-106.1-23.8-137.3"/>
	<path class="st0" d="M305.4,457.9c1.4,0.5,2.9,0.8,4.7,0.8c2.6-0.1,4.7-0.9,6.3-2.2c2,0.7,4.1,1.3,6.2,1.8c0.5,2.1,1,3.7,1.5,4.5
		c5.4,9.6,7.7,24.3-4,24.7c-10.6,0.4-20.2-7.3-26.3-18.5C298.2,465.8,302.1,462.1,305.4,457.9z"/>
	<g>
		<path d="M258.2,355.1c10.9,31.8,21.7,63.6,31.3,95.8c1.7,6.2,3.4,12.7,6.6,18.3c4.6,8.9,13.4,16.7,23.9,16c5.8-0.1,7.1-4.6,5.9-10
			c-0.6-3-1.8-5.9-3.4-8.7c-0.4-0.7-1-1.8-1.3-2.5c-2.1-5.6-3.5-11.5-5.1-17.2c-8-32.7-15.4-65.8-18.1-99.4
			c-0.4-6.8-0.6-13.6,0.2-20.5l3.9,0.3c0.1,6.5,0.9,13.1,1.7,19.7c2.6,19.8,5.8,39.7,9.5,59.4c2.5,13.2,5.1,26.3,8.1,39.3
			c1.5,5.9,2.6,11.9,4.8,17.5c4.3,7.7,8.7,23.1-3.3,26.1c-16.8,2.8-30.8-12.3-35.6-27c-2.8-9.7-5.5-19.4-8.6-29
			c-8-25.6-16.2-51.2-24.4-76.8C254.5,356.4,258.2,355.1,258.2,355.1L258.2,355.1z"/>
	</g>
	<path class="st5" d="M340.7,359.6"/>
	<g>
		<g>
			<path class="st6" d="M359.6,338.2"/>
		</g>
	</g>
	<g>
		<g>
			<path class="st7" d="M213.6,519.1"/>
		</g>
	</g>
	<g>
		<path class="st3" d="M241.2,193.4c5.6-19.3,7.2-29.6,21.1-42.3c8.2-7.4,29.5-24.2,49.8-20.6c22.2,3.9,29.2,15.4,34.1,23
			s17.1,7.6,28.1,2.1c6.8-3.4,22.1,0.8,23.1,10.3c1,9.5-1.4,8.7,1.9,19c3.4,10.3-9,26.7-23.2,29.8c-17.5,3.8-45.7,8.8-45.4,32.6"/>
		<g>
			<path d="M239.5,192.9c2.9-9.9,4.9-21,10.2-29.9c8.2-14,26.3-27,41.5-32.4c6.8-2.4,14.3-3.5,21.6-2.1c10.5,1.8,21.3,6.4,28.5,14.6
				c2.5,2.7,4.5,5.7,6.3,8.7c0.7,1.3,1.7,2.4,2.9,3.2c6.7,4.4,15.8,2.1,22.6-1.1c1.7-0.9,3.9-1.3,5.8-1.4
				c7.5-0.2,16.1,2.8,19.4,10.1c1.9,5.1,0.3,10.8,1,15.9c0.3,1.6,0.7,3.2,1.2,4.8c3.4,9.2-2,18.9-8.9,24.9c-4.1,3.6-9,6.3-14.2,8
				c0,0-5,1.5-5,1.5c-9.7,3.1-19.2,7.1-27.4,13c-8,5.5-13.9,13.6-15.3,23.3c0,0-3.4,0-3.4,0c-1.4-7.5,2-15.4,7.1-20.8
				c10.1-10.8,24.2-15.4,37.9-19.3c6.6-1.5,12.8-4,17.9-8.5c5.3-4.6,9.8-11.6,8.6-18.8c-0.6-2.6-1.6-4.9-2-7.6
				c-0.9-5.1,0.7-10.2-1-15.1c-2.9-6.4-13.9-9.3-20-6.5c-8.8,4.5-21.7,7-29.3-1.1c-0.6-0.7-1.2-1.6-1.7-2.4
				c-3.6-5.7-7.7-10.8-13.4-14.5c-5.5-3.6-12-5.7-18.6-6.9c-6.4-1.2-13.1-0.2-19.4,1.9c-12.6,4.5-24.1,12.8-33.4,22.4
				c-9.6,10.1-12.4,23.8-16.5,36.7C242.8,193.9,239.5,192.9,239.5,192.9L239.5,192.9z"/>
		</g>
		<g>
			<path class="st8" d="M391.6,145.7c-8.3,0-19.8,8.5-18.4,15.4c1.4,6.9,20.8,16.7,24.5,11.1C401.4,166.5,403.6,145.6,391.6,145.7z"
				/>
			<path class="st9" d="M392.1,164.9c0.4,0.2,0.9,0.1,1.4-0.5c0.4-0.5,0.8-0.9,1.1-1.4c2.7-2.3,3.1-4,4.8-6.8c0.2,6.3,0,12.8-2,15.7
				c-2,3.1-9.4,0.9-15.7-2.5C385.6,168.5,389,167,392.1,164.9z"/>
			<g>
				<path d="M391.3,146.5c-5,0.1-10.1,2.9-13.6,6.4c-2,2.1-4.1,5.3-2.9,8c3.6,5.8,12.1,11,19.1,10.7c1.6-0.1,2.1-0.8,2.6-2.1
					c1.9-5.3,2.3-12,0.7-17.3C396.2,149.3,394.7,146.5,391.3,146.5L391.3,146.5z M391.3,143.8c4.4-0.3,8.9,2.5,10.2,6.9
					c2.1,7,1.1,15.5-2.4,21.7c-1.7,2.7-5.3,2.8-8,2.2c-3.9-0.8-7.2-2.5-10.6-4.3c-5.3-2.6-11.7-8.3-8.4-14.7
					C375.4,148.9,383.9,144.2,391.3,143.8L391.3,143.8z"/>
			</g>
			<g>
				<path d="M398.3,167.9c-1.3-3.4-2.1-4.3-3.4-7.6c-1.2-1.7-2.9-2.8-4.5-4.1c-0.5-0.4-0.9-0.8-1.1-1.8c0,0,1.3-2.1,1.3-2.1
					c3.4-0.3,5,4.3,6.4,6.6c0.3,0.7,1.1,1.1,1.4,1.8c1,2.1,1.8,4.2,2.2,6.5C400.7,167.3,398.3,167.9,398.3,167.9L398.3,167.9z"/>
			</g>
		</g>
		<g>
			<path class="st10" d="M320.3,148.2c0,0,15.7,11,14.1,15.8c-1.6,4.8-23.8,9-26.7,6C304.8,166.9,315.8,149.9,320.3,148.2z"/>
			<path d="M320.5,146.9c0.2,0,0.7,0.3,0.6,0.2l0,0c0.1,0.1,0.4,0.2,0.5,0.3c0.3,0.2,1.2,0.8,1.5,1c21.6,15.6,14.7,20.6-8.1,23.7
				c-8.4,0.8-11.4-1.5-7.6-9.7c2.7-5.7,6.1-11.1,11.2-14.8C319.1,147.3,319.8,146.9,320.5,146.9L320.5,146.9z M320.2,149.4
				c0.1,0.1,0.3,0.1,0.5,0c0,0,0,0,0,0c-2.4,1.6-4,4.1-5.6,6.5c-1.8,2.5-3.5,5.2-4.8,7.9c-0.7,1.6-1.5,3.3-1.4,4.9
				c0,0.2,0.1,0.2,0,0.2c0,0,0.2,0.2,0.5,0.2c3.2,0.8,6.8,0.2,10-0.2c3.1-0.3,6.1-1.3,8.9-2.6c1.6-0.8,3.9-1.5,4.7-2.9
				c-0.1-3.9-9.9-11.5-13.1-14c0,0-0.2-0.1-0.2-0.2C319.5,149.1,320,149.5,320.2,149.4L320.2,149.4z"/>
		</g>
		<ellipse transform="matrix(0.747 -0.6648 0.6648 0.747 -22.7173 255.996)" cx="325" cy="157.8" rx="5.7" ry="5.8"/>
		<g>
			<path d="M296.9,145.9c3.9-13,15-27.6,29.5-18c0,0-0.3,0.5-0.3,0.5c-4,0.2-7,0.4-9.2,1.4c-4.7,2-7.8,5.5-11.7,9.3
				c-2.2,2.2-4.6,4.5-7.7,6.9L296.9,145.9L296.9,145.9z"/>
		</g>
		<g>
			<path class="st3" d="M261.8,152.3c-11.3,13.6-24,38.5-31.3,54.4c-7.6,16.5,38.6,22,48.5,17.5c9.8-4.5,4.1-51,4.1-51"/>
			<path d="M262.9,153.2c-11.1,14.2-19.3,30.5-27.2,46.7c0,0-2.3,4.9-2.3,4.9l-1.1,2.5c-2,3.7,0.4,7.1,3.7,9.2
				c5.8,3.5,13,5.5,19.8,6.7c6.8,0.9,14.4,1.4,21-0.3c6.8-0.9,5.5-22.4,5.5-28c-0.3-7.2-0.7-14.4-0.6-21.6c0,0,2.9-0.4,2.9-0.4
				c1.8,7.2,2.4,14.5,2.6,21.8c0.1,7.5,0,14.9-1.7,22.3c-0.9,4-3.1,8.9-7.8,9.5c-7.5,1.5-15,0.6-22.4-0.4
				c-7.4-1.1-14.9-2.3-21.4-6.6c-4.8-3-7.7-8.4-4.9-13.8c0,0,1.2-2.5,1.2-2.5c2.3-5,4.8-9.8,7.3-14.7c6.8-13,13.9-25.8,23.3-37.2
				C260.6,151.3,262.9,153.2,262.9,153.2L262.9,153.2z"/>
		</g>
		<g>
			<path d="M400.3,185.3c-5,4.9-10.8,8.7-17.3,11.4c-2.1,1-4.6,1.1-6.8,1.7c-2.3,0.6-4.6,0.9-7,1.1c-6.3,0.4-13.3-1.3-17.7-6.1
				c-0.5-0.7-1.1-1.5-1.5-2.4c0,0,2.2-2.3,2.2-2.3c2.2,0.7,3.8,1.9,5.6,2.9c5.2,3.2,11.6,4.7,17.7,3.5c8.2-2.6,16-6.9,22.6-12.2
				C398.2,183,400.3,185.3,400.3,185.3L400.3,185.3z"/>
		</g>
	</g>
</g>
<g>
	<path class="st11" d="M288.5,59.5c-1.5,4.9-5.1,7.7-9.1,10.9c-0.7,0.5-1.3,1.1-1.9,1.7c-1,0.9-1,1.8-0.6,3.1c0.8,2.5,2,4.8,2.8,7.3
		c0.5,1.6,1.4,2.5,3.2,2c0.5-0.1,0.9,0,1.3,0.3c0.5,0.4,0.8,0.2,1.1-0.3c1.1,0.7,1.1,2.2,2,3c-5.6,3.4-11.6,5.7-18,6.7
		c-0.4,0.1-0.8,0-1.2,0c0.7-2.2-0.6-4.2-0.9-6.2c0.7-0.1,1.4,0,2-0.2c1.9-0.6,2.6-2.2,2-4.3c-0.7-2.2-1.5-4.4-2.2-6.6
		c-0.2-0.6-0.5-0.5-1-0.4c-2,0.2-3.8,0.8-5.9,0.6c-4.2-0.4-7-2.6-9-6.1c-1.4-2.6-2.6-5.3-3.1-8.3c-1.5-3-0.9-6.5,1.5-8.1
		c2.1-1.4,4.3-1.2,6.4-0.2c1.1,0.5,2.2,1.1,3,2c2.2,2.4,4.5,4.8,6.2,7.6c1,1.7,2.5,3,3,5c0.3,0.5,0.1,1.2,0.8,1.4
		c0.3,0,0.6,0,0.8-0.2c0.1-0.3-0.1-0.5-0.1-0.8c0-0.3,0-0.6,0-0.9c0.1-0.5-1.3-3.8-1.5-4.2c0.1-4.3,0.7-6.2,3.1-10.1
		c2.5-4.2,6.5-5.5,10.9-4.3C286.8,50.6,289.6,56.8,288.5,59.5z"/>
	<path class="st12" d="M258,4c3.7-0.3,7.5-0.2,11,0.9c3.9,1.1,7.6,2.8,11,5.2c4.6,3.1,8.3,7.1,11.1,11.9c2.1,3.8,3.9,7.7,4.4,12.1
		c0.4,3.1,1.5,6.1,1.6,9.1c0.1,4.2-0.3,8.4-2.1,12.3c-2.8,6.1-5.9,12-8.8,18c-1.6,3.3-1.4,6.9-1.1,10.4c0,0.2,0,0.3,0,0.5
		c0.2,0.5-0.1,0.8-0.6,0.8c-3,0.4-4.5-0.5-5.6-3.3c-1-2.3-2-4.6-2.7-7.1c-0.4-1.4,0.1-2.3,1.1-3.2c1.4-1.4,3.1-2.4,4.4-3.9
		c2-2.3,3.9-4.7,4.9-7.7c0.2-0.6,0.5-1.3,1-1.8c2.7-1.3,4.3-3.6,5.7-6.2c0.1-0.2,0.2-0.4,0.1-0.7c-0.6-2.2-6.3-27.4-9.4-29.8
		c-2.4-1.8-5.3-3.2-8.2-4.2c-2.1-0.8-13.1-0.7-13.9-1.3c-1.3-2-2.9-3.6-5.3-4.4c-0.6-0.2-1.1-0.4-1.7-0.2c-3.7,1-6.9,2.8-9.6,5.6
		c-0.7,0.8-0.9,1.7-0.7,2.7c0.4,1.5,0.5,3.1,1,4.5c0,0.6,0.3,1.1,0.6,1.5c0.1,0.2,0.1,0.3,0.1,0.5c-0.1,0.9-0.8,1.5-1.3,2.2
		c-1,1.1-1.9,2.3-1.8,4c0.1,1.1,4.8,29.1,6.6,29.9c0.5,0.4,0.6,1.1,0.8,1.7c0.6,3.2,2.1,5.9,4,8.5c2.5,3.6,6.2,4.4,10.2,3.8
		c3.9-0.5,3.9-0.7,5.3,3c0.7,1.8,1.6,3.6,1.4,5.6c-0.2,2.4-2.3,3.7-4.5,2.9c-1.8-4.2-4.6-7.2-9-8.9c-4-1.5-7.9-3.1-11.6-5.3
		c-5-3-9.1-6.8-12.2-11.7c-4.2-6.6-6.3-13.7-6.7-21.5c-0.1-2.3-0.1-4.7,0.3-7c0.9-4.6,2.3-8.9,4.6-13c3.1-5.6,7.5-9.9,13.1-12.9
		c2.5-1.3,5.2-2.4,8.1-2.8c0.3-0.1,0.6-0.3,0.9-0.4c0.7-0.1,1.4-0.2,2.1-0.3C257.2,4.2,257.6,4.2,258,4z M260.5,65.9
		c-1.6-1.2-3.7-1.2-5.4-2.2c-0.3-0.2-0.7-0.1-1,0.1c-0.2,1.3,0.6,2.3,1,3.4c0.7,1.8,1.5,3.8,3.3,4.9c2.4,1.5,5,1.8,7.7,1.2
		c1-0.2,1.3-0.6,0.7-1.5c-0.3-0.4-0.4-0.9-0.7-1.4c-1-1.7-1.6-3.6-3.1-5C262.3,66.7,261.6,66.7,260.5,65.9z M275.2,68.1
		c0,0.8,0.7,0.8,1.1,0.4c2.8-2.2,5.4-4.5,6.8-7.9c-1.4,0.7-1.9,2.1-2.9,3.2c-2.3,2.5-3.7,2.4-5.2-0.3
		C274.5,65,275.1,66.5,275.2,68.1z"/>
	<path class="st13" d="M271.7,68.4c0.4,2.4-1,3.4-2,0.9c-2.8-8.7-21.4-25.3-20-6.7c-11.7-7.8-11.9-26.3-3.6-36.8
		c10.1,8,5.4-6.7,15.8-10.1c14.7-4.8,33,9,32.6,25.5c1.8,3.6-1.8,6.4-0.6,9.9c-1,2.5-3.4,6.8-6.3,7.1c-2.7-16.7-19.9-4.2-16.3,9
		C271.5,67.7,271.6,68.1,271.7,68.4z M276.6,65.8c4.4,0.7,10-8.7,5.8-11.4C277.1,52.1,272.4,63.1,276.6,65.8z M261.8,63.8
		c-1.8-3.7-10-9.8-8-1.5c0.3,0.3,0.2,0.8,0.4,1.2c0,0.1,0,0.2,0,0.3C256.9,64.4,266.3,70.6,261.8,63.8z"/>
	<path class="st14" d="M264.4,94.3c-0.3-3.4-1.2-6.6-3.7-9.1c-0.8-0.8-1.7-1.5-2.7-1.9c-4.4-1.8-8.9-3.4-12.9-5.8
		c-5.7-3.3-10.4-7.7-14-13.2c-4.4-6.9-6.9-14.4-7.3-22.4c-0.6-11.3,2.8-21.4,10.5-30c6.2-6.9,14.1-10.5,23.1-11.6
		c8.3-1,15.9,1.1,23,5.5c4.4,2.7,8.2,5.9,11.3,10c3.3,4.4,5.6,9.4,7.1,14.7c1.4,5,2.2,10.1,2.2,15.3c0,4.1-0.8,8.1-2.6,11.8
		c-3,6-6.2,12-8.9,18.2c-1.2,2.7-1,5.6,0.1,8.3c0.2,0.5,0.4,1.1,0.6,1.6c-0.6,1.4-1.8,1.6-3.1,1.9c-1.3-0.7-1.6-2.2-2.3-3.3
		c-0.6-4.2-0.3-8.1,1.5-12.1c2.6-5.7,5.8-11,8.1-16.8c2.2-5.4,4.5-17.6-3.2-32.2c-3.4-6.5-8.5-11.5-14.9-14.9
		c-5.1-2.7-10.5-4.4-16.4-4c-0.6,0-1.2,0-1.7,0c-0.5-0.1-1,0-1.5,0.2c-0.7,0.1-1.4,0.2-2.1,0.3c-0.4,0.1-0.8,0.3-1.1,0.4
		c-4.9,1.3-9.5,3.3-13.3,6.6c-3.1,2.7-5.6,5.9-7.6,9.5c-2.1,3.9-3.6,8-4.2,12.3c-1.3,8.6,0.3,16.8,4.2,24.5c4,8,10.3,13.7,18.3,17.4
		c3,1.4,6.1,2.6,9.2,4c3.7,1.6,5.9,4.6,7.3,8.3c0.5,1.3,0.8,2.6,1.1,3.9c0.2,0.9,0.3,1.9-0.5,2.7C266.7,94.6,265.5,95.3,264.4,94.3z
		"/>
	<path d="M285,86.7c1-0.4,1.9-0.9,2.8-1.6c0.9-0.6,1.9-1.2,2.8-1.8c1-0.6,1.8-0.1,2.3,0.8c2.1,4.3,4.3,8.7,5.9,13.2
		c0.9,2.6,1.3,5.4,1.5,8.2c0,0.6-0.3,1-0.8,1.4c-4.6,3-9.5,5.3-14.6,7.3c-3.2,1.2-6.5,2.3-9.9,2.8c-1.6,0.3-3.2,0.2-4.8,0.3
		c-2,0.1-2.4-1.6-2.9-2.9c-1.8-4.7-4-9.2-5.1-14.1c-0.4-1.5-0.7-3.1-0.7-4.7c0-2.1,0.3-2.3,2.3-2.6c0.2,0,0.4-0.1,0.6-0.2
		c1.1,0.3,2.1-0.1,3.2-0.1c1.5-0.9,3.2-0.8,4.8-1.2c3.7-1,7.2-2.2,10.5-4.1C283.6,87.1,284.2,86.6,285,86.7z"/>
	<path class="st15" d="M267.5,105.7c2.4,0.1,4.5,0.3,6.7,0.4c3,0.1,5.8-0.9,8.7-1.3c2.1-0.2,4.1-0.8,6.2-1.2
		c2.3-0.5,4.3-1.6,6.4-2.5c0.9-0.4,1-0.1,1,0.6c0.1,1.1,0.4,1.9-1.1,2.7c-5.6,2.9-11.3,4.7-17.7,4.1c-3-0.3-5.9-0.6-8.9-1.1
		C267.8,107.2,267.9,106.4,267.5,105.7z M267.9,102.2c1.6,0.3,3.2,0.2,4.7,0.4c1.2,0.1,2.5,0.3,3.7,0.1c2.6-0.4,5.1-1,7.7-1.4
		c3.6-0.6,7-1.7,10.2-3.2c0.4-0.2,1-0.5,0.9-0.9c-0.3-0.8-0.4-1.9-1.1-2.5c-0.6-0.4-1.1,0.4-1.8,0.5c-0.2,0-0.3,0.2-0.5,0.3
		c-2.4,1.1-4.7,2.5-7.3,3.3c-6.1,1.9-12.4,1.3-18.8,0.7C265.7,100.8,266.1,101.8,267.9,102.2z M271.9,96.5c3.5,0.3,6.9,0.2,10.3-0.6
		c3.5-0.8,6.5-2.9,9.8-4.3c0.2-0.1,0.5-0.2,0.4-0.5c-0.3-1.3-1-2.4-1.7-3.4c-0.2-0.3-0.6-0.1-0.8,0.1c-1.5,1-3.1,1.7-4.7,2.6
		c-3.6,2.1-7.3,3.6-11.3,4.7c-1.2,0.3-2.6,0.3-3.7,1.3C270.8,96.4,271.3,96.4,271.9,96.5z M273.7,113.9c0.9-0.1,1.8-0.2,2.6-0.5
		c1.7-0.5,3.6-0.6,5.5-1.8c-4.2,0.1-8.1,0-12.1-0.7C270.7,114.1,271,114.3,273.7,113.9z"/>
	<path class="st16" d="M262,15.8c0.4,3.5-0.1,6.8-1.5,10c-1.5,3.6-5.5,5.3-9.2,3.5c-1.8-0.9-3.6-1.9-5.1-3.4c0,0,0,0,0,0
		c-0.3-0.4-0.5-0.8-0.7-1.3c-0.8-1.6-0.9-3.4-1.2-5.1c-0.2-1.1,0.1-2,1-2.9c2.7-2.7,5.9-4.4,9.4-5.5c1.7-0.5,3,0.7,4.4,1.3
		C260.6,13,261.1,14.6,262,15.8z M268.5,52.6c2.8,0.2,4.6-1.4,6.5-2.9c2.2-1.7,1.8-4.4,3-6.5c0.1-0.1,0-0.4-0.1-0.5
		c-1-1.9-0.6-4.5-2.5-6c-0.4-0.3-0.6-0.8-0.2-1.2c0.4-0.6,0.8-0.1,1.2,0.2c3.5,2.8,6.5,5.9,7.1,10.7c0.1,0.4,0.2,0.9,0.7,0.9
		c0.6,0,0.6-0.6,0.6-1c0.1-1.9,0.3-3.8,0-5.7c-0.6-3.9-1.3-7.8-3.2-11.5c-1.6-3.1-3.3-6.1-6.1-8.4c-1.4-1.2-2.6-2.7-4.3-3.4
		c-0.7-0.3-1.7-0.9-1.8,0.5c-0.2,3.3-1.7,6.2-2.8,9.2c-0.2,0.6-0.7,1.4,0,1.7c1.7,0.8,2.8,2.6,4.6,3.2c0.6,0.2,0.8,0.6,1.1,1
		c0.1,0.2,0.3,0.5,0.1,0.8c-0.2,0.3-0.5,0.1-0.8,0.1c-0.2,0-0.5-0.1-0.7-0.2c-2.6-1.4-4.8-1.3-7.5,0.3c-3.9,2.2-6,4.9-5.6,9.5
		c0.4,4.4,3.2,8,7.7,9.2C266.5,52.9,267.5,52.5,268.5,52.6z"/>
</g>
</svg>
