<?xml version="1.0" encoding="UTF-8"?>
<svg xmlns="http://www.w3.org/2000/svg" xmlns:xlink="http://www.w3.org/1999/xlink" version="1.1" viewBox="0 0 325.7 282">
  <defs>
    <style>
      .cls-1, .cls-2, .cls-3, .cls-4, .cls-5, .cls-6 {
        fill: none;
      }

      .cls-2 {
        stroke-width: .2px;
      }

      .cls-2, .cls-3 {
        stroke: #fff0cf;
      }

      .cls-2, .cls-3, .cls-4, .cls-5, .cls-6, .cls-7 {
        stroke-miterlimit: 10;
      }

      .cls-3 {
        stroke-width: .2px;
      }

      .cls-8, .cls-7 {
        fill: #fff0cf;
      }

      .cls-9 {
        fill: #8b2900;
      }

      .cls-10 {
        fill: #f0e0b4;
      }

      .cls-11 {
        fill: #9e390e;
      }

      .cls-12 {
        fill: #273a4d;
      }

      .cls-13 {
        fill: #9096a1;
      }

      .cls-14 {
        fill: #36322b;
      }

      .cls-15 {
        fill: #777c85;
      }

      .cls-16 {
        fill: #633e27;
      }

      .cls-17 {
        fill: #827979;
      }

      .cls-18 {
        fill: #c3cad1;
      }

      .cls-19 {
        fill: #fff;
      }

      .cls-20 {
        fill: #d8e0e8;
      }

      .cls-21 {
        fill: #c4b894;
      }

      .cls-22 {
        fill: #4f321f;
      }

      .cls-23 {
        fill: #223242;
      }

      .cls-4, .cls-6 {
        stroke-width: 1.2px;
      }

      .cls-4, .cls-7 {
        stroke: #000;
      }

      .cls-5 {
        stroke: #f0e0b4;
        stroke-width: 1.3px;
      }

      .cls-6 {
        stroke: #a3d7ff;
      }

      .cls-24 {
        clip-path: url(#clippath);
      }

      .cls-7 {
        stroke-width: 3.4px;
      }

      .cls-25 {
        fill: #595050;
      }

      .cls-26 {
        fill: #454138;
      }
    </style>
    <clipPath id="clippath">
      <polygon class="cls-1" points="15.6 0 301.3 0 325.7 280.1 0 280.5 15.6 0"/>
    </clipPath>
  </defs>
  <!-- Generator: Adobe Illustrator 28.7.0, SVG Export Plug-In . SVG Version: 1.2.0 Build 136)  -->
  <g>
    <g id="Laag_1">
      <g class="cls-24">
        <g>
          <path class="cls-15" d="M163.5,160.9s11.6,18.2,15.4,46.5c4.3,31.3,37.8,6.8,33.3-15.4-1.7-8.3-5.4-14.4-8.5-21.7-12.2-28.8-40.2-9.4-40.2-9.4Z"/>
          <path d="M164.9,157.7c8-6.2,19.7-8.4,28.7-3,5.9,3.5,9.6,9.7,11.9,15.8,3.6,8.8,8.8,17.7,8.3,27.6-.2,19.5-27.1,38.8-35.3,12.9-1.9-7.8-4.4-15.1-7-22.7l2.2-.8c2.1,6,4.2,11.9,6.1,18.1,1.3,5.5,3.2,12.3,8.9,14.5,11.4,3.3,21.9-12.1,22.6-22.2.5-9.5-5-17.8-8.8-26.2-3.3-8.2-9.8-15.9-19.1-16.2-5.9-.3-12,1.6-17.3,4,.1,0-1.2-1.8-1.2-1.8h0Z"/>
          <path class="cls-5" d="M316,180.7"/>
          <path class="cls-7" d="M194.7,257.8"/>
          <path class="cls-4" d="M178.2,242.1"/>
          <g>
            <path class="cls-8" d="M203.1,112.3s-11.3,38.2-15.8,28.4c-6.8-14.7-6.6-31.5-6.6-31.5,0,0,27-15.9,34.3-17.1,21.6-3.3,43.7,7.3,52.8,18.2,4.7,5.6,16.5,33.6,16.5,33.6,0,0-9.4,14-23.4,22.3-9.3,5.5-.3-35.2-.3-35.2"/>
            <path d="M204.1,112.6c-1.6,4.8-12.5,44.1-18.8,26.4-2.8-6.7-4.4-13.9-5.2-21.1-.4-3.1-.6-6.2-.6-9.4l.6-.4c4.8-2.8,9.7-5.6,14.6-8.3,6.2-3.2,12.4-6.9,19.3-8.8,9.9-1.7,20.1-.3,29.5,2.8,10.3,3.6,21.8,9.6,27.6,19.2,5.6,9.8,10,20,14.5,30.3l.3.7-.5.7c-6.3,9-14.1,17-23.6,22.8-13.3,6.9-3.9-31.6-2.4-36.8l2,.4c-1.3,8.7-2.7,17.5-3.1,26.3,0,2.4-.2,5.6.9,7.5h.2c.2-.1.3-.1.7-.3l.9-.6c8.6-5.4,16-12.8,22-21v1.4c-2.2-5.1-4.4-10.2-6.7-15.3-2.3-5-4.6-10.1-7.3-14.9-1.3-2.4-3-4.4-5-6.2-12.7-11.4-30.6-17.1-47.5-14.8-2.1.2-3.7.8-5.7,1.6-5,2.1-10,4.7-14.9,7.3-4.9,2.6-9.7,5.4-14.5,8.2l.6-1.1c.1,9.1,1.6,18.3,4.7,26.9.5,1.3,1.6,4.6,2.3,5,4.6-2.1,11.2-23.5,13.1-29.1,0,0,2,.6,2,.6h0Z"/>
            <path class="cls-8" d="M192.3,185.6c.6-.9,1.2-1.8,1.6-2.7h0c4.4-8,5.3-16.3,2.7-18.6-9.6-8.5-10.2-33.4,2.4-51.6,0,0,14.8-16.1,37.1-7,22.3,9.1,26.7,12.5,26.7,12.5,2.7,13.3,2.4,27.4-7.6,42.1-5.9,8.8,4.1,9.8,10.2,30.1,5.4,17.8,7.3,30.2,7.3,30.2,1.9,5.3,12.2,26.9,17.1,44.8h0c.2.6.3,1.1.4,1.7,0,.2.1.4.1.6.1.5.2,1,.3,1.5.1.3.1.5.2.8.1.4.2.9.3,1.3.1.3.1.6.2.9.1.4.2.8.2,1.2.1.3.1.7.2,1,.1.4.1.9.2,1.3.1.5.1,1.1.2,1.6,0,.3,0,.5.1.8,0,.4.1.8.1,1.1v2.6c0,.3,0,.7-.1,1,0,.2,0,.4-.1.6,0,.3-.1.7-.2,1,0,.2-.1.3-.1.5-.1.5-.2.9-.4,1.4-5.5,16.4-23.5,19.8-41.3,11.1-15.1-7.4-29.9-18.4-41.7-30.5-14.2-13.6-23.9-28.1-24.8-42.8,0-.4-.1-.8-.1-1.2,0-9.5-1.7-22.7,8.8-37.3h0Z"/>
            <path class="cls-10" d="M293.3,291.5c9.7,6.1,21.3,10.8,34,8.8s26.2-6.3,27-1-17.2,11.4-37.2,12.4c-20.5,1.1-33.2-3.5-29.9-10.5,3.2-7,3.6-11.2,6.1-9.7Z"/>
            <path class="cls-16" d="M327.3,300.3c-2.9.5-5.7.6-8.4.4-3,2.5-6.7,4.2-10.6,4.4-6,.4-11.9,1.4-17.9.9-1-.1-1.9-.2-2.8-.3,2.9,4.4,14,6.8,29.7,6,20-1,38-7.1,37.2-12.4-1-5.3-14.5-1-27.2,1Z"/>
            <path d="M293.9,290.5c9.2,5.9,19.9,9.9,31,8.7,7.5-1,16.1-3.6,23.8-4,2.4-.1,5.6.2,6.9,2.8,3.6,8.9-23.1,13.6-29,14.5-11.3,1.5-23.2,2.5-34.3-1.1-4.1-1.3-9.2-5-7.2-10.1.5-1.2,1.2-2.2,1.7-3.4.7-1.4,1.4-2.8,2.1-4.3.8-2.1,2.4-4.8,5-3.1h0ZM292.6,292.6c-.2-.1-.3-.1-.2-.1-.4.5-.7,1.2-1,2.2l-1.5,4.6c-.4,1.3-1.2,2.6-1.2,4,.5,3.5,6.4,4.8,9.4,5.5,9.2,1.8,18.8,1.6,28.1.6,7.7-1,15.7-2.3,22.7-5.8,3.9-2.1,6.5-5.4-.1-5.1-8.6.5-17.4,3.5-26.1,3.8-10.8,0-21.2-4.1-30.1-9.7h0Z"/>
            <path class="cls-10" d="M197.2,268.5c1.4-9.6,78.3-5.5,81.4,11.6,3.8,20.8-2.7,22.8-3.8,28.2s-37.2,7.9-58.7,11-21.4-10.9-8.5-14,31.1-5.8,31.1-5.8c-10.8-2.6-46.9,5.9-41.5-31Z"/>
            <path class="cls-22" d="M274.5,294.1c-3.1,3.1-7.2,5.1-11.5,5.1-1.2-.1-2.4,0-3.6.1-.4.1-.7.1-.9.1-.7.2-2.9.7-3.2.8-4.4,1.1-9.1,2.3-13.7,2.4-1.2,0-2.3,0-3.5-.1-2.4,1.3-5,2.2-7.7,2.3-2,.1-3.9-.1-5.6-.6-2.9,2.4-6.5,3.9-10.3,4.1-3.5.2-6.8-.7-9.6-2.2-10.1,4.3-8.7,16,11.2,13.1,21.5-3.1,57.6-5.7,58.7-11,.8-3.9,4.4-6,4.9-14.8-1.7.3-3.5.5-5.2.7Z"/>
            <path d="M196.2,268.3c1.4-6.9,24.1-6,29.9-5.9,15.2.8,30.7,2.3,44.8,8.5,3.5,1.7,7.5,4.1,8.7,8.2.8,3.9,1.3,7.6,1.4,11.6.1,3.9-.4,8-2,11.6-.9,2.2-2.3,3.9-2.9,6.2-.2,1.2-1.4,2.1-2.2,2.6-5.3,2.7-11.2,3.3-16.9,4.4-5,.8-10,1.5-15,2.1-7.2.9-15.3,1.7-22.5,2.5-5.1.6-10.4,1.4-15.5,0-4.6-1.1-8.2-5.4-5.6-10,2.1-3.7,6.3-5.5,10.2-6.4,9.9-2.4,19.8-4.1,29.8-5.7v3c-4.9-.8-10.4-.4-15.4-.7-21.2-.9-30.6-10.6-26.8-32h0ZM198.3,268.6c-1,7.4-.3,15.3,4.6,20.9,5,5.6,12.8,6.7,20.2,7.3,5.4.5,10.4,0,15.8,1.1l8.2,1.9c-12.6,1.8-25.6,3.6-38,6.4-2.4.5-4.6,1.2-6.5,2.6-4.5,3.3-3.1,7.7,1.9,9,4.7,1.4,9.7.5,14.5-.2,12.4-1.8,25.1-3.1,37.5-4.9,4.8-.8,9.9-1.5,14.5-3.2.8-.3,2-.9,2.4-1.5.5-2.4,2.1-4.6,3.1-6.7,1.5-3.3,2-6.9,1.9-10.5,0-3.1-.4-6.2-.9-9.2-.2-1.8-.7-3.1-2-4.5-9.9-9.5-36-11.8-49.7-12.5-5.1-.2-25-.6-27.5,4h0Z"/>
            <path class="cls-10" d="M286.3,257c-3.7,1.1-7.6,1.5-11.3.8-1.9-.4-3.9-.8-5.8-1.2-13.3-1.2-26.3-4.6-37.8-10.9-9.8-5.4-19.2-12.8-27.1-20.8-6.7-6.7-10.9-14.5-11.5-24.1-.4-6.1-.7-11.4,1.3-17.2-.1-.2-.1-.4-.2-.5-.4.9-.9,1.8-1.6,2.7-1.2,1.5-.5,2.6-1.3,4.3-7.1,12.4-7.4,24.5-7.2,33,.7,23.1,32.9,58.1,66.5,74.5,17.8,8.7,35.8,5.2,41.3-11.1,2.1-6.3-.5-17.7-4.3-29.4-.4-.2-.7-.2-1,0Z"/>
            <path d="M290.7,286c3.2-12.9-7.6-36.3-12.1-49-2-5.5-4.7-10.6-6.9-16.1-1.6-8.8-3.8-17.6-6.3-26.2-1.8-6.5-4.2-12.6-7.8-18.3-3.4-5.5-8.4-10.3-3.5-16.9,8.4-12.1,10.8-26.6,8-41.1l1.9-.4c1.6,6.7,2.3,13.7,1.5,20.6-.9,6.9-3.3,13.7-6.8,19.7-2.3,3.9-5,6.2-2,10.7,3.7,5.6,7.5,11.7,9.5,18.3,3.4,10.9,6,21.9,7.9,33.2.5,1.3,2.2,5.5,3.2,7.7,3.3,8,7.1,15.8,9.8,24.1,2.8,8.2,5.6,16.6,6.3,25.4.2,2.9.2,6-.8,9-.1-.1-1.9-.7-1.9-.7h0Z"/>
            <path d="M220,278.1c-17.6-14-37.4-32.7-37.9-56.8-.4-7.7-.4-15.9,2.3-23.4,1.8-5.7,5.4-10.4,8.5-15.4,1.8-3.2,3-6.8,3.6-10.5.3-2.2.5-4.4-.3-6.3-.1-.3-.4-.5-.6-.7-8-8-8.4-20.9-6.7-31.3,1.4-7.8,4.6-15.3,9.5-21.5l1.6,1.1c-5.7,9.7-9.1,20.8-8.7,32.1.3,6.3,1.6,13.1,6.1,17.7,2.6,2.4,2,6.4,1.6,9.4-.9,6-3.7,11.3-7.2,16.1-7.3,11.3-7.1,25.2-6,38.2,1.8,13.2,9.9,24.5,18.7,34.1,5.2,5.6,10.8,10.8,16.8,15.7l-1.3,1.5h0Z"/>
            <path class="cls-8" d="M274.5,247.4c10.2-.7,26.6,11.2,23.9,33.2s-6.8,24.8-7.2,30.6c-.4,5.7-8.8,10.3-30.7,16.7-21.9,6.4-23.9-8.1-10.9-13.3,12.9-5.2,21.9-6.4,21.9-6.4-11.4-7.6-28.6-58.8,3-60.8Z"/>
            <path class="cls-10" d="M276.1,247.4c5.6,4.2,9.7,10.5,10.6,17.4,1.1,8,1.3,15.6.1,22.9.9,2.9,1.1,6,.5,9.1-.3,3.4-1.5,6.6-3.4,9.3-.8,1.6-1.8,3.1-2.9,4.5-1.3,2-2.9,3.7-4.9,5.1-.7.4-1.5.9-2.3,1.4-.1.1-.2.1-.2.2-2.9,2.2-7,4.4-11,5.4-5.3,2.9-11.1,4.9-17.1,5.9,3.1,1.2,8,1.3,15-.7,21.9-6.4,30.4-11,30.7-16.7.4-5.7,4.5-8.6,7.2-30.6,2.5-20.9-12.1-32.6-22.3-33.2Z"/>
            <path class="cls-16" d="M276.5,316.4c-1.2.1-2.4,0-3.6-.2-1.7.7-3.5,1.1-5.3,1.2-2.8.2-5.5-.4-7.9-1.4-2.4-.5-4.5-1.5-6.4-2.9-1.2.4-2.5.9-3.8,1.4-12.9,5.2-11,19.7,10.9,13.3,11.5-3.4,19.4-6.3,24.2-9.1-1.8-.7-3.5-1.7-4.9-2.9-1,.3-2.1.5-3.2.6Z"/>
            <path d="M255.9,263.2c1.6-10.8,9.6-17.4,20.6-17,7.6.7,14.4,5.7,18.5,12,7.5,11.1,5.1,24.8,2.3,36.9-.9,4.1-2.4,8.1-3.9,11.8-.7,1.7-.9,3.3-1.2,5.1v.5c-.1,0-.2.4-.2.4-.7,2.3-2.4,3.9-4.2,5.3-7,4.8-15.1,7.1-23,9.8-6.1,1.9-12.5,4.1-19,2.4-3.9-.9-6.9-4.9-5.7-8.9,1.7-5.9,7.8-8.3,12.9-10.1,3.9-1.4,7.9-2.7,12-3.7,2.1-.5,4.1-.9,6.2-1.2l-.7,3.2c-4.2-3.2-6.5-8-8.5-12.8l2-.9c2.3,3.9,4.7,8.2,8.4,10.8l3.6,2.4c-7.3,1.2-14.7,3.1-21.8,5.6-3.5,1.3-7.4,2.5-9.7,5.5-2.3,2.8-1.4,6,2.2,7,5.6,1.6,11.7-.4,17.2-1.9,6.6-2.2,23.9-6.5,26-13.4.3-4,2.1-7.8,3.2-11.6,2.2-7.7,3.7-15.8,4.2-23.9.1-5.9-1.3-11.9-4.6-16.8-3.7-5.7-9.6-10.2-16.5-10.9-4.7-.1-9.8,1.2-13.2,4.5-2.7,2.7-4.3,6.4-5,10.3,0,0-2.1-.4-2.1-.4h0Z"/>
            <path class="cls-8" d="M249.5,244s-11.9,53.4-14.2,68.6c-1.9,11.9-8.9,21-18.2,21.5-7.5.4-6.9-8.2-4.1-14.8,2.2-5,9.8-70.9,6.5-91.2"/>
            <path class="cls-16" d="M224.7,316c-.8.4-1.8.7-3,.8-1.7.1-3.1-.3-4.2-1.1-1.3.6-2.5,1.1-3.9,1.6-.2,1.4-.4,2.5-.7,3-2.9,6.6-3.4,16.3,4.1,15.9,6.8-.4,12.4-6,15.7-13.8-2.9-1.7-5.6-3.9-8-6.4Z"/>
            <path d="M250.8,246.4c-4.4,21.5-9.2,43-13.2,64.5-.7,4.3-1.4,9-3.4,13.1-2,4.2-4.8,8-8.8,10.7-4.9,3.4-14.4,5.1-15.6-2.9-.6-3.7.4-7.5,1.7-10.9.3-.8.4-1.6.6-2.5,3.8-24.8,5.5-50,6.4-75.1.1-4.4.1-8.7-.2-13l2.5-.4c1,4.4,1.3,8.9,1.5,13.3.4,13.3-.8,26.5-2,39.7-1.1,11-2.4,21.9-4.3,32.8-.4,2.1-.7,4.2-1.4,6.2-1.5,3.4-3.1,8.5-.9,11.7,2.4,2.5,7.7.7,10.4-1.1,7.2-4.9,9.2-14,10.4-22.2.8-4.3,1.7-8.7,2.6-13,3.6-17.2,7.3-34.4,11.3-51.5,0,0,2.4.6,2.4.6h0Z"/>
            <g>
              <path class="cls-3" d="M223.2,142.9"/>
              <path class="cls-2" d="M222.5,141.4"/>
              <g>
                <path d="M221.1,140s-3.6,12.2-20.9-2.6c0,0,.7,20.3,12.1,25,18.2,7.4,27.8-11,27.8-11-22,2.2-19-10.5-19-10.5"/>
                <path d="M221.9,140.3c-4.3,10.8-16.6,3.1-22.4-2.1l1.7-.8c.7,9,3.4,21.8,13.2,24.8,4.7,1.5,10,1.3,14.4-1,4.3-2.3,7.9-6.2,10.3-10.4l1.3,1.9c-4.4.5-8.9.6-13.2-.8-4.7-1.3-8.3-6.2-6.7-11.2l1.6.4c-.5,6.7,6.2,9.1,11.9,9.2,2.8.2,5.8-.1,8.7-.3-6.4,12.4-19.3,19.3-32.4,12.3-8.2-5-10.2-15.9-10.9-24.8v-2.3c-.1,0,1.7,1.5,1.7,1.5,4.8,4.2,15.6,12,19.5,3.1-.3,0,1.3.5,1.3.5h0Z"/>
              </g>
              <g>
                <path class="cls-26" d="M236.2,132.4c-2-4.8-16-9.3-19.7-6.9s.5,14.8,4.7,15.7c4.2,1,17.9-1.7,15-8.8Z"/>
                <path class="cls-14" d="M218.5,133.3c.7.4,1.2.9,1.8,1.3,1.3,1.1,2.7,1.8,4.4,2.4,1.8.6,3.5.9,5.3.7,1.1.5,2.4.7,3.7.7-3.7,2.3-9.8,3.1-12.4,2.6-2.8-.6-5.7-6.5-6.1-11,1,1.5,2.1,2.6,3.3,3.3Z"/>
                <path d="M235.7,132.5c-1.7-4.1-15.2-8.8-18.6-6-2.2,3.5.7,11.6,4.3,13.4,3.7.8,16.3-2.1,14.3-7.4h0ZM237.2,131.8c3,6.6-5.3,9.8-10.4,10.3-2.1.2-4.1.5-6.3-.3-3.2-1.7-4.5-5.4-5.4-8.5-2.3-7.9.4-11.1,8.6-9.3,2.6.6,5,1.4,7.4,2.6,2.4,1.3,4.8,2.6,6.1,5.2h0Z"/>
                <path d="M217.1,136.2c.4-.6.8-1.4,1.1-2.1,0-.3.4-.4.5-.7.2-.8-.1-1.6-.1-2.4s.1-.5.5-.8h1.6c1.4.8,0,2.7-.4,3.7-.1.3,0,.7-.2,1-.5.9-1,1.7-1.8,2.4-.1,0-1.2-1.1-1.2-1.1h0Z"/>
                <path d="M226,140.1c-.1-1.1.1-2,.5-2.9.1-.3.5-.5.6-.8.5-1,1-3.3,2.6-2.9l.9,1.3c.1.5-.1.7-.3.9-.6.5-1.4.8-1.8,1.5-.2.2,0,.6-.2.8-.3.7-.6,1.5-.8,2.2.1,0-1.5-.1-1.5-.1h0Z"/>
              </g>
              <path class="cls-21" d="M249.5,135.7c-11.8-6.8-24.3-11.6-37.5-14.7-1.9-.5-3.8-.8-5.7-1.4v-.2c11.8.5,23.5,3.5,33.8,9.4,3.4,2,6.7,4.2,9.6,6.8,0-.1-.2,0-.2,0h0Z"/>
              <g>
                <path class="cls-19" d="M224.3,105.9s-11.1-2.1-15.9,7.2c-1,1.9,4.6,2.1,8.9,3.5,4.8,1.5,7.7,3.7,7.7,3.7l-.7-14.4Z"/>
                <path d="M223.8,106.3c.1,0,.3.2.4.2h-.2c-6-.7-12.1,1.6-14.8,6.9.7.5,2,.8,3,1l4.6,1.2c3.1.9,6.1,2,8.9,3.8l-1.6.8c-.4-4.6-.8-9.1-.3-13.9h0ZM224.8,105.4c1.1,5.4,1.1,11.3,1.2,16.8-2.8-2.3-6.1-4.3-9.7-5.3-2.2-.7-4.6-.7-6.9-1.5-1.1-.3-2.5-1.4-1.8-2.7,1.5-3,4.1-5.4,7.2-6.6,3-1.2,6.3-1.4,9.5-1,0,0,.4.2.5.3h0Z"/>
              </g>
              <g>
                <path class="cls-19" d="M246.8,115s8.7,5.9,5.7,15.9c-.6,2-4-1.4-8.1-3.4-4.5-2.2-8.1-2.7-8.1-2.7l10.5-9.8Z"/>
                <path d="M246.8,114.4c.2,0,.4,0,.5.2,2.8,1.5,4.8,4.2,5.9,7.1,1.2,3,1.1,6.5.1,9.4-.4,1.5-2,1.4-3,.7-2-1.1-3.8-2.5-5.8-3.6-3.1-1.4-6.5-2.5-9.9-3,3.7-3.2,8.5-7.6,12.2-10.8h0ZM246.9,115.6c-2.9,2.9-7,6.9-10,9.8l-.4-1.3c3.1.4,6,1.6,8.7,3.1,2.3,1,4.3,2.9,6.6,3.6.1,0,0,0,0,0h0c1.7-5.9-1.1-11.1-5.1-15.1h-.1c0,0,.1,0,.1,0,0,0,.1,0,.2,0h0Z"/>
              </g>
              <ellipse cx="218.3" cy="113.8" rx="2.8" ry="2.5" transform="translate(30.9 273.4) rotate(-67.9)"/>
              <circle cx="245.1" cy="124.8" r="2.9" transform="translate(65.3 333) rotate(-76.2)"/>
              <g>
                <path class="cls-11" d="M220.6,141.9c.7,3.5,2.7,6.7,5.5,8.9-.7.9-1.3,1.9-1.7,2.7-2.5,4.7-.9,10.7-4.7,14.9s-13.8,1.2-11.9-11.4c.9-5.6,3-8.8,5.6-11.6,2.6-.5,5.2-1.7,7.2-3.5Z"/>
                <path class="cls-9" d="M220.6,141.9c.7,3.5,2.7,6.7,5.5,8.9-.7.9-1.3,1.9-1.7,2.7-2.5,4.7-.9,10.7-4.7,14.9-2.7,3.1-8.8,2.3-11.1-3.1.2,0,.4.1.6.1.6.5,1.3.9,2,1.1,2.4.7,4.5-.3,5.6-2.1s.9-2.9,1.5-4.8c.1-.3.1-.6,0-.9.7-.9.2-2.6-1.4-2.7-1.6-.1-3.2.2-4.8.1-1.4-.1-2.8-.6-4.2-.9,1.2-4.2,3.3-7.4,5.4-9.8,2.7-.5,5.3-1.7,7.3-3.5Z"/>
                <path d="M221.1,141.1c.5.5.7,1.2.8,1.8.9,3.1,3,5.8,5.6,7.6-.8,1.1-1.7,2.4-2.3,3.5-1.5,3-1.3,6.3-2.2,9.7-1.1,5.6-5.8,9.3-11.3,6.5-8.8-5-5.1-19.6.9-25.5l.2-.2c1.4-.2,2.7-.6,4-1.2.9-.4,1.7-.9,2.5-1.5.5-.4,1.1-.8,1.8-.7h0ZM220.4,142.8c.1.1.3.2.4.1-1,.8-2,1.5-3.2,2-1.3.6-2.7,1.1-4.1,1.3l.5-.3c-4.4,4.7-6.6,11.7-4.9,17.9,1,3.8,5.5,6.8,9,4.5,3.5-2.8,3.1-7.6,4.1-11.8.4-2.3,1.7-4.6,3.1-6.4l.2,1.4c-2.7-2-4.6-4.9-5.6-8.1l-.2-.7c.1.2.5.3.7.1h0Z"/>
              </g>
            </g>
          </g>
          <path class="cls-6" d="M307.4,376.3"/>
          <g>
            <path class="cls-20" d="M117.8,174.5s5.6,14.4-16.3,28.1c-10.2,6.3-17.5,24.5-17.5,24.5,0,0,42.4,2.6,44.7,6,2.3,3.4,2,12.1-2.8,18.3s-63.2.8-68-7.5,10-61.5,45.2-80.8,14.7,11.4,14.7,11.4Z"/>
            <path d="M119.3,174.6v-.4c0-.1,0-.2,0-.2h0c1.8,5.7,0,12-2.9,16.9-3.5,5.5-8.5,9.6-13.8,13-3.8,2.5-6.7,6-9.3,9.8-3,4.4-5.5,9.2-7.5,14.1l-1.5-2.4c11.4.7,22.7,1.6,34.1,3.1,3.2.5,6.5.9,9.8,2,1,.3,2.2,1.1,2.6,2.2,2,4.7,1.1,18.5-3,21.7-.5.4-1.3.7-2,.7h-1.2c-11.4-.2-22.7-1.1-34.1-2-8.6-.8-17.2-1.4-25.6-3.7-8.8-2.4-10-5.5-9.2-14.3,1.7-14.4,7.3-28.1,14.3-40.7,7.2-12.6,16.9-24.1,29.3-31.9,2.5-1.6,5.1-2.9,7.7-4.2,4.1-1.9,8.4-3.9,13.2-3.9,9.9.8,4.7,12.1,1.4,17.1-.7,1.2-1.5,2.4-2.4,3.5,0,.1,0,0,0-.2,0,0,0-.1,0-.2h0ZM116.4,174.3c0-.3.3-.7.4-.9v-.2c0,0,.3-.5.3-.5.4-.7,1.1-2.1,1.4-2.8,1.3-3,3.6-7.3,2.9-10.4,0-.2-.2-.3-.4-.4-1.4-.4-3,0-4.6.5-7.6,2.7-15.1,6.8-21.5,11.8-13,10.5-22.3,24.9-28.9,40.2-3.2,7.7-5.9,15.7-7,23.9-.3,2.3-.5,5.4.3,7.4.2.6,1.3,1.3,2.5,1.9,3.7,1.7,7.8,2.5,11.9,3.2,17.1,3,34.5,2.9,51.8,3.3h0-.3c0,0,.4-.5.7-1,1.5-3.5,1.9-7.8,1.9-11.7,0-1.3-.3-4-.6-4.5-2.9-1.3-6.3-1.6-9.6-2.2-11.1-1.6-22.5-2.5-33.8-3.3l-2.4-.2.9-2.2c3.4-7.7,7.4-15.1,13.3-21.2,1.9-2,4.3-3.7,6.7-5.2,8.2-5.4,16.6-14.4,14.1-24.9-.1,0-.1-.3-.1-.6h0Z"/>
          </g>
          <g>
            <path class="cls-10" d="M100.9,162.8c0-.2.2-.3.3-.5,0-.3,0-.5,0-.8-.4-2.2-1.4-3.7-2.8-4.8-4.8-1.1-13.1.3-17.7,3.1-2.3,1.4-4.1,3.2-5.3,5.3-1.2,3.6-.6,8.3,2.5,14.3,2.4,4.6,22.3,1.7,23.4-13.1-.6-1.5-.9-2.7-.3-3.5Z"/>
            <path class="cls-16" d="M76.4,171.4c9.6-.5,16.8.9,21.7,3.3,2-2.5,3.4-5.7,3.3-9.7-.7-1.4-.9-2.6-.3-3.4-.7-4.2-3.8-6.1-7.6-6.4-4.4.2-9.5,1.5-12.7,3.4-4.5,2.8-6.8,7-5.8,13,.5-.2.9-.2,1.4-.2Z"/>
            <path d="M99.6,161.7c-1.3-7.2-10.5-5.7-15.4-3.1-8.9,4.2-9.6,11.9-4.8,19.7l.2.3h0c.8.6,1.8.7,2.9.8,5.9.1,12.6-3.3,15.2-8.6,1.4-2.7,2.5-5.9,1.9-9.1h0ZM102.5,161.2c.7,3.8,1.3,8-.4,11.7-2.6,5.5-8.2,9-14.1,10.2-3.8.6-9.3,1.1-11.7-2.8-3.1-7-5.8-16.4,1.5-21.9,6.8-5.4,22.3-8.7,24.7,2.8h0Z"/>
          </g>
          <path class="cls-20" d="M154.9,118.8c9.1,22,43.4,167.2,63.1,199.4-63.1-35-74.3.5-139.6-14.8,2.4-12.7,17-120.8,23.7-184.8,8.2-78.9,47.7-11.9,52.8.2Z"/>
          <path class="cls-15" d="M158.1,127.2c-1.4,2.8-2.9,5.6-4.5,8.2,0,3.9-.7,11.7,1.1,14.3l-1-5.7c.7,2.4,1.5,4.8,2.6,7,3.7,10,6.7,20.5,7.1,31.3.3,6.7-.3,13.6-1.4,20.3,6.1,8.9,9.2,19,9.2,29.2,5.2,6.6,3.5,61.5,6.3,69.4,7.9,3.1,29.4,10.8,40.6,16.9-17.5-61.9-48.7-159.4-60-190.9Z"/>
          <path d="M77.2,303.2c4.2-40.2,11.6-82.2,16.4-122.3,2.1-20.5,4.6-40.9,6.9-61.3,1.2-10.4,2.5-20.8,7-30.5,6.6-13.6,17.5-11.6,27.1-2.3,3.8,3.6,7.1,7.7,10.2,11.9,6.1,8.5,11.3,17.6,14.5,27.6,8.5,24.3,16.2,48.9,23.9,73.4,12.3,39.3,24.4,78.6,36.1,118.1l-2.3.7c-19.4-64-38.7-128-60.3-191.3-3.1-9.7-8.2-18.6-14.1-26.9-26.3-36.1-35.8-12.6-38.9,19.4-2.1,20.5-4.3,41-7.3,61.3-2.4,21.3-8.3,71.4-11.2,92-1.4,10.2-2.9,20.4-5.3,30.5-.3.1-2.7-.3-2.7-.3h0Z"/>
          <g>
            <path class="cls-12" d="M127.6,70.6c-4.5,1-3.9-3.2-2.6-5.8.8-1.6,6.6,2.5,6.6,2.5,1.6-5.2-3.6-7.5-4.5-9.1,1.5-.5,3.2-.5,4.6,0-2.1-4.5-4.7-8.7-7.7-12.6,1.5-.4,3.1-.6,4.7-.7-1.7-1.8,4.7-4.3,3.7-6.5.3-.9-7.2-8.8-.2-11.3-4.9-1.8-7.8-.1-12.9-.9h0c-.7.5-1.3,1-2,1.6,1.2,1.6,2.1,3,2,3.5-1,19.6-4.1,40.5-3.7,60.1,1.5-.2-.7,5.8.7,5.6-.6-3.5,1.6-10.1,6.4-14.8,0,0-2.5-2.9-1.6-4.7,0,0,7.8-5.2,6.5-7Z"/>
            <path d="M127.4,71.2q0,.1,0,0c0,.2-.5.2-.7.2-4.2.3-3.7-4.7-2.2-7.2,1.7-1.9,6,1.4,7.6,2.4l-1.2.4c.9-2.4-.5-4.7-2.3-6.3-.7-.7-1.5-1.2-2.1-2.1l-.5-.8.9-.3c1.7-.6,3.6-.6,5.2,0l-1.1,1.2c-2.3-4.8-5.2-9.3-8.5-13.5,2-.5,4.1-1,6.2-1l-.6,1.5c-1.9-2.4,1.9-4.2,3.1-5.8.2-.2.3-.4.4-.6.1-.2,0-.2,0-.3v-.7c-.1.4,0,.3,0,.3-.1,0-.1-.2-.2-.4-2.5-3.8-5.5-9.7.5-11.9v1.7c-4-1.6-8.5-.1-12.7-1h-.6v-.8h0c0-.1,1.4.5,1.4.5l-2,1.7v-1.1c1,1.3,1.9,2.3,2.2,3.9-.9,19.7-3.8,40.5-3.3,60.3l-1.3-1.1c1.5-.2,2,1.4,1.8,2.5,0,1.2-.4,2.4-.3,3.6v-.2c-.2-.2-.7-.3-.8-.3l-1,1.4c-.3-1.6,0-3.1.2-4.6,1-4.3,3.4-8.2,6.5-11.2v1.6c-1.4-1.7-2.9-4-1.7-6.2,2.1-1.4,4.2-2.8,5.9-4.6.3-.4.7-.8.8-1.3,0-.3,0,0,.4,0h0ZM127.9,69.9c2.8,2.3-4.4,7.4-6.1,8.7l.4-.4c0,0,0,.4,0,.6.3,1.4,1.4,2.6,2.3,3.7-4.2,4-7.8,9.9-6.6,15.8h-1.2c-3.1,0-1.3-4.2-1.5-6v.2c.2.2.7.3.8.3l-1.3-1.1c0-5.4,0-10.8.5-16.2.6-9.3,1.9-22.7,2.8-32.1.3-3.8.7-8,.9-11.9-.4-1.3-1.5-2.5-2.4-3.6,1-.9,2.7-2.4,3.8-3.3v1.7c0,0,0,.1,0,.1l-.7-.8c3.1.6,6.5-.3,9.7.1,1.2.1,2.3.4,3.4.8l2.4.9c-2.6,1-5.6,1.4-4.5,5,.5,1.9,1.8,3.7,2.8,5.5,0,0,.1.2.1.3s.1.2,0,.7v-.7c.3.5.2,1.2,0,1.7-.7,2-3,2.9-3.9,4.5h0c0,0,.8,1.5.8,1.5h-1.4c-1.5.2-3,.4-4.5.7l.5-1.4c3,4,5.6,8.3,7.8,12.8l.9,1.9c-1.9-.8-4-1.7-6.1-.9l.5-1.2c.1.2.4.5.7.8,1.8,1.6,3.8,3.4,4.1,5.9.2,1.4-.2,2.8-.6,4.1-1.9-1.3-4.3-3.1-6.3-3.4-.6,1.3-1.7,4.2,0,4.8.2.1,1-.2,1.7,0h0Z"/>
          </g>
          <g>
            <path class="cls-20" d="M113.8,42.2S53.2,21.1,43.2,13.8s-9.4,14.9,30.3,32.9c39.7,18,47.6-2,47.6-2"/>
            <path class="cls-13" d="M90,33.6c-18.1-6.7-40.9-15.6-46.7-19.8-4.8-3.5-7.1-.3-4,6,13.8,7.2,36.2,17,50.7,13.8Z"/>
            <path d="M113.4,43.4c-14.6-4.9-29.2-10.2-43.6-15.8-9.7-4-20.1-7.5-28.9-13.4-.7-.4-1.3-.4-1.4-.3-.3.2-.4.8-.4,1.3,0,2.6,1.6,5,3.1,7.2,9.2,12.1,23.5,19.3,37.3,24.8,11.6,4.2,25.9,8.3,36.8.8,1.3-1,2.6-2.4,3.5-3.7l2.3.9c-1.5,4.1-5,7.1-8.9,8.9-11.4,4.8-24.3,1-35.2-3.3-14.8-6.3-34.2-17-41-32.3-2.7-6.9,2.1-9.9,7.7-5.4,8.2,4.7,17.2,8.1,26.1,11.7,14.3,5.7,28.8,11,43.3,16.3,0,0-.7,2.3-.7,2.3h0Z"/>
          </g>
          <g>
            <path class="cls-20" d="M130.4,42.7S192.8,9.3,197.9,3.1c5.2-6.2,6.7,25.2-28.3,43.5-14.8,7.7-31.8,6.2-31.8,6.2"/>
            <path class="cls-13" d="M197.1,3.9c-8.1,7.1-55.6,32.8-65,37.9,2.7,1.6,10,1.1,26.1-4,32-10.2,38.1-25.6,38.9-33.9Z"/>
            <path d="M129.9,41.8c21.6-12.1,43.7-23.7,64.4-37.3.9-.6,1.7-1.2,2.5-1.9.3-.3.7-.8,1.2-1.1,3.3-1.8,3.9,3.3,3.7,5.5-2.2,24.6-29.3,45.8-53.1,47.1-3.6.3-7.2.2-10.9-.3l.2-1.9c10.3-.4,20.9-1.8,30.3-6.3,3.1-1.6,6.1-3.3,9-5.3,8.6-5.8,16-13.8,20.1-23.4,1.6-3.9,2.9-8.2,2.3-12.4-.1-.5-.2-.9-.5-1.2h.1c-3.3,3.6-8.2,6.4-12.4,9-18.3,11-37.1,21.2-55.9,31.2l-1-1.7h0Z"/>
          </g>
          <path class="cls-15" d="M169.6,130.7s-13.4-41.8-14.9-70.9-64-33.4-63,6.5-4.7,63.5-7.3,68.7,49,17.8,85.2-4.3Z"/>
          <path class="cls-20" d="M95.3,75.6c-.7,1.7-1.3,3.5-2,5.2,1.5,2.3,3,4.5,4.4,6.9,7.6,13.8,10.1,29.7,6.7,45.1-.7,3.2-1.7,6.1-2.9,9,15.7,2.5,39.4,2.5,60.1-7-8.3-9.4-12.9-21.1-13.5-33.9-.3-7.6,1.5-14,3.2-21.2.4-1.6.6-3.2,1-4.7v-.2c-1.1-1.5-2.2-2.9-3.4-4.4-6.7-8-7.7-18.3-5.1-27.9-12-7.4-30.9-7.8-42.3,1.2.4,11-1.9,20.7-6.2,31.9Z"/>
          <g>
            <path class="cls-19" d="M101.2,81s-1.5-9,10.9-15c6.8-3.3,7.1,14.7,7.1,14.7l-18,.3Z"/>
            <path d="M100.7,81.7c-.3-.3-.3-.8-.4-1.2-.4-6.8,5.2-12.4,10.9-15.1.7-.4,1.7-.9,2.9-.7,5.2.4,6,13.1,6.4,17.2-6.5,0-13.3.7-19.8-.2h0ZM101.8,80.4c5.9-1,11.5-.9,17.5-.9l-1.1,1.2c0-3.2-.4-16.6-5.9-13.6-2.8,1.4-5.4,3.2-7.3,5.5-1.8,2.3-3.1,5.2-2.9,8.1h0c0,.1-.2-.2-.3-.3h0Z"/>
          </g>
          <g>
            <path class="cls-19" d="M129.5,80.3s-3-9.6,5.6-16.9c11.5-.7,12.4,15.1,12.4,15.1l-18,1.8Z"/>
            <path d="M129,81c-.3-.2-.4-.5-.4-.8-1.7-6.4.7-13.5,5.8-17.7l.3-.2c2.1-.2,4.3,0,6.2,1.2,5.4,3.5,7.4,10,8,16-6.6.8-13.4,1.9-19.9,1.5h0ZM129.9,79.5c5.8-1.5,11.4-1.9,17.3-2.3l-1.1,1.3c-.3-6.6-3.1-14.7-11.1-14.1l.6-.3c-4.5,3.7-6.7,9.9-5.5,15.6,0,0,0,.2.1.2,0,0,0-.3-.3-.4h0Z"/>
          </g>
          <path d="M110.7,77.8c1.8.6,3.9-.3,4.6-2s0-3.7-1.9-4.4c-1.8-.7-3.9.2-4.7,2-.8,1.8.1,3.8,2,4.4Z"/>
          <path d="M134,71c1.2-1.4,3.3-1.4,4.7,0,1.4,1.4,1.5,3.6.2,5-1.3,1.3-3.4,1.3-4.7,0-1.3-1.4-1.4-3.5-.2-4.9Z"/>
          <path d="M168.5,130.2c-.1.1-.2.2-.2.3h0c-.4-1.1-1-3.3-1.3-4.3-6.8-22.5-12.2-45.7-14.1-69.2-1.7-7.9-8.8-13.4-16.2-16-14.6-5.3-35.1-1.9-41.6,13.7-2.7,5.9-2,13-2,19.4,0,10.1-.2,20.3-1.2,30.4-1.1,10.4-2.1,20.9-5.8,30.8v.3c0,0,0,.1,0,.1,0,0,0,.1,0,0,0,0,0-.1,0-.1,0-.2,0-.5,0-.5,0-.1,0,0,0,0,1.5,1.3,3.9,2.1,6,2.7,6.2,1.8,12.9,2.7,19.4,3.2,18.9,1.2,38.3-1.8,55.3-10.3.1,0,1.2-.6,1.4-.7.1.1.1.2.3.2h0ZM170.8,131.1c-18.2,14.1-47.7,16.4-69.8,12.7-4.7-1-15.9-2.9-18.2-7.3-.3-.6-.3-1.7,0-2.4v-.3c0,0,.3-.5.3-.5,3.4-9.2,4.7-19.3,5.9-29.1,1-10,1.5-20,1.5-30.1s0-6,0-7.5c-.4-7.9,1.9-16.2,7.8-21.8,12.5-12.1,35.2-11.7,48.8-1.5,5,3.7,8.7,9.6,9.1,15.9.3,4.2.7,8.4,1.2,12.5,2.7,19.1,7.3,37.9,12.8,56.3l.4,1.2c0,.5.3,1.2.2,1.9h0Z"/>
          <g>
            <path class="cls-23" d="M119.8,28.4c-3.3,1-3.6-.2-6.9-1,.5,1.3,1.2,2.6,2,3.8-4.3-1.5-6.3.2-7.5,2.4,0,0,2.1,1.8,4.8,6.2-1.5,0-3-.2-4.5-.2,1.7,1.2,2.7,3.3,2.4,5.4-1.3.6-4.9.6-4.9.6,0,0,1.6,4.9,8.9,3.9,0,2.2-.9,4.2-1.5,6.4,1.5-.4,8.8-1.9,9-3.7,0-.8,3.4-7.9,7.2-17.7"/>
            <path d="M120,29c-1.2.4-2.7.6-3.9.2-1.2-.4-2.2-.8-3.3-1.1l.9-1.1c.7,2,2.2,4,3.4,5.7l-2.5-.9c-2.6-1-5.2-.6-6.5,2.1l-.2-1.1c2.4,2.3,4.2,5,5.9,7.8-1.1,0-5-.3-6.2-.3l.6-1.7c2.2,1.5,3.1,4.2,2.6,6.7-1.8.7-3.7.7-5.5.8l.7-1c1.1,2.6,4.2,3.6,6.9,3.4.5,0,1.6-.2,2.2-.2.4,2.6-.7,5.2-1.4,7.6l-1.2-1.2c2.8-.8,5.9-1.3,8.2-3h0c0-.1,0-.4.2-.6,2.3-5.8,4.7-11.6,7.5-17.2l1.3.5c-1.8,6.4-4.7,12.5-7.1,18.5-.6.8-1.6,1.3-2.4,1.6-3,1.2-5.9,1.7-8.9,2.4.7-2.5,2.1-5.3,2.1-7.7l1,.8c-4.3.6-8.8-.9-10.1-5.5,1.8,0,3.9,0,5.6-.6l-.5.6c.2-1.8-.7-3.6-2.1-4.5l-2.8-1.8c1.9,0,5.9.4,7.8.5l-.8,1.4c-1.5-2.3-3.1-4.7-5.1-6.5,1.7-3.8,5.1-4.9,8.9-3.4l-.9,1.2c-.9-1.2-1.6-2.6-2.1-4l-.5-1.4,1.4.4c1.7.3,3.2,1.5,4.9,1.4.5,0,1.1-.1,1.6-.3,0,.2.3,1.5.3,1.5h0Z"/>
          </g>
          <g>
            <ellipse class="cls-17" cx="128.3" cy="131.4" rx="50.2" ry="36.9" transform="translate(-7.2 7.4) rotate(-3.2)"/>
            <path d="M179.9,128.5c.9,12.3-5.8,24.3-15.9,31.1-19.7,13.6-47,14.9-67.8,3.2-10.3-5.8-19.1-16.2-19.6-28.5-1.1-25.8,26.8-40.9,49.5-41.6,22.5-1.4,51.8,10.3,53.8,35.8h0ZM176.9,128.6c-1.1-17.3-18.1-28.4-33.9-31.3-16.3-3.1-34.2-.2-47.8,9.5-8.8,6.3-16.1,16-15.4,27.2.7,11.1,8.7,20.3,18.3,25.4,14.7,7.8,32.7,8.4,48.4,3.3,14.4-4.6,31.1-17.6,30.4-34.1h0Z"/>
            <g>
              <g>
                <path class="cls-17" d="M138.3,110.6c-1.5-12.8,23.5-23.6,24.6,7.7"/>
                <path d="M137.1,110.7c-.7-4.3,1.5-8.7,4.9-11.3,7.8-6.4,17.4-1.6,20.8,7,1.5,3.7,2.6,8,1.4,11.9h-2.4c-1.5-3.3-1.3-7.1-2.5-10.6-1-3.3-2.7-6.6-6-7.9-6.5-1.9-14.2,3.9-13.8,10.7,0,0-2.4.2-2.4.2h0Z"/>
              </g>
              <path d="M157.7,116.2c.7,5.5-13.8-4.2-13.8-6.1,0-2.4,11.3-12.7,13.8,6.1Z"/>
            </g>
            <g>
              <g>
                <path class="cls-17" d="M114.2,110c-3.2-14.7-31.7-16.9-23.2,13.5"/>
                <path d="M113.1,110.3c-1.7-6.3-8.6-10.1-14.8-8.9-7.2,1.2-7.4,10.1-6.4,15.9.3,2,.6,3.9.4,5.9l-2.3.7c-4.2-7-3-19.4,4.5-23.7,7.8-5.3,19.5.7,21,9.7,0-.2-2.4.4-2.4.4h0Z"/>
              </g>
              <path d="M105.2,110.5c-10-12.3-11.9,7.5-10.5,8.6,1.9,1.5,11.2-7.8,10.5-8.6Z"/>
            </g>
            <path d="M110.3,143.4c2.1,3.9,6.5,5.2,10.7,6.4,4.7,1.2,9.7,1.7,14.7,1.3,4.7-.7,9.8-1.9,14.2-3.7,4.2-1.8,8.5-4.7,9.3-9.4l2.5.3c-.3,2.9-1.8,5.6-3.7,7.5-3.9,3.8-9.1,5.7-14.3,7-2.6.7-5.2.6-7.8.9-8,.8-24.7,1.6-28-7.8-.2-.8-.3-1.7,0-2.5,0,.2,2.5,0,2.5,0h0Z"/>
          </g>
          <g>
            <path class="cls-17" d="M253.5,167.7s-15.8,2-20.9,7.3c-2.1,2.2-3,3.8,5.2,13.2,6.8,7.9,14.6,8.5,15.7,7.4,1.5-1.4,10.5-10,10.5-10"/>
            <path class="cls-25" d="M260,178.8c-.3.6-.8,1.2-1.2,1.7l-.7.7c-.2-.1-.5-.1-.8.1-2.8,1.1-5.6,2.2-8.4,3.4-.9.4-1.9.8-2.8,1.3-.3-.1-.6-.2-.8-.4-5.2-2.7-8-7.8-8.8-13.3-1.5.8-2.9,1.7-3.8,2.6-2.1,2.2-3,3.8,5.2,13.2,6.8,7.9,14.6,8.5,15.7,7.4,1.5-1.4,10.5-10,10.5-10l-4.1-6.7Z"/>
            <path d="M253.7,168.8c-2.8.5-5.7,1.1-8.5,1.8-4,1.2-8.3,2.4-11.3,5.2-.8.9-1.4,1.3-1.1,2.5,2.9,7.2,11.3,16.6,19.8,15.8h-.2c-.1.1-.1.2,0,.1,3.5-3.4,6.7-6.9,10.9-9.4l1.6,1.7c-2.7,4.1-6.4,7.2-9.9,10.5-1.3,1.2-3.3.9-4.8.7-8.5-1.8-13-8.4-17.9-14.3-4.7-5.7-2.4-9.4,3.6-12.4,5.6-2.6,11.5-3.7,17.6-4.5-.1,0,.2,2.3.2,2.3h0Z"/>
            <path class="cls-20" d="M268,197.6s17.2-13,10.1-22.8c-4.3-5.9-6.5-4.5-11-5.8-6.3-1.8-15-2.5-14.1-1.5,7.3,8.7,5.6,18.8,4,24.4-1.1,4,6.9-.7,8,.9,2.5,3.7,3,4.8,3,4.8Z"/>
            <path class="cls-18" d="M263,182c-1.7-1-3.3-2.2-4.9-3.3.8,5.2-.2,10-1.1,13.3-1.1,4,6.9-.7,8,.9,2.5,3.6,3,4.7,3,4.7,0,0,6.6-5,9.9-11.1-5.1.4-10.4-1.6-14.9-4.5Z"/>
            <path d="M268.3,196.5c-.5-.2-1.3.4-.9.1.6-.5,1.5-1.3,2.1-1.9,6.7-6.3,14-16.1,3.6-22.7-1.6-.8-3.6-.8-5.5-1.3-3-.9-5.7-1.9-8.7-2.5-1.7-.3-3.7-.8-5.4-.6.1,0,.5-.4.4-.7,0-.2-.1-.3,0-.3.3.4.7.9,1.1,1.3,5.3,6.9,6,16.6,3.9,24.7,0-.2-.2-.6-.5-.8s-.3-.1-.3-.1c2.3-.1,4.7-1.6,7.2-.8.4.1.9.5,1.2,1,.1.2.4.7.5.9.7,1.3,1.5,2.7,2,4.1.2.7,0-.2-.7-.4h0ZM267.7,198.7c-.6-.1-.9-.9-.8-.6,0-.1-.1-.2-.2-.2-.4-.5-1.2-1.5-1.6-2s-1.2-1.4-1.6-2c.1.2.4.4.5.4.2.1.1,0-.1.1-2.7.4-8.3,3.1-9-1.5,0-1.6.6-2.7.8-4.2,1.3-6.5.9-13.7-3-19.2-.5-.9-1.5-1.4-1.5-2.7.3-2.4,3.4-1.7,5-1.5,4,.7,8.1,1.7,12,2.6,2,.4,4.2.5,6.2,1.5,3,1.8,5.3,4.5,6.4,7.8,1.9,7.9-4.4,14.5-9.7,19.4-.5.5-1.5,1.3-2.1,1.7-.1.1-.2.2-.3.2.3-.1-.4.4-1,.2h0Z"/>
          </g>
          <g>
            <path class="cls-20" d="M72.2,248.9s62,9,65.6,7c3.6-1.9,20.1-11.9,16.7-13.6-8.6-4.2-64.4-20.5-72.5-15.4"/>
            <path d="M72.3,248.1c20.2,2.6,40.5,5.7,60.8,7,1.4,0,2.8.1,4.1-.1h.4c4.4-2.6,8.7-5.3,12.7-8.4,1.3-1,2.8-2.2,3.6-3.5,0-.1,0,0,0,.2.1.2.2.2.1.1-4-1.8-8.2-3.3-12.4-4.7-16.2-4.8-32.8-8.9-49.6-11-3-.3-6.7-.9-9.5,0l-.9-1.5c3.2-2,7.1-1.6,10.7-1.5,17.1,1.8,33.5,7.1,49.8,12.1,4.3,1.4,8.7,2.5,12.8,4.4.2.1.8.4,1,1,2,3.7-14.3,12.6-17.3,14.5-1.7.9-3.8.5-5.6.5-20.5-1.4-40.7-4.6-60.9-7.5-.1,0,.2-1.6.2-1.6h0Z"/>
          </g>
          <g>
            <path class="cls-17" d="M157.1,261.4s15.4-4,19.8-10c1.8-2.4,2.5-4.1-6.9-12.4-7.8-6.9-15.6-6.5-16.6-5.3-1.3,1.6-9.1,11.3-9.1,11.3"/>
            <path class="cls-25" d="M149.2,251.2c.3-.7.6-1.3,1-1.9l.6-.8c.2,0,.5,0,.8-.2,2.7-1.4,5.3-2.9,7.8-4.5.8-.5,1.8-1,2.6-1.7.3.1.6.2.9.3,5.5,2,8.9,6.7,10.5,12.1,1.4-1,2.6-2,3.5-3.1,1.8-2.4,2.5-4.1-6.9-12.4-7.8-6.9-15.6-6.5-16.6-5.3-1.3,1.6-9.1,11.3-9.1,11.3l4.9,6.2Z"/>
            <path d="M156.9,260.3c2.8-.8,5.5-1.8,8.2-3,3.8-1.7,7.9-3.5,10.5-6.6.7-1,1.2-1.4.7-2.6-3.8-6.8-13.4-14.9-21.7-13h.1c0-.1.1-.2,0-.1-3,3.8-5.7,7.7-9.6,10.8l-1.8-1.4c2.1-4.4,5.4-8,8.5-11.7,1.1-1.3,3.2-1.4,4.6-1.3,8.6.6,14,6.6,19.6,11.8,5.4,5,3.6,9-1.9,12.7-5.2,3.3-10.9,5.2-16.8,6.8,0-.2-.4-2.4-.4-2.4h0Z"/>
            <path class="cls-20" d="M157.7,261.4c-8.4-7.7-8-17.9-7.2-23.6.6-4.1-7-2.3-8.4-3.7-3-3.2-15.3,1.2-15.3,1.2,0,0-3.1,9.4,5.3,18.1"/>
            <path class="cls-18" d="M143.2,253.1c-2.7-2.9-69.4-15-83.6-18.4-.3,1-.6,3.8-.6,5.8s0,2.5,1.4,3.5c5,6.4,43.1,5.8,74.5,12.3,1.1.2,7.5,6.9,13.6,8.9,4.3,1.4,8.9-1.4,9.7-1-1.4-5.2-13.7-9.6-15-11.1Z"/>
            <path d="M135.7,255.3c5.2,3.5,10.8,7.1,16.9,8.3,1.7.2,4.1.9,5.2-.3q0,.1-.1,0c-3-2.5-5.3-5.7-6.8-9.3-2.2-5-2.7-11-2.2-16.1,0,.1.2.3.4.4.4.2.2.1-.1.1s-1,0-1.7-.2c-.6-.2-1.2-.5-1.6-1-.2-.2-.4-.4-.8-.5-5-2.1-10.8-2-16.2-2.4v-2.3c3.2-.2,6.5-.3,9.9,0,3.2.4,6.9.5,9.5,2.8,0,0-.1-.1,0-.1.8,0,2-.2,3,.4,1.5.9,1.6,2.8,1.4,4.2-.2,1.5-.3,3.1-.3,4.6,0,3.1.5,6.2,1.5,9.1,1,2.9,2.6,5.6,4.8,7.8.9.8,1.9,1.7,1.6,3.1-.4,1.5-1.5,2-2.7,2.4-6.6,2-14-2.6-19.3-6-1.4-1-2.7-2-4-3,.2-.1,1.6-2,1.6-2h0Z"/>
          </g>
        </g>
      </g>
      <path d="M0,279.6c47-1.5,115.1-.2,162.8-.2,46.4-.5,115.9-.2,162.8-.2v1.8c-75.5.5-168.8.1-244.2.8-27.1.1-54.3.6-81.4-.4,0,0,0-1.8,0-1.8h0Z"/>
    </g>
  </g>
</svg>