<?xml version="1.0" encoding="utf-8"?>
<!-- Generator: Adobe Illustrator 26.3.1, SVG Export Plug-In . SVG Version: 6.00 Build 0)  -->
<svg version="1.1" id="Laag_1" xmlns="http://www.w3.org/2000/svg" xmlns:xlink="http://www.w3.org/1999/xlink" x="0px" y="0px"
	 viewBox="0 0 325.7 282" style="enable-background:new 0 0 325.7 282;" xml:space="preserve">
<style type="text/css">
	.st0{clip-path:url(#SVGID_00000034802274348613059000000007571877411447551108_);}
	.st1{fill:#777C85;}
	.st2{fill:none;stroke:#F0E0B4;stroke-width:1.3188;stroke-miterlimit:10;}
	.st3{fill:#FFF0CF;stroke:#000000;stroke-width:3.415;stroke-miterlimit:10;}
	.st4{fill:none;stroke:#000000;stroke-width:1.2196;stroke-miterlimit:10;}
	.st5{fill:#FFF0CF;}
	.st6{fill:#F0E0B4;}
	.st7{fill:#633E27;}
	.st8{fill:#4F321F;}
	.st9{fill:none;stroke:#FFF0CF;stroke-width:0.2128;stroke-miterlimit:10;}
	.st10{fill:none;stroke:#FFF0CF;stroke-width:0.2098;stroke-miterlimit:10;}
	.st11{fill:#454138;}
	.st12{fill:#36322B;}
	.st13{fill:#C4B894;}
	.st14{fill:#FFFFFF;}
	.st15{fill:#9E390E;}
	.st16{fill:#8B2900;}
	.st17{fill:none;stroke:#A3D7FF;stroke-width:1.2196;stroke-miterlimit:10;}
	.st18{fill:#D8E0E8;}
	.st19{fill:#273A4D;}
	.st20{fill:#9096A1;}
	.st21{fill:#223242;}
	.st22{fill:#827979;}
	.st23{fill:#595050;}
	.st24{fill:#C3CAD1;}
	.st25{fill:#F75F3F;}
	.st26{fill:#B32C00;}
	.st27{fill:none;stroke:#000000;stroke-width:3;stroke-miterlimit:10;}
</style>
<g>
	<defs>
		<polygon id="SVGID_1_" points="15.6,0 301.3,0 325.7,280.1 0,280.5 		"/>
	</defs>
	<clipPath id="SVGID_00000035520542777869853940000018071441708341098426_">
		<use xlink:href="#SVGID_1_"  style="overflow:visible;"/>
	</clipPath>
	<g style="clip-path:url(#SVGID_00000035520542777869853940000018071441708341098426_);">
		<path class="st1" d="M163.5,160.9c0,0,11.6,18.2,15.4,46.5c4.3,31.3,37.8,6.8,33.3-15.4c-1.7-8.3-5.4-14.4-8.5-21.7
			C191.5,141.5,163.5,160.9,163.5,160.9z"/>
		<g>
			<path d="M164.9,157.7c8-6.2,19.7-8.4,28.7-3c5.9,3.5,9.6,9.7,11.9,15.8c3.6,8.8,8.8,17.7,8.3,27.6c-0.2,19.5-27.1,38.8-35.3,12.9
				c-1.9-7.8-4.4-15.1-7-22.7c0,0,2.2-0.8,2.2-0.8c2.1,6,4.2,11.9,6.1,18.1c1.3,5.5,3.2,12.3,8.9,14.5c11.4,3.3,21.9-12.1,22.6-22.2
				c0.5-9.5-5-17.8-8.8-26.2c-3.3-8.2-9.8-15.9-19.1-16.2c-5.9-0.3-12,1.6-17.3,4C166.2,159.6,164.9,157.7,164.9,157.7L164.9,157.7z
				"/>
		</g>
		<g>
			<g>
				<path class="st2" d="M316,180.7"/>
			</g>
		</g>
		<path class="st3" d="M194.7,257.8"/>
		<g>
			<g>
				<path class="st4" d="M178.2,242.1"/>
			</g>
		</g>
		<g>
			<path class="st5" d="M203.1,112.3c0,0-11.3,38.2-15.8,28.4c-6.8-14.7-6.6-31.5-6.6-31.5s27-15.9,34.3-17.1
				c21.6-3.3,43.7,7.3,52.8,18.2c4.7,5.6,16.5,33.6,16.5,33.6s-9.4,14-23.4,22.3c-9.3,5.5-0.3-35.2-0.3-35.2"/>
			<g>
				<path d="M204.1,112.6c-1.6,4.8-12.5,44.1-18.8,26.4c-2.8-6.7-4.4-13.9-5.2-21.1c-0.4-3.1-0.6-6.2-0.6-9.4c0,0,0.6-0.4,0.6-0.4
					c4.8-2.8,9.7-5.6,14.6-8.3c6.2-3.2,12.4-6.9,19.3-8.8c9.9-1.7,20.1-0.3,29.5,2.8c10.3,3.6,21.8,9.6,27.6,19.2
					c5.6,9.8,10,20,14.5,30.3c0,0,0.3,0.7,0.3,0.7l-0.5,0.7c-6.3,9-14.1,17-23.6,22.8c-13.3,6.9-3.9-31.6-2.4-36.8c0,0,2,0.4,2,0.4
					c-1.3,8.7-2.7,17.5-3.1,26.3c0,2.4-0.2,5.6,0.9,7.5c0,0,0,0,0.2,0c0.2-0.1,0.3-0.1,0.7-0.3l0.9-0.6c8.6-5.4,16-12.8,22-21
					c0,0-0.1,1.4-0.1,1.4c-2.1-5.1-4.3-10.2-6.6-15.3c-2.3-5-4.6-10.1-7.3-14.9c-1.3-2.4-3-4.4-5-6.2
					c-12.7-11.4-30.6-17.1-47.5-14.8c-2.1,0.2-3.7,0.8-5.7,1.6c-5,2.1-10,4.7-14.9,7.3c-4.9,2.6-9.7,5.4-14.5,8.2
					c0,0,0.6-1.1,0.6-1.1c0.1,9.1,1.6,18.3,4.7,26.9c0.5,1.3,1.6,4.6,2.3,5c4.6-2.1,11.2-23.5,13.1-29.1
					C202.1,112,204.1,112.6,204.1,112.6L204.1,112.6z"/>
			</g>
			<path class="st5" d="M192.3,185.6c0.6-0.9,1.2-1.8,1.6-2.7c0,0,0,0.1,0,0.1c4.4-8.1,5.3-16.4,2.7-18.7
				c-9.6-8.5-10.2-33.4,2.4-51.6c0,0,14.8-16.1,37.1-7s26.7,12.5,26.7,12.5c2.7,13.3,2.4,27.4-7.6,42.1c-5.9,8.8,4.1,9.8,10.2,30.1
				c5.4,17.8,7.3,30.2,7.3,30.2c1.9,5.3,12.2,26.9,17.1,44.8c0,0,0,0,0,0c0.2,0.6,0.3,1.1,0.4,1.7c0,0.2,0.1,0.4,0.1,0.6
				c0.1,0.5,0.2,1,0.3,1.5c0.1,0.3,0.1,0.5,0.2,0.8c0.1,0.4,0.2,0.9,0.3,1.3c0.1,0.3,0.1,0.6,0.2,0.9c0.1,0.4,0.2,0.8,0.2,1.2
				c0.1,0.3,0.1,0.7,0.2,1c0.1,0.4,0.1,0.9,0.2,1.3c0.1,0.5,0.1,1.1,0.2,1.6c0,0.3,0,0.5,0.1,0.8c0,0.4,0.1,0.8,0.1,1.1
				c0,0.3,0,0.5,0,0.8c0,0.4,0,0.7,0,1.1c0,0.2,0,0.5,0,0.7c0,0.3,0,0.7-0.1,1c0,0.2,0,0.4-0.1,0.6c0,0.3-0.1,0.7-0.2,1
				c0,0.2-0.1,0.3-0.1,0.5c-0.1,0.5-0.2,0.9-0.4,1.4c-5.5,16.4-23.5,19.8-41.3,11.1c-15.1-7.4-29.9-18.4-41.7-30.5
				c-14.2-13.6-23.9-28.1-24.8-42.8c0-0.4-0.1-0.8-0.1-1.2C183.5,213.4,181.8,200.2,192.3,185.6
				C192.3,185.6,192.3,185.6,192.3,185.6z"/>
			<path class="st6" d="M293.3,291.5c9.7,6.1,21.3,10.8,34,8.8c12.7-2,26.2-6.3,27-1s-17.2,11.4-37.2,12.4
				c-20.5,1.1-33.2-3.5-29.9-10.5C290.4,294.2,290.8,290,293.3,291.5z"/>
			<path class="st7" d="M327.3,300.3c-2.9,0.5-5.7,0.6-8.4,0.4c-3,2.5-6.7,4.2-10.6,4.4c-6,0.4-11.9,1.4-17.9,0.9
				c-1-0.1-1.9-0.2-2.8-0.3c2.9,4.4,14,6.8,29.7,6c20-1,38-7.1,37.2-12.4C353.5,294,340,298.3,327.3,300.3z"/>
			<g>
				<g>
					<path d="M293.9,290.5c9.2,5.9,19.9,9.9,31,8.7c7.5-1,16.1-3.6,23.8-4c2.4-0.1,5.6,0.2,6.9,2.8c3.6,8.9-23.1,13.6-29,14.5
						c-11.3,1.5-23.2,2.5-34.3-1.1c-4.1-1.3-9.2-5-7.2-10.1c0.5-1.2,1.2-2.2,1.7-3.4c0.7-1.4,1.4-2.8,2.1-4.3
						C289.7,291.5,291.3,288.8,293.9,290.5L293.9,290.5z M292.6,292.6c-0.2-0.1-0.3-0.1-0.2-0.1c-0.4,0.5-0.7,1.2-1,2.2
						c0,0-1.5,4.6-1.5,4.6c-0.4,1.3-1.2,2.6-1.2,4c0.5,3.5,6.4,4.8,9.4,5.5c9.2,1.8,18.8,1.6,28.1,0.6c7.7-1,15.7-2.3,22.7-5.8
						c3.9-2.1,6.5-5.4-0.1-5.1c-8.6,0.5-17.4,3.5-26.1,3.8C311.9,302.4,301.5,298.2,292.6,292.6L292.6,292.6z"/>
				</g>
			</g>
			<path class="st6" d="M197.2,268.5c1.4-9.6,78.3-5.5,81.4,11.6c3.8,20.8-2.7,22.8-3.8,28.2s-37.2,7.9-58.7,11s-21.4-10.9-8.5-14
				s31.1-5.8,31.1-5.8C227.9,296.9,191.8,305.4,197.2,268.5z"/>
			<path class="st8" d="M274.5,294.1c-3.1,3.1-7.2,5.1-11.5,5.1c-1.2-0.1-2.4,0-3.6,0.1c-0.4,0.1-0.7,0.1-0.9,0.1
				c-0.7,0.2-2.9,0.7-3.2,0.8c-4.4,1.1-9.1,2.3-13.7,2.4c-1.2,0-2.3,0-3.5-0.1c-2.4,1.3-5,2.2-7.7,2.3c-2,0.1-3.9-0.1-5.6-0.6
				c-2.9,2.4-6.5,3.9-10.3,4.1c-3.5,0.2-6.8-0.7-9.6-2.2c-10.1,4.3-8.7,16,11.2,13.1c21.5-3.1,57.6-5.7,58.7-11
				c0.8-3.9,4.4-6,4.9-14.8C278,293.7,276.2,293.9,274.5,294.1z"/>
			<g>
				<path d="M196.2,268.3c1.4-6.9,24.1-6,29.9-5.9c15.2,0.8,30.7,2.3,44.8,8.5c3.5,1.7,7.5,4.1,8.7,8.2c0.8,3.9,1.3,7.6,1.4,11.6
					c0.1,3.9-0.4,8-2,11.6c-0.9,2.2-2.3,3.9-2.9,6.2c-0.2,1.2-1.4,2.1-2.2,2.6c-5.3,2.7-11.2,3.3-16.9,4.4c-5,0.8-10,1.5-15,2.1
					c-7.2,0.9-15.3,1.7-22.5,2.5c-5.1,0.6-10.4,1.4-15.5,0c-4.6-1.1-8.2-5.4-5.6-10c2.1-3.7,6.3-5.5,10.2-6.4
					c9.9-2.4,19.8-4.1,29.8-5.7l-0.1,3c-4.8-0.8-10.3-0.4-15.3-0.7C201.8,299.4,192.4,289.7,196.2,268.3L196.2,268.3z M198.3,268.6
					c-1,7.4-0.3,15.3,4.6,20.9c5,5.6,12.8,6.7,20.2,7.3c5.4,0.5,10.4,0,15.8,1.1c0,0,8.2,1.9,8.2,1.9c-12.6,1.8-25.6,3.6-38,6.4
					c-2.4,0.5-4.6,1.2-6.5,2.6c-4.5,3.3-3.1,7.7,1.9,9c4.7,1.4,9.7,0.5,14.5-0.2c12.4-1.8,25.1-3.1,37.5-4.9
					c4.8-0.8,9.9-1.5,14.5-3.2c0.8-0.3,2-0.9,2.4-1.5c0.5-2.4,2.1-4.6,3.1-6.7c1.5-3.3,2-6.9,1.9-10.5c0-3.1-0.4-6.2-0.9-9.2
					c-0.2-1.8-0.7-3.1-2-4.5c-9.9-9.5-36-11.8-49.7-12.5C220.7,264.4,200.8,264,198.3,268.6L198.3,268.6z"/>
			</g>
			<path class="st6" d="M286.3,257c-3.7,1.1-7.6,1.5-11.3,0.8c-1.9-0.4-3.9-0.8-5.8-1.2c-13.3-1.2-26.3-4.6-37.8-10.9
				c-9.8-5.4-19.2-12.8-27.1-20.8c-6.7-6.7-10.9-14.5-11.5-24.1c-0.4-6.1-0.7-11.4,1.3-17.2c-0.1-0.2-0.1-0.4-0.2-0.5
				c-0.4,0.9-0.9,1.8-1.6,2.7c-1.2,1.5-0.5,2.6-1.3,4.3c-7.1,12.4-7.4,24.5-7.2,33c0.7,23.1,32.9,58.1,66.5,74.5
				c17.8,8.7,35.8,5.2,41.3-11.1c2.1-6.3-0.5-17.7-4.3-29.4C286.9,256.9,286.6,256.9,286.3,257z"/>
			<g>
				<path d="M290.7,286c3.2-12.9-7.6-36.3-12.1-49c-2-5.5-4.7-10.6-6.9-16.1c-1.6-8.8-3.8-17.6-6.3-26.2c-1.8-6.5-4.2-12.6-7.8-18.3
					c-3.4-5.5-8.4-10.3-3.5-16.9c8.4-12.1,10.8-26.6,8-41.1c0,0,1.9-0.4,1.9-0.4c1.6,6.7,2.3,13.7,1.5,20.6
					c-0.9,6.9-3.3,13.7-6.8,19.7c-2.3,3.9-5,6.2-2,10.7c3.7,5.6,7.5,11.7,9.5,18.3c3.4,10.9,6,21.9,7.9,33.2
					c0.5,1.3,2.2,5.5,3.2,7.7c3.3,8,7.1,15.8,9.8,24.1c2.8,8.2,5.6,16.6,6.3,25.4c0.2,2.9,0.2,6-0.8,9
					C292.5,286.6,290.7,286,290.7,286L290.7,286z"/>
			</g>
			<g>
				<path d="M220,278.1c-17.6-14-37.4-32.7-37.9-56.8c-0.4-7.7-0.4-15.9,2.3-23.4c1.8-5.7,5.4-10.4,8.5-15.4c1.8-3.2,3-6.8,3.6-10.5
					c0.3-2.2,0.5-4.4-0.3-6.3c-0.1-0.3-0.4-0.5-0.6-0.7c-8-8-8.4-20.9-6.7-31.3c1.4-7.8,4.6-15.3,9.5-21.5c0,0,1.6,1.1,1.6,1.1
					c-5.7,9.7-9.1,20.8-8.7,32.1c0.3,6.3,1.6,13.1,6.1,17.7c2.6,2.4,2,6.4,1.6,9.4c-0.9,6-3.7,11.3-7.2,16.1
					c-7.3,11.3-7.1,25.2-6,38.2c1.8,13.2,9.9,24.5,18.7,34.1c5.2,5.6,10.8,10.8,16.8,15.7L220,278.1L220,278.1z"/>
			</g>
			<path class="st5" d="M274.5,247.4c10.2-0.7,26.6,11.2,23.9,33.2c-2.7,22-6.8,24.8-7.2,30.6c-0.4,5.7-8.8,10.3-30.7,16.7
				c-21.9,6.4-23.9-8.1-10.9-13.3c12.9-5.2,21.9-6.4,21.9-6.4C260.1,300.6,242.9,249.4,274.5,247.4z"/>
			<path class="st6" d="M276.1,247.4c5.6,4.2,9.7,10.5,10.6,17.4c1.1,8,1.3,15.6,0.1,22.9c0.9,2.9,1.1,6,0.5,9.1
				c-0.3,3.4-1.5,6.6-3.4,9.3c-0.8,1.6-1.8,3.1-2.9,4.5c-1.3,2-2.9,3.7-4.9,5.1c-0.7,0.4-1.5,0.9-2.3,1.4c-0.1,0.1-0.2,0.1-0.2,0.2
				c-2.9,2.2-7,4.4-11,5.4c-5.3,2.9-11.1,4.9-17.1,5.9c3.1,1.2,8,1.3,15-0.7c21.9-6.4,30.4-11,30.7-16.7c0.4-5.7,4.5-8.6,7.2-30.6
				C300.9,259.7,286.3,248,276.1,247.4z"/>
			<path class="st7" d="M276.5,316.4c-1.2,0.1-2.4,0-3.6-0.2c-1.7,0.7-3.5,1.1-5.3,1.2c-2.8,0.2-5.5-0.4-7.9-1.4
				c-2.4-0.5-4.5-1.5-6.4-2.9c-1.2,0.4-2.5,0.9-3.8,1.4c-12.9,5.2-11,19.7,10.9,13.3c11.5-3.4,19.4-6.3,24.2-9.1
				c-1.8-0.7-3.5-1.7-4.9-2.9C278.7,316.1,277.6,316.3,276.5,316.4z"/>
			<g>
				<path d="M255.9,263.2c1.6-10.8,9.6-17.4,20.6-17c7.6,0.7,14.4,5.7,18.5,12c7.5,11.1,5.1,24.8,2.3,36.9
					c-0.9,4.1-2.4,8.1-3.9,11.8c-0.7,1.7-0.9,3.3-1.2,5.1c0,0-0.1,0.5-0.1,0.5l-0.1,0.4c-0.7,2.3-2.4,3.9-4.2,5.3
					c-7,4.8-15.1,7.1-23,9.8c-6.1,1.9-12.5,4.1-19,2.4c-3.9-0.9-6.9-4.9-5.7-8.9c1.7-5.9,7.8-8.3,12.9-10.1c3.9-1.4,7.9-2.7,12-3.7
					c2.1-0.5,4.1-0.9,6.2-1.2l-0.7,3.2c-4.2-3.2-6.5-8-8.5-12.8c0,0,2-0.9,2-0.9c2.3,3.9,4.7,8.2,8.4,10.8c0,0,3.6,2.4,3.6,2.4
					c-7.3,1.2-14.7,3.1-21.8,5.6c-3.5,1.3-7.4,2.5-9.7,5.5c-2.3,2.8-1.4,6,2.2,7c5.6,1.6,11.7-0.4,17.2-1.9
					c6.6-2.2,23.9-6.5,26-13.4c0.3-4,2.1-7.8,3.2-11.6c2.2-7.7,3.7-15.8,4.2-23.9c0.1-5.9-1.3-11.9-4.6-16.8
					c-3.7-5.7-9.6-10.2-16.5-10.9c-4.7-0.1-9.8,1.2-13.2,4.5c-2.7,2.7-4.3,6.4-5,10.3C258,263.5,255.9,263.2,255.9,263.2
					L255.9,263.2z"/>
			</g>
			<path class="st5" d="M249.5,244c0,0-11.9,53.4-14.2,68.6c-1.9,11.9-8.9,21-18.2,21.5c-7.5,0.4-6.9-8.2-4.1-14.8
				c2.2-5,9.8-70.9,6.5-91.2"/>
			<path class="st7" d="M224.7,316c-0.8,0.4-1.8,0.7-3,0.8c-1.7,0.1-3.1-0.3-4.2-1.1c-1.3,0.6-2.5,1.1-3.9,1.6
				c-0.2,1.4-0.4,2.5-0.7,3c-2.9,6.6-3.4,16.3,4.1,15.9c6.8-0.4,12.4-6,15.7-13.8C229.8,320.7,227.1,318.5,224.7,316z"/>
			<g>
				<path d="M250.8,246.4c-4.4,21.5-9.2,43-13.2,64.5c-0.7,4.3-1.4,9-3.4,13.1c-2,4.2-4.8,8-8.8,10.7c-4.9,3.4-14.4,5.1-15.6-2.9
					c-0.6-3.7,0.4-7.5,1.7-10.9c0.3-0.8,0.4-1.6,0.6-2.5c3.8-24.8,5.5-50,6.4-75.1c0.1-4.4,0.1-8.7-0.2-13l2.5-0.4
					c1,4.4,1.3,8.9,1.5,13.3c0.4,13.3-0.8,26.5-2,39.7c-1.1,11-2.4,21.9-4.3,32.8c-0.4,2.1-0.7,4.2-1.4,6.2
					c-1.5,3.4-3.1,8.5-0.9,11.7c2.4,2.5,7.7,0.7,10.4-1.1c7.2-4.9,9.2-14,10.4-22.2c0.8-4.3,1.7-8.7,2.6-13
					c3.6-17.2,7.3-34.4,11.3-51.5C248.4,245.9,250.8,246.4,250.8,246.4L250.8,246.4z"/>
			</g>
			<g>
				<g>
					<g>
						<path class="st9" d="M223.2,142.9"/>
					</g>
				</g>
				<g>
					<g>
						<path class="st10" d="M222.5,141.4"/>
					</g>
				</g>
				<g>
					<path d="M221.1,140c0,0-3.6,12.2-20.9-2.6c0,0,0.7,20.3,12.1,25c18.2,7.4,27.8-11,27.8-11c-22,2.2-19-10.5-19-10.5"/>
					<path d="M221.9,140.3c-4.3,10.8-16.6,3.1-22.4-2.1c0,0,1.7-0.8,1.7-0.8c0.7,9,3.4,21.8,13.2,24.8c4.7,1.5,10,1.3,14.4-1
						c4.3-2.3,7.9-6.2,10.3-10.4l1.3,1.9c-4.4,0.5-8.9,0.6-13.2-0.8c-4.7-1.3-8.3-6.2-6.7-11.2c0,0,1.6,0.4,1.6,0.4
						c-0.5,6.7,6.2,9.1,11.9,9.2c2.8,0.2,5.8-0.1,8.7-0.3c-6.4,12.4-19.3,19.3-32.4,12.3c-8.2-5-10.2-15.9-10.9-24.8
						c0,0-0.1-2.3-0.1-2.3l1.8,1.5c4.8,4.2,15.6,12,19.5,3.1C220.3,139.8,221.9,140.3,221.9,140.3L221.9,140.3z"/>
				</g>
				<g>
					<path class="st11" d="M236.2,132.4c-2-4.8-16-9.3-19.7-6.9c-3.7,2.4,0.5,14.8,4.7,15.7C225.4,142.2,239.1,139.5,236.2,132.4z"
						/>
					<path class="st12" d="M218.5,133.3c0.7,0.4,1.2,0.9,1.8,1.3c1.3,1.1,2.7,1.8,4.4,2.4c1.8,0.6,3.5,0.9,5.3,0.7
						c1.1,0.5,2.4,0.7,3.7,0.7c-3.7,2.3-9.8,3.1-12.4,2.6c-2.8-0.6-5.7-6.5-6.1-11C216.2,131.5,217.3,132.6,218.5,133.3z"/>
					<g>
						<path d="M235.7,132.5c-1.7-4.1-15.2-8.8-18.6-6c-2.2,3.5,0.7,11.6,4.3,13.4C225.1,140.7,237.7,137.8,235.7,132.5L235.7,132.5z
							 M237.2,131.8c3,6.6-5.3,9.8-10.4,10.3c-2.1,0.2-4.1,0.5-6.3-0.3c-3.2-1.7-4.5-5.4-5.4-8.5c-2.3-7.9,0.4-11.1,8.6-9.3
							c2.6,0.6,5,1.4,7.4,2.6C233.5,127.9,235.9,129.2,237.2,131.8L237.2,131.8z"/>
					</g>
					<g>
						<path d="M217.1,136.2c0.4-0.6,0.8-1.4,1.1-2.1c0-0.3,0.4-0.4,0.5-0.7c0.2-0.8-0.1-1.6-0.1-2.4c0-0.3,0.1-0.5,0.5-0.8l1.6-0.1
							c1.4,0.9,0,2.8-0.4,3.8c-0.1,0.3,0,0.7-0.2,1c-0.5,0.9-1,1.7-1.8,2.4C218.2,137.3,217.1,136.2,217.1,136.2L217.1,136.2z"/>
					</g>
					<g>
						<path d="M226,140.1c-0.1-1.1,0.1-2,0.5-2.9c0.1-0.3,0.5-0.5,0.6-0.8c0.5-1,1-3.3,2.6-2.9c0,0,0.9,1.3,0.9,1.3
							c0.1,0.5-0.1,0.7-0.3,0.9c-0.6,0.5-1.4,0.8-1.8,1.5c-0.2,0.2,0,0.6-0.2,0.8c-0.3,0.7-0.6,1.5-0.8,2.2
							C227.6,140.2,226,140.1,226,140.1L226,140.1z"/>
					</g>
				</g>
				<g>
					<path class="st13" d="M249.5,135.7c-11.8-6.8-24.3-11.6-37.5-14.7c-1.9-0.5-3.8-0.8-5.7-1.4l0-0.2c11.8,0.5,23.5,3.5,33.8,9.4
						c3.4,2,6.7,4.2,9.6,6.8C249.7,135.5,249.5,135.7,249.5,135.7L249.5,135.7z"/>
				</g>
				<g>
					<path class="st14" d="M224.3,105.9c0,0-11.1-2.1-15.9,7.2c-1,1.9,4.6,2.1,8.9,3.5c4.8,1.5,7.7,3.7,7.7,3.7L224.3,105.9z"/>
					<path d="M223.8,106.3c0.1,0.1,0.3,0.2,0.4,0.2c-0.1,0-0.2,0-0.2,0c-6-0.7-12.1,1.6-14.8,6.9c0.7,0.5,2,0.8,3,1
						c0,0,4.6,1.2,4.6,1.2c3.1,0.9,6.1,2,8.9,3.8c0,0-1.6,0.8-1.6,0.8C223.7,115.6,223.3,111.1,223.8,106.3L223.8,106.3z
						 M224.8,105.4c1.1,5.4,1.1,11.3,1.2,16.8c-2.8-2.3-6.1-4.3-9.7-5.3c-2.2-0.7-4.6-0.7-6.9-1.5c-1.1-0.3-2.5-1.4-1.8-2.7
						c1.5-3,4.1-5.4,7.2-6.6c3-1.2,6.3-1.4,9.5-1C224.4,105.2,224.7,105.3,224.8,105.4L224.8,105.4z"/>
				</g>
				<g>
					<path class="st14" d="M246.8,115c0,0,8.7,5.9,5.7,15.9c-0.6,2-4-1.4-8.1-3.4c-4.5-2.2-8.1-2.7-8.1-2.7L246.8,115z"/>
					<path d="M246.8,114.4c0.2,0,0.4,0.1,0.5,0.2c2.8,1.5,4.8,4.2,5.9,7.1c1.2,3,1.1,6.5,0.1,9.4c-0.4,1.5-2,1.4-3,0.7
						c-2-1.1-3.8-2.5-5.8-3.6c-3.1-1.4-6.5-2.5-9.9-3C238.3,122,243.1,117.6,246.8,114.4L246.8,114.4z M246.9,115.6
						c-2.9,2.9-7,6.9-10,9.8c0,0-0.4-1.3-0.4-1.3c3.1,0.4,6,1.6,8.7,3.1c2.3,1,4.3,2.9,6.6,3.6c0.1,0,0,0,0,0c0,0,0,0,0-0.1
						c1.7-5.8-1.1-11-5.1-15c0,0-0.1-0.1-0.1-0.1l0,0l0,0c0,0,0.1,0.1,0.1,0.1C246.7,115.6,246.8,115.6,246.9,115.6L246.9,115.6z"/>
				</g>
				<ellipse transform="matrix(0.3756 -0.9268 0.9268 0.3756 30.845 273.4479)" cx="218.4" cy="113.8" rx="2.8" ry="2.5"/>
				<ellipse transform="matrix(0.2391 -0.971 0.971 0.2391 65.3209 333.0491)" cx="245.2" cy="124.8" rx="2.9" ry="2.9"/>
				<g>
					<path class="st15" d="M220.6,141.9c0.7,3.5,2.7,6.7,5.5,8.9c-0.7,0.9-1.3,1.9-1.7,2.7c-2.5,4.7-0.9,10.7-4.7,14.9
						c-3.8,4.2-13.8,1.2-11.9-11.4c0.9-5.6,3-8.8,5.6-11.6C216,144.9,218.6,143.7,220.6,141.9z"/>
					<path class="st16" d="M220.6,141.9c0.7,3.5,2.7,6.7,5.5,8.9c-0.7,0.9-1.3,1.9-1.7,2.7c-2.5,4.7-0.9,10.7-4.7,14.9
						c-2.7,3.1-8.8,2.3-11.1-3.1c0.2,0,0.4,0.1,0.6,0.1c0.6,0.5,1.3,0.9,2,1.1c2.4,0.7,4.5-0.3,5.6-2.1c1.1-1.8,0.9-2.9,1.5-4.8
						c0.1-0.3,0.1-0.6,0-0.9c0.7-0.9,0.2-2.6-1.4-2.7c-1.6-0.1-3.2,0.2-4.8,0.1c-1.4-0.1-2.8-0.6-4.2-0.9c1.2-4.2,3.3-7.4,5.4-9.8
						C216,144.9,218.6,143.7,220.6,141.9z"/>
					<g>
						<path d="M221.1,141.1c0.5,0.5,0.7,1.2,0.8,1.8c0.9,3.1,3,5.8,5.6,7.6c-0.8,1.1-1.7,2.4-2.3,3.5c-1.5,3-1.3,6.3-2.2,9.7
							c-1.1,5.6-5.8,9.3-11.3,6.5c-8.8-5-5.1-19.6,0.9-25.5c0,0,0.2-0.2,0.2-0.2c1.4-0.2,2.7-0.6,4-1.2c0.9-0.4,1.7-0.9,2.5-1.5
							C219.8,141.4,220.4,141,221.1,141.1L221.1,141.1z M220.4,142.8c0.1,0.1,0.3,0.2,0.4,0.1c-1,0.8-2,1.5-3.2,2
							c-1.3,0.6-2.7,1.1-4.1,1.3c0,0,0.5-0.3,0.5-0.3c-4.4,4.7-6.6,11.7-4.9,17.9c1,3.8,5.5,6.8,9,4.5c3.5-2.8,3.1-7.6,4.1-11.8
							c0.4-2.3,1.7-4.6,3.1-6.4c0,0,0.2,1.4,0.2,1.4c-2.7-2-4.6-4.9-5.6-8.1c0,0-0.2-0.7-0.2-0.7C219.8,142.9,220.2,143,220.4,142.8
							L220.4,142.8z"/>
					</g>
				</g>
			</g>
		</g>
		<g>
			<g>
				<path class="st17" d="M307.4,376.3"/>
			</g>
		</g>
		<g>
			<path class="st18" d="M117.8,174.5c0,0,5.6,14.4-16.3,28.1c-10.2,6.3-17.5,24.5-17.5,24.5s42.4,2.6,44.7,6
				c2.3,3.4,2,12.1-2.8,18.3s-63.2,0.8-68-7.5c-4.8-8.3,10-61.5,45.2-80.8S117.8,174.5,117.8,174.5z"/>
			<g>
				<path d="M119.3,174.6c0-0.1,0-0.3,0-0.4c0-0.1-0.1-0.2,0-0.2l0,0c0,0,0,0.1,0,0.1c1.8,5.6,0.1,11.9-2.9,16.8
					c-3.5,5.5-8.5,9.6-13.8,13c-3.8,2.5-6.7,6-9.3,9.8c-3,4.4-5.5,9.2-7.5,14.1c0,0-1.5-2.4-1.5-2.4c11.4,0.7,22.7,1.6,34.1,3.1
					c3.2,0.5,6.5,0.9,9.8,2c1,0.3,2.2,1.1,2.6,2.2c2,4.7,1.1,18.5-3,21.7c-0.5,0.4-1.3,0.7-2,0.7c0,0-0.1,0-0.1,0s-1.1,0-1.1,0
					c-11.4-0.2-22.7-1.1-34.1-2c-8.6-0.8-17.2-1.4-25.6-3.7c-8.8-2.4-10-5.5-9.2-14.3c1.7-14.4,7.3-28.1,14.3-40.7
					c7.2-12.6,16.9-24.1,29.3-31.9c2.5-1.6,5.1-2.9,7.7-4.2c4.1-1.9,8.4-3.9,13.2-3.9c9.9,0.8,4.7,12.1,1.4,17.1
					c-0.7,1.2-1.5,2.4-2.4,3.5c0,0.1,0,0,0.1-0.2C119.2,174.9,119.3,174.7,119.3,174.6L119.3,174.6z M116.4,174.3
					c0-0.3,0.3-0.7,0.4-0.9c0,0,0.1-0.2,0.1-0.2s0.2-0.5,0.2-0.5c0.4-0.7,1.1-2.1,1.4-2.8c1.3-3,3.6-7.3,2.9-10.4
					c-0.1-0.2-0.2-0.3-0.4-0.4c-1.4-0.4-3,0-4.6,0.5c-7.6,2.7-15.1,6.8-21.5,11.8c-13,10.5-22.3,24.9-28.9,40.2
					c-3.2,7.7-5.9,15.7-7,23.9c-0.3,2.3-0.5,5.4,0.3,7.4c0.2,0.6,1.3,1.3,2.5,1.9c3.7,1.7,7.8,2.5,11.9,3.2
					c17.1,3,34.5,2.9,51.8,3.3c0,0,0.1,0,0.1,0c-0.1,0-0.1,0-0.2,0c-0.1,0-0.1,0-0.1,0c0.1,0,0.4-0.5,0.7-1
					c1.5-3.5,1.9-7.8,1.9-11.7c0.1-1.3-0.3-4-0.6-4.5c-2.9-1.3-6.3-1.6-9.6-2.2c-11.1-1.6-22.5-2.5-33.8-3.3c0,0-2.4-0.2-2.4-0.2
					s0.9-2.2,0.9-2.2c3.4-7.7,7.4-15.1,13.3-21.2c1.9-2,4.3-3.7,6.7-5.2c8.2-5.4,16.6-14.4,14.1-24.9
					C116.4,174.9,116.4,174.6,116.4,174.3L116.4,174.3z"/>
			</g>
		</g>
		<g>
			<path class="st6" d="M100.9,162.8c0.1-0.2,0.2-0.3,0.3-0.5c0-0.3,0-0.5-0.1-0.8c-0.4-2.2-1.4-3.7-2.8-4.8
				c-4.8-1.1-13.1,0.3-17.7,3.1c-2.3,1.4-4.1,3.2-5.3,5.3c-1.2,3.6-0.6,8.3,2.5,14.3c2.4,4.6,22.3,1.7,23.4-13.1
				C100.6,164.8,100.3,163.6,100.9,162.8z"/>
			<path class="st7" d="M76.4,171.4c9.6-0.5,16.8,0.9,21.7,3.3c2-2.5,3.4-5.7,3.3-9.7c-0.7-1.4-0.9-2.6-0.3-3.4
				c-0.7-4.2-3.8-6.1-7.6-6.4c-4.4,0.2-9.5,1.5-12.7,3.4c-4.5,2.8-6.8,7-5.8,13C75.5,171.4,75.9,171.4,76.4,171.4z"/>
			<g>
				<path d="M99.6,161.7c-1.3-7.2-10.5-5.7-15.4-3.1c-8.9,4.2-9.6,11.9-4.8,19.7c0,0,0.2,0.3,0.2,0.3c0,0,0,0,0,0
					c0.8,0.6,1.8,0.7,2.9,0.8c5.9,0.1,12.6-3.3,15.2-8.6C99.1,168.1,100.2,164.9,99.6,161.7L99.6,161.7z M102.5,161.2
					c0.7,3.8,1.3,8-0.4,11.7c-2.6,5.5-8.2,9-14.1,10.2c-3.8,0.6-9.3,1.1-11.7-2.8c-3.1-7-5.8-16.4,1.5-21.9
					C84.6,153,100.1,149.7,102.5,161.2L102.5,161.2z"/>
			</g>
		</g>
		<path class="st18" d="M154.9,118.8c9.1,22,43.4,167.2,63.1,199.4c-63.1-35-74.3,0.5-139.6-14.8c2.4-12.7,17-120.8,23.7-184.8
			C110.3,39.7,149.8,106.7,154.9,118.8z"/>
		<path class="st1" d="M158.1,127.2c-1.4,2.8-2.9,5.6-4.5,8.2c0,3.9-0.7,11.7,1.1,14.3l-1-5.7c0.7,2.4,1.5,4.8,2.6,7
			c3.7,10,6.7,20.5,7.1,31.3c0.3,6.7-0.3,13.6-1.4,20.3c6.1,8.9,9.2,19,9.2,29.2c5.2,6.6,3.5,61.5,6.3,69.4
			c7.9,3.1,29.4,10.8,40.6,16.9C200.6,256.2,169.4,158.7,158.1,127.2z"/>
		<g>
			<path d="M77.2,303.2C81.4,263,88.8,221,93.6,180.9c2.1-20.5,4.6-40.9,6.9-61.3c1.2-10.4,2.5-20.8,7-30.5
				c6.6-13.6,17.5-11.6,27.1-2.3c3.8,3.6,7.1,7.7,10.2,11.9c6.1,8.5,11.3,17.6,14.5,27.6c8.5,24.3,16.2,48.9,23.9,73.4
				c12.3,39.3,24.4,78.6,36.1,118.1c0,0-2.3,0.7-2.3,0.7c-19.4-64-38.7-128-60.3-191.3c-3.1-9.7-8.2-18.6-14.1-26.9
				c-26.3-36.1-35.8-12.6-38.9,19.4c-2.1,20.5-4.3,41-7.3,61.3c-2.4,21.3-8.3,71.4-11.2,92c-1.4,10.2-2.9,20.4-5.3,30.5
				C79.6,303.6,77.2,303.2,77.2,303.2L77.2,303.2z"/>
		</g>
		<g>
			<path class="st19" d="M127.6,70.6c-4.5,1-3.9-3.2-2.6-5.8c0.8-1.6,6.6,2.5,6.6,2.5c1.6-5.2-3.6-7.5-4.5-9.1
				c1.5-0.5,3.2-0.5,4.6,0.1c-2.1-4.5-4.7-8.7-7.7-12.6c1.5-0.4,3.1-0.6,4.7-0.7c-1.7-1.8,4.7-4.3,3.7-6.5c0.3-0.9-7.2-8.8-0.2-11.3
				c-4.9-1.8-7.8-0.1-12.9-0.9c0,0,0,0,0-0.1c-0.7,0.6-1.3,1.1-2,1.7c1.2,1.6,2.1,3,2,3.5c-1,19.6-4.1,40.5-3.7,60.1
				c1.5-0.2-0.7,5.8,0.7,5.6c-0.6-3.5,1.6-10.1,6.4-14.8c0,0-2.5-2.9-1.6-4.7C121.1,77.7,128.9,72.4,127.6,70.6z"/>
			<g>
				<path d="M127.4,71.2C127.3,71.3,127.3,71.3,127.4,71.2c-0.1,0.2-0.5,0.2-0.7,0.2c-4.2,0.3-3.7-4.7-2.2-7.2
					c1.7-1.9,6,1.4,7.6,2.4c0,0-1.2,0.4-1.2,0.4c0.9-2.4-0.5-4.7-2.3-6.3c-0.7-0.7-1.5-1.2-2.1-2.1c0,0-0.5-0.8-0.5-0.8l0.9-0.3
					c1.7-0.6,3.6-0.6,5.2,0.1l-1.1,1.2c-2.3-4.8-5.2-9.3-8.5-13.5c2-0.5,4.1-1,6.2-1c0,0-0.6,1.5-0.6,1.5c-1.9-2.4,1.9-4.2,3.1-5.8
					c0.2-0.2,0.3-0.4,0.4-0.6c0.1-0.2,0-0.2,0-0.3c0,0,0-0.7,0-0.7c-0.1,0.4,0,0.3,0,0.3c-0.1-0.1-0.1-0.2-0.2-0.4
					c-2.5-3.8-5.5-9.7,0.5-11.9c0,0,0,1.7,0,1.7c-4-1.6-8.5-0.1-12.7-1c0,0-0.6-0.1-0.6-0.1l0-0.7c0,0,0-0.1,0-0.1l1.4,0.6
					c0,0-2,1.7-2,1.7l0.1-1.1c0.9,1.3,1.8,2.3,2.1,3.9c-0.9,19.7-3.8,40.5-3.3,60.3c0,0-1.3-1.1-1.3-1.1c1.5-0.2,2,1.4,1.8,2.5
					c0,1.2-0.4,2.4-0.3,3.6c0,0,0,0-0.1-0.2c-0.1-0.2-0.6-0.3-0.7-0.3l-1,1.4c-0.3-1.6-0.1-3.1,0.2-4.6c1-4.3,3.4-8.2,6.5-11.2
					c0,0-0.1,1.6-0.1,1.6c-1.3-1.7-2.8-4-1.6-6.2c2.1-1.4,4.2-2.8,5.9-4.6c0.3-0.4,0.7-0.8,0.8-1.3C127,70.9,127.1,71.2,127.4,71.2
					L127.4,71.2z M127.9,69.9c2.8,2.3-4.4,7.4-6.1,8.7c0,0,0.4-0.4,0.4-0.4c-0.1,0.1-0.1,0.4,0,0.6c0.3,1.4,1.4,2.6,2.3,3.7
					c-4.2,4-7.8,9.9-6.6,15.8c0,0-1.2,0.1-1.2,0.1c-3.1-0.1-1.3-4.3-1.5-6.1c0,0,0,0,0.1,0.2c0.1,0.2,0.6,0.3,0.7,0.3l-1.3-1.1
					c-0.1-5.4,0.1-10.8,0.5-16.2c0.6-9.3,1.9-22.7,2.8-32.1c0.3-3.8,0.7-8,0.9-11.9c-0.4-1.3-1.5-2.5-2.4-3.6c1-0.9,2.7-2.4,3.8-3.3
					c0,0,0.1,1.7,0.1,1.7l0,0.1c0,0-0.7-0.8-0.7-0.8c3.1,0.6,6.5-0.3,9.7,0.1c1.2,0.1,2.3,0.4,3.4,0.8l2.4,0.9c-2.6,1-5.6,1.4-4.5,5
					c0.5,1.9,1.8,3.7,2.8,5.5c0,0.1,0.1,0.2,0.1,0.3c0,0.1,0.1,0.2,0,0.7l0-0.7c0.3,0.5,0.2,1.2,0,1.7c-0.7,2-3,2.9-3.9,4.5
					c0,0.1,0,0,0,0.1c0,0,0.8,1.4,0.8,1.4s-1.4,0.1-1.4,0.1c-1.5,0.1-3,0.3-4.5,0.6l0.5-1.4c3,4,5.6,8.3,7.8,12.8l0.9,1.9
					c-1.9-0.8-4-1.7-6.1-0.9c0,0,0.5-1.2,0.5-1.2c0.1,0.2,0.4,0.5,0.7,0.8c1.8,1.6,3.8,3.4,4.1,5.9c0.2,1.4-0.2,2.8-0.6,4.1
					c-1.9-1.3-4.3-3.1-6.3-3.4c-0.6,1.3-1.7,4.2,0.1,4.8C126.4,70.1,127.2,69.8,127.9,69.9L127.9,69.9z"/>
			</g>
		</g>
		<g>
			<path class="st18" d="M113.8,42.2c0,0-60.6-21.1-70.6-28.4s-9.4,14.9,30.3,32.9s47.6-2,47.6-2"/>
			<path class="st20" d="M90,33.6c-18.1-6.7-40.9-15.6-46.7-19.8c-4.8-3.5-7.1-0.3-4,6C53.1,27,75.5,36.8,90,33.6z"/>
			<g>
				<path d="M113.4,43.4c-14.6-4.9-29.2-10.2-43.6-15.8c-9.7-4-20.1-7.5-28.9-13.4c-0.7-0.4-1.3-0.4-1.4-0.3
					c-0.3,0.2-0.4,0.8-0.4,1.3c0.1,2.6,1.6,5,3.1,7.2c9.2,12.1,23.5,19.3,37.3,24.8c11.6,4.2,25.9,8.3,36.8,0.8
					c1.3-1,2.6-2.4,3.5-3.7c0,0,2.3,0.9,2.3,0.9c-1.5,4.1-5,7.1-8.9,8.9c-11.4,4.8-24.3,1-35.2-3.3c-14.8-6.3-34.2-17-41-32.3
					c-2.7-6.9,2.1-9.9,7.7-5.4c8.2,4.7,17.2,8.1,26.1,11.7c14.3,5.7,28.8,11,43.3,16.3C114.2,41,113.4,43.4,113.4,43.4L113.4,43.4z"
					/>
			</g>
		</g>
		<g>
			<path class="st18" d="M130.4,42.7c0,0,62.4-33.4,67.5-39.6c5.2-6.2,6.7,25.2-28.3,43.5c-14.8,7.7-31.8,6.2-31.8,6.2"/>
			<path class="st20" d="M197.1,3.9c-8.1,7.1-55.6,32.8-65,37.9c2.7,1.6,10,1.1,26.1-4C190.2,27.6,196.3,12.2,197.1,3.9z"/>
			<g>
				<path d="M129.9,41.8c21.6-12.1,43.7-23.7,64.4-37.3c0.9-0.6,1.7-1.2,2.5-1.9c0.3-0.3,0.7-0.8,1.2-1.1c3.3-1.8,3.9,3.3,3.7,5.5
					c-2.2,24.6-29.3,45.8-53.1,47.1c-3.6,0.3-7.2,0.2-10.9-0.3c0,0,0.2-1.9,0.2-1.9c10.3-0.4,20.9-1.8,30.3-6.3
					c3.1-1.6,6.1-3.3,9-5.3c8.6-5.8,16-13.8,20.1-23.4c1.6-3.9,2.9-8.2,2.3-12.4c-0.1-0.5-0.2-0.9-0.5-1.2c0,0,0,0,0.1,0
					c-3.3,3.6-8.2,6.4-12.4,9c-18.3,11-37.1,21.2-55.9,31.2C130.9,43.5,129.9,41.8,129.9,41.8L129.9,41.8z"/>
			</g>
		</g>
		<path class="st1" d="M169.6,130.7c0,0-13.4-41.8-14.9-70.9s-64-33.4-63,6.5S87,129.8,84.4,135C81.8,140.2,133.4,152.8,169.6,130.7
			z"/>
		<path class="st18" d="M95.3,75.6c-0.7,1.7-1.3,3.5-2,5.2c1.5,2.3,3,4.5,4.4,6.9c7.6,13.8,10.1,29.7,6.7,45.1
			c-0.7,3.2-1.7,6.1-2.9,9c15.7,2.5,39.4,2.5,60.1-7c-8.3-9.4-12.9-21.1-13.5-33.9c-0.3-7.6,1.5-14,3.2-21.2c0.4-1.6,0.6-3.2,1-4.7
			c0,0,0-0.1,0-0.2c-1.1-1.5-2.2-2.9-3.4-4.4c-6.7-8-7.7-18.3-5.1-27.9c-12-7.4-30.9-7.8-42.3,1.2C101.9,54.7,99.6,64.4,95.3,75.6z"
			/>
		<g>
			<path class="st14" d="M101.2,81c0,0-1.5-9,10.9-15c6.8-3.3,7.1,14.7,7.1,14.7L101.2,81z"/>
			<path d="M100.7,81.7c-0.3-0.3-0.3-0.8-0.4-1.2c-0.4-6.8,5.2-12.4,10.9-15.1c0.7-0.4,1.7-0.9,2.9-0.7c5.2,0.4,6,13.1,6.4,17.2
				C114,82,107.2,82.6,100.7,81.7L100.7,81.7z M101.8,80.4c5.9-1,11.5-0.9,17.5-0.9c0,0-1.1,1.2-1.1,1.2c0.1-3.2-0.4-16.6-5.9-13.6
				c-2.8,1.4-5.4,3.2-7.3,5.5c-1.8,2.3-3.1,5.2-2.9,8.1c0,0,0,0.1,0,0.1l0,0c0,0,0,0,0,0C102,80.8,101.9,80.5,101.8,80.4L101.8,80.4
				z"/>
		</g>
		<g>
			<path class="st14" d="M129.5,80.3c0,0-3-9.6,5.6-16.9c11.5-0.7,12.4,15.1,12.4,15.1L129.5,80.3z"/>
			<path d="M129,81c-0.3-0.2-0.4-0.5-0.4-0.8c-1.7-6.4,0.7-13.5,5.8-17.7c0,0,0.3-0.2,0.3-0.2c2.1-0.2,4.3,0.1,6.2,1.2
				c5.4,3.5,7.4,10,8,16C142.3,80.3,135.5,81.4,129,81L129,81z M129.9,79.5c5.8-1.5,11.4-1.9,17.3-2.3c0,0-1.1,1.3-1.1,1.3
				c-0.3-6.6-3.1-14.7-11.1-14.1c0,0,0.6-0.3,0.6-0.3c-4.5,3.7-6.7,9.9-5.5,15.6c0,0,0,0.2,0.1,0.2
				C130.2,79.8,130.1,79.6,129.9,79.5L129.9,79.5z"/>
		</g>
		<path d="M110.7,77.8c1.8,0.6,3.9-0.3,4.6-2c0.7-1.7-0.1-3.7-1.9-4.4c-1.8-0.7-3.9,0.2-4.7,2C107.9,75.2,108.8,77.2,110.7,77.8z"/>
		<path d="M134,71c1.2-1.4,3.3-1.4,4.7-0.1c1.4,1.4,1.5,3.6,0.2,5c-1.3,1.3-3.4,1.3-4.7,0C132.9,74.5,132.8,72.4,134,71z"/>
		<g>
			<path d="M168.5,130.2c-0.1,0.1-0.2,0.2-0.2,0.3c0,0,0-0.1,0-0.1c-0.4-1-1-3.2-1.3-4.2c-6.8-22.5-12.2-45.7-14.1-69.2
				c-1.7-7.9-8.8-13.4-16.2-16c-14.6-5.3-35.1-1.9-41.6,13.7c-2.7,5.9-2,13-2,19.4c0.1,10.1-0.2,20.3-1.2,30.4
				c-1.1,10.4-2.1,20.9-5.8,30.8c0,0-0.1,0.3-0.1,0.3s0,0.1,0,0.1c0,0,0,0.1,0,0c0,0,0-0.1,0.1-0.1c0.1-0.2,0-0.5,0-0.5
				c0-0.1,0,0,0,0c1.5,1.3,3.9,2.1,6,2.7c6.2,1.8,12.9,2.7,19.4,3.2c18.9,1.2,38.3-1.8,55.3-10.3c0.1,0,1.2-0.6,1.4-0.7
				C168.3,130.1,168.3,130.2,168.5,130.2L168.5,130.2z M170.8,131.1c-18.2,14.1-47.7,16.4-69.8,12.7c-4.7-1-15.9-2.9-18.2-7.3
				c-0.3-0.6-0.3-1.7,0.1-2.4c0,0,0.1-0.3,0.1-0.3s0.2-0.5,0.2-0.5c3.4-9.2,4.7-19.3,5.9-29.1c1-10,1.5-20,1.5-30.1
				c0-1.5-0.1-6-0.1-7.5c-0.4-7.9,1.9-16.2,7.8-21.8c12.5-12.1,35.2-11.7,48.8-1.5c5,3.7,8.7,9.6,9.1,15.9c0.3,4.2,0.7,8.4,1.2,12.5
				c2.7,19.1,7.3,37.9,12.8,56.3c0,0,0.4,1.2,0.4,1.2C170.6,129.7,170.9,130.4,170.8,131.1L170.8,131.1z"/>
		</g>
		<g>
			<path class="st21" d="M119.8,28.4c-3.3,1-3.6-0.2-6.9-1c0.5,1.3,1.2,2.6,2,3.8c-4.3-1.5-6.3,0.2-7.5,2.4c0,0,2.1,1.8,4.8,6.2
				c-1.5-0.1-3-0.2-4.5-0.2c1.7,1.2,2.7,3.3,2.4,5.4c-1.3,0.6-4.9,0.6-4.9,0.6s1.6,4.9,8.9,3.9c0.1,2.2-0.9,4.2-1.5,6.4
				c1.5-0.4,8.8-1.9,9-3.7c0.1-0.8,3.4-7.9,7.2-17.7"/>
			<g>
				<path d="M120,29c-1.2,0.4-2.7,0.6-3.9,0.2c-1.2-0.4-2.2-0.8-3.3-1.1c0,0,0.9-1.1,0.9-1.1c0.7,2,2.2,4,3.4,5.7
					c0,0-2.5-0.9-2.5-0.9c-2.6-1-5.2-0.6-6.5,2.1c0,0-0.2-1.1-0.2-1.1c2.4,2.3,4.2,5,5.9,7.8c-1.1-0.1-5-0.3-6.2-0.3
					c0,0,0.6-1.7,0.6-1.7c2.2,1.5,3.1,4.2,2.6,6.7c-1.8,0.7-3.7,0.7-5.5,0.8c0,0,0.7-1,0.7-1c1.1,2.6,4.2,3.6,6.9,3.4
					c0.5-0.1,1.6-0.2,2.2-0.2c0.4,2.6-0.7,5.2-1.4,7.6c0,0-1.2-1.2-1.2-1.2c2.8-0.8,5.9-1.3,8.2-3c0,0,0,0.1,0,0.1
					c0-0.2,0.1-0.5,0.2-0.7c2.3-5.8,4.7-11.6,7.5-17.2c0,0,1.3,0.5,1.3,0.5c-1.8,6.4-4.7,12.5-7.1,18.5c-0.6,0.8-1.6,1.3-2.4,1.6
					c-3,1.2-5.9,1.7-8.9,2.4c0.7-2.5,2.1-5.3,2.1-7.7c0,0,1,0.8,1,0.8c-4.3,0.6-8.8-0.9-10.1-5.5c1.8,0,3.9,0,5.6-0.6
					c0,0-0.5,0.6-0.5,0.6c0.2-1.8-0.7-3.6-2.1-4.5l-2.8-1.8c1.9,0.1,5.9,0.4,7.8,0.5c0,0-0.8,1.4-0.8,1.4c-1.5-2.3-3.1-4.7-5.1-6.5
					c1.7-3.8,5.1-4.9,8.9-3.4c0,0-0.9,1.2-0.9,1.2c-0.9-1.2-1.6-2.6-2.1-4l-0.5-1.4l1.4,0.4c1.7,0.3,3.2,1.5,4.9,1.4
					c0.5,0,1.1-0.1,1.6-0.3C119.6,27.7,120,29,120,29L120,29z"/>
			</g>
		</g>
		<g>
			
				<ellipse transform="matrix(0.9984 -5.604763e-02 5.604763e-02 0.9984 -7.1607 7.3989)" class="st22" cx="128.3" cy="131.4" rx="50.2" ry="36.9"/>
			<g>
				<path d="M179.9,128.5c0.9,12.3-5.8,24.3-15.9,31.1c-19.7,13.6-47,14.9-67.8,3.2c-10.3-5.8-19.1-16.2-19.6-28.5
					c-1.1-25.8,26.8-40.9,49.5-41.6C148.6,91.3,177.9,103,179.9,128.5L179.9,128.5z M176.9,128.6c-1.1-17.3-18.1-28.4-33.9-31.3
					c-16.3-3.1-34.2-0.2-47.8,9.5c-8.8,6.3-16.1,16-15.4,27.2c0.7,11.1,8.7,20.3,18.3,25.4c14.7,7.8,32.7,8.4,48.4,3.3
					C160.9,158.1,177.6,145.1,176.9,128.6L176.9,128.6z"/>
			</g>
			<g>
				<g>
					<path class="st22" d="M138.3,110.6c-1.5-12.8,23.5-23.6,24.6,7.7"/>
					<path d="M137.1,110.7c-0.7-4.3,1.5-8.7,4.9-11.3c7.8-6.4,17.4-1.6,20.8,7c1.5,3.7,2.6,8,1.4,11.9c0,0-2.4,0.1-2.4,0.1
						c-1.5-3.4-1.3-7.2-2.5-10.7c-1-3.3-2.7-6.6-6-7.9c-6.5-1.9-14.2,3.9-13.8,10.7C139.5,110.5,137.1,110.7,137.1,110.7
						L137.1,110.7z"/>
				</g>
				<path d="M157.7,116.2c0.7,5.5-13.8-4.2-13.8-6.1C143.8,107.7,155.2,97.4,157.7,116.2z"/>
			</g>
			<g>
				<g>
					<path class="st22" d="M114.2,110C111,95.3,82.5,93.1,91,123.5"/>
					<path d="M113.1,110.3c-1.7-6.3-8.6-10.1-14.8-8.9c-7.2,1.2-7.4,10.1-6.4,15.9c0.3,2,0.6,3.9,0.4,5.9c0,0-2.3,0.7-2.3,0.7
						c-4.2-7-3-19.4,4.5-23.7c7.8-5.3,19.5,0.7,21,9.7C115.4,109.7,113.1,110.3,113.1,110.3L113.1,110.3z"/>
				</g>
				<path d="M105.2,110.5c-10-12.3-11.9,7.5-10.5,8.6C96.6,120.6,105.9,111.3,105.2,110.5z"/>
			</g>
			<g>
				<path d="M110.3,143.4c2.1,3.9,6.5,5.2,10.7,6.4c4.7,1.2,9.7,1.7,14.7,1.3c4.7-0.7,9.8-1.9,14.2-3.7c4.2-1.8,8.5-4.7,9.3-9.4
					c0,0,2.5,0.3,2.5,0.3c-0.3,2.9-1.8,5.6-3.7,7.5c-3.9,3.8-9.1,5.7-14.3,7c-2.6,0.7-5.2,0.6-7.8,0.9c-8,0.8-24.7,1.6-28-7.8
					c-0.2-0.8-0.3-1.7-0.1-2.5C107.7,143.6,110.3,143.4,110.3,143.4L110.3,143.4z"/>
			</g>
		</g>
		<g>
			<path class="st22" d="M253.5,167.7c0,0-15.8,2-20.9,7.3c-2.1,2.2-3,3.8,5.2,13.2c6.8,7.9,14.6,8.5,15.7,7.4
				c1.5-1.4,10.5-10,10.5-10"/>
			<path class="st23" d="M260,178.8c-0.3,0.6-0.8,1.2-1.2,1.7l-0.7,0.7c-0.2-0.1-0.5-0.1-0.8,0.1c-2.8,1.1-5.6,2.2-8.4,3.4
				c-0.9,0.4-1.9,0.8-2.8,1.3c-0.3-0.1-0.6-0.2-0.8-0.4c-5.2-2.7-8-7.8-8.8-13.3c-1.5,0.8-2.9,1.7-3.8,2.6c-2.1,2.2-3,3.8,5.2,13.2
				c6.8,7.9,14.6,8.5,15.7,7.4c1.5-1.4,10.5-10,10.5-10L260,178.8z"/>
			<g>
				<path d="M253.7,168.8c-2.8,0.5-5.7,1.1-8.5,1.8c-4,1.2-8.3,2.4-11.3,5.2c-0.8,0.9-1.4,1.3-1.1,2.5c2.9,7.2,11.3,16.6,19.8,15.8
					c0,0,0,0-0.1,0l-0.1,0.1c-0.1,0-0.1,0.1,0,0c3.5-3.4,6.7-6.9,10.9-9.4c0,0,1.6,1.7,1.6,1.7c-2.7,4.1-6.4,7.2-9.9,10.5
					c-1.3,1.2-3.3,0.9-4.8,0.7c-8.5-1.8-13-8.4-17.9-14.3c-4.7-5.7-2.4-9.4,3.6-12.4c5.6-2.6,11.5-3.7,17.6-4.5
					C253.4,166.5,253.7,168.8,253.7,168.8L253.7,168.8z"/>
			</g>
			<path class="st18" d="M268,197.6c0,0,17.2-13,10.1-22.8c-4.3-5.9-6.5-4.5-11-5.8c-6.3-1.8-15-2.5-14.1-1.5
				c7.3,8.7,5.6,18.8,4,24.4c-1.1,4,6.9-0.7,8,0.9C267.5,196.5,268,197.6,268,197.6z"/>
			<path class="st24" d="M263,182c-1.7-1-3.3-2.2-4.9-3.3c0.8,5.2-0.2,10-1.1,13.3c-1.1,4,6.9-0.7,8,0.9c2.5,3.6,3,4.7,3,4.7
				s6.6-5,9.9-11.1C272.8,186.9,267.5,184.9,263,182z"/>
			<g>
				<path d="M268.3,196.5c-0.5-0.2-1.3,0.4-0.9,0.1c0.6-0.5,1.5-1.3,2.1-1.9c6.7-6.3,14-16.1,3.6-22.7c-1.6-0.8-3.6-0.8-5.5-1.3
					c-3-0.9-5.7-1.9-8.7-2.5c-1.7-0.3-3.7-0.8-5.4-0.6c0.1,0,0.5-0.4,0.4-0.7c0-0.2-0.1-0.3,0-0.3c0.3,0.4,0.7,0.9,1.1,1.3
					c5.3,6.9,6,16.6,3.9,24.7c0-0.2-0.2-0.6-0.5-0.8c-0.3-0.2-0.3-0.1-0.3-0.1c2.3-0.1,4.7-1.6,7.2-0.8c0.4,0.1,0.9,0.5,1.2,1
					c0.1,0.2,0.4,0.7,0.5,0.9c0.7,1.3,1.5,2.7,2,4.1C269.2,197.6,269.1,196.7,268.3,196.5L268.3,196.5z M267.7,198.7
					c-0.6-0.1-0.9-0.9-0.8-0.6c0-0.1-0.1-0.2-0.2-0.2c-0.4-0.5-1.2-1.5-1.6-2c-0.4-0.5-1.2-1.4-1.6-2c0.1,0.2,0.4,0.4,0.5,0.4
					c0.2,0.1,0.1,0-0.1,0.1c-2.7,0.4-8.3,3.1-9-1.5c0-1.6,0.6-2.7,0.8-4.2c1.3-6.5,0.9-13.7-3-19.2c-0.5-0.9-1.5-1.4-1.5-2.7
					c0.3-2.4,3.4-1.7,5-1.5c4,0.7,8.1,1.7,12,2.6c2,0.4,4.2,0.5,6.2,1.5c3,1.8,5.3,4.5,6.4,7.8c1.9,7.9-4.4,14.5-9.7,19.4
					c-0.5,0.5-1.5,1.3-2.1,1.7c-0.1,0.1-0.2,0.2-0.3,0.2C269,198.4,268.3,198.9,267.7,198.7L267.7,198.7z"/>
			</g>
		</g>
		<g>
			<path class="st18" d="M72.2,248.9c0,0,62,9,65.6,7c3.6-1.9,20.1-11.9,16.7-13.6c-8.6-4.2-64.4-20.5-72.5-15.4"/>
			<path d="M72.3,248.1c20.2,2.6,40.5,5.7,60.8,7c1.4,0,2.8,0.1,4.1-0.1c0.1,0,0,0,0.1,0c0,0,0.3-0.1,0.3-0.1
				c4.4-2.5,8.7-5.2,12.7-8.3c1.3-1,2.8-2.2,3.6-3.5c0-0.1,0,0,0,0.2c0.1,0.2,0.2,0.2,0.1,0.1c-4-1.8-8.2-3.3-12.4-4.7
				c-16.2-4.8-32.8-8.9-49.6-11c-3-0.3-6.7-0.9-9.5,0c0,0-0.9-1.5-0.9-1.5c3.2-2,7.1-1.6,10.7-1.5c17.1,1.8,33.5,7.1,49.8,12.1
				c4.3,1.4,8.7,2.5,12.8,4.4c0.2,0.1,0.8,0.4,1,1c2,3.7-14.3,12.6-17.3,14.5c-1.7,0.9-3.8,0.5-5.6,0.5c-20.5-1.4-40.7-4.6-60.9-7.5
				C72,249.8,72.3,248.1,72.3,248.1L72.3,248.1z"/>
		</g>
		<g>
			<polygon class="st25" points="170.5,195.8 138,215.9 143,239.6 179.3,255.9 203.1,232.1 203.1,207.1 			"/>
			<polygon class="st26" points="176.8,230.9 138,215.9 143,239.6 179.3,255.9 203.1,232.1 203.1,207.1 			"/>
			<polygon class="st27" points="170.5,195.8 138,215.9 143,239.6 179.3,255.9 203.1,232.1 203.1,207.1 			"/>
			<path class="st26" d="M164.1,197.8c0,0.4-0.3,4.5,0,4.9c1,1.1,4,3,6.9,3c2.8,0,5.8-1.6,6.9-2.8c0.4-0.4,0-4.7,0-5.2
				c0-1.7-3.1-3.1-6.9-3.1C167.2,194.7,164.1,196.1,164.1,197.8z"/>
			<path class="st26" d="M162.6,208.2c0,0.5,0,4.8,0,5.3c0,1.2-2.6,3.3-7.5,3.3c-4.8,0-6.7-2.2-7.5-3c-0.4-0.4,0-5.1,0-5.6
				c0-1.9,3.3-3.4,7.5-3.4C159.2,204.8,162.6,206.4,162.6,208.2z"/>
			<path class="st26" d="M197.3,204.6c0,0.5,0.4,4.9,0,5.3c-1.1,1.2-2.6,3.3-7.5,3.3c-4.8,0-6.3-1.8-7.5-3c-0.4-0.4,0-5.1,0-5.6
				c0-1.9,3.3-3.4,7.5-3.4S197.3,202.7,197.3,204.6z"/>
			<path class="st26" d="M166.7,216c0,0.5-0.4,5.2,0,5.6c1.2,1.3,2.7,3.5,7.9,3.5c5.1,0,6.7-1.9,7.9-3.2c0.4-0.4,0-5.4,0-5.9
				c0-2-3.5-3.6-7.9-3.6S166.7,214,166.7,216z"/>
			<ellipse class="st25" cx="171" cy="197.5" rx="7" ry="2.8"/>
			<ellipse class="st25" cx="189.8" cy="204.4" rx="7" ry="2.8"/>
			<path class="st25" d="M182.5,215.6c0,1.7-1.9,4.4-8,4.4c-5.8,0-8-2.7-8-4.4s3.6-3.1,8-3.1C178.9,212.4,182.5,213.8,182.5,215.6z"
				/>
			<ellipse class="st25" cx="155" cy="208" rx="7.6" ry="3.1"/>
			<g>
				<path d="M165,197.8c-0.1,1.6-0.3,2.9-0.1,4.4c0,0,0.1,0.2-0.1-0.1c1.1,1.3,2.4,2.2,4.1,2.4c2.6,0.3,5.6,0.2,7.7-1.6
					c0,0,0.5-0.4,0.5-0.4c0,0,0.1-0.1,0.1-0.1c-0.1,0.1-0.1,0.3-0.1,0.2c0,0,0-0.1,0-0.2c0.1-1.3-0.1-3.1-0.3-4.4c0-0.2,0-0.1,0-0.2
					c0,0,0-0.1,0-0.1c-0.6-0.9-2.5-1.3-3.6-1.4c-2.3-0.3-4.7,0.2-6.8,0.7C165.6,197.1,165,197.5,165,197.8L165,197.8z M163.2,197.8
					c0.5-6.2,13.5-5.8,15.6-0.9c0.2,0.5,0.1,1.1,0.2,1.6c0,1.4,0.1,2.7,0,4.1c0,0.3-0.2,0.9-0.5,1.1c-0.5,0.5-0.9,1.1-1.5,1.6
					c-2.4,1.9-5.6,1.8-8.4,1.3c-2-0.4-3.9-1.7-5.1-3.3c-0.4-0.7-0.3-0.9-0.3-1.5C163,200.9,163.2,198.8,163.2,197.8L163.2,197.8z"/>
			</g>
			<g>
				<path d="M163.5,208.2c0,1.5,0.3,3.7,0.1,5.1c-0.1,0.2,0,0.3-0.3,0.8c-1.9,2.7-5.3,4-8.6,3.8c-2.6,0.1-5.4-0.7-7.1-2.8
					c-0.1-0.1-0.5-0.6-0.6-0.6c-0.3-0.4-0.4-0.7-0.4-1.1c-0.1-1.5,0-2.9,0-4.4c0-0.5,0-1.2,0.2-1.7
					C148.9,202.1,162.9,201.7,163.5,208.2L163.5,208.2z M161.7,208.2c0-0.4-0.7-0.9-1.4-1.1c-3.2-0.9-6.8-1.4-9.9-0.2
					c-0.7,0.3-1.4,0.7-1.6,1.1c0,0-0.1,0.1-0.1,0.1c0,0.1,0,0,0,0.2c-0.1,1.5-0.4,3.4-0.3,4.8c0,0.1,0,0.2,0,0.2
					c0,0.1-0.1-0.2-0.1-0.2c0.5,0.5,1,1,1.6,1.3c3.7,1.8,9.2,2,12-1.6c-0.2,0.3-0.1,0.1-0.1,0.1C162,211.4,161.8,209.9,161.7,208.2
					L161.7,208.2z"/>
			</g>
			<g>
				<path d="M198.2,204.6c0,1.5,0.3,3.7,0.1,5.1c-0.1,0.2,0,0.3-0.3,0.8c-1.9,2.7-5.3,4-8.6,3.8c-2.6,0.1-5.4-0.7-7.1-2.8
					c-0.1-0.1-0.5-0.6-0.6-0.6c-0.3-0.4-0.4-0.7-0.4-1.1c-0.1-1.5,0-2.9,0-4.4c0-0.5,0-1.2,0.2-1.7
					C183.6,198.4,197.6,198,198.2,204.6L198.2,204.6z M196.4,204.6c0-0.4-0.7-0.9-1.4-1.1c-3.2-0.9-6.8-1.4-9.9-0.2
					c-0.7,0.3-1.4,0.7-1.6,1.1c0,0-0.1,0.1-0.1,0.1c0,0.1,0,0,0,0.2c-0.1,1.5-0.4,3.4-0.3,4.8c0,0.1,0,0.2,0,0.2
					c0,0.1-0.1-0.2-0.1-0.2c0.5,0.5,1,1,1.6,1.3c3.7,1.8,9.2,2,12-1.6c-0.2,0.3-0.1,0.1-0.1,0.1
					C196.7,207.8,196.5,206.3,196.4,204.6L196.4,204.6z"/>
			</g>
			<g>
				<path d="M167.6,216c-0.1,1.8-0.3,3.4-0.1,5.1c0,0,0.1,0.2-0.1-0.1c2.9,3.7,8.8,3.6,12.7,1.7c0.6-0.4,1.2-0.9,1.7-1.4
					c-0.2,0.1-0.1,0.4-0.1,0c0.1-1.5-0.2-3.5-0.3-5.1c0-0.2,0-0.2,0-0.2c0,0,0-0.1-0.1-0.1c-0.2-0.4-0.9-0.9-1.7-1.2
					c-3.4-1.2-7.2-0.7-10.5,0.2C168.3,215,167.6,215.5,167.6,216L167.6,216z M165.8,216c0.6-6.8,15.3-6.4,17.5-1
					c0.2,0.6,0.2,1.3,0.2,1.8c0,1.6,0.1,3,0,4.6c0,0.3-0.1,0.8-0.4,1.1c0,0-0.1,0.1-0.1,0.1s-0.5,0.6-0.5,0.6
					c-1.8,2.2-4.8,3-7.5,2.9c-3.4,0.2-7-1.2-9-4c-0.3-0.5-0.2-0.6-0.3-0.8C165.6,219.9,165.8,217.5,165.8,216L165.8,216z"/>
			</g>
		</g>
		<g>
			<path class="st22" d="M157.1,261.4c0,0,15.4-4,19.8-10c1.8-2.4,2.5-4.1-6.9-12.4c-7.8-6.9-15.6-6.5-16.6-5.3
				c-1.3,1.6-9.1,11.3-9.1,11.3"/>
			<path class="st23" d="M149.2,251.2c0.3-0.7,0.6-1.3,1-1.9l0.6-0.8c0.2,0,0.5,0,0.8-0.2c2.7-1.4,5.3-2.9,7.8-4.5
				c0.8-0.5,1.8-1,2.6-1.7c0.3,0.1,0.6,0.2,0.9,0.3c5.5,2,8.9,6.7,10.5,12.1c1.4-1,2.6-2,3.5-3.1c1.8-2.4,2.5-4.1-6.9-12.4
				c-7.8-6.9-15.6-6.5-16.6-5.3c-1.3,1.6-9.1,11.3-9.1,11.3L149.2,251.2z"/>
			<g>
				<path d="M156.9,260.3c2.8-0.8,5.5-1.8,8.2-3c3.8-1.7,7.9-3.5,10.5-6.6c0.7-1,1.2-1.4,0.7-2.6c-3.8-6.8-13.4-14.9-21.7-13
					c0,0,0,0,0,0l0.1-0.1c0,0,0.1-0.1,0,0c-3,3.8-5.7,7.7-9.6,10.8c0,0-1.8-1.4-1.8-1.4c2.1-4.4,5.4-8,8.5-11.7
					c1.1-1.3,3.2-1.4,4.6-1.3c8.6,0.6,14,6.6,19.6,11.8c5.4,5,3.6,9-1.9,12.7c-5.2,3.3-10.9,5.2-16.8,6.8
					C157.4,262.5,156.9,260.3,156.9,260.3L156.9,260.3z"/>
			</g>
			<path class="st18" d="M157.7,261.4c-8.4-7.7-8-17.9-7.2-23.6c0.6-4.1-7-2.3-8.4-3.7c-3-3.2-15.3,1.2-15.3,1.2s-3.1,9.4,5.3,18.1"
				/>
			<path class="st24" d="M143.2,253.1c-2.7-2.9-69.4-15-83.6-18.4c-0.3,1-0.6,3.8-0.6,5.8c0,1.6,0.1,2.5,1.4,3.5
				c5,6.4,43.1,5.8,74.5,12.3c1.1,0.2,7.5,6.9,13.6,8.9c4.3,1.4,8.9-1.4,9.7-1C156.8,259,144.5,254.6,143.2,253.1z"/>
			<g>
				<path d="M135.7,255.3c5.2,3.5,10.8,7.1,16.9,8.3c1.7,0.2,4.1,0.9,5.2-0.3c0,0.1,0,0.1-0.1,0c-3-2.5-5.3-5.7-6.8-9.3
					c-2.2-5-2.7-11-2.2-16.1c0,0.1,0.2,0.3,0.4,0.4c0.4,0.2,0.2,0.1-0.1,0.1c-0.4,0-1,0-1.7-0.2c-0.6-0.2-1.2-0.5-1.6-1
					c-0.2-0.2-0.4-0.4-0.8-0.5c-5-2.1-10.8-2-16.2-2.4c0,0-0.1-2.3-0.1-2.3c3.3-0.2,6.6-0.3,10,0c3.2,0.4,6.9,0.5,9.5,2.8
					c0,0-0.1-0.1,0-0.1c0.8,0,2-0.2,3,0.4c1.5,0.9,1.6,2.8,1.4,4.2c-0.2,1.5-0.3,3.1-0.3,4.6c0,3.1,0.5,6.2,1.5,9.1
					c1,2.9,2.6,5.6,4.8,7.8c0.9,0.8,1.9,1.7,1.6,3.1c-0.4,1.5-1.5,2-2.7,2.4c-6.6,2-14-2.6-19.3-6c-1.4-1-2.7-2-4-3
					C134.3,257.2,135.7,255.3,135.7,255.3L135.7,255.3z"/>
			</g>
		</g>
	</g>
</g>
<g>
	<path d="M0,279.6c47-1.5,115.1-0.2,162.8-0.2c46.4-0.5,115.9-0.2,162.8-0.2c0,0,0,1.8,0,1.8c-75.5,0.5-168.8,0.1-244.2,0.8
		c-27.1,0.1-54.3,0.6-81.4-0.4C0,281.4,0,279.6,0,279.6L0,279.6z"/>
</g>
</svg>
