<svg xmlns="http://www.w3.org/2000/svg" xmlns:xlink="http://www.w3.org/1999/xlink" x="0px" y="0px"
	viewBox="0 0 328.2 331.5" preserveAspectRatio="none">
	<path fill="#82AA00" d="M328.2,26.8c-0.9,1.6-1.8,3.2-2.4,4.9c-2.6,6.4-4.8,12.8-9.5,19.5l-20.6-22.9c-0.9,14.6,4.7,29.1,1.1,43.9
	l-12.1-20c-3.8,5.5-0.2,10.2-5.6,15.9c-8.7-15-9.3-29.1-12.9-42.9c-7.3,6.2-8.7,13-15,19.5c-7.4-8.8-13.3-17.9-21.9-26.5
	c4.8,17.1,6.9,34.1,2.2,51.4C223,56,212.8,42.9,196.1,30.8v26.3c-13.6-11.5-13.4-11.5-14.4-20.2c-0.8-7.1-2.1-14.1-3.9-21
	c-12.6,19.3-19.1,39.1-22.7,59.2C141.8,50.3,138.7,25.2,138.3,0c-16.5,25.9-24.8,52.2-16.9,79.2c-8.8-11.1-10.3-22.8-17.3-34.2v17.2
	h-3.9c-6.5-13.4-6.6-27-7.5-40.6C86.3,28,87.5,35.2,82.3,43c-9-7.3-10.8-14.6-19.4-22c2.7,14,7.2,26.6,4.7,39.6
	c-11.1-9.1-17.1-19.2-31.2-29.8c0.4,12.1,6.4,22.9-2.1,34.2c-7.4-6-7.3-12.3-12.9-18c-7.7,2.5-2.1,7-10.1,10.1
	C4.9,42.9,3,28.9,0,14.5v317h328.2V26.8z" />
</svg>