<svg
	xmlns="http://www.w3.org/2000/svg"
	viewBox="0 0 2319.8 121.1"
	xml:space="preserve"
>
	<path fill="#96BF14" d="M0,67c5.6-8.5,5.7-17.2,5.2-26c-0.1-2.3-0.6-4.7,0.4-7.2c21.1,12.6,25.7,27.8,33.7,42.5
		c3.2-16.2,0.2-32.2-7.9-48.3c8.7,3.1,11.2,4.7,18.3,12c4.4,4.5,8.3,9.1,13.5,14.7C72.2,42.4,78,30.6,91,19.9
		c1.6,14.2,0.6,28.3,4.7,42.7c23.6-19.9,49.8-38.7,88.2-53.7c-13.9,10.4-29.8,20.3-40.3,31.5c-10.8,11.5-17.9,23.4-20.3,35.9
		c13.9-12.6,27.4-25.3,45.1-37c-8.8,15.1-18.8,30-24.6,45.4c8.3-5.2,9.2-11.8,17.6-18c6.9,7.5,5,15,10.8,22.7
		c7.8-14.2,3.7-27.6,6.3-41.2l28.8,36.8l3.5-0.3c-0.2-23-8.5-45.7-19.7-68.2c18,13.1,34,28.8,47.3,46.6c4.8-15.4,2.8-30.8,3.8-46.3
		c9.7,13,15.8,26.3,20.6,40c10-17.3,18.5-34.8,31.8-51.7c-2.3,20.9-9.1,41.6-7.1,62.6c9.2-11.1,10.5-22.9,15.4-34.3
		c4.1,13,3,26,3.6,39.1C329,52,352.9,31.9,396.7,18c-11.1,9-22.2,17.9-28.7,27.7s-11.8,19.5-9.6,29.8c15.3-11,30.6-21.9,51.2-31.2
		c-10,11.8-20.4,23.6-19.4,37.4c9.1-3.8,11.1-8.5,15.3-12.5c4-3.7,7.4-8,10.2-12.8c2.5-4.4,4.3-9.1,5.2-14.1
		c0.9-4.5,0.1-9,1.4-13.6c12.3,9,16.5,19.2,23.7,29.3c11.6-15.3,20.9-31,36.7-45.7c-0.5,24.8,4.1,49.3,5.8,74.1
		c16.2-20.8,21.3-42.4,28.9-64c4.6,12.7,9.2,25.4,13.8,38.1c8-6.7,7.7-14,11.8-20.9c8.9,10.8,7,22.3,11.8,33.7
		c8-15.9,12.2-29.3,0.3-50.8c10.7,5.8,16.3,11.9,20.4,18.3s7.4,12.7,12.1,19c2.7-17.4-5.2-34.2-13.7-51.1c25.5,18,45.1,37,58.7,59
		c14.1-14,25.1-26.9,44.3-37.9c-5.8,11.4-12.3,22.6-11.3,34.3c0.8,7.4,2.8,14.5,6,21.2c8.5-9.1,5.7-19.1,12.6-28.2
		s8.1-19.1,17.1-28.4c5.3,16.6,6,33.5,12.7,50.2c1.4-8.5,2.9-17,4.6-27.1c10.2,16.4,10.9,31.9,16.8,47c0.8-20.2,9-40.4-6.6-60.2
		c10.1,5.2,14.7,11.4,18.5,17.7c3.7,6.1,6.7,12.4,10.8,18.5C763.6,59.7,760,45,744.7,31c19.4,8,27.7,18.7,39.5,30.7
		c12.3-20.7,25.7-39.6,51.5-56.3c-13.9,29.3-13.4,58.7-6,88.2c5.8-9.3,11.2-18.8,17.5-28c6.1-9,13-17.9,23.8-26.2
		c-5.2,11.2-10.2,22.2-14,34.1c7.3-2,4.6-5.9,11.6-8.2l2.6,15.5c8.8-10.6,7.8-21.6,9.5-33.9c11.7,8.3,12.8,16.9,20.1,24.6l15.5-66
		h3.2c9.5,18.9,13.6,38.3,20.4,57.6l5-20.5c7.3,11.3,9,21.7,13.9,31.7c4.7-19.6-4.4-38.6-10.7-57.8c14,12.8,21.4,26.5,29.7,40.2
		c14.1-14.5,24.1-29.5,42-43.3c-6.4,21-12.9,41.9-19.3,62.8c19.4-13.1,19.2-28.2,25-42.7c4.9,9.6,8.4,19.8,10.2,30.4
		c7.3-9.1,12.4-18.5,20.4-27.4s15.9-18,27.8-26.2c-11.9,21-18.5,42.4-24.5,63.9c21.1-16.1,38.4-32.9,50.7-50.8
		c-0.2,11.9-4.9,23.5-9.2,35.2c15.8-8.5,31.3-17,49.9-24.4c-12.7,14.4-28,28.4-36.6,44.7c7.9-3,8.6-6.5,12.9-8.8
		c4.3-0.2,2.2,2.1,5.9,2.2l10.2-13.7c5.6,7.1,7.2,14,9.8,21.1c8.5-8.6,11-17.8,15.1-26.8c4.3-9.3,7.7-18.7,8.5-29.9
		c7.1,11,5.3,20.7,6.1,31.9c12.7-8,18.4-16,30.8-22.4c-8.5,20.2-24.5,40.2-10.2,61c8.6-14.3,14.2-28.8,19-44.1
		c7.3,7.2,3,14.5,8.8,21.1c9.6-13.8,15.6-27.8,20.4-43.6c6.3,11,7.4,20.7,10.1,30.6l20.4-26.8c-6.2,22.5-9.9,45.7-10.9,69.1
		c9.5-14.2,13.1-28.9,22.7-43.9c6,5.5,2.8,10.9,7.3,15.8c11.2-20,16.7-40.1,11.4-60.7c13,15.7,18.2,32,22.8,48.6
		c8-19,16.4-37.8,32.6-55.9c-5.2,15.8-9.1,31.6-10.1,48.7c8.3-4.7,7.2-9.9,12.5-14.4c4.6,3.5,0.1,7.4,5.8,12.3
		c5-10.1,9.3-18.9,13.7-27.6h1.2l0.2,42.5c7.7-5.1,7.2-11,13.4-17.9c7.1,11.3,1.7,21.7,7,31.6c7.4-16.7,10.4-33.6,14.4-50.5
		c7.3,17,11,34.2,13.5,51.5c15.4-21.2,15.9-43,13.9-65.3c6,3.4,12.2,10.7,15.2,18.2c2.6,6.5,4.8,13.1,9.5,19.8l20.3-23.5
		c1,14.9-4.6,29.6-1,44.6c3.7-6.3,7.4-12.7,11.9-20.4c3.8,5.6,0.2,10.4,5.6,16.1c8.5-15.3,9.1-29.6,12.7-43.7
		c7.3,6.3,8.7,13.2,15,19.8c7.3-9,13.1-18.2,21.6-27c-4.7,17.4-6.7,34.7-2,52.2c8.4-13.7,18.5-27,35-39.4l0.1,26.8
		c13.5-11.7,13.3-11.7,14.2-20.6c0.8-7.2,2-14.3,3.8-21.4c12.7,19.6,19.2,39.6,22.8,60c13.2-25.2,16.2-50.7,16.4-76.4
		c16.5,26.3,24.8,53,17.1,80.5c8.7-11.3,10.1-23.2,17.1-34.8l0.1,17.5h3.9c6.4-13.6,6.5-27.4,7.2-41.3c6.4,6.5,5.3,13.8,10.4,21.8
		c8.9-7.5,10.7-14.9,19.2-22.5c-2.7,14.2-7,27.1-4.5,40.3c11-9.3,16.9-19.6,30.8-30.4c-0.3,12.4-6.2,23.3,2.2,34.8
		c7.3-6.2,7.2-12.6,12.8-18.4c7.6,2.5,2.1,7.1,10.1,10.2c6.8-15.7,8.3-31.1,11.8-47c8.8,14.9,13.2,29.4,17.6,44.2
		c12.9-8.3,20.1-17.8,34.6-27.6c-2.5,11.6-4.7,21.5-6.8,31.5c14-6.7,21.6-15.1,36.2-22.6c-3.1,7.6-9.5,13.9-9.3,20.8
		c14.2-13.8,21.7-28.4,28.2-43.2c1.7,8.8,4.5,17.5,3.5,27.4c13.6-4,18-10.2,30-15.5c-1.9,13.3-6.8,25.3,2.3,38.6
		c8.3-7.2,4.5-13.9,9-20.5c14.9,12.9,14.5,26.4,16.8,39.9c16.8-21,22.3-42.7,28.8-64.6c4.7,12.9,9.4,25.7,14.1,38.6
		c8.2-6.5,8.1-13.6,12-21.5c9,11.4,6,22.7,11.7,33.3c7.8-15,12.7-30,6.6-45.2c17,9.8,17.9,22.1,26.3,33.2
		c5.4-17.2-2.8-33.8-10.3-50.5c23.4,17.1,41.6,35,55.4,54.4c14.5-9.9,20.9-21.6,38.4-30.7c-2,8.6-7.9,17-7,25.5s1.3,17.1,7.7,26.9
		c8.7-9.6,6.8-18.7,12.2-27.5c5.8,9.5,6.3,19,11.5,28.2c14.2-12.6,18.6-25.9,17.1-39.8c9.9,10.4,14.1,21.2,18.1,32.4
		c9.2-9.6,15.8-19.3,16.6-29.6s0.1-20.8,0.8-31.2c10.8,13.7,17.7,27.7,24.2,43.1c19.7-10.2,29.4-22.2,52.4-29.7
		c-9.3,16-23.9,31.3-21.1,48.2c25.3-9.6,32.7-22.7,38.7-36.4c1.3,2.8,2.8,5.5,4,8.3c1.3,3,2.4,6.1,3.4,9.1c0.7,2.1,0.1,4.3,3.7,6
		c0.2,49.5,0,57.1,0,57.1H0C0,121.1,0.2,118.3,0,67z"/>
</svg>
