<?xml version="1.0" encoding="UTF-8"?>
<svg xmlns="http://www.w3.org/2000/svg" version="1.1" viewBox="0 0 874.4 595.8">
  <defs>
    <style>
      .cls-1 {
        fill: #b89c0c;
      }

      .cls-1, .cls-2, .cls-3, .cls-4, .cls-5 {
        fill-rule: evenodd;
      }

      .cls-6 {
        fill: #3c3c3c;
      }

      .cls-7 {
        fill: #695530;
      }

      .cls-8, .cls-4 {
        fill: #809f2a;
      }

      .cls-9 {
        fill: #f6f6f6;
      }

      .cls-2 {
        fill: #f5d000;
      }

      .cls-10 {
        fill: #82b9e6;
      }

      .cls-3, .cls-11 {
        fill: #5a462b;
      }

      .cls-12 {
        fill: #d4a47f;
      }

      .cls-13 {
        fill: #1d1d1b;
      }

      .cls-14 {
        fill: #fff;
      }

      .cls-15 {
        fill: #bababa;
      }

      .cls-5 {
        fill: #f5d100;
      }

      .cls-16 {
        fill: #99c6ec;
      }

      .cls-17 {
        fill: #ad8752;
      }

      .cls-18 {
        fill: #dabf8d;
      }

      .cls-19 {
        fill: #e8e8e8;
      }
    </style>
  </defs>
  <!-- Generator: Adobe Illustrator 28.7.0, SVG Export Plug-In . SVG Version: 1.2.0 Build 136)  -->
  <g>
    <g id="Laag_1">
      <g id="Laag_1-2" data-name="Laag_1">
        <g id="Laag_8">
          <path id="Air_light" class="cls-10" d="M635.6,159.1h0ZM627.5,133.8l-199.5,130,146.7-208.9c28.1,26.8,44.3,57.7,52.8,78.9h0ZM818.1,328.1c-1.7,140.7-266,185.2-395.2,183.6-133-1.6-386.8-55.2-385.1-197.2.5-43.5,30.1-77.4,65.8-102.5l324.4,51.7,312.4-54.9c41.1,26.4,78.4,64.7,77.7,119.3h0ZM290,47.1l138,216.7-193.1-135.3c8.2-22.2,24.5-54.6,55.1-81.3h0ZM432.8,0c20.5.3,39,2.9,55.8,7.2l-60.5,256.5L383.3,3.8c15-2.6,31.5-4,49.5-3.7h0Z"/>
          <path id="Air_dark" class="cls-16" d="M627.6,133.8l-199.5,130,312.5-55c-47.2-30.3-99.5-44.8-105-49.8.2.2-1.9-10-8-25.3h0ZM383.3,3.7l44.7,260.1L290,47c22.5-19.6,52.8-36.2,93.3-43.4h0ZM227.5,154.3s1.6-10.4,7.4-25.9l193.1,135.4-324.5-51.8c54.2-38.2,122.4-56.3,124-57.7h0ZM428,263.8L488.6,7.2c36.8,9.5,65,27.4,86.2,47.7l-146.8,208.9h0Z"/>
          <path id="Grass" class="cls-4" d="M422.9,511.7c-131.3-1.5-380.2-53.9-385-191.8,93-55.9,238.7-87.6,390.9-86.4,126.3,1,286.1,35.7,389.3,96.6-4.2,139-266.5,183.1-395.2,181.6h0Z"/>
          <path class="cls-11" d="M422.9,511.7c25.3.3,55.8-1.2,88.5-4.8-.5-79.2-38.2-261.6-54.7-272.6-4-2.7-51.1-3.6-55.1-.3-24.8,20.3-61.5,191.8-71.7,270,33.9,4.9,66,7.4,93,7.7h0Z"/>
          <path class="cls-11" d="M492.8,237c11-2.4,45.8,1.7,54.4,3.9,33.2,8.6,149.2,104.5,206.4,191.1-31.8,21.8-72.5,38.5-115.8,50.7-34.4-98.1-104.4-254.5-145-245.8h0Z"/>
          <path class="cls-11" d="M423,518.2c27.5.3,57.5-1,88.3-4.2,0,2.6-.2,5-.3,7.3-27.6,2.4-56.9,3.7-87.8,3.7s-60-2.3-95-7.1c.2-2.2.5-4.6.8-7.1,32.3,4.6,64.2,7.1,94,7.4Z"/>
          <path class="cls-11" d="M629.4,258.7c74.1,14.1,136.6,40.2,188.7,71.9-.5,13.9-3.6,26.8-8.8,38.9-42.7-36.4-102.5-74.4-179.9-110.8h0Z"/>
          <path class="cls-11" d="M227.5,251.9h-.4.4Z"/>
          <path class="cls-11" d="M227.2,252c-77.8,35.4-137.7,71.6-181,106.4-5-12.1-7.8-25-8.3-38.8,54.5-29.8,117.4-54,189.3-67.6h0Z"/>
          <path class="cls-8" d="M281.5,240.8c8.6-2,47.8-6,58.8-3.8-14.3-2.9-97.3,138.8-143.7,234.9-43.2-15.3-82.6-35.3-111.3-60.8,61.4-80.6,165.3-163,196.3-170.3h0Z"/>
          <path class="cls-3" d="M439.3,233.7c-3.5,0-7.1-.1-10.6-.2-30.6-.2-60.9.8-90.6,3.2.8,0,1.5.2,2.1.3-46.6-6.7-154.9,117.7-201.3,213.8,76.3,27,222,60.2,284,60.9h13.1l3.3-278h0Z"/>
        </g>
        <g id="Layer_4">
          <g>
            <path class="cls-6" d="M632.2,170.1s-14.8,25.8-32.4,32.2c-17.1,6.2,4,17.1,4,17.1,0,0-24.7,27.2-37.7,34.1-21.6,11.5,6.9,16.3,6.9,16.3,0,0-5,14.6-27.4,21.9-33.2,10.8-4.9,19.3-4.9,19.3,0,0-26.2,13.6-33.8,26.1s1.8,15.7,1.8,15.7c0,0,100.7,47.2,130.9-30.8s35.1-115.5,35.1-115.5c0,0-7.8-31-42.5-36.5h0Z"/>
            <path class="cls-13" d="M633.7,173.3c.6-.3,1.2-.8,1.5-1.3h0v.2c-.2.5-.7,1.4-.9,1.9-7.1,13.3-16.6,26.4-30.7,33.1-2.1.8-4.1,1.7-4.7,2.3,0-.1.3-.6.2-.9,0-.3,0-.4,0-.3,1.5,2.4,5.1,4.5,7.7,6,3.3,1.8,4.1,6.5,1.5,9.2-4.7,5.1-9.4,9.9-14.3,14.8-7.6,7.2-15.4,14.8-24.7,20.1-1.8,1-4.5,2.3-5.7,4,0,0,.2-.4,0-1,0-.3-.2-.7-.3-.8,1.6,1.5,4,2.2,6.3,2.9,1.4.4,3.1.8,4.5,1.1,3.6.6,5.4,4.8,3.7,8-5.7,12-18,19.9-30.2,23.6-2.8.9-5.3,1.7-7.9,2.9-2,.9-4.7,2.4-5.7,3.6v-.4c1.7,2.3,5.3,3.6,8.2,4.7,3.6,1.1,4,6.3.6,8-4.3,2.2-8.8,4.7-13,7.4-7,4.6-14.3,9.4-19.2,16.2-2.1,3.2-4.9,8.8-.7,10.9,4.7,2.1,10.6,4.4,15.9,6.1,34.5,11.2,81.8,13.2,103-21.8,5.9-9.4,9.1-20.2,13.1-30.4,7.8-21.2,15.1-42.7,21.2-64.5,3-10.8,5.8-21.8,7.6-32.7v1.5c-4.4-15.3-16.9-28-32.3-32.4-1.2-.4-2.5-.7-3.8-1-.5,0-.5-.5-.9-.9h0ZM630.7,166.9c3.9-.4,7.9.8,11.6,1.9,16.8,5.2,30.5,19,35.9,35.7.2.8.6,1.8.4,2.6-.4,3.1-.9,5.8-1.5,8.7-1.7,8.5-3.7,16.9-5.9,25.2-5.9,22.1-13,43.9-20.9,65.4-4.2,10.9-7.5,22.1-13.8,32.2-9.5,15.7-25.7,27-43.5,30.8-23.2,5.1-47.3.3-69.4-6.8-5.6-1.8-10.9-3.8-16.4-6.2l.4.2c-1-.3-1.8-.8-2.7-1.4-7.1-5-4.9-14.5-.7-20.7,2.3-3.5,5.3-6.6,8.4-9.3,8.1-7.1,16.8-12.6,26.2-17.8l.8,8c-6.4-2.1-15.5-6-14.3-14.3,1.9-8,12.8-11.3,19.5-13.8,9.6-3.5,19.2-9.7,23.3-19l4.2,7.1c-1.1-.2-1.9-.4-2.8-.6-6.6-1.6-15.5-4.1-16.8-12-.7-9.1,8.9-12.3,14.9-16.7,6.5-4.8,12.3-10.4,18.2-16.2,4.7-4.6,9.4-9.5,13.8-14.3l1.7,9.4c-.8-.4-1.6-.9-2.3-1.3-4.3-2.7-7.8-5.2-10.4-10.1-2.3-4.4-.8-10.2,3.2-13.1,2-1.8,5.7-3.2,7.5-3.8,2.2-.9,4.5-2.2,6.7-3.7,7.9-5.5,14.8-13.4,20.9-21l1.3-1.7.7-.9.3-.4.2-.2h0c.3-.7,1-1.3,1.6-1.6h0l-.3-.3Z"/>
          </g>
          <g>
            <path class="cls-19" d="M768.2,311.4s32.2,21.2,27.2,36.4c-5.1,15.2-22.4-6.9-22.4-6.9l-4.8-29.5Z"/>
            <path class="cls-13" d="M766.3,308.4c1.2-.8,3-.7,4.2.2.5.3,1.4.9,1.9,1.2,12.4,8,38.2,28.3,23.7,44.1-.9,1-2.1,1.8-3.3,2.3-5.9,2.1-11.6-1.8-16-5-2.1-1.6-4.1-3.3-5.9-5.2-.9-1-2.4-2.1-2.8-3.6-2.5-10.6-4.3-23.5-1.7-34h-.1ZM770.2,314.3c2.1,5.5,4.3,9.4,5.9,14.2,1.3,3.8,1.8,7.4,2.1,11.5l-1.1-2.4c2.4,3.5,5.2,7.2,8.6,9.8,1.5,1,3,2.2,4.5,1.9,1.3-.7,1.5-3.9,1.1-5.4-1.6-10.3-15.3-21.5-23.3-28.1-.4-.3-1.3-1-1.7-1.3.9.7,2.8.7,3.8,0h0v-.2Z"/>
          </g>
          <g>
            <path class="cls-15" d="M733.5,138.6l48.9-66.7s17.2,62.3-39.5,110.7"/>
            <path class="cls-13" d="M730.6,136.5c2.3-6.7,6.1-12.5,10.2-18.1,8.1-11.1,17-21.8,25.7-32.4,4.4-5.4,8.7-10.9,12.9-16.4,1.2-1.6,3.5-1.9,5.1-.7.7.5,1.1,1.2,1.3,2,.7,2.8,1.1,5.3,1.6,8,6.7,34.3-6.5,70.9-30.6,95.6-3.7,3.8-7.6,7.4-11.7,10.7l-4.6-5.4c3.7-3.4,7.3-6.9,10.6-10.6,16.6-18.4,27.2-42.2,28.7-67,.5-9.8,1.3-19.9-1.2-29.4l6.5,1.2c-3.9,5.6-7.8,11.3-11.6,17.1-7.5,11.5-15,23.1-23.2,34.3-4.1,5.7-8.5,11-14.2,15.2l-5.7-4.2h.2Z"/>
          </g>
          <g>
            <path class="cls-15" d="M469.1,384.2s63.9-22.2,102-61.8c42-43.6,73.3-132,66.7-137.7-65.5-56.2-15.2-111.4-15.2-111.4,0,0,24.8,69,42.1,86.5,0,0,79.9-10.1,83.3,42.1.8,13-148.2,296.8-156.6,310.4l-152.9-19"/>
            <path class="cls-13" d="M468,380.9c36.6-15.9,75.4-36.8,102.5-66.5,26.6-30.9,45.4-69.2,58.5-107.6,1.7-5.6,3.5-11.4,4.1-17.1v-2.1c0-.2,0-.3,0,.2.2.4.7,1,.9,1.2-16.7-14.5-31.1-33.8-34.2-56.4-2.6-17.8,2.2-36.1,11.5-51.3,2.3-3.8,4.9-7.5,7.9-10.9,2.1-2.5,6.4-1.6,7.4,1.5,5.3,15,11.2,30,17.7,44.6,3.2,7.3,6.6,14.5,10.3,21.5,3.6,6.7,7.6,13.8,12.6,19.2l-3.2-1.1c22.8-2,51.8-.4,70.9,13.5,8.4,6.1,14.5,15.6,16.3,25.8.5,2,.7,4.2.9,6.2v1.1c-.4,3.2-1.6,5.9-2.7,8.8-7.2,17.7-15.6,34.5-24,51.6-41.5,83.3-84.5,166.3-128.8,248.2-.6,1.1-1.2,2-1.9,3.2-.9,1.5-2.5,2.2-4.1,2-38-5-114.8-14.6-152.8-19.6l.9-7c38.2,4.4,114.8,13.8,153,18.3l-4.1,2c.5-.8,1.1-1.9,1.7-2.9,43.5-81.4,87-165.5,128-248.1,6.2-12.7,12.4-25.4,18.3-38.1,2.7-5.9,6.3-13.8,7.9-18.8-1-27.2-27.3-37.1-51-39-9.1-.8-18.5-.6-27.5.4-1.2.1-2.4-.3-3.2-1.1-6-6.3-10-13.4-14.1-20.8-7.8-14.4-14.2-29.2-20.4-44.2-3.1-7.5-6.1-15-8.9-22.6l7.4,1.5c-.2.2-.6.7-.8,1l-.9,1.1c-26.4,36.5-16.5,73.8,16.6,101.6,1,.8,1.9,1.8,2.4,2.9,4.4,9.6-8,40.8-12.1,51.2-16.3,39-37.3,78.9-70.7,106-23.5,18.9-50.1,32.7-78.1,43.2s-8,2.8-12.1,4.1l-2.3-6.7h0Z"/>
          </g>
          <g>
            <path class="cls-15" d="M664.7,159.9s12.1-16.9,39.2-15.9c38.5,1.5,43.9,61.9,43.9,61.9,0,0,6.7,49.6,22.2,97.3s8,87.3-33.5,90.7c-41.5,3.4-104.8,14.9-92-151.6"/>
            <path class="cls-13" d="M661.9,157.8c11-16,33.4-22.6,51.9-18.2,19.5,5.5,30,25,35.3,43,2.2,7.5,3.7,15,4.5,22.8.5,4,1.1,8.1,1.7,12.1,4.4,28.3,10.4,56.6,18.7,84.1,8.3,27,14.3,64.9-9.4,86.1-8.5,7.3-19.5,10.4-30.5,11l-4.3.4c-24.4,2.4-50.7,1.3-67.9-19.4-27.5-33.3-24.1-96.6-20.9-137.7.5-4.6,7.2-4.1,7.1.5-1.5,23-2,46.1,0,68.8,2.7,25.8,8.6,58.6,32.6,72.7,14.6,8.3,31.5,7.4,48.2,5.9,4.8-.4,11.9-.8,16.4-2,17-3.8,26.3-17.4,27.8-34.2,2.2-19.5-3.7-39.4-10.1-57.9-8.8-27.8-15.5-56.4-20.3-85.2-.5-2.8-.8-5.7-1.2-8.6-3.3-18.7-11.1-44.9-31-51.2-14.3-3.8-31.5.3-42.3,10.4-.4.4-.8.7-1.2,1.1-3.1,2.5-7.3-1.4-5.1-4.6h0Z"/>
          </g>
          <g>
            <path class="cls-19" d="M761.7,275c-3.8-1.1-28.2-8-56.9-4-42.2,5.9-61.5,36.1-61.5,36.1,0,0-7.1,106.7,92.7,91.4,41.1-6.3,49.6-47.6,34.1-95.3-3.1-9.4-5.8-19-8.3-28.2h0Z"/>
            <path class="cls-13" d="M759.1,277.4c0,.4.4.6.6.7-.5-.1-2.3-.6-2.9-.7-18-4.1-36.9-4.8-55.2-1.6-20.4,3.8-39.5,14.7-52.5,30.9-.7.9-1.5,2-2.1,2.9l.7-2.1c-.5,12,1,24.1,4,35.7,7.9,32.8,27.7,51.8,62.2,52.6,6,.1,12-.4,18-1.3,5.9-.8,11.4-2.2,16.6-4.7,22.2-10.5,25.1-37.7,21.8-59.5-2.3-16.8-8.7-32.8-11.3-49.6-.2-1-.3-2-.5-2.9.2,0,.3,0,.6-.3h0ZM764.2,272.5c1.2,1.6,1.8,4.1,2.6,5.9,1.7,4.3,3.3,8.8,4.9,13.1,4.5,11.9,8.8,24.3,10.3,37,4,26.8-2,58.4-29.5,70.2-6.2,2.8-12.9,4.1-19.6,4.8-6.4.7-12.9,1-19.5.6-24.3-1-45-11.5-58.6-32-12-17.7-16.3-39.3-16.4-60.4,0-1.7,0-3.2,0-5,0-1.6,1.3-2.9,2.1-4,6.5-8.6,14.7-15.8,23.7-21.6,24-15.6,54.1-18,81.8-13.4,4.1.7,8.2,1.5,12.3,2.6,1.8.6,4.1.9,5.6,2.1h.2Z"/>
          </g>
          <g>
            <path class="cls-19" d="M676.4,337s-33.4,36.2-40.5,13.1c-6.4-20.8,18.7-31.1,18.7-31.1"/>
            <path class="cls-13" d="M679.1,339.4c-2.6,8.9-14.2,16.4-22.2,20-10.3,4.6-20.6,4-24.4-8.3-.8-2-1.7-4.2-2-6.5-.9-13.9,10.9-24.6,22.9-29l2.7,6.6c-6.9,3.9-14.2,9.7-16.1,17.6-.4,1.4-.4,2.9-.4,4.4-.3,2.7-.2,6.4,1.9,8.3,5.2,4.8,18.4-8.7,22.8-12.2,2.8-2.5,5.8-4.7,9.6-5.8l5.2,4.8h0Z"/>
          </g>
          <g>
            <path class="cls-6" d="M650.9,139.3c33.6-44,78.5-24.3,78.5-24.3,0,0-14.4,5.5-13.4,15.3.5,5.1,54.9-14.1,57.2,28.1,0,1.5-43.3-1.6-32.7,7,12.3,10,11.7,33.7,2.8,38.3-1.1.5-34.7-21.7-34.9-20.2-3.5,27.4-51.5,21.8-49.9,19.2,22.6-36.6,5.7-39.3,5.8-42.2l-13.4-21.1h0Z"/>
            <path class="cls-13" d="M647.4,139.1c.5-1.5,1.3-3.1,2.2-4.5,1.6-2.5,3.3-4.8,5.2-7,12.8-15.6,33.1-24,53.2-22.9,7.5.4,15,1.8,22,4.4.4,0,1.2.5,1.6.7,2.9,1.2,4.3,4.5,3.1,7.4-.8,1.9-2.3,2.8-4.2,3.4-2.2.9-4.4,2.2-6.2,3.7-1.7,1.5-3.2,3.1-3.1,5.4,0,0,0,.1,0,0,0-.4,0-.7-.3-1.1-.2-.7-.7-1.3-1.2-1.7-.8-.7-1.2-.7-1.4-.8h-.2,1.1c18.8-1,44.2-3.3,54.3,16.9,2.4,4.9,3.3,9.9,3.6,15.2,0,2-1.2,3.8-3.5,4.3-2.1.4-4.4.3-6.5.3-8,.2-16.5-.4-24.2,1.4-.6.1-1.2.5-1.1.5.5-.3.9-1.5.7-2.1,0-.3,0-.4-.2-.4,0-.1,0,0,.2.2,0,0,.2.1.3.2l.5.4c9.6,8.2,12.9,22.5,9.7,34.5-1.1,4-3.6,8.3-7.5,10.3-.3.1.7-.2-1.2.5-1.1.2-1.4,0-1.7,0-1.3-.2-2.2-.7-3.2-1.2-.7-.4-2.7-1.6-3.5-2-9.7-5.7-18.8-12-28.5-17.3,1.8.5,4,0,5.2-2.6.6-2.2.2-.6.3-1-3.3,23.5-32.6,27.4-51.7,24.3-1.6-.4-3.6-.7-5.2-1.9-1.5-1-2.4-3.6-1.5-5.4.4-.9.3-.5.5-1,2.7-4.3,5.3-8.8,7.3-13.4,2.5-6,6.1-14.4,2.1-20-.9-1.3-2.3-2.1-3.3-3.7-.3-.5-.8-1.4-.8-2.7l.6,2.2c-4.8-7.7-9.4-15.6-13.7-23.3h0l.2-.2ZM654.5,139.4c4.6,6.4,8.9,12.5,13,18.9l.6,2.2c0-.9-.3-1.4-.4-1.5,14,11.4,2.3,32.3-5,45l-.3.6-.2.3c-.2.3,0,0,.2-.5.6-1.2.2-3.3-.6-4.1,0-.1-.2-.2-.3-.3-.2-.1-.5-.4-.6-.4h0c13.2,2.9,40.6.7,42.9-16.1v-.5c.2-.5-.2,1.1.4-1.2,1.2-2.5,3.3-3.1,5.2-2.8,1.2.2,1.9.6,2.7,1,3.9,2,7.6,4.4,11.3,6.6,7.1,4.3,14,8.8,21.2,12.7h0c0,0-.2,0-.6-.1-.2,0-.5-.1-1.5,0-1.8.6-.8.3-1,.4,2.7-1.8,3.5-5.3,4-8.9.9-7.1-.7-15.1-5.4-20.6-1.3-1.6-2.8-2.3-4-4.3-1.5-2.2-.7-5.6,1.5-7,2.7-1.9,6.1-2.3,9.1-2.7,8.7-1.1,16.9-.7,25.3-1.2,0,0,.3,0,.2,0l-.6.2c-.2.1-.3.1-.7.5s-1,.9-1.2,2.1c0,1.9,0,.5,0,.9-.3-4.1-1.2-8.4-3.1-11.9-7.9-14.3-27.3-12-41.4-10.6-2.2.2-4.6.5-7.1.4-2-.2-3-.2-5-1.8-1.7-1.4-2.2-3.8-2-6,.3-8.9,8-14.8,15.2-18.3.5-.2.8-.4,1.5-.7l-.3,10.5c-25.8-9-50.3-.8-69.5,17.6-.7.6-1.4,1.4-2.1,2-.4-.1-.5-.2-1-.3h-.3Z"/>
          </g>
          <path d="M683.6,228.1c1.2-1.2,2.7-1.8,4.3-2,2.6-1.4,5.8-1.5,8.7.3,8.9,4.8,8.2,11.9-.8,14.5-4.9,1.2-10.2,3.2-13.2-1.2-2.3-3.8-2-8.9,1-11.6h0Z"/>
          <path d="M731.4,226.4c-1.5-.7-3-1-4.5-.8-2.8-.6-5.6,0-7.6,2.5-6.3,6.6-3.3,13,5.5,13.1,4.7-.1,10.1.4,11.3-4.5.8-4-1.1-8.6-4.7-10.3h0Z"/>
        </g>
        <g id="Layer_5">
          <g>
            <path class="cls-11" d="M221.6,148.8s12.2-3.9,26-2.3c27.7,3.2,39,23.4,34.9,35.2s-14.7,14.3-14.7,14.3c0,0,2.9-10.8-5.3-12.5s-17.4,27.6,7.1,24.7c8.5-1,16.6-7.3,16.6-7.3,0,0,19.1,19.2-7,43.8,0,0,7.6,10.4,16.1-1.1,0,0,28.2,8.4,5.7,38.2-14.7,19.4,19.7,1.4,20.3,23.9s-7.4,17.8-7.4,17.8c0,0-1-4.8,14.8,14.4,15.8,19.1,30.7-7,35.5,19.1s55.5,16.9,55.5,16.9l-2.4,18.5-146.9,38.2-76.6-258.5,27.7-23.5h0v.2Z"/>
            <path class="cls-13" d="M219.9,145.7c.7-.4,1.6-.5,2.4-.8,17-4.4,36.6-3.4,51.2,7.5,8.7,6.5,15.7,17.5,13.2,29-1,3.7-2.8,7.2-5.2,10.2-2.9,3.5-6.6,6.1-10.8,7.8-.7.3-1.2.4-2.1.7-2.2.5-4.3-.8-4.9-2.9-.3-1,0-1.8.2-2.9.3-1.6.3-4-.4-5.3-.4-1-2.3-1.6-2-1.2-4.1,3.4-5.9,13.5.2,15.8,7.1,2.4,15.8-1.5,21.6-5.9,1.7-1.4,4.2-1.2,5.7.4,6.6,7.1,9.5,17.6,7.3,27.1-2,9.1-7.8,16.8-14.3,23l.5-5.8c1,1.2,2.9,2.7,4.3,2.4,1.9-.2,3.7-2.4,4.9-3.9,1.4-1.8,3.9-1.8,5.7-.9,2.2.8,4.3,1.9,6.3,3.3,15,10.2,11.4,26.9,2,39.6-1.2,1.7-3.3,4.3-4,6.2-.1.4,0,.2,0-.1s-.3-.9-.5-1.1c-.3-.4-.5-.3-.3-.3,2.7.8,6.1.7,9.3,1.3,10.2,1.5,15.9,8.1,15.5,18.7,0,5.6,0,11.7-3,16.8-2.2,3.9-7.3,5.8-11.3,3.4-3.1-1.6-2.9-6.3-.2-8.2,3.2-2.2,6.4,0,8.7,2.1,4.7,4.3,8.6,9.3,12.7,14.1,6.5,7.6,11.8,5.3,20.8,4.6,8.8-.5,13,6.4,14.4,14.1.4,2.1.9,4.8,2,6.6,7.3,12,28.9,11.5,41.4,10.5,2.6-.2,5.3-.6,7.8-1,2-.4,4,1,4.3,3v1.1l-2.3,18.5c-.2,1.6-1.3,2.8-2.8,3.2-36.6,9.6-110.1,29.5-146.7,39.3-2.6.7-5.2-.8-6-3.4-25.2-83.2-54.1-174.6-76.7-258.4-.6-1.9,0-4,1.6-5.2,4.9-3.9,9.7-7.8,14.6-11.6,4.9-3.8,9.8-7.5,14.6-11.2h0l.3-.2ZM223.3,151.9c-8.5,8.1-17.5,16.4-26.2,24.2l1.6-5.2c26.6,82.5,52.4,175,76.6,258.5l-6-3.4c36.7-9.2,110.5-27.7,147.2-37.2l-2.8,3.2,2.5-18.5,4.3,4.1c-5.7.9-11.2,1.4-16.9,1.6-14.1.1-32.3-.8-40.7-14.2-1.6-2.6-2.5-5.9-3.1-8.8-.5-2.1-1.1-4.2-2.4-5.9-1.1-1.3-1.7-1.3-3.6-1.3-10.4,1.5-17.9,2.6-26.4-5.6-1.8-1.7-4-4.5-5.7-6.5-2.9-3.3-5.8-7-9.1-9.6,2.7,1.3,6.2-1.3,5.7-4.4v-.3l-2.2-3s-.2-.1-.3-.2h-.6c-.1,0-.2,0-.3.1h-.1c.9-1.5,1.3-3.4,1.5-5.8.3-3,.4-6.2.2-9.3-1.1-9.2-12.3-6.1-18.9-8.8-4.1-1.5-5.9-5.8-4.3-9.9,1.1-3.1,3.3-5.8,5.2-8.4,8.3-11.3,10.7-23.8-4.6-29.5l4.8-1.6c-5.8,8-14.9,9.9-22.1,2.4-2.2-1.9-3-5-.6-7.2,2.8-2.7,5.4-5.5,7.4-8.6,6.2-8.8,6.8-20.2-.2-28.6l-.3-.4,5.7.4c-8.6,6.2-19.2,10.7-30.1,7-12.6-4.8-11.3-23.9-1.3-30.7,4-2.6,9.8-.8,12.5,3,3,4.1,2.9,9,1.8,13.5l-4.8-5c5-1.5,9.2-5.4,11.2-10.1,3.9-8.5-2.3-18.2-9.3-23.4-12.4-9.4-30-10.3-44.8-6.7l-.7.2h-.4c0,.1-.2.1-.2.1h0c.2,0,.4-.1.5-.2h.3Z"/>
          </g>
          <g>
            <path class="cls-17" d="M229.3,465c-17.8-102.2-55.5-171.8-55.5-171.8,0,0-34.4-79.8-46.2-114.7s47.1-14.6,57.4-20.4c12.8-7.2,17.7-55.3,17.7-55.3,0,0,15.7,14.4,22.7,33.8,7,19.5-13.2,33.2-13.2,33.2,0,0,22,30.7,38.8,79.4,16.8,48.8,29.3,62.2,55.4,102,26.2,39.8,112.5,39.4,112.5,39.4,0,0,95.2,34,42,66.2"/>
            <path class="cls-13" d="M225.9,465.6c-10.3-43.7-22.4-87.1-38.9-128.9-5.5-13.8-11.4-27.6-18.1-40.7-4.4-10-8.4-20.1-12.6-30.2-10.1-24.9-20.3-49.8-29.4-75.1-1.2-3.1-2.2-6.4-3.3-9.6-1.9-5.4-3.1-11.4-.9-17,7-16.4,35.9-9.9,49.9-9.2,3.5.1,7.4.7,10.5-.2,2.4-1.5,3.8-3.9,5.2-6.8,6.4-14,8.8-30.2,10.8-45.4.2-3,4.1-4.6,6.3-2.4,5,4.8,9.4,10.1,13.3,15.8,4.8,7.1,9.3,15,11.5,23.6,2.5,11.3-3.1,22.7-11.2,30.3-1.4,1.3-2.7,2.5-4.3,3.6l1-5.9c16,22.8,27.9,48.1,37.5,74.2,1.1,3.2,4.1,11.4,5.2,14.5,7.4,20.7,16.9,40.3,29.2,58.7,7.4,11.4,15.2,22.7,22.7,34.2,3.4,5.2,8,9.7,13.2,13.5,16.2,11.5,35.9,16.9,55.5,20.5,13.2,2.3,26.8,3.6,40.1,3.8.5,0,1,0,1.4.2,18.8,7.3,44.8,19.2,56.3,36.2,10.1,15.5.2,28.7-13.8,36.8l-3.7-6.1c17.5-10.7,19.3-22,3.2-35.5-12.9-10.6-29-18-44.7-23.9l1.4.2c-14,0-27.8-1.3-41.6-3.6-20.6-3.6-41.8-9.3-59.2-21.6-5.9-4.2-11.3-9.4-15.4-15.7-7.5-11.4-15.3-22.6-22.8-34.1-12.5-18.6-22.6-39.3-30.2-60.4-1.1-3.1-4.1-11.3-5.2-14.5-9.4-25.3-21.2-49.9-35.8-72.6-1.3-1.9-.8-4.5,1.1-5.7,1.1-.7,2.3-1.8,3.4-2.7,7.7-6.9,12.6-16.9,8.3-27-4.5-11.7-12.3-22.4-21.3-31.1l6.3-2.4c-1.2,10.9-2.9,21.6-5.6,32.3-2.5,8.6-5.6,21.1-13.9,26.3-4.9,2.4-10.3,1.6-15.2,1.5-10.4-.6-21-2.2-31.2-.8-6.4,1-11.2,3.2-9.6,10.5.3,1.6.9,3.5,1.5,5,2.9,8.1,6,16.2,9.2,24.2,11.9,29.8,24.6,59.3,37.4,88.7l-.2-.5c1.9,3.5,3.6,6.9,5.2,10.4,16.4,34.4,29.3,70.5,38.4,107.5,4.5,18.5,8,37.2,10.2,56.1l-7,1.2h0v-.2Z"/>
          </g>
          <g>
            <path class="cls-17" d="M203.3,220.4s28.3,53-10.6,62.4c-39.1,9.5-28.8,28.7-35.4,48-12.3,36.2-131.1-60.4-106.9-64.9,55.8-10.5,61.1-50.2,65.9-88,4.8-37.9,62.8-17.8,62.8-17.8"/>
            <path class="cls-13" d="M206.4,218.7c15.2,23.6,22.3,62.1-13.2,70.1-8.2,2.2-17.5,5.1-22.6,11.8-5.3,7.3-4.4,17.4-6.8,26.6-1.1,4.6-2.6,9.6-6.6,12.8-16.3,12.9-49.6-9.6-63.8-19.1-16.7-12-32.8-24.8-45.6-41-2.2-3.2-4.6-6.5-4.7-10.7,0-4.6,3.9-7.1,7-7.5,9.3-2.1,18.5-5.2,26.7-9.8,27.1-15,31.7-46.5,35.2-74.7,1-8.6,5.9-17.2,13.6-21.4,12.1-6.7,26.5-5.4,39.5-3,5.1,1,10,2.3,15,4,4.3,1.7,2.2,8-2.2,6.7-9.1-2.8-19-4.6-28.5-4.8-13.8-.2-27.4,4-29,19.6-1.8,15.2-3.6,30.4-9.1,45.1-7.4,20.8-23.6,36.2-44.5,42.9-5.2,1.7-10.5,2.9-15.9,3.8h-.2s0,0,.3-.4c.2-.3,0-.5,0-.4.2,2.1,1.6,4.4,2.9,6.2,5.4,7.8,12.9,14.6,20.2,20.9,17.8,14.7,40.3,30.6,62.7,36.6,4.8,1,11.9,2.4,14.7-2.4,2.6-6.4,2.5-12.8,3.6-20.2,1-8.8,5-17.7,12.3-23.1,6.6-5.2,14.9-8,22.7-10,8.1-1.8,14.5-6.1,16.4-14.7,2.4-11.2-.9-22.9-4.2-33.7-.7-2.3-1.6-4.7-2.4-7-1.4-4,4-6.6,6.3-3.2h.1Z"/>
          </g>
          <g>
            <path class="cls-12" d="M86.6,262.8c-37.7-8.3-91.7,20.8-79.3,68.2,12.4,47.5,39.5,72.3,100.5,53,61-19.2,81.4-98.7-21.1-121.3h0Z"/>
            <path class="cls-13" d="M85.8,266.3c-12.8-2.7-26.2.7-38,5.8-11.6,4.8-22.6,12-29.6,22.6-10.5,15.8-8,31.2-2.1,48.2,9.1,27.4,26.5,45,56.6,44.1,11.2-.2,22.2-3.1,32.8-6.7,18.1-6.1,34.5-17.3,43.5-34.5,3.5-7.1,5.7-15,5.3-22.9,0-.9,0-2.3-.2-3.1l-.5-3.1c-.3-1.5-.8-3.1-1.1-4.6-9.5-27.7-40.2-39.7-66.7-45.6h0v-.2ZM87.3,259.4c30.4,7,66.3,22,74.1,55.5,4.5,21.6-5.5,42.4-21.5,56.4-6.5,5.5-13.8,10.3-21.6,13.6-14.4,5.9-29.8,8.5-45.4,9.3-33.5,1.4-54.8-17.8-66.2-48.1-7.9-20.2-10.6-38.6,1.7-57.9,8.2-12.8,21.1-22.1,35.3-27.1,14-4.7,29.3-4.8,43.6-1.8h0Z"/>
          </g>
          <path class="cls-7" d="M113.8,297.4c-9.4-1.6-20-2.3-26.9,4.9-3.9,4.2-7.6,11.3-8.5,16.8,0,.3,0,.4-.2.4s-.5-.2-.5-.2c3.3,2.1,15.6-3.6,19.9-5-3.1,5-7.1,9.4-12.3,12.4-9.4,5.7-19,.8-17.9-10.6,1.4-10.6,7.8-21.6,18-26,9.9-4.1,21.7-.6,28.5,7.1h0v.2Z"/>
          <g>
            <path class="cls-11" d="M196.2,135.8s-9.6,43.9-64.4,46.2c-78.8,3.4-68.3-66-49.5-83.7,47.3-44.3,86.8,0,86.8,0,0,0-9-4.6-16.8-2.5-9.7,2.7-21.4,15.9-11.7,31.4,6.1,9.7,37.8,23.8,55.6,8.8h0Z"/>
            <path class="cls-13" d="M197.7,132.4l.3.4c3.1,3.8,1,4.5,1.6,3.9,0,.8-.3,1.9-.4,2.7-3.9,20.3-20.4,36.5-39.5,43.2-18.4,6.6-42.7,6.7-61.2.5-13.5-4.4-25.6-14.8-30.4-28.4-5.9-16.6-3.4-35.3,5.1-50.5,1.8-3,3.9-6,6.6-8.6,4.9-4.6,10.1-9,16-12.6,24.8-15.8,54.1-9.4,74.7,10.2.7.6,1.3,1.3,2,2,3.5,4.2-1.4,9.5-6,6.7-3.4-1.5-7.6-2.6-11.1-2.2-7.1.7-14.2,8.5-14,15.9,0,3.3,1.3,6.8,3.1,9.6,2.8,3.7,7.4,6.2,11.6,8.3,11.2,5.1,25.7,7.7,36.4.4l.3-.2h.2c1.2-1.1,3.2-1.6,4.8-1.2h-.1ZM195.2,139.9c.8.3,1.9.2,2.5-.3h0l-.2.2c-12.9,9.8-31,7.5-44.9,1.2-7.5-3.5-15.1-8.4-18.1-16.7-5.5-13,2.3-27.9,15.3-32.5,7.1-2.4,14.8-.7,21.3,2.4l-5.4,7c-8.4-8.5-19.4-14.9-31.1-17.2-11.8-2.3-24.1.5-34.6,6.2-5.4,2.9-10.5,6.6-15.1,10.8-2,1.8-3.8,4.3-5.3,6.8-9.8,17.9-10.1,43.9,6.5,57.8,14.2,11.6,34.4,12.3,52,10.3,24.9-3.1,43.5-17.5,54.2-40,.1-.2.3-.7.4-.9.7-.7-1.5,0,1.6,3.8l.9,1h0Z"/>
          </g>
          <path class="cls-7" d="M44,277.7c13,5.6,14.2,29.3,6.7,39.8-5.6,7.8-15.2,6.1-19.8-1.8-1.5-2.5-2.5-5.2-2.9-8.1,2.5,1.4,4.8,2.8,6.9,3.8,1.7.8,3.9,1.7,5.4,1.4.4-.1.5-.3.4-.5,1.7-3.9,2.5-8.7,3.2-13.1,1-7.2,2-14.1,0-21.5h0Z"/>
          <path d="M170.4,204.5c-1.2-1.1-2.7-1.6-4.2-1.8-2.5-1.2-5.6-1.2-8.2.9-8,5.3-6.9,12.4,1.8,14.5,4.7.9,9.8,2.6,12.4-2,1.9-3.9,1.3-9-1.8-11.5h0Z"/>
          <path d="M122.2,207.2c1-1.2,2.2-1.9,3.6-2.3,2.1-1.5,5-2,7.7-.5,8.3,3.6,8.3,10.2.7,13.5-4.2,1.6-8.6,4-11.7.1-2.4-3.3-2.6-8-.2-10.8h-.1Z"/>
        </g>
        <g id="Laag_7">
          <g>
            <path class="cls-15" d="M487.1,114.2s10.3-54.4,1.2-57.7c-9.1-3.3-42,52.1-42,52.1,0,0,8.5,13.6,40.9,5.6h-.1Z"/>
            <path d="M484.5,111.8c-.3.4-.6.8-.8,1.3-.2.7,0,.3-.1.4v-.4c1.4-10.2,2.8-20.5,3.5-30.8.3-5.2.6-10.4.3-15.3-.1-2-.4-4.6-1.1-6.2-.1-.3-.3-.5-.2-.4,0,0,.5.4,1.1.5q.5,0,.3,0c-2.2,1.1-4.2,3.3-6.2,5-1.8,1.7-3.7,3.5-5.4,5.4-6.8,8-12.1,17.2-17.3,26.2-2.6,4.6-5.2,9.2-7.6,13.8v-5.7s-.1,0-.1,0h0c.4.4,1.1.9,1.6,1.3,4.1,2.5,8.6,3.5,13.5,3.7,4.5.2,9.1,0,13.6,0s2.6.5,4.9,1.2h0ZM489.7,116.6c-12.8,8.8-38,8.6-47.8-4.8-1.4-1.8-1.6-4.3-.3-6.1,6-9,12.3-17.6,18.7-26.2,3.2-4.4,6.6-8.5,9.7-12.9,3.3-4.7,6.5-9.5,11.5-12.8,3.3-2.4,8.2-3.1,11.2.4,5.4,6.2,3.6,21.2,3,28.8-1.1,10.5-2.8,21-5.1,31.3v.2h0c0,.3,0,0-.1.6-.2.5-.5,1-.8,1.4h0Z"/>
          </g>
          <g>
            <path class="cls-15" d="M356.7,105s-6.4-50.4.7-52.1,30.6,52.6,30.6,52.6c0,0-6.9,11.1-31.2-.5h-.1Z"/>
            <path d="M353.8,107.1c-.3-.3-.7-1.5-.7-1.7v-.4c-1.5-9.4-2.7-18.9-3.2-28.4-.3-6.1-.6-12.5.3-18.8.5-3.2,1.6-7.7,5.5-9.1,8.5-2.6,13.4,10.8,16.5,16.4l7.2,12.7c4.7,8.5,9.5,16.9,13.8,25.6,1,1.9.6,4-.6,5.6-4.4,6.4-13.6,8.2-20.6,7.1-6.6-.9-13.5-4.2-18-8.9h-.2ZM359.6,103c2.2-.3,2.9-.7,4.7-.3,3.5.6,7.1,1.4,10.7,1.7,2.8,0,5.9,0,8.1-1.9h.1s0,0-.1.2l-.4,5.2c-3.4-8.8-6.8-17.8-10.6-26.4-1.9-4.3-4-8.6-6.3-12.7-2.2-3.7-5.5-7.5-8.2-10.5-.3-.3-.6-.6-.8-.8-.2-.2-.4,0,.3,0,.5,0,1.2,0,1.7,0,.4-.2.8-.4,1-.6.3-.3.1-.2,0,0-1.7,6.2-1.2,12.9-1.2,19.5.3,9.4.9,18.9,1.6,28.3h0s0,.3,0-.3c-.1-.4-.3-.9-.6-1.2h0Z"/>
          </g>
          <g>
            <path class="cls-14" d="M318.4,82.2s12.8,11.9,45,13.3l132.1,6.9c29.6-1.9,48.2-17.8,48.2-17.8,0,0,8.5,38.5-20.1,49.5-14,5.4-34.2-2.6-34.2-2.6-4.1,33.6,31,240.4,53.3,296.8,34.6,77.1,17.1,45.2,17.1,45.2-1.8,31.1-294.8,40.5-264.8,15.2,21.3-18,43.7-101.3,62.2-178.8l-47.3-49.7c56-51.5,50.4-120.9,48.1-134.9,0,0-11,5.6-23.9-1.9-26.1-15.2-15.7-41-15.7-41h0v-.2Z"/>
            <path d="M317.6,78.7c1-.2,2.4,0,3.3.9h0l.2.2c17.6,11.3,42.1,10.1,62.3,11.2,33.5,1.3,80.7,3.8,111.7,5.4,15.8-1.1,31.5-6.5,44.2-16,3.3-3.3,9.1-1.9,10.1,2.9.3,1,.4,2.4.6,3.3,1.5,11.7.9,23.9-4.4,34.8-6,12.7-19.8,20.8-33.6,20.3-8.7-.1-16.8-2-24.8-5l7.8-4.6c-.3,3.1-.3,6.9-.2,10.6.4,11.3,1.5,22.5,2.8,33.8,7.1,60.4,17.6,120.6,30.4,180.1,5.5,23.9,10.7,48,19.3,70.9,1.9,4.3,4.9,11.6,6.7,15.8,4.6,11.2,9.6,22.1,13.4,33.7.2.5.3,1,.5,1.9v1.4c0,.2,0,.4,0,.8s-.2.9-.9,1.7c-.7.8-2.3,1.4-3.2,1.3-.9,0-1.3-.3-1.6-.4-.3-.2-.5-.3-.6-.4-.3-.2-.4-.3-.5-.5-.2-.2-.4-.4-.5-.6-1.7-2.2-2.8-4.5-4.1-6.7l7.1-1.6c-.5,6.7-7.4,10.3-12.7,12.7-14,5.9-28.9,8.4-43.6,11-19.5,3.2-39.1,5.4-58.7,7-44.3,3.4-88.8,5.5-133.1.7-8.4-1.2-33-3.8-25.8-17.2.9-1.4,2.1-2.4,3.3-3.4,2.8-2.7,5-5.8,7.1-9.2,9.8-16.3,16.2-35,22.2-53.2,12-37.2,21.6-75.2,30.9-113.2l1,3.9-47.2-49.8c-1.6-1.6-1.5-4.2.2-5.8,31.7-28.5,48.7-71,48.4-113.4,0-6-.3-12.1-1.2-17.9l5.5,2.8c-16.3,7.4-35.5-3.1-43.2-18-4.4-8.7-4.7-19.1-1.8-28.2l.2-.6c0-.3.2-.6.3-.9.4-.9,1.5-1.8,2.4-1.9h0v-.6ZM319.2,85.7c1,0,2.3-1.3,2.5-2.1h0v.3l-.2.5c-3.2,10-1.3,21.7,6.2,29.3,6.4,6.6,15.9,11.5,25.2,9.2,1.2-.3,2.5-.7,3.6-1.2,2.2-1,4.9.4,5.3,2.9,5,37.8-3.6,77.4-24.4,109.5-7,10.7-15.3,20.4-24.7,29l.2-5.8,47.4,49.7c1,1.1,1.3,2.5,1,3.8-4.5,19.1-9.2,38.2-14.2,57.3-8.7,31.7-26.2,101.3-48,123l-1.4,1.3c-.3.2-.4.5-.5.5,0,0,.1-.1.2-.7,0-.5-.2-1-.3-1.1,1.3,1,3.8,1.9,5.7,2.4,9,2.3,18.8,3.2,28.2,3.9,19.4,1.3,38.9,1.4,58.4,1.1,29.3-.5,58.6-1.8,87.7-4.8,19.3-2,38.7-4.6,57.4-9.5,5.4-1.6,19.9-5.6,21.5-10.9.2-3.8,5.2-4.9,7-1.7,1.1,1.9,2.2,3.9,3.5,5.5-2.1-2-5.9-.5-6.1,2.4v.5c0-.1,0-.5-.3-.9l-.4-1.2c-6-15.6-13.7-31.6-20.8-46.8-3.8-9-6.5-18.5-9.3-27.8-16.2-59.2-27.1-119.5-36.8-180-4-26.6-8.1-53.3-9.3-80.2-.1-4-.2-7.9.3-12.3.3-3.1,3.1-5.4,6.2-5.1,2.2.4,4.3,1.5,6.6,2,11.1,3.1,24.2,4.5,33-4,9.8-9,10.6-25.2,8.4-37.9l9.7,3.2-.8.7-.7.6-1.5,1.1c-14.4,10.1-31.8,16-49.3,17-26.5-1.1-63.7-3.6-89.8-5-10.3-.6-29.2-1.8-39.3-2.4-17-1-35.9-4.5-49.4-15.6l-.3-.3h0c-.2-.2,0,0,.2,0,.7.5,1.9.7,2.6.4h-.2Z"/>
          </g>
          <path class="cls-13" d="M340.2,382.1c-8.7,32.3-17.9,62.1-27.1,83.7,5.3,3,11.4,4.7,17.7,4.7,22.2,0,40.2-19.9,40.3-44.7,0-21.3-13.2-39.1-30.9-43.8h0Z"/>
          <g>
            <path class="cls-19" d="M341.9,109.1c1.9,8.8,9.3,14.8,22.1,15-4.9,3.1-7.5,8.3-6.4,13.7,1.7,7.6,10.3,12.7,19.2,11.3,5.5-.8,9.8-3.9,12-7.8,0,1.1,0,2.1.2,3.2,1.9,8.8,13.3,14.5,25.4,12.6,7.5-1.1,13.5-4.9,16.5-9.7h1.2c3.8,4.4,9.6,7.4,16.5,8,12.7,1.1,24-6.8,25.3-17.6.5-4-.5-7.8-2.6-11.1,9.4-4.5,14.9-12.1,13.3-19.8-1.4-6.5-7.6-11.5-15.9-13.7,0-.4.1-.8.2-1.2,1.3-11.3-8.5-21.4-21.9-22.5-13.1-1.1-24.7,6.8-26.4,17.7,0-.4,0-.9-.2-1.3-1.6-7.6-10.2-12.6-19.2-11.3-8.8,1.3-14.7,8.4-13.3,15.8-6.2-4.1-15.4-6-25.1-4.5-15.7,2.4-23.2,12.8-21,23.2h0Z"/>
            <path d="M345,108.4c1.2,6.1,6.7,10,12.7,10.6,2,.3,4.2.3,6.3,0,2.6-.2,4.9,1.8,5,4.5.1,2-1,3.5-2.5,4.5-1.3,1-2.3,2.2-2.9,3.5-2.1,3.9-.1,8.3,3.6,10.4,5.1,3.3,14,2,17-3.3,1.4-2.6,4.7-3.6,7.3-2.1,1.8,1,2.8,3,2.7,5-.2,2.5,1.1,5.1,3.7,7.1,8.2,6.3,23.3,4.9,29.4-3.6,1-1.7,3-2.2,4.8-2.1,1.4-.1,2.7.5,3.6,1.5,5.6,6.8,16.5,8.7,24.6,5.2,8.5-3.4,13.4-13.1,8.2-21.2-1.1-1.7-.4-4.1,1.5-4.9,5.8-2.6,12.1-8,11.6-14.6-.7-6.6-7.7-10.4-13.8-11.9-2.1-.5-3.4-2.6-2.9-4.6,1.6-10-7.9-18.1-17.5-18.9-9.5-1.3-21.1,4.2-22.8,14.1-.7,4.6-7.3,4.3-7.7-.2-.5-6.2-7.9-10.1-13.9-9.5-6.2.2-12.7,5.3-11.6,11.8.6,2.9-2.8,5.1-5.2,3.4-10.5-6.9-29.8-6.4-38.2,3.5-2.7,3.3-3.8,7.6-2.9,11.7h-.1ZM338.7,109.8c-4.5-26.6,33.3-33.9,51.1-22.2l-5.2,3.4c-.5-2.5-.3-5.3.5-7.7,4.3-12.3,20.7-15.9,31.1-9.2,4.3,2.7,7.7,7.4,8.2,12.7l-7.7-.2c3.8-22.4,35.1-28,49.7-12.5,5,5.1,7.7,12.9,6.2,20l-2.9-4.6c23.3,6.9,24.9,30,3.1,40.6l1.5-5c5.5,8.2,3.8,19.9-3.3,26.6-11.3,11.2-31.4,10.9-42.2-1.1l3.6,1.5h-1.3l3.7-2c-8.9,13.7-30.2,16.3-43.2,7-4.9-3.5-8.5-9.7-8.1-16l10,2.9c-9.8,17.6-40.5,12.9-41.5-8.2-.2-6.6,4-12.7,9.5-15.7l2.5,9c-11.5-.6-23-7.1-25.2-19.2h-.1Z"/>
          </g>
          <path class="cls-13" d="M376.5,266.6c13.4-9.4,19.5-22.7-1.4-42.9-15.1-14.6-21.5-9.7-13.2-61.1-3.3,20.6,2.8-6.6-3.9-1.2-3.2,26-12.5,58.8-36.3,86.6,0,2.7.6,5.4,1.7,8.3,5.1,0,49.3,13,53.2,10.3h-.1Z"/>
          <path class="cls-13" d="M439.1,360.6c37.8,15.6,34.5-130.6,35.8-161.5,0,0-1.2-44.9-17.7-14.6-18,33.3,14.7,55.9,3.5,81-11.1,25.1-23.4,17.3-23.4,17.3,0,0-26,66.4,1.7,77.9h.1Z"/>
          <g>
            <path class="cls-18" d="M367.9,252.7c67.6,5.2,99.4,49,85.2,93.6-14.7,46.2-50.4,21.2-92.9,19.9-42.3-1.3-90.8,2.7-85.5-61.9,4.5-55.1,69.8-53.5,93.2-51.7h0Z"/>
            <path d="M368.2,249.2c15.9,1.3,32.6,2.9,47.6,9.5,15.3,6.9,28.9,18.1,37.3,32.9,8.6,14.8,10.7,32.9,6.8,49.4-2.8,11.1-7,22-16.1,29.8-9,7.8-22.1,8.4-33.2,6.9-15.5-2.1-30.8-6.6-46.2-7.5-21.3-.8-42.6,1.8-63.4-5.7-28-10-33.2-36.5-30-63.1,6-47.9,57.6-55.3,97.2-52.2h0ZM367.6,256.2c-39.4-3.4-89.3,4.2-89.2,53.6-1.5,48.9,31.5,50.1,70.6,52.1,4.6.2,11.3.5,15.8.8,15.7,1,31.1,5.1,46.6,6.8,9.3,1,19.3.6,26.3-5.8,6.8-6.2,10.1-16.1,12-25.1,3-14.1.6-29.1-6.8-41.4-7.3-12.5-19.3-21.8-32.3-28.1-13.4-6.8-28-11.9-43.1-13.1h0v.2Z"/>
          </g>
          <path d="M430.7,180c-1.3-1.2-2.9-1.8-4.6-2.1-2.7-1.4-6.2-1.6-9.3.3-9.5,4.7-8.8,11.8.7,14.6,5.2,1.3,10.8,3.4,14.1-1.1,2.5-3.8,2.3-8.9-1-11.6h0Z"/>
          <path d="M387.2,177.1c-7.2-.7-11.2,2.6-12.5,5.8-4.6,8.7.7,14.1,10.3,11.4,5.1-1.7,11-2.9,10.7-8.2-.5-4.3-4-8.4-8.5-8.9h0Z"/>
          <path class="cls-7" d="M389.4,285.1c12-5,29,12.7,25.5,27.7s-8.3,44.7-30.7,28.4c-14.7-10.6-9.7-49.8,5.2-56h0Z"/>
          <path class="cls-7" d="M335,335.9c-9.5,6.9-26.8-6-26.1-20.5.7-14.5.7-43.3,22-32.1,13.7,7.2,15.9,44,4.1,52.6h0Z"/>
          <path class="cls-13" d="M539.7,426.8c-13.3-33.5-31.3-127-41.7-198.5-14.6,14.7-12.3,53.8-8,69.8,3.4,12.6,18.8,27.8.7,52.7-14.7,20.2-34.8,21.4-34,41.4s34.1,16.4,34.1,16.4c0,0-4.7,15.4,18.8,29.8,12,7.3,23,.7,31.1-9.3-.3-.7-.7-1.4-1-2.2h0Z"/>
        </g>
        <g id="Layer_3">
          <g id="Board">
            <g id="Board-2">
              <path id="Board-3" class="cls-3" d="M837.9,419c10-.1,18.2,9.1,18.3,20.6l1.4,126c0,11.5-7.9,20.9-17.8,21l-797,9.1c-10,0-18.2-9.1-18.3-20.6l-1.4-126c-.1-11.5,7.9-20.9,17.8-21l797-9.1h0Z"/>
            </g>
            <g id="Screw_2">
              <path class="cls-5" d="M812.5,481.6c10,.5,17.7,9.1,17.3,19.3s-9,18.1-19,17.6-17.7-9.1-17.3-19.3c.5-10.2,9-18.1,19-17.6h0Z"/>
              <path class="cls-1" d="M796.3,509.5l25.1-24.7c.5-.5,3.1,2.2,3.1,2.2l.8.9s2.2,2.6,1.9,3l-24.9,24.8c-.7,0-2.8-2-2.8-2l-1.5-1.5s-2-2.4-1.8-2.8h.1Z"/>
            </g>
            <g id="Screw_1">
              <path class="cls-2" d="M76.8,493.8c10,.5,17.7,9.1,17.3,19.3-.4,10.2-9,18.1-19,17.6s-17.7-9.1-17.3-19.3,9-18.1,19-17.6h0Z"/>
              <path class="cls-1" d="M60.6,521.7l25.1-24.7c.5-.5,3.1,2.2,3.1,2.2l.8.9s2.2,2.6,1.9,3l-24.9,24.8c-.6,0-2.8-2-2.8-2l-1.5-1.5s-2-2.4-1.8-2.8h0Z"/>
            </g>
          </g>
          <g id="KOECHING">
            <path class="cls-9" d="M191.8,539c-7.8-14.1-9.4-23.2-9.4-23.1,0-1.2,1.8-2.2,2.6-2.8.7-.6,1.5-1.2,2.1-1.9,1.4-1.5,2.6-3.2,3.6-5,3-5.3,4.6-11.4,6.1-17.3,1.8-6.7,3.7-13.4,5.1-20.1.2-.8.5-1.7.2-2.5-.5-1.4-2.4-.9-3.5-.8-2.9.2-5.9.4-8.8.5s-6,.3-9,.2c-1.7,0-3.4,0-5.1.1-1.6,0-3.1.2-3.7,1.9-2.7,9.1-3.5,17.2-4.7,21.8-.9,2.9-1.8,6-3.3,8.6-.6,1-1.4,1.9-2,2.8-.4.6-.8,1.5-1.4,2s-1.6.4-2.4.4c-1.2,0-2.3.2-3.1-.8-1.7-2.1-1.2-5.7-1.3-8.2,0-7.5,0-15.1.4-22.6,0-1.3.1-2.6.1-4s.2-2.5-1.2-2.6c-2.2,0-4.6.4-6.9.6-2.9.3-5.7.6-8.6.7-3.3.2-6.6,0-9.9,0s-3.2-.4-4,.3-.4,2.8-.4,3.7c0,3.3,0,6.7-.2,10-.2,13.8,1.5,27.7,1.1,41.5-.2,7.4-.8,14.8-1,22.3-.2,6.9-1.1,13.8-1.1,20.7s.2,2.7,1.8,3.1c3.8.7,8,.5,11.8.5s10.2-.3,15.2-1c1.8-.2,3.6-.3,3.7-2.5.1-1.8,0-3.6,0-5.4-.1-5.5-.6-11-.5-16.5,0-2.6.3-5.2.3-7.9s-.2-4.2,2.1-5.3c.5.6.6,1.8.8,2.5.4,1.7.8,3.4,1.3,5.1,1.8,5.8,4.7,11,6.8,16.7,1,2.8,2,5.5,3.3,8.1.5,1,1,2.4,2,3,.9.5,2.2.6,3.2.8,4.9.6,9.9,0,14.8.4,2.5.2,5.1.4,7.6.6,1.2,0,3.3.6,4.5,0,4-1.8,1.4-7.5.2-10.3-2.6-6.4-5.9-12.5-9.3-18.6h0v.3ZM282.3,477.1c-6.3-7.5-14.2-14.2-24.1-15.9s-19.7,1.6-27.8,6.7c-18.4,11.5-25,33.5-23,54.2,1.9,19.2,13.3,39.8,33.2,44.8,9.1,2.2,19.2,1.2,27.5-3.2,8.5-4.5,15-12.4,19.1-21,4.6-9.8,5.8-20.4,5.4-31.1-.4-9.8-1.2-20-6-28.8-1.1-2-2.5-4-4-5.8h-.3ZM259.7,527.9c-1.3,1.3-2.7,2.5-4.3,3.3-1.4.7-2.9.9-4.5,1.1-3.3.4-5.9,0-8.2-2.5-2.1-2.4-4.1-4.9-5.2-7.9-1.2-3.3-1.2-6.8-.6-10.3,1-6.2,4.9-13.7,11.8-14.3,2.9-.2,6.4-.3,9,1.3,1.9,1.2,3,3.2,4.2,5.1,1.5,2.2,2,4.6,2.2,7.3.4,4.5.3,9.1-1.7,13.2l-2.7,3.6h0ZM367.1,533.4c-4.9.2-9.6,1.6-14.5,1.3-2.4-.2-4.8,0-7.1,0-1.3,0-2.7-.3-4-.3-2.5,0-5.4-.5-6-3.4-.2-1,0-2.5,0-3.5s.3-1.5.9-2c.2,0,.9-.5.9-.7.6-2.1,5-1.6,6.7-1.6,2.5,0,5-.2,7.5-.2s5.4.5,8.1.8c1.3,0,1.7-.8,1.7-2,0-1.7.2-3.3.5-5,.6-3.3.8-6.6,1.2-9.9.3-2,.6-4.1,1.3-6,0-.1.8-1.3.8-1.3.6-.6-3.2-1.5-4.7-1.2-1.8.2-2.8.4-3.3.5-2.5.2-5,.5-7.5.6-1.5,0-3.1,0-4.6.2s-3.1.4-4.6.2c-1.3-.2-2-.7-2.9-1.5-.5-.4-1-.6-1.3-1.3-.5-1.2-.3-2.8-.4-4.1,0-.4,0-.7.1-1.1.7-1.8,3-1.9,4.7-1.9h6.3c4.1,0,8.2.4,12.3.7,1.3,0,2.5.2,3.8.3.8,0,2.3.4,3.1,0,1-.5.6-2.3.6-3.2,0-4,0-8.1-.4-12.1s-.9-7.9-1.9-11.7c-1-4-6.2-2.6-9.2-2.4-8.6.7-17.1,1.3-25.7,1.5-5.5,0-11,.2-16.4-.2-2.2-.2-4.5-.5-6.7-.5s-1.8-.1-2.3.7c-.3.6-.1,1.4,0,2,.4,6,.3,12.1.6,18.1s.4,12.2.2,18.4c-.2,4-.5,8-.5,12s.1,9.4,0,14.1c0,6.6-.2,13.1-.3,19.7,0,4.8-.2,9.7,0,14.5,0,1,.3,2,1.4,2.2s2.4,0,3.5,0c3.1,0,6.2.2,9.2.2,5.6,0,11.2-.2,16.8-.4,6.5-.2,13,0,19.5.3,1.9,0,3.8.3,5.8.5s4.3,1,5.3-1.1c.7-1.5.4-3.9.4-5.5,0-3,.2-5.9.6-8.8.3-2.6.8-5.2,1.3-7.8.3-1.8.8-3.6.8-5.4h0c0-1.7-.5-2.5-1.4-2.5h0l-.2-.2ZM443.5,534.6c-2.1-3.5-4.5-6.8-7-10-.7-.8-1.3-1.8-2-2.6-1.3-1.5-2-.3-3.1.8-1.6,1.7-3,2.9-5,4-1.8.9-3.4,2.1-5.4,2.4-2,.4-4.1.3-6.1.3s-3.1,0-4.5-.7c-3-1.3-5.2-4.9-6.7-7.7-1.6-3.1-1.7-6.5-1.8-9.9-.2-7,2.6-16.9,10.4-18.6,2.3-.5,4.7-.6,7-.6s3.6.8,5.4,1.8c2.2,1.2,4.2,2.4,6,4.1.9.9,2.9,3.9,4.3,2.2.6-.6.9-1.6,1.2-2.3.7-1.6,1.4-3.1,2.1-4.7,1.7-3.9,3.3-7.8,5.1-11.7,1-2,2-4,2.9-6,.5-.9,1.2-2.1,1.1-3.1-.2-1.9-2.4-3.8-3.6-5.1-1.4-1.5-2.9-2.8-4.6-4-6.7-5-15-7.2-23.3-6.9-8.5.3-16.6,4-23,9.4-6.8,5.8-11.7,13.7-15.1,21.9-3.7,9.1-5.2,18.9-4.5,28.7,1.2,17.3,8.8,34.7,24.3,43.8,7.3,4.3,16.3,6.2,24.7,4.5,8.2-1.7,15.2-6.9,20.6-13.2,1.4-1.7,2.7-3.4,3.9-5.2.5-.8,1.3-2.1,1.2-3.1,0-.5-.4-1-.6-1.4-1.2-2.4-2.6-4.7-4-7h.1ZM537.3,531.1c-.5-8.1-.7-16.2-.8-24.3,0-8.2.5-16.5.7-24.8,0-4.7.3-9.3.6-14,0-1.8.2-3.5.3-5.3,0-1.5.3-3.2,0-4.7-.3-1.6-1.9-1.3-3.1-1.3-1.9,0-3.8,0-5.7.2-3.8.3-7.5.5-11.4.4h-8.8c-.9,0-2.2-.2-3,.2-1.4.5-.9,2.8-.9,4,.3,7.6.9,15.2,1.7,22.8.2,2.1.7,5-1.7,5.8-1.3.5-2.7.4-4.1.5-3.4.2-7.1.5-10.5.1-.7,0-.9-.3-1.4-.7-1.3-1-1.3-2.2-1.3-3.8v-3.6c0-4.1.2-8.2.3-12.3,0-3.8.3-7.6,0-11.3-.1-2.1-1.9-1.5-3.5-1.4-2.3.2-4.6.4-6.9.5-5.2.3-10.6.8-15.8.7h-3c-.7,0-1.9-.2-2.6,0-1.3.5-.8,3-.7,4.1.1,3.8.3,7.5.5,11.3.5,9.2,1.1,18.4,1,27.6v20.8c0,5.1,0,10.2-.4,15.3-.3,4.8-1,9.6-1.5,14.4-.2,1.8-.4,3.6-.4,5.4s.1,3,1.9,3.3c2.2.3,4.7-.2,6.9-.4,3.4-.3,6.8-.6,10.2-.8,3.7-.2,7.3-.2,11-.5.9,0,2.2,0,3-.6,1.3-.9.9-2.9.9-4.3,0-4.2,0-8.3-.2-12.5-.2-4-.4-8-.4-12s-.9-6.2,1.5-7.2c1.2-.5,2.3-.6,3.5-.7,2-.2,4.1-.2,6.2-.3,1.1,0,2.9-.3,3.9,0,.6.3.1.7.7.8,1.9.5,1.4,4,1.4,5.5s-.1,4.1-.2,6.1c-.2,6-.2,12-.2,18v3.2c0,1-.1,2.2.8,2.9,1.2.8,3.2.6,4.5.6,4.6,0,9.2-.2,13.8,0,2.5,0,5.1,0,7.6.2,1.7,0,3.5.2,5.3,0,1,0,1.5-.3,1.7-.4,1-.7.4-3.8.4-4.9,0-2.2-.2-4.3-.4-6.5-.4-5.4-.8-10.7-1.1-16.1h-.3ZM581.7,479.9c0-6.2.7-12.3,1-18.4v-2.9c0-1.5-.2-2.2-1.8-2.3-1.2,0-2.3-.4-3.4-.6s-2.3,0-3.5,0c-3.8.1-7.7,0-11.6,0h-7.4c-1.3,0-2.6-.1-3.9,0-1.4,0-1.6.8-1.6,2.2,0,5.3-.5,10.6-.5,15.9s.6,13.5.9,20.3c.4,8.3.4,16.6.4,24.9s0,15.1-.2,22.6c0,3.5-.3,7-.7,10.5,0,1.1-.6,2.8-.6,3.7,0,2.8,4.2,2.4,6.1,2.5,3.3,0,6.5,0,9.8,0,3.1,0,6.1,0,9.2-.2,1.3,0,2.6,0,3.9-.2.8,0,2.3,0,3-.5s.5-1.9.5-2.6v-3.1c0-2.5,0-5,0-7.5,0-6.1,0-12.2-.3-18.3-.3-5.4-.5-10.8-.7-16.3-.2-3.8-.3-7.5,0-11.3.4-6.1,1-12.1,1.2-18.2h0ZM674.4,452.8c-4.9.2-9.8,0-14.7.3-3.2.2-6.3.5-9.4.7-1,0-2.5-.2-3.4.2-1.1.4-1,2-1,2.9.2,10.1.9,20.2,2.1,30.2.2,1.8.2,3.7.2,5.5s0,2.4-.5,2.8c-.9.7-2.4-1.5-2.8-2-7.6-11.2-14.8-22.5-22.1-33.9-.8-1.3-2.3-4.4-3.7-4.8-.9-.2-2.4.2-3.2.4-1.5.3-3,.7-4.6,1.1-1.8.4-3.6.5-5.5.6h-7c-1.3,0-4.3-.5-5.1.9-.3.7,0,1.8,0,2.5v10c0,6.5.6,13,.5,19.4,0,5.3-.7,10.6-.8,15.9,0,4.5,0,9.1,0,13.7s0,13-.3,19.6c-.2,5.5-.5,10.9-.4,16.4,0,1.5.3,2.7,2,2.7h2.1c6.4,0,12.7-.2,19.1-.3h3.3c.5,0,1.2,0,1.7,0,1.7-.6,1-3.9,1-5.3,0-2.3-.2-4.6-.3-6.9-.3-6.1-.7-12.2-.8-18.4,0-1.5,0-3.1.2-4.6,0-.7.4-1.3.5-1.9.2-1.2-.3-3.3.5-4.2.5.3.8.5.9.8,7.8,11.2,15.9,22,22.9,33.7.7,1.1,1.4,2.3,2.1,3.4.5.7,1.2,1.7,2,2.1.7.3,1.6,0,2.4.2,1.8,0,3.5.2,5.3.3,2.9,0,5.8.4,8.6.2,2.2,0,4.4-.3,6.6-.5,1.5,0,2.6-.2,2.7-2,0-2.5,0-5-.2-7.5,0-5.2-.2-10.5-.3-15.8-.2-8.7-.3-17.4-.5-26,0-6.7.8-13.4,1-20,.4-9.3.3-18.7,0-28,0-1,.3-4-1.2-4h0v-.3ZM768,549.1c-.6-7-.5-14-.2-21.1.2-5.4,0-10.7.2-16.1,0-3.3,0-6.5,0-9.8,0-1.1.2-2.4-.3-3.4-.5-1.2-1.9-.9-3-.8-2.3.2-4.6.5-7,.5h-12.4c-1.8,0-3.7-.2-5.6-.3-1.3,0-3.6-.6-4.8,0-1.5.6-.6,4.4-.5,5.6.3,2.5.6,5.1,1,7.6.3,2.1.9,4.2,1.1,6.3-3.7,1.9-7.5,5-12,3.4-2.3-.8-4.2-2.8-5.8-4.6-1.3-1.6-2.8-3.2-3.9-4.9-2.5-3.8-2.7-9.5-1.6-13.8.6-2.4,1.8-4.5,3.3-6.5s3-4.3,5.3-5.3c2.4-1,4.9-.7,7.5-.8,1.2,0,2.5,0,3.7.2,1.4.3,2.6,1.2,3.9,1.7,1.2.5,2.3.9,3.3,1.7,1.1.9,1.9,2.2,3.3,2.5,1.4.3,2.2-.6,3.2-1.5,4.5-4.4,7.8-9.9,11.2-15.2,1-1.5,2.8-3.7,2.9-5.6,0-1-.8-2.1-1.3-2.9-.9-1.3-1.8-2.6-2.8-3.8-3.8-4.5-8.7-8.8-14.3-10.9-5.3-2-11.2-2.7-16.8-2.7-10.8,0-20.8,3.9-28.2,11.8-8,8.5-12.3,19.8-13.6,31.3-1.4,12.2,0,25.2,4.7,36.5,2.2,5.2,5.3,9.8,9,13.9,4,4.4,8.5,8.4,13.8,11.2,9.7,5.2,21.6,5.2,31.2-.4,2.4-1.4,4.6-3,6.8-4.6,1.3.5,3,.6,4.4.9,2.2.4,4.4.8,6.6,1.4,1.8.5,3.8,1.1,5.7,1.2,1.9.2,2.2-1.1,2-2.7h0Z"/>
          </g>
        </g>
      </g>
    </g>
  </g>
</svg>