<?xml version="1.0" encoding="utf-8"?>
<!-- Generator: Adobe Illustrator 26.3.1, SVG Export Plug-In . SVG Version: 6.00 Build 0)  -->
<svg version="1.1" id="Logo" xmlns="http://www.w3.org/2000/svg" xmlns:xlink="http://www.w3.org/1999/xlink" x="0px" y="0px"
	 viewBox="0 0 991.9 744.6" style="enable-background:new 0 0 991.9 744.6;" xml:space="preserve">
<style type="text/css">
	.st0{fill:#82B9E6;}
	.st1{fill:#99C6EC;}
	.st2{fill-rule:evenodd;clip-rule:evenodd;fill:#809F2A;}
	.st3{fill:#5A462B;}
	.st4{fill:#B2B2B2;}
	.st5{fill:#9B9B9A;}
	.st6{fill:#EFEEEF;}
	.st7{fill:#DADADA;}
	.st8{fill:#FFFFFF;}
	.st9{fill:#4E3416;}
	.st10{fill:#13110C;}
	.st11{fill:#D0882A;}
	.st12{fill:#A1692A;}
	.st13{fill:#422F17;}
	.st14{fill:#FBDCBC;}
	.st15{fill:#F9CA87;}
	.st16{fill:#EBEBEB;}
	.st17{fill:#BF955C;}
	.st18{fill:#9C7443;}
	.st19{fill:#895826;}
	.st20{fill:#1C1C1B;}
	.st21{fill:#6A992F;}
	.st22{fill:#4D752C;}
	.st23{fill:#F4D620;}
	.st24{fill:#E1C41B;}
	.st25{fill:#C7AF2F;}
	.st26{fill:#51422C;}
	.st27{fill:#483924;}
	.st28{fill:#4E3F29;}
	.st29{fill:#5A4932;}
	.st30{fill:#55452E;}
	.st31{fill:url(#SVGID_1_);}
	.st32{fill:url(#SVGID_00000082343314643680116750000006569734433920508568_);}
	.st33{clip-path:url(#SVGID_00000170257672745358513090000013864772968786155911_);enable-background:new    ;}
	.st34{fill:url(#SVGID_00000141426943169019142780000003113524081723837853_);}
	.st35{fill:url(#SVGID_00000018915595328320011420000000769314238483595923_);}
	.st36{clip-path:url(#SVGID_00000170959104020878497170000003310713243393686199_);enable-background:new    ;}
	.st37{fill:#F0F0F0;}
	.st38{fill:#9A851E;}
	.st39{fill:#DDD8C3;}
	.st40{fill:#F1D437;}
	.st41{fill:#FFE965;}
	.st42{fill:#D5CDB4;}
	.st43{fill:#C4C4C4;}
</style>
<g>
	<path class="st0" d="M244.1,200.3L244.1,200.3L244.1,200.3L244.1,200.3 M254.4,170.8l243,155L320.3,79.1
		C285.4,110.1,265.1,146.1,254.4,170.8 M246.3,165.6c-7.2,16.5-10,27.7-9.9,28.6c0.5-6.7,51.3-185.8,259-185.8
		c218.2,0,256.8,177.1,257,184.7c0.1-1.2-2-12.2-8.1-28.3l6.8-4.4c-9.7-26-30.4-66.9-71.3-100.9l-4.9,7.2
		c-28.3-23.6-66.3-43.8-117.2-53l1.6-8.2C539.7,1.9,518.4,0,495,0c-26.5,0-50.5,2.8-72.2,7.7l1.9,8.2
		C378,26.7,342.1,47.6,314.8,71.5l-5.3-7.3c-38,33.2-59.2,71.9-69.9,97.2L246.3,165.6 M924.2,265.7l-13.6,1.9
		c-40.4-31.3-95-57.5-158.2-74.5c0,0.1,0,0.1,0,0.1c136.5,36.8,233.1,116.5,233.1,197.3c0,158.9-283.6,233.5-485.6,233.5
		c-194.3,0-490.7-65.4-490.7-228.9c0-62.1,41.5-141.7,227.3-200.7c0,0,0,0,0-0.1c-58.3,18.5-102.3,39-135.4,60.4l-12.7-2.3
		C35.2,288.6,0,335.5,0,395.1c0,122.5,178.8,233.8,499.6,237c164.2,1.6,492.4-56.8,492.4-241.6C991.9,339.5,965.3,298.6,924.2,265.7
		 M17.6,395.9c0,164.8,323.8,220.6,482.4,220.6c163.3,0,475.5-59.4,475.5-225.8c0-51-35.9-91.1-79.3-121l-398.9,56.1l-382.6-68.7
		C64,287.5,17.6,331.9,17.6,395.9 M669.9,73.9L497.4,325.8l239-155.9C726.6,143.8,707.1,105.6,669.9,73.9 M495.4,16.8
		c-25.2,0.1-48,2.9-68.6,7.7l70.6,301.3l58.6-304C537.6,18.5,517.4,16.7,495.4,16.8"/>
	<path class="st1" d="M254.3,170.8l243.1,155l-382.8-68.7c58.4-34.9,122.7-51.1,129.6-56.8C243.8,200.5,246.6,188.6,254.3,170.8z
		 M556.1,21.7l-58.7,304.1l172.5-252C642.6,50.4,605.7,30.6,556.1,21.7z M745.1,200.4c0.1,0.1-1.9-12.2-8.7-30.5l-239,155.9
		l399.1-56.2C830.5,224.1,747.1,201.9,745.1,200.4z M101,254.7c33.1-21.4,77.1-41.9,135.4-60.4c-0.4,0.1,2.3-11.3,9.9-28.6l-6.7-4.3
		c-6.9,16.4-9.5,27.1-9.3,27.1c-52.6,15.8-102.4,36.8-142.1,63.9L101,254.7z M557.6,13.6c50.9,9.2,89,29.4,117.2,53l5-7.3
		c-29-24.1-68.1-44.7-120.6-54.1L557.6,13.6z M314.8,71.5c27.3-23.9,63.2-44.8,109.9-55.6l-2-8.4c-48.5,10.9-85.4,32.2-113.3,56.6
		L314.8,71.5z M497.4,325.8L426.8,24.3C381.4,35,346.6,55.6,320.2,79L497.4,325.8z M751.1,160.3l-6.8,4.4
		c6.5,17.2,8.4,28.5,8.1,28.4c63.2,17,117.8,43.2,158.2,74.5l13.7-1.9c-43.6-34.9-103.6-60.6-165.6-79.6
		C758.8,186.2,757,175.9,751.1,160.3z"/>
	<path class="st2" d="M984.9,402.6c2.1,1.3,4.1,2.6,6.2,3.9c-18.6,172-332.2,227-491.5,225.4c-309.4-3.1-486.7-106.7-498.9-224
		c2.9-1.7,5.8-3.4,8.7-5.1c9.3,157.8,299.3,221.1,490.4,221.1C696.6,623.9,970.8,553.1,984.9,402.6 M500.1,616.3
		c161.2,0,467.5-57.9,475.4-219.4C862.1,330.1,683.7,291,496.9,290.4c-155-0.5-351.7,37.9-479.2,107.8
		C20.9,561.1,342.2,616.3,500.1,616.3"/>
	<path class="st3" d="M500.1,616.3c-31.1,0-68.5-2.1-108.5-6.8c1.8-92.8,50.6-305.9,71-318.6c5-3.1,62.8-3.5,67.7,0.4
		c30.2,24.1,72.7,225.5,84.1,317.3C572.7,613.8,533.3,616.3,500.1,616.3 M972.1,447.7c2,1.6,4,3.3,6,4.9
		c6.9-14.7,11.4-30.5,13.1-47.4c-2.1-1.2-4.1-2.3-6.2-3.5C983.6,418,979.1,433.3,972.1,447.7 M418.3,293.5
		c-13.5-2.9-56.3,1.4-66.9,3.9C310.5,307,166.9,417.7,95.4,518.4c38.7,26,88.4,46,141.4,61C280.4,465,368.5,282.7,418.3,293.5
		 M499.8,623.9c-33.7,0-70.5-2-108.3-6.1c0,3,0.2,5.9,0.3,8.6c33.9,3.2,69.8,5.1,107.7,5.5c33.5,0.3,73.7-1.8,116.7-7
		c-0.2-2.6-0.5-5.4-0.9-8.4C575.6,621.5,536.4,623.9,499.8,623.9 M250.3,317.1C159.1,332.6,82,362.4,17.7,398.7
		c0.4,16.3,4,31.5,10.3,45.7C80.9,402.3,154.8,358.7,250.3,317.1 M743.6,314.7c0.2,0,0.3,0.1,0.5,0.1l-0.2-0.1H743.6 M90.6,525.3
		c-1.6,2.3-3.1,4.6-4.6,6.9c36.8,25.8,85.1,48,144.2,64.9c1.1-3,2.2-6.1,3.4-9.3C179.5,572.4,129.6,551.7,90.6,525.3 M920.8,509.3
		c-36.1,29.3-84.6,52.8-138.7,70.7c1.4,2.8,2.7,5.6,4,8.4c53.7-17.6,103.2-41.1,140.2-71.7C924.5,514.2,922.6,511.8,920.8,509.3
		 M744.1,314.8c94.9,42.5,168,85.8,220.7,127.1c6.3-14.1,10-29.2,10.7-45.4C909.1,360.9,832.2,331.6,744.1,314.8 M677.6,300.9
		c-10.5-2.5-58.6-7.7-72.1-5.3c17.6-3.2,117.4,164,173,277.2c53.2-17.3,101.8-40.2,137.5-69.7C841.9,407.9,715.5,309.9,677.6,300.9
		 M9.5,403.5c-2.9,1.7-5.8,3.4-8.7,5.2c1.7,15.8,6.5,31.4,14.1,46.5c2.1-1.8,4.3-3.6,6.4-5.4C14.6,435.3,10.5,419.9,9.5,403.5"/>
	<path class="st4" d="M746.4,262.7c-34.5-19.2-56.7-40.4-75.5-63.5c-4.8-5.9-16.7-43.3-0.9-25.8c42.9,47.5,58.9,79.3,153.1,79.3
		c75.5,0,121.2-43.4,149-58.1c9.4,14.3-14.6,51.1-17.3,53.5c-32.1,28.9-73.9,26.2-96.6,23.5c-6.7-0.8-11.7-1.6-14.3-1.6
		c4.2,25.1,33.9,122.7,33,122.4c-38.6-11.6-63.5-10-112.1-4.4c-22.8,2.6-20.1,13.6-20.1,36.8c0,22.7-20.1,5.7-17.6,24.9
		c5.4,41.6,30.8,36.5-2.8,65.4c-34.8,29.9-50.4,77.7-67.2,98.5c-21.2-13.2-60.3-34.5-75.9-54.9c-26.9-35.2-40.3-37.5-54.9-49.2
		C563,462.7,731.6,328.2,746.4,262.7"/>
	<path class="st5" d="M974.4,209.4c-1.6,32.2-51.8,70.7-92.7,65.3c-9.4-1.2,4.6-2.7,6.4-4.1c12.7-10.3,33.8-13.5,48.3-22.6
		c10.4-6.5,15.1-13.8,24.4-20.3C964.5,225.3,976.9,211.4,974.4,209.4z"/>
	<path class="st5" d="M889.5,275.8c-2.7,0-5.3-0.2-7.9-0.5c-3-0.4-3.6-0.8-3.6-1.4c0-0.9,1.2-1.3,5.1-2.2c1.9-0.4,4.2-1,4.7-1.5
		c7.1-5.8,16.9-9.3,26.3-12.8c7.7-2.8,15.6-5.7,22-9.8c5.6-3.5,9.6-7.3,13.5-11c3.2-3.1,6.6-6.3,10.9-9.2c2.7-1.9,10.7-10.6,13-15.3
		c0.1-0.9,0.2-1.8,0.2-2.7l0.1-1l0.8,0.6c1.1,0.8,0.3,2.7-0.1,3.3c-2,14.2-13.1,30.2-29.7,42.8C927.7,268.3,907.5,275.8,889.5,275.8
		z M879.3,273.8c0.4,0.1,1.1,0.3,2.5,0.5c2.5,0.3,5.1,0.5,7.8,0.5c17.7,0,37.7-7.4,54.7-20.4c15.4-11.7,26-26.2,28.9-39.4
		c-3.2,4.9-9.4,11.5-11.9,13.3c-4.2,2.9-7.5,6.1-10.7,9.1c-3.9,3.7-8,7.6-13.7,11.1c-6.5,4.1-14.5,7-22.2,9.9
		c-9.4,3.5-19.1,7-26,12.7c-0.7,0.6-2.5,1-5.1,1.7C882,273,880.1,273.4,879.3,273.8z"/>
	<path class="st5" d="M740.6,502.8c-26,23-44.2,41.3-61.4,75.6c-4.8,9.7-18.8,20.9-25.4,29.1c-4.6,5.7-65.6-39.5-69.8-46.2
		c-11.9-19-5.3-13.4,7.3-19c14.9-6.6,39.3-34.4,60.6-42c12.3-4.5,45-25.3,48.4-37.9c6-22.4,32.3-80.3,50.7-87.3
		C752.5,374.5,739.3,496,740.6,502.8"/>
	<path class="st5" d="M857.3,315.7c2.5,16.5,11,33.4,12.4,50.8c0.5,6.1,12.4,29.5,0.9,25.1c-5.4-2.1-19.1-0.8-13.8-9.2
		c2.4-3.8,1.2-32.4,0.5-38.2c-0.8-5.8,0.1-11.6,0.1-17.3C857.4,324.1,857.5,310.6,857.3,315.7z"/>
	<path class="st6" d="M749.7,260.3c-16.6-5.1-36.8-17.4-46.1-24.7c-21.4-16.8-35.9-28.4-40.9-51.1c-3.5-16.2-23.6-52.9-27.2-18.8
		c3,24.5,10,54.6,35.4,72.3c12.1,8.4,21.7,13.6,35.9,16.5C720.7,255.1,749,264.7,749.7,260.3z"/>
	<path class="st7" d="M731.4,253.7c1.4,0.7-22-10.2-34.5-19c-17.8-12.6-32.9-41.4-38.3-62.2c-0.5-2.1-1.8-19.3-5.4-10.5
		c-9.8,23.4,22.2,47.2,29.2,64.2C686.7,236.8,720.9,263.2,731.4,253.7z"/>
	<path class="st7" d="M725.3,256.2L725.3,256.2c-6.3,0-15.7-4.2-25.6-11.5c-8.8-6.4-16-13.8-17.8-18.4c-2.2-5.4-7.1-11.6-12.2-18.2
		c-11.1-14.2-23.7-30.3-16.9-46.4c0.8-1.9,1.5-2.8,2.4-2.8c1.8,0,2.7,3.9,3.6,11c0.1,1.1,0.3,2,0.4,2.4
		c5.3,20.8,20.5,49.5,38.1,61.9c11.2,7.9,31.4,17.5,34.1,18.8l0,0l0.3,0.1l0,0l0.7,0.3l-0.4,0.3l-0.1,0.3l-0.3,0
		C730,255.5,727.9,256.2,725.3,256.2z M655.1,160c-0.1,0-0.6,0.1-1.4,2.1c-6.5,15.6,5.9,31.4,16.8,45.4c5.2,6.6,10.1,12.9,12.4,18.5
		c1.8,4.3,9,11.7,17.5,17.9c9.8,7.2,18.9,11.3,25,11.3h0c2.1,0,3.8-0.5,5.1-1.4c-4-1.9-23-11-33.8-18.6
		c-17.8-12.5-33.1-41.6-38.5-62.5c-0.1-0.4-0.2-1.3-0.4-2.5c-0.3-1.9-0.6-4.5-1.1-6.7C655.8,160.1,655.1,160,655.1,160z"/>
	<path d="M895.5,278.2c-8.2,0-16.4-1.3-24.4-2.5c-10.5-1.7-20.4-3.2-29.7-1.7l-1.2-7.2c10.4-1.7,21.3,0,32,1.7
		c14,2.2,28.5,4.5,42.3-0.8c18-6.9,41.3-21.2,49.7-36.2c0.6-1,3.1-8.2,5.2-16.8c2.2-9.1,2.6-14.1,2.3-16.2c-4,1.6-8.6,5-13,8.3
		c-2.8,2.1-5.4,4-7.9,5.6c-20.8,12.8-41.2,23-62.8,33.7c-2.8,1.4-5.6,2.8-8.4,4.2c-8.8,4.4-18.7,4.7-28.2,4.9
		c-7.3,0.2-14.9,0.4-21.9,2.5l-2.1-7c8-2.4,16-2.6,23.8-2.8c9.1-0.2,17.8-0.5,25.2-4.2c2.9-1.4,5.7-2.8,8.4-4.2
		c21.4-10.7,41.6-20.7,62.2-33.4c2.2-1.4,4.7-3.2,7.3-5.2c5.4-4.1,11-8.3,16.6-9.9c2.5-0.7,4.8-0.1,6.3,1.8
		c1.8,2.2,3.3,6.8-0.6,22.9c-2,8.4-4.9,17.1-6.1,19.3c-9.4,16.6-33.6,31.7-53.4,39.4C909.9,277.2,902.6,278.2,895.5,278.2z"/>
	<path class="st5" d="M748.9,241.9c1.4,3.1,4.4,8,4.4,11.3c0,3.1-0.7,3.1-2.3,5.5c-3.4,5,7.5,3.1,9.7,3.7c3.1,0.8,6.6,1.3,6.9-2.8
		c0.3-3.9-0.3-6.3-1.4-9.7c-0.7-2.2-1.8-3.5-2.8-5.5c-0.9-1.9-3.9-2.8-6-2.8C755.1,241.6,751.7,242.3,748.9,241.9z"/>
	<path d="M746.4,266.3v-2.7c-1.2-0.3-2.4-0.7-3.6-1.1c-0.1,1.8,1.2,3.3,2.6,3.6c-1.7-0.4-30.6-7.1-39.1-8.2
		c-14-1.8-30.7-9.4-38.9-17.6c-18.9-18.9-37.8-42.5-34.2-73.9c1.7-14.5,4.3-21,9.2-22.3c5.5-1.5,10.1,4.5,14.8,10.9
		c2,2.7,4.1,5.4,6.1,7.4c6.1,6.1,14.9,15.1,20.6,22.5c4.6,6,17.2,20.8,32.1,33.8c16,14.1,28.8,20.9,36.1,19.2l1.6,7.1
		c-9.9,2.3-24.2-4.7-42.5-20.8c-15.2-13.4-28.3-28.6-33-34.8c-3.6-4.7-8.7-10.2-13.5-15.1c0.4,1.8,0.6,3.4,0.6,4.6
		c0,8.5,11.9,23.2,18.3,31.1c0.8,0.9,1.5,1.8,2.1,2.6c18,22.5,57.9,48.9,74.1,45l1.7,7c-3.5,0.8-7.5,0.7-11.6-0.1l-0.1,1.8H746.4z
		 M643.1,153.6c-0.8,2.2-1.9,6.2-2.7,13.8c-3.3,28.3,14.4,50.2,32.1,67.9c7.1,7.1,22.4,13.9,34.7,15.5c3.7,0.5,10.8,1.9,17.5,3.3
		c-2-1.2-3.9-2.3-5.6-3.4c-15.2-9.6-30.2-22.5-39.1-33.7c-0.6-0.8-1.3-1.6-2.1-2.5c-10.1-12.4-19.9-25.4-19.9-35.6
		c0-4.1-3.9-14.7-6.6-18c-0.9-1.1-3-2.8-4.8-4.3C645.4,155.5,644.1,154.5,643.1,153.6z"/>
	<path d="M752.8,241.5c15.2-9.5,24-14.7,33.6-30.3c1.6-2.6,5.3-9.1,14-14.8c-4.4,10,2.9,24,26,24c8.5,0,38.8-2.3,37.5,8.5
		c-7.3-1.8-17.5,4.4-20,4.4c-3.5,0,5.3,9.5,7.9,14.7c-9.7-6.8-23.8-18.8-14.5,5.7c-12.8-6.2-18.5-13.6-24.3-14.4
		c-1.1-0.1,13.2,12.4,10.8,19.6c-7.6-7.1-15.4-16.9-15.4-9.4c0,1.2,7.1,12.4,5.1,23c-12.1-16.7-17.9-9.7-25.3,2.1
		c-0.6-9-21.9-24.2-19.1,0.2c-4.7-5.3-4.7,0.2-5.8,1.8c-6.8,10.8-7.6,17.7-6.7,22.3c-7.2-0.2-7.7,14.2-9.2,19.3
		c-7.4-4.2-11.8-13.4-8.5,12.2c-6.6-4-3.6,7.6-9.4,17c-3.1-18.8-12,5.6-17.5,8.1c-2.9-8-16.3-4-21.1,5.5
		c-4.9-14.9-10.4,14.5-10.4-7.1c0-4.9,29.4-29.4,35.4-41.4c6.9-13.7,21.1-39.1,30.4-49.8c3.9,1.6,5.8,2.7,9.2,1
		c2.2-1.1,6.1-2.8,7.4-4.6c1.4-2,2.5-8.6,0.5-11c-1.5-1.9-1.4-2.8-3.7-3.7c-1.2-0.5-1.7-1-2.8-1.4
		C756.2,242.7,753.4,242.5,752.8,241.5z M680.6,353.9c-2,11.9-33,28.7-63.8,60.3c-31.6,32.3-76.8,81.7-90.5,95.3"/>
	<path d="M528.9,512.1l-5.1-5.1c6.1-6.1,18.7-19.5,33.3-35.1c17.7-18.9,39.7-42.4,57.2-60.2c13.9-14.2,27.8-25.5,39-34.5
		c12.2-9.9,22.7-18.4,23.8-23.7c0.3-3.4,4.2-7.7,15.3-18.9c7.8-8,17.6-17.9,20.5-23.7c6.8-13.7,21.3-39.5,30.9-50.5l1.7-1.9l2.4,1
		c0.4,0.2,0.8,0.3,1.1,0.5c3.1,1.3,3.6,1.4,5.1,0.7c0.3-0.2,0.7-0.4,1.1-0.6c1.3-0.6,4.3-2.1,4.9-2.9c0.8-1.2,1.3-5.6,0.6-6.7
		c-0.6-0.7-1-1.3-1.3-1.8c-0.1-0.2-0.3-0.5-0.4-0.6c0,0-0.1-0.1-0.5-0.2c-0.9-0.3-1.5-0.7-2-1c-0.3-0.2-0.5-0.3-0.7-0.4
		c-0.1,0-0.3-0.1-0.5-0.1c-1.8-0.3-4.4-0.9-5.6-3.1l-1.6-3l4.3-2.7c14.2-8.9,22.1-13.8,30.9-28.2l0.3-0.4c1.8-2.9,5.9-9.7,14.9-15.5
		l10.2-6.6l-4.9,11.1c-1.5,3.4-1.1,7.2,1,10.4c3.5,5.4,11.4,8.5,21.7,8.5c1,0,2.4,0,4-0.1c14.6-0.4,29.4-0.2,34.9,5.9
		c1.7,1.9,2.5,4.2,2.2,6.8l-0.5,4.1l-4-1c-3.9-1-9.7,1.3-13.5,2.8c-0.5,0.2-1,0.4-1.5,0.6c0.7,1.1,1.6,2.3,2.3,3.3
		c1.8,2.5,3.6,5.1,4.7,7.2l-5.3,4.6c-0.9-0.6-1.8-1.3-2.8-2c-2.4-1.8-6.5-4.7-9-5.9c0.2,1.5,0.8,4.3,2.7,9.3l3.2,8.5l-8.2-4
		c-3.6-1.7-6.6-3.5-9.2-5.3c1.2,2.9,1.7,5.7,0.8,8.3l-1.8,5.4l-4.1-3.8c-1.7-1.6-3.4-3.3-5-4.9c-0.5-0.5-1.1-1.1-1.7-1.7
		c1.8,4.8,3.7,11.6,2.4,18.2l-1.6,8.2l-4.9-6.8c-5.4-7.4-8.4-8.5-9.8-8.4c-2.9,0.1-6.5,5.4-9.5,10.3l-6,9.6l-0.7-11.3
		c-0.2-2.4-3.7-7-7.7-8.9c-1.4-0.7-2.6-0.9-3.1-0.5c-0.7,0.5-1.8,3-1.1,9l1.3,11.4l-7.2-8.1c-0.1,0.3-0.3,0.6-0.4,0.8
		c-5.1,8.1-7.2,14.7-6.2,19.7l0.9,4.4l-4.5-0.1l0,0c-2.4,0-3.9,8.2-4.5,11.7c-0.4,2-0.7,3.7-1.1,5l-1.3,4.4l-4-2.2
		c-1.6-0.9-3-1.9-4.2-2.9c0.1,2.1,0.3,5.6,1.1,11.5l1,7.5l-5.9-3.6c-0.2,0.8-0.4,1.8-0.6,2.6c-0.7,3.5-1.7,8.4-4.5,12.9l-5.1,8.2
		l-1.6-9.5c-0.2-1.5-0.5-2.5-0.7-3.2c-1.3,1.4-3,4-4.1,5.5c-2.6,3.8-4.9,7.2-7.6,8.4l-3.6,1.6l-1.3-3.7c-0.3-0.8-0.9-1.8-2.8-1.9
		c-3.6-0.2-9.1,2.7-11.6,7.8l-3.9,7.9l-2.8-8.3c-0.1-0.2-0.2-0.5-0.2-0.7c-0.2,0.2-0.3,0.4-0.5,0.6c-1.3,1.8-3.2,4.5-6.3,3.5
		c-0.8-0.3-1.4-0.7-1.9-1.3c-4.6,5.2-11.8,11.1-20.9,18.5c-11,8.9-24.8,20.1-38.3,34c-17.4,17.8-39.4,41.2-57,60.1
		C547.7,492.4,535,505.9,528.9,512.1z M687.7,353c0.3,0,0.5,0,0.8,0.1c1.1,0.2,2,0.7,2.8,1.3c4.1-4.3,9.8-7.1,15-6.7
		c2.5,0.1,4.6,1,6.3,2.4c0.9-1.2,1.9-2.6,2.6-3.7c3.7-5.4,7.1-10.4,11.8-9.4c0.9,0.2,1.7,0.6,2.3,1.1c0.3-1,0.5-2.1,0.7-3
		c0.8-3.9,1.5-7.3,4.6-8.6l0.3-0.1c-1.2-10.9-0.6-14.5,2.3-16.2c2.8-1.6,5.5,0.1,7.9,1.9c0.6-3.1,1.3-6.7,2.5-9.7
		c1.5-3.5,3.3-5.3,5.2-6.3c-0.1-6.1,2.3-13.2,7.5-21.4c0.1-0.1,0.2-0.5,0.3-0.7c0.5-1.5,1.5-4.4,4.5-5c0.1,0,0.2,0,0.3-0.1
		c0.3-4.5,1.7-7.7,4.3-9.5c2.8-2,6.5-2,10.5-0.2c3.2,1.5,6.5,4.4,8.9,7.7c3.4-4.6,7-7.9,11.7-8c2.9-0.1,5.9,1.1,8.9,3.6
		c-0.9-3.9-2.5-7.3-3.5-9.5c-0.8-1.8-1.2-2.6-1.2-3.6c0-3.8,1.7-5.3,3.2-5.9c1.2-0.5,2.4-0.5,3.7,0c-1.8-1.9-3.1-3.5-1.9-5.8
		c0.7-1.4,2.2-2.1,3.7-1.9c3.9,0.5,7.2,2.9,11.5,6c1.8,1.3,3.8,2.8,6.1,4.3c-0.9-4.4-0.6-7.6,1.9-9.5c1.9-1.5,4.3-1.4,6.9-0.4
		c-0.6-1.5-0.6-2.8,0.1-4.1c0.7-1.4,2.1-2.2,3.8-2.3c0.5-0.1,2-0.7,3.1-1.1c2.5-1,5.8-2.3,9.2-3c-1.8-0.5-4.4-1-8.1-1.3
		c-6-0.5-12.6-0.3-17.4-0.2c-1.6,0-3.1,0.1-4.2,0.1c-17.5,0-24.9-7.4-27.8-11.8c-1.5-2.3-2.5-4.9-2.9-7.5c-3.2,3.2-5,6.1-6,7.9
		l-0.3,0.5c-8.7,14.2-16.7,20.1-28.8,27.7c0.1,0,0.2,0.1,0.3,0.1c2.5,1,3.5,2.2,4.4,3.6c0.2,0.4,0.5,0.7,0.8,1.1
		c3.3,4.1,1.8,12.4-0.3,15.4c-1.6,2.4-5,4-7.7,5.3c-0.4,0.2-0.7,0.4-1,0.5c-3.9,2-6.8,1.2-9.7,0.1c-8.7,11-21.5,33.6-28.2,47
		c-3.4,6.8-13.2,16.8-21.8,25.5c-5.2,5.2-12.2,12.4-13.2,14.6v0C685.2,353.5,686.3,353,687.7,353z"/>
	<path class="st8" d="M819.8,315.6c1.2-3.9,0.7-10.6,13.8-9.9c16.4,1,12.9,3.5,16.1,9.6c-1.3,14.6-7.7,16.1-21.2,14.5
		c-4.4-0.5-7.2-2.1-8.7-6C819.4,322.9,818.9,317.9,819.8,315.6z"/>
	<path d="M835.6,332.4c-2,0-4.3-0.2-7.3-0.5c-5.4-0.6-8.6-2.9-10.4-7.3c-0.5-1.3-1.2-6.7,0-9.7c0.1-0.4,0.2-0.9,0.4-1.5
		c0.9-3.7,2.3-9.8,13.4-9.8c0.7,0,1.4,0,2.1,0.1c13.1,0.8,14.9,2.6,16.6,7.6c0.3,1,0.7,2,1.3,3.1l0.3,0.5l-0.1,0.6
		C850.7,327.5,846.1,332.4,835.6,332.4z M831.6,307.7c-7.9,0-8.6,3.1-9.4,6.7c-0.1,0.6-0.3,1.2-0.5,1.8l-0.1,0.2
		c-0.7,1.6-0.3,5.9,0,6.8c1.2,3,3.1,4.2,7.1,4.7c2.8,0.3,5,0.5,6.8,0.5c7.1,0,11-2,12-12.5c-0.6-1.2-1-2.3-1.2-3.2
		c-0.6-1.8-0.9-2.4-2-3c-1.7-0.9-5.1-1.4-10.9-1.8C832.8,307.7,832.2,307.7,831.6,307.7z"/>
	<path class="st8" d="M778.2,313c3.9-8,13.8-9.7,15.9-9.7c5.9,0.2,11.7,5.8,14.5,12c0.5,4.7,1.1,10.6-4.6,12.4
		C790.5,332.1,779.1,329.2,778.2,313z"/>
	<path d="M793.6,331.6c-4,0-7.4-0.9-10.1-2.8c-4.5-3-6.9-8.3-7.3-15.7l0-0.5l0.2-0.5c4.6-9.3,15.8-10.9,17.8-10.8
		c7.2,0.3,13.5,7,16.3,13.2l0.1,0.3l0.1,0.6c0.5,4.8,1.2,12-6,14.3C800.6,330.9,797,331.6,793.6,331.6z M780.3,313.4
		c0.4,5.7,2.3,9.8,5.5,12c5,3.4,12.3,2.1,17.5,0.3c3.8-1.2,3.7-4.7,3.2-9.9c-2.8-5.9-8-10.3-12.6-10.5
		C792.8,305.3,784,306.6,780.3,313.4z M834.1,326.2c-0.4,0-0.7,0-1-0.1c-1.7-0.2-2.6-2.1-2.6-3.3c0,0,0.3-3.3,2.1-3.9
		c1.4-0.8,2.6-0.4,3.6,0.2c1.1,0.6,2.2,1.5,2.2,3.6c0,1-0.4,1.8-1.1,2.4C836.3,326,835,326.2,834.1,326.2z M834.4,322.4l-0.1,0.2
		l0.1,0l0.1,0L834.4,322.4z M794.9,325.6c-0.8,0-1.8-0.5-2.3-1c-0.8-0.8-0.9-1.4-0.9-1.6c-0.2-1.7,0.6-3.3,2.2-4.3l0.5-0.3h0.6
		c2.7-0.1,3.8,1.5,4,2.9c0.1,1.1-0.1,2.7-1.9,3.6l-0.1,0.1C796.5,325.3,795.9,325.6,794.9,325.6z M794.9,321.9l0.1,0.2v-0.5
		C795,321.7,794.9,321.8,794.9,321.9z M781.3,299.6h-4.1c0-3.6,4-7.2,12.3-10.9c5.1-2.3,11.5,1.9,16.6,5.8l-2.5,3.3
		c-5.9-4.5-10.1-6.3-12.4-5.3C783.4,296,781.3,298.6,781.3,299.6z M842.6,298c-4.3-4.9-9.9-7-15.8-5.8c-2.4,0.5-6.4,2.9-6.6,4
		l-4.1,0c0-4.5,7.8-7.6,9.9-8c7.3-1.5,14.4,1.1,19.7,7.1L842.6,298z"/>
	<path class="st5" d="M841.1,339.5c-10.3-4-11.7-4.8-24.1-4.8c-7.7,0-13.2-0.3-20.3,1.8c-2.8,0.8-12.2,2.6-15.1,5
		c3.3-0.1,15.8-3.5,16.8-3.6c11.8-0.7,15-0.4,26.1-0.6C827.8,337.3,833.4,339.7,841.1,339.5z"/>
	<path d="M660.3,615.1l-6.6-3.1c2.7-5.6,48.2-76.7,51-80.6c5.1-7.3,12.5-13.3,19.7-19.1c5.6-4.6,11.4-9.3,15.8-14.4l5.5,4.7
		c-4.8,5.7-10.9,10.6-16.8,15.3c-7.1,5.7-13.8,11.2-18.3,17.6C706.7,541.3,662.5,610.5,660.3,615.1"/>
	<path class="st9" d="M198.2,184.5c17.2,26.4,46.8,53.4,62.5,75.3c13.6,18.9,31.6,56.4,44.2,81.6c8.9,17.8,21.4,24,32.2,39
		c9.4,13,13.6-4.8,22.7-6c10.9-1.4-0.3-13-4.4-19.5c-1.1-1.7-2.7-5.5,10.4-7.4c5.9-0.9,5-13.2-7-21c-4.5-2.9-25.4-15.8-15.7-18.8
		c1.7-0.8,3.9,1.3,5,0.6c10.8-7.5-2.5-9.3-3.8-19.3c-0.5-4.4-9.3-2.3-14.3-4.5c-16.3-7.2-34.9-13.8-26.3-19.5
		c16.4-10.9,17.2-20.5,10-21.2c-6.8-0.6-9.5-6.3-10.4-9.4c-8.4-9.3,6.6-10.4,4-14.9c-1.6-2.7-11.3-8.4-31.4-13
		c-4.9-1.1-12.6,3.9-18.2,3.9c-10.3,0-13.1-1.8-2.5-11.1c8.1-7.1-12.1-6.1-10.5-13.8c0.9-4.4,9.5-8,15.6-14.7
		c-16.3-11-6.9-10.8-1.9-23.9c-38.2,1.6-41.3-3.4-49.8,14.2C202.8,172.9,200.2,186.4,198.2,184.5z"/>
	<path class="st10" d="M313.9,359.1c-10.4-16.9-21.2-38-29.8-54.9c-6.4-12.6-12-23.5-14.9-27.7c-18.7-26.8-52-68.7-73.2-89.8
		l-1.5-1.5l0.8-2c3.6-8.6,6.2-12.8,8-15.9c2.8-4.6,4.3-6.9,6.2-20.6l0.6-4l3.8,1.6c2.3,1,5.8,1.5,10.2,1.5c5.6,0,12-0.8,17.6-1.4
		c4.8-0.6,9.3-1.1,12.8-1.1c2.1,0,7.1,0,8.4,3.8c1.2,3.5-1.4,7.4-9.9,14.6c2.2,0.9,5.7,1.9,8.1,2.5c2,0.6,4.2,1.2,6.1,1.8l4.9,1.6
		l-3.6,3.6c-1.6,1.6-4.8,3.7-8.6,6.3c-3.3,2.2-8.8,5.9-11.2,8.1c3.5,1.5,6.8,2.1,9.3,2.6c3.5,0.7,6.4,1.3,7.1,4.2
		c0.7,3.2-2,5.5-8.9,10.6c-2.8,2.1-4.3,3.5-5.1,4.3c0.6,0.1,1.3,0.1,2.3,0.1c4.5,0,11-0.9,16.8-1.7c3.7-0.5,7.2-1,9.9-1.2
		c0.6,0,1.3-0.1,1.9-0.1c14.6,0,31.9,13.2,34.9,19.7l3.4,7.4l-7.5-3.2c-2-0.9-4.6-1.4-7.2-1.4c-1.2,0-2.2,0.1-2.9,0.2
		c0.1,0.1,0.2,0.1,0.3,0.2c8.2,4.6,6.4,9.8,5.6,12.3c-0.1,0.2-0.1,0.4-0.2,0.7c0.9,0.5,3.6,1.3,11.7,2.1l2.9,0.3l0,2.9
		c0,3.9-2.9,8.9-8.5,14.7c-2.9,3-6.2,5.9-9.4,8.2c2.5,1.6,4.7,3.3,6.9,4.9c7.4,5.6,13.8,10.5,28.2,10.5c2.7,0,5.7-0.2,8.9-0.5l8.4-1
		l-5.8,6.2c-2.3,2.4-2.8,3.7-3,4.3c-0.1,0.2-0.1,0.2,0.1,0.7c0.4,0.9,0.5,1.6,0.5,2.4c1.3,0.2,2.4,0.6,3.5,1.3
		c2.3,1.5,3.6,4,5.6,8.3l2.1,4.5h-4.9c-6.4,0-9.7,0.4-11.4,0.7c1.5,1.4,4.1,3.3,6.1,4.9c7.1,5.3,16.8,12.5,19.9,21.4
		c2.1,6,2.1,10.4,0.1,13.2c-1.6,2.2-4.1,3.3-7.5,3.3c-2.2,0-4.5-0.4-6.6-1c5.3,5.5,12.9,14.1,11.9,22.5c-0.3,2.6-2.2,4.3-5,4.3
		c-1.2,0-2.5-0.3-3.9-0.6c-1.2-0.3-2.4-0.6-3.2-0.6c-0.3,0-0.5,0-0.5,0.1c0,0-0.1,0.1-0.1,0.4c-2.3,7.5-6,11.3-11,11.3h0
		C336.3,389.9,327,380.4,313.9,359.1z M360.6,372.7c0.4,0.1,0.7,0.2,1.1,0.3c-0.5-5.8-7.4-13-11.2-17c-0.9-0.9-1.7-1.7-2.3-2.4
		c-1.4-1.6-3.6-4-2.4-6.6c0.3-0.7,1.2-2.2,3.7-2.2c1.3,0,3,0.5,5.2,1c2.5,0.7,5.6,1.5,8,1.5c0.7,0,2-0.1,2.4-0.6
		c0.2-0.3,1.1-1.9-0.9-7.5c-2.5-7.1-11.3-13.7-17.7-18.5c-6.5-4.8-10.8-8-9.4-12.1c1-3.1,4.5-4.4,13.3-4.7c-0.4-0.7-0.8-1.1-1.1-1.4
		c-0.8-0.6-2.9-0.6-6-0.7l-10.5-0.4l9-5.5c0.4-0.3,0.8-0.5,1-0.6c-0.5-1.6-0.6-3.2,0.2-5.2c-1,0-1.9,0.1-2.9,0.1
		c-16.6,0-24.4-6-32-11.8c-3.3-2.6-6.5-5-10.5-7l-5.3-2.7l5.2-2.9c6.4-3.5,15.5-12.1,18.3-17.5c-7.9-0.9-11.4-2.2-13-4.6
		c-1.5-2.2-0.7-4.5-0.2-6c0.3-1,0.5-1.6,0.4-2.1c-0.1-0.4-0.6-1.3-3.1-2.8c-3.8-2.2-5.4-4.6-4.7-7.3c0.8-3.1,4.5-4.8,10.2-4.9
		c-5.8-4.7-15.1-10-23.5-10c-0.5,0-1,0-1.4,0.1c-2.5,0.2-5.9,0.7-9.5,1.2c-6,0.8-12.8,1.8-17.7,1.8c-2.4,0-7.9,0-9.2-4
		c-1.3-4,3.2-8.1,8.3-11.8c2.1-1.5,3.5-2.7,4.5-3.5l-0.2,0c-3.2-0.6-8-1.6-13-4.1c-1.5-0.7-2.4-2.1-2.4-3.6
		c-0.2-3.8,4.4-7.3,15.1-14.4c1-0.7,2.1-1.4,3-2c-9-2.6-13.3-3.9-14.1-7.5c-0.2-0.8-0.3-2.7,1.7-4.3c6-4.8,8.3-7.5,9.2-8.8
		c-0.4,0-1-0.1-1.8-0.1c-3,0-7.4,0.5-12,1.1c-5.8,0.7-12.4,1.5-18.3,1.5c-3.4,0-6.4-0.3-8.9-0.8c-1.8,11.3-3.4,14.3-6.5,19.4
		c-1.7,2.8-3.8,6.2-6.8,13.1c21.5,21.7,54.1,62.8,72.5,89.1c3.2,4.6,8.6,15.1,15.3,28.4c8.6,16.9,19.3,37.8,29.5,54.5
		c5.5,8.9,10.4,15.8,14.6,20.5c5.7,6.4,8.9,7.3,10.3,7.3h0c2.5,0,4.1-3.7,5-6.9c0.9-3.1,3.4-4.9,6.7-4.9
		C357.5,371.9,359.1,372.3,360.6,372.7z"/>
	<path class="st11" d="M419.2,446.8C301.4,378.1,299.9,308.4,259,256.2c-52.7-67.1-75.4-76.6-72.5-99.5c0-18.7,13.1-40.6,13.1-61.4
		c0-9.1-22.3,41.6-24.7,45.4c-7.6,12.3,4.1,37.6-6.5,17.5c-2.6-4.9-62.4,23.8-68.1,50.4c-0.9,4.1-2.9,66.3-3.4,70
		c0,0,8-8.1-21.3,32.7C39.2,377.1,45,378.6,51.8,427.7c3.9,28.3,81,49.9,109.7,25.6c29.3-24.9,0.9-51.3,33.6-84
		c28.8-13.9,74.6,124.8,93.1,199.6c8.6,35.1,42.9,0.2,72.5-24.1C395.3,516.3,422.2,441.3,419.2,446.8"/>
	<path class="st12" d="M202.9,367c37.6,31.8,55.6,84.6,65.7,132.9c3.2,15.4,6.7,37.5,14.7,49.8c2.2,3.4,5.5,30.1,6.6,24.3
		c0.6-3,0.9-5.7,1.8,4.4c2.4,29.2,78.8-35.8,77.2-64.1c-2.2-40.1-73.1-51-80.4-94c-4.4-26.1-10.4-47.2-36.2-57.7
		c-11-4.5-62.1-76.6-48.5-54.2C211.4,320.8,204.3,363.6,202.9,367"/>
	<path class="st9" d="M65.4,270.6C78,211,146.7,234,163.5,192c4.9-12.2,13.3-19.3,8.5-30.1c-2.4-5.5-23.9-20-29.5-8.8
		c-9.8,19.6-68.2-12.8-80.8,9.4c6.8,0.7,19.3,6.8,15.2,6.8c-23.4,0-27.6,13.1-38.8,27.9c-2.3,3-5.4,22.4-5.8,26.4
		c8.7-3.5,13.8-10.2,13.8-3.3c0,25.8,8.8-11.6,8.8,14.6C54.8,241.1,51,254.8,65.4,270.6z"/>
	<path class="st13" d="M46.5,227.6c-0.3-2.9,8.1-8.9,10.5-11.3c0.8-0.8,7-8,7.8-5.2c1,3.7-7.3,10.3-9.6,12.5c-2,2-4.6,4.3-5.6,6
		C48.8,231.1,46.2,229.6,46.5,227.6z"/>
	<path class="st13" d="M170.3,161.7c-0.6,5.9-22.5,7.7-40.8,11.3l-35.4,7c-8.7,1.7,27.6-4.3,34.4,2c0.7,0.7-25.6,6-34.2,10.6
		c-3.4,1.8-9.4,6-11.7,8.8c-1.5,1.8,14.7-0.8,14.1-0.6c-20.8,8-29.9,25.3-32.6,42.4c-0.8,5.4-0.8,21.5,0.3,26.2
		c2,8.8,2.7-12.2,8.5-18c10.8-10.8,22-18.3,34.8-24.7c8.6-4.3,25.3-4.5,32.4-12.3l24.9-27.1C170.9,180.7,174.9,168.1,170.3,161.7z"
		/>
	<path class="st13" d="M34.6,218.6c0.7-5.5,11.3-11.3,16.1-13.2c3.6-1.5,6.4,3.7,1.4,6.3C43.3,216.3,44.6,223.1,34.6,218.6z"/>
	<path class="st10" d="M62,275.7c-4.4-6-8.8-12.7-11.3-21.1c-1.8-6.3-2.3-12.7-1.3-19.2c-0.8,0.6-1.8,1.3-2.9,2.1l-4.2,2.9l-0.7-5.1
		c-0.2-1.6-0.5-3-0.8-4.5c-0.7-3.4-1.3-6.7-0.7-10.2c-0.7,0.7-1.3,1.9-2.3,3.7c-0.6,1.1-1.3,2.4-2.2,4l-3.8,6.6l-1.9-7.4
		c-3.6-13.6,0.3-27.3,11.3-39.7c7.2-8.1,17.4-15.4,28.2-20.2c-1.6-1-2.5-1.5-3.2-1.8c-0.8-0.2-1.9-0.2-4.2-0.2l-1.4,0l-8.5,0
		l5.7-5.4c8.9-8.4,30.3-9.3,39.2-9.3c3.8,0,12.2,1,21.9,2.3c10.1,1.3,21.5,2.7,26.6,2.7c0.7,0,1.2,0,1.4-0.1c0.1-1.3-3.5-6-9.3-9.4
		l-6.5-3.9l7.3-1.9c0.7-0.2,1.5-0.3,2.3-0.3c6.1,0,14.2,5.6,21.3,10.5c3.6,2.5,7.4,5.1,9.3,5.8l0.8,0.3l0.5,0.6
		c3,3.2,5.8,9.5,1.6,21c-3.3,9-10.5,19.8-19.2,28.8c-9.1,9.4-18.3,15.3-25.2,16.1c-23.8,2.7-53.8,13.8-62.2,51.1l-1.5,6.8L62,275.7z
		 M158.5,156c-2-1.4-4.2-2.9-6.4-4.3c0.7,1.3,1.1,2.7,1.1,4c0,2.3-1.1,4.3-3.2,5.6c-1,0.6-2.2,0.8-4.5,0.8c-5.5,0-16.6-1.4-27.3-2.7
		c-8.7-1.1-17.7-2.2-21.1-2.2c-9,0-19.5,1-27.1,3.4c0.9,0.5,1.9,1.1,3.2,1.9c1.2,0.8,2.7,1.7,4.8,3l5.7,3.4l-6.3,2.3
		c-11.9,4.3-23.7,12.1-31.5,20.9c-5.2,5.9-10.8,14.5-11,25c1.9-2.4,4.4-3.6,10.2-4.4l6.9-0.9l-3.9,5.8c-2.6,3.9-2.1,7.1-1.1,11.9
		c2.4-1.9,3-2.7,3.5-3.6c0.6-0.9,1.4-2,3.2-3.6l5,3.5c-6.9,16.6-2.6,29.5,4.6,40.7c4.4-13.9,12.2-25.2,23.2-33.5
		c11.2-8.5,25.6-13.8,42.6-15.7c5.3-0.6,13.4-6.1,21.4-14.2c8.2-8.4,14.8-18.4,17.9-26.6c1.6-4.5,3-10.5,0.2-14.1
		C165.8,161.1,162.4,158.7,158.5,156z"/>
	<path class="st13" d="M340.2,385.8c-15.2-22.6-36-46.9-49.3-73.4c-22-43.9-53.6-77.9-77.2-116.3c-5.7-9.2-26.5-14.3,0-23.5
		c5.5-1.9,18.6,4.4,17.5,4.4c-20.6,0-5.4,7.4,7.6,15.9c17.3,11.3-11.3-1.7-1.6,14.7c7,11.7,22.5,21.2,33,30.7
		c3.5,3.1,20,9.3,21.1,11.9c0.8,1.8-12.5,0-15.9,0c-1,0,1.5,16,7.6,20.3l22.7,15.9c2.7,1.9,21,11.1,17.5,11.1
		c-15.2,0-13.7,3.7-3.2,8.4c9.9,4.4,25.2,12.9,4.5,12.9c-21.3,0,11.6,8.2,16.2,14.2c6.2,8.1-8.5,1-14.7,5.2
		c-5,3.4,20.7,19.3,20.7,27.5c0,2.4-14.2-3.3-12.7-1.2C335.3,366.5,342.6,386.7,340.2,385.8z"/>
	<path class="st13" d="M340.2,385.8L340.2,385.8L340.2,385.8c-4.9-7.3-10.3-14.6-16-22.4c-11.9-16.2-24.3-33-33.3-51
		c-13.2-26.4-30-49.3-46.3-71.5c-11.1-15.1-21.6-29.4-31-44.7c-1.6-2.6-4.3-4.8-6.9-6.9c-3.4-2.8-6.7-5.5-6.2-8.3
		c0.5-2.8,4.7-5.5,13.1-8.4c0.7-0.2,1.5-0.4,2.5-0.4c3.3,0,7.5,1.4,9.8,2.2c2.9,1.1,5.4,2.3,5.4,2.5l0,0.1l-0.1,0
		c-6.3,0-9.6,0.7-10,2.1c-0.6,2.2,5.3,5.9,12.1,10.2c1.8,1.1,3.7,2.3,5.5,3.5c4.2,2.8,5.9,4.2,5.7,4.8c-0.1,0.5-1.3,0.6-2.7,0.6
		c-2.2,0.1-5.2,0.2-6.2,2.1c-0.8,1.5-0.2,3.9,1.7,7.2c4.8,8.2,13.8,15.2,22.5,22c3.8,3,7.4,5.8,10.6,8.6c1.6,1.4,5.9,3.5,10.1,5.5
		c5.1,2.4,10.3,5,11,6.4c0.1,0.1,0,0.2,0,0.3c-0.2,0.3-1.2,0.5-3,0.5c-2.3,0-5.3-0.2-8.1-0.5c-2.1-0.2-3.8-0.3-4.8-0.3l-0.1,0.2
		c-0.3,0.8,0.2,4.7,1.5,9.2c0.9,3.1,3,8.6,6.2,10.9l22.7,15.9c0.8,0.6,3.2,1.9,6,3.4c6.9,3.8,12.2,6.8,12,7.6c0,0.1-0.2,0.2-0.5,0.2
		c-7,0-10.9,0.8-11.2,2.3c-0.3,1.4,2.5,3.5,8,6c4.7,2.1,15.5,7.3,14.8,10.5c-0.4,1.7-3.8,2.5-10.3,2.5c-4.6,0-6.9,0.4-7.1,1.2
		c-0.2,1.2,4.5,3.3,9.6,5.5c5.5,2.4,11.8,5.1,13.6,7.5c1.3,1.7,1.7,2.8,1.4,3.4c-0.3,0.5-1.1,0.8-2.5,0.8c-0.9,0-1.9-0.1-3.1-0.2
		c-1.3-0.1-2.8-0.2-4.2-0.2c-2.9,0-4.9,0.4-6.3,1.4c-0.4,0.3-0.6,0.6-0.6,1c-0.2,2.2,4.3,6.4,9,10.8c5.8,5.4,12.3,11.5,12.3,15.6
		c0,0.4-0.4,0.6-1.3,0.6c-1.5,0-4.2-0.7-6.6-1.3c-1.9-0.5-3.7-1-4.5-1c-0.2,0-0.4,0-0.4,0.1c0,0.1,0,0.2,0.1,0.3
		c0.7,0.9,2.5,5.6,4.2,10.5c0.9,2.8,3.1,9.4,2.5,10.6c-0.1,0.1-0.1,0.2-0.3,0.2L340.2,385.8z M338.9,365c2.4,0.6,5.1,1.3,6.6,1.3
		c0.8,0,1.2-0.2,1.2-0.6c0-4.1-6.5-10.2-12.3-15.6c-5-4.6-9.2-8.6-9-10.8c0-0.4,0.3-0.8,0.7-1.1c1.5-1,3.5-1.4,6.4-1.4
		c1.4,0,2.9,0.1,4.2,0.2c1.1,0.1,2.2,0.2,3.1,0.2c1.5,0,2.2-0.2,2.5-0.7c0.3-0.6-0.2-1.7-1.4-3.3c-1.8-2.4-8.1-5.1-13.6-7.5
		c-5.3-2.3-9.9-4.3-9.7-5.6c0.2-0.8,2.4-1.2,7.1-1.2c6.4,0,9.9-0.8,10.2-2.4c0.7-3.1-10.1-8.3-14.8-10.4c-5.6-2.5-8.4-4.6-8.1-6.1
		c0.3-1.6,4.1-2.4,11.3-2.4c0.2,0,0.4,0,0.4-0.1c0.2-0.8-6.8-4.7-12-7.5c-2.8-1.5-5.1-2.8-6-3.4L283,270.6
		c-3.3-2.3-5.3-7.8-6.2-10.9c-1.3-4.5-1.8-8.4-1.5-9.2c0-0.1,0.1-0.2,0.2-0.2c1,0,2.8,0.1,4.8,0.3c2.7,0.2,5.8,0.5,8.1,0.5
		c1.8,0,2.8-0.2,3-0.5c0-0.1,0.1-0.2,0-0.3c-0.6-1.4-5.9-4-10.9-6.4c-4.2-2-8.6-4.1-10.1-5.5c-3.2-2.8-6.8-5.7-10.5-8.6
		c-8.7-6.8-17.7-13.8-22.5-22c-2-3.3-2.5-5.7-1.7-7.2c1-1.9,4.1-2,6.3-2.1c1.4-0.1,2.6-0.1,2.7-0.6c0.2-0.6-1.5-2.1-5.6-4.8
		c-1.8-1.2-3.7-2.4-5.5-3.5c-6.9-4.3-12.8-8-12.2-10.3c0.4-1.5,3.7-2.2,10.1-2.2l0,0c-0.1-0.2-2.4-1.4-5.4-2.5
		c-2.2-0.8-6.4-2.2-9.7-2.2c-1,0-1.8,0.1-2.5,0.4c-8.4,2.9-12.6,5.6-13.1,8.3c-0.5,2.8,2.7,5.4,6.2,8.2c2.6,2.1,5.3,4.4,6.9,6.9
		c9.4,15.3,19.9,29.6,31,44.7C261,263,277.8,286,291,312.4c9,18,21.3,34.7,33.3,51c5.7,7.8,11.1,15.1,16,22.4c0.1,0.1,0.3,0,0.3-0.1
		c0.4-0.8-0.5-4.7-2.5-10.5c-1.6-4.8-3.5-9.6-4.2-10.5c-0.1-0.2-0.1-0.3-0.1-0.4c0.1-0.1,0.2-0.2,0.5-0.2
		C335.1,364.1,336.9,364.5,338.9,365z"/>
	<path class="st14" d="M202.2,98.1c-1.9,9.4-0.6,15.8-4.3,24c-4.8,10.8-15.5,30.4-11.9,43.4c2.4,8.8,3.8,17,13.3,15.9
		c6.3-0.7,14.7-37,14.7-45.4c0-8.8,0-15.9-4.4-23.3C207.7,109.4,202.2,98.2,202.2,98.1z"/>
	<path class="st15" d="M201.2,105c-2,12.7-8.5,24.6-11.6,36.8c-1,4-3.4,25.7-1.2,27.9c1.8,1.8,4.2-11.1,4.8-12.7
		c1.6-4.7,4.6-9.8,6.2-14.7c2.5-8,4.8-13.7,4.8-22.3C204.1,117.5,203.4,104.4,201.2,105z"/>
	<path class="st10" d="M366.1,415.5C352.1,403.7,339,390,327.2,375c-21-26.8-34.6-53.4-46.7-78.4c-16.6-34.3-47.2-67.5-69.6-91.8
		c-11.3-12.3-20.3-22.1-24.3-28.6c-7.9-12.8-1.1-33.1,4.9-51c3.7-11.1,7.5-22.5,5.9-27.5c-2,11.5-8,23.3-13.3,34
		c-5.3,10.5-10.3,20.4-10.5,27.9l-6.3-0.2c0.3-8.8,5.6-19.3,11.2-30.5c6.2-12.4,12.6-25.2,13.3-37l0.2-3.6l3.5,0.7
		c3.1,0.6,5.5,2.2,6.9,4.7c0.1,0.1,0.1,0.2,0.2,0.4c13.2,11.2,13.2,32,13.1,50.3c0,1,0,1.9,0,2.8c0,5.4-2.1,13.8-5.4,22.1
		c-1.4,3.5-4.8,11.1-8.9,15.6c4,4.5,8.8,9.8,14.2,15.6c22.6,24.5,53.5,58.1,70.6,93.3C306.1,335,339.4,403.7,422.7,445l-2.8,5.6
		C400.4,441,382.3,429.2,366.1,415.5z M197.5,127.3c-5.5,16.6-11.8,35.4-5.5,45.7c1.2,2,3,4.4,5.3,7.2c5.4-6.6,12.2-24.1,12.2-32.9
		c0-0.9,0-1.9,0-2.9c0-13.7,0.1-28.9-5.8-39.1C202.8,111.4,200.3,118.9,197.5,127.3z"/>
	<path class="st12" d="M113.3,153.7c-0.9-8.7-0.1-20.5,2.2-29.5c2.8-10.7,8.4-5.1,12,2.9c4.3,9.5,12.3,16.6,14.9,26
		c1.7,6.2-7.7,3.6-11.7,3.6c-4,0-8.1,0.2-12,0C115.8,156.5,116.5,154.1,113.3,153.7z"/>
	<path class="st12" d="M51,368.6c-6.7-4.9-13.5,2.8-15.9,8.1c-2.4,5.3-0.3,9,1.9,13.6c1.4,2.9,2.9,4.1,6.1,4
		c5.8-0.3,7.7-14.6,7.7-19.3C50.7,373.8,50,369.1,51,368.6z"/>
	<path class="st12" d="M55.9,349.6c-22.9,56.7-4.9,109.7,59.6,116.1c17.4,1.7,33.5,2.1,45-11.7c7.1-8.5,13.1-3.6,13.1-16.6
		c0-4.9,7.3-16.1,2.1-13.3C134.4,446,60.4,441.7,53.5,361C53.3,357.6,53.8,343.3,55.9,349.6z"/>
	<path class="st12" d="M209.4,333.1c-3.6,6.8-1.6-12-2.4-3.8c-3.6,34.5-29.5,28.5-37.6,35.3c8.1,11.8,4.1,19.8,4.8,27.2
		c0.9,8.7,9-8.7,13.8-13c7.1-6.4,11.2-12.8,15.1-21.1C205.2,353.4,209.4,333,209.4,333.1z"/>
	<path class="st10" d="M113.9,469.3c-15.8-1-31.3-6-42.7-13.8c-14.8-10.1-23.9-24.3-26.9-42c-3.5-20.5,1.1-45.5,13.6-74.3
		c11.8-27.2,27.2-49.9,35.7-61.6c-1.3-26.7,1.1-47.2,6.2-52.4c1.4-1.4,2.9-1.7,3.8-1.7l-0.2,6.3c0.5,0,0.8-0.2,0.9-0.2
		c-1.8,1.5-6.1,15.9-4.4,48.8l0.1,1.1l-0.7,0.9c-28,37.9-55.6,92.5-48.9,132.1c2.7,16,10.8,28.7,24.2,37.8
		c22.7,15.5,58.5,17.2,79.9,3.9c15.9-10,22.6-27.1,19.3-49.6c-2.1-14.5,6.6-22.6,14.3-29.7c4.7-4.4,9.2-8.6,11-13.9
		c9-26.8,9-26.8,2.2-49.8c-0.9-3.2-2-6.8-3.2-11l6-1.7c1.2,4.2,2.2,7.8,3.2,10.9c7.2,24.4,7.1,25.4-2.3,53.6
		c-2.3,6.8-7.5,11.7-12.6,16.5c-7.2,6.7-14,13-12.3,24.2c1.9,13.1,0.7,24.6-3.5,34.4c-3.9,8.9-10.2,16.1-18.7,21.5
		c-10.3,6.5-23.7,9.9-38.3,9.9C117.8,469.5,115.9,469.5,113.9,469.3z M111.1,155.9l-0.5-0.5l-0.2-0.7c-2.1-6.9-1.9-11.9-1.3-19.3
		c0-0.1,0-0.2,0-0.3c0.6-9.5,3-21.4,10.7-24.1l2.3-0.8l1.4,2c2.4,3.5,4.4,7.5,6.5,11.7c2.6,5.2,5.2,10.5,8.9,15.2
		c0.8,1,1.6,2.5,2.6,4.1c1.8,3.1,4.9,8.3,7.2,8.9l4.5,1.2l-2.8,3.7c-1.1,1.4-3.3,3.1-11.6,3.6c-1.1,0.1-2.5,0.1-4,0.1
		C126.7,160.7,114.7,159.6,111.1,155.9z M135.9,146.3c-0.8-1.4-1.6-2.7-2.2-3.4c-4-5.2-6.8-10.8-9.5-16.3c-1.4-2.9-2.8-5.7-4.3-8.2
		c-2.3,2.8-4,9.1-4.5,17.1c0,0.2,0,0.3,0,0.4c-0.6,7-0.7,10.9,0.8,16c1.7,0.9,6.7,2.1,14.3,2.5c4.5,0.2,8.1,0,10.7-0.3
		C139,151.7,137.3,148.8,135.9,146.3z"/>
	<path class="st12" d="M151.7,394.6c-1.2-5.4-2.3-14.4-5.7-16.5c-4.6-2.9-8.5-6.4-13.5-6.4c-4.9,0,0,4.3,2.2,4.7
		c6.6,1.4,9.3,5.6,12.3,15.3c0.7,2.2,1.2,5.2,2.2,6.6C149.6,398.8,152.8,395,151.7,394.6z"/>
	<path class="st10" d="M290.4,582.9l5.6-2.8c-5.8-11.6-15.4-46-23.8-76.2c-6.3-22.8-12.3-44.3-16.2-54.6c-1.9-4.9-3.6-9.9-5.2-14.8
		c-5-15.1-9.8-29.3-20.9-42.6c-0.8-1-1.6-1.9-2.4-2.9c-8.3-10-17.8-21.4-24.9-26l-3.4,5.3c6.3,4.1,15.4,15.1,23.4,24.8
		c0.8,1,1.6,2,2.4,2.9c10.3,12.4,14.9,26.1,19.7,40.6c1.6,4.9,3.3,9.9,5.3,15c3.8,10,9.8,31.4,16.1,54
		C275.1,537.6,284.3,570.7,290.4,582.9"/>
	<path d="M149.8,400.8c3.8-1.8,5.4-6,4.3-11.3c-1.1-4.9-4.3-9.9-8.9-13.7c-3.8-3.1-10.2-6.8-19.6-6.9c-7.5-0.1-23.2-0.2-27.2,17.3
		l3.7,0.8c3.1-13.5,13.7-14.5,23.5-14.4c8.2,0.1,13.9,3.3,17.2,6.1c3.9,3.2,6.7,7.5,7.6,11.6c0.4,1.7,0.9,5.7-2.2,7.1L149.8,400.8z"
		/>
	<path class="st10" d="M44.7,398.7l1-6.2c-6.2-1-10-4.6-10-9.4c0-5.1,4.7-11.1,15-12.7l-1-6.2c-14,2.2-20.3,11.1-20.3,18.9
		C29.5,391,35.5,397.1,44.7,398.7z"/>
	<path d="M134,395.6c-2.2,0.2-3-5.8-8.1-6.9c-6.5-1.4-16.9,1.6-12.4-3C125.3,373.3,150.7,394.1,134,395.6z"/>
	<path d="M130.7,394c-1.1-1.7-2.4-3.7-5-4.2c-1.3-0.3-2.8-0.4-4.8-0.4c-1,0-2,0-2.9,0.1c-0.8,0-1.6,0-2.4,0c-1.9,0-3.6-0.1-4.1-1.5
		c-0.4-1.2,0.5-2.4,1.3-3.2c2.6-2.7,6.1-4.2,10.1-4.2c8,0,17.3,6,17.5,11.3c0.1,1.6-0.7,4.4-6.4,4.9l-0.2,0
		C132.5,396.7,131.6,395.4,130.7,394z M114.2,386.5c-0.2,0.3-0.4,0.5-0.5,0.6c0.3,0.1,0.9,0.1,2,0.1c0.7,0,1.5,0,2.3,0
		c1,0,2-0.1,3-0.1c2.1,0,3.8,0.1,5.1,0.4c3.3,0.7,5,3.3,6.2,5.1c0.6,0.9,1.2,1.8,1.6,1.8l0,0c1.4-0.1,4.7-0.6,4.6-2.5
		c-0.1-3.3-7.8-9.1-15.5-9.1C119.4,382.9,116.5,384.1,114.2,386.5z"/>
	<path class="st8" d="M110.2,255.9c8.1-3.7,10.4-4.5,19.7-1.2c6.9,2.5,5.9,8.6,3.7,14c-4.5,0.2-6.6,2.2-13.6,2.3
		c-6.5,0.1-7.9-1.5-12.7-1.8C103.5,263.7,106.3,258.7,110.2,255.9z"/>
	<path class="st10" d="M111.6,271.8c-1.4-0.3-2.7-0.7-4.5-0.8l-0.9-0.1l-0.5-0.7c-4.5-6.5-1-12.6,3.3-15.8l0.2-0.1l0.2-0.1
		c4.6-2.1,7.7-3.5,11.3-3.5c2.6,0,5.4,0.6,9.8,2.2c2.9,1,4.8,2.7,5.8,5c1.3,2.9,1,6.7-1,11.4l-0.5,1.1l-1.2,0
		c-1.7,0.1-3.1,0.4-4.7,0.9c-2.3,0.6-4.8,1.3-9,1.4c-0.2,0-0.4,0-0.5,0h0C115.7,272.8,113.5,272.3,111.6,271.8z M132.8,259.5
		c-0.6-1.3-1.8-2.3-3.7-3c-3.9-1.4-6.4-2-8.5-2c-2.7,0-5,0.9-9.6,3c-1.9,1.5-5.5,5.1-2.8,9.9c1.6,0.2,2.9,0.5,4.1,0.8
		c1.9,0.5,3.7,0.9,6.9,0.9c0.2,0,0.3,0,0.5,0c3.7-0.1,5.9-0.7,8-1.3c1.4-0.4,2.7-0.8,4.3-0.9C133.4,263.7,133.6,261.2,132.8,259.5z"
		/>
	<path class="st8" d="M152.2,255.4c7.4-3.4,17.9-2.3,21.3,1.9c3.8,4.6,2.9,12.7,1.6,15c-3.7-0.5-10.6-3.3-15.6-3.3
		c-6.4,0-8.9,0.8-12.8-0.3C145.3,265.6,147,257.8,152.2,255.4z"/>
	<path class="st10" d="M174.8,274.1c-1.5-0.2-3.4-0.8-5.5-1.3c-3.3-0.9-7-1.9-9.8-1.9c-2.1,0-3.7,0.1-5.2,0.2
		c-3.1,0.2-5.3,0.3-8.2-0.6l-0.8-0.2l-0.4-0.8c-1-2.1-0.9-5.4,0.3-8.6c1.2-3.4,3.4-5.9,6.1-7.2h0c8.1-3.7,19.5-2.6,23.6,2.4
		c4.2,5.2,3.5,14.2,1.7,17.2l-0.6,1.1L174.8,274.1z M153,257.1L153,257.1c-2.4,1.1-3.6,3.7-4.2,5.1c-0.7,1.9-0.8,3.8-0.6,4.9
		c1.9,0.4,3.5,0.3,6,0.2c1.5-0.1,3.2-0.2,5.4-0.2c3.4,0,7.3,1.1,10.8,2.1c1.3,0.4,2.5,0.7,3.6,0.9c0.7-2.7,0.8-8.4-1.8-11.7
		c-1.6-1.9-5.6-3.2-10.1-3.2C159,255.2,155.8,255.8,153,257.1z M164.5,239.6c-5,0.2-9,4.2-10.4,6.4l-3.1-2.1
		c1.9-2.9,6.9-7.8,13.4-8.1c5.2-0.2,10,2.6,14.3,8.3l-3,2.3C172.1,241.8,168.4,239.5,164.5,239.6z M120.7,238.5L120.7,238.5
		c-4,0-7.8,1.8-9.8,4.6l-3.1-2.2c2.7-3.8,7.7-6.2,12.9-6.2l0,0c6,0,11.4,3.1,15.3,8.7l-3.1,2.2C129.8,241,125.4,238.5,120.7,238.5z"
		/>
	<path d="M156.9,268.7c-5.1-0.6-2.2-8.3,2-8.7C168.2,259.3,167.5,269.7,156.9,268.7z"/>
	<path d="M117.8,269.7c-5.2-1.2-5.8-8.1,0.1-8.5C126.8,260.5,124.6,270.5,117.8,269.7z"/>
	<path class="st12" d="M102.7,281.1c12.3-2.8,38.2-2.8,49.6,0.7c5,1.6,10.6,2.6,15.7,3.7c14,2.9,6.9-0.8,0.4-4.4
		c-1.5-0.8-15.6-5.6-17.7-5.8c-8.5-0.7-18.7-1.3-28.1-1.3C116,274,107,278.5,102.7,281.1z"/>
	<path class="st8" d="M617.8,572.1c-44.4,7.3-80.3,44.7-142.4,17.7c-34.6-15-68.5-13.2-95.3-11.4c-40.6,2.8-64.9,5.5-50.4-50.2
		c22.5-86.9,78.4-194.3,97.8-278.2c11.5-49.5,45-168.1,69.9-172c75.5-11.8,87.3,4.8,91,92.5c1.3,31.6,13.2,57.8,15.6,79.4
		c4.2,36.2,35.6,57.4,0,87.8C553.2,381.4,608.2,514.7,617.8,572.1"/>
	<path class="st16" d="M447.9,386.5c19.2,5.5,31.2,3.2,41.9,9.5c19.3,11.4,43.2,13.1,65,13.1c14.2,0-8.6,3.5-1.8,3.2
		c1.9-0.1-4.3,9.3-14.6,9.3C517.1,421.6,450.7,407,447.9,386.5z"/>
	<path class="st12" d="M570.7,102c-17.1-1.9,3.7,16.6-6.5,15.7c-3.3-0.3,0.2-4.6-4.1-3.2c-8.6,3-21.1,68.9-15.1,81
		c5.4,10.8,23,17.9,26.1,29c8.8,31.6-6.7,38.1,25.3,45.5c20.8,4.8,20.8,14.9,13.3-14.8c-6.2-24.8-19.2-65.2-19.2-91.9
		C590.5,141.6,591.3,114.5,570.7,102z"/>
	<path class="st12" d="M582,392.2c-5.7,8.1-40.8,18.9-29.9,30.9c18.9,20.8-1.5,82.6,26.6,96.7c20,10-17.7,14.2-21.7,19.9
		c-8.9,12.8,25.2,15.8,29.3,17.3c2.9,1.1,33.7,31.4,30.4,6.5c-3.3-25.2-6.3-63.1-15.8-86.4c-6.1-15-9.5-34.2-12.9-50.5
		C586.9,420.9,587.2,389.5,582,392.2"/>
	<path class="st12" d="M462.4,126.7c28.6-82.3,98.3,56.1,43.1,81.3c-24.8,11.3-5.1,41.7-18.2,53.6c-25,22.9-93.4,19.7-63.4,82.5
		l9.8,20.4c14.1,29.4,19,31.1,32.8,39.5c27.1,16.3-16,169.3-16,63c0-26.8-34.1-15.7-40.3,3.1c-2.6,7.9-2.2,17.3,4.4,19.1
		c31.9,8.5-16.7,39.7-33.9,33.5c-19.8-7.1-64.9,63.6-51,0.5c30-135.8,66-180.1,67.1-183.3l27.9-79.4c28.3-80.4,20.3-83.1,34.1-121.6
		C460.6,134.1,463.8,126.5,462.4,126.7z"/>
	<path class="st17" d="M487.8,388.8c6.9,13.4,31,18.3,45.3,21.2c17.8,3.6,29.8-1.7,45.4-11.5c17.4-11-31.5-23.1-40.6-23.9
		c-11.5-1.1-19.4,2.1-28.8,7.1C504.8,383.9,487,387.8,487.8,388.8z"/>
	<path class="st12" d="M572.2,101.4c6.5-0.6,13.7-3.2,20.7-4.3c7.8-1.2,49-0.8,53.2,3.1c5.2,4.8,7.2,4.1,11.5,10.4
		c3.2,4.7,12.8,16,2,14.6c-8-1-21.9-8.7-30.6-11.1C607,108.3,582.6,125,572.2,101.4z"/>
	<path class="st12" d="M451.9,542.3c7.2-13.7,29-72.5,46-74.7c9.8-1.3-9.6,49.6-7.5,61c0.6,3.3,5.9,1.2,11.5-0.8
		c5.2-1.9,10.5-3.8,12.5-1.4c2,2.6,16.7,24.1,18.2,25.3c2.1,1.6,4.9,26.2,0.9,26.2c-15.3,0-34.3-7.9-50.5-12.4
		c-10.6-3-15.9-19.3-30.2-12.4C446.4,556,441.5,545.8,451.9,542.3"/>
	<path class="st15" d="M603.1,271.7c35.2,10.7,46.9,76.7,23.5,102.6c-36.2,39.9-64.4-8.7-102,0.2c-36.7,8.7-56.8,29.8-87.3-2.4
		c-31.7-33.5-21-68.3,6.7-96c14.4-14.4,57.6-14.7,77.1-12C535.8,266.1,601.1,259.5,603.1,271.7z"/>
	<path class="st18" d="M580.9,396.5c-11.1-7.9-26.2-15.7-40.6-19.1c-9.5-2.2-18.1,0.7-27.5,2.3c-2.8,0.5-20.7,6-22.5,8.2
		c-5.5,6.7,11,1.9,13.8,1.3c15.9-3.6,40.7-3.7,57-0.2C565,389.7,581.3,397.2,580.9,396.5z"/>
	<path class="st17" d="M638.1,326.4c-17.8,88.5-58.8,32.5-102.6,29.5c-21.8-1.5-33.3,8.7-47.6,17.5c-12.8,7.9-35.6,12.5-48.6-5.6
		l-16.6-26.5c19.9,93.5,79.4,26.1,126,37c30.2,7.1,33.3,17.4,66,7.5C638.4,378.7,633.8,326.1,638.1,326.4z"/>
	<path class="st19" d="M462.6,181.8c1,10.2-2.1,48.6-8.7,56c-6.3,7.2-10,26.2-14.5,36.2c-5,11,21.6-2.8,24-5.2
		C468.8,263.6,474,162.2,462.6,181.8z"/>
	<path d="M467.5,397c-12.4,0-24.8-5.7-36.9-23.9c-18.6-27.8-21.2-56.6-7.1-78.8c0.8-1.2,1.6-2.4,2.5-3.6
		c21.9-36.5,32.6-73.2,32.8-112.4l7.9,0c-0.1,33.2-7.5,64.8-22.7,95.8c6.8-4.4,14.7-8,23.5-10.7c21.1-6.4,46.2-7.6,74.7-3.4
		c24.9-1.9,45.6,0.7,61.5,7.7c2.8,1.2,5.5,2.6,8,4.1c-6.7-16.1-12.2-36-15.5-49.2c-5.9-23.8-11.4-52.5-9.8-59.1
		c4.7-18.7,1.5-34.7-9.5-47.5c-15.3-17.8-43.1-25.6-57.3-24.3c-44.3,4-49.1,20.7-55.1,41.8c-0.6,2.1-1.2,4.3-1.9,6.4l-7.6-2.3
		c0.6-2.1,1.2-4.2,1.8-6.3c3-10.7,6.2-21.8,14.9-30.5c9.6-9.6,24.6-15,47.1-17c15.3-1.4,46.2,6.3,64,27.1c5.9,6.9,10,14.8,12,23.4
		c2.3,9.6,2,20.1-0.8,31.2c-0.8,3.5,2.6,26.8,9.8,55.5c7.9,31.6,16.7,55.2,24.2,65.1c2.5,3.1,4.6,6.4,6.4,10
		c8.8,17.1,8.3,36,6.5,48.9c-2.3,15.9-7.7,28.1-11.6,32.8c-10.9,12.8-22.6,19.1-36,19.1c-0.2,0-0.4,0-0.6,0
		c-11.7-0.2-22.5-4.9-32.9-9.5c-8.7-3.8-16.9-7.4-24.1-7.6c-12.8-0.3-24.9,4.5-36.6,9.1C488.7,392.8,478.1,397,467.5,397z
		 M510.4,265.4c-37.7,0-66.7,11.6-80.3,33.1c-12.4,19.5-9.8,45.1,7,70.2c8.8,13.1,17.7,19.5,28.2,20.3c9.6,0.7,20-3.4,30.9-7.7
		c12.4-4.9,25.3-9.9,39.7-9.6c8.8,0.2,17.7,4.1,27.2,8.2c20.2,8.9,39.3,17.3,60.3-7.5c2.6-3.1,7.6-13.7,9.8-28.9
		c1.7-11.7,2.1-28.9-5.7-44.1c-1.4-2.8-3.1-5.5-5-7.9l0,0c-0.3-0.4-0.6-0.8-0.9-1.2c-14.5-17.9-41.1-25.5-79.2-22.6l-0.4,0l-0.4-0.1
		C530.6,266.2,520.2,265.4,510.4,265.4z"/>
	<path class="st20" d="M594.5,300.8c18.7-2,10.1,40.8-2.8,42.3C568.4,345.9,574.6,300.8,594.5,300.8z"/>
	<path d="M589.7,346.8c-5.4,0-9.8-2.3-12.8-6.6c-2.4-3.6-3.7-8.3-3.7-13.8c0-13.9,8-28.9,21.1-29c0.5,0,1-0.1,1.5-0.1
		c7.5,0,12.4,5.9,13,15.9c0.7,12.4-5.5,32.1-16.6,33.4C591.3,346.7,590.5,346.8,589.7,346.8z M594.5,304.3c-8.4,0-14.3,11.6-14.3,22
		c0,4,0.9,7.5,2.5,9.9c1.6,2.4,3.9,3.6,7,3.6c0.5,0,1.1,0,1.6-0.1c2.3-0.3,5.1-3.6,7.2-8.6c2.3-5.4,3.6-12.1,3.2-17.5
		c-0.3-4.3-1.5-9.3-6-9.3c-0.3,0-0.6,0-0.9,0l-0.2,0H594.5z"/>
	<path class="st20" d="M497.6,296.5c19.8,2.7,12,48.9-10.2,50.1C461.8,347.9,462,295.3,497.6,296.5z"/>
	<path class="st15" d="M443.4,111.9c-5.1-2.7-11-7.3-15.5-10.7c-4-3.1-10.3-6.7-12.8-10.7c-4.4-7.2-13.9-18.4-23.1-19
		c-2.7-0.2-6.9-1.9-8,0.4c-6,13.2,14.9,27.4,23.1,30.6C410.5,103.8,444.7,123.1,443.4,111.9z"/>
	<path class="st15" d="M666.5,128.9c-10.2-9.8-32.4-19.3-49.7-19.3c-3.1,0-20,5.9-20,8c0,5.2,19.3,3.9,23.1,5.3
		C624.7,124.7,673.6,145.2,666.5,128.9z"/>
	<path class="st17" d="M387.8,70.8c5.7,2.3,18,5.5,21.2,12c5.8,11.6,18.2,20.2,29.1,27c1.8,1.2,5.7,4.2,1.4,4.2
		c-3.2,0-16.4-9.6-20.5-11.5c-5.9-2.6-14.4-12-20-16.6C397.1,84.4,384.1,71.2,387.8,70.8z"/>
	<path class="st12" d="M474.6,103.7c-9.6-9.5-33.9-20.6-47.1-27.8c-4.7-2.6-29-13.4-35.2-9.5c-6.4,4,13.9,14.8,16.6,18.2
		c12.3,15.2,29.2,28.9,48.8,33c6.6,1.4,6.5-2,9.1-6.7C468.3,108.1,474.4,104.8,474.6,103.7z"/>
	<path d="M461,118.6L461,118.6c-22.8,0-36.5-13.9-47.6-25.1c-3.5-3.6-6.9-7-10.2-9.6c-2.9-2.3-6-4.5-8.7-6.3
		c-2.6-1.8-4.9-3.4-6.6-4.8c-1.1-1-4.2-3.6-3.2-6.9c1.2-3.8,6.1-4.5,14.9-4.5c18.5,0,39.6,15.5,45.6,20.3c6.4,5,21.6,14.6,32.3,18.6
		l5.1,1.9l-3.9,3.8c-2,2-3.4,3-4.3,3.8c-1.7,1.4-2.3,1.8-5.1,6.9l-0.9,1.6l-1.8,0.2C464.7,118.6,462.8,118.6,461,118.6z M393.7,68.5
		c1.4,1.1,3.2,2.3,4.7,3.4c2.8,1.9,6,4.1,9.1,6.6c3.7,2.9,7.1,6.5,10.8,10.2c10.7,10.8,22.8,23,42.6,23h0c1,0,2,0,3.1-0.1
		c2.5-4.4,3.7-5.5,5.7-7.1c-10.7-4.9-23-12.7-28.9-17.4c-5.6-4.4-25.1-18.8-41.3-18.8C396.9,68.3,395,68.4,393.7,68.5z"/>
	<path class="st17" d="M665.1,127.6c-5.4-5.2-21.6-6.6-29.6-10.9c-9.7-5.2-26.6-4.6-37.5-2.4c-8.6,1.7-4.7,1.8-4.6,1.8
		c14.1-0.1,38.1,1.5,46.6,5.9c6,3.1,15,6.2,23.2,9.1C665.6,132.1,669.7,131.2,665.1,127.6z"/>
	<path d="M442.4,119.8c-11.8,0-23.8-3.5-34.9-10.4c-12.6-7.8-22.9-19.3-26.2-29.4c-2.6-7.9-0.6-14.1,5.5-16.6l2.7,6.4
		c-2.5,1-3,3.7-1.6,8c2.3,7.1,10.4,17.7,23.2,25.7c13.8,8.6,29.1,11.4,43.1,8l1.7,6.8C451.5,119.3,447,119.8,442.4,119.8z"/>
	<path class="st12" d="M566.1,101.4c16.8,3.9,50.5-10.3,72.2-4.5c24.9,6.7,29.6,28.2,28.2,31.9c-6.9-4-38.4-18.3-52.2-17.5
		c-10.5,0.6-19.1,1.2-29.6,5.3"/>
	<path d="M614.3,572.6c-4.6-38.1-13.5-73.1-21.3-104c-7.9-31.3-14.8-58.4-13.9-77.3l7,0.3c-0.9,17.9,5.9,44.5,13.7,75.3
		c7.9,31.1,16.8,66.4,21.5,104.9L614.3,572.6 M327.2,555.2h-7c0-6.8,13.1-56.3,26.4-100.1c10.7-35.2,30.8-96.7,44.5-113.3
		c10.3-12.4,25.5-55.7,42.8-122c0.4-1.6,1.3-5,2.5-9.6c5.6-21.6,17.2-66.5,19.3-72.6l6.6,2.2c-2,5.9-14,52.3-19.1,72.2
		c-1.2,4.6-2.1,8.1-2.5,9.7c-12.4,47.5-30.2,107.8-44.2,124.7c-9.4,11.4-25.2,51.8-43.2,110.9C338,507.6,327.2,550.9,327.2,555.2
		 M657.6,139.7c-7.7,0-18.4-3.6-30.8-7.8c-14.3-4.8-30.5-10.3-43-10l-0.1-7c0.1,0,0.2,0,0.3,0l-0.6-1.5c10.8-4.2,19.5-5,30.7-5.6
		c12.5-0.7,36.7,9.5,48.4,15.1c-0.6-2.1-1.7-4.8-3.5-7.6c-3.3-5.1-9.7-11.8-21.6-15c-11-2.9-25.6-0.3-39.7,2.2
		c-12.3,2.2-24,4.3-32.3,2.3l1.6-6.8c7,1.6,18-0.3,29.6-2.4c14.9-2.7,30.3-5.4,42.8-2.1c16.9,4.5,24.6,15.4,27.6,21.5
		c2.7,5.4,3.9,11.2,3.1,14.5c-0.4,4.5-2.5,6.9-4.3,8.1C663.5,139.1,660.8,139.7,657.6,139.7 M598.4,116.4c10.1,2,20.8,5.6,30.6,8.9
		c13.3,4.5,28.3,9.5,32.7,6.6c0.2-0.1,0.6-0.4,0.9-1.1c-10.1-5.3-36.7-16.5-48.1-15.9C608.5,115.1,603.4,115.5,598.4,116.4"/>
	<path class="st21" d="M510.9,438.7c-48.1-6.7-93-6.3-113.6-63.2c-13.3-36.7-42-14.8-16,27.5c34.6,56.2,115.8,67.5,178.2,63.4
		c20-1.3,51-8.9,41.7-33.3c-2.9-7.6-23.7-6.5-32.1-2.9C560.9,433.9,510.4,438.4,510.9,438.7z"/>
	<path class="st22" d="M600.5,450.6c8.1-18.9-18.9,2-56.3,5.1c-43.2,3.5-110.4-2.7-141.3-39.5c-7.4-8.9-25.5-31.8-27.6-47.3
		c-0.5-3.7-9.2-3.2-5,13c4.8,18.8,23.8,29.2,23.9,43.7C420,457.2,543.2,485.4,600.5,450.6z"/>
	<path d="M522.8,472.7L522.8,472.7c-3,0-5.7-0.1-8.2-0.2c-42.6-2.1-80.6-15.5-113-39.8c-9.6-7.2-18.8-21.2-23.4-29
		c-4.5-7.4-11.2-20-11.3-24.1c-0.4-11.3,3.8-20.6,12-27c0.7-0.5,1.6-0.8,2.4-0.8c3.9,0,7.1,4.7,20.4,26.8
		c7.9,13,16.8,27.7,21.8,32.4c17.3,16.1,45.2,24.3,82.9,24.3c25.4,0,54.5-3.7,86.5-10.9l1.6-0.4l1.3,1c5.4,4.3,9.1,11.7,9.2,18.6
		c0.1,5.4-1.9,10-5.8,13.3C584.9,469.4,543,472.7,522.8,472.7z M373.9,379.3c0.6,4,16.8,36.5,32,47.8
		c31.2,23.4,67.9,36.3,109.1,38.4c2.3,0.1,5,0.2,7.8,0.2c27,0,61.4-4.9,72.1-14.1c2.3-2,3.4-4.6,3.4-7.9c-0.1-4.3-2.2-9.1-5.4-12.2
		c-31.8,7.1-60.9,10.7-86.3,10.7c-39.5,0-69-8.8-87.7-26.2c-5.8-5.4-14.5-19.9-23-33.9c-5.2-8.5-11.4-18.9-14.5-22.5
		C376.2,364.6,373.6,371.2,373.9,379.3z"/>
	<path class="st23" d="M602.4,481.3c-9.7-0.1-30.8-24.1-46.8-28.5c-14.2-4-7.8,0.6-13.3-11.5c-4.4-9.7-10.4-27.5-26.2-18.6
		c-1.6,0.9-7.5,14.3-2.7,14.2c7.9-0.2,17.3-3.5,12.4,20c-2.4,11.6-10.6,3.3-10.6,22.2c0,12.2,8.8,51.9,17.3,56.3
		c7.9,4.1-2.3,7.5,11.1,6.2c12.8-1.2,72.8-15.9,64.7-28.8c-8.1-12.9,12.9-16.1,22.6-20c1.3-0.5-2.3-10.6-8.4-10.6
		C618.6,482,604.4,478.9,602.4,481.3z"/>
	<path class="st24" d="M536.9,497.6c-2.8-0.9-18.1-23.4-18.8-31.1c0-0.3-2.1-2-2.8,0.2c-6.1,17,3.2,37.6,8.4,53.4
		c3.7,11.3,11.5,25.3,13.7,4C538.1,518.3,540.3,504.3,536.9,497.6z"/>
	<path class="st25" d="M523.6,432.7c-1,0.3-3.6,0.7-4.4-0.1c-0.8-0.9-1.1-1.8-0.7-3.1c0.9-2.6-0.4-3.5-2.3-1.4c-1,1-1.4,6.1-2.9,6.7
		C508.6,436.5,523.2,439.9,523.6,432.7z"/>
	<path class="st24" d="M544.4,454.3c-1,0.5-4.7,1.3-7.3,2c-3.1,0.8-9.1-0.3-10.9,2.2c-0.1,0.2,1.1-4.1,1.2-5.9
		c0.3-5.5,6.4-6.7,11.5-7.2c1.3-0.1,3.9-1.7,4-1.3c0.7,3,0.2,6.8,0.7,9.9c0,0.2,0.5,2.4,0.6,2C544.2,455.7,544.1,454.9,544.4,454.3z
		"/>
	<g>
		<g id="board">
			<path id="background" class="st26" d="M873.3,518.6c32.2-1.8,51.3-2.9,51.3-2.9c10.7-0.7,19.9,9,20.6,21L953,671
				c0.7,12.3-7.4,22.6-18.1,23.3l-849,48.8c-10.7,0.7-19.9-9-20.6-21l-7.8-134.3c-0.7-12.3,7.4-22.6,18.1-23.3
				c0,0,473.6-27.3,713.3-41.2L873.3,518.6z"/>
			<path id="shadow" class="st27" d="M717.5,557.3c157.8-15.7,225.8-27.8,225.8-27.8l0.9,3.6c0,0-100.7,13.2-226.3,26.2
				C591.1,572.5,469.3,586,469.3,586s-59.6,5.1-99.6,10.3c-36,4.7-82.4,7.2-128.2,11.9C149.3,617.3,60,622.2,60,622.2l-0.2-7.6
				c0,0,89.1-2.9,181.8-10.5c46.8-4,92-9,129.4-12.8c42.5-4.3,101.8-8.1,105.4-8.5C566.1,573.6,653.3,563.8,717.5,557.3z
				 M582.1,555.5c74.1-6.7,163.8-15.4,234.6-22.4c-0.4,0,6.5-0.7,19.9-2c12.8-1.3,19-2,19-2c49.3-4.9,82.6-8.3,82.6-8.3l-6.7-3.8
				c0,0-21.9,2.2-65.6,6.9c0.7,0-11.9,1.3-29.1,3.4c-17,2-29.8,2.9-30,2.9c-48.4,5.1-107.4,11.4-169.2,17
				c-62.7,5.8-130.7,11-195.9,15c-249.8,15.9-382.3,13.9-382.3,13.9l-1.6,7.2l384.5-15.4C442.5,567.8,513.4,561.8,582.1,555.5z
				 M952.2,667.2c0,0-32.2,1.3-102.1,8.1c-36.5,3.4-102.9,4.9-105.6,4.9c-7.6,0-104.3,13.7-225.6,15.4c-3.1,0-95.6,6-134.1,6.5
				c-37.4,0.2-87.5,6-134.6,5.6c-92.9-0.9-184.9,6.5-184.9,6.5l0.4,2.2c0,0,91.8-4.9,184.4-5.6c46.1-0.2,98.7-5.6,135-6.7
				c40.5-1.3,130-5.1,130-5.1s225.6-12.5,230.5-15.2c3.8-2,69.1-4.7,104.5-6.7c15-0.9,101.6-6.3,101.6-6.3L952.2,667.2z M722,640.6
				c-36.7,0.7-66.9,4-69.6,3.4c-5.4-1.6-9-1.6-130.3,0c-0.4,0-101.8,1.1-144.8,1.3c-37.4,0.4-84.8,1.3-131.8,0.9
				c-92.9-0.9-183.8,4.5-183.8,4.5l0.4,3.1c0,0,90.4-4.5,183.1-4.9c46.1-0.2,95.8-0.4,132.1-1.8c40.5-1.3,146.8,0,146.8,0
				s122.9-3.1,128,1.3c1.1,0.9,31.6-1.1,70-3.4c87.9-4.7,228.3-7.6,228.3-7.6v-1.6v-2.5C949.7,633.6,802.2,639.2,722,640.6z
				 M686.2,618.4c0,0-11.4-0.2-18.6,0c-9.2,0-26.2-0.4-48.1-1.6c-9.2-0.4-20.4-3.1-24-4c2.5,1.1,11.2,4.9,31.1,5.4
				c6.5,0,24.2,1.6,30.2,1.6c8.5,0,30.9-0.2,31.3-0.2c61.3,0.2,39.2,1.6,111-0.9c140.8-4.9,149.5-3.8,149.5-3.8v-3.6
				c0,0-9.4,1.6-135,4.9C686.9,620,686.2,618.4,686.2,618.4z M665.4,661.2c-7.6,0-19.3,2.2-140.6,4c-0.4,0-102.7,6.9-145.7,7.4
				c-37.4,0.2-85,4.7-131.8,4.3c-92.9-0.9-184.2-0.9-184.2-0.9l0.9,2.2c0,0,90.6,0.9,183.3,0.2c46.1-0.2,96.5-2.9,132.7-4
				c40.5-1.3,141.7-6,141.7-6s139.9-1.3,144.8-4c3.8-2,51.3,0.9,86.8-0.9c87.9-4.7,198.8-4.9,198.8-4.9l-0.4-2.7
				c0,0-117.7,2.7-198.1,4C716.7,660.5,668.1,661.2,665.4,661.2z M594.7,612.3c0,0,0.4,0,1.1,0.2c-0.4-0.2-0.7-0.4-0.7-0.4
				L594.7,612.3z"/>
			<path id="darken" class="st28" d="M179,587L179,587L179,587L179,587z M103.6,595.6c23.7-1.6,16.3,0.2,36.7-2.2
				c0.2,0,7.6-0.7,10.5-0.9c2-0.2,9.9-1.1,12.1-1.6c7.4-0.9,15-3.4,16.1-3.8c-1.6,0-16.1-1.1-19.7-0.4c-7.2,1.3-11,0.7-13.9,0.9
				c-2.5,0.2-21.7-0.7-21.7-0.7s-30.2,0.4-36,0.9c-11,0.9-29.8,1.6-29.8,1.6l0.2,4.9l0.2,5.8C59.1,599.8,64.4,598.2,103.6,595.6z"/>
			<path id="highlight" class="st29" d="M229.4,559.3l-32.9-0.7c0,0,134.3-6,384.1-20.4c9.6-0.4,71.6-4,74.5-4
				c28.4-1.8,50.2-2.9,57.8-3.4c4.7-0.2,66.7-5.8,66.7-5.8l7.2,0.4c0,0-132.5,11.2-137.9,11.6c-2.2,0.2-66.1,4.5-66.1,4.5
				L229.4,559.3z M171.2,589.1L171.2,589.1L171.2,589.1L171.2,589.1z M59.5,602.9L59.5,602.9L59.5,602.9z M581,557.1
				c77.4-7.2,170.3-15.9,243.5-22.8c2.9-0.2,7.8-0.2,10.7-0.4c5.8-0.4,11-0.9,11.4-1.1c56.2-5.1,93.4-9.2,93.4-9.2l-2.7-3.1
				c-0.4-0.4-1.1-0.9-1.6-1.3c-3.8,0.7-32.9,5.4-81.5,10.7c0,0-8.5,1.3-18.6,2.2c-10.5,0.9-17,1.6-17,1.3
				c-50.6,4.9-114.4,10.1-181.8,16.3c-62.7,5.8-130.7,12.3-195.9,16.6c-249.8,15.9-383,15.2-383,15.2l-0.4,4l383.2-16.8
				C441.1,568.9,512.3,563.1,581,557.1z M945.4,545c0,0-7.4,2.9-148.2,15.9c-71.6,6.7-49.5,4.7-110.6,15.4c-0.4,0-22.2,5.4-30.9,6.9
				c-6,0.9-24,5.1-30.5,6.7c-20.6,4.3-26.4,10.1-27.5,11.4c1.6-0.7,10.5-4.9,20.6-7.6c21.9-5.8,38.7-9.9,47.9-11.2
				c7.2-1.1,18.4-3.4,18.4-3.4s0.4-2.9,127.6-16.1c125.6-13,133.8-14.1,133.8-14.1L945.4,545z M597.4,601.8c0,0,0,0,0.2-0.4
				c-0.2,0-0.2,0-0.2,0V601.8z M368.8,597.6c40.3-5.1,99.6-10.7,99.6-10.7s120-13,247.1-26.2c125.6-13,229.4-24.2,229.4-24.2v-2
				c0-0.9-0.2-1.8-0.4-2.5c-6.3,0.9-97.8,14.8-233.7,27.3c-71.6,6.7-158.5,20.2-248.9,26c-0.4,0-49,4.9-91.5,9.2
				c-37.2,3.8-81.9,8.1-128.7,12.1c-92.6,7.8-181.3,13-181.3,13l0.7,3.8c0,0,88.6-4.7,180.9-14.1C287.2,604.3,333,602.3,368.8,597.6
				z M105,598.2c23.7-1.6,16.3-1.1,36.7-3.6c0.2,0,7.4-1.1,10.3-1.6c2-0.2,8.1-1.1,10.1-1.6c6.9-0.9,8.7-2.2,9.2-2.5
				c-0.4,0.2-3.6,1.1-6.9,1.8c-7.2,1.3-12.8,2.2-15.9,2.5c-2.5,0.2-6,0.7-6,0.7s-0.2-0.9-42.3,2.2c-41.6,2.9-40.7,3.8-40.7,3.8
				l0.2,2.9C59.5,602.7,61.7,600.9,105,598.2z"/>
			<path id="lighten" class="st30" d="M952.2,669.2c0,0-65.2-4.5-153.1,0c-38.5,2-123.1,4.9-124.2,4c-5.1-4.5-127.1,0-127.1,0
				s-87.7,4.3-128.2,5.6c-36.3,1.1-124.7,8.5-170.8,8.7c-92.6,0.7-184.9,2.7-184.9,2.7l-0.9-10.1v-1.1c0.9,0,92.6-0.9,185.1,0
				c47,0.4,112.4-4.9,150-5.4c40.3-0.2,129.1-6,136.1-6.3c121.3-1.6,119.7-5.1,125.1-3.6c2.7,0.9,32.2,0.4,68.9-0.2
				c80.3-1.3,223.4-6.7,223.4-6.7L952.2,669.2z M609.9,616.6L609.9,616.6L609.9,616.6z M62.9,663.6c0,0,89.7-6.9,182.4-7.4
				c46.1-0.2,118-3.6,154.2-4.9c40.5-1.3,143.7,0,143.7,0s120.2-0.2,125.3,4.3c1.1,0.9,90.6-5.6,129.4-7.6c87.9-4.7,153.1,0,153.1,0
				l-0.4-12.3c0,0-143,5.1-223.4,6.7c-36.7,0.7-71.4,4.7-74.1,3.8c-5.4-1.6-2.2-2.2-123.5-0.7c-0.4,0-108.8,0.4-151.5,0.7
				c-37.4,0.2-86.4,2-133.4,1.3c-92.9-0.9-182.9,4.7-182.9,4.7L62.9,663.6z M743.3,568.5c-11.2-0.4-50.6,8.1-50.6,8.1l-76.5,16.1
				c0,0-42.5,13.4-9.2,23.1c2.5,0.7,2.9,0.9,2.9,0.9s-0.4-0.4,2.9-0.4c8.5,0,31.1,2,31.6,2c61.3,0.2,28.2,3.4,99.8,1.1
				c140.8-4.7,204.8-5.8,204.8-5.8l-3.6-65.8c0,0-64.9,6.9-101.6,9.6c-16.6,1.1-41.6,5.4-41.6,5.4s-20.4,2.7-27.5,2.9
				C765.2,565.6,765.2,569.4,743.3,568.5z"/>
		</g>
		<g id="screw_2">
			
				<linearGradient id="SVGID_1_" gradientUnits="userSpaceOnUse" x1="-2624.6208" y1="-11175.4717" x2="-2026.1429" y2="-11521.0029" gradientTransform="matrix(5.625563e-02 0 0 -5.625563e-02 1031.3585 -35.1942)">
				<stop  offset="0" style="stop-color:#A99B35"/>
				<stop  offset="1" style="stop-color:#E5CF1D"/>
			</linearGradient>
			<path class="st31" d="M900.4,583.5c10.7,0,19.3,8.7,19.3,19.7c0,11-8.7,19.7-19.3,19.7c-10.7,0-19.3-9-19.3-19.7
				S889.9,583.5,900.4,583.5z"/>
			
				<linearGradient id="SVGID_00000064351970464972017560000016465652250894504633_" gradientUnits="userSpaceOnUse" x1="-2381.7664" y1="-11295.8643" x2="-2260.3574" y2="-11409.0771" gradientTransform="matrix(5.625563e-02 0 0 -5.625563e-02 1031.3585 -35.1942)">
				<stop  offset="0" style="stop-color:#817825"/>
				<stop  offset="0.1184" style="stop-color:#968A22"/>
				<stop  offset="0.2419" style="stop-color:#B2A41B"/>
				<stop  offset="1" style="stop-color:#B2A41B"/>
			</linearGradient>
			<path style="fill:url(#SVGID_00000064351970464972017560000016465652250894504633_);" d="M884.5,614.1l25.7-27.5
				c0.4-0.4,3.4,2.2,3.4,2.2l0.9,0.9c0,0,2.5,2.7,2,2.9l-25.3,27.8c-0.7,0-2.9-2-2.9-2l-1.6-1.6C886.5,617,884.3,614.4,884.5,614.1z
				"/>
			<g>
				<g>
					<defs>
						<ellipse id="SVGID_00000065791590066942687470000010731628574221736116_" cx="900.4" cy="603.2" rx="19.3" ry="19.7"/>
					</defs>
					<clipPath id="SVGID_00000113351228774338195380000013868479588277273776_">
						<use xlink:href="#SVGID_00000065791590066942687470000010731628574221736116_"  style="overflow:visible;"/>
					</clipPath>
					<g style="clip-path:url(#SVGID_00000113351228774338195380000013868479588277273776_);enable-background:new    ;">
					</g>
				</g>
			</g>
		</g>
		<g id="screw_1">
			
				<linearGradient id="SVGID_00000103970469281810719700000001759788065916986525_" gradientUnits="userSpaceOnUse" x1="-16550.3457" y1="-12048.9072" x2="-15952.3789" y2="-12394.1445" gradientTransform="matrix(5.625563e-02 0 0 -5.625563e-02 1031.3585 -35.1942)">
				<stop  offset="0" style="stop-color:#A99B35"/>
				<stop  offset="1" style="stop-color:#E5CF1D"/>
			</linearGradient>
			<path style="fill:url(#SVGID_00000103970469281810719700000001759788065916986525_);" d="M117.3,632.7c10.7,0,19.3,9,19.3,19.7
				c0,11-8.7,19.7-19.3,19.7S98,663.4,98,652.4C98,641.5,106.5,632.7,117.3,632.7z"/>
			
				<linearGradient id="SVGID_00000114068478753914200840000006899960650296952210_" gradientUnits="userSpaceOnUse" x1="-16307.833" y1="-12170.1602" x2="-16186.4316" y2="-12283.3682" gradientTransform="matrix(5.625563e-02 0 0 -5.625563e-02 1031.3585 -35.1942)">
				<stop  offset="0" style="stop-color:#817825"/>
				<stop  offset="0.1184" style="stop-color:#968A22"/>
				<stop  offset="0.2419" style="stop-color:#B2A41B"/>
				<stop  offset="1" style="stop-color:#B2A41B"/>
			</linearGradient>
			<path style="fill:url(#SVGID_00000114068478753914200840000006899960650296952210_);" d="M101.2,663.2l25.5-27.5
				c0.4-0.4,3.4,2.2,3.4,2.2l0.9,0.9c0,0,2.5,2.7,2,2.9l-25.3,27.8c-0.7,0-2.9-2-2.9-2l-1.6-1.6
				C103.2,666.1,101.2,663.6,101.2,663.2z"/>
			<g>
				<g>
					<defs>
						<ellipse id="SVGID_00000141434486477772793170000012373383333488268675_" cx="117.3" cy="652.4" rx="19.3" ry="19.7"/>
					</defs>
					<clipPath id="SVGID_00000130606944050667842890000003776676175420247736_">
						<use xlink:href="#SVGID_00000141434486477772793170000012373383333488268675_"  style="overflow:visible;"/>
					</clipPath>
					<g style="clip-path:url(#SVGID_00000130606944050667842890000003776676175420247736_);enable-background:new    ;">
					</g>
				</g>
			</g>
		</g>
		<path id="text" class="st37" d="M241.9,671.8c-9-14.6-11.2-24.2-11.2-24.2c0-0.7,0.7-1.3,2-2.5c6.5-5.1,9.4-12.8,13.2-32.2
			c1.3-6.7,3.8-16.8,3.6-18.4c0-1.1-0.7-1.8-1.6-1.6c-1.1,0-2.9,0.2-4.9,0.4c-2.2,0.2-4,0.4-5.1,0.4c-1.1,0-7.8,0.9-10.1,0.9
			c-2.2,0-6.5,0.4-7.6,0.4c-1.3,0-2.2,0.9-2.7,2c-2.5,9.9-2.9,18.4-4,23.5c-1.6,6.5-2.7,9-4.5,11.6c-2.5,3.6-0.9,3.4-6,3.8
			c-2,0.2-3.1-2-3.6-6.3c-0.2-3.8-0.4-9.4-0.9-17c-0.2-7.6,0-12.3-0.2-16.1c0-0.9-0.4-1.3-1.1-1.3c-1.3,0-9.9,1.3-12.5,1.8
			s-4.7,0.7-6,0.7s-3.4,0.2-6,0.2s-4.7,0-6,0.2c-0.9,0-1.3,0.7-1.1,1.8c0.4,5.8,0.2,18.8,1.3,30.5c1.3,11.6,1.6,18.4,2,24.2
			c0.4,5.6-0.2,13.4,0,24.6c0.4,11-0.4,19.5,0,25.1c0,1.3,0.9,2,2,2.2c1.8,0.2,10.5,0.2,16.1-0.2c5.8-0.4,12.8-1.3,15-2
			c1.1-0.2,1.6-1.1,1.6-2.9c-0.2-3.8-0.4-7.4-1.1-15c-0.7-7.6-0.2-13.9-0.7-17.7c0-0.9-0.2-2.9,2-4.3c1.1,0.9,1.3,7.4,7.2,17.9
			c3.6,6.5,4.3,10.5,8.1,17c0.7,1.1,1.1,1.8,1.6,2s1.1,0.4,2.2,0.7c2.5,0.2,6.3,0.2,11.6,0c5.4-0.4,17.2,0.7,18.6,0
			c1.6-0.9,2.2-2.2,2-4.5C254.7,694.8,250.9,686.3,241.9,671.8z M335.3,601.3c-9.6-10.3-19.7-16.8-32.9-15.9
			c-13.2,0.9-27.8,9.4-35.6,21c-7.8,11.4-11,24.9-9.9,40.7c1.1,15.7,6.3,28.4,15.7,38.5c9.4,10.3,20.8,15,34,13.9
			c13.2-0.9,23.7-7.2,31.6-18.8c7.6-11.2,11-24.9,9.9-40.7C346.9,624.8,344.9,611.6,335.3,601.3L335.3,601.3L335.3,601.3z
			 M313.5,656.6c-2.2,2.2-4.7,4.5-7.8,4.9c-2.5,0.2-6.7,1.6-9.4-1.1c-4.7-4.5-8.5-9.2-8.1-17c0.2-6,1.3-10.5,6-15.7
			c2.7-2.9,5.4-3.1,9-3.1c6.3-0.2,8.3,1.8,10.5,4.9c2.2,2.9,3.4,4,4,11.6c0.2,3.1,0.2,7.4-1.3,11.4L313.5,656.6z M428.4,657.3
			c-2.2,0.2-7.2,1.3-11.6,2c-2,0.2-4.3,0-6.5,0.2c-3.6,0.4-9.2,0.2-9,0.2c-4.7,0-5.4-0.9-6.3-2.9c-0.4-1.1,0,0.2-0.4-3.6
			c-0.2-2.9,1.8-3.4,1.8-3.6c0.2-0.9,1.1-1.6,2.9-1.8l6.7-0.4c8.7-0.7,5.6-0.4,8.1-0.2l5.8,0.2c1.1,0,1.8-0.7,1.8-1.6
			c-0.2-4,0.9-8.1,0.9-12.1c0-9,2-13.2,2-12.1c0-1.1-0.7-1.8-1.6-1.6c-0.9,0-2,0.2-3.4,0.7c-1.8,0.2-2.9,0.7-3.6,0.7
			c-5.4,0.9-5.4,0.9-10.7,1.3c-0.9,0-1.8,0.2-2.9,0.2c-1.1,0.2-2,0.2-2.5,0.2c-2,0.2-3.4-0.2-4.3-1.1c-0.9-0.9-2-0.2-2.2-3.8
			c-0.2-3.4-0.2-2.7,0-3.4c0.4-1.3,1.8-2,4-2.2c9-0.7,14.8-0.4,26.2-0.2c0.7,0,1.1,0,1.3,0c0.9,0,1.1-0.7,1.1-1.8
			c0-1.3-0.2-9.2-1.1-15c-0.9-5.8-2.2-11-2.5-12.1c-0.4-2-1.8-2.9-4-2.7c-3.1,0.2-9.9,1.1-16.1,2c-6.3,0.7-11,1.1-14.1,1.3
			c-3.1,0.2-7.8,0.4-14.1,0.9c-6.3,0.2-11.6-0.4-14.8-0.2c-1.1,0-1.6,0.7-1.6,2v0.9c0.9,8.1,1.1,15.4,1.6,19.5
			c1.8,15.7,0.7,26.9,1.1,32.7c0.4,5.6,0.9,14.1,1.1,25.5s0.7,19.9,1.1,25.5c0,1.6,0.9,2,2.2,2c3.1-0.2,9,0,15.4-0.4
			c6.5-0.4,11.4-0.9,14.6-0.9c15-1.1,26.2-0.7,29.1-0.2c0.9,0,1.6,0,2,0c0.9,0,1.6-0.7,2-1.6c0.4-1.3,0-6.9,0.2-13.4
			c0.2-5.8,1.8-13.9,1.8-16.1l0,0C429.7,657.9,429.3,657,428.4,657.3L428.4,657.3z M509.9,654.8c-3.4-5.1-9.4-12.1-10.3-13
			c-0.4-0.4-0.9-0.9-1.3-0.7c-0.2,0-1.1,0.9-2.9,3.1c-2,2.5-3.6,2.9-5.8,4.3c-3.1,2.2-4.9,2-8.7,2.2c-6.3,0.4-8.1,0-12.1-5.4
			c-3.8-4.9-4-7.6-4.5-15.2c-0.2-4,1.6-10.7,4.9-15c2.2-2.9,5.1-4,11.4-4.5c3.6-0.2,3.8-0.2,7.4,1.6c2.2,1.1,4,1.8,6.7,4
			c2,2,3.1,2.9,3.4,2.9c0.4,0,0.9-0.2,1.1-0.7c0.7-0.9,4.3-11,6.9-17.2c2.5-6.3,5.1-11.6,5.1-12.5c0-0.9-0.7-2-1.6-3.1
			c-8.5-9.4-19-14.1-32.9-13c-12.8,0.9-24.9,9.2-32.2,21c-6.9,11.2-11.6,26-10.5,41.4c1.1,15.9,6,28.7,15,38.5
			c9,10.1,21.3,16.1,34.5,15c13-0.9,23.5-10.1,30.5-21.7c0.9-1.3,1.1-2.5,1.1-3.4C515.2,663.1,513.4,660.2,509.9,654.8L509.9,654.8z
			 M609.7,646.3c-1.3-11-1.6-19.5-2-25.1c-0.4-5.8,0-14.3-0.4-26.2c-0.4-11.9,0.2-20.6-0.2-26.4c0-1.1-0.7-1.8-2-1.8
			s-5.6,0.2-8.1,0.7c-2.5,0.2-4.5,0.7-5.6,0.7c-1.3,0-3.1,0.2-5.8,0.2c-2.7,0-11,0.7-12.1,0.7s-1.6,0.9-1.3,2.5
			c0.2,3.8,0.9,9.2,1.8,16.6c0.9,7.4,1.3,9,1.8,12.5c0,1.8-0.2,2.9-1.3,3.1c-1.3,0.4-0.2,0.7-9.2,1.3c-9.9,0.7-7.2,0-8.3-0.4
			c-0.9-0.2-1.3-1.1-1.3-2.9c-0.2-3.8-0.4-5.6-0.7-13c-0.2-7.4-0.2-13.2-0.7-17c0-0.9-0.4-1.3-1.1-1.3c-1.3,0-3.4,0.2-6,0.7
			c-2.7,0.4-4.7,0.7-6,0.7s-11.2,1.1-14.1,1.1c-2.7,0-4.7,0-6,0.2c-0.9,0-1.3,0.7-1.1,1.8c0.4,5.8,1.3,14.8,2.7,26.4
			c1.3,11.6,1.1,19.7,1.6,25.5c0.4,5.6,0.4,14.3,0.9,25.3c0.4,11-1.3,22.2-0.9,27.5c0,1.3,0.9,2,2,2.2c1.6,0.2,14.8-2,20.6-2.5
			c6.7-0.4,10.7-0.9,12.1-1.3c1.1-0.2,1.6-1.3,1.6-2.9c-0.2-4-0.4-9.9-1.1-17.7c-0.9-7.8-0.9-10.7-0.9-14.8c0-2,0.2-3.1,1.1-3.6
			c1.3-0.4,0.4-0.9,9.4-1.6s4.7,0.4,6.3,0.7c0.9,0.2,1.6,1.3,1.6,3.4c0.2,4,0,6.9,0.4,15c0.2,8.1,0.7,14.1,0.9,18.1
			c0,1.1,0.7,1.8,2,2c1.3,0.2,5.1,0,11.9-0.4c4.7-0.4,17.9-0.2,20.4-0.9c0.9-0.2,1.6-0.2,1.8-0.4c0.4-0.2,0.4-0.9,0.4-2
			C612.4,668.2,611,657.3,609.7,646.3z M654.5,589.6c-0.2-11,0.4-18.1,0-23.7c0-1.1-0.7-1.6-2-1.6s-3.6-0.7-6-0.4
			c-2.5,0.2-12.8,0.7-14.1,0.7c-1.3,0-3.4,0.2-6,0.2c-2.7,0-4.7,0-6,0.2c-0.9,0-1.3,0.7-1.3,1.8c0.4,5.4-0.2,12.5,0.7,23.3
			c1.1,10.7,1.8,19,2.2,24.2c0.4,6.5,1.1,19.9,1.8,40.5c0.2,9.9-0.4,17.7-0.7,17c0,1.3,0.9,2,2,2.2c1.8,0.2,5.8,0.2,11.9-0.2
			c4.7-0.4,15.9-0.9,18.6-1.3c0.9-0.2,1.6-0.4,1.6-0.4c0.4-0.2,0.4-0.9,0.4-2c-0.4-6-0.2-17-1.3-28.9c-1.1-12.1-2-21-2.5-26.9
			C653.8,608.9,654.7,600.4,654.5,589.6z M751.8,556.3c-2.5,0.2-12.3,0.7-17.5,1.3s-9,1.1-11.4,1.3c-0.9,0-1.3,0.9-1.1,2.9
			c0.4,5.4,1.1,13.4,2.5,24c1.3,10.7,1.1,6,1.6,11.4c0.2,4,0.2,6-0.4,6c-0.9,0-1.8-0.7-2.9-2c-4.9-6.5-8.3-11.2-10.7-14.6
			l-16.3-23.3c-1.1-1.6-2-2.5-2.5-2.5c-1.1,0-2.9,0.4-4.9,1.1c-2.5,0.7-4,1.1-4.9,1.3c-3.6,0.7-12.1,0.7-14.6,0.9
			c-1.6,0-2.5,0.7-2.5,1.8c0.4,5.8,0.2,13,1.3,24.6c1.3,11.6,0.2,21.5,0.7,27.3c0.4,5.6,0.9,13.9,1.1,24.9c0.2,11,0.2,21.3,0.7,26.9
			c0,1.6,0.9,2.2,2,2.2l27.5-1.8c1.1,0,1.6-0.9,1.6-2.9c-0.4-5.8-1.1-14.8-2.2-26.4c-1.1-11.6,0.7-7.6,0-13.4c0-0.9,0-1.3,0.4-1.8
			c0.4,0.2,0.9,0.4,0.9,0.9c6.7,8.7,11,13.7,14.1,18.1c12.1,16.1,11,15.4,14.3,20.2c1.1,1.6,2,2.2,2.9,2.2c1.1,0,2.9,0,4.9,0
			c2.2,0,9.4,0,10.5,0c0.9,0,2.5-0.2,4.7-0.4c2-0.2,3.6-0.4,4.7-0.4c1.1,0,1.8-0.9,1.8-2.2l-3.6-53.1c-0.4-5.8,0.4-15,0-26.6
			c-0.4-11.6-0.9-20.2-1.3-26C753.1,557,752.7,556.1,751.8,556.3L751.8,556.3z M856.3,654.1c-1.8-13-0.9-23.7-1.3-30.2
			c-0.2-2.5-0.2-6-0.4-11c0-4.9-0.2-8.5-0.4-11c0-1.8-0.7-2.5-1.8-2.5c-1.3,0-3.4,0.4-6,0.9c-2.7,0.4-13.7,0.7-15,0.9
			c-1.3,0-3.1,0-5.6,0s-4.5,0-5.6,0c-0.4,0-0.9,0-0.9,0.2c-0.4,0.2-0.9,0.9-0.7,1.8c0.2,3.1,0.9,6.5,1.8,11.6
			c1.1,6.7,1.3,5.6,1.6,7.2c-5.1,2.9-5.4,4-9.9,4.5c-2.9,0.2-5.8-0.9-10.1-5.8c-4-4.5-5.8-5.4-6.3-13.7c-0.7-7.8,2.7-11.4,6.5-16.3
			c1.3-2,4.9-2.9,6.7-2.9c4,0,6.5-1.1,9.9,0.7c2.2,1.1,4.3,1.1,6.5,3.4c1.8,2,3.4,1.6,3.8,1.6c1.1,0,6-5.8,9.4-11.9s6.9-11.4,6.7-13
			c0-0.4-0.4-1.3-1.3-2.5c-4-5.6-10.7-11.6-17-14.3c-6-2.5-15.7-3.1-22.2-2.7c-13.2,0.9-23.7,7.4-31.3,18.8
			c-7.4,11.2-10.3,24.9-9.2,40.7c1.1,15.7,6,29.8,15,39.2c9.2,9.9,20.6,17.7,33.8,16.6c10.5-0.9,15.7-4,23.7-10.5
			c0.9,0.2,7.4,0.9,11.2,1.8c3.8,0.9,6.3,1.1,7.2,1.1c1.3,0,1.8-0.9,1.6-2.2L856.3,654.1z"/>
	</g>
	<path d="M529.6,460.5l-7-0.5c0.4-5,0.1-10.6-0.1-13.7c0-0.8-0.1-1.3-0.1-1.7c-0.1-3.4-0.4-5.3-0.7-6.3l-3.1-0.4
		c0.8-5.8,3.6-6.5,5.2-6.4c2.2,0.1,3.8,1.8,4.6,4.9c0.5,2,0.9,4.7,1,8c0,0.3,0,0.9,0.1,1.5C529.7,449.1,530,455.1,529.6,460.5z
		 M546.6,455.3l-7-0.4c0.3-4.5,1-27.2-10.4-28.1c-5.9-0.5-9.3,0-11.2,1.6c-1.8,1.6-2.9,4.8-3.6,10.8l-6.9-0.8
		c1.7-15.2,7.2-19.7,22.3-18.5C541.5,420.8,547.8,434,546.6,455.3z"/>
	<path class="st25" d="M608,518.3c0.5-2.9,0.9-17.3-4.4-17.3c-16.1,0-29-7.1-45.7-7.1c-8.9,0-21.3,0-21.3,9.8
		c0,10.2,4.1,22.6,1.6,32.4c-1.4,5.6,1.5,9.3,7.3,6c5.3-3,16.2-3.6,19.5-6.2C577.2,526.1,599.5,529,608,518.3z"/>
	<path class="st38" d="M604.9,517.5c-7.1-4.5-17.6-11.4-23.1-17.7c-7.8-9-27.9-3.1-38.1-2.4c-11.5,0.7-5.4,19.2-6.2,26.2
		c-0.3,3-2.5,15.6-0.9,18.4c1.4,2.6,17.9-4.6,19.5-5.3c10.1-4.4,19.7-7.5,30.1-11.5L604.9,517.5z"/>
	<path d="M533.1,548.6l-1.2-2.5c-3.6-7.5-7.5-18.1-11.2-28.4c-3.3-9-6.4-17.5-9-23.2l-0.1-0.3c-0.8-2.2-0.7-10.3-0.6-15
		c0.3-13,1.3-14.5,1.8-15.3l0.4-0.7l0.7-0.4c12.1-7.1,30.6-11.5,44-13.3l1.2-0.2l1,0.6c5.8,3.5,13,8.2,20.6,13.2
		c8.9,5.8,18.1,11.8,26.7,17.1l1.7,1.1l-0.1,2c-0.1,4.1,0.5,9.9,1.1,16c0.7,6.7,1.5,14.2,1.5,21l0,2.9l-2.8,0.5
		c-7.2,1.4-22.3,6.9-36.8,12.1c-14.7,5.4-28.6,10.4-36.4,12.1L533.1,548.6z M518.2,491.9c2.7,5.9,5.8,14.4,9.1,23.4
		c3.3,9,6.6,18.3,9.8,25.2c7.8-2.1,20.5-6.7,32.8-11.2c13.7-5,26.8-9.7,35-11.8c-0.2-5.6-0.8-11.6-1.4-17.4
		c-0.6-5.5-1.1-10.7-1.2-14.9c-8.2-5-16.9-10.7-25.2-16.2c-7.1-4.7-13.9-9.1-19.4-12.4c-11.6,1.6-28.1,5.5-38.9,11.5
		C517.9,472.8,517.7,489,518.2,491.9z"/>
	<polygon points="538.6,544.8 531.6,544.5 533.5,494.7 603,481.3 604.3,488.2 576.5,493.5 611.5,517.8 607.5,523.6 566.9,495.4 
		540.3,500.5 	"/>
	<path class="st39" d="M492.5,89.5c-10.6-9-20.4-21.6-32.8-27.8c-5.5-2.8-6.4-1.7-5.2,5.3c1.1,6.6,4.9,21.4,9.5,26
		c1.1,1.1,10.2,8.7,11.2,8.8c8.6,0.8,5.5-2.4,11.8-6C488.7,94.8,492.6,89.5,492.5,89.5z"/>
	<path class="st40" d="M628.6,485.6c-2-2.9-22.6-3.1-26.8-3.3c-2.8-0.1-12.8,4.4-15.5,5.8c-1.9,1-14.2,4.8-14.4,5.9
		c-1.2,5.8,16.6,6.8,20.4,6.5c10.2-1,12.5-1,18.6,0.1C630,503.9,627.2,486.5,628.6,485.6z"/>
	<path class="st24" d="M591.8,499.9c1.7-4.2-2.1-9.4,1.6-11.5c0.3-0.2,3.2-1.7,2.2-1.6c-3.2,0.6-7.5,1.8-9.8,2.9
		c-2.6,1.3-12.5-0.4-10.6,4.2C576.6,497.6,588,500.1,591.8,499.9z"/>
	<path class="st41" d="M629.3,494c-14.8-7.8-29.7-3.5-36.5-3.8c-0.8,0,16.8-7,18.1-7.5c1.7-0.7,18.8-1,19.3,0.9
		C630.9,486.7,631,489.8,629.3,494z"/>
	<path class="st42" d="M483.7,98.1c2.9-3.1,7.4-1.7,6.8-7.1c-0.2-2.1-2.3-4.8-4.2-6.1c-2.7-2-2,0-3.4,1.1c-0.1,0.1-2.6-2.6-3.1-3
		c-2.2-1.7-5.5-2.6-7.7-4.2c-0.1-0.1,0,0.7,0.9,1.9c4.4,5.6,5.9,9.4,1.9,15.1c-1.3,1.9-1.4,6.4,2.4,6c1.5-0.2,3.6-0.9,4.1-2.3
		C482.1,97.5,482.9,99.1,483.7,98.1z"/>
	<path d="M604.6,504.4c-6.7,0-16.3-1.8-23-3.5c-4-1-7.4-2-10-3c-3.6-1.4-6-2.8-6.3-5.4c-0.1-0.6-0.2-3.8,4.2-4.7
		c1.3-0.3,3.1-0.6,5.2-0.9c4-0.6,8.9-1.4,11.9-2.4l0.2-0.1l0.2,0c2.6-0.6,4.9-1.3,7.6-2.1c1.5-0.5,3.1-0.9,5-1.5l0.2-0.1l0.2,0
		c2-0.3,7-0.6,12.2-0.6c17,0,20.4,2.9,21.5,5.8c1.3,3.2,1,6.3-0.8,9C626.7,504.3,604.8,504.4,604.6,504.4z M579.7,493.2
		c7.4,2.1,18,4.2,24.9,4.2c7.5,0,19.8-2.2,22.5-6.3c0.3-0.5,0.6-1.1,0.2-2.2c-1.1-0.7-5.4-1.7-15.2-1.7c-5,0-9.3,0.3-11,0.5
		c-1.7,0.5-3.2,0.9-4.6,1.4c-2.7,0.8-5.1,1.5-7.9,2.2C586.2,492,582.9,492.6,579.7,493.2z"/>
	<path d="M474.9,108.7l-2-1.8c-25.9-23.2-22.6-48.1-20.9-55.1l2.3-9.9l4.3,9.2c8.5,18.5,32.5,34.6,43.8,36.1l0.7,6.8
		c-10.7,3.7-19.8,9.5-25.3,12.9L474.9,108.7z M457.9,63.6c0.3,9.3,3.7,23,17.8,36.4c4-2.5,9.5-5.8,15.9-8.8
		c-5.3-2.4-11.1-5.9-16.8-10.3C468.1,75.5,462.3,69.6,457.9,63.6z"/>
	<path class="st7" d="M596.3,64.8c-0.6,8.3-5.3,16.3-10.5,22.6c-2.3,2.8-2.3,6.3-5.3,9.3c-4.4,4.4-10.9,8.3-15.5-0.9
		c-1.5-2.9-4.7-0.7-6.2-3.5c-2.3-4.3,5.5-8.2,8-8.9c5.4-1.5,14.5-9.4,17.7-12.9c1.4-1.4,6.3-3.8,8-4.9c1.2-0.8,2.6-1.2,4.4-1.3
		C600,64.1,598.7,62.4,596.3,64.8z"/>
	<path class="st39" d="M591.7,63.8c-1.4,3-0.5,11-0.5,14.8c0,6.2-8.3,12.8-12.5,16.7c-3.7,3.4-6.4,8.3-12.6,3.8
		c-2.2-1.6-8.6-7.3-10-9.3c-0.9-1.4,6.7-6,7.9-6.6c8.3-4,14.9-6.4,21.9-13C587.4,68.6,590.1,62.8,591.7,63.8z"/>
	<path class="st42" d="M592.9,73c-2.1,3.5-6.7,6.1-9.4,9c-4.4,4.7-8.2,9.7-13.6,12.9c-4,2.3-1.9,2.4,1.6,4.9
		c8.8,6.4,13.1-4.7,15.1-11.6c1.1-4,3.2-7.5,4.3-11.2C591.2,75.6,593.1,73.1,592.9,73z"/>
	<path d="M574.2,109.1l-2.6-2c-4.7-3.6-15.8-11.4-24.7-15.2l-11.1-4.8l11.9-1.9c10.8-1.7,39.2-14.3,45.5-31l4.4-11.7l2.3,12.2
		c1.1,5.8-0.3,13.7-4,22.4c-4.1,9.7-10.9,19.9-19.6,29.5L574.2,109.1z M558,89.7c5.8,3.3,11.5,7.1,15.3,10
		c9.6-11.2,15.5-21.8,18.2-30.3C582.2,79,568.2,86.1,558,89.7z"/>
	<path class="st8" d="M557,77c-17.7-1.8-73.9-11.1-65.8,17c1.8,6.4-5.5,11.3,2.7,13.1c9.4,2,6.5,2.8,13.7-3.1
		c4.2-3.4,7.7,8.2,10.2,9.3c3.1,1.4,6.5-4.3,9.5-3.5c2.8,0.7,10.3,3.6,12,3.3c1.8-0.3,10-7.3,10-2.4c0,7.6,24.9,6.2,14-9.8
		c-1.4-2-5.9-12.5-4.9-13.7c1.2-1.5,4.2-2.8,4.2-4.4C562.5,81.5,559.4,76.2,557,77z"/>
	<path class="st16" d="M561.5,95.8c0.7,6.5,1.3,13.2,1.3,20.8c0,8.8-4.6-6.2-7.5-6.2c-5.6,0-6.7,6.3-9.5,0.9c-1.1-2-0.7-6.6-2.7-4.7
		c-11.4,11.4-5.1,2.7-17.3-1.1c-3.1-1-2.9,8.6-5.3,10.2c-8.6,5.9-3.2-11.3-10-11.3c-6.3,0-11.2,20-14.6,5.8
		c-0.6-2.4-1.1-4.2-3.3-4.4c-1.3-0.1,1.8-5.3,2.2-6c0.3-0.5,7.9,0.9,9.5-2.4c0.5-1.1,3.4-4.3,4.2-4.4c2.3-0.3,0.4,2.7,1.1,3.1
		c3.1,1.8,4.5-7.7,7.1,0c0.4,1.1,5-16.2,11.1-9.5c2,2.2-0.6,5.5,3.8,8.6c6.5,4.6,3.5-2.9,6.4-4.4c1.4-0.7,7.3,6.1,8.9,7.1
		c2.7,1.8,4.2-2.1,4.9-4c0.1-0.2,1.4,14.4,6,9.1C559.1,101.3,563.6,97.6,561.5,95.8z"/>
	<path d="M536,133.1l-3.4-9.5c-1.8-5.2-2.4-7.1-2.7-8.2c-0.2-0.8-0.3-1.1-0.8-2.3c-0.6-0.2-1.3-0.6-2-1.1c-0.1,0.5-0.2,0.9-0.2,1.4
		c-0.8,4.6-1.7,10.4-9.2,13.1l-6.2,2.3l1.6-6.4c0.6-2.4,0.3-6.6-0.9-10.9c-0.7-2.7-1.5-4.6-2.2-5.9c-1.7,2.7-2.5,5.3-3.3,8.1
		c-0.6,2-1.2,4.1-2.2,6.1l-5.8,11.8l-0.9-13.1c-0.4-6.4-2.7-6.4-3.7-6.4c-1.9,0-4.4,1-6,1.7c-1.4,0.6-2.4,1-3.4,1
		c-1.5,0-2.8-0.8-3.4-2.1c-1-2.2,0.4-4.2,1.5-5.6c0.9-1.2,2.3-2.9,4.7-5.7l0.3-0.4l0.4-0.3c2.1-1.4,2.6-2,2.8-2.2
		c-0.1-0.5-0.7-1.7-1.2-2.7c-0.3-0.6-0.7-1.4-1.1-2.2c-0.9-2-1.8-2.9-2.7-4c-1.4-1.6-3.1-3.4-3.5-7.7l-0.2-2.2l1.9-1.1
		c12.2-7.2,34.1-7.9,42.9-7.9c13.3,0,37.4,1.9,43.1,9l2.3,2.9l-3.1,2.1c-3.5,2.4-6.1,3-7.8,3.3c-0.2,0-0.5,0.1-0.7,0.2
		c-0.1,0.2-0.2,0.6-0.2,1.3c-0.3,2.4,1.3,5.9,3.1,9.6c3.3,6.9,7.7,16.3,0.6,25l-3.7,4.4l-2.2-5.3c-2.2-5.1-3.8-6.5-4.4-6.8
		c-0.4,0.3-1.3,1.5-2.4,4.9l-2.2,7.2l-4.1-6.3c-0.9-1.5-2-4.4-3.6-9.2c-0.6,3-1.4,6.6-2.8,10.7L536,133.1z M554.2,109.2
		c2.6,0,5,1.5,7.2,4.5c0.1-3.3-1.5-7-3.8-11.8c-2.2-4.7-4.3-9.1-3.7-13.5c0.7-5.2,3-6.5,5.6-7.2c-1.8-0.6-4.1-1.1-7.1-1.7
		c-7.2-1.3-16.1-2.1-25.2-2.1c-15.6,0-29.2,2.2-37.1,5.8c0.3,0.5,0.6,0.9,1.2,1.5c1,1.2,2.5,2.7,3.8,5.7c0.3,0.7,0.7,1.4,1,2
		c1.2,2.5,2.3,4.6,1.8,7.1c-0.4,2.1-1.8,3.7-3.7,5.3c2,0,4.8,0.5,7,2.8c1-2.7,2.4-5.7,4.9-8.9c1-1.2,2.3-1.9,3.8-1.9
		c1.7,0,3.3,0.9,4.6,2.7c2.2,2.8,4.2,8.3,5.2,13.7c0.1-0.4,0.1-0.8,0.2-1.2c0.5-3,1.1-6.8,3.4-10.6l4.8-7.8l1.6,9.1
		c0.6,3.2,1.5,3.5,2.1,3.7c0.7,0.2,2.3,0.7,3,2.4c0.2,0.5,0.4,0.8,0.5,1.2c0.9-4.5,1.7-8.1,4.2-10.5l3.9-3.9l1.9,5.1
		c0.9,2.4,1.8,5.1,2.7,7.7c0.3,0.9,0.7,2,1,3C550.5,110.1,552.2,109.2,554.2,109.2z"/>
	<path d="M502.1,162.7c-3.9-5.8-13.6-9.7-19.9-8.1c-3.7,0.9-5.8,3.6-6.2,7.9l-3.9-0.4c0.6-6,3.8-10,9.2-11.3
		c7.9-2,19.4,2.7,24.2,9.8L502.1,162.7z M574.8,160.8c-2.5-4.7-7.4-7.8-12.4-8.1c-4.9-0.2-9.3,2.3-12.5,7.1l-3.3-2.2
		c4-6,9.7-9.2,16-8.9c6.4,0.3,12.6,4.3,15.7,10.1L574.8,160.8z"/>
	<path d="M541.1,415.7c-6.3,0-12.9-1-19.8-2.9c-17.2-4.9-31.4-14.5-38.4-19.7c-0.2-0.1-0.3-0.2-0.3-0.3c1.1,0.8,3.1,1,4.5-0.4
		l-2.5-2.5l-2.8,2.1l0.4-4.6c1-1,2.9-1.5,4.7-0.2c0.1,0.1,0.2,0.2,0.4,0.3c6.6,5,20,14,36.1,18.6c23.3,6.6,42.3,0.9,56.6-16.8
		l5.4,4.4c-8.8,11-19.5,18-31.7,20.7C549.6,415.2,545.4,415.7,541.1,415.7z"/>
	<path class="st8" d="M581.5,188.7c4.7-3.6-2.5-20.1-14.7-21.4c-13.4-1.4-29.6,10.2-20.3,19c3.9,3.7,13.3-1.8,20.2-0.9
		C571.7,186.1,576.7,192.4,581.5,188.7z"/>
	<path d="M578.3,191.8L578.3,191.8c-2.5,0-4.8-1.2-7-2.4c-1.7-0.9-3.4-1.8-4.9-2c-0.4-0.1-0.9-0.1-1.5-0.1c-2.3,0-4.8,0.6-7.4,1.2
		c-2.6,0.6-5,1.1-7.2,1.1c-2.3,0-4-0.6-5.3-1.8c-3.2-3-4.2-6.8-2.7-10.5c2.6-6.6,12.5-12,22.1-12c0.8,0,1.7,0,2.5,0.1
		c8.8,0.9,15.4,8.7,17.4,15.9c1.1,4.1,0.5,7.4-1.7,9.1C581.3,191.3,579.9,191.8,578.3,191.8z M564.9,183.3c0.7,0,1.4,0,2,0.1
		c2.2,0.3,4.3,1.4,6.2,2.5c1.9,1,3.7,2,5.2,2c0.7,0,1.3-0.2,2-0.7c0.7-0.5,1-2.2,0.3-4.9c-1.6-5.8-7.1-12.3-14-13
		c-0.7-0.1-1.4-0.1-2.1-0.1c-7.8,0-16.4,4.4-18.4,9.5c-0.9,2.2-0.3,4.3,1.7,6.2c0.5,0.5,1.4,0.7,2.6,0.7c1.8,0,4-0.5,6.3-1
		C559.4,184,562.2,183.3,564.9,183.3z"/>
	<path class="st8" d="M472.7,184.6c-2.8-6.7,5.8-17.5,16.5-18.8c11.8-1.4,27,12.2,18.9,21c-3.4,3.7-8.1-1.2-16.8-0.9
		C483.4,186.2,475.4,191.4,472.7,184.6z"/>
	<path d="M504.9,190.2c-1.5,0-3.1-0.4-4.9-0.9c-2.4-0.7-5.2-1.5-8.7-1.3c-2.3,0.1-4.6,0.6-6.9,1.1c-2.3,0.5-4.5,1-6.5,1
		c-3.5,0-5.9-1.6-7.1-4.7c-1.3-3.1-0.8-6.8,1.4-10.5c3.4-5.9,10-10.1,16.7-11c0.6-0.1,1.3-0.1,2-0.1c8.2,0,17.3,5.8,20.4,12.8
		c1.8,4.2,1.2,8.4-1.8,11.6C508.2,189.6,506.7,190.2,504.9,190.2z M492,184c3.7,0,6.7,0.8,9.1,1.5c1.5,0.4,2.8,0.8,3.8,0.8
		c0.7,0,1.2-0.2,1.7-0.7c1.9-2.1,2.3-4.5,1.1-7.3c-2.4-5.6-10.3-10.4-16.8-10.4c-0.5,0-1,0-1.5,0.1c-6.3,0.8-11.4,5.1-13.7,9
		c-1.5,2.6-1.9,5.2-1.2,7c0.7,1.6,1.6,2.2,3.5,2.2c1.6,0,3.5-0.4,5.6-0.9c2.3-0.5,5-1.1,7.6-1.2C491.4,184,491.7,184,492,184z"/>
	<path d="M485.6,185.7c2.1-0.4,4.3-1.9,6.4-1.4c2.2,0.6,2.4,0.4,6.5,1.8c2.9-5.7,0.8-11.2-6.2-11.8
		C484.3,174.1,482.5,181.4,485.6,185.7z"/>
	<path d="M499.5,188.6l-1.6-0.5c-2.7-0.9-3.6-1.1-4.6-1.3c-0.5-0.1-1.1-0.2-1.8-0.4c-0.1,0-0.3-0.1-0.4-0.1c-0.7,0-1.6,0.3-2.6,0.7
		c-0.8,0.3-1.6,0.6-2.4,0.8l-1.3,0.3l-0.8-1.1c-2.1-2.9-2.4-6.7-0.8-9.8c1.5-3,4.7-4.7,8.6-4.7c0.2,0,0.4,0,0.6,0l0.1,0
		c3.8,0.3,6.7,1.9,8.2,4.6c1.6,2.8,1.4,6.4-0.4,10L499.5,188.6z M491,182.3c0.5,0,1,0.1,1.5,0.2c0.7,0.2,1.2,0.3,1.7,0.4
		c0.8,0.2,1.6,0.4,3.2,0.9c0.6-1.8,0.5-3.5-0.2-4.8c-0.8-1.5-2.6-2.4-5-2.6c-2.7-0.1-4.6,0.8-5.5,2.6c-0.7,1.3-0.7,3-0.1,4.5
		c0.2-0.1,0.3-0.1,0.5-0.2C488.3,182.8,489.6,182.3,491,182.3z"/>
	<path d="M557.1,186.5c2.1-0.5,5.2-1.3,7.3-1.2c2.2,0.1,4.1,0.6,7.9,2.4c2.9-5.7-0.7-11.2-6.5-11.8
		C557.8,175.6,554,182.1,557.1,186.5z"/>
	<path d="M573.2,190.4l-1.8-0.9c-3.5-1.7-5.2-2.1-7.1-2.2c-1.4-0.1-3.7,0.4-5.5,0.9c-0.5,0.1-0.9,0.2-1.3,0.3l-1.3,0.3l-0.8-1.1
		c-1.7-2.4-1.9-5.5-0.5-8.2c1.8-3.5,5.6-5.5,10.3-5.5c0.2,0,0.4,0,0.7,0l0.1,0c3.5,0.4,6.5,2.3,8.1,5.1c1.6,2.8,1.5,6.3-0.1,9.5
		L573.2,190.4z M564.1,183.3c0.2,0,0.3,0,0.5,0c2.2,0.1,4.1,0.6,6.7,1.7c0.3-1.4,0.1-2.8-0.5-4c-0.9-1.7-2.8-2.9-5-3.1
		c-3.4-0.1-6.1,1.2-7.2,3.4c-0.5,1-0.6,2-0.3,3C560.1,183.8,562.2,183.3,564.1,183.3z"/>
	<path class="st16" d="M544.3,193.6c-5.3-1.2-10.5-1.8-15.3-1.8c-2.3,0-4.6,0.2-7.5,0.5c-1.6,2.5-2.4,4.4-4.2,6.6
		c11.5-1.8,21.2-1.3,30,0.3C546.3,197.8,545.4,196.5,544.3,193.6z"/>
	<path class="st6" d="M877.6,395.8c-33.1-9.3-48.5-11.4-70.5-11.7c-0.3,0-55.4,10.3-57.1,12.9c-7.8,11.5-1.8,40.3-6.6,41.5
		c-8.1,2.1-22.9,18.4-9,30.4c12.9,11.2,2.3,51.3,45.1,66.7c27,9.8,29.2,12,58,6.9c20.8-3.7,41.9-57.5,53.5-69
		c17-17,7.6-16.3-5.6-29.5C880.2,439,881.7,397,877.6,395.8z"/>
	<path class="st7" d="M878.7,397.3c1,25.1,11.3,59.7,3.1,88.7c-13.8,48.8-46,74.6-107.6,49.4c-24.6-10.1-42.4-59.7-30.5-46.7
		c26.5,29,96.9,25.3,112.2-0.2c11.8-19.7,17-37.1,18.6-57.1C875.2,423.1,879.2,404.2,878.7,397.3z"/>
	<path class="st43" d="M884.2,442c8.3-1.9,21.1,11.7,15.3,20.7c-3.5,5.5-7.1,12.5-12.2,15.9c-4.4,2.9-4.7-0.6-4.7-5.6
		c0-4.4,1.4-13,2.3-17.5C885.3,453.3,884.3,445.7,884.2,442z"/>
	<path d="M815.6,550.3c-5.3,0-10.7-0.5-16.1-1.6c-14.2-2.8-28-9.3-39-18.2c-17.1-14-25.3-31.8-22.5-49.3c-0.4-0.4-0.8-0.8-1.2-1.3
		c-2.6-2.7-4.5-4.7-5.4-6.2c-3.1-5-7.4-11.9-6-22.7c1.2-8.9,6.3-12.8,10.4-14.5c1.4-0.6,2.9-1,4.4-1.2l0.8-9
		c0.2-2.4,1-10.9,1.7-17.1c1-10,2-16.2,2.9-22.2c0.6-3.7,1.2-7.6,1.9-12.4c1.8-13.7,5.9-27.2,9.4-37.5l6.9,2.3
		c-3.3,10-7.3,23.1-9.1,36.2c-0.6,4.9-1.3,8.8-1.9,12.6c-0.2,0.9-0.3,1.9-0.5,2.8c6-3.4,12.3-5,16.3-6c0.4-0.1,0.8-0.2,1.1-0.3
		c10.1-2.6,32.2-4.3,43.5-4.3c29.9,0,35.2,1.8,55,8.4c1.4,0.5,3,1,4.6,1.5c-4.7-22.5-11.2-45-18.7-62l-0.4-0.8l0.1-0.9
		c2.2-37.7-24.1-66.1-32.7-75.4l5.3-4.9c6.3,6.8,15.6,17.4,22.9,31c8.6,16,12.6,32.4,11.8,48.8c13.8,31.7,23.7,79.4,26.6,113.7
		c2.6-0.2,4.8,0,6.7,0.5c3.8,1,6.4,3.5,7.5,7.2c0.2,0.6,0.4,1.2,0.6,1.7c0.7,2.1,1.4,4.1,1.4,8.5c0,6.9-3,10.3-5.6,13.3
		c-0.6,0.6-1.1,1.2-1.6,1.9c-0.8,1-1.7,1.8-2.4,2.5c-0.2,0.2-0.5,0.4-0.6,0.6c-0.6,0.6-1.2,1.5-1.8,2.5c-1.3,2-3.1,4.6-6,6.3
		c-2.6,13-6.9,24.3-12.8,33.7c-7.6,12.1-17.7,21-30.1,26.2C834.5,548.5,825.2,550.3,815.6,550.3z M744.8,485.1
		c-1.1,14,6.2,28.2,20.3,39.7c21.5,17.5,52.4,23,75,13.4c16.5-7,37-25.1,40.9-71.3c1.3-15.2-1.3-41.2-6.5-68.3c-3.2-1-6-2-8.6-2.9
		c-19.3-6.5-23.9-8.1-52.7-8.1c-10.7,0-32.2,1.6-41.7,4c-0.4,0.1-0.7,0.2-1.1,0.3c-5.1,1.3-13.6,3.5-19.5,8.9c-0.3,2.6-0.7,5.6-1,9
		c-0.6,6.3-1.4,14.7-1.7,17.1l-0.8,8.1c8.1,0.8,16.5,4.4,22.4,8.9l-4.4,5.7c-7.3-5.6-19.4-9.6-26.9-6.5c-3.5,1.4-5.4,4.3-6,8.7
		c-1.1,8.2,2.2,13.3,5,17.9c0.6,0.9,3,3.5,4.5,5.1c0.7,0.7,1.3,1.3,1.7,1.9c2.3,0.5,4.2,0.9,5.5,1.3c1.8,0.5,4.3,1.1,4.5,3.8
		c0.2,1.6-0.8,3.1-2.3,3.7c-0.6,0.2-1.6,0.7-6.1-0.3C745.1,485.2,744.9,485.2,744.8,485.1z M888.2,447.3c0.4,7.8,0.5,14.6,0,20.2
		c-0.1,1.5-0.3,2.9-0.4,4.3c0.2-0.3,0.4-0.5,0.7-0.7c0.3-0.3,0.6-0.5,0.9-0.8c0.6-0.5,1.2-1.1,1.6-1.6c0.6-0.8,1.2-1.5,1.8-2.1
		c2.3-2.6,3.8-4.4,3.8-8.5c0-3.2-0.4-4.4-1-6.1c-0.2-0.6-0.4-1.3-0.7-2C894.6,448.9,894,446.8,888.2,447.3z"/>
	<path d="M770.1,469.4c1.9-4.8-6.2-11.2-9.9-12.5c-2.1-0.7-9.3-2.7-11.5-1.8c-2,0.8-3.7,1.4-2.6,4.2c1,2.7,2.3,5.6,3.9,8.1
		c1.3,2,9.2,3.5,12,3.6C765.4,471.1,767.4,470.1,770.1,469.4z"/>
</g>
</svg>
