<svg viewBox="0 0 603.9 714.2" xmlns="http://www.w3.org/2000/svg"><path d="m147.9 138.6 232.7 109.9-191.1-167.7c-21.8 19.4-34.7 42.2-41.6 57.8zm-147.9 141c-2.3 105.5 194.8 145.5 291.8 147.7 124.8 2.7 291.4-31.4 293.8-138.2.7-32.6-20.6-58.8-46.8-78.5l-158.2 38-319.2-57.4c-31.5 18.7-60.4 47.6-61.3 88.5h-.1zm403.1-197.5-22.6 166.4 61.9-104c-5.6-16.8-17-41.6-39.3-62.4zm-105.8-38.9c-15.4-.3-29.4 1.2-42 4l125.3 201.3-46.3-201.2c-11.2-2.4-23.5-3.8-37-4z" fill="#82b9e6"/><path d="m580 259.6-199.5-11.1 200.4 66.4c1.5-4.4 2.7-9 3.5-13.7 0-.3 0-.6 0-.9 0-.4 0-.8.2-1.1 0-.6.2-1.1.2-1.7s0-.6 0-1c0-.6 0-1.3.2-1.9.2-1.9.3-3.8.3-5.7.2-10.5-1.8-20.2-5.6-29.4h.1zm-518.8-67.6c36.2-21.6 75.7-31.1 80-34.7-.2.2 1.7-7.4 6.6-18.8l232.7 109.9-319.3-56.5zm-61 94.1v-6.6c0-1 0-2 .1-3v-1.1c0-.6 0-1.2.1-1.8 0-.5 0-.9.1-1.4 0-.5.1-1 .2-1.5 0-.5.1-1 .2-1.5 0-.4 0-.7.2-1.1 1.8-11.8 6.1-22.4 12-31.9l367.5 12.2-191.2-167.8c16.5-14.7 38-27.4 65.9-33.6l125.3 201.4-46.2-201.3c30.2 6.4 52.5 19.6 68.9 34.9l-22.6 166.5 61.9-104c3.9 11.8 4.9 19.7 4.9 19.6 1.2 1 51.9 16.4 91.6 46.4l-158.4 38-377.7 53.8c-1.3-4.8-2.2-9.8-2.5-14.9v-1.3zm363.4 137.5 16.9-175.1 48.3 163.8c-21.8 5.1-44 8.8-65.3 11.2zm134.8-33.9-117.9-141.2 171.7 107.8c-14.6 13.2-33.1 24.2-53.8 33.4zm-456.6-33.5 338.7-107.6-270.3 144.3c-25.9-9.8-49.6-21.9-68.4-36.6zm158.6 61.1 180.2-168.8-97.9 178.4c-23.8-1-52.5-4.1-82.3-9.7z" fill="#99c6ec"/><path d="m148.7 645.1c8.3-2.9 17.9-27.5 11.9-25.5-6 2.1-5.4.7-20.3 2.5-15 1.8-25.4 4-25.4 4s11.6-7.7 26.8-8.5 25.4-4.8 25.4-4.8 7.7-12.8 30.8-15.1c23.2-2.3 20.3-8.1 26.2-13s5.5-16.2 0-16.1c-5.5 0-5-.9-11.9-3.4-7-2.5-12.6-4.5-31.5 2.1-18.9 6.7-17.7 7.8-18.4 20.5-.7 12.8-39 28.5-18.3 14.6s13.4-21.2 13.4-21.2 1.3-2.6-10 3.2-16 7.5-16 7.5 12.1-14.1 28.9-19.9c16.9-5.7 15.5-11.4 39.7-16.1s31.5 14.9 40.9 4.6c9.4-10.2 17.5-11.7 27.3-15.6s77.4-40.8 42-52.1c-14.5-4.7-32.6-11.6-32.6-11.6s15.9 21.5-16 33.5c-19.3 7.3-8.4 32.1-9.8 31.2-9.3-5.4-12-16.5-9-23.2s-3.2-3.3-10.1.6c-6.9 3.8-14.9 1.8-21.9 4.8s-22.5 16.9-37.4 20.9c-14.9 3.9-.5-5.7 8.2-7.7 8.8-2 14.7-13.9 14.7-13.9s-34.5-1.3-50 15.6c-14.1 15.4-22.8 28.2-37.2 27.3-3.5-.2 14-7 18.7-15.3 3.3-5.8 12-13.1 12-13.1s-4-1.7-14-2.6c-10-.8-36.1 5.2-13.3-.8s30.5-1.4 30.5-1.4 2.1-2.8 7.7-7.7 10.8-4.1 10.8-4.1 24.1-7.1 2.7-14.9c-21.4-7.7-55.1 7.7-37.6-2.7 17.3-10.3 40.9-3 28.8-11.3 0 0-2.6-2.5-9.4-9.5-6.7-7-15-8.7-15-8.7s11.8-2.2 25.6 9.6c35.9 30.6 34 28.4 76.9 15.2 32.5-10-5.7-25.3-13.5-34.1-8-9 1.5-23.6 4.6-28.2.7-1 2.4-1.8 4.3-2.1 48.7-8.9 118-4.3 80.8 5.4-6 1.6-20.7 10.2-17.1 15.2 2.3 3.3 30.2 2.2 34 12.6 8.8.2 18.3-1 25.9-5.5 18.1-10.8 30.2-20.7 43.7-15.8 3.3 1.2-15.5 2.9-22.5 9.5-4.9 4.6-15.4 9.2-15.4 9.2s3.2 3.4 13.2 3.1 36.3-2.4 13.2 1.9c-23.2 4.2-33.4.5-33.4.5s-.2.5-7.1 3.6c-1.5.7-2.9 1.1-4.2 1.4 10.5 3.6 30.8 9.4 40.6 5.4 13.6-5.5 27.2-4.7 27.2-4.7s11.1-1.5 16.1-4.3 21.4-13.6 32-20.3 25.5-3.2 15.8-1.5c-15.9 2.8-42.5 25.2-42.5 25.2s-.7 2.6 5.6 4.8c9.8 3.3 12.9 7 22.9 15.9 13.3 11.8 48.8 1.9 55.5 5.2 16.1 8 7.4 8.7 1 5.9-6.3-2.9-38.7 2.6-45.6 4.1s-14.1-4.9-16-1.7c-2 3.2 7.2 16.9 12.8 29.4s22.3 19.5 11.1 17.4c-11.3-2.1-20.6-20.7-27.2-33.2s-3-17.2-3-17.2-8.4-7.8-22.7-15c-14.2-7.2-28.8 2-28.8 2s3.5 2.9 7.4 5.2c4 2.3 4.7 10.2 3.4 19.5s11.8 23.2 18 23.9c6.3.7 10.5 1 2.7 3.3s-20-6.4-24.4-10.7c-4.4-4.2-5.7-17.8-17.1-27.7-11.3-9.9-33-6.1-33-6.1s-2.6 6.4-2.8 12.3c-.2 6-11.2 14.7-11.2 14.7s-2.3 3.3 2.2 12.4 31 8.3 46.9 8 44.1 15.4 51.2 22.1 5.6 12.9 20.4 14 7.3 3.2 7.3 3.2-22.3 4.3-31.9-8-31-17.5-42.7-18.1c-11.8-.7-14.4-.5-9 7.4 4.8 7 4 18.3 3.7 20.7.9 0 3.4.2 10.4 1.6 13.7 2.8 31.1 29.9 31.1 29.9s-14.1-4.7-17.5-12.9c-3.5-8.2-19.9-12.2-19.9-12.2s-5.8-1.1-5.4 9.2c.4 10.4 31.7 24 31.7 24s-6 2.1-24.8-6.4-14.8-36-16.7-47-20.2-15.6-28-12.2-5.7 22.3-5.7 34 17.5 26.8 3.2 18.6c-14.2-8.2-10.8-34.9-9.4-43.3s.3-15.8-8.5-19.6c-8.7-3.8-4.6-13-13.3-10.5-27.7 7.8-40.3 21.1-40.3 21.1s-.8 1.4 2 15.4 20.3 9.9 43.3 22.3c7.2 3.9 8.3 9.1 8.3 9.1s-12.9-8.8-26.6-12.1c-11.3-2.7-19.6-2-27.7-5.4s-9.2-22.7-9.2-22.7-4.6 2.9-9.9 6.4-5.5 20.4.5 27.1 42 20.9 53.7 23.5 18 14.2 18 14.2 7.3-5.3 18.5-2.9c9.4 2 15.7 3.3 19.4 4 2.4.5 4.7 1.3 6.7 2.5 3.1 1.8 9.7 5.2 23.1 10.4 22.3 8.7 17.6 15.5 12.6 11-5-4.4-18.4-7.4-18.4-7.4s4.6 7.1 5 14.1c.5 7 11.3 16.8 2.2 12.6-9.1-4.3-7.6-6.1-9.3-15.8-1.7-9.6-17.5-17.8-15.6-14.3s.9 11.9.6 16.9-11.3 3.8-13.9 19.8-1.6 13.5-4.4 3.6c-2.8-10 7.6-18.8 10.6-25.9 3.1-7-.7-19-.7-19s-6.5 0-13.8-1.9-21 1.1-21 1.1-3.9 6.3-14.6 17.4 27 49.4 11.5 37.1c-19.3-15.3-16-35.8-33.3-23.7-8.1 5.6-6 32.7-8.7 28.9s-2.2-19.8.4-26.2c2.6-6.3 22.1-21.7 30-29.5 8-7.8-13.5-15-19.8-15.7-6.2-.7-28.4-14-28.4-14s-6.2-2.4-13.2 7.5c-7 9.8-5.5 8.7-1.8 37.7 3.8 29-13.4 27.6-13.4 27.6s4.2-5.8 8.1-14.7-3.2-24-3.2-24-5-1.1-15.3 2c-10.3 3.2-19.6 19.9-19.6 19.9s-2.6-7.5 8.8-18.5c11.4-10.9 25-12.5 25-12.5s-.5-3.6-1.4-11c-1-7.4 8.9-18.3 8.9-18.3s.9-3.8-7.3-7.9c-8.2-4-13-13.4-13-13.4s-28.4-4.7-43 5c-14.5 9.7-12.2 12-6.1 37.9s-5.6 23.6-5.6 23.6 4.9-12.3.6-19.6-6.1-18.3-6.1-18.3-.6 12.4-20 18.1c-20.5 6.1-5.8-1.9 2.5-4.8v.4z" fill="#5c432d"/><circle cx="259.4" cy="181.6" fill="#809f2a" r="54.9"/><circle cx="208.4" cy="186.1" fill="#809f2a" r="55.9"/><path d="m290.4 324.6s-45-165-48-197.3c-2.9-31.2-33.9-8.8-33.9-8.8s19 178.6 6.4 234.9c-8.7 38.7 75.6-28.8 75.6-28.8z" fill="#5c432d"/><path d="m187.3 183.9s21.7 18 33.4 20.4c11.8 2.5.6 22.6.6 22.6s-38.4-15.3-49.8-37.9c-11.1-21.9 15.9-5.2 15.9-5.2h-.1z" fill="#5c432d"/><path d="m292.3 181.3s-20.5 57-19.2 73.9c1.3 17.1-7.6 30.8-7.6 30.8s-19.3-82.1 8.6-112.6c25.7-28 18.2 7.9 18.2 7.9z" fill="#5c432d"/><ellipse cx="289" cy="126" fill="#809f2a" rx="57.8" ry="52.2" transform="matrix(.9945219 -.10452846 .10452846 .9945219 -11.6 30.9)"/><ellipse cx="166.2" cy="157.3" fill="#809f2a" rx="48.3" ry="40.5" transform="matrix(.99167116 -.1287956 .1287956 .99167116 -18.9 22.7)"/><g fill="#9dbe3b"><path d="m229.1 16.7c1.5 9.9-5.7 19.1-16 20.5-10.4 1.4-20-5.5-21.5-15.4s5.7-19.1 16-20.5c10.4-1.4 20 5.5 21.5 15.4z"/><ellipse cx="258.8" cy="49.9" rx="55.2" ry="49.8" transform="matrix(.9945219 -.10452846 .10452846 .9945219 -3.8 27.3)"/><ellipse cx="306.1" cy="104.7" rx="74.3" ry="67.2" transform="matrix(.9945219 -.10452846 .10452846 .9945219 -9.3 32.6)"/><path d="m248.6 77.6c4.9 32.1-15.6 61.5-45.6 65.6s-58.3-18.6-63.2-50.7 15.6-61.5 45.6-65.6 58.3 18.6 63.2 50.7z"/><ellipse cx="156.5" cy="156" rx="48.3" ry="40.5" transform="matrix(.99167116 -.1287956 .1287956 .99167116 -18.8 21.5)"/><ellipse cx="242.8" cy="112.6" rx="48.3" ry="40.5" transform="matrix(.99167116 -.1287956 .1287956 .99167116 -12.5 32.2)"/><path d="m164.8 122.4c3.5 23.2-13.3 44.7-37.5 48s-46.7-12.8-50.2-36 13.3-44.7 37.5-48 46.7 12.8 50.2 36z"/><path d="m202.4 30.8c2.8 18.7-10.7 36-30.2 38.7s-37.6-10.3-40.4-29 10.7-36 30.2-38.7 37.6 10.3 40.4 29z"/></g><ellipse cx="233.7" cy="126.8" fill="#809f2a" rx="37.2" ry="41.2" transform="matrix(.08541692 -.9963453 .9963453 .08541692 87.4 348.9)"/><path d="m158.8 73.4c1.5 9.9-5.7 19-16 20.4s-19.9-5.4-21.4-15.3 5.7-19 16-20.4 19.9 5.4 21.4 15.3z" fill="#9dbe3b"/><ellipse cx="290.2" cy="83.6" fill="#9dbe3b" rx="35.7" ry="22.6" transform="matrix(.99189444 -.12706461 .12706461 .99189444 -8.3 37.6)"/><ellipse cx="238.4" cy="116.3" fill="#9dbe3b" rx="40.5" ry="44.5" transform="matrix(.10799936 -.99415096 .99415096 .10799936 97.1 340.8)"/><path d="m472.7 203.2c-20.7-9.6-34.4-20.9-46.2-33.4-3-3.2-11.5-24.3-1.6-14.8 26.7 25.6 37.5 42.3 91.8 38.3 9.1-.7 19.2-.2 26.5-3.1 23.4-9.3 44.5-28.2 56.7-35.8 6 7.8-6.3 30.1-7.7 31.6-22.3 23.3-56.3 16.8-63 17.3 3.5 14.3 24.7 69.3 24.2 69.2-22.7-5-37-3.1-64.8 2.2-13 2.5-11 8.7-10 22.1 1 13.1-11.4 4.2-9.1 15.1 4.9 23.8 19.3 19.8 1.2 37.8-18.8 18.7-25.8 47-34.6 59.7-12.8-6.7-21.5-14.1-32.5-24-19-17.1-49.7-15-58.5-21.2 9.3-13.5 49.8-46.7 72.4-76.5 24.9-32.7 52.2-64.3 55.2-84.4z" fill="#bababa"/><path d="m601.9 162.8c.4 18.6-26.9 42.9-50.7 41.6-5.4-.3 2.6-1.7 3.5-2.7 6.9-6.5 18.9-9.2 26.9-15 5.7-4.2 8.1-8.6 13.2-12.7 2-1.6 8.5-10.2 7-11.2z" fill="#7d7d7d"/><path d="m555.8 204.6c-1.5.1-3.1.1-4.6 0-1.8 0-2.1-.3-2.2-.7 0-.5.6-.8 2.8-1.5 1.1-.3 2.4-.8 2.7-1 3.8-3.6 9.3-6.1 14.6-8.5 4.3-1.9 8.7-4 12.3-6.6 3.1-2.3 5.2-4.6 7.3-6.9 1.7-1.9 3.5-3.9 5.9-5.8 1.5-1.2 5.7-6.6 6.9-9.4v-2.1l.5.3c.7.4.3 1.5 0 1.9-.5 8.3-6.3 18-15.3 26-9.4 8.3-20.7 13.4-31 14.2zm-6-.7c.2 0 .6.1 1.4.2h4.5c10.2-.8 21.4-5.9 30.7-14.1 8.4-7.4 13.9-16.2 15-24-1.7 2.9-4.9 7-6.3 8.2-2.3 1.9-4.1 3.8-5.8 5.7-2.1 2.3-4.3 4.7-7.4 7-3.6 2.6-8.1 4.7-12.4 6.6-5.3 2.4-10.7 4.9-14.5 8.4-.4.4-1.4.7-2.9 1.2-.8.2-1.8.6-2.3.8z" fill="#999"/><path d="m479.6 341.8c-14 14.4-23.8 25.7-32.2 46.2-2.4 5.8-9.9 12.9-13.4 17.8-2.4 3.5-25.3-16.1-28.4-19.5-8.8-9.5-4.4-7 2.1-11.6 7.7-5.3 18.7-23.7 30-30.3 6.5-3.8 15.6-16.9 17-24.2 2.5-13.2 15.2-47.7 25.5-52.5.8-.4-1.6 70.2-.6 74.1z" fill="#999"/><path d="m474.5 201.6c-9.8-2.3-22-8.5-27.6-12.3-13.1-8.8-21.9-14.9-25.7-27.7-2.7-9.2-15.8-29.5-16.5-9.7 2.8 14 8.1 31 23.5 40.2 7.4 4.4 13.1 6.9 21.4 8 8-.2 24.7 4.1 25 1.6h-.1z" fill="#e8e8e8"/><path d="m463.8 198.3h-.2c-1.6-.6-13.6-5.3-20.4-9.4-10.7-6.4-20.6-22.3-24.6-34.1 0-.2-.2-.7-.3-1.4-.9-4.1-1.5-6.3-2.6-6.2-.5 0-.9.6-1.3 1.7-3.2 9.6 3.4 20.2 10.4 27.9 3.2 3.6 5.5 6.2 8.3 9.2 1.9 2.1 6.6 5.4 11.9 8.8 6 3.8 11.6 5.8 15.2 5.5 1.5-.1 2.6-.6 3.5-1.4h.2v-.2l.2-.2h-.4v-.2z" fill="#cdcccc"/><path d="m559.3 205.8c-4.8.3-9.5 0-14.2-.4-6.1-.5-11.9-1-17.2.3l-1-4.1c5.9-1.4 12.3-.9 18.5-.4 8.2.7 16.6 1.4 24.4-2.3 10.1-4.8 22.9-14 27.1-23 .3-.6 1.4-4.9 2.3-9.9.9-5.3.9-8.2.7-9.5-2.3 1.1-4.8 3.3-7.2 5.4-1.5 1.3-2.9 2.5-4.3 3.5-11.5 8.3-22.8 15-34.8 22.1-1.5.9-3.1 1.8-4.7 2.8-4.9 2.9-10.6 3.5-16.1 4-4.2.4-4.6-.6-8.6.9l-5.5-2.4c4.5-1.7 9.1-2.2 13.6-2.6 5.3-.5 10.2-1 14.3-3.5 1.6-.9 3.1-1.9 4.7-2.8 11.9-7.1 23.1-13.7 34.4-21.9 1.2-.9 2.6-2.1 4-3.3 2.9-2.6 6-5.2 9.1-6.4 1.4-.5 2.8-.2 3.7.8 1.1 1.2 2.2 3.8.6 13.2-.8 5-2.1 10.1-2.7 11.4-4.7 10-18 19.7-29.1 25-4.1 1.9-8.2 2.8-12.3 3.1z"/><path d="m473.3 191c.9 1.7 2.9 4.4 3 6.3s-.2 1.8-1.1 3.3c-1.8 3 4.5 1.5 5.7 1.7 1.8.3 3.9.5 3.9-1.9s-.4-3.6-1.2-5.5c-.5-1.2-1.2-1.9-1.8-3.1-.6-1.1-2.4-1.4-3.6-1.3s-3.3.6-4.9.5z" fill="#999"/><path d="m472.9 205.2v-1.5c-.8-.1-1.5-.3-2.2-.5 0 1.1.8 1.8 1.7 2-1-.2-17.9-2.8-22.9-3.1-8.1-.5-18.1-4.1-23.2-8.5-11.7-10.1-23.6-22.9-22.8-41.2.4-8.4 1.6-12.3 4.4-13.2 3.1-1.1 6 2.2 9 5.6 1.3 1.5 2.6 3 3.8 4 3.8 3.3 9.2 8.1 12.8 12.1 2.9 3.3 10.8 11.2 19.9 18.1 9.8 7.4 17.5 10.8 21.6 9.6l1.2 4c-5.6 1.7-14.1-1.7-25.4-10.2-9.4-7.1-17.5-15.3-20.5-18.7-2.3-2.6-5.4-5.5-8.4-8.2.3 1 .5 1.9.5 2.7.4 4.9 7.8 12.9 11.9 17.1.5.5.9 1 1.3 1.4 11.3 12.2 35.5 25.7 44.6 22.8l1.3 4c-2 .6-4.3.7-6.7.4v1.1h-2c0 .1.1.2.1.2zm-64.3-60.6c-.4 1.3-.8 3.7-1 8.1-.7 16.5 10.4 28.3 21.4 37.8 4.4 3.8 13.5 7.1 20.7 7.5 2.2.1 6.3.6 10.2 1.2l-3.4-1.7c-9.2-4.9-18.4-11.7-24-17.8-.4-.4-.8-.9-1.3-1.4-6.3-6.7-12.6-13.8-13-19.7-.2-2.3-2.8-8.3-4.5-10.1-.6-.6-1.8-1.5-2.9-2.3-.8-.6-1.6-1.1-2.2-1.6z"/><path d="m539.6 175c-3.5-3.3-12-2.7-20.4-1.9-.9 0-1.7.2-2.3.2-5.9.4-10.6-1-12.9-4-1.4-1.8-1.7-4-1-6l2.3-6.6-5.6 4.2c-4.9 3.8-7 7.8-7.9 9.6v.3c-4.6 8.7-8.9 11.8-16.8 17.6l-2.4 1.7 1 1.6c.8 1.2 2.3 1.4 3.4 1.6h.3s.2 0 .4.2c.3.1.7.3 1.2.5.2 0 .3.1.3.1s.2.2.2.3c.2.2.4.6.8 1 .4.6.3 3.2 0 3.9-.3.5-2 1.5-2.7 1.9-.2.1-.4.3-.6.4-.8.5-1.1.4-3-.2-.2 0-.4-.1-.7-.2l-1.4-.5-.9 1.2c-5.1 6.8-11.7 10.7-15.9 20.9-.6 1.5 3.2 0 1.8 2.5-2.6 4.6-16.5 16.2-20.3 26.5-.8 2 1.7.6 1 2.1-6.1 13.2-22.5 20.1-23.8 28.7 0 .9 2.2-.5 2 .4-.6 2.7-4.4 8-9.2 15.2-8 12-27.4 25.1-36.9 36.6-7.9 9.5-23 24.2-26.3 27.9l3.1 2.8c3.3-3.8 18.4-18.5 26.3-28 9.5-11.5 29.2-25 37.2-36.9 1.1-1.7 2.4-3.5 3.6-5.2 3.2-4.6 4.7 1 7.5-2.7s4.8-7.6 5.8-8.9c.4.4.9.7 1.4.8 2.3.6-.3-7.1 3.8-10.9 0 .1 1.9 4.1 1.9 4.1l2.9-5.7c1.9-3.7 5.8-5.7 8.4-5.5 1.4 0-.2 3.7-.2 3.7s2.6.2 3.9-.5c5.3-2.9 0-7.2 2.2-9.9.8-1.1 2.2-2.8 3.2-3.8 0 .5.3 1.2.4 2.3l.7 6.9 4-5.7c2.2-3.1 3.1-6.6 3.8-9.1.2-.6.3-1.3.5-1.9l4 2.8-.4-5.4c-.3-4.2-.3-6.8-.3-8.3.8.7 1.8 1.5 2.9 2.3l2.7 1.8 1.1-3.1c.4-1 .6-2.2 1-3.6.6-2.5 2-8.4 3.8-8.3l3.2.3-.4-3.2c-.5-3.6.6-7.4 3.2-12.3 0-.2.2-.3.2-.5l4.5 4.4-1.2-6.5c-.7-3.4-.2-4.9.2-5.2.3-.2 1-.2 1.8.2 2.4.9 4.6 3.4 4.8 4.8l.9 6.5 3.1-5.8c1.6-3 3.4-6.2 5.1-6.3.8 0 2.6.4 6 4.4l3.1 3.7.6-4.8c.5-3.9-.9-7.7-2.1-10.4.4.3.7.6 1.1.9 1 .9 2 1.8 3.1 2.6l2.5 2 .8-3.2c.4-1.6 0-3.2-.8-4.8 1.6.9 3.4 1.8 5.5 2.6l4.9 1.9-2.2-4.8c-1.3-2.8-.5-.6-.7-1.5 1.5.6 7.9 4.9 8.5 5.2l.3-7.8c-.7-1.2-1.9-2.6-3-4-.4-.5-1-1.2-1.5-1.8.3-.1.5-.3.8-.4 2.1-1 5.4-2.6 7.7-2.2l2.4.4v-2.4c.2-1.5-.4-2.8-1.4-3.8z"/><path d="m517.3 230.5c.5-2.3 0-6.2 7.5-6.3 9.5-.1 7.6 1.5 9.7 4.9 0 8.5-3.8 9.6-11.6 9.3-2.6-.1-4.2-.9-5.3-3.1-.3-.5-.8-3.4-.4-4.8z" fill="#fff"/><path d="m527.1 239.6h-4.2c-3.2-.1-5.1-1.3-6.3-3.7-.3-.7-1-3.8-.4-5.6 0-.3 0-.5.2-.9.3-2.2.9-5.8 7.3-6.2h1.2c7.6-.1 8.7.9 9.9 3.7.2.5.5 1.1.9 1.8l.2.3v.3c0 7-2.6 10-8.6 10.4h-.2zm-3.3-14.1c-4.5.3-4.8 2.1-5.1 4.2 0 .4 0 .7-.2 1.1-.3 1 0 3.5.3 4 .8 1.7 2 2.3 4.3 2.4h4c4.1-.3 6.2-1.6 6.4-7.7-.4-.7-.6-1.3-.9-1.8-.4-1-.6-1.4-1.3-1.7-1-.4-3-.6-6.4-.6h-1.1z"/><path d="m493.2 230.8c1.9-4.8 7.6-6.2 8.7-6.2 3.4-.1 7 2.8 8.9 6.3.5 2.7 1.1 6-2.1 7.4-7.6 3.1-14.3 1.9-15.5-7.4z" fill="#fff"/><path d="m502.9 240.9c-2.3.2-4.3-.2-6-1.2-2.7-1.6-4.3-4.5-4.9-8.7v-.6c2.2-5.6 8.6-7 9.8-7 4.2-.1 8.1 3.5 10 6.9v.2l.2.4c.5 2.7 1.2 6.8-2.9 8.5-2.2.9-4.3 1.5-6.3 1.6h.1zm-8.5-10c.5 3.3 1.7 5.5 3.7 6.7 3 1.7 7.2.7 10.1-.5 2.1-.9 2-2.9 1.4-5.9-1.8-3.3-5.1-5.6-7.7-5.5-.7 0-5.7 1.1-7.6 5.2zm31.6 5.2h-.6c-1 0-1.6-1.1-1.6-1.8s0-1.9 1.1-2.4c.8-.5 1.5-.3 2.1 0 .7.3 1.3.8 1.4 2 0 .5 0 1.1-.5 1.5-.5.5-1.3.7-1.8.7zm-22.6 1.3c-.5 0-1.1-.2-1.3-.5-.5-.4-.6-.8-.6-.9-.2-1 .2-1.9 1.1-2.6l.3-.2h.3c1.5-.2 2.3.7 2.4 1.5 0 .6 0 1.5-1 2.2-.3.2-.6.4-1.2.4zm-.2-2.2v-.2zm-8.8-12.2-2.4.2c-.2-2.1 2-4.3 6.6-6.8 2.8-1.5 6.7.6 9.8 2.6l-1.3 2c-3.6-2.4-6.1-3.2-7.4-2.5-4.3 2.3-5.4 3.9-5.4 4.5zm35.3-3.6c-2.7-2.6-6-3.6-9.3-2.7-1.4.4-3.6 1.9-3.7 2.6l-2.4.2c-.2-2.6 4.2-4.7 5.4-5 4.1-1.1 8.4 0 11.6 3.3l-1.7 1.7h.1z"/><path d="m530.6 243.5c-6.1-1.9-6.9-2.3-14.1-1.7-4.4.3-7.6.4-11.6 1.9-1.6.6-6.9 2-8.5 3.5 1.9-.2 9-2.7 9.5-2.8 6.8-.9 8.6-.8 15-1.4 1.9-.2 5.2 1 9.7.6z" fill="#999"/><path d="m438 410-3.9-1.5c1.3-3.4 24.6-46.3 26-48.7 2.6-4.4 6.6-8.2 10.5-11.8 3-2.9 6.2-5.8 8.5-9l3.4 2.5c-2.5 3.5-5.8 6.6-9 9.6-3.8 3.6-7.5 7-9.8 10.9-2.1 3.5-24.6 45.3-25.7 48z"/><path d="m115.6 182.3c9.7 16 26.8 32.5 35.7 45.8 7.7 11.4 17.7 34 24.7 49.2 5 10.7 12.3 14.6 18.4 23.7 5.3 7.9 8.1-2.6 13.6-3.1 6.5-.6 0-7.7-2.2-11.6-.6-1-1.5-3.3 6.3-4.2 3.5-.4 3.2-7.7-3.8-12.6-2.6-1.8-14.8-9.8-9-11.4 1-.4 2.3.9 3 .4 6.5-4.3-1.3-5.5-1.9-11.5-.2-2.6-5.5-1.5-8.4-2.9-9.6-4.6-20.4-8.8-15.2-12 9.9-6.2 10.6-11.9 6.3-12.4-4-.5-5.5-3.9-6-5.8-4.8-5.7 4.1-6.1 2.6-8.8-.9-1.6-6.5-5.2-18.4-8.3-2.9-.7-7.5 2.1-10.9 2-6.1-.2-7.7-1.3-1.3-6.6 5-4.1-7.1-3.9-6-8.4.6-2.6 5.8-4.6 9.5-8.4-9.5-6.8-3.9-6.5-.7-14.2-22.7.3-24.4-2.8-29.8 7.5-3.6 6.9-5.4 14.9-6.6 13.7z" fill="#5c432d"/><path d="m181.1 287.9c-5.9-10.2-11.9-22.9-16.7-33.1-3.6-7.6-6.7-14.1-8.3-16.7-10.6-16.2-29.6-41.7-41.8-54.6l-.9-.9.5-1.1c2.3-5 3.9-7.5 5.1-9.3 1.8-2.7 2.7-4 4-12.1l.4-2.4 2.2 1c1.4.6 3.4 1 6 1.1 3.3.1 7.1-.2 10.5-.5 2.9-.2 5.6-.5 7.6-.4s4.2.1 4.9 2.4c.7 2.1-.9 4.4-6.1 8.5 1.3.6 3.4 1.2 4.8 1.7 1.2.4 2.5.8 3.6 1.2l2.9 1-2.2 2.1c-1 .9-2.9 2.1-5.2 3.6-2 1.2-5.3 3.3-6.8 4.6 2 .9 4 1.4 5.5 1.7 2 .5 3.8.9 4.1 2.6.4 1.9-1.3 3.2-5.5 6.1-1.7 1.2-2.6 2-3.1 2.5.3 0 .8 0 1.4.1 2.7 0 6.6-.3 10-.7 2.2-.2 4.3-.5 5.9-.5h1.1c8.7.3 18.7 8.4 20.4 12.3l1.9 4.5-4.4-2.1c-1.2-.5-2.7-.9-4.2-.9h-1.7s.1 0 .2.1c4.8 2.9 3.6 5.9 3.1 7.4 0 .1 0 .3-.1.4.5.3 2.1.9 6.9 1.4l1.7.2v1.7c-.2 2.3-1.9 5.2-5.4 8.6-1.8 1.7-3.8 3.4-5.7 4.7 1.4 1 2.7 2 4 3.1 4.3 3.5 8 6.5 16.5 6.7 1.6 0 3.4 0 5.3-.2l5-.4-3.5 3.6c-1.4 1.4-1.8 2.1-1.8 2.5v.4c.2.5.3 1 .3 1.4.8.2 1.4.4 2 .9 1.3 1 2 2.5 3.2 5l1.2 2.7h-2.9c-3.8-.2-5.8 0-6.7.1.8.8 2.4 2 3.6 3 4.1 3.2 9.7 7.7 11.4 13.1 1.1 3.6 1.1 6.2-.2 7.8-1 1.3-2.5 1.9-4.5 1.8s-2.6-.3-3.9-.7c3 3.4 7.4 8.6 6.7 13.6-.2 1.5-1.4 2.5-3 2.4s-1.5-.2-2.3-.5c-.7-.2-1.4-.4-1.9-.4s-.3 0-.3 0v.2c-1.5 4.4-3.7 6.6-6.8 6.5-4.6-.1-10-5.9-17.4-18.8zm27.4 8.9c.2 0 .4.1.7.2-.2-3.5-4.2-7.8-6.4-10.3-.5-.6-1-1.1-1.3-1.5-.8-1-2-2.5-1.3-4 .2-.4.8-1.3 2.2-1.2.8 0 1.8.3 3.1.7 1.5.4 3.3 1 4.7 1s1.2 0 1.4-.3c.1-.2.7-1.1-.4-4.5-1.3-4.3-6.4-8.3-10.1-11.3-3.8-3-6.3-5-5.4-7.3.7-1.8 2.8-2.5 8-2.6-.2-.4-.4-.7-.6-.8-.5-.3-1.7-.4-3.6-.5l-6.2-.4 5.4-3.1c.3-.1.5-.3.6-.4-.3-.9-.3-1.9.2-3.1h-1.7c-9.8-.3-14.4-4-18.8-7.6-1.9-1.6-3.8-3.1-6.1-4.3l-3.1-1.7 3.2-1.6c3.9-2 9.4-6.9 11.2-10.1-4.7-.7-6.7-1.5-7.6-3-.8-1.3-.3-2.7 0-3.5.2-.6.3-.9.3-1.2s-.3-.8-1.8-1.7c-2.2-1.4-3.1-2.9-2.7-4.4.5-1.8 2.8-2.8 6.1-2.7-3.4-2.9-8.8-6.2-13.7-6.4s-.6 0-.8 0c-1.5 0-3.5.3-5.6.5-3.6.4-7.6.8-10.5.7s-4.7-.1-5.4-2.5 2.1-4.7 5.1-6.8c1.3-.9 2.2-1.5 2.8-2h-.1c-1.9-.4-4.7-1.1-7.6-2.7-.9-.5-1.4-1.3-1.4-2.2 0-2.3 2.8-4.3 9.2-8.3.6-.4 1.2-.8 1.8-1.2-5.3-1.7-7.8-2.6-8.2-4.7 0-.4-.1-1.6 1.1-2.5 3.6-2.8 5.1-4.3 5.6-5h-1.1c-1.8 0-4.4.2-7.1.4-3.5.3-7.4.6-10.9.5-2 0-3.8-.3-5.2-.6-1.3 6.7-2.3 8.4-4.2 11.4-1.1 1.6-2.4 3.6-4.3 7.6 12.4 13.3 30.9 38.2 41.4 54.2 1.8 2.8 4.8 9.1 8.6 17.1 4.8 10.1 10.7 22.8 16.5 32.8 3.1 5.4 5.9 9.6 8.3 12.4 3.3 3.9 5.1 4.5 5.9 4.5 1.5 0 2.5-2.1 3.1-4 .6-1.8 2.1-2.8 4.1-2.8s1.9.3 2.8.5z" fill="#13110c"/><path d="m196.2 304.2c-2.8-4.4-5.8-8.9-9.1-13.6-6.8-9.8-13.8-20-18.8-30.8-7.4-15.9-16.9-29.8-26.1-43.3-6.3-9.2-12.2-17.8-17.6-27.1-.9-1.5-2.5-2.9-4-4.2-2-1.7-3.9-3.4-3.5-5 .3-1.7 2.9-3.2 7.9-4.7.4-.1.9-.2 1.5-.2 2 0 4.4 1 5.8 1.5 1.7.7 3.1 1.5 3.1 1.6s0 0 0 0c-3.8-.1-5.7.2-6 1.1-.4 1.3 3 3.6 7 6.3 1 .7 2.1 1.4 3.2 2.2 2.5 1.7 3.4 2.6 3.3 3 0 .3-.8.3-1.6.3-1.3 0-3.1 0-3.7 1.1-.5.9-.2 2.3.9 4.3 2.7 4.9 7.9 9.3 12.9 13.5 2.2 1.8 4.3 3.6 6.1 5.3.9.9 3.5 2.2 5.9 3.5 3 1.5 6 3.1 6.4 4v.2c-.1.2-.7.3-1.8.2s-3.2-.2-4.8-.4c-1.2-.1-2.3-.3-2.9-.3s0 0 0 0c-.2.5 0 2.8.7 5.5.5 1.8 1.6 5.2 3.5 6.6l13.2 9.9c.5.4 1.9 1.2 3.5 2.1 4 2.4 7.1 4.3 7 4.7 0 0-.1.1-.3 0-4.2-.1-6.5.3-6.7 1.2-.2.8 1.4 2.1 4.6 3.7 2.7 1.3 9 4.6 8.6 6.5-.2 1-2.3 1.4-6.1 1.3-2.7 0-4.1.1-4.2.6-.2.7 2.6 2 5.6 3.4 3.2 1.5 6.9 3.3 7.9 4.7.7 1 1 1.7.8 2s-.6.4-1.5.4-1.1 0-1.8-.2c-.8 0-1.7-.2-2.5-.2-1.7 0-2.9.2-3.8.7-.2.1-.4.3-.4.6-.1 1.3 2.4 3.8 5.2 6.6s7.1 7.1 7 9.5-.3.4-.8.4c-.9 0-2.5-.5-3.9-.9-1.1-.3-2.2-.6-2.7-.7s-.2 0-.3 0v.2c.4.5 1.4 3.4 2.3 6.3.5 1.7 1.6 5.7 1.3 6.3 0 0 0 .1-.2 0s0 0 0 0v.3zm-.4-12.3c1.4.4 3 .9 3.9.9s.7 0 .7-.3c0-2.4-3.7-6.2-7-9.5-2.9-2.8-5.3-5.3-5.2-6.6 0-.3.2-.5.4-.6.9-.5 2.1-.8 3.8-.7s1.7.1 2.5.2c.7 0 1.3.1 1.8.2.9 0 1.3 0 1.5-.4s0-1-.8-2c-1-1.4-4.7-3.2-7.9-4.7-3.1-1.5-5.8-2.7-5.6-3.5.1-.5 1.5-.7 4.2-.6s5.9-.3 6.1-1.3c.5-1.8-5.8-5.1-8.6-6.4-3.3-1.6-4.9-2.9-4.7-3.7.2-.9 2.5-1.3 6.7-1.2h.2c.1-.5-4-2.9-7-4.7-1.6-1-3-1.8-3.5-2.1l-13.2-9.9c-1.9-1.4-3-4.7-3.5-6.6-.7-2.7-.9-5-.7-5.5 0 0 0-.1.1-.1.6 0 1.6.1 2.9.3 1.6.2 3.4.4 4.8.4s1.7 0 1.8-.2c-.3-1-3.4-2.5-6.4-4.1-2.5-1.3-5-2.6-5.9-3.5-1.8-1.7-3.9-3.5-6.1-5.3-5-4.2-10.2-8.5-12.9-13.5-1.1-2-1.4-3.4-.9-4.3.6-1.1 2.4-1.1 3.8-1.2.8 0 1.5 0 1.6-.3.1-.4-.9-1.3-3.3-2.9-1.1-.7-2.1-1.5-3.2-2.2-4-2.7-7.4-5-7-6.3.3-.9 2.2-1.2 6-1.1s0 0 0 0c0-.1-1.4-.9-3.1-1.6-1.3-.5-3.8-1.4-5.7-1.5s-1.1 0-1.5.2c-5.1 1.6-7.6 3.1-7.9 4.7s1.5 3.2 3.5 5c1.5 1.3 3.1 2.7 4 4.2 5.3 9.2 11.3 17.9 17.6 27.1 9.2 13.5 18.8 27.4 26.1 43.3 5 10.8 12 21 18.8 30.8 3.2 4.7 6.3 9.2 9.1 13.6h.2c.2-.4-.2-2.8-1.3-6.3-.9-2.9-1.9-5.8-2.3-6.3v-.2h.3c.5 0 1.5.3 2.7.7v-.4z" fill="#6e4010"/><path d="m196.2 304.2c1.4.6-2.5-11.5-3.3-12.7-.8-1.3 7.5 2.4 7.5.9.1-4.9-14.8-14.8-11.8-16.7 3.7-2.3 12.4 2.1 8.8-2.8-2.6-3.6-21.9-9.1-9.3-8.7 12.3.4 3.4-4.9-2.5-7.7-6.1-3-7-5.2 2-4.9 2.1 0-8.6-5.8-10.2-6.9l-13.2-9.9c-3.5-2.6-4.7-12.2-4.1-12.2 2 0 9.9 1.3 9.4.3-.6-1.6-10.3-5.5-12.3-7.5-6.1-5.8-15.1-11.7-19-18.8-5.5-9.9 11.2-1.7 1.2-8.7-7.5-5.3-16.4-10-4.2-9.6.6 0-7-3.9-10.3-2.9-15.9 4.9-8.7 10.3-4.4 15.1 14.7 16.4 35.5 42.7 47.7 69.2 7.4 16 19.3 30.7 27.9 44.4z" fill="#4f351e"/><path d="m247.9 331c0-.3-22.7 0-36.2-10.9-40.8-37.6-38.1-62.5-61.4-94.1-30-40.8-43.3-46.8-41.2-60.3.3-11.1 8.5-23.9 8.9-36.2.2-5.4-14 24.3-15.5 26.5-4.7 7.2 1.7 22.4-4.2 10.3-1.5-3-37.4 13-41.3 28.6-.6 2.4-3 39.3-3.3 41.4 0 0 4.9-4.7-13.2 19-22.8 38.3-19.4 39.3-16.3 68.6 1.8 16.9 50.1 34.1 64.6 17.2 17.6-20.7 6.1-22.5 10.8-35 2-5.2 9.5-9.9 15.3-15.4 0 0 20.1 12.6 29.6 57.3.5 2.4 3.4 28.6 4.3 30l4.1 15.3c2 5.7 8.6 17.9 8.6 17.9l138.5-4.8 11.2-67.2s-34.2-3-63.5-8.2z" fill="#d0882a"/><path d="m115.1 290.6c21.7 19.5 27.9 51.7 33 80.5 1.6 9.2-4-2.5.6 4.9 1.3 2.1 2.7 17.9 3.5 14.5.4-1.8.7-3.4 1 2.7.9 17.4 58.2 4.6 57.8-12.2-.6-23.8-42.4-31.6-46-57.2-2.2-15.6-5.3-28.2-20.4-34.9-6.4-2.9-35.4-46.6-27.8-33 4.3 7.5-.7 32.8-1.6 34.8h-.1z" fill="#a36715"/><path d="m35.3 230.9c8.6-35.1 48.9-20.2 59.6-44.8 3.1-7.2 8.2-11.2 5.6-17.7-1.3-3.3-13.3-12-17.3-5.7-6 9.3-40.2-8.8-48.1 4.1 4 .5 11.3 4.4 8.9 4.3-13.9-.4-16.6 7.3-23.5 15.8-1.4 1.7-3.6 13.2-3.9 15.5 5.3-1.9 8.4-5.8 8.3-1.7-.5 15.3 5.4-6.7 4.9 8.8-.1 3.7-2.6 11.7 5.6 21.3h-.1z" fill="#5c432d"/><path d="m24.9 205.1c-.1-1.7 5-5.2 6.4-6.5.5-.5 4.3-4.6 4.7-2.9.5 2.2-4.5 6-5.9 7.3-1.2 1.2-2.8 2.5-3.4 3.4-.5.9-2.1 0-1.8-1.2zm74.6-36.8c-.5 3.5-13.5 4.2-24.4 6l-21.1 3.5c-5.2.9 16.5-2 20.4 1.8.4.4-15.3 3.1-20.5 5.6-2.1 1-5.7 3.4-7.1 5-.9 1 8.7-.2 8.4 0-12.5 4.4-18.2 14.4-20.1 24.6-.6 3.2-.9 12.7-.3 15.5 1 5.2 1.8-7.2 5.4-10.5 6.6-6.2 13.4-10.4 21.1-14 5.2-2.4 15.1-2.2 19.5-6.7l15.2-15.6c3.7-3.7 6.3-11.1 3.6-15v-.2zm-81.5 31.3c5.9 2.8 5.2-1.2 10.5-3.8 3-1.5 1.4-4.6-.7-3.8-2.8 1.1-9.3 4.3-9.8 7.6z" fill="#4f351e"/><path d="m33.2 233.9c-2.5-3.6-5-7.7-6.3-12.7-1-3.8-1.1-7.6-.4-11.4-.5.4-1.1.7-1.8 1.2l-2.5 1.7-.3-3c-.1-.9-.2-1.8-.4-2.7-.3-2-.7-4-.2-6.1-.5.4-.8 1.1-1.4 2.2-.4.6-.8 1.4-1.4 2.3l-2.4 3.9-1-4.4c-1.9-8.1.7-16.2 7.4-23.3 4.4-4.6 10.6-8.8 17.1-11.5-.9-.6-1.4-1-1.9-1.1s-1.1-.2-2.5-.2h-.8l-5-.2 3.5-3.1c5.4-4.8 18.2-5 23.4-4.8s7.2.8 12.9 1.7c6 .9 12.7 2 15.7 2.1s.7 0 .8 0c0-.8-2-3.6-5.3-5.8l-3.8-2.4 4.4-1c.4 0 .9-.1 1.4-.1 3.6.1 8.3 3.6 12.4 6.6 2.1 1.6 4.3 3.2 5.4 3.6l.4.2.3.4c1.7 2 3.3 5.8.5 12.5-2.1 5.3-6.6 11.6-11.9 16.8-5.6 5.4-11.1 8.7-15.2 9.1-14.1 1.2-32.2 7.2-37.8 29.2l-1 4-2.3-3.4v-.3zm59.4-69.2c-1.1-.8-2.4-1.8-3.7-2.7.4.8.6 1.6.6 2.4 0 1.4-.7 2.5-2 3.2-.6.3-1.3.5-2.7.4-3.2 0-9.8-1.1-16.2-2.1-5.1-.8-10.5-1.6-12.5-1.7-5.4-.2-11.6.2-16.1 1.6.5.3 1.1.7 1.9 1.2.7.5 1.6 1.1 2.8 1.8l3.3 2.1-3.8 1.2c-7.2 2.3-14.3 6.8-19.1 11.8-3.2 3.4-6.6 8.4-7 14.6 1.2-1.4 2.7-2.1 6.1-2.4l4.1-.4-2.4 3.4c-1.6 2.3-1.4 4.2-.9 7 1.4-1.1 1.8-1.6 2.2-2.1s.8-1.2 2-2.1l2.9 2.2c-4.4 9.7-2 17.5 2 24.2 2.9-8.2 7.7-14.7 14.4-19.5 6.8-4.8 15.4-7.7 25.5-8.6 3.1-.3 8.1-3.3 12.9-8 5-4.8 9.1-10.6 11.1-15.5 1.1-2.6 1.9-6.1.4-8.3-1.6-.7-3.6-2.2-5.9-3.9v.2z" fill="#13110c"/><path d="m119.6 131.1c-1.3 5.6-.7 9.4-3 14.1-3.1 6.3-9.8 17.8-7.9 25.5 1.3 5.3 1.9 10.2 7.6 9.7 3.7-.3 9.4-21.7 9.6-26.7s.3-9.4-2.2-13.9c-1.1-2-4.2-8.7-4.2-8.8h.1z" fill="#f9ca87"/><path d="m118.9 135.2c-1.4 7.5-5.5 14.5-7.6 21.6-.7 2.4-2.5 15.2-1.2 16.5 1 1.1 2.7-6.5 3.1-7.5 1.1-2.8 2.9-5.8 3.9-8.6 1.6-4.7 3.1-8 3.2-13.1s-.2-9.2-1.5-8.9z" fill="#d6a969"/><path d="m211.8 318c-25.5-23.6-37.8-51-46-69.3-9.5-21.1-27.2-41.6-40.2-56.6-3.1-3.6-5.9-6.8-8.1-9.5 2.5-2.6 4.7-7.1 5.6-9.1 2.1-4.8 3.5-9.8 3.6-13v-1.7c.4-10.9.8-23.1-6.9-30 0 0 0-.2-.1-.2-.8-1.5-2.2-2.5-4-2.9l-2.1-.5-.2 2.1c-.6 7-4.6 14.5-8.5 21.7-3.5 6.5-6.8 12.6-7.2 17.9l3.7.3c.3-4.4 3.4-10.2 6.8-16.4s7.1-13.1 8.5-19.9c.9 3-1.6 9.7-4 16.2-3.9 10.5-8.3 22.4-3.8 30.1 2.3 3.9 7.4 9.9 13.9 17.4 12.8 14.8 30.3 35 39.6 55.7 6.7 15 14.3 31.1 26.3 47.3 6.3 8.6 13.3 16.4 20.9 23.4.5-1.2 1.3-2.2 2.3-2.9zm-99.7-142.7c-3.6-6.2.5-17.3 4.1-27 1.8-5 3.4-9.3 4.1-12.9 3.3 6.2 3 15.2 2.7 23.3v1.7c-.2 5.2-4.5 15.5-7.8 19.3-1.3-1.7-2.3-3.1-3-4.3h-.1z" fill="#13110c"/><path d="m65.9 162.5c-.4-5.2.3-12.2 1.8-17.4 1.8-6.3 5-2.9 7.1 1.9 2.4 5.7 7 10.1 8.4 15.7.9 3.7-4.7 2-7 1.9s-4.8 0-7.1-.2c-1.8-.2-1.3-1.6-3.2-1.9z" fill="#a1692a"/><path d="m25 288.8c-3.9-3-8.1 1.4-9.6 4.5s-.4 5.3.9 8.1c.8 1.8 1.6 2.5 3.5 2.5 3.4 0 4.8-8.5 4.9-11.3 0-.7-.3-3.5.3-3.8z" fill="#a36715"/><path d="m28.3 277.6c-14.6 33.2-4.9 65 33.3 69.9 10.3 1.3 19.8 1.8 26.9-6.1 4.3-4.9 7.8-1.9 8-9.6 0-2.9 4.6-9.4 1.5-7.9-24.9 12.2-68.7 8.3-71.3-39.7-.1-2 .5-10.5 1.6-6.7z" fill="#a36715"/><path d="m119.6 270.6c-2.3 4-.7-7.1-1.4-2.3-2.7 20.4-18 16.4-22.9 20.2 4.6 7.2 2.1 11.8 2.4 16.2.4 5.2 5.5-5 8.4-7.5 4.4-3.6 6.9-7.4 9.4-12.2 1.3-2.5 4.2-14.5 4.2-14.4z" fill="#a36715"/><path d="m60.5 349.7c-9.3-.9-18.5-4.1-25.1-8.9-8.6-6.3-13.7-14.8-15.2-25.4-1.7-12.2 1.5-27 9.4-43.8 7.5-15.9 17-29.1 22.3-35.9-.3-15.8 1.5-27.9 4.6-31 .9-.8 1.7-1 2.3-.9l-.2 3.7c.3 0 .5 0 .5-.1-1.1.9-3.9 9.3-3.5 28.9v.7l-.4.5c-17.3 22-34.6 53.9-31.4 77.4 1.3 9.5 5.9 17.2 13.7 22.9 13.2 9.6 34.4 11.3 47.3 3.8 9.6-5.6 13.9-15.7 12.4-29.1-1-8.6 4.3-13.3 9-17.4 2.9-2.5 5.6-4.9 6.8-8 3.9-10.5 4.6-20.3 2.2-29.5-.5-1.9-1.1-4.1-1.7-6.6l3.6-.9c.6 2.5 1.2 4.6 1.7 6.5 3.8 14.6 3.8 15.2-2.3 31.7-1.5 4-4.7 6.8-7.8 9.5-4.4 3.8-8.5 7.5-7.7 14.1.9 7.8 0 14.6-2.7 20.3-2.4 5.2-6.3 9.4-11.5 12.4-6.2 3.6-14.3 5.4-22.9 5.2s-2.3-.1-3.4-.2zm4-186-.3-.3v-.4c-1.3-4.1-1-7.1-.6-11.5v-.2c.5-5.6 2.1-12.6 6.8-14.1l1.4-.4.8 1.2c1.4 2.1 2.5 4.5 3.6 7 1.4 3.1 2.9 6.3 5 9.2.5.6.9 1.5 1.5 2.5 1 1.9 2.7 5 4.1 5.4l2.6.8-1.7 2.1c-.7.8-2 1.8-6.9 1.9h-2.4c-4.7-.1-11.8-1-13.8-3.3h-.1zm14.8-5.2c-.5-.8-.9-1.7-1.2-2.1-2.3-3.2-3.9-6.5-5.4-9.8-.8-1.8-1.6-3.4-2.4-5-1.4 1.6-2.6 5.3-3 10.1v.2c-.5 4.2-.6 6.4.2 9.5 1 .6 3.9 1.4 8.4 1.7 2.7.2 4.8.2 6.4 0-1.2-1.4-2.1-3.2-3-4.7z" fill="#13110c"/><path d="m84.2 306c-.6-3.2-1.1-8.6-3.1-9.9-2.7-1.8-4.9-3.9-7.9-4-2.9 0 0 2.5 1.2 2.8 3.9.9 5.4 3.5 7 9.3.4 1.3.6 3.1 1.2 3.9.2.3 2.2-1.9 1.5-2.2h.1z" fill="#a1692a"/><path d="m152.2 395.8 3.4-1.6c-3.2-7-1-2.7-5.5-20.8-3.3-13.6-2.9-27-5.1-33.1-1-3-1.9-6-2.8-8.8-2.7-9-5.3-17.6-11.6-25.7-.5-.6-.9-1.2-1.4-1.8-4.8-6.1-10.1-13-14.3-15.9l-2.1 3.1c3.7 2.5 8.9 9.2 13.5 15.1.5.6.9 1.2 1.4 1.8 5.9 7.5 8.4 15.7 11 24.4.9 2.9 1.8 5.9 2.8 9 2.1 6 1.7 19.3 5 32.8 4.7 19.2 2.3 14.1 5.7 21.4z" fill="#13110c"/><path d="m83 309.7c2.3-1 3.3-3.5 2.8-6.6-.5-3-2.4-6-5-8.3-2.2-1.9-5.9-4.2-11.5-4.5-4.5-.2-13.7-.5-16.4 9.8l2.2.6c2.1-7.9 8.4-8.4 14.2-8.1 4.9.2 8.2 2.2 10.1 3.9 2.2 2 3.8 4.6 4.3 7 .2 1 .4 3.4-1.4 4.2l.9 2.1h-.2z"/><path d="m20.7 306.5.7-3.7c-3.6-.7-5.9-2.9-5.8-5.8.1-3.1 3-6.5 9.1-7.3l-.5-3.7c-8.3 1.1-12.2 6.2-12.4 10.9s3.3 8.5 8.8 9.6z" fill="#13110c"/><path d="m77.6 304.2c0-3.1-5.4-6.9-10.2-7-2.4 0-4.5.7-6.1 2.3-.5.5-1.1 1.2-.8 1.9.3.8 1.3.9 2.4 1h3.1c1.2 0 2.1.1 2.8.3 1.5.4 2.2 1.6 2.9 2.6.5.8 1 1.6 1.8 1.7h.1c3.4-.2 3.9-1.8 3.9-2.8z" fill="#4e3416"/><path d="m94.3 211.9c-2.9.2-5.3 2.6-6.1 3.9l-1.9-1.2c1.1-1.7 4-4.7 7.9-4.9 3.1-.2 5.9 1.4 8.6 4.8l-1.7 1.4c-2.2-2.7-4.4-4-6.7-3.9z" fill="#13110c"/><path d="m68.3 211.7c-2.4 0-4.6 1.2-5.8 2.9l-1.9-1.3c1.5-2.3 4.5-3.8 7.6-3.8 3.5 0 6.8 1.7 9.2 5l-1.8 1.3c-1.9-2.7-4.5-4.1-7.3-4.1z" fill="#13110c"/><path d="m87.1 221.4c4.4-2.1 10.6-1.5 12.7.9 2.3 2.7 1.9 7.5 1.1 8.9-2.2-.3-6.3-1.8-9.3-1.8s-5.3.6-7.6 0c-.9-1.8 0-6.5 3.1-7.9z" fill="#fff"/><path d="m100.7 232.2c-.9-.1-2.1-.4-3.3-.7-1.9-.5-4.1-.4-5.7-.4s-6.3-.3-8-.7h-.5c0-.1-.2-.6-.2-.6-.6-1.2-.6-3.2 0-5.1.7-2 2-3.6 3.6-4.3 4.8-2.3 11.6-1.7 14 1.2 2.6 3 2.2 8.4 1.2 10.2l-.4.7h-.7zm-13.1-9.8c-1.4.7-2.1 2.2-2.4 3-.4 1.1-.5 2.2-.3 2.9 1.1.2 5.5.5 6.8.5 2 0 4.3 0 6.4.5.8.2 1.5.4 2.1.5.4-1.6.4-5-1.2-6.9-1-1.1-3.4-1.8-6-1.8s-3.7.4-5.3 1.2z" fill="#13110c"/><path d="m90.1 229.9c-3-.3-1.4-4.9 1.1-5.2 5.5-.6 5.2 5.6-1.1 5.2z"/><path d="m62.2 222.1c4.8-2.3 6.1-2.8 11.6-.9 4.1 1.4 3.6 5 2.4 8.2-2.6.1-3.9 1.4-8.1 1.5-3.8.1-4.7-.8-7.5-.9-2.3-3.2-.7-6.2 1.6-7.9z" fill="#fff"/><path d="m63.2 231.5c-.8-.2-1.6-.4-2.7-.4h-.5l-.3-.5c-2.7-3.8-.7-7.5 1.8-9.4h.1c2.7-1.4 4.5-2.2 6.7-2.3 1.5 0 3.2.3 5.8 1.2 1.7.6 2.9 1.6 3.5 2.9.8 1.7.6 4-.5 6.8l-.3.7h-.7c-1 0-1.8.3-2.8.6-1.3.4-2.8.8-5.3.9h-.3c-2.2 0-3.5-.3-4.6-.5zm12.5-7.5c-.4-.8-1.1-1.3-2.2-1.7-2.4-.8-3.8-1.1-5.1-1.1s-3 .6-5.6 1.9c-1.1.9-3.2 3.1-1.5 5.9 1 0 1.7.3 2.5.4 1.1.3 2.2.5 4.1.5s.2 0 .3 0c2.2 0 3.5-.5 4.8-.8.8-.2 1.6-.5 2.5-.6.7-1.9.8-3.4.3-4.4h-.1z" fill="#13110c"/><path d="m66.9 230.2c-3.1-.7-3.5-4.7 0-5.1 5.2-.5 4 5.5 0 5.1z"/><path d="m57.2 237.8c7.3-1.5 22.7-1 29.4 1.3 3 1 6.3 1.8 9.3 2.5 8.3 2 4.1-.3.3-2.6-.9-.5-9.2-3.6-10.4-3.7-5-.6-11-1.1-16.6-1.3s-9.3 2.4-11.9 3.8z" fill="#a36715"/><path d="m161.7 412.9c-.7 0-1.3-.4-1.6-.9s-6.7-12.4-8.7-18.2l3.4-1.2c1.6 4.6 6.3 13.6 7.9 16.6l135.9-4.7 10.6-63.8c-6-.5-25.2-2.3-45-5.3-32.9-4.9-51.2-10.2-56.1-16.2l2.8-2.3c8.5 10.6 75.4 18.2 100.5 20.3.5 0 1 .3 1.3.7s.4.9.4 1.4l-11.2 67.2c-.1.9-.9 1.5-1.7 1.5l-138.5 4.8z" fill="#1d1d1b"/><path d="m320.1 103.4c-3.2-1.4-7-4-9.8-5.9-2.5-1.7-6.5-3.6-8.2-6-2.9-4.2-9.2-10.6-14.8-10.6s-4.3-.9-4.8.6c-3.1 8.3 10.2 16 15.2 17.6 2.1.7 23.7 11 22.4 4.2z" fill="#f9ca87"/><path d="m284.7 80.7c3.6 1.2 11.1 2.6 13.4 6.4 4 6.8 11.9 11.5 18.7 15.2 1.2.6 3.6 2.3 1 2.5-1.9.1-10.3-5.2-12.9-6.1-3.7-1.3-9.2-6.7-12.8-9.2-1.3-.9-9.7-8.4-7.4-8.8z" fill="#d6a969"/><path d="m338.7 97.2c-6.2-5.4-21.4-11.1-29.7-15-2.9-1.4-18.2-7-21.8-4.3-3.7 2.7 9.1 8.4 10.8 10.3 8.1 8.7 18.9 16.3 30.9 18 4 .6 3.9-1.5 5.2-4.4.8-1.8 4.4-4 4.5-4.7h.1z" fill="#a1692a"/><path d="m331.1 106.8c-13.8.9-22.7-6.9-29.9-13.3-2.3-2-4.5-3.9-6.6-5.4-1.9-1.3-3.8-2.5-5.5-3.5s-3.1-1.9-4.2-2.7c-.7-.6-2.7-2-2.2-4.1.6-2.4 3.5-3 8.9-3.4 11.2-.8 24.6 7.8 28.5 10.4 4.1 2.8 13.7 7.9 20.4 9.9l3.2 1-2.2 2.5c-1.1 1.3-1.9 2-2.5 2.5-1 .9-1.3 1.2-2.8 4.4l-.5 1-1.1.2c-1.1.2-2.3.3-3.3.4h-.2zm-42.9-27.7c.9.6 2 1.3 3 1.8 1.8 1.1 3.8 2.3 5.8 3.6 2.3 1.6 4.6 3.6 7 5.7 6.9 6.1 14.7 13 26.8 12.2.6 0 1.2-.1 1.9-.2 1.4-2.8 2-3.5 3.2-4.6-6.7-2.5-14.5-6.8-18.3-9.4-3.6-2.4-16-10.4-25.8-9.7-1.6.1-2.8.2-3.6.4z"/><path d="m319.8 108.3c-7.1.5-14.6-1.2-21.6-4.9-7.9-4.2-14.7-10.8-17.1-16.8-1.9-4.7-.9-8.5 2.6-10.3l1.9 3.8c-1.4.7-1.7 2.4-.6 4.9 1.7 4.2 7.1 10.3 15.1 14.6 8.7 4.6 18.1 5.7 26.5 3.1l1.3 4c-2.6.8-5.4 1.4-8.2 1.5h.1z"/><path d="m342.3 89.7c-6.8-5-13.3-12.2-21.1-15.5-3.5-1.4-4-.8-2.9 3.5 1 3.9 3.9 12.8 6.9 15.4.7.6 6.6 4.8 7.2 4.8 5.3.1 3.2-1.7 6.9-4.1 1-.7 3.2-4.1 3.1-4.1z" fill="#cdcccc"/><path d="m337.3 95.3c1.6-2 4.4-1.4 3.8-4.6-.2-1.2-1.6-2.8-2.8-3.5-1.8-1.1-1.2.1-2 .8 0 0-1.7-1.5-2-1.7-1.4-.9-3.5-1.3-4.8-2.2 0 0 0 .4.6 1.1 2.9 3.2 4 5.4 1.8 9.1-.7 1.2-.6 4 1.7 3.5.9-.2 2.1-.7 2.4-1.6.3-1.2.9-.3 1.4-.9z" fill="#bababa"/><path d="m332.4 102.2-1.3-1c-16.7-13-15.7-28.2-15.1-32.5l.3-1.9c.2-1.4 2-1.7 2.7-.5l.9 1.7c6 10.8 21.2 19.6 28.1 20l.7 4.1c-6.3 2.7-11.6 6.6-14.8 8.9l-1.7 1.2zm-12.2-26.7c.6 5.6 3.3 13.8 12.3 21.3 2.3-1.7 5.5-3.9 9.3-6-3.3-1.2-7-3.1-10.6-5.6-4.3-2.9-8.1-6.3-11-9.7z"/><path d="m383.4 92.3c10.4 1.7 30.2-8.3 43.6-5.7 15.4 3 19.1 15.9 18.4 18.2-4.3-2.2-24.1-9.5-32.4-8.5-6.4.8-11.5 1.5-17.8 4.5" fill="#a1692a"/><path d="m445.5 104.8c-6.6-5.5-20.5-10.4-30.9-9.7-1.9.1-11.9 4.4-11.8 5.7.2 3.2 11.9 1.6 14.2 2.3 3 .9 33.5 11.4 28.5 1.7z" fill="#f9ca87"/><path d="m444.6 104.1c-3.5-2.9-13.4-3.1-18.4-5.4-6.1-2.7-17.4-1.5-17.4-1.5s-4 4.4-3.2 4.4c7 0 17.8-1.4 23.1.9 3.8 1.6 9.9 2.3 14.9 3.8 1.5.4 4-.3 1.1-2.3z" fill="#d6a969"/><path d="m440.5 111.8c-4.7.3-11.3-1.4-19-3.5-8.9-2.3-18.9-5-26.5-4.3l-.4-4.2h.2l-.4-.9c6.4-3 11.6-3.8 18.4-4.6 7.6-.9 22.7 4.2 30 7.2-.5-1.3-1.2-2.8-2.4-4.5-2.2-2.9-6.3-6.8-13.7-8.2-6.8-1.3-15.6.8-24 3-7.4 1.8-14.4 3.6-19.5 2.7l.7-4.2c4.3.7 10.9-.9 17.8-2.7 8.9-2.2 18.1-4.5 25.9-3 10.5 2.1 15.5 8.3 17.6 11.9 1.9 3.2 2.9 6.6 2.5 8.7 0 2.7-1.3 4.3-2.3 5.1-1.2 1-2.8 1.5-4.8 1.6zm-36.9-11.7c6.2.8 12.8 2.5 18.9 4.1 8.2 2.2 17.6 4.6 20.1 2.6 0 0 .3-.3.5-.7-6.3-2.8-22.9-8.5-29.8-7.7-3.6.4-6.7.9-9.7 1.6z"/><path d="m418.8 77c-.2 4.6-3.5 9.5-6.7 13.9-1.4 1.9-1.4 4.3-3.3 6.4-2.8 3.1-7 5.8-10.2-.3-1-1.9-3.1-.4-4.1-2.3-1.6-2.9 3.4-5.6 5-6.1 3.5-1.1 9.3-6.6 11.3-9 .9-1 4.2-1.3 5.4-2 .8-.4 1.8-.7 3-.8 2.1-.2 1.2-1.1-.4.2z" fill="#ccc"/><path d="m415.7 76.6c-.9 1.7-.3 5.7-.3 8.3 0 4.2-5.2 8.8-7.9 11.5-2.3 2.3-4 5.7-8.2 2.8-1.4-1-5.8-4.7-6.7-6.1-.6-.9 4.2-4.1 5-4.6 5.3-2.8 9.6-4.5 14-9.1 1-1 2.9-3.2 4-2.7h.1z" fill="#cdcccc"/><path d="m416.4 81.1c-1.3 2.4-4.3 4.2-6 6.2-2.8 3.3-5.2 6.7-8.7 8.9-2.5 1.6-1.2 1.7 1.1 3.3 5.9 4.1 8.5-3.4 9.6-8 .7-2.7 2-5.1 2.6-7.6.3-1 1.4-2.7 1.3-2.7h.1z" fill="#bababa"/><path d="m404.9 105.7-1.7-1.3c-3.1-2.3-10.5-7.4-16.4-9.8l-7.3-3 7-3.1c7-1.3 20.6-4.5 29.2-15.9.9-1.2 3.3-1.5 3.6-.1.9 3.7.3 6.9-.8 10.3-2.2 6.7-6.6 14.7-12.1 21.3l-1.4 1.6zm-11-12.8c3.8 2.1 7.6 4.6 10.2 6.5 6.1-7.7 9.7-15 11.3-20.7-5.9 6.7-14.9 11.7-21.5 14.3z"/><path d="m441.7 375.6c-26.6 6.2-46.9 30.4-85.7 16.6-54.3-19.4-101.7 25.8-91-31.4 10.1-53.6 39.6-121.1 48-172.8 4.9-30.5 12.7-86.9 26.5-93.6 29.6-14.4 62-14.3 67.8 38.8 2.1 19.1 10.4 34.6 12.7 47.6 4 21.8 23.9 33.3 3.6 53.3-29.1 28.5 9.8 107.1 17.9 141.6h.2z" fill="#f6f6f6"/><path d="m393.9 92.3c-10.4-.5-15.9 50.7-11.7 57.8 3.7 6.3 14.7 9.9 17 16.5 6.6 18.8-2.5 23.4 17.2 26.6 12.8 2.1 13.2 8.2 7.5-9.5-4.8-14.8-14.3-38.8-15.4-54.9-.9-13.3-1.6-29.7-14.6-36.4z" fill="#a1692a"/><path d="m412.6 267.8c-3.1 5.1-29.1 8.9-22 15.8 12.3 11.8 2.9 58.4 20.5 65.7 12.6 5.3-5.4 5.4-7.6 9-4.9 8.1 15.9 8.6 18.5 9.3 1.8.5 21.7 17.7 18.7 2.7-3-15.1-6.4-38-13.1-51.7-4.3-8.9-7.2-20.3-9.9-30.1-.9-3.4-2-22.5-5.1-20.6z" fill="#a1692a"/><path d="m329.2 111.7c14-51.1 62 30 29.5 47.6-14.6 7.9-1.4 25.5-8.8 33.3-14.2 14.9-55.9 15.8-35.1 52.6l6.8 12c9.7 17.3 12.8 18.1 21.5 22.6 17.1 8.8-2.7 103.3-7.1 38.9-1.1-16.3-21.3-8.1-24.4 3.5-1.3 4.9-.6 10.6 3.5 11.4 19.7 3.9-8.5 24.8-19.2 21.7-12.3-3.5-36.8 41.2-30.9 2.4 12.7-83.6 32.7-111.9 33.2-114l13.7-49.3c13.9-50 8.9-51.2 15.7-75.2.8-2.9 2.4-7.6 1.6-7.5z" fill="#a1692a"/><path d="m355.3 269.7c4.7 7.9 19.6 9.8 28.3 11 10.9 1.5 18-2.2 27.1-8.9 10.1-7.4-20-12.7-25.6-12.9-7-.2-11.7 2.1-17.2 5.5-2.5 1.6-13.1 4.7-12.6 5.3z" fill="#d6a969"/><path d="m343.6 364.6c3.8-8.6 14.6-45.2 24.9-47.2 5.9-1.2-3.8 30.5-2 37.3 1 3.8 11.8-5.2 14.4-2.3 1.3 1.5 11.1 14 12.1 14.6 1.3.9 4 15.7 1.6 15.8-9.3.6-21.1-3.4-31.2-5.5-6.5-1.4-10.4-11.1-18.8-6.3-3.7 2.1-7.2-3.9-1-6.4z" fill="#a1692a"/><path d="m420.5 193.9c21.8 5 31.6 44.6 18.5 61.3-20.3 25.7-39.4-2.7-61.9 4.3-21.9 6.8-33.3 20.4-53.1 2.1-20.6-19-15.6-40.6.1-58.5 8.2-9.3 34.4-11.3 46.3-10.4 9 .6 48.3-6 50.1 1.3z" fill="#f9ca87"/><path d="m444 225.6c-7.2 54.4-34.3 22.1-61 22.1s-18.7 3.7-27 9.7c-7.4 5.3-18.1 4.8-29 .8-6-2.2-13.1-14.6-13.1-14.6 15.9 55.9 49.2 12.6 78 17.3 18.6 3.1 20.9 9.2 40.3 1.8 14.1-5.3 9.1-37 11.7-37h.1z" fill="#d6a969"/><path d="m331.6 145.1c1 6.1.7 29.6-3 34.3-3.6 4.6-5 16.3-7.3 22.6-2.6 6.9 13-2.6 14.3-4.1 3-3.4 2-65.1-4.1-52.8z" fill="#805322"/><path d="m425.6 218.8c-.8-6-4-9.4-8.5-9.1-.3 0-.6 0-.9.1-7.9.6-12.2 10-11.6 18.5.2 3.3 1.2 6.2 2.8 8.2 2 2.5 4.7 3.7 8 3.5.5 0 1 0 1.5-.2 6.7-1.3 9.7-13.5 8.7-21z" fill="#2a1d11"/><path d="m357.5 213.2c12.1.8 9.3 29.2-4.1 30.8-15.5 1.9-17.5-30 4.1-30.8z" fill="#2a1d11"/><path d="m439.6 376c-4.4-22.9-11.2-43.8-17.2-62.2-6.1-18.7-11.4-34.8-11.6-46.3h4.2c.2 10.8 5.4 26.7 11.4 45 6.1 18.6 12.9 39.6 17.3 62.8l-4.2.8z"/><path d="m440.6 207.3c-1.3-2.1-2.7-4-4.3-5.8-4.9-5.7-11.2-19.6-17.3-38.5-5.5-17.1-8.6-31.1-8.2-33.2 1.2-6.9 1-13.2-.8-19-1.6-5.1-4.3-9.7-8.2-13.7-11.6-11.9-30.7-15.3-39.9-13.8-13.5 2.1-22.4 6-27.9 12.3-4.9 5.6-7 16.4-8.4 23-1 3.8-6.2 31.5-8.7 44.9-.5 2.8-.9 5-1.1 5.9-7.8 40.9-15.2 67.8-21 75.8-7.6 10.6-17.3 48.8-22.3 70.6-6.3 27.1-12.2 57.7-11.9 61.8l4.2-.3c-.2-2.6 4.6-29.4 11.8-60.5 8.5-36.6 16.4-61.7 21.7-69.1 7.8-10.8 16.1-48.1 21.7-77.4.2-1 .6-3.1 1.1-6 2.3-12.2 7.7-40.9 8.6-44.6 2.8-13.1 6.1-27.4 32.9-31.6 8.6-1.4 25.7 2.2 35.7 12.4 7.2 7.3 9.8 16.9 7.7 28.4-.7 4 3.8 21.3 8.3 35.4 2.5 7.8 6.7 19.7 11.4 29.2-1.6-.8-3.3-1.5-5-2.2-9.9-3.6-22.6-4.3-37.6-2.2-17.5-1.4-32.7.4-45.2 5.1-5.2 2-9.9 4.5-13.8 7.4 7.9-19.4 11.1-38.9 9.8-59l-4.8.3c1.5 23.8-3.5 46.5-15.3 69.5-.5.8-.9 1.5-1.4 2.3-7.6 14.1-4.9 31.4 7.5 47.5 8.1 10.5 15.9 13.5 23.4 13 6.4-.4 12.7-3.4 18.9-6.3 6.9-3.3 14-6.6 21.8-7 4.4-.2 9.5 1.6 15 3.6 6.5 2.4 13.3 4.8 20.4 4.4h.3c8.1-.5 15-4.8 21.1-13 2.2-3 5-10.7 5.7-20.4.6-7.9 0-19.4-5.9-29.4zm1.1 29c-.7 9.3-3.3 15.9-4.8 17.9-11.7 15.9-23.6 11.5-36.3 7-5.9-2.1-11.4-4.1-16.8-3.9-8.8.4-16.3 4-23.7 7.5-6.5 3.1-12.6 6-18.4 5.9-6.4 0-12.1-3.6-17.9-11.2-11.2-14.6-13.8-30-7.1-42.3 7.4-13.6 24.5-21.8 47.3-23.3 6-.4 12.3-.3 19 .2h.6c23-3.3 39.4.2 49 10.4.2.2.4.5.6.7 1.2 1.4 2.4 2.9 3.4 4.6 5.4 9 5.8 19.4 5.3 26.5z"/><path d="m370.5 306.7c-30-2.1-57.8 0-72.8-33.6-9.7-21.7-26.6-7.2-8.7 17.3 23.7 32.6 74.4 36.2 112.9 31.1 12.3-1.6 31.2-7.5 24.4-21.9-2.1-4.5-14.9-3-20-.4-5 2.5-36 7.3-35.7 7.5z" fill="#9dbe3b"/><path d="m426.4 310.1c4.2-11.8-11.6 2-34.6 5.4-26.6 3.9-68.4 2.9-89-18.1-5-5.1-17.1-18.2-19-27.6-.5-2.2-5.8-1.6-2.6 8.1 3.8 11.2 15.9 16.7 16.6 25.5 17.2 18.2 94.6 30.2 128.6 6.7z" fill="#809f2a"/><path d="m379.3 326.8c-1.8.1-3.5.2-5 .2-26.5.5-50.5-6.1-71.5-19.5-6.2-4-12.5-12.1-15.7-16.6-3.1-4.3-7.7-11.7-8-14.2-.7-6.8 1.5-12.7 6.3-16.9.4-.4.9-.6 1.5-.6 2.4-.2 4.6 2.6 13.8 15.4 5.4 7.5 11.5 16.1 14.8 18.7 11.4 9.1 29 12.9 52.3 11.3 15.7-1 33.6-4.5 53.1-10.2l1-.3.9.6c3.5 2.4 6.1 6.7 6.5 10.9.3 3.3-.8 6.1-3 8.3-8.5 8.2-34.3 11.9-46.7 12.7zm-96-50.5c.5 2.4 11.9 21.4 21.8 27.7 20.3 12.9 43.5 19.2 69.1 18.8 1.5 0 3.1 0 4.8-.2 16.7-1.1 37.8-5.5 44-11.5 1.3-1.3 1.9-2.9 1.8-4.9-.2-2.6-1.8-5.4-3.8-7.2-19.4 5.6-37.2 9-52.9 10-24.4 1.6-43-2.5-55.3-12.3-3.8-3-9.8-11.4-15.6-19.6-3.5-5-7.8-11-9.9-13.1-3.1 3.2-4.3 7.3-3.8 12.2h-.2z"/><path d="m357.8 131.8c-2.6-3.4-8.6-5.4-12.4-4.1-2.2.7-3.4 2.4-3.4 5h-2.4c.1-3.7 1.9-6.3 5.1-7.3 4.7-1.5 11.9.8 15.1 4.9l-1.9 1.5z"/><path d="m401.1 127.7c-1.7-2.7-4.8-4.4-7.9-4.4s-5.6 1.8-7.3 4.8l-2.1-1.2c2.2-3.8 5.5-6 9.4-6s7.8 2.1 10 5.5l-2 1.3z"/><path d="m388.8 283.8c-3.8.3-7.9 0-12.1-1-10.6-2.2-19.7-7.5-24.1-10.4 0 0-.2-.1-.2-.1.7.5 1.9.5 2.7-.4l-1.6-1.4-1.6 1.4v-2.8c.6-.7 1.7-1 2.8-.3 0 0 0 0 .2.2 4.2 2.8 12.7 7.7 22.6 9.8 14.4 3 25.7-1.2 33.6-12.5l3.5 2.4c-4.9 7-11.1 11.7-18.4 13.9-2.4.7-4.9 1.2-7.5 1.3z"/><path d="m340.9 146.3c-2-4 2.8-10.8 9.2-12.1 7.1-1.3 16.9 6.3 12.3 12-1.9 2.4-5-.4-10.2.1-4.8.5-9.4 3.9-11.3 0z" fill="#fff"/><path d="m360.6 148.4c-.9 0-1.9-.1-3-.4-1.5-.3-3.2-.7-5.3-.5-1.4.1-2.8.6-4.1 1-1.4.4-2.7.8-3.9.9-2.1.1-3.6-.7-4.5-2.5s-.7-4.1.4-6.4c1.8-3.7 5.6-6.6 9.7-7.3.4 0 .8-.1 1.2-.2 5-.3 10.7 2.8 12.9 6.9 1.3 2.5 1.1 5-.6 7.1-.7.9-1.6 1.3-2.7 1.4zm-8.1-3.3c2.2-.2 4.1.2 5.6.5.9.2 1.8.4 2.4.3.5 0 .7-.2 1-.5 1.1-1.3 1.2-2.8.3-4.5-1.7-3.3-6.7-5.9-10.6-5.7-.3 0-.6 0-.9.1-3.8.7-6.7 3.5-7.9 6-.8 1.6-1 3.2-.4 4.3.5 1 1.1 1.3 2.2 1.2s2.1-.4 3.4-.8c1.4-.4 3-.9 4.6-1h.5-.2z"/><path d="m357.5 140.5c-1-1.6-2.8-2.4-5.1-2.4h-.4c-2.4.2-4.2 1.3-5 3.2s-.5 4.2.9 5.9l.5.6.8-.2c.5-.1 1-.4 1.4-.6.6-.3 1.1-.5 1.5-.5h.3c.5 0 .8.1 1.1.2.6 0 1.2.2 2.9.6l1 .3.4-1c.9-2.3.9-4.5-.2-6.1z"/><path d="m404.7 144.4c2.7-2.4-2.4-12.1-9.8-12.4-8.2-.3-17.5 7.4-11.5 12.3 2.5 2.1 8-1.7 12.2-1.4 3.1.2 6.4 3.8 9.1 1.4z" fill="#fff"/><path d="m402.9 146.4c-1.5.1-3-.6-4.4-1.2-1.1-.5-2.1-1-3.1-1h-.9c-1.4 0-2.9.6-4.4 1-1.5.5-3 .9-4.3 1s-2.5-.2-3.3-.9c-2.1-1.7-2.8-3.9-2.1-6.3 1.3-4.1 7.1-7.8 12.9-8.2h1.5c5.4.2 9.7 4.6 11.2 8.9.9 2.4.6 4.5-.6 5.6-.8.7-1.6 1-2.6 1.1zm-8.4-4.6h1.2c1.4 0 2.6.7 3.9 1.2 1.2.5 2.3 1 3.2 1s.8-.2 1.2-.5.5-1.4 0-3c-1.2-3.4-4.8-7.2-9-7.3h-1.3c-4.7.3-9.7 3.4-10.8 6.5-.4 1.4 0 2.6 1.3 3.7.3.3.9.4 1.6.3 1.1 0 2.4-.5 3.8-.9 1.6-.5 3.3-1 4.9-1.1z"/><path d="m399.9 138.9c-1.1-1.7-3-2.7-5.1-2.8h-.4c-2.8.2-5.1 1.6-6 3.8-.7 1.7-.5 3.6.7 5l.5.6.8-.2c.2 0 .5-.1.8-.2 1.1-.3 2.4-.7 3.3-.7s2.2.1 4.4 1.1l1.1.5.5-1.1c.8-2 .7-4.1-.3-5.8z"/><path d="m381.6 148.9c-3.3-.5-6.4-.7-9.4-.5s-2.8.3-4.5.6c-.9 1.6-1.3 2.8-2.3 4.2 6.9-1.6 12.8-1.7 18.2-1-.7-.8-1.3-1.6-2.1-3.3z" fill="#e8e8e8"/><path d="m359.8 77.4v-.2c0-1.4 0-2.7.4-4-1.8.5-3.1 1.7-3.8 3.1 1.3 0 2.5.5 3.4 1.1z" fill="#e8e8e8"/><path d="m336 89.8c1.4 4.2 5 4.2 10.8 4.3-2.6.8-5 3.3-3.4 7.4 1.2 3 5.8 5.4 10.6 3.5 2.2-.9 5.3-3.5 5.3-3.5s1.6 8.3 12 6.9c5.1-.7 7-6 7-6s3.7 5.1 8.4 5.4c5.8.3 10.6-2.7 10.7-7.1 0-1.6-1.3-4.2-2.5-5.1 4.1-1.8 7.2-4.3 6.1-7.5-.9-2.6-3.9-4.7-7.7-5.6v-.5c0-4.6-4.7-8.8-10.8-9.2-8.2-.5-9.8 8.3-9.8 8.3s-2.8-7.3-10.7-6.3-6.3 3.4-5.4 6.4c-3-1.7-7.2-2.5-11.5-1.9-7 .9-10.8 5.6-9.2 10.6h.1z" fill="#f6f6f6"/><path d="m401.1 88.2c-.6-1.7-2-3.2-4-4.2-.5 1.8-2 3.3-4.3 3.5-.2 2.6-2 5-5.6 4.9s-4.1-1.2-5.1-2.7c.3 3-1.5 6-5.6 5.9s-3.8-1-4.8-2.4c-.6 2.1-2.4 3.8-5.4 3.7s-4.7-1.7-5.6-3.6c-.8.5-1.9.7-3.1.7-4.1-.1-6.2-3.4-6.2-6.4-.9.7-2.1 1.1-3.6 1-5.1-.2-7.1-5.2-5.7-8.5-4.9 1.7-7.3 5.7-6 9.8 1.4 4.2 5 4.2 10.8 4.3-2.6.8-5 3.3-3.4 7.4 1.2 3 5.8 5.4 10.6 3.5 2.2-.9 5.3-3.5 5.3-3.5s1.6 8.3 12 6.9c5.1-.7 7-6 7-6s3.7 5.1 8.4 5.4c5.8.3 10.6-2.7 10.7-7.1 0-1.6-1.3-4.2-2.5-5.1 4.1-1.8 7.2-4.3 6.1-7.5z" fill="#e8e8e8"/><path d="m369.2 110.4c-5.8 0-9.1-3-10.7-5.9-1.1.8-2.5 1.7-3.7 2.2-2.8 1.1-5.8 1.1-8.5 0-2.2-.9-3.8-2.6-4.6-4.5-1.1-2.8-.6-4.9 0-6.2v-.2c-3.6-.4-6.4-1.5-7.6-5.4-.8-2.6-.5-5.3.9-7.5 1.9-2.9 5.5-5 9.9-5.5 3.4-.4 6.9-.1 9.9.9.2-.6.5-1.3.8-1.9 1.3-1.9 3.5-3.2 6.2-3.5 4.9-.6 8.3 1.6 10.4 4 1.7-3.2 5-6.3 10.4-5.9 6.7.4 12.1 4.9 12.5 10.2 3.9 1.3 6.7 3.6 7.6 6.4.7 1.9.8 5.5-4.9 8.7.9 1.4 1.5 3.1 1.4 4.5 0 2.2-1 4.2-2.7 5.8-2.4 2.2-6 3.4-10 3.1-3.3-.2-6.2-2.3-7.9-4-1.3 1.9-3.6 4.1-7.1 4.6-.9.1-1.7.2-2.5.2h.2zm-9.8-10.8c.2 0 .4 0 .6.1.6.2 1.1.8 1.2 1.4 0 .7 1.6 6.5 9.9 5.4 3.9-.5 5.5-4.7 5.5-4.8.2-.7.8-1.1 1.5-1.2.7 0 1.4.2 1.8.8.9 1.2 3.9 4.4 7 4.6 2.9.2 5.6-.6 7.2-2.1 1-.9 1.5-1.9 1.5-3.1s-1.1-3-1.8-3.5c-.5-.4-.8-1.1-.8-1.7s.5-1.3 1.1-1.5c1.8-.8 5.9-2.8 5.1-5.1-.6-1.9-3.1-3.6-6.4-4.4-.9-.2-1.5-1.1-1.4-2v-.4c0-3.6-4-7-9-7.3-6.4-.4-7.8 6.4-7.8 6.7-.2.8-.9 1.5-1.7 1.5s-1.6-.4-1.9-1.2c0-.2-2.4-5.9-8.7-5.1-1.6.2-2.8.9-3.5 1.8-.4.6-.5 1.4-.3 2.1s0 1.5-.6 2-1.4.5-2.1.2c-2.7-1.5-6.6-2.2-10.3-1.7-3.3.4-5.9 1.8-7.2 3.8-.8 1.3-1 2.8-.5 4.3.9 2.7 2.9 2.9 8.7 3h.4c.9 0 1.7.7 1.8 1.6 0 .9-.4 1.8-1.3 2.1-1 .3-1.8.9-2.2 1.7s-.4 1.9.1 3.1c.4.9 1.3 1.8 2.6 2.4 1 .4 3 1 5.6 0 1.6-.6 4-2.5 4.8-3.2.3-.3.8-.5 1.2-.5v.2z" fill="#1d1d1b"/><path d="m554.3 328.6c6.4-.3 11.9 5.3 12.2 12.7l4.3 80.4c.4 7.3-4.4 13.6-10.8 13.9l-508.4 27.4c-6.4.3-11.9-5.3-12.2-12.7l-4.3-80.4c-.4-7.3 4.4-13.6 10.8-13.9z" fill="#5c432d" fill-rule="evenodd"/><path d="m539.8 369.2c6.4 0 11.6 5.3 11.5 11.8 0 6.5-5.2 11.8-11.6 11.7-6.4 0-11.6-5.3-11.5-11.8 0-6.5 5.2-11.8 11.6-11.7z" fill="#f5d100" fill-rule="evenodd"/><path d="m530.2 387.4 15.4-16.4c.3-.3 2 1.3 2 1.3l.6.6s1.5 1.6 1.3 1.8l-15.2 16.5c-.4 0-1.8-1.2-1.8-1.2l-1-.9s-1.4-1.5-1.2-1.7z" fill="#ad9518" fill-rule="evenodd"/><path d="m70.6 396.9c6.4 0 11.6 5.3 11.5 11.8 0 6.5-5.2 11.8-11.6 11.7-6.4 0-11.6-5.3-11.5-11.8 0-6.5 5.2-11.8 11.6-11.7z" fill="#f5d000" fill-rule="evenodd"/><path d="m61 415.2 15.4-16.4c.3-.3 2 1.3 2 1.3l.6.6s1.5 1.6 1.3 1.8l-15.2 16.5c-.4 0-1.8-1.2-1.8-1.2l-1-.9s-1.4-1.5-1.2-1.7z" fill="#ad9518" fill-rule="evenodd"/><path d="m145.2 422.7c-5.3-8.8-6.6-14.5-6.6-14.5 0-.8 1.1-1.4 1.6-1.8s.9-.8 1.3-1.3c.9-1 1.6-2.1 2.2-3.3 1.7-3.5 2.6-7.4 3.5-11.2.9-4.3 2-8.6 2.7-13 0-.5.2-1.1 0-1.6-.3-.9-1.6-.5-2.3-.4-1.9.2-3.7.4-5.6.6s-3.8.3-5.7.4-2.2 0-3.3.2-2 .2-2.3 1.3c-1.5 5.9-1.8 11.1-2.4 14-.5 1.9-1 3.9-1.9 5.6-.4.7-.8 1.2-1.2 1.9s-.5 1-.9 1.3-1 .3-1.5.3c-.8 0-1.4.2-2-.4-1.1-1.3-.9-3.6-1-5.2-.3-4.8-.4-9.6-.4-14.4v-2.5c0-.8 0-1.6-.8-1.6-1.4 0-2.9.4-4.4.6-1.8.2-3.6.5-5.5.7-2.1.2-4.2.2-6.3.3s-2.1-.2-2.5.3-.1 1.8-.1 2.4c0 2.1 0 4.3.1 6.4.2 8.8 1.7 17.6 1.8 26.5 0 4.7-.1 9.5 0 14.3 0 4.4-.4 8.9-.2 13.3s.2 1.7 1.2 1.9c2.4.4 5.1 0 7.5 0s6.5-.5 9.7-1 2.3-.3 2.3-1.7-.1-2.3-.2-3.4c-.2-3.5-.7-7-.7-10.5v-5c0-1.6-.2-2.6 1.2-3.4.4.4.5 1.1.6 1.6.3 1.1.6 2.2 1 3.2 1.3 3.6 3.3 6.9 4.8 10.4.7 1.7 1.4 3.4 2.3 5.1.3.6.7 1.5 1.3 1.9s1.4.3 2.1.4c3.2.2 6.3-.2 9.5-.2s3.3 0 4.9.2c.8 0 2.1.3 2.9 0 2.5-1.3.7-4.8-.1-6.6-1.8-4-4.1-7.8-6.4-11.6zm56.1-42c-4.2-4.6-9.4-8.7-15.8-9.5-6.2-.7-12.5 1.6-17.6 5-11.4 7.8-15.1 22-13.2 35.2 1.7 12.2 9.6 25.1 22.4 27.7 5.8 1.2 12.3.2 17.4-2.8 5.3-3.1 9.2-8.3 11.6-13.9 2.7-6.4 3.1-13.2 2.6-20-.5-6.2-1.3-12.7-4.6-18.2s-1.7-2.5-2.7-3.6h-.2.1zm-13 33.1c-.8.8-1.7 1.7-2.7 2.2s-1.8.7-2.8.8c-2.1.3-3.8.2-5.3-1.4s-2.8-3-3.5-4.9c-.9-2.1-.9-4.3-.7-6.5.5-4 2.8-8.9 7.2-9.4 1.9-.2 4.1-.4 5.7.6s2 2 2.8 3.1 1.4 2.9 1.6 4.6c.4 2.8.4 5.8-.7 8.5zm68.6.5c-3.1.2-6.1 1.3-9.2 1.2s-3 .2-4.6.2-1.7 0-2.6 0c-1.6 0-3.4-.2-3.9-2-.2-.6-.1-1.6 0-2.3s.2-1 .5-1.3.5-.3.5-.4c.3-1.4 3.1-1.1 4.2-1.2 1.6 0 3.2-.2 4.8-.3s3.5.2 5.2.3c.9 0 1-.5 1-1.3s0-2.1.2-3.2c.3-2.1.3-4.2.5-6.3s.3-2.6.6-3.9.5-.9.5-.9c.4-.4-2.1-.9-3-.6-1.1.2-1.8.3-2.1.4-1.6.2-3.2.5-4.7.6s-2 0-2.9.3-2 .3-2.9.3-1.3-.4-1.9-.9-.7-.4-.9-.8c-.4-.8-.3-1.8-.4-2.6s0-.5 0-.7c.4-1.2 1.9-1.3 2.9-1.4s2.7-.2 4-.2h10.3c.8 0 1.5.2 2 0s.3-1.5.3-2c-.1-2.6-.3-5.2-.6-7.7s-.8-5-1.5-7.4-4-1.5-6-1.3c-5.4.7-10.9 1.3-16.4 1.6s-7 .4-10.5.3c-1.4 0-2.9-.2-4.3-.2s-1.2 0-1.4.5 0 .9 0 1.3c.4 3.8.5 7.7.9 11.6s.6 7.8.6 11.7-.1 5.1 0 7.6c.2 3 .3 6 .4 9 .1 4.2.2 8.4.3 12.6 0 3.1.1 6.2.4 9.3 0 .6.2 1.2.9 1.4s1.5 0 2.2 0h5.9c3.6-.2 7.2-.5 10.7-.7 4.2-.3 8.3-.4 12.5-.3s2.5 0 3.7 0 2.8.6 3.4-.8c.4-1 .1-2.5.1-3.5 0-1.9 0-3.8.1-5.7.1-1.7.4-3.3.6-5s.4-2.3.4-3.5c0-1.1-.4-1.6-1-1.6zm48.8-1.2c-1.4-2.2-3.1-4.2-4.7-6.2s-.9-1.1-1.3-1.6c-.9-.9-1.3 0-1.9.6-1 1.1-1.8 1.9-3.1 2.7-1.1.6-2.1 1.4-3.4 1.7s-2.6.3-3.9.4-2 0-2.9-.3c-1.9-.8-3.5-3-4.4-4.7s-1.3-4.1-1.4-6.3c-.3-4.4 1.2-10.8 6.1-12.2 1.4-.4 3-.5 4.5-.6 1.3 0 2.3.4 3.5 1s2.8 1.4 4 2.5c.6.5 2 2.4 2.8 1.3.3-.4.5-1 .7-1.5.4-1 .8-2 1.2-3.1 1-2.5 1.9-5.1 3-7.6s1.1-2.6 1.7-3.9.7-1.3.6-2c-.2-1.2-1.6-2.4-2.5-3.2s-1.9-1.7-3-2.5c-4.4-3-9.7-4.2-15.1-3.8s-10.5 3-14.4 6.6c-4.2 3.9-7.1 9-9 14.4-2.1 5.9-2.8 12.2-2.1 18.5 1.2 11 6.5 21.9 16.7 27.3 4.8 2.5 10.6 3.5 15.9 2.2 5.2-1.3 9.5-4.8 12.8-9 .9-1.1 1.6-2.3 2.4-3.4.3-.6.8-1.4.7-2s-.3-.6-.4-.9c-.8-1.5-1.8-2.9-2.7-4.4zm59.8-4.8c-.6-5.2-.9-10.3-1.2-15.5s0-10.6-.3-15.8v-12.3c0-1.1 0-2.1 0-3s-1.2-.8-2-.7c-1.2 0-2.4.1-3.6.3-2.4.3-4.8.5-7.3.5s-3.7.2-5.6.3-1.4 0-1.9.2c-.9.4-.5 1.8-.5 2.6.4 4.9 1 9.7 1.7 14.5.2 1.4.6 3.1-1 3.7s-1.7.3-2.6.4c-2.2.2-4.5.5-6.7.4-.4 0-.6-.2-.9-.4-.8-.6-.9-1.4-.9-2.4s-.1-1.5-.1-2.3c-.1-2.6-.1-5.2-.2-7.8s0-4.8-.3-7.2-1.2-.9-2.3-.8c-1.5.2-2.9.4-4.4.5-3.3.4-6.7.8-10.1.8s-1.3 0-1.9 0-1.2 0-1.6.1c-.8.4-.4 1.9-.3 2.6.2 2.4.4 4.8.7 7.2.6 5.9 1.2 11.7 1.4 17.6.1 4.4.4 8.8.5 13.3 0 3.3.3 6.5.2 9.8 0 3.1-.4 6.2-.6 9.2s-.2 2.3-.1 3.4.2 1.9 1.3 2c1.4 0 3-.3 4.4-.5 2.2-.3 4.3-.6 6.5-.8 2.3-.2 4.7-.3 7-.6s1.4 0 1.9-.5c.8-.6.5-1.9.4-2.7-.1-2.7-.3-5.3-.5-8-.2-2.6-.5-5.1-.6-7.7s-.7-4 .8-4.6 1.4-.5 2.2-.6c1.3-.2 2.6-.3 3.9-.3s1.8-.3 2.5 0 0 .4.4.5c1.2.3 1 2.5 1.1 3.4s0 2.6 0 3.9c0 3.8.2 7.7.4 11.5 0 .7 0 1.4.1 2.1s0 1.4.6 1.8 2.1.3 2.9.3c2.9 0 5.9-.4 8.8-.4h4.9c1.1 0 2.3 0 3.4-.2.6 0 1-.2 1.1-.3.6-.5.2-2.4 0-3.1 0-1.4-.3-2.8-.4-4.1-.4-3.4-.8-6.8-1.2-10.2zm26.9-33.9c0-3.9 0-7.9.2-11.8v-1.9c0-.9-.2-1.4-1.2-1.4s-1.5-.2-2.2-.3-1.5 0-2.2 0c-2.5.2-4.9.2-7.4.3-1.6 0-3.2.1-4.7.2h-2.5c-.8 0-1 .6-1 1.4v10.2c.2 4.3.8 8.6 1.1 12.9.5 5.3.7 10.6.9 15.9.2 4.8.4 9.6.5 14.4 0 2.3 0 4.5-.2 6.8s-.3 1.8-.3 2.4c0 1.8 2.7 1.4 4 1.4 2.1 0 4.2-.2 6.2-.4 1.9 0 3.9-.2 5.8-.4s1.7 0 2.5-.2 1.4 0 1.9-.4c.4-.3.3-1.2.2-1.7s0-1.3 0-2c0-1.6 0-3.2 0-4.8 0-3.9-.3-7.8-.7-11.6-.3-3.5-.6-6.9-.9-10.4-.2-2.4-.4-4.8-.3-7.2 0-3.9.3-7.8.2-11.6v.2zm58.5-19.8c-3.1.2-6.2.3-9.4.6-2 .2-4 .5-6 .7s-1.6 0-2.2.2-.6 1.3-.5 1.9c.4 6.4 1.1 12.9 2.1 19.2.2 1.1.2 2.3.2 3.5s.2 1.5-.2 1.8c-.6.5-1.6-.9-1.9-1.2-5.1-6.9-10.1-14-15-21-.6-.8-1.6-2.7-2.5-3s-1.5.2-2 .3c-1 .2-1.9.6-2.9.8-1.2.3-2.3.4-3.5.5-1.5 0-3 .1-4.5.1s-2.8-.2-3.2.7 0 1.1 0 1.6v2 4.4c.2 4.1.8 8.2.9 12.4s0 6.8 0 10.2c0 2.9.3 5.8.4 8.7.2 4.2.3 8.3.4 12.5 0 3.5 0 7 .2 10.5s.3 1.7 1.3 1.7h1.4c4.1-.2 8.1-.5 12.2-.7h2.1s.8 0 1.1 0c1.1-.5.5-2.5.5-3.4 0-1.5-.2-2.9-.4-4.4-.3-3.9-.8-7.8-1-11.7 0-1 0-2 0-2.9s.2-.8.3-1.2c0-.8-.3-2.1.2-2.7.3.2.5.3.6.5 5.3 6.9 10.8 13.6 15.6 20.9.5.7.9 1.4 1.5 2.1s.8 1.1 1.3 1.3 1 0 1.5 0h3.4 5.5c1.4 0 2.8-.3 4.2-.5 1 0 1.7-.2 1.6-1.4 0-1.6-.2-3.2-.3-4.8-.2-3.4-.4-6.7-.6-10.1-.3-5.5-.7-11.1-1-16.6-.3-4.3 0-8.5 0-12.8s-.3-11.9-.7-17.8 0-2.6-.9-2.5zm62.3 58.9c-.6-4.5-.7-9-.7-13.5s-.2-6.8-.3-10.3c0-2.1 0-4.2-.2-6.3 0-.7 0-1.5-.3-2.2s-1.2-.5-1.9-.4c-1.5.2-3 .4-4.4.5-1.5 0-2.9 0-4.4.2-1.2 0-2.3 0-3.5 0h-3.6c-1.2 0-2.3-.3-3.1.2-.9.4-.3 2.8 0 3.6.2 1.6.5 3.2.8 4.8s.7 2.6.9 4c-2.3 1.3-4.7 3.4-7.6 2.5-1.5-.5-2.8-1.6-3.8-2.8-.9-1-1.9-2-2.6-3-1.7-2.3-2-6-1.4-8.8.3-1.5 1-2.9 1.9-4.2s1.8-2.8 3.2-3.5 3.1-.6 4.8-.7 1.6-.1 2.3 0 1.7.7 2.5 1 1.5.5 2.1 1c.7.5 1.3 1.3 2.2 1.5s1.4-.4 2-1.1c2.8-2.9 4.7-6.5 6.7-10s1.7-2.5 1.7-3.7-.6-1.3-.9-1.8c-.6-.8-1.2-1.6-1.9-2.3-2.6-2.8-5.8-5.4-9.4-6.5-3.4-1.1-7.2-1.4-10.8-1.3-6.9.2-13.2 3.1-17.7 8.3-4.8 5.7-7.3 13-7.8 20.3-.5 7.8.6 16.1 4 23.2 1.5 3.2 3.6 6.1 6.1 8.6s5.7 5.1 9.1 6.8c6.3 3.1 13.9 2.7 19.9-1.1 1.5-.9 2.9-2 4.2-3.1.9.3 1.9.3 2.8.4 1.4.2 2.8.4 4.3.7 1.2.2 2.4.6 3.6.6s1.4-.8 1.2-1.8h.1z" fill="#f6f6f6"/><path d="m554 274.4c-19.5-4-28.4-4.5-41.1-3.7-.2 0-31.5 8.3-32.4 9.9-4 6.9.7 23.3-2 24.2-4.6 1.6-12.4 11.6-3.9 17.9 7.9 5.9 3.5 29.5 28.8 36.6 16 4.5 17.4 5.7 33.7 1.5 11.8-3 21.7-34.9 27.9-42.1 9.1-10.5 3.7-9.7-4.5-16.8s-4.1-27.1-6.5-27.5z" fill="#e8e8e8"/><path d="m554.7 275.2c1.6 14.4 9.1 33.9 5.5 51-5.9 28.7-23.4 45-59.9 33-14.6-4.8-27-32.6-19.6-25.6 16.5 15.6 56.9 10.5 64.7-4.9 6-11.9 8-36.4 6.8-54.1l2.5.5z" fill="#cdcccc"/><path d="m559.8 300.7c4.7-1.4 12.6 5.8 9.7 11.3-1.8 3.3-3.5 7.5-6.3 9.7-2.4 1.9-2.8-.1-3-3.1-.2-2.5.2-7.6.6-10.2.2-1.3-.7-5.6-1-7.7z" fill="#cdcccc"/><path d="m524.8 366c-3 .2-6.2.1-9.4-.3-8.3-1-16.6-4.2-23.2-8.8-10.5-7.3-15.9-17.3-15.1-27.5l-.7-.7c-1.6-1.5-2.8-2.5-3.4-3.3-2-2.8-4.8-6.6-4.4-12.8.3-5.2 3.1-7.6 5.4-8.8.8-.4 1.6-.7 2.5-.9v-5.2c0-1.4.2-6.3.3-10 0-5.8.5-9.4.8-12.9.2-2.2.4-4.4.5-7.2.4-8 2.3-16 3.8-22l4.1 1c-1.5 5.9-3.3 13.6-3.7 21.2-.2 2.9-.4 5.2-.6 7.4v1.7c3.3-2.2 6.9-3.4 9.1-4.2.2 0 .4-.1.6-.2 5.7-2 18.4-3.8 24.9-4.3 17.3-1.3 20.4-.5 32.1 2.5.9.2 1.8.5 2.7.7-3.7-12.8-8.4-25.5-13.4-34.9l-.2-.4v-.5c-.3-21.8-16.7-37.1-22.1-42.1l2.9-3.1c3.9 3.7 9.7 9.4 14.5 16.9 5.6 8.9 8.6 18.2 8.9 27.7 9.3 17.7 17 44.8 20.1 64.5 1.5-.2 2.8-.2 3.9 0 2.2.4 3.8 1.8 4.6 3.8 0 .4.3.7.4 1 .5 1.2 1 2.3 1.2 4.9.3 4-1.3 6.1-2.7 7.9-.3.4-.6.8-.8 1.1-.4.6-.9 1.1-1.3 1.5 0 .1-.2.3-.3.4-.3.4-.6.9-1 1.5-.7 1.2-1.6 2.8-3.2 3.9-1 7.6-2.9 14.3-5.9 20-3.9 7.3-9.3 12.8-16.2 16.4-4.7 2.4-10 3.9-15.5 4.3v-.2zm-43.6-34.5c0 8.1 4.7 16 13.4 22 13.2 9.2 31.2 11.1 43.8 4.5 9.2-4.8 20.3-16 20.5-42.9 0-8.8-2.5-23.7-6.7-39.1-1.9-.5-3.5-.9-5.1-1.3-11.4-2.9-14.1-3.6-30.7-2.4s-18.5 2.3-23.9 4.1c-.2 0-.4.1-.6.2-2.9 1-7.7 2.6-10.9 6 0 1.5 0 3.2-.2 5.2 0 3.6-.2 8.6-.2 9.9v4.7c4.6 0 9.6 1.9 13.2 4.2l-2.3 3.5c-4.5-2.9-11.6-4.7-15.8-2.6-1.9 1-2.9 2.7-3.1 5.3-.3 4.8 1.8 7.6 3.6 10.1.4.5 1.9 1.9 2.8 2.7.4.4.8.7 1.1 1 1.4.2 2.5.3 3.2.5 1.1.2 2.5.5 2.8 2 .2.9-.3 1.8-1.2 2.2-.3.2-.9.4-3.5 0h-.3v.2zm81.1-27.9c.6 4.5.9 8.4.8 11.6v2.5c0-.2.2-.3.4-.5 0-.2.3-.3.5-.5.3-.3.6-.7.9-1 .3-.5.6-.9 1-1.3 1.2-1.6 2-2.7 1.9-5.1 0-1.9-.4-2.5-.8-3.5 0-.3-.3-.7-.5-1.1-.2-.5-.6-1.7-4-1.2h-.2z"/><path d="m495.2 321.4c.9-2.8-4.1-6.2-6.2-6.8-1.2-.3-5.5-1.2-6.7-.6-1.1.5-2.1 1-1.4 2.5s1.6 3.1 2.6 4.5c.8 1.1 5.5 1.6 7.1 1.6s3.1-.7 4.7-1.2z" fill="#5a5a5a"/><path d="m367.7 314.6c0 .6 0 1.1-.2 1.5 1.8-1.5 4.1-2.5 6.4-2.8s.3 0 .5 0c.8-1 1.8-1.9 2.9-2.6-.4-.9-.5-2.8-2.3-5.6-3.1-4.7-7.7-13.6-15.3-7.7-.8.6-2.8 8.1-.2 7.7 4.1-.8 8.8-3.2 8.1 9.5z" fill="#f5d100"/><path d="m364.5 302.2c-.5.3-1.9.7-2.3.3-.5-.4-.7-.8-.6-1.6.3-1.5-.5-1.8-1.3-.6-.4.6-.2 3.3-1 3.7-2.3 1.3 5.7 1.9 5.3-1.9h-.1z" fill="#ad9518"/><path d="m377.2 311.9c-.5.4-2.4 1.1-3.7 1.6-1.6.7-4.8.6-5.5 2.1 0 0 .3-2.3.2-3.2-.3-2.9 2.8-4 5.5-4.7.6-.2 1.9-1.2 2-1 .6 1.5.7 3.5 1.2 5.1 0 0 .5 1.2.5 1s-.2-.6 0-.9z" fill="#ccae11"/><path d="m369.9 316.3-3.7.3c-.2-2.6-.8-5.6-1.2-7.2 0-.4 0-.7-.2-.9-.3-1.8-.7-2.7-.9-3.2h-1.7c0-3.1 1.4-3.7 2.2-3.8 1.2-.1 2.1.6 2.8 2.2.4 1 .8 2.4 1.2 4.1 0 .2 0 .5.2.8.4 1.7 1 4.8 1.2 7.7zm8.5-4.1-3.7.4c-.2-2.4-1.7-14.4-7.8-13.9-3.1.2-4.9.8-5.8 1.7-.8 1-1.1 2.7-1 5.9h-3.7c-.3-8 2.2-10.8 10.2-11.4 6.3-.5 10.7 6 11.7 17.3z"/><path d="m406.9 336.6-19.7-24.5-23.5-.8-3.9 12.6.8 30.3 40.9 1z" fill="#f5d100"/><path d="m406.9 336.6-18.4-1.3 13 19.9z" fill="#ccae11"/><path d="m369.7 331.3c-1.2-.9-4.9-15-3.8-18.9 0-.2-.7-1.4-1.5-.4-6.1 7.4-5.1 19.4-5.4 28.3-.2 6.3 1.2 14.7 6.2 4.5 1.4-2.8 5-9.4 4.5-13.4z" fill="#ccae11"/><path d="m401.5 355.2-13-21.1-18.8-2.8-8.1 22.1 10.8.8z" fill="#ad9518"/><path d="m358.7 356.1-.2-1.5c-.5-4.4-.5-10.4-.5-16.3s0-9.9-.4-13.2v-.2c0-1.2 1.5-5.3 2.4-7.6 2.5-6.4 3.2-7 3.6-7.3l.3-.3h.4c7.3-1.5 17.4-.4 24.4 1.1h.6c0 .1.4.6.4.6 2.3 2.8 5 6.4 8 10.3 3.4 4.5 7 9.2 10.3 13.3l.7.8-.4 1c-.8 2-1.5 5-2.3 8.2-.8 3.5-1.8 7.4-3 10.8l-.5 1.4-1.5-.2c-3.9-.6-12.4-.6-20.6-.5-8.3 0-16.2 0-20.4-.5l-1.5-.2zm2.7-31.1c.3 3.5.3 8.3.4 13.4 0 5.1 0 10.3.4 14.4 4.3.4 11.5.3 18.4.3s15.2 0 19.6.4c.9-2.8 1.7-6 2.4-9 .7-2.8 1.3-5.5 2.1-7.7-3.2-4-6.5-8.4-9.8-12.6-2.7-3.6-5.3-7-7.5-9.7-6.1-1.3-15.1-2.3-21.6-1.2-1.2 2.2-4.2 10.2-4.5 11.8z"/><path d="m378.4 334.5c.5 1.4-.6 2.2-.3 3.9 1.8 10.2 4.5 8.7 10.7 6.1.8-1.1-4.1-9.2-4.1-9.2s-3.7-1-6.3-.8z" fill="#f5d100"/><ellipse cx="385.2" cy="340.4" fill="#ffe965" rx="2" ry="4.3" transform="matrix(.98129266 -.19252197 .19252197 .98129266 -58.3 80.5)"/><path d="m387 333.3c-.9.5-1.7 1.2-2.7 1.5.3.7.4 1 .7 1.8 1.8 4.9 2.1 7.2 1.9 7.9-1 2.2-4.1 1.5-4.4 1.4-2.5-.6-2.6-7.5-4-11.2v-.2c-1.5-.3-3-.8-4.3-1.5.3 1.1.6 2.1.9 3 0 .1.9 12.2 6.6 13.6 1.7.4 6.7.6 7.9-2.4s2.1-3.4-1.1-11.8c-.3-.8-.6-1.6-.9-2.3l-.6.3z"/><path d="m362.1 355.2-3.4-1.4 9.9-24.6 37.2 5.7-.6 3.7-14.9-2.3-5.2-.8-14.2-2.2z"/></svg>