<svg version="1.1" id="Logo" xmlns="http://www.w3.org/2000/svg" xmlns:xlink="http://www.w3.org/1999/xlink" x="0px"
	y="0px" viewBox="0 0 2000 508" style="enable-background:new 0 0 2000 508;" xml:space="preserve">
	<style type="text/css">
		.st0 {
			fill: #50412B;
		}

		.st1 {
			fill: #473924;
		}

		.st2 {
			fill: #4D3E28;
		}

		.st3 {
			fill: #594831;
		}

		.st4 {
			fill: #54442D;
		}

		.st5 {
			fill: url(#SVGID_1_);
		}

		.st6 {
			fill: url(#SVGID_00000128485587364332662630000012122739592082619523_);
		}

		.st7 {
			fill: url(#SVGID_00000047766586873076686940000003034357610143611839_);
		}

		.st8 {
			fill: url(#SVGID_00000155861982354195331120000011980380350970382783_);
		}

		.st9 {
			fill: #F0F0F0;
		}
	</style>
	<g id="board">
		<path id="background" class="st0" d="M1822,6.7c72-4,114.5-6.5,114.5-6.5c24-1.5,44.5,20,46,47l17.5,299.9
		c1.5,27.5-16.5,50.5-40.5,52L63.6,508c-24,1.5-44.5-20-46-47L0.1,161.1c-1.5-27.5,16.5-50.5,40.5-52c0,0,1057.6-61,1593-92
		L1822,6.7z" />
		<path id="shadow" class="st1" d="M1474.1,93.2c352.4-35,504.3-62,504.3-62l2,8c0,0-224.9,29.5-505.3,58.5
		c-283.4,29.5-555.3,59.5-555.3,59.5s-133,11.5-222.4,23c-80.5,10.5-183.9,16-286.4,26.5C205.1,227.1,5.6,238.1,5.6,238.1l-0.5-17
		c0,0,198.9-6.5,405.9-23.5c104.5-9,205.4-20,288.9-28.5c95-9.5,227.4-18,235.4-19C1135.8,129.6,1330.7,107.6,1474.1,93.2z
		 M1171.7,89.2c165.4-15,365.9-34.5,523.8-50c-1,0,14.5-1.5,44.5-4.5c28.5-3,42.5-4.5,42.5-4.5c110-11,184.4-18.5,184.4-18.5
		l-15-8.5c0,0-49,5-146.5,15.5c1.5,0-26.5,3-65,7.5c-38,4.5-66.5,6.5-67,6.5c-108,11.5-239.9,25.5-377.9,38
		c-140,13-291.9,24.5-437.4,33.5c-557.8,35.5-853.7,31-853.7,31l-3.5,16l858.7-34.5C859.8,116.6,1018.3,103.2,1171.7,89.2z
		 M1998,338.6c0,0-72,3-227.9,18c-81.5,7.5-229.9,11-235.9,11c-17,0-232.9,30.5-503.8,34.5c-7,0-213.4,13.5-299.4,14.5
		C647.4,417,535.5,430,430.5,429c-207.4-2-412.9,14.5-412.9,14.5l1,5c0,0,204.9-11,411.9-12.5c103-0.5,220.4-12.5,301.4-15
		c90.5-3,290.4-11.5,290.4-11.5s503.8-28,514.8-34c8.5-4.5,154.4-10.5,233.4-15c33.5-2,226.9-14,226.9-14L1998,338.6z M1484.1,279.1
		c-82,1.5-149.4,9-155.4,7.5c-12-3.5-20-3.5-290.9,0c-1,0-227.4,2.5-323.4,3c-83.5,1-189.4,3-294.4,2c-207.4-2-410.4,10-410.4,10
		l1,7c0,0,201.9-10,408.9-11c103-0.5,213.9-1,294.9-4c90.5-3,327.9,0,327.9,0s274.4-7,285.9,3c2.5,2,70.5-2.5,156.4-7.5
		c196.4-10.5,509.8-17,509.8-17v-3.5v-5.5C1992.5,263.6,1663.1,276.1,1484.1,279.1z M1404.2,229.6c0,0-25.5-0.5-41.5,0
		c-20.5,0-58.5-1-107.5-3.5c-20.5-1-45.5-7-53.5-9c5.5,2.5,25,11,69.5,12c14.5,0,54,3.5,67.5,3.5c19,0,69-0.5,70-0.5
		c137,0.5,87.5,3.5,247.9-2c314.4-11,333.9-8.5,333.9-8.5v-8c0,0-21,3.5-301.4,11C1405.7,233.1,1404.2,229.6,1404.2,229.6z
		 M1357.7,325.1c-17,0-43,5-313.9,9c-1,0-229.4,15.5-325.4,16.5c-83.5,0.5-189.9,10.5-294.4,9.5c-207.4-2-411.4-2-411.4-2l2,5
		c0,0,202.4,2,409.4,0.5c103-0.5,215.4-6.5,296.4-9c90.5-3,316.4-13.5,316.4-13.5s312.4-3,323.4-9c8.5-4.5,114.5,2,193.9-2
		c196.4-10.5,443.9-11,443.9-11l-1-6c0,0-262.9,6-442.4,9C1472.1,323.6,1363.7,325.1,1357.7,325.1z M1199.7,216.1c0,0,1,0,2.5,0.5
		c-1-0.5-1.5-1-1.5-1L1199.7,216.1z" />
		<path id="darken" class="st2"
			d="M271.5,159.6L271.5,159.6L271.5,159.6L271.5,159.6z M103.1,178.6c53-3.5,36.5,0.5,82-5
		c0.5,0,17-1.5,23.5-2c4.5-0.5,22-2.5,27-3.5c16.5-2,33.5-7.5,36-8.5c-3.5,0-36-2.5-44-1c-16,3-24.5,1.5-31,2
		c-5.5,0.5-48.5-1.5-48.5-1.5s-67.5,1-80.5,2c-24.5,2-66.5,3.5-66.5,3.5l0.5,11l0.5,13C3.6,188.1,15.6,184.6,103.1,178.6z" />
		<path id="highlight" class="st3" d="M384,97.7l-73.5-1.5c0,0,299.9-13.5,857.7-45.5c21.5-1,159.9-9,166.4-9c63.5-4,112-6.5,129-7.5
		c10.5-0.5,148.9-13,148.9-13l16,1c0,0-295.9,25-307.9,26c-5,0.5-147.5,10-147.5,10L384,97.7z M254.1,164.1L254.1,164.1L254.1,164.1
		L254.1,164.1z M4.6,195.1L4.6,195.1L4.6,195.1z M1169.2,92.7c172.9-16,380.4-35.5,543.8-51c6.5-0.5,17.5-0.5,24-1
		c13-1,24.5-2,25.5-2.5C1888,26.7,1971,17.7,1971,17.7l-6-7c-1-1-2.5-2-3.5-3c-8.5,1.5-73.5,12-181.9,24c0,0-19,3-41.5,5
		c-23.5,2-38,3.5-38,3c-113,11-255.4,22.5-405.9,36.5c-140,13-291.9,27.5-437.4,37c-557.8,35.5-855.2,34-855.2,34l-1,9l855.7-37.5
		C856.8,119.1,1015.8,106.1,1169.2,92.7z M1983,65.7c0,0-16.5,6.5-330.9,35.5c-159.9,15-110.5,10.5-246.9,34.5c-1,0-49.5,12-69,15.5
		c-13.5,2-53.5,11.5-68,15c-46,9.5-59,22.5-61.5,25.5c3.5-1.5,23.5-11,46-17c49-13,86.5-22,107-25c16-2.5,41-7.5,41-7.5
		s1-6.5,284.9-36c280.4-29,298.9-31.5,298.9-31.5L1983,65.7z M1205.7,192.6c0,0,0,0,0.5-1c-0.5,0-0.5,0-0.5,0V192.6z M695.4,183.1
		c90-11.5,222.4-24,222.4-24s267.9-29,551.8-58.5c280.4-29,512.3-54,512.3-54v-4.5c0-2-0.5-4-1-5.5c-14,2-218.4,33-521.8,61
		c-159.9,15-353.9,45-555.8,58c-1,0-109.5,11-204.4,20.5c-83,8.5-182.9,18-287.4,27c-206.9,17.5-404.9,29-404.9,29l1.5,8.5
		c0,0,197.9-10.5,403.9-31.5C513,198.1,615.4,193.6,695.4,183.1z M106.1,184.6c53-3.5,36.5-2.5,82-8c0.5,0,16.5-2.5,23-3.5
		c4.5-0.5,18-2.5,22.5-3.5c15.5-2,19.5-5,20.5-5.5c-1,0.5-8,2.5-15.5,4c-16,3-28.5,5-35.5,5.5c-5.5,0.5-13.5,1.5-13.5,1.5
		s-0.5-2-94.5,5c-93,6.5-91,8.5-91,8.5l0.5,6.5C4.6,194.6,9.6,190.6,106.1,184.6z" />
		<path id="lighten" class="st4" d="M1998,343.1c0,0-145.5-10-341.9,0c-86,4.5-274.9,11-277.4,9c-11.5-10-283.9,0-283.9,0
		s-195.9,9.5-286.4,12.5c-81,2.5-278.4,19-381.4,19.5c-206.9,1.5-412.9,6-412.9,6l-2-22.5v-2.5c2,0,206.9-2,413.4,0
		c105,1,250.9-11,334.9-12c90-0.5,288.4-13.5,303.9-14c270.9-3.5,267.4-11.5,279.4-8c6,2,72,1,153.9-0.5c179.4-3,498.8-15,498.8-15
		L1998,343.1z M1233.7,225.6L1233.7,225.6L1233.7,225.6z M12.1,330.6c0,0,200.4-15.5,407.4-16.5c103-0.5,263.4-8,344.4-11
		c90.5-3,320.9,0,320.9,0s268.4-0.5,279.9,9.5c2.5,2,202.4-12.5,288.9-17c196.4-10.5,341.9,0,341.9,0l-1-27.5
		c0,0-319.4,11.5-498.8,15c-82,1.5-159.4,10.5-165.4,8.5c-12-3.5-5-5-275.9-1.5c-1,0-242.9,1-338.4,1.5c-83.5,0.5-192.9,4.5-297.9,3
		c-207.4-2-408.4,10.5-408.4,10.5L12.1,330.6z M1531.6,118.1c-25-1-113,18-113,18l-170.9,36c0,0-95,30-20.5,51.5
		c5.5,1.5,6.5,2,6.5,2s-1-1,6.5-1c19,0,69.5,4.5,70.5,4.5c137,0.5,63,7.5,222.9,2.5c314.4-10.5,457.3-13,457.3-13l-8-147
		c0,0-145,15.5-226.9,21.5c-37,2.5-93,12-93,12s-45.5,6-61.5,6.5C1580.6,111.6,1580.6,120.1,1531.6,118.1z" />
	</g>
	<g id="screw_2">

		<linearGradient id="SVGID_1_" gradientUnits="userSpaceOnUse" x1="21140.4902" y1="5865.8555" x2="22476.9766"
			y2="6637.478" gradientTransform="matrix(5.625563e-02 0 0 5.625563e-02 655.9023 -155.9722)">
			<stop offset="0" style="stop-color:#A89A33" />
			<stop offset="1" style="stop-color:#E5CF1D" />
		</linearGradient>
		<path class="st5" d="M1882.5,151.6c24,0,43,19.5,43,44s-19.5,44-43,44c-24,0-43-20-43-44S1859,151.6,1882.5,151.6z" />

		<linearGradient id="SVGID_00000098207160773085053280000017639768490150721198_" gradientUnits="userSpaceOnUse"
			x1="21682.3984" y1="6134.3975" x2="21953.5215" y2="6387.2192"
			gradientTransform="matrix(5.625563e-02 0 0 5.625563e-02 655.9023 -155.9722)">
			<stop offset="0" style="stop-color:#807724" />
			<stop offset="0.1184" style="stop-color:#968A20" />
			<stop offset="0.2419" style="stop-color:#B2A417" />
			<stop offset="1" style="stop-color:#B2A417" />
		</linearGradient>
		<path style="fill:url(#SVGID_00000098207160773085053280000017639768490150721198_);" d="M1847,220.1l57.5-61.5c1-1,7.5,5,7.5,5
		l2,2c0,0,5.5,6,4.5,6.5l-56.5,62c-1.5,0-6.5-4.5-6.5-4.5l-3.5-3.5C1851.5,226.6,1846.5,220.6,1847,220.1z" />
		<g>
			<defs>
				<ellipse id="SVGID_00000049211613602464734730000003787533320119444142_" cx="1882.5" cy="195.6" rx="43"
					ry="44" />
			</defs>
			<clipPath id="SVGID_00000132077677495610905550000016985673863592215961_">
				<use xlink:href="#SVGID_00000049211613602464734730000003787533320119444142_" style="overflow:visible;" />
			</clipPath>
			<g style="clip-path:url(#SVGID_00000132077677495610905550000016985673863592215961_);enable-background:new    ;">

				<image style="overflow:visible;" width="442" height="450"
					xlink:href="../../../../../Volumes/Externe schijf/Documenten/Werk/Lennart Klein/Klanten/Koeching/website/2014/LOCAL/res/gfx/2B8A7C16.png"
					transform="matrix(0.5348 0 0 0.5348 1772.7704 82.4879)">
				</image>
			</g>
		</g>
	</g>
	<g id="screw_1">

		<linearGradient id="SVGID_00000046311517022660365260000016974423860988363453_" gradientUnits="userSpaceOnUse"
			x1="-9957.8027" y1="7815.7124" x2="-8622.458" y2="8586.6768"
			gradientTransform="matrix(5.625563e-02 0 0 5.625563e-02 655.9023 -155.9722)">
			<stop offset="0" style="stop-color:#A89A33" />
			<stop offset="1" style="stop-color:#E5CF1D" />
		</linearGradient>
		<path style="fill:url(#SVGID_00000046311517022660365260000016974423860988363453_);" d="M133.6,261.6c24,0,43,20,43,44
		c0,24.5-19.5,44-43,44s-43-19.5-43-44C90.6,281.1,109.6,261.6,133.6,261.6z" />

		<linearGradient id="SVGID_00000098937045269786318080000014720579444593856158_" gradientUnits="userSpaceOnUse"
			x1="-9416.2471" y1="8086.562" x2="-9145.1396" y2="8339.3721"
			gradientTransform="matrix(5.625563e-02 0 0 5.625563e-02 655.9023 -155.9722)">
			<stop offset="0" style="stop-color:#807724" />
			<stop offset="0.1184" style="stop-color:#968A20" />
			<stop offset="0.2419" style="stop-color:#B2A417" />
			<stop offset="1" style="stop-color:#B2A417" />
		</linearGradient>
		<path style="fill:url(#SVGID_00000098937045269786318080000014720579444593856158_);" d="M97.6,329.6l57-61.5c1-1,7.5,5,7.5,5l2,2
		c0,0,5.5,6,4.5,6.5l-56.5,62c-1.5,0-6.5-4.5-6.5-4.5l-3.5-3.5C102.1,336.1,97.6,330.6,97.6,329.6z" />
		<g>
			<defs>
				<ellipse id="SVGID_00000095340180531430522300000016076167223601747626_" cx="133.6" cy="305.6" rx="43" ry="44" />
			</defs>
			<clipPath id="SVGID_00000037660559470950141060000010786161165709392008_">
				<use xlink:href="#SVGID_00000095340180531430522300000016076167223601747626_" style="overflow:visible;" />
			</clipPath>
			<g style="clip-path:url(#SVGID_00000037660559470950141060000010786161165709392008_);enable-background:new    ;">

				<image style="overflow:visible;" width="442" height="450"
					xlink:href="../../../../../Volumes/Externe schijf/Documenten/Werk/Lennart Klein/Klanten/Koeching/website/2014/LOCAL/res/gfx/2B8A7C12.png"
					transform="matrix(0.5348 0 0 0.5348 23.4874 192.1019)">
				</image>
			</g>
		</g>
	</g>
	<path id="text" class="st9" d="M412,348.9c-20-32.5-25-54-25-54c0-1.5,1.5-3,4.5-5.5c14.5-11.5,21-28.5,29.5-72c3-15,8.5-37.5,8-41
	c0-2.5-1.5-4-3.5-3.5c-2.5,0-6.5,0.5-11,1c-5,0.5-9,1-11.5,1s-17.5,2-22.5,2c-5,0-14.5,1-17,1c-3,0-5,2-6,4.5c-5.5,22-6.5,41-9,52.5
	c-3.5,14.5-6,20-10,26c-5.5,8-2,7.5-13.5,8.5c-4.5,0.5-7-4.5-8-14c-0.5-8.5-1-21-2-38c-0.5-17,0-27.5-0.5-36c0-2-1-3-2.5-3
	c-3,0-22,3-28,4c-6,1-10.5,1.5-13.5,1.5c-3,0-7.5,0.5-13.5,0.5c-6,0-10.5,0-13.5,0.5c-2,0-3,1.5-2.5,4c1,13,0.5,42,3,68
	c3,26,3.5,41,4.5,54c1,12.5-0.5,30,0,55c1,24.5-1,43.5,0,56c0,3,2,4.5,4.5,5c4,0.5,23.5,0.5,36-0.5c13-1,28.5-3,33.5-4.5
	c2.5-0.5,3.5-2.5,3.5-6.5c-0.5-8.5-1-16.5-2.5-33.5s-0.5-31-1.5-39.5c0-2-0.5-6.5,4.5-9.5c2.5,2,3,16.5,16,40c8,14.5,9.5,23.5,18,38
	c1.5,2.5,2.5,4,3.5,4.5c1,0.5,2.5,1,5,1.5c5.5,0.5,14,0.5,26,0c12-1,38.5,1.5,41.5,0c3.5-2,5-5,4.5-10
	C440.5,400.3,432,381.3,412,348.9z M620.4,191.4c-21.5-23-44-37.5-73.5-35.5c-29.5,2-62,21-79.5,47c-17.5,25.5-24.5,55.5-22,91
	c2.5,35,14,63.5,35,86c21,23,46.5,33.5,76,31c29.5-2,53-16,70.5-42c17-25,24.5-55.5,22-91C646.4,243.9,641.9,214.4,620.4,191.4
	L620.4,191.4L620.4,191.4z M571.9,314.9c-5,5-10.5,10-17.5,11c-5.5,0.5-15,3.5-21-2.5c-10.5-10-19-20.5-18-38
	c0.5-13.5,3-23.5,13.5-35c6-6.5,12-7,20-7c14-0.5,18.5,4,23.5,11c5,6.5,7.5,9,9,26c0.5,7,0.5,16.5-3,25.5L571.9,314.9z M828.4,316.4
	c-5,0.5-16,3-26,4.5c-4.5,0.5-9.5,0-14.5,0.5c-8,1-20.5,0.5-20,0.5c-10.5,0-12-2-14-6.5c-1-2.5,0,0.5-1-8c-0.5-6.5,4-7.5,4-8
	c0.5-2,2.5-3.5,6.5-4l15-1c19.5-1.5,12.5-1,18-0.5l13,0.5c2.5,0,4-1.5,4-3.5c-0.5-9,2-18,2-27c0-20,4.5-29.5,4.5-27
	c0-2.5-1.5-4-3.5-3.5c-2,0-4.5,0.5-7.5,1.5c-4,0.5-6.5,1.5-8,1.5c-12,2-12,2-24,3c-2,0-4,0.5-6.5,0.5c-2.5,0.5-4.5,0.5-5.5,0.5
	c-4.5,0.5-7.5-0.5-9.5-2.5c-2-2-4.5-0.5-5-8.5c-0.5-7.5-0.5-6,0-7.5c1-3,4-4.5,9-5c20-1.5,33-1,58.5-0.5c1.5,0,2.5,0,3,0
	c2,0,2.5-1.5,2.5-4c0-3-0.5-20.5-2.5-33.5c-2-13-5-24.5-5.5-27c-1-4.5-4-6.5-9-6c-7,0.5-22,2.5-36,4.5c-14,1.5-24.5,2.5-31.5,3
	c-7,0.5-17.5,1-31.5,2c-14,0.5-26-1-33-0.5c-2.5,0-3.5,1.5-3.5,4.5v2c2,18,2.5,34.5,3.5,43.5c4,35,1.5,60,2.5,73
	c1,12.5,2,31.5,2.5,57c0.5,25.5,1.5,44.5,2.5,57c0,3.5,2,4.5,5,4.5c7-0.5,20,0,34.5-1c14.5-1,25.5-2,32.5-2
	c33.5-2.5,58.5-1.5,65-0.5c2,0,3.5,0,4.5,0c2,0,3.5-1.5,4.5-3.5c1-3,0-15.5,0.5-30c0.5-13,4-31,4-36l0,0
	C831.4,317.9,830.4,315.9,828.4,316.4L828.4,316.4z M1010.3,310.9c-7.5-11.5-21-27-23-29c-1-1-2-2-3-1.5c-0.5,0-2.5,2-6.5,7
	c-4.5,5.5-8,6.5-13,9.5c-7,5-11,4.5-19.5,5c-14,1-18,0-27-12c-8.5-11-9-17-10-34c-0.5-9,3.5-24,11-33.5c5-6.5,11.5-9,25.5-10
	c8-0.5,8.5-0.5,16.5,3.5c5,2.5,9,4,15,9c4.5,4.5,7,6.5,7.5,6.5c1,0,2-0.5,2.5-1.5c1.5-2,9.5-24.5,15.5-38.5c5.5-14,11.5-26,11.5-28
	s-1.5-4.5-3.5-7c-19-21-42.5-31.5-73.5-29c-28.5,2-55.5,20.5-72,47c-15.5,25-26,58-23.5,92.5c2.5,35.5,13.5,64,33.5,86
	c20,22.5,47.5,36,77,33.5c29-2,52.5-22.5,68-48.5c2-3,2.5-5.5,2.5-7.5C1022.3,329.4,1018.3,322.9,1010.3,310.9L1010.3,310.9z
	 M1233.2,291.9c-3-24.5-3.5-43.5-4.5-56c-1-13,0-32-1-58.5c-1-26.5,0.5-46-0.5-59c0-2.5-1.5-4-4.5-4c-3,0-12.5,0.5-18,1.5
	c-5.5,0.5-10,1.5-12.5,1.5c-3,0-7,0.5-13,0.5c-6,0-24.5,1.5-27,1.5s-3.5,2-3,5.5c0.5,8.5,2,20.5,4,37c2,16.5,3,20,4,28
	c0,4-0.5,6.5-3,7c-3,1-0.5,1.5-20.5,3c-22,1.5-16,0-18.5-1c-2-0.5-3-2.5-3-6.5c-0.5-8.5-1-12.5-1.5-29s-0.5-29.5-1.5-38
	c0-2-1-3-2.5-3c-3,0-7.5,0.5-13.5,1.5c-6,1-10.5,1.5-13.5,1.5c-3,0-25,2.5-31.5,2.5c-6,0-10.5,0-13.5,0.5c-2,0-3,1.5-2.5,4
	c1,13,3,33,6,59s2.5,44,3.5,57c1,12.5,1,32,2,56.5c1,24.5-3,49.5-2,61.5c0,3,2,4.5,4.5,5c3.5,0.5,33-4.5,46-5.5c15-1,24-2,27-3
	c2.5-0.5,3.5-3,3.5-6.5c-0.5-9-1-22-2.5-39.5c-2-17.5-2-24-2-33c0-4.5,0.5-7,2.5-8c3-1,1-2,21-3.5c20-1.5,10.5,1,14,1.5
	c2,0.5,3.5,3,3.5,7.5c0.5,9,0,15.5,1,33.5c0.5,18,1.5,31.5,2,40.5c0,2.5,1.5,4,4.5,4.5c3,0.5,11.5,0,26.5-1c10.5-1,40-0.5,45.5-2
	c2-0.5,3.5-0.5,4-1c1-0.5,1-2,1-4.5C1239.2,340.9,1236.2,316.4,1233.2,291.9z M1333.2,165.4c-0.5-24.5,1-40.5,0-53
	c0-2.5-1.5-3.5-4.5-3.5c-3,0-8-1.5-13.5-1s-28.5,1.5-31.5,1.5s-7.5,0.5-13.5,0.5s-10.5,0-13.5,0.5c-2,0-3,1.5-3,4
	c1,12-0.5,28,1.5,52c2.5,24,4,42.5,5,54c1,14.5,2.5,44.5,4,90.5c0.5,22-1,39.5-1.5,38c0,3,2,4.5,4.5,5c4,0.5,13,0.5,26.5-0.5
	c10.5-1,35.5-2,41.5-3c2-0.5,3.5-1,3.5-1c1-0.5,1-2,1-4.5c-1-13.5-0.5-38-3-64.5c-2.5-27-4.5-47-5.5-60
	C1331.7,208.4,1333.7,189.4,1333.2,165.4z M1550.6,90.9c-5.5,0.5-27.5,1.5-39,3c-11.5,1.5-20,2.5-25.5,3c-2,0-3,2-2.5,6.5
	c1,12,2.5,30,5.5,53.5c3,24,2.5,13.5,3.5,25.5c0.5,9,0.5,13.5-1,13.5c-2,0-4-1.5-6.5-4.5c-11-14.5-18.5-25-24-32.5l-36.5-52
	c-2.5-3.5-4.5-5.5-5.5-5.5c-2.5,0-6.5,1-11,2.5c-5.5,1.5-9,2.5-11,3c-8,1.5-27,1.5-32.5,2c-3.5,0-5.5,1.5-5.5,4c1,13,0.5,29,3,55
	c3,26,0.5,48,1.5,61c1,12.5,2,31,2.5,55.5c0.5,24.5,0.5,47.5,1.5,60c0,3.5,2,5,4.5,5l61.5-4c2.5,0,3.5-2,3.5-6.5c-1-13-2.5-33-5-59
	s1.5-17,0-30c0-2,0-3,1-4c1,0.5,2,1,2,2c15,19.5,24.5,30.5,31.5,40.5c27,36,24.5,34.5,32,45c2.5,3.5,4.5,5,6.5,5c2.5,0,6.5,0,11,0
	c5,0,21,0,23.5,0c2,0,5.5-0.5,10.5-1c4.5-0.5,8-1,10.5-1s4-2,4-5l-8-118.5c-1-13,1-33.5,0-59.5s-2-45-3-58
	C1553.6,92.4,1552.6,90.4,1550.6,90.9L1550.6,90.9z M1784,309.4c-4-29-2-53-3-67.5c-0.5-5.5-0.5-13.5-1-24.5c0-11-0.5-19-1-24.5
	c0-4-1.5-5.5-4-5.5c-3,0-7.5,1-13.5,2c-6,1-30.5,1.5-33.5,2c-3,0-7,0-12.5,0c-5.5,0-10,0-12.5,0c-1,0-2,0-2,0.5c-1,0.5-2,2-1.5,4
	c0.5,7,2,14.5,4,26c2.5,15,3,12.5,3.5,16c-11.5,6.5-12,9-22,10c-6.5,0.5-13-2-22.5-13c-9-10-13-12-14-30.5
	c-1.5-17.5,6-25.5,14.5-36.5c3-4.5,11-6.5,15-6.5c9,0,14.5-2.5,22,1.5c5,2.5,9.5,2.5,14.5,7.5c4,4.5,7.5,3.5,8.5,3.5
	c2.5,0,13.5-13,21-26.5s15.5-25.5,15-29c0-1-1-3-3-5.5c-9-12.5-24-26-38-32c-13.5-5.5-35-7-49.5-6c-29.5,2-53,16.5-70,42
	c-16.5,25-23,55.5-20.5,91c2.5,35,13.5,66.5,33.5,87.5c20.5,22,46,39.5,75.5,37c23.5-2,35-9,53-23.5c2,0.5,16.5,2,25,4
	c8.5,2,14,2.5,16,2.5c3,0,4-2,3.5-5L1784,309.4z" />
</svg>