<?xml version="1.0" encoding="UTF-8"?>
<svg xmlns="http://www.w3.org/2000/svg" version="1.1" viewBox="0 0 834.5 176.7">
  <defs>
    <style>
      .cls-1 {
        fill: #b89c0c;
      }

      .cls-1, .cls-2, .cls-3, .cls-4 {
        fill-rule: evenodd;
      }

      .cls-5 {
        fill: #f6f6f6;
      }

      .cls-2 {
        fill: #f5d000;
      }

      .cls-3 {
        fill: #5a462b;
      }

      .cls-4 {
        fill: #f5d100;
      }
    </style>
  </defs>
  <!-- Generator: Adobe Illustrator 28.7.0, SVG Export Plug-In . SVG Version: 1.2.0 Build 136)  -->
  <g>
    <g id="Laag_1">
      <g id="Layer_3">
        <g id="Board">
          <g id="Board-2">
            <path id="Board-3" class="cls-3" d="M814.8,0c10-.1,18.2,9.1,18.3,20.6l1.4,126c0,11.5-7.9,20.9-17.8,21L19.7,176.7c-10,0-18.2-9.1-18.3-20.6L0,30.1C0,18.6,7.9,9.2,17.8,9.1L814.8,0h0Z"/>
          </g>
          <g id="Screw_2">
            <path class="cls-4" d="M789.4,62.6c10,.5,17.7,9.1,17.3,19.3s-9,18.1-19,17.6-17.7-9.1-17.3-19.3c.5-10.2,9-18.1,19-17.6h0Z"/>
            <path class="cls-1" d="M773.2,90.5l25.1-24.7c.5-.5,3.1,2.2,3.1,2.2l.8.9s2.2,2.6,1.9,3l-24.9,24.8c-.7,0-2.8-2-2.8-2l-1.5-1.5s-2-2.4-1.8-2.8h.1Z"/>
          </g>
          <g id="Screw_1">
            <path class="cls-2" d="M53.7,74.8c10,.5,17.7,9.1,17.3,19.3-.4,10.2-9,18.1-19,17.6s-17.7-9.1-17.3-19.3,9-18.1,19-17.6h0Z"/>
            <path class="cls-1" d="M37.5,102.7l25.1-24.7c.5-.5,3.1,2.2,3.1,2.2l.8.9s2.2,2.6,1.9,3l-24.9,24.8c-.6,0-2.8-2-2.8-2l-1.5-1.5s-2-2.4-1.8-2.8h0Z"/>
          </g>
        </g>
        <g id="KOECHING">
          <path class="cls-5" d="M168.7,120c-7.8-14.1-9.4-23.2-9.4-23.1,0-1.2,1.8-2.2,2.6-2.8.7-.6,1.5-1.2,2.1-1.9,1.4-1.5,2.6-3.2,3.6-5,3-5.3,4.6-11.4,6.1-17.3,1.8-6.7,3.7-13.4,5.1-20.1.2-.8.5-1.7.2-2.5-.5-1.4-2.4-.9-3.5-.8-2.9.2-5.9.4-8.8.5s-6,.3-9,.2c-1.7,0-3.4,0-5.1.1-1.6,0-3.1.2-3.7,1.9-2.7,9.1-3.5,17.2-4.7,21.8-.9,2.9-1.8,6-3.3,8.6-.6,1-1.4,1.9-2,2.8-.4.6-.8,1.5-1.4,2s-1.6.4-2.4.4c-1.2,0-2.3.2-3.1-.8-1.7-2.1-1.2-5.7-1.3-8.2,0-7.5,0-15.1.4-22.6,0-1.3.1-2.6.1-4s.2-2.5-1.2-2.6c-2.2,0-4.6.4-6.9.6-2.9.3-5.7.6-8.6.7-3.3.2-6.6,0-9.9,0s-3.2-.4-4,.3-.4,2.8-.4,3.7c0,3.3,0,6.7-.2,10-.2,13.8,1.5,27.7,1.1,41.5-.2,7.4-.8,14.8-1,22.3-.2,6.9-1.1,13.8-1.1,20.7s.2,2.7,1.8,3.1c3.8.7,8,.5,11.8.5s10.2-.3,15.2-1c1.8-.2,3.6-.3,3.7-2.5.1-1.8,0-3.6,0-5.4-.1-5.5-.6-11-.5-16.5,0-2.6.3-5.2.3-7.9s-.2-4.2,2.1-5.3c.5.6.6,1.8.8,2.5.4,1.7.8,3.4,1.3,5.1,1.8,5.8,4.7,11,6.8,16.7,1,2.8,2,5.5,3.3,8.1.5,1,1,2.4,2,3,.9.5,2.2.6,3.2.8,4.9.6,9.9,0,14.8.4,2.5.2,5.1.4,7.6.6,1.2,0,3.3.6,4.5,0,4-1.8,1.4-7.5.2-10.3-2.6-6.4-5.9-12.5-9.3-18.6h0v.3h0ZM259.2,58.1c-6.3-7.5-14.2-14.2-24.1-15.9s-19.7,1.6-27.8,6.7c-18.4,11.5-25,33.5-23,54.2,1.9,19.2,13.3,39.8,33.2,44.8,9.1,2.2,19.2,1.2,27.5-3.2,8.5-4.5,15-12.4,19.1-21,4.6-9.8,5.8-20.4,5.4-31.1-.4-9.8-1.2-20-6-28.8-1.1-2-2.5-4-4-5.8h-.3ZM236.6,108.9c-1.3,1.3-2.7,2.5-4.3,3.3-1.4.7-2.9.9-4.5,1.1-3.3.4-5.9,0-8.2-2.5-2.1-2.4-4.1-4.9-5.2-7.9-1.2-3.3-1.2-6.8-.6-10.3,1-6.2,4.9-13.7,11.8-14.3,2.9-.2,6.4-.3,9,1.3,1.9,1.2,3,3.2,4.2,5.1,1.5,2.2,2,4.6,2.2,7.3.4,4.5.3,9.1-1.7,13.2l-2.7,3.6h0ZM344,114.4c-4.9.2-9.6,1.6-14.5,1.3-2.4-.2-4.8,0-7.1,0s-2.7-.3-4-.3c-2.5,0-5.4-.5-6-3.4-.2-1,0-2.5,0-3.5s.3-1.5.9-2c.2,0,.9-.5.9-.7.6-2.1,5-1.6,6.7-1.6,2.5,0,5-.2,7.5-.2s5.4.5,8.1.8c1.3,0,1.7-.8,1.7-2,0-1.7.2-3.3.5-5,.6-3.3.8-6.6,1.2-9.9.3-2,.6-4.1,1.3-6,0-.1.8-1.3.8-1.3.6-.6-3.2-1.5-4.7-1.2-1.8.2-2.8.4-3.3.5-2.5.2-5,.5-7.5.6-1.5,0-3.1,0-4.6.2s-3.1.4-4.6.2c-1.3-.2-2-.7-2.9-1.5-.5-.4-1-.6-1.3-1.3-.5-1.2-.3-2.8-.4-4.1,0-.4,0-.7.1-1.1.7-1.8,3-1.9,4.7-1.9h6.3c4.1,0,8.2.4,12.3.7,1.3,0,2.5.2,3.8.3.8,0,2.3.4,3.1,0,1-.5.6-2.3.6-3.2,0-4,0-8.1-.4-12.1s-.9-7.9-1.9-11.7c-1-4-6.2-2.6-9.2-2.4-8.6.7-17.1,1.3-25.7,1.5-5.5,0-11,.2-16.4-.2-2.2-.2-4.5-.5-6.7-.5s-1.8-.1-2.3.7c-.3.6-.1,1.4,0,2,.4,6,.3,12.1.6,18.1s.4,12.2.2,18.4c-.2,4-.5,8-.5,12s.1,9.4,0,14.1c0,6.6-.2,13.1-.3,19.7,0,4.8-.2,9.7,0,14.5,0,1,.3,2,1.4,2.2s2.4,0,3.5,0c3.1,0,6.2.2,9.2.2,5.6,0,11.2-.2,16.8-.4,6.5-.2,13,0,19.5.3,1.9,0,3.8.3,5.8.5s4.3,1,5.3-1.1c.7-1.5.4-3.9.4-5.5,0-3,.2-5.9.6-8.8.3-2.6.8-5.2,1.3-7.8.3-1.8.8-3.6.8-5.4h0c0-1.7-.5-2.5-1.4-2.5h0l-.2-.2h0ZM420.4,115.6c-2.1-3.5-4.5-6.8-7-10-.7-.8-1.3-1.8-2-2.6-1.3-1.5-2-.3-3.1.8-1.6,1.7-3,2.9-5,4-1.8.9-3.4,2.1-5.4,2.4-2,.4-4.1.3-6.1.3s-3.1,0-4.5-.7c-3-1.3-5.2-4.9-6.7-7.7-1.6-3.1-1.7-6.5-1.8-9.9-.2-7,2.6-16.9,10.4-18.6,2.3-.5,4.7-.6,7-.6s3.6.8,5.4,1.8c2.2,1.2,4.2,2.4,6,4.1.9.9,2.9,3.9,4.3,2.2.6-.6.9-1.6,1.2-2.3.7-1.6,1.4-3.1,2.1-4.7,1.7-3.9,3.3-7.8,5.1-11.7,1-2,2-4,2.9-6,.5-.9,1.2-2.1,1.1-3.1-.2-1.9-2.4-3.8-3.6-5.1-1.4-1.5-2.9-2.8-4.6-4-6.7-5-15-7.2-23.3-6.9-8.5.3-16.6,4-23,9.4-6.8,5.8-11.7,13.7-15.1,21.9-3.7,9.1-5.2,18.9-4.5,28.7,1.2,17.3,8.8,34.7,24.3,43.8,7.3,4.3,16.3,6.2,24.7,4.5,8.2-1.7,15.2-6.9,20.6-13.2,1.4-1.7,2.7-3.4,3.9-5.2.5-.8,1.3-2.1,1.2-3.1,0-.5-.4-1-.6-1.4-1.2-2.4-2.6-4.7-4-7h.1ZM514.2,112.1c-.5-8.1-.7-16.2-.8-24.3,0-8.2.5-16.5.7-24.8,0-4.7.3-9.3.6-14,0-1.8.2-3.5.3-5.3,0-1.5.3-3.2,0-4.7-.3-1.6-1.9-1.3-3.1-1.3-1.9,0-3.8,0-5.7.2-3.8.3-7.5.5-11.4.4h-8.8c-.9,0-2.2-.2-3,.2-1.4.5-.9,2.8-.9,4,.3,7.6.9,15.2,1.7,22.8.2,2.1.7,5-1.7,5.8-1.3.5-2.7.4-4.1.5-3.4.2-7.1.5-10.5.1-.7,0-.9-.3-1.4-.7-1.3-1-1.3-2.2-1.3-3.8v-3.6c0-4.1.2-8.2.3-12.3,0-3.8.3-7.6,0-11.3-.1-2.1-1.9-1.5-3.5-1.4-2.3.2-4.6.4-6.9.5-5.2.3-10.6.8-15.8.7h-3c-.7,0-1.9-.2-2.6,0-1.3.5-.8,3-.7,4.1.1,3.8.3,7.5.5,11.3.5,9.2,1.1,18.4,1,27.6v20.8c0,5.1,0,10.2-.4,15.3-.3,4.8-1,9.6-1.5,14.4-.2,1.8-.4,3.6-.4,5.4s.1,3,1.9,3.3c2.2.3,4.7-.2,6.9-.4,3.4-.3,6.8-.6,10.2-.8,3.7-.2,7.3-.2,11-.5.9,0,2.2,0,3-.6,1.3-.9.9-2.9.9-4.3,0-4.2,0-8.3-.2-12.5-.2-4-.4-8-.4-12s-.9-6.2,1.5-7.2c1.2-.5,2.3-.6,3.5-.7,2-.2,4.1-.2,6.2-.3,1.1,0,2.9-.3,3.9,0,.6.3.1.7.7.8,1.9.5,1.4,4,1.4,5.5s-.1,4.1-.2,6.1c-.2,6-.2,12-.2,18v3.2c0,1-.1,2.2.8,2.9,1.2.8,3.2.6,4.5.6,4.6,0,9.2-.2,13.8,0,2.5,0,5.1,0,7.6.2,1.7,0,3.5.2,5.3,0,1,0,1.5-.3,1.7-.4,1-.7.4-3.8.4-4.9,0-2.2-.2-4.3-.4-6.5-.4-5.4-.8-10.7-1.1-16.1h-.3ZM558.6,60.9c0-6.2.7-12.3,1-18.4v-2.9c0-1.5-.2-2.2-1.8-2.3-1.2,0-2.3-.4-3.4-.6s-2.3,0-3.5,0c-3.8.1-7.7,0-11.6,0h-7.4c-1.3,0-2.6-.1-3.9,0-1.4,0-1.6.8-1.6,2.2,0,5.3-.5,10.6-.5,15.9s.6,13.5.9,20.3c.4,8.3.4,16.6.4,24.9s0,15.1-.2,22.6c0,3.5-.3,7-.7,10.5,0,1.1-.6,2.8-.6,3.7,0,2.8,4.2,2.4,6.1,2.5h9.8c3.1,0,6.1,0,9.2-.2,1.3,0,2.6,0,3.9-.2.8,0,2.3,0,3-.5s.5-1.9.5-2.6v-10.6c0-6.1,0-12.2-.3-18.3-.3-5.4-.5-10.8-.7-16.3-.2-3.8-.3-7.5,0-11.3.4-6.1,1-12.1,1.2-18.2h0l.2-.2ZM651.3,33.8c-4.9.2-9.8,0-14.7.3-3.2.2-6.3.5-9.4.7-1,0-2.5-.2-3.4.2-1.1.4-1,2-1,2.9.2,10.1.9,20.2,2.1,30.2.2,1.8.2,3.7.2,5.5s0,2.4-.5,2.8c-.9.7-2.4-1.5-2.8-2-7.6-11.2-14.8-22.5-22.1-33.9-.8-1.3-2.3-4.4-3.7-4.8-.9-.2-2.4.2-3.2.4-1.5.3-3,.7-4.6,1.1-1.8.4-3.6.5-5.5.6h-7c-1.3,0-4.3-.5-5.1.9-.3.7,0,1.8,0,2.5v10c0,6.5.6,13,.5,19.4,0,5.3-.7,10.6-.8,15.9v13.7c0,4.6,0,13-.3,19.6-.2,5.5-.5,10.9-.4,16.4,0,1.5.3,2.7,2,2.7h2.1c6.4,0,12.7-.2,19.1-.3h5c1.7-.6,1-3.9,1-5.3,0-2.3-.2-4.6-.3-6.9-.3-6.1-.7-12.2-.8-18.4,0-1.5,0-3.1.2-4.6,0-.7.4-1.3.5-1.9.2-1.2-.3-3.3.5-4.2.5.3.8.5.9.8,7.8,11.2,15.9,22,22.9,33.7.7,1.1,1.4,2.3,2.1,3.4.5.7,1.2,1.7,2,2.1.7.3,1.6,0,2.4.2,1.8,0,3.5.2,5.3.3,2.9,0,5.8.4,8.6.2,2.2,0,4.4-.3,6.6-.5,1.5,0,2.6-.2,2.7-2,0-2.5,0-5-.2-7.5,0-5.2-.2-10.5-.3-15.8-.2-8.7-.3-17.4-.5-26,0-6.7.8-13.4,1-20,.4-9.3.3-18.7,0-28,0-1,.3-4-1.2-4h0v-.3h.1ZM744.9,130.1c-.6-7-.5-14-.2-21.1.2-5.4,0-10.7.2-16.1v-9.8c0-1.1.2-2.4-.3-3.4-.5-1.2-1.9-.9-3-.8-2.3.2-4.6.5-7,.5h-12.4c-1.8,0-3.7-.2-5.6-.3-1.3,0-3.6-.6-4.8,0-1.5.6-.6,4.4-.5,5.6.3,2.5.6,5.1,1,7.6.3,2.1.9,4.2,1.1,6.3-3.7,1.9-7.5,5-12,3.4-2.3-.8-4.2-2.8-5.8-4.6-1.3-1.6-2.8-3.2-3.9-4.9-2.5-3.8-2.7-9.5-1.6-13.8.6-2.4,1.8-4.5,3.3-6.5s3-4.3,5.3-5.3c2.4-1,4.9-.7,7.5-.8,1.2,0,2.5,0,3.7.2,1.4.3,2.6,1.2,3.9,1.7,1.2.5,2.3.9,3.3,1.7,1.1.9,1.9,2.2,3.3,2.5,1.4.3,2.2-.6,3.2-1.5,4.5-4.4,7.8-9.9,11.2-15.2,1-1.5,2.8-3.7,2.9-5.6,0-1-.8-2.1-1.3-2.9-.9-1.3-1.8-2.6-2.8-3.8-3.8-4.5-8.7-8.8-14.3-10.9-5.3-2-11.2-2.7-16.8-2.7-10.8,0-20.8,3.9-28.2,11.8-8,8.5-12.3,19.8-13.6,31.3-1.4,12.2,0,25.2,4.7,36.5,2.2,5.2,5.3,9.8,9,13.9,4,4.4,8.5,8.4,13.8,11.2,9.7,5.2,21.6,5.2,31.2-.4,2.4-1.4,4.6-3,6.8-4.6,1.3.5,3,.6,4.4.9,2.2.4,4.4.8,6.6,1.4,1.8.5,3.8,1.1,5.7,1.2,1.9.2,2.2-1.1,2-2.7h0Z"/>
        </g>
      </g>
    </g>
  </g>
</svg>