<?xml version="1.0" encoding="UTF-8"?>
<svg xmlns="http://www.w3.org/2000/svg" version="1.1" viewBox="0 0 592.3 717.8">
  <defs>
    <style>
      .cls-1, .cls-2 {
        fill-rule: evenodd;
      }

      .cls-1, .cls-3 {
        fill: #1d1d1b;
      }

      .cls-2, .cls-4 {
        fill: #fff;
      }

      .cls-5 {
        fill: #f6f6f6;
      }

      .cls-6 {
        fill: #ccc;
      }

      .cls-7 {
        fill: #13110c;
      }

      .cls-8 {
        fill: #2a1d11;
      }

      .cls-9 {
        fill: #e8e8e8;
      }
    </style>
  </defs>
  <!-- Generator: Adobe Illustrator 28.7.0, SVG Export Plug-In . SVG Version: 1.2.0 Build 136)  -->
  <g>
    <g id="Laag_7">
      <g>
        <path class="cls-4" d="M367.8,97.4c-4.7-31.7-33.3-54.8-67.2-56.8C294.3,15.9,268-.4,239.6,3.6c-9.4,1.3-17.9,4.7-25.1,9.6-3.8-6-11.2-9.6-18.9-8.5-6.8.9-12.2,5.2-14.7,10.8-7.7-7.7-19.1-11.9-30.9-10.3-19.5,2.7-33,20-30.2,38.7,1,6.7,4,12.6,8.2,17.4-.8,0-1.7,0-2.5.2-10.3,1.4-17.5,10.6-16,20.4.4,2.9,1.6,5.5,3.2,7.7-3.3-.3-6.7-.2-10.1.3-24.2,3.3-41,24.8-37.5,48,2.7,17.5,16.1,31,33,35.1,5.6,15.8,7.8,28.4,27.3,29.2l10.2,1.9c.8,4.2,4.1,20.6,6.8,24.1,19.2,24.1,54.4,28.1,78.6,8.9,2.4-1.9,3.8.7,6.3-.9,13.8,5.4,33.6,5.2,48-1.7,22.8-11.1,34.5-34.9,29.9-58.7l.6-1.7c39.6-6.5,67.2-40.3,61.9-76.5Z"/>
        <path class="cls-3" d="M186.3,252.1c-17.3,0-34.5-7.6-46.1-22.2-2.6-3.3-5.2-14.1-7.1-23.4l-8-1.5c-19.5-.8-23.5-12.8-28.3-26.6-.3-1-.7-2-1-3-17.9-5-31-19.4-33.7-37.2-1.8-11.7,1.2-23.4,8.4-33,7.6-10.1,18.8-16.7,31.7-18.4,1.8-.2,3.6-.4,5.4-.4-.5-1.3-.9-2.7-1.1-4.1-.8-5.4.6-10.9,3.9-15.3,3-4,7.2-6.8,12-8-2.9-4.4-4.8-9.4-5.6-14.6-1.4-9.6,1-19.2,6.9-27,6.2-8.3,15.4-13.6,25.9-15.1,11-1.5,22.2,1.7,30.6,8.5,3.4-4.9,8.8-8.2,15-9.1,7.6-1,15.2,1.8,20,7.5,7.2-4.4,15.4-7.3,24-8.5,29-4.1,56,11.8,63.7,37.1,16.4,1.4,32,7.7,44.2,17.8,12.9,10.8,21.3,25.5,23.7,41.4h0c2.7,18.3-2.5,36.6-14.7,51.7-11.7,14.4-28.5,24.2-47.5,27.8,4.2,25-8.5,49.2-31.8,60.5-14.1,6.8-34.1,7.7-49.1,2.3-1.7.6-3.1.2-3.9,0-.2,0-.4-.1-.6-.1,0,0,0,0-.1,0-10.8,8.6-23.8,12.8-36.6,12.8ZM108.9,92.4c-2,0-3.9.1-5.9.4-11.3,1.5-21.1,7.3-27.7,16.1-6.2,8.3-8.8,18.4-7.2,28.5,2.4,15.9,14.5,28.7,30.8,32.6l1.6.4.5,1.5c.6,1.6,1.1,3.1,1.6,4.6,4.5,13.2,7.5,22,23,22.6h.4s12.3,2.3,12.3,2.3l.4,2c2.6,13.6,5,21.2,6.2,22.8,18.2,22.8,51.5,26.6,74.3,8.4,2.4-1.9,4.6-1.4,5.7-1.1.2,0,.6.1.7.1,0,0,0,0,.1,0l1.3-.9,1.5.6c13.5,5.3,32.7,4.6,45.6-1.6,21.3-10.3,32.7-32.6,28.3-55.4v-.8c-.1,0,1.3-4.2,1.3-4.2l1.8-.3c18.5-3,34.8-12.3,46-26,11.1-13.7,15.9-30.4,13.4-47h0c-2.1-14.5-9.8-27.9-21.6-37.7-11.7-9.7-26.9-15.6-42.8-16.5h-2.2c0-.1-.5-2.2-.5-2.2-6-23.6-30.8-38.5-57.6-34.8-8.6,1.2-16.9,4.3-23.8,9.1l-2.6,1.7-1.7-2.6c-3.3-5.2-9.6-8-16-7.2-5.5.8-10.2,4.2-12.4,9.1l-1.8,4-3.1-3.1c-7.3-7.3-17.9-10.9-28.4-9.4-8.9,1.2-16.7,5.7-21.9,12.7-4.9,6.6-6.9,14.6-5.7,22.5.9,5.8,3.5,11.3,7.5,15.8l4.4,4.9h-6.6c-.8,0-1.5.1-2.2.2-4.3.6-8.1,2.8-10.6,6.2-2.4,3.2-3.3,7-2.8,10.8.3,2.3,1.2,4.4,2.6,6.4l3.8,5.3-6.5-.5c-1.2,0-2.4-.1-3.6-.1Z"/>
      </g>
      <path class="cls-3" d="M306.8,172.4c-1.4.3-2.8.5-4.2.7-20.7,2.8-40.5-2.5-55.7-13.4,4.4-3.1,8.1-7.1,10.8-11.6-4.1,3.8-9,6.8-14.4,8.9-4.1,1.6-8.6,2.6-13.2,2.9-2.5.2-5.1.2-7.6,0-7.6-.6-14.6-3-20.6-6.6-9.9-6-17.2-15.4-19.8-26.3-.6-2.4-1-4.9-1.1-7.5-.6,2-.9,4.1-1.1,6.3,0,.3,0,.7,0,1,0,1.5,0,3,0,4.5.7,9.9,5.5,18.8,12.9,25.4,1.5,21.6-16.7,41.7-42.1,45.8-3.3.5-6.5.8-9.7.7,6.2,1.2,12.8,1.4,19.5.3,2-.3,7.4-1.7,9.4-2.3,11.7,13,26.9,23.3,35.2,27.1,2.7,49,3.6,102-2.3,128.3-8.7,38.7,75.7-28.7,75.7-28.7,0,0-7.8-28.8-17.1-64.6,0-1.5,0-3.1-.1-4.8-1.3-16.9,19.3-73.9,19.3-73.9,0,0,.3-1.5.6-3.6.8-.1,1.6-.2,2.4-.4,8.3-1.6,16.6-4.4,23.4-8.3ZM184,193.9c8.3-6,14.3-14.1,17-23.1.9,10.7,1.8,22.6,2.6,35.1-6.3-2.7-13.9-7.8-19.6-12ZM239.1,168.7c6,4.9,12.9,8.8,20.6,11-6.4,8.5-9.9,20.2-11.5,32.7-3.5-14-6.4-30.8-9.1-43.8Z"/>
      <path id="Wortels" class="cls-3" d="M136.8,648.4c8.3-2.9,17.9-27.5,11.9-25.5-6,2.1-5.4.7-20.3,2.5-15,1.8-25.4,4-25.4,4,0,0,11.6-7.7,26.8-8.5,15.2-.8,25.4-4.8,25.4-4.8,0,0,7.7-12.8,30.8-15.1,23.2-2.3,20.3-8.1,26.2-13,5.9-4.9,5.5-16.2,0-16.1-5.5,0-5-.9-11.9-3.4-7-2.5-12.6-4.5-31.5,2.1-18.9,6.7-17.7,7.8-18.4,20.5-.7,12.8-39,28.5-18.3,14.6,20.7-13.9,13.4-21.2,13.4-21.2,0,0,1.3-2.6-10,3.2-11.3,5.8-16,7.5-16,7.5,0,0,12.1-14.1,28.9-19.9,16.9-5.7,15.5-11.4,39.7-16.1,24.2-4.7,31.5,14.9,40.9,4.6,9.4-10.2,17.5-11.7,27.3-15.6,9.8-3.9,77.4-40.8,42-52.1-14.5-4.7-32.6-11.6-32.6-11.6,0,0,15.9,21.5-16,33.5-19.3,7.3-8.4,32.1-9.8,31.2-9.3-5.4-12-16.5-9-23.2,3-6.7-3.2-3.3-10.1.6-6.9,3.8-14.9,1.8-21.9,4.8-7,3-22.5,16.9-37.4,20.9-14.9,3.9-.5-5.7,8.2-7.7,8.8-2,14.7-13.9,14.7-13.9,0,0-34.5-1.3-50,15.6-14.1,15.4-22.8,28.2-37.2,27.3-3.5-.2,14-7,18.7-15.3,3.3-5.8,12-13.1,12-13.1,0,0-4-1.7-14-2.6-10-.8-36.1,5.2-13.3-.8,22.8-6,30.5-1.4,30.5-1.4,0,0,2.1-2.8,7.7-7.7,5.6-4.9,10.8-4.1,10.8-4.1,0,0,24.1-7.1,2.7-14.9-21.4-7.7-55.1,7.7-37.6-2.7,17.3-10.3,40.9-3,28.8-11.3,0,0-2.6-2.5-9.4-9.5-6.7-7-15-8.7-15-8.7,0,0,11.8-2.2,25.6,9.6,35.9,30.6,34,28.4,76.9,15.2,32.5-10-5.7-25.3-13.5-34.1-8-9,1.5-23.6,4.6-28.2.7-1,2.4-1.8,4.3-2.1,48.7-8.9,118-4.3,80.8,5.4-6,1.6-20.7,10.2-17.1,15.2,2.3,3.3,30.2,2.2,34,12.6,8.8.2,18.3-1,25.9-5.5,18.1-10.8,30.2-20.7,43.7-15.8,3.3,1.2-15.5,2.9-22.5,9.5-4.9,4.6-15.4,9.2-15.4,9.2,0,0,3.2,3.4,13.2,3.1s36.3-2.4,13.2,1.9c-23.2,4.2-33.4.5-33.4.5,0,0-.2.5-7.1,3.6-1.5.7-2.9,1.1-4.2,1.4,10.5,3.6,30.8,9.4,40.6,5.4,13.6-5.5,27.2-4.7,27.2-4.7,0,0,11.1-1.5,16.1-4.3,5-2.8,21.4-13.6,32-20.3,10.6-6.7,25.5-3.2,15.8-1.5-15.9,2.8-42.5,25.2-42.5,25.2,0,0-.7,2.6,5.6,4.8,9.8,3.3,12.9,7,22.9,15.9,13.3,11.8,48.8,1.9,55.5,5.2,16.1,8,7.4,8.7,1,5.9-6.3-2.9-38.7,2.6-45.6,4.1-6.9,1.5-14.1-4.9-16-1.7-2,3.2,7.2,16.9,12.8,29.4,5.6,12.5,22.3,19.5,11.1,17.4-11.3-2.1-20.6-20.7-27.2-33.2-6.6-12.5-3-17.2-3-17.2,0,0-8.4-7.8-22.7-15-14.2-7.2-28.8,2-28.8,2,0,0,3.5,2.9,7.4,5.2,4,2.3,4.7,10.2,3.4,19.5-1.3,9.3,11.8,23.2,18,23.9,6.3.7,10.5,1,2.7,3.3-7.8,2.3-20-6.4-24.4-10.7-4.4-4.2-5.7-17.8-17.1-27.7-11.3-9.9-33-6.1-33-6.1,0,0-2.6,6.4-2.8,12.3-.2,6-11.2,14.7-11.2,14.7,0,0-2.3,3.3,2.2,12.4s31,8.3,46.9,8c15.9-.3,44.1,15.4,51.2,22.1,7.1,6.7,5.6,12.9,20.4,14s7.3,3.2,7.3,3.2c0,0-22.3,4.3-31.9-8-9.6-12.3-31-17.5-42.7-18.1-11.8-.7-14.4-.5-9,7.4,4.8,7,4,18.3,3.7,20.7.9,0,3.4.2,10.4,1.6,13.7,2.8,31.1,29.9,31.1,29.9,0,0-14.1-4.7-17.5-12.9-3.5-8.2-19.9-12.2-19.9-12.2,0,0-5.8-1.1-5.4,9.2.4,10.4,31.7,24,31.7,24,0,0-6,2.1-24.8-6.4-18.8-8.5-14.8-36-16.7-47-1.9-11-20.2-15.6-28-12.2-7.8,3.4-5.7,22.3-5.7,34,0,11.7,17.5,26.8,3.2,18.6-14.2-8.2-10.8-34.9-9.4-43.3,1.4-8.4.3-15.8-8.5-19.6-8.7-3.8-4.6-13-13.3-10.5-27.7,7.8-40.3,21.1-40.3,21.1,0,0-.8,1.4,2,15.4,2.8,14,20.3,9.9,43.3,22.3,7.2,3.9,8.3,9.1,8.3,9.1,0,0-12.9-8.8-26.6-12.1-11.3-2.7-19.6-2-27.7-5.4-8.1-3.4-9.2-22.7-9.2-22.7,0,0-4.6,2.9-9.9,6.4-5.3,3.5-5.5,20.4.5,27.1,6,6.7,42,20.9,53.7,23.5,11.7,2.6,18,14.2,18,14.2,0,0,7.3-5.3,18.5-2.9,9.4,2,15.7,3.3,19.4,4,2.4.5,4.7,1.3,6.7,2.5,3.1,1.8,9.7,5.2,23.1,10.4,22.3,8.7,17.6,15.5,12.6,11-5-4.4-18.4-7.4-18.4-7.4,0,0,4.6,7.1,5,14.1.5,7,11.3,16.8,2.2,12.6-9.1-4.3-7.6-6.1-9.3-15.8-1.7-9.6-17.5-17.8-15.6-14.3s.9,11.9.6,16.9c-.3,5-11.3,3.8-13.9,19.8-2.6,16-1.6,13.5-4.4,3.6-2.8-10,7.6-18.8,10.6-25.9,3.1-7-.7-19-.7-19,0,0-6.5.1-13.8-1.9-7.3-2-21,1.1-21,1.1,0,0-3.9,6.3-14.6,17.4-10.7,11.1,27,49.4,11.5,37.1-19.3-15.3-16-35.8-33.3-23.7-8.1,5.6-6,32.7-8.7,28.9-2.7-3.8-2.2-19.8.4-26.2,2.6-6.3,22.1-21.7,30-29.5,8-7.8-13.5-15-19.8-15.7-6.2-.7-28.4-14-28.4-14,0,0-6.2-2.4-13.2,7.5-7,9.8-5.5,8.7-1.8,37.7,3.8,29-13.4,27.6-13.4,27.6,0,0,4.2-5.8,8.1-14.7,3.9-8.9-3.2-24-3.2-24,0,0-5-1.1-15.3,2-10.3,3.2-19.6,19.9-19.6,19.9,0,0-2.6-7.5,8.8-18.5,11.4-10.9,25-12.5,25-12.5,0,0-.5-3.6-1.4-11-1-7.4,8.9-18.3,8.9-18.3,0,0,.9-3.8-7.3-7.9-8.2-4-13-13.4-13-13.4,0,0-28.4-4.7-43,5-14.5,9.7-12.2,12-6.1,37.9,6.1,25.9-5.6,23.6-5.6,23.6,0,0,4.9-12.3.6-19.6-4.3-7.3-6.1-18.3-6.1-18.3,0,0-.6,12.4-20,18.1-20.5,6.1-5.8-1.9,2.5-4.8Z"/>
      <g id="Ezel">
        <path class="cls-4" d="M460.8,206.5c-20.7-9.6-42-27.6-53.8-40.1-3-3.2-13.4-25.4-3.5-16,16.7,15.9,30.4,33.7,51.8,42.2,13,5.1,29,5.5,49.5,4,9.1-.7,19.2-.2,26.5-3.1,23.4-9.3,44.5-28.2,56.7-35.8,6,7.8-6.3,30.1-7.7,31.6-22.3,23.3-56.3,16.8-63,17.3,3.5,14.3,24.7,69.3,24.2,69.2-22.7-5-37-3.1-64.8,2.2-13,2.5-11,8.7-10,22.1,1,13.1-11.4,4.2-9.1,15.1,4.9,23.8,19.3,19.8,1.2,37.8-18.8,18.7-25.8,47-34.6,59.7-12.8-6.7-21.5-14.1-32.5-24-19-17.1-49.7-15-58.5-21.2,9.3-13.5,49.8-46.7,72.4-76.5,24.9-32.7,52.2-64.3,55.2-84.4h0Z"/>
        <path class="cls-3" d="M462.6,205c-9.8-2.3-22-8.5-27.6-12.3-13.1-8.8-26.3-20.5-30.2-33.3-2.7-9.2-11.4-23.9-12.1-4.1,2.8,14,8.1,31,23.5,40.2,7.4,4.4,13.1,6.9,21.4,8,8-.2,24.7,4.1,25,1.6h0Z"/>
        <path d="M547.4,209.1c-4.8.3-9.5,0-14.2-.4-6.1-.5-11.9-1-17.2.3l-1-4.1c5.9-1.4,12.3-.9,18.5-.4,8.2.7,16.6,1.4,24.4-2.3,10.1-4.8,22.9-14,27.1-23,.3-.6,1.4-4.9,2.3-9.9.9-5.3.9-8.2.7-9.5-2.3,1.1-4.8,3.3-7.2,5.4-1.5,1.3-2.9,2.5-4.3,3.5-11.5,8.3-22.8,15-34.8,22.1-1.5.9-3.1,1.8-4.7,2.8-4.9,2.9-10.6,3.5-16.1,4-4.2.4-4.6-.6-8.6.9l-5.5-2.4c4.5-1.7,9.1-2.2,13.6-2.6,5.3-.5,10.2-1,14.3-3.5,1.6-.9,3.1-1.9,4.7-2.8,11.9-7.1,23.1-13.7,34.4-21.9,1.2-.9,2.6-2.1,4-3.3,2.9-2.6,6-5.2,9.1-6.4,1.4-.5,2.8-.2,3.7.8,1.1,1.2,2.2,3.8.6,13.2-.8,5-2.1,10.1-2.7,11.4-4.7,10-18,19.7-29.1,25-4.1,1.9-8.2,2.8-12.3,3.1Z"/>
        <path d="M460.9,208.6v-1.5c-.8-.1-1.5-.3-2.2-.5,0,1.1.8,1.8,1.7,2-1-.2-17.9-2.8-22.9-3.1-8.1-.5-18.1-4.1-23.2-8.5-11.7-10.1-23.6-22.9-22.8-41.2.4-8.4,1.6-12.3,4.4-13.2,3.1-1.1,6,2.2,9,5.6,1.3,1.5,2.6,3,3.8,4,3.8,3.3,9.2,8.1,12.8,12.1,2.9,3.3,10.8,11.2,19.9,18.1,9.8,7.4,17.5,10.8,21.6,9.6l1.2,4c-5.6,1.7-14.1-1.7-25.4-10.2-9.4-7.1-17.5-15.3-20.5-18.7-2.3-2.6-6.4-5.9-8.4-8.2s-9.2-9.9-9.3-9.2c-1.8,9.4,17.7,24.7,21.8,29,.5.5.9,1,1.3,1.4,11.3,12.2,35.5,25.7,44.6,22.8l1.3,4c-2,.6-4.3.7-6.7.4v1.1s-2,.1-2,.1ZM396.6,147.9c-.4,1.3-.8,3.7-1,8.1-.7,16.5,10.4,28.3,21.4,37.8,4.4,3.8,13.5,7.1,20.7,7.5,2.2.1,6.3.6,10.2,1.2-1.2-.6-2.4-1.2-3.4-1.7-9.2-4.9-18.4-11.7-24-17.8-.4-.4-.8-.9-1.3-1.4-6.3-6.7-15.4-15.6-15.8-21.5-.2-2.3,0-6.5-1.7-8.3-.6-.6-1.8-1.5-2.9-2.3-.8-.6-1.6-1.1-2.2-1.6Z"/>
        <path d="M468.4,198.7c.4.6.3,3.2,0,3.9-.3.5-2,1.5-2.7,1.9-.2.1-.4.3-.6.4-.8.5-1.1.4-3-.2-.2,0-.4-.1-.7-.2l-1.4-.5-.9,1.2c-5.1,6.8-11.7,10.7-15.9,20.9-.6,1.5,3.2,0,1.8,2.5-2.6,4.6-16.5,16.2-20.3,26.5-.8,2,1.7.6,1,2.1-6.1,13.2-21.7,6-22.9,14.7-.1.9,1.3,13.6,1.1,14.4-.6,2.7-4.4,8-9.2,15.2-8,12-27.4,25.1-36.9,36.6-7.9,9.5-23,24.2-26.3,27.9l3.1,2.8c3.3-3.8,18.4-18.5,26.3-28,9.5-11.5,29.2-25,37.2-36.9,1.1-1.7,2.4-3.5,3.6-5.2,3.2-4.6,4.7,1,7.5-2.7s4.8-7.6,5.8-8.9c.4.4.9.7,1.4.8,2.3.6-.3-7.1,3.8-10.9,0,.1,1.9,4.1,1.9,4.1l2.9-5.7c1.9-3.7,5.8-5.7,8.4-5.5,1.4,0-.2,3.7-.2,3.7,0,0,2.6.2,3.9-.5,5.3-2.9,0-7.2,2.2-9.9.8-1.1,2.2-2.8,3.2-3.8.1.5.3,1.2.4,2.3l.7,6.9,4-5.7c2.2-3.1,3.1-6.6,3.8-9.1.2-.6.3-1.3.5-1.9l4,2.8-.4-5.4c-.3-4.2-.3-6.8-.3-8.3.8.7,1.8,1.5,2.9,2.3l2.7,1.8,1.1-3.1c.4-1,.6-2.2,1-3.6.6-2.5,2-8.4,3.8-8.3,0,0,0,0,0,0l3.2.3-.4-3.2c-.5-3.6.6-7.4,3.2-12.3,0-.2.2-.3.2-.5l4.5,4.4-1.2-6.5c-.7-3.4-.2-4.9.2-5.2.3-.2,1-.2,1.8.2,2.4.9,4.6,3.4,4.8,4.8l.9,6.5,3.1-5.8c1.6-3,3.4-6.2,5.1-6.3.8,0,2.6.4,6,4.4l3.1,3.7.6-4.8c.5-3.9-.9-7.7-2.1-10.4.4.3.7.6,1.1.9,1,.9,2,1.8,3.1,2.6l2.5,2,.8-3.2c.4-1.6,0-3.2-.8-4.8,1.6.9,3.4,1.8,5.5,2.6l4.9,1.9-2.2-4.8c-1.3-2.8-.5-.6-.7-1.5,1.5.6,7.9,4.9,8.5,5.2l.3-7.8c-.7-1.2-1.9-2.6-3-4-.4-.5-1-1.2-1.5-1.8.3-.1.5-.3.8-.4,2.1-1,5.4-2.6,7.7-2.2l2.4.4v-2.4c.2-1.5-.4-2.8-1.4-3.8-3.5-3.3-12-2.7-20.4-1.9-.9,0-1.7.2-2.3.2-5.9.4-10.6-1-12.9-4-1.4-1.8-1.7-4-1-6l2.3-6.6-5.6,4.2c-4.9,3.8-7,7.8-7.9,9.6v.3c-4.6,8.7-8.9,11.8-16.8,17.6l-2.4,1.7,1,1.6c.8,1.2,2.3,1.4,3.4,1.6,0,0,.2,0,.3,0,.1,0,.2,0,.4.2.3.1.7.3,1.2.5.2,0,.3.1.3.1"/>
        <path class="cls-4" d="M505.3,233.9c.5-2.3,0-6.2,7.5-6.3,9.5-.1,7.6,1.5,9.7,4.9-.1,8.5-3.8,9.6-11.6,9.3-2.6-.1-4.2-.9-5.3-3.1-.3-.5-.8-3.4-.4-4.8h0Z"/>
        <path d="M515.2,242.9c-1.2,0-2.5,0-4.2,0-3.2-.1-5.1-1.3-6.3-3.7-.3-.7-1-3.8-.4-5.6,0-.3.1-.5.2-.9.3-2.2.9-5.8,7.3-6.2.4,0,.8,0,1.2,0,7.6-.1,8.7.9,9.9,3.7.2.5.5,1.1.9,1.8l.2.3v.3c0,7-2.6,10-8.6,10.4ZM511.8,228.8c-4.5.3-4.8,2.1-5.1,4.2,0,.4-.1.7-.2,1.1h0c-.3,1,0,3.5.3,4,.8,1.7,2,2.3,4.3,2.4,1.6,0,2.9,0,4,0,4.1-.3,6.2-1.6,6.4-7.7-.4-.7-.6-1.3-.9-1.8-.4-1-.6-1.4-1.3-1.7-1-.4-3-.6-6.4-.6-.4,0-.7,0-1.1,0Z"/>
        <path class="cls-4" d="M481.2,234.1c1.9-4.8,7.6-6.2,8.7-6.2,3.4-.1,7,2.8,8.9,6.3.5,2.7,1.1,6-2.1,7.4-7.6,3.1-14.3,1.9-15.5-7.4h0Z"/>
        <path d="M490.9,244.2c-2.3.2-4.3-.2-6-1.2-2.7-1.6-4.3-4.5-4.9-8.7v-.3s0-.3,0-.3c2.2-5.6,8.6-7,9.8-7,4.2-.1,8.1,3.5,10,6.9v.2c0,0,.2.4.2.4.5,2.7,1.2,6.8-2.9,8.5-2.2.9-4.3,1.5-6.3,1.6ZM482.5,234.3c.5,3.3,1.7,5.5,3.7,6.7,3,1.7,7.2.7,10.1-.5,2.1-.9,2-2.9,1.4-5.9-1.8-3.3-5.1-5.6-7.7-5.5-.7,0-5.7,1.1-7.6,5.2ZM514,239.4c-.2,0-.4,0-.6,0-1,0-1.6-1.1-1.6-1.8s0-1.9,1.1-2.4c.8-.5,1.5-.3,2.1,0,.7.3,1.3.8,1.4,2,0,.5-.1,1.1-.5,1.5-.5.5-1.3.7-1.8.7ZM514,237.2s0,0,0,.1c0,0,0,0,0,0,0,0,0,0,0,0,0,0,0,0,0,0ZM491.4,240.7c-.5,0-1.1-.2-1.3-.5-.5-.4-.6-.8-.6-.9-.2-1,.2-1.9,1.1-2.6l.3-.2h.3c1.5-.2,2.3.7,2.4,1.5.1.6,0,1.5-1,2.2,0,0,0,0,0,0-.3.2-.6.4-1.2.4ZM491.2,238.5s0,0,0,.1v-.3c0,0,0,.1,0,.2ZM482.5,226.3l-2.4.2c-.2-2.1,2-4.3,6.6-6.8,2.8-1.5,6.7.6,9.8,2.6l-1.3,2c-3.6-2.4-6.1-3.2-7.4-2.5-4.3,2.3-5.4,3.9-5.4,4.5ZM517.7,222.7c-2.7-2.6-6-3.6-9.3-2.7-1.4.4-3.6,1.9-3.7,2.6l-2.4.2c-.2-2.6,4.2-4.7,5.4-5,4.1-1.1,8.4,0,11.6,3.3l-1.7,1.7Z"/>
        <path d="M426,413.3l-3.9-1.5c1.3-3.4,24.6-46.3,26-48.7,2.6-4.4,6.6-8.2,10.5-11.8,3-2.9,6.2-5.8,8.5-9l3.4,2.5c-2.5,3.5-5.8,6.6-9,9.6-3.8,3.6-7.5,7-9.8,10.9-2.1,3.5-24.6,45.3-25.7,48Z"/>
      </g>
      <g id="Paard">
        <g>
          <path class="cls-3" d="M103.6,185.6c9.7,16,26.8,32.5,35.7,45.8,7.7,11.4,17.7,34,24.7,49.2,5,10.7,12.3,14.6,18.4,23.7,5.3,7.9,8.1-2.6,13.6-3.1,6.5-.6,0-7.7-2.2-11.6-.6-1-1.5-3.3,6.3-4.2,3.5-.4,3.2-7.7-3.8-12.6-2.6-1.8-14.8-9.8-9-11.4,1-.4,2.3.9,3,.4,6.5-4.3-1.3-5.5-1.9-11.5-.2-2.6-5.5-1.5-8.4-2.9-9.6-4.6-20.4-8.8-15.2-12,9.9-6.2,10.6-11.9,6.3-12.4-4-.5-5.5-3.9-6-5.8-4.8-5.7,4.1-6.1,2.6-8.8-.9-1.6-6.5-5.2-18.4-8.3-2.9-.7-7.5,2.1-10.9,2-6.1-.2-6.7-2.5-.2-7.8,5-4.1-8.1-2.7-7.1-7.2.6-2.6,11.1-8.8,11.1-8.8,0,0-7.1-1.3-7.9-4.8s4.4-6,5.7-9c-22.7.3-24.4-2.8-29.8,7.5-3.6,6.9-5.4,14.9-6.6,13.7h0Z"/>
          <path class="cls-7" d="M169.1,291.3c-5.9-10.2-11.9-22.9-16.7-33.1-3.6-7.6-6.7-14.1-8.3-16.7-10.6-16.2-29.6-41.7-41.8-54.6l-.9-.9.5-1.1c2.3-5,3.9-7.5,5.1-9.3,1.8-2.7,2.7-4,4-12.1l.4-2.4,2.2,1c1.4.6,3.4,1,6,1.1,3.3.1,7.1-.2,10.5-.5,2.9-.2,5.6-.5,7.6-.4s4.2.1,4.9,2.4c.7,2.1-.9,4.4-6.1,8.5,1.3.6,3.4,1.2,4.8,1.7,1.2.4,2.5.8,3.6,1.2l2.9,1-2.2,2.1c-1,.9-2.9,2.1-5.2,3.6-2,1.2-5.3,3.3-6.8,4.6,2,.9,4,1.4,5.5,1.7,2,.5,3.8.9,4.1,2.6.4,1.9-1.3,3.2-5.5,6.1-1.7,1.2-2.6,2-3.1,2.5.3,0,.8,0,1.4.1,2.7,0,6.6-.3,10-.7,2.2-.2,4.3-.5,5.9-.5.4,0,.8,0,1.1,0,8.7.3,18.7,8.4,20.4,12.3l1.9,4.5-4.4-2.1c-1.2-.5-2.7-.9-4.2-.9s-1.3,0-1.7,0c0,0,.1,0,.2.1,4.8,2.9,3.6,5.9,3.1,7.4,0,.1,0,.3-.1.4.5.3,2.1.9,6.9,1.4l1.7.2v1.7c-.2,2.3-1.9,5.2-5.4,8.6-1.8,1.7-3.8,3.4-5.7,4.7,1.4,1,2.7,2,4,3.1,4.3,3.5,8,6.5,16.5,6.7,1.6,0,3.4,0,5.3-.2l5-.4-3.5,3.6c-1.4,1.4-1.8,2.1-1.8,2.5q0,.1,0,.4c.2.5.3,1,.3,1.4.8.2,1.4.4,2,.9,1.3,1,2,2.5,3.2,5l1.2,2.7h-2.9c-3.8-.2-5.8,0-6.7.1.8.8,2.4,2,3.6,3,4.1,3.2,9.7,7.7,11.4,13.1,1.1,3.6,1.1,6.2-.2,7.8-1,1.3-2.5,1.9-4.5,1.8s-2.6-.3-3.9-.7c3,3.4,7.4,8.6,6.7,13.6-.2,1.5-1.4,2.5-3,2.4s-1.5-.2-2.3-.5c-.7-.2-1.4-.4-1.9-.4s-.3,0-.3,0c0,0,0,0,0,.2-1.5,4.4-3.7,6.6-6.8,6.5h0c-4.6-.1-10-5.9-17.4-18.8ZM196.5,300.1c.2,0,.4.1.7.2-.2-3.5-4.2-7.8-6.4-10.3-.5-.6-1-1.1-1.3-1.5-.8-1-2-2.5-1.3-4,.2-.4.8-1.3,2.2-1.2.8,0,1.8.3,3.1.7,1.5.4,3.3,1,4.7,1s1.2,0,1.4-.3c.1-.2.7-1.1-.4-4.5-1.3-4.3-6.4-8.3-10.1-11.3-3.8-3-6.3-5-5.4-7.3.7-1.8,2.8-2.5,8-2.6-.2-.4-.4-.7-.6-.8-.5-.3-1.7-.4-3.6-.5l-6.2-.4,5.4-3.1c.3-.1.5-.3.6-.4-.3-.9-.3-1.9.2-3.1-.6,0-1.2,0-1.7,0-9.8-.3-14.4-4-18.8-7.6-1.9-1.6-3.8-3.1-6.1-4.3l-3.1-1.7,3.2-1.6c3.9-2,9.4-6.9,11.2-10.1-4.7-.7-6.7-1.5-7.6-3-.8-1.3-.3-2.7,0-3.5.2-.6.3-.9.3-1.2,0-.2-.3-.8-1.8-1.7-2.2-1.4-3.1-2.9-2.7-4.4.5-1.8,2.8-2.8,6.1-2.7-3.4-2.9-8.8-6.2-13.7-6.4s-.6,0-.8,0c-1.5,0-3.5.3-5.6.5-3.6.4-7.6.8-10.5.7s-4.7-.1-5.4-2.5c-.7-2.4,2.1-4.7,5.1-6.8,1.3-.9,2.2-1.5,2.8-2,0,0,0,0-.1,0-1.9-.4-4.7-1.1-7.6-2.7-.9-.5-1.4-1.3-1.4-2.2,0-2.3,2.8-4.3,9.2-8.3.6-.4,1.2-.8,1.8-1.2-5.3-1.7-7.8-2.6-8.2-4.7,0-.4-.1-1.6,1.1-2.5,3.6-2.8,5.1-4.3,5.6-5-.3,0-.6,0-1.1,0-1.8,0-4.4.2-7.1.4-3.5.3-7.4.6-10.9.5-2,0-3.8-.3-5.2-.6-1.3,6.7-2.3,8.4-4.2,11.4-1.1,1.6-2.4,3.6-4.3,7.6,12.4,13.3,30.9,38.2,41.4,54.2,1.8,2.8,4.8,9.1,8.6,17.1,4.8,10.1,10.7,22.8,16.5,32.8,3.1,5.4,5.9,9.6,8.3,12.4,3.3,3.9,5.1,4.5,5.9,4.5h0c1.5,0,2.5-2.1,3.1-4,.6-1.8,2.1-2.8,4.1-2.8s1.9.3,2.8.5Z"/>
        </g>
        <path class="cls-4" d="M236,334.3c0-.3-22.7,0-36.2-10.9-40.8-37.6-38.1-62.5-61.4-94.1-30-40.8-43.3-46.8-41.2-60.3.3-11.1,8.5-23.9,8.9-36.2.2-5.4-14,24.3-15.5,26.5-4.7,7.2,1.7,22.4-4.2,10.3-1.5-3-37.4,13-41.3,28.6-.6,2.4-3,39.3-3.3,41.4,0,0,4.9-4.7-13.2,19-22.8,38.3-19.4,39.3-16.3,68.6,1.8,16.9,50.1,34.1,64.6,17.2,17.6-20.7,6.1-22.5,10.8-35,2-5.2,9.5-9.9,15.3-15.4,0,0,20.1,12.6,29.6,57.3.5,2.4,3.4,28.6,4.3,30l4.1,15.3c2,5.7,8.6,17.9,8.6,17.9l138.5-4.8,11.2-67.2s-34.2-3-63.5-8.2Z"/>
        <path class="cls-7" d="M21.3,237.2c-2.5-3.6-5-7.7-6.3-12.7-1-3.8-1.1-7.6-.4-11.4-.5.4-1.1.7-1.8,1.2l-2.5,1.7-.3-3c-.1-.9-.2-1.8-.4-2.7-.3-2-.7-4-.2-6.1-.5.4-.8,1.1-1.4,2.2-.4.6-.8,1.4-1.4,2.3l-2.4,3.9-1-4.4c-1.9-8.1.7-16.2,7.4-23.3,4.4-4.6,10.6-8.8,17.1-11.5-.9-.6-1.4-1-1.9-1.1-.5-.1-1.1-.2-2.5-.2h-.8s-5-.2-5-.2l3.5-3.1c5.4-4.8,18.2-5,23.4-4.8s7.2.8,12.9,1.7c6,.9,10.8.9,10.9.9,0-.8,2-1.9-1.3-4.1l-2.1-3,4.4-1c.4,0,.9-.1,1.4-.1,3.6.1,8.3,3.6,12.4,6.6,2.1,1.6,4.3,3.2,5.4,3.6l.4.2.3.4c1.7,2,3.3,5.8.5,12.5-2.1,5.3-6.6,11.6-11.9,16.8-5.6,5.4-11.1,8.7-15.2,9.1-14.1,1.2-32.2,7.2-37.8,29.2l-1,4-2.3-3.4Z"/>
        <path class="cls-4" d="M107.6,134.4c-1.3,5.6-.7,9.4-3,14.1-3.1,6.3-9.8,17.8-7.9,25.5,1.3,5.3,1.9,10.2,7.6,9.7,3.7-.3,9.4-21.7,9.6-26.7s.3-9.4-2.2-13.9c-1.1-2-4.2-8.7-4.2-8.8h0Z"/>
        <path class="cls-7" d="M199.9,321.4c-25.5-23.6-37.8-51-46-69.3-9.5-21.1-27.2-41.6-40.2-56.6-3.1-3.6-5.9-6.8-8.1-9.5,2.5-2.6,4.7-7.1,5.6-9.1,2.1-4.8,3.5-9.8,3.6-13,0-.6,0-1.1,0-1.7.4-10.9.8-23.1-6.9-30,0,0,0-.2-.1-.2-.8-1.5-2.2-2.5-4-2.9l-2.1-.5-.2,2.1c-.6,7-4.6,14.5-8.5,21.7-3.5,6.5-6.8,12.6-7.2,17.9l3.7.3c.3-4.4,3.4-10.2,6.8-16.4,3.4-6.2,7.1-13.1,8.5-19.9.9,3-1.6,9.7-4,16.2-3.9,10.5-8.3,22.4-3.8,30.1,2.3,3.9,7.4,9.9,13.9,17.4,12.8,14.8,30.3,35,39.6,55.7,6.7,15,14.3,31.1,26.3,47.3,6.3,8.6,13.3,16.4,20.9,23.4.5-1.2,1.3-2.2,2.3-2.9ZM100.2,178.7c-3.6-6.2.5-17.3,4.1-27,1.8-5,3.4-9.3,4.1-12.9,3.3,6.2,3,15.2,2.7,23.3,0,.6,0,1.1,0,1.7-.2,5.2-4.5,15.5-7.8,19.3-1.3-1.7-2.3-3.1-3-4.3Z"/>
        <path class="cls-4" d="M50.8,166.4c-.4-5.2.3-12.2,1.8-17.4,1.8-6.3,5-2.9,7.1,1.9,2.4,5.7,7,10.1,8.4,15.7.9,3.7-4.7,2-7,1.9s-4.8,0-7.1-.2c-1.8-.2-1.3-1.6-3.2-1.9h0Z"/>
        <path class="cls-4" d="M13,292.1c-3.9-3-8.1,1.4-9.6,4.5-1.5,3.1-.4,5.3.9,8.1.8,1.8,1.6,2.5,3.5,2.5,3.4,0,4.8-8.5,4.9-11.3,0-.7-.3-3.5.3-3.8h0Z"/>
        <path class="cls-7" d="M48.5,353c-9.3-.9-18.5-4.1-25.1-8.9-8.6-6.3-13.7-14.8-15.2-25.4-1.7-12.2,1.5-27,9.4-43.8,7.5-15.9,17-29.1,22.3-35.9-.3-15.8,1.5-27.9,4.6-31,.9-.8,1.7-1,2.3-.9l-.2,3.7c.3,0,.5,0,.5-.1-1.1.9-3.9,9.3-3.5,28.9v.7s-.4.5-.4.5c-17.3,22-34.6,53.9-31.4,77.4,1.3,9.5,5.9,17.2,13.7,22.9,13.2,9.6,34.4,11.3,47.3,3.8,9.6-5.6,13.9-15.7,12.4-29.1-1-8.6,4.3-13.3,9-17.4,2.9-2.5,5.6-4.9,6.8-8q5.8-15.7,2.2-29.5c-.5-1.9-1.1-4.1-1.7-6.6l3.6-.9c.6,2.5,1.2,4.6,1.7,6.5,3.8,14.6,3.8,15.2-2.3,31.7-1.5,4-4.7,6.8-7.8,9.5-4.4,3.8-8.5,7.5-7.7,14.1.9,7.8,0,14.6-2.7,20.3-2.4,5.2-6.3,9.4-11.5,12.4-6.2,3.6-14.3,5.4-22.9,5.2s-2.3-.1-3.4-.2Z"/>
        <path class="cls-7" d="M49.4,167.6l-.3-.3v-.4c-1.3-4.1-1-7.1-.6-11.5,0,0,0,0,0-.2.5-5.6,2.1-12.6,6.8-14.1l1.4-.4.8,1.2c1.4,2.1,2.5,4.5,3.6,7,1.4,3.1,2.9,6.3,5,9.2.5.6.9,1.5,1.5,2.5,1,1.9,2.7,5,4.1,5.4l2.6.8-1.7,2.1c-.7.8-2,1.8-6.9,1.9-.7,0-1.5,0-2.4,0-4.7-.1-11.8-1-13.8-3.3ZM64.3,162.4c-.5-.8-.9-1.7-1.2-2.1-2.3-3.2-3.9-6.5-5.4-9.8-.8-1.8-1.6-3.4-2.4-5-1.4,1.6-2.6,5.3-3,10.1,0,.1,0,.2,0,.2-.5,4.2-.6,6.4.2,9.5,1,.6,3.9,1.4,8.4,1.7,2.7.2,4.8.2,6.4,0-1.2-1.4-2.1-3.2-3-4.7Z"/>
        <path class="cls-7" d="M140.3,399.2l3.4-1.6c-3.2-7-1-2.7-5.5-20.8-3.3-13.6-2.9-27-5.1-33.1-1-3-1.9-6-2.8-8.8-2.7-9-5.3-17.6-11.6-25.7-.5-.6-.9-1.2-1.4-1.8-4.8-6.1-10.1-13-14.3-15.9l-2.1,3.1c3.7,2.5,8.9,9.2,13.5,15.1.5.6.9,1.2,1.4,1.8,5.9,7.5,8.4,15.7,11,24.4.9,2.9,1.8,5.9,2.8,9,2.1,6,1.7,19.3,5,32.8,4.7,19.2,2.3,14.1,5.7,21.4Z"/>
        <g>
          <path d="M71,313c2.3-1,3.3-3.5,2.8-6.6-.5-3-2.4-6-5-8.3-2.2-1.9-5.9-4.2-11.5-4.5-4.5-.2-13.7-.5-16.4,9.8l2.2.6c2.1-7.9,8.4-8.4,14.2-8.1,4.9.2,8.2,2.2,10.1,3.9,2.2,2,3.8,4.6,4.3,7,.2,1,.4,3.4-1.4,4.2l.9,2.1Z"/>
          <path class="cls-3" d="M70.7,313.7l-1.3-3,.5-.2c1.5-.6,1.3-2.7,1.1-3.6-.4-2.3-2-4.8-4.1-6.7-1.8-1.6-5-3.6-9.8-3.8-5.6-.2-11.7.2-13.7,7.8v.5c-.1,0-3.3-.8-3.3-.8v-.5c2.9-10.7,12.5-10.4,17.1-10.2,5.7.2,9.6,2.6,11.8,4.6,2.7,2.4,4.6,5.5,5.2,8.6.6,3.4-.5,6.1-3.1,7.2l-.5.2ZM70.8,311.2l.5,1.1c1.8-1,2.5-3.2,2-5.9-.5-2.8-2.3-5.8-4.8-8-2.1-1.9-5.8-4.1-11.2-4.3-4.3-.2-13-.5-15.8,8.9l1.2.3c2.5-8.5,10.3-8.2,14.5-8,5,.2,8.4,2.3,10.4,4,2.3,2,4,4.8,4.4,7.3.2,1,.4,3.4-1.3,4.5Z"/>
        </g>
        <path class="cls-7" d="M8.8,309.8l.7-3.7c-3.6-.7-5.9-2.9-5.8-5.8.1-3.1,3-6.5,9.1-7.3l-.5-3.7c-8.3,1.1-12.2,6.2-12.4,10.9-.2,4.7,3.3,8.5,8.8,9.6Z"/>
        <path class="cls-3" d="M65.7,307.5c0-3.1-5.4-6.9-10.2-7-2.4,0-4.5.7-6.1,2.3-.5.5-1.1,1.2-.8,1.9.3.8,1.3.9,2.4,1,.4,0,.9,0,1.4,0,.6,0,1.2,0,1.7,0,1.2,0,2.1.1,2.8.3,1.5.4,2.2,1.6,2.9,2.6.5.8,1,1.6,1.8,1.7,0,0,0,0,.1,0,3.4-.2,3.9-1.8,3.9-2.8Z"/>
        <path class="cls-7" d="M82.3,215.2c-2.9.2-5.3,2.6-6.1,3.9l-1.9-1.2c1.1-1.7,4-4.7,7.9-4.9,3.1-.2,5.9,1.4,8.6,4.8l-1.7,1.4c-2.2-2.7-4.4-4-6.7-3.9Z"/>
        <path class="cls-7" d="M56.3,215h0c-2.4,0-4.6,1.2-5.8,2.9l-1.9-1.3c1.5-2.3,4.5-3.8,7.6-3.8,0,0,0,0,0,0,3.5,0,6.8,1.7,9.2,5l-1.8,1.3c-1.9-2.7-4.5-4.1-7.3-4.1Z"/>
        <g>
          <path class="cls-4" d="M75.2,224.7c4.4-2.1,10.6-1.5,12.7.9,2.3,2.7,1.9,7.5,1.1,8.9-2.2-.3-6.3-1.8-9.3-1.8s-5.3.6-7.6,0c-.9-1.8,0-6.5,3.1-7.9h0Z"/>
          <path class="cls-7" d="M88.8,235.6c-.9-.1-2.1-.4-3.3-.7-1.9-.5-4.1-.4-5.7-.4s-6.3-.3-8-.7h-.5c0-.1-.2-.6-.2-.6-.6-1.2-.6-3.2,0-5.1.7-2,2-3.6,3.6-4.3h0c4.8-2.3,11.6-1.7,14,1.2,2.6,3,2.2,8.4,1.2,10.2l-.4.7h-.7ZM75.6,225.7h0c-1.4.7-2.1,2.2-2.4,3-.4,1.1-.5,2.2-.3,2.9,1.1.2,5.5.5,6.8.5,2,0,4.3,0,6.4.5.8.2,1.5.4,2.1.5.4-1.6.4-5-1.2-6.9-1-1.1-3.4-1.8-6-1.8-1.8,0-3.7.4-5.3,1.2Z"/>
          <path d="M78.1,233.2c-3-.3-1.4-4.9,1.1-5.2,5.5-.6,5.2,5.6-1.1,5.2h0Z"/>
        </g>
        <g>
          <path class="cls-4" d="M50.2,225.4c4.8-2.3,6.1-2.8,11.6-.9,4.1,1.4,3.6,5,2.4,8.2-2.6.1-3.9,1.4-8.1,1.5-3.8.1-4.7-.8-7.5-.9-2.3-3.2-.7-6.2,1.6-7.9h0Z"/>
          <path class="cls-7" d="M51.2,234.9c-.8-.2-1.6-.4-2.7-.4h-.5s-.3-.5-.3-.5c-2.7-3.8-.7-7.5,1.8-9.4h0c0,0,.1-.1.1-.1,2.7-1.3,4.5-2.1,6.7-2.2,1.5,0,3.2.3,5.8,1.2,1.7.6,2.9,1.6,3.5,2.9.8,1.7.6,4-.5,6.8l-.3.7h-.7c-1,0-1.8.3-2.8.6-1.3.4-2.8.8-5.3.9-.1,0-.2,0-.3,0h0c-2.2,0-3.5-.3-4.6-.5ZM63.7,227.3c-.4-.8-1.1-1.3-2.2-1.7-2.4-.8-3.8-1.1-5.1-1.1-1.6,0-3,.6-5.6,1.9-1.1.9-3.2,3.1-1.5,5.9,1,0,1.7.3,2.5.4,1.1.3,2.2.5,4.1.5s.2,0,.3,0c2.2,0,3.5-.5,4.8-.8.8-.2,1.6-.5,2.5-.6.7-1.9.8-3.4.3-4.4Z"/>
          <path d="M54.9,233.5c-3.1-.7-3.5-4.7,0-5.1,5.2-.5,4,5.5,0,5.1h0Z"/>
        </g>
        <path class="cls-3" d="M149.8,416.2c-.7,0-1.3-.4-1.6-.9-.3-.5-6.7-12.4-8.7-18.2l3.4-1.2c1.6,4.6,6.3,13.6,7.9,16.6l135.9-4.7,10.6-63.8c-6-.5-80.7,26.3-80.7,6.2s-15.4-21.6-20.3-27.7l2.8-2.3c8.5,10.6,75.4,18.2,100.5,20.3.5,0,1,.3,1.3.7.3.4.4.9.4,1.4l-11.2,67.2c-.1.9-.9,1.5-1.7,1.5l-138.5,4.8s0,0,0,0Z"/>
      </g>
      <g id="Koe">
        <path d="M308.2,106.7c-3.2-1.4-7-4-9.8-5.9-2.5-1.7-6.5-3.6-8.2-6-2.9-4.2-9.2-10.6-14.8-10.6-1.7,0-4.3-.9-4.8.6-3.1,8.3,10.2,16,15.2,17.6,2.1.7,23.7,11,22.4,4.2h0Z"/>
        <path class="cls-4" d="M326.7,100.5c-6.2-5.4-21.4-11.1-29.7-15-2.9-1.4-18.2-7-21.8-4.3-3.7,2.7,9.1,8.4,10.8,10.3,8.1,8.7,18.9,16.3,30.9,18,4,.6,3.9-1.5,5.2-4.4.8-1.8,4.4-4,4.5-4.7h0Z"/>
        <path d="M319.1,110.1h0c-13.8.9-22.7-6.9-29.9-13.3-2.3-2-4.5-3.9-6.6-5.4-1.9-1.3-3.8-2.5-5.5-3.5-1.7-1-3.1-1.9-4.2-2.7-.7-.6-2.7-2-2.2-4.1.6-2.4,3.5-3,8.9-3.4,11.2-.8,24.6,7.8,28.5,10.4,4.1,2.8,13.7,7.9,20.4,9.9l3.2,1-2.2,2.5c-1.1,1.3-1.9,2-2.5,2.5-1,.9-1.3,1.2-2.8,4.4l-.5,1-1.1.2c-1.1.2-2.3.3-3.3.4ZM276.2,82.4c.9.6,2,1.3,3,1.8,1.8,1.1,3.8,2.3,5.8,3.6,2.3,1.6,4.6,3.6,7,5.7,6.9,6.1,14.7,13,26.8,12.2h0c.6,0,1.2-.1,1.9-.2,1.4-2.8,2-3.5,3.2-4.6-6.7-2.5-14.5-6.8-18.3-9.4-3.6-2.4-16-10.4-25.8-9.7-1.6.1-2.8.2-3.6.4Z"/>
        <path d="M307.9,111.6c-7.1.5-14.6-1.2-21.6-4.9-7.9-4.2-14.7-10.8-17.1-16.8-1.9-4.7-.9-8.5,2.6-10.3l1.9,3.8c-1.4.7-1.7,2.4-.6,4.9,1.7,4.2,7.1,10.3,15.1,14.6,8.7,4.6,18.1,5.7,26.5,3.1l1.3,4c-2.6.8-5.4,1.4-8.2,1.5Z"/>
        <g>
          <path class="cls-4" d="M330.3,93.1c-6.8-5-13.3-12.2-21.1-15.5-3.5-1.4-4-.8-2.9,3.5,1,3.9,3.9,12.8,6.9,15.4.7.6,6.6,4.8,7.2,4.8,5.3.1,3.2-1.7,6.9-4.1,1-.7,3.2-4.1,3.1-4.1h0Z"/>
          <path d="M320.5,105.5l-1.3-1c-16.7-13-15.7-28.2-15.1-32.5l.3-1.9c.2-1.4,2-1.7,2.7-.5l.9,1.7c6,10.8,21.2,19.6,28.1,20l.7,4.1c-6.3,2.7-11.6,6.6-14.8,8.9l-1.7,1.2ZM308.2,78.8c.6,5.6,3.3,13.8,12.3,21.3,2.3-1.7,5.5-3.9,9.3-6-3.3-1.2-7-3.1-10.6-5.6-4.3-2.9-8.1-6.3-11-9.7Z"/>
        </g>
        <path class="cls-4" d="M371.5,95.6c10.4,1.7,30.2-8.3,43.6-5.7,15.4,3,19.1,15.9,18.4,18.2-4.3-2.2-24.1-9.5-32.4-8.5-6.4.8-11.5,1.5-17.8,4.5"/>
        <path d="M433.5,108.2c-6.6-5.5-20.5-10.4-30.9-9.7-1.9.1-11.9,4.4-11.8,5.7.2,3.2,11.9,1.6,14.2,2.3,3,.9,33.5,11.4,28.5,1.7h0Z"/>
        <path d="M428.5,115.1c-4.7.3-11.3-1.4-19-3.5-8.9-2.3-18.9-5-26.5-4.3l-.4-4.2c0,0,.1,0,.2,0l-.4-.9c6.4-3,11.6-3.8,18.4-4.6,7.6-.9,22.7,4.2,30,7.2-.5-1.3-1.2-2.8-2.4-4.5-2.2-2.9-6.3-6.8-13.7-8.2-6.8-1.3-15.6.8-24,3-7.4,1.8-14.4,3.6-19.5,2.7l.7-4.2c4.3.7,10.9-.9,17.8-2.7,8.9-2.2,18.1-4.5,25.9-3,10.5,2.1,15.5,8.3,17.6,11.9,1.9,3.2,2.9,6.6,2.5,8.7,0,2.7-1.3,4.3-2.3,5.1-1.2,1-2.8,1.5-4.8,1.6ZM391.7,103.4c6.2.8,12.8,2.5,18.9,4.1,8.2,2.2,17.6,4.6,20.1,2.6.1,0,.3-.3.5-.7-6.3-2.8-22.9-8.5-29.8-7.7-3.6.4-6.7.9-9.7,1.6Z"/>
        <g>
          <path class="cls-6" d="M406.8,80.4c-.2,4.6-3.5,9.5-6.7,13.9-1.4,1.9-1.4,4.3-3.3,6.4-2.8,3.1-7,5.8-10.2-.3-1-1.9-3.1-.4-4.1-2.3-1.6-2.9,3.4-5.6,5-6.1,3.5-1.1,9.3-6.6,11.3-9,.9-1,4.2-1.3,5.4-2,.8-.4,1.8-.7,3-.8,2.1-.2,1.2-1.1-.4.2h0Z"/>
          <path class="cls-4" d="M403.7,79.9c-.9,1.7-.3,5.7-.3,8.3.1,4.2-5.2,8.8-7.9,11.5-2.3,2.3-4,5.7-8.2,2.8-1.4-1-5.8-4.7-6.7-6.1-.6-.9,4.2-4.1,5-4.6,5.3-2.8,9.6-4.5,14-9.1,1-1,2.9-3.2,4-2.7h0Z"/>
          <path d="M392.9,109.1l-1.7-1.3c-3.1-2.3-10.5-7.4-16.4-9.8l-7.3-3,7-3.1c7-1.3,20.6-4.5,29.2-15.9.9-1.2,3.3-1.5,3.6-.1.9,3.7.3,6.9-.8,10.3-2.2,6.7-6.6,14.7-12.1,21.3l-1.4,1.6ZM381.9,96.2c3.8,2.1,7.6,4.6,10.2,6.5,6.1-7.7,9.7-15,11.3-20.7-5.9,6.7-14.9,11.7-21.5,14.3Z"/>
        </g>
        <path class="cls-4" d="M429.8,378.9c-26.6,6.2-46.9,30.4-85.7,16.6-54.3-19.4-101.7,25.8-91-31.4,10.1-53.6,39.6-121.1,48-172.8,4.9-30.5,12.7-86.9,26.5-93.6,29.6-14.4,62-14.3,67.8,38.8,2.1,19.1,10.4,34.6,12.7,47.6,4,21.8,23.9,33.3,3.6,53.3-29.1,28.5,9.8,107.1,17.9,141.6h0Z"/>
        <g>
          <path class="cls-4" d="M381.9,95.6c-10.4-.5-25.4,48.9-11.7,57.8s14.7,9.9,17,16.5c6.6,18.8-2.5,23.4,17.2,26.6,12.8,2.1,13.2,8.2,7.5-9.5-4.8-14.8-14.3-38.8-15.4-54.9-.9-13.3-1.6-29.7-14.6-36.4h0Z"/>
          <path d="M414.8,200.2c-.7,0-1.6-.3-2.8-.7-1.8-.6-4.3-1.4-7.7-2-13.3-2.1-14.2-5-15.1-13-.4-3.6-.8-8.1-3-14.2-2.3-6.7-11.6-12.7-16.6-16-8.3-5.4-6.8-24.2-1.9-39.3,3.2-10,8.7-20.6,14.3-20.3h.2s.2.1.2.1c13.1,6.7,14.2,22.9,15,35.9v1.3c.9,12.5,7,29.9,11.8,43.9,1.4,3.9,2.6,7.6,3.7,10.8.7,2.1,1.3,3.9,1.8,5.4,1.8,5.3,2.3,6.7,1.3,7.7-.3.3-.7.5-1.1.5ZM381.7,96.6c-3.6.1-8.5,7.8-12.1,19-4.8,14.9-5.9,32.4,1.1,37,7.7,5,15.2,10.6,17.4,17,2.2,6.3,2.7,11.1,3.1,14.7.7,7.1.9,9.3,13.4,11.3,3.6.6,6.3,1.5,8.1,2.1.6.2,1.3.5,1.8.6-.1-.9-.8-3-1.7-5.4-.5-1.5-1.1-3.3-1.8-5.4-1-3.2-2.3-6.9-3.7-10.8-4.9-14.1-11-31.6-11.8-44.4v-1.3c-1-13.1-1.9-27.9-13.8-34.2Z"/>
        </g>
        <g>
          <path class="cls-4" d="M400.7,271.2c-3.1,5.1-29.1,8.9-22,15.8,12.3,11.8,2.9,58.4,20.5,65.7,12.6,5.3-5.4,5.4-7.6,9-4.9,8.1,15.9,8.6,18.5,9.3,1.8.5,21.7,17.7,18.7,2.7-3-15.1-6.4-38-13.1-51.7-4.3-8.9-7.2-20.3-9.9-30.1-.9-3.4-2-22.5-5.1-20.6h0Z"/>
          <path d="M426.3,380.8c-3.5,0-8.8-3.5-14-7.2-1.1-.7-2.3-1.6-2.6-1.7-.4-.1-1.5-.2-2.8-.4-7.1-.8-14.8-2-16.7-5.8-.7-1.4-.5-2.9.5-4.6,1-1.7,4-2.5,7.1-3.5,1.7-.5,4.5-1.3,4.8-1.9,0,0,0,0,0,0,0,0-.4-.8-3.8-2.2-10.3-4.3-11.8-20.6-13.3-36.3-1.1-12.1-2.3-24.5-7.6-29.6-1.2-1.2-1.7-2.4-1.5-3.7.7-3.4,6.7-5.6,13-8.1,4.3-1.7,9.3-3.5,10.3-5.3v-.2c.1,0,.3-.1.3-.1.5-.3,1.1-.4,1.7,0,1.9.9,2.8,5.6,4,15.6.3,2.6.6,4.8.8,5.7.3,1.2.7,2.5,1,3.8,2.4,8.7,5,18.5,8.8,26.2,5.6,11.4,8.9,29.1,11.5,43.2.6,3.1,1.1,6,1.7,8.7.7,3.5.3,5.7-1.3,6.7-.6.4-1.3.6-2.1.6ZM401.1,272.2c-1.7,2.1-6,3.7-10.9,5.6-5,1.9-11.3,4.3-11.7,6.6,0,.2-.2.8.9,1.8,5.8,5.6,6.9,17.9,8.2,30.9,1.4,15.2,2.9,30.8,12,34.7,3.7,1.5,5.1,2.7,5,4.2-.1,1.9-2.8,2.7-6.2,3.7-2.3.7-5.3,1.6-5.9,2.6-.6,1-.8,1.9-.4,2.7,1.5,3.1,10.7,4.2,15.1,4.7,1.6.2,2.6.3,3.1.5.5.1,1.3.7,3.1,2,3.4,2.4,11.5,8.1,13.9,6.6.8-.5.9-2.2.4-4.7-.5-2.7-1.1-5.7-1.7-8.8-2.6-14.1-5.9-31.6-11.4-42.7-3.8-7.8-6.5-17.8-8.9-26.6-.3-1.3-.7-2.5-1-3.8-.3-1-.6-3.2-.9-6-.5-3.8-1.5-12.3-2.7-13.9Z"/>
        </g>
        <g>
          <path class="cls-4" d="M317.3,115c14-51.1,62,30,29.5,47.6-14.6,7.9-1.4,25.5-8.8,33.3-14.2,14.9-55.9,15.8-35.1,52.6l6.8,12c9.7,17.3,12.8,18.1,21.5,22.6,17.1,8.8-2.7,103.3-7.1,38.9-1.1-16.3-21.3-8.1-24.4,3.5-1.3,4.9-.6,10.6,3.5,11.4,19.7,3.9-8.5,24.8-19.2,21.7-12.3-3.5-36.8,41.2-30.9,2.4,12.7-83.6,32.7-111.9,33.2-114l13.7-49.3c13.9-50,8.9-51.2,15.7-75.2.8-2.9,2.4-7.6,1.6-7.5h0Z"/>
          <path d="M254.9,377.9c-.5,0-1-.1-1.5-.4-2.6-1.4-3-6.4-1.4-16.8,5.1-33.9,14.9-80.9,32.4-112.5.4-.7.8-1.4.8-1.6l13.7-49.3c8.1-29.2,9.8-41.8,11.1-51.9.9-7.1,1.8-13.3,4.6-23.3.2-.6.4-1.3.6-1.9.4-1.2.9-2.9,1.1-4h-.5c0,.1.4-1.5.4-1.5,4-14.5,10.4-17.5,15-17.4,11.2.1,22.2,16.8,26,32.2,3.9,16,.3,28.3-10.1,33.9-7.8,4.2-7,11.6-6.3,18.6.6,5.6,1.2,10.8-2.3,14.5-4.3,4.5-11,7.8-17.6,11-9.6,4.7-19.5,9.5-22.2,18.2-1.9,6-.3,13.3,4.8,22.3l6.8,12c9.1,16.1,12.2,17.7,19.7,21.5l1.4.7c10.5,5.4,8.1,39,3.3,54.8-1.8,5.8-3.6,8.5-5.8,8.3-2-.2-4.8-2.9-6.1-23.3-.3-5-2.6-7.8-6.4-8.2-5.7-.5-14.1,4.7-16,11.9-.9,3.4-.7,6.7.5,8.6.5.9,1.3,1.4,2.2,1.6,4.2.8,6.7,2.4,7.4,4.8.8,2.6-.5,5.7-3.8,9-5.9,6.1-17.1,11.5-23.3,9.8-4.4-1.2-11.3,5.1-16.9,10.3-4.9,4.5-8.8,8.1-11.8,8.1ZM318.4,114.7c.3.8,0,2.2-1.2,6.1-.2.7-.4,1.3-.6,1.9-2.8,9.8-3.6,15.9-4.5,23-1.3,10.2-3,22.8-11.2,52.1l-13.7,49.3c0,.3-.3.7-1,2-17.4,31.4-27.1,78.2-32.2,111.9-1.8,11.7-.5,14.2.4,14.7,1.8,1,6.7-3.5,11-7.5,6.3-5.7,13.4-12.3,18.8-10.7,5.4,1.5,15.9-3.7,21.3-9.2,2.7-2.8,3.9-5.3,3.3-7.1-.6-2-3.5-3-5.9-3.5-1.5-.3-2.7-1.1-3.5-2.5-1.5-2.3-1.7-6.2-.7-10.1,1.9-7.4,10.9-14.1,18.1-13.4,4.8.5,7.8,4.1,8.2,10,1.4,20.9,4.2,21.4,4.4,21.4.4,0,1.9-1.1,3.6-6.9,4.6-15.2,6.8-47.8-2.3-52.4l-1.4-.7c-7.9-4-11.2-5.7-20.6-22.3l-6.8-12c-5.4-9.6-7-17.4-5-23.9,3-9.5,13.3-14.5,23.2-19.4,6.7-3.2,13-6.3,17-10.5,2.8-3,2.3-7.8,1.8-12.9-.8-7.4-1.7-15.7,7.3-20.6,13.5-7.3,10.8-24.6,9.1-31.7-4.1-16.5-15.1-30.6-24.1-30.7-5.6,0-10,5.2-12.9,15.4Z"/>
        </g>
        <path class="cls-4" d="M343.4,273c4.7,7.9,19.6,9.8,28.3,11,10.9,1.5,18-2.2,27.1-8.9,10.1-7.4-20-12.7-25.6-12.9-7-.2-11.7,2.1-17.2,5.5-2.5,1.6-13.1,4.7-12.6,5.3h0Z"/>
        <path class="cls-4" d="M408.5,197.2c21.8,5,31.6,44.6,18.5,61.3-20.3,25.7-39.4-2.7-61.9,4.3-21.9,6.8-33.3,20.4-53.1,2.1-20.6-19-15.6-40.6.1-58.5,8.2-9.3,34.4-11.3,46.3-10.4,9,.6,48.3-6,50.1,1.3h0Z"/>
        <path class="cls-8" d="M413.6,222.1c-.8-6-4-9.4-8.5-9.1-.3,0-.6,0-.9.1-7.9.6-12.2,10-11.6,18.5.2,3.3,1.2,6.2,2.8,8.2,2,2.5,4.7,3.7,8,3.5.5,0,1,0,1.5-.2,6.7-1.3,9.7-13.5,8.7-21Z"/>
        <path class="cls-8" d="M345.5,216.6c12.1.8,9.3,29.2-4.1,30.8-15.5,1.9-17.5-30,4.1-30.8h0Z"/>
        <path d="M427.7,379.3c-4.4-22.9-11.2-43.8-17.2-62.2-6.1-18.7-11.4-34.8-11.6-46.3h4.2c.2,10.8,5.4,26.7,11.4,45,6.1,18.6,12.9,39.6,17.3,62.8l-4.2.8Z"/>
        <path d="M428.6,210.6c-1.3-2.1-2.7-4-4.3-5.8-4.9-5.7-11.2-19.6-17.3-38.5-5.5-17.1-8.6-31.1-8.2-33.2,1.2-6.9,1-13.2-.8-19-1.6-5.1-4.3-9.7-8.2-13.7-11.6-11.9-30.7-15.3-39.9-13.8-13.5,2.1-22.4,6-27.9,12.3-4.9,5.6-7,16.4-8.4,23-1,3.8-6.2,31.5-8.7,44.9-.5,2.8-.9,5-1.1,5.9-7.8,40.9-15.2,67.8-21,75.8-7.6,10.6-17.3,48.8-22.3,70.6-6.3,27.1-12.2,57.7-11.9,61.8l4.2-.3c-.2-2.6,4.6-29.4,11.8-60.5,8.5-36.6,16.4-61.7,21.7-69.1,7.8-10.8,16.1-48.1,21.7-77.4.2-1,.6-3.1,1.1-6,2.3-12.2,7.7-40.9,8.6-44.6,2.8-13.1,6.1-27.4,32.9-31.6,8.6-1.4,25.7,2.2,35.7,12.4,7.2,7.3,9.8,16.9,7.7,28.4-.7,4,3.8,21.3,8.3,35.4,2.5,7.8,6.7,19.7,11.4,29.2-1.6-.8-3.3-1.5-5-2.2-9.9-3.6-22.6-4.3-37.6-2.2-17.5-1.4-32.7.4-45.2,5.1-5.2,2-9.9,4.5-13.8,7.4,7.9-19.4,11.1-38.9,9.8-59l-4.8.3c1.5,23.8-3.5,46.5-15.3,69.5-.5.8-.9,1.5-1.4,2.3-7.6,14.1-4.9,31.4,7.5,47.5,8.1,10.5,15.9,13.5,23.4,13,6.4-.4,12.7-3.4,18.9-6.3,6.9-3.3,14-6.6,21.8-7,4.4-.2,9.5,1.6,15,3.6,6.5,2.4,13.3,4.8,20.4,4.4.1,0,.2,0,.3,0,8.1-.5,15-4.8,21.1-13,2.2-3,5-10.7,5.7-20.4.6-7.9,0-19.4-5.9-29.4ZM429.7,239.6c-.7,9.3-3.3,15.9-4.8,17.9-11.7,15.9-23.6,11.5-36.3,7-5.9-2.1-11.4-4.1-16.8-3.9-8.8.4-16.3,4-23.7,7.5-6.5,3.1-12.6,6-18.4,5.9-6.4,0-12.1-3.6-17.9-11.2-11.2-14.6-13.8-30-7.1-42.3,7.4-13.6,24.5-21.8,47.3-23.3,6-.4,12.3-.3,19,.2h.3s.3,0,.3,0c23-3.3,39.4.2,49,10.4.2.2.4.5.6.7h0c1.2,1.4,2.4,2.9,3.4,4.6,5.4,9,5.8,19.4,5.3,26.5Z"/>
        <path class="cls-4" d="M358.6,310c-30-2.1-57.8,0-72.8-33.6-9.7-21.7-26.6-7.2-8.7,17.3,23.7,32.6,74.4,36.2,112.9,31.1,12.3-1.6,31.2-7.5,24.4-21.9-2.1-4.5-14.9-3-20-.4-5,2.5-36,7.3-35.7,7.5h0Z"/>
        <path d="M367.3,330.1h0c-1.8.1-3.5.2-5,.2-26.5.5-50.5-6.1-71.5-19.5-6.2-4-12.5-12.1-15.7-16.6-3.1-4.3-7.7-11.7-8-14.2-.7-6.8,1.5-12.7,6.3-16.9.4-.4.9-.6,1.5-.6,2.4-.2,4.6,2.6,13.8,15.4,5.4,7.5,11.5,16.1,14.8,18.7,11.4,9.1,29,12.9,52.3,11.3,15.7-1,33.6-4.5,53.1-10.2l1-.3.9.6c3.5,2.4,6.1,6.7,6.5,10.9.3,3.3-.8,6.1-3,8.3-8.5,8.2-34.3,11.9-46.7,12.7ZM271.4,279.6c.5,2.4,11.9,21.4,21.8,27.7,20.3,12.9,43.5,19.2,69.1,18.8,1.5,0,3.1,0,4.8-.2,16.7-1.1,37.8-5.5,44-11.5,1.3-1.3,1.9-2.9,1.8-4.9-.2-2.6-1.8-5.4-3.8-7.2-19.4,5.6-37.2,9-52.9,10-24.4,1.6-43-2.5-55.3-12.3-3.8-3-9.8-11.4-15.6-19.6-3.5-5-7.8-11-9.9-13.1-3.1,3.2-4.3,7.3-3.8,12.2Z"/>
        <path d="M345.8,135.1c-2.6-3.4-8.6-5.4-12.4-4.1-2.2.7-3.4,2.4-3.4,5h-2.4c.1-3.7,1.9-6.3,5.1-7.3,4.7-1.5,11.9.8,15.1,4.9l-1.9,1.5Z"/>
        <path d="M389.1,131c-1.7-2.7-4.8-4.4-7.9-4.4-3,0-5.6,1.8-7.3,4.8l-2.1-1.2c2.2-3.8,5.5-6,9.4-6,3.9,0,7.8,2.1,10,5.5l-2,1.3Z"/>
        <path d="M376.8,287.1c-3.8.3-7.9,0-12.1-1-10.6-2.2-19.7-7.5-24.1-10.4-.1,0-.2-.1-.2-.1.7.5,1.9.5,2.7-.4l-1.6-1.4-1.6,1.4v-2.8c.6-.7,1.7-1,2.8-.3,0,0,.1,0,.2.2,4.2,2.8,12.7,7.7,22.6,9.8,14.4,3,25.7-1.2,33.6-12.5l3.5,2.4c-4.9,7-11.1,11.7-18.4,13.9-2.4.7-4.9,1.2-7.5,1.3Z"/>
        <g>
          <path class="cls-4" d="M328.9,149.7c-2-4,2.8-10.8,9.2-12.1,7.1-1.3,16.9,6.3,12.3,12-1.9,2.4-5-.4-10.2.1-4.8.5-9.4,3.9-11.3,0h0Z"/>
          <path d="M348.6,151.7c-.9,0-1.9-.1-3-.4-1.5-.3-3.2-.7-5.3-.5-1.4.1-2.8.6-4.1,1-1.4.4-2.7.8-3.9.9-2.1.1-3.6-.7-4.5-2.5-.9-1.8-.7-4.1.4-6.4,1.8-3.7,5.6-6.6,9.7-7.3.4,0,.8-.1,1.2-.2,5-.3,10.7,2.8,12.9,6.9,1.3,2.5,1.1,5-.6,7.1-.7.9-1.6,1.3-2.7,1.4h0ZM340.6,148.4c2.2-.2,4.1.2,5.6.5.9.2,1.8.4,2.4.3h0c.5,0,.7-.2,1-.5,1.1-1.3,1.2-2.8.3-4.5-1.7-3.3-6.7-5.9-10.6-5.7-.3,0-.6,0-.9.1-3.8.7-6.7,3.5-7.9,6-.8,1.6-1,3.2-.4,4.3.5,1,1.1,1.3,2.2,1.2s2.1-.4,3.4-.8c1.4-.4,3-.9,4.6-1,.2,0,.3,0,.5,0Z"/>
          <path d="M345.6,143.9c-1-1.6-2.8-2.4-5.1-2.4h0c-.1,0-.3,0-.4,0-2.4.2-4.2,1.3-5,3.2-.8,1.9-.5,4.2.9,5.9l.5.6.8-.2c.5-.1,1-.4,1.4-.6.6-.3,1.1-.5,1.5-.5,0,0,.2,0,.3,0,.5,0,.8.1,1.1.2.6,0,1.2.2,2.9.6l1,.3.4-1c.9-2.3.9-4.5-.2-6.1Z"/>
        </g>
        <g>
          <path class="cls-4" d="M392.8,147.8c2.7-2.4-2.4-12.1-9.8-12.4-8.2-.3-17.5,7.4-11.5,12.3,2.5,2.1,8-1.7,12.2-1.4,3.1.2,6.4,3.8,9.1,1.4h0Z"/>
          <path d="M391,149.8s0,0,0,0c-1.5.1-3-.6-4.4-1.2-1.1-.5-2.1-1-3.1-1-.3,0-.6,0-.9,0-1.4,0-2.9.6-4.4,1-1.5.5-3,.9-4.3,1s-2.5-.2-3.3-.9c-2.1-1.7-2.8-3.9-2.1-6.3,1.3-4.1,7.1-7.8,12.9-8.2.5,0,1,0,1.5,0,5.4.2,9.7,4.6,11.2,8.9.9,2.4.6,4.5-.6,5.6-.8.7-1.6,1-2.6,1.1ZM382.5,145.1c.4,0,.8,0,1.2,0,1.4,0,2.6.7,3.9,1.2,1.2.5,2.3,1,3.2,1s.8-.2,1.2-.5c.4-.3.5-1.4,0-3-1.2-3.4-4.8-7.2-9-7.3-.4,0-.8,0-1.3,0-4.7.3-9.7,3.4-10.8,6.5-.4,1.4,0,2.6,1.3,3.7.3.3.9.4,1.6.3,1.1,0,2.4-.5,3.8-.9,1.6-.5,3.3-1,4.9-1.1Z"/>
          <path d="M387.9,142.2c-1.1-1.7-3-2.7-5.1-2.8h0c-.1,0-.3,0-.4,0-2.8.2-5.1,1.6-6,3.8-.7,1.7-.5,3.6.7,5l.5.6.8-.2c.2,0,.5-.1.8-.2,1.1-.3,2.4-.7,3.3-.7,1.1,0,2.2.1,4.4,1.1l1.1.5.5-1.1c.8-2,.7-4.1-.3-5.8Z"/>
        </g>
        <path class="cls-9" d="M347.8,80.8c0,0,0-.1,0-.2,0-1.4,0-2.7.4-4-1.8.5-3.1,1.7-3.8,3.1,1.3,0,2.5.5,3.4,1.1Z"/>
        <g>
          <path class="cls-4" d="M324,93.2c1.4,4.2,5,4.2,10.8,4.3-2.6.8-5,3.3-3.4,7.4,1.2,3,5.8,5.4,10.6,3.5,2.2-.9,5.3-3.5,5.3-3.5,0,0,1.6,8.3,12,6.9,5.1-.7,7-6,7-6,0,0,3.7,5.1,8.4,5.4,5.8.3,10.6-2.7,10.7-7.1,0-1.6-1.3-4.2-2.5-5.1,4.1-1.8,7.2-4.3,6.1-7.5-.9-2.6-3.9-4.7-7.7-5.6,0-.2,0-.3,0-.5.1-4.6-4.7-8.8-10.8-9.2-8.2-.5-9.8,8.3-9.8,8.3,0,0-2.8-7.3-10.7-6.3s-6.3,3.4-5.4,6.4c-3-1.7-7.2-2.5-11.5-1.9-7,.9-10.8,5.6-9.2,10.6Z"/>
          <path class="cls-3" d="M357.2,113.7c-5.8,0-9.1-3-10.7-5.9-1.1.8-2.5,1.7-3.7,2.2-2.8,1.1-5.8,1.1-8.5,0-2.2-.9-3.8-2.6-4.6-4.5-1.1-2.8-.6-4.9,0-6.2,0,0,0-.1,0-.2-3.6-.4-6.4-1.5-7.6-5.4h0c-.8-2.6-.5-5.3.9-7.5,1.9-2.9,5.5-5,9.9-5.5,3.4-.4,6.9-.1,9.9.9.2-.6.5-1.3.8-1.9,1.3-1.9,3.5-3.2,6.2-3.5,4.9-.6,8.3,1.6,10.4,4,1.7-3.2,5-6.3,10.4-5.9,6.7.4,12.1,4.9,12.5,10.2,3.9,1.3,6.7,3.6,7.6,6.4.7,1.9.8,5.5-4.9,8.7.9,1.4,1.5,3.1,1.4,4.5,0,2.2-1,4.2-2.7,5.8-2.4,2.2-6,3.4-10,3.1-3.3-.2-6.2-2.3-7.9-4-1.3,1.9-3.6,4.1-7.1,4.6-.9.1-1.7.2-2.5.2ZM347.4,102.9c.2,0,.4,0,.6.1.6.2,1.1.8,1.2,1.4.1.7,1.6,6.5,9.9,5.4,3.9-.5,5.5-4.7,5.5-4.8.2-.7.8-1.1,1.5-1.2.7,0,1.4.2,1.8.8.9,1.2,3.9,4.4,7,4.6,2.9.2,5.6-.6,7.2-2.1,1-.9,1.5-1.9,1.5-3.1,0-1-1.1-3-1.8-3.5-.5-.4-.8-1.1-.8-1.7,0-.7.5-1.3,1.1-1.5,1.8-.8,5.9-2.8,5.1-5.1-.6-1.9-3.1-3.6-6.4-4.4-.9-.2-1.5-1.1-1.4-2,0-.1,0-.2,0-.4.1-3.6-4-7-9-7.3-6.4-.4-7.8,6.4-7.8,6.7-.2.8-.9,1.5-1.7,1.5-.8,0-1.6-.4-1.9-1.2,0-.2-2.4-5.9-8.7-5.1-1.6.2-2.8.9-3.5,1.8-.4.6-.5,1.4-.3,2.1.2.7,0,1.5-.6,2s-1.4.5-2.1.2c-2.7-1.5-6.6-2.2-10.3-1.7-3.3.4-5.9,1.8-7.2,3.8-.8,1.3-1,2.8-.5,4.3h0c.9,2.7,2.9,2.9,8.7,3h.4c.9,0,1.7.7,1.8,1.6.1.9-.4,1.8-1.3,2.1-1,.3-1.8.9-2.2,1.7-.4.8-.4,1.9.1,3.1.4.9,1.3,1.8,2.6,2.4,1,.4,3,1,5.6,0,1.6-.6,4-2.5,4.8-3.2.3-.3.8-.5,1.2-.5Z"/>
        </g>
      </g>
      <g id="Bord">
        <g id="Board">
          <g id="Board-2" data-name="Board">
            <path id="Board-3" data-name="Board" class="cls-1" d="M542.3,331.9c6.4-.3,11.9,5.3,12.2,12.7l4.3,80.4c.4,7.3-4.4,13.6-10.8,13.9l-508.4,27.4c-6.4.3-11.9-5.3-12.2-12.7l-4.3-80.4c-.4-7.3,4.4-13.6,10.8-13.9l508.4-27.4Z"/>
          </g>
          <g id="Screw_2">
            <path class="cls-2" d="M527.8,372.5c6.4,0,11.6,5.3,11.5,11.8,0,6.5-5.2,11.8-11.6,11.7-6.4,0-11.6-5.3-11.5-11.8,0-6.5,5.2-11.8,11.6-11.7Z"/>
            <path class="cls-1" d="M518.2,390.8l15.4-16.4c.3-.3,2,1.3,2,1.3l.6.6s1.5,1.6,1.3,1.8l-15.2,16.5c-.4,0-1.8-1.2-1.8-1.2l-1-.9s-1.4-1.5-1.2-1.7Z"/>
          </g>
          <g id="Screw_1">
            <path class="cls-2" d="M58.6,400.3c6.4,0,11.6,5.3,11.5,11.8,0,6.5-5.2,11.8-11.6,11.7-6.4,0-11.6-5.3-11.5-11.8,0-6.5,5.2-11.8,11.6-11.7Z"/>
            <path class="cls-1" d="M49.1,418.5l15.4-16.4c.3-.3,2,1.3,2,1.3l.6.6s1.5,1.6,1.3,1.8l-15.2,16.5c-.4,0-1.8-1.2-1.8-1.2l-1-.9s-1.4-1.5-1.2-1.7Z"/>
          </g>
        </g>
        <g id="KOECHING">
          <path class="cls-5" d="M133.2,426c-5.3-8.8-6.6-14.5-6.6-14.5,0-.8,1.1-1.4,1.6-1.8s.9-.8,1.3-1.3c.9-1,1.6-2.1,2.2-3.3,1.7-3.5,2.6-7.4,3.5-11.2.9-4.3,2-8.6,2.7-13,0-.5.2-1.1,0-1.6-.3-.9-1.6-.5-2.3-.4-1.9.2-3.7.4-5.6.6-1.9.2-3.8.3-5.7.4s-2.2.1-3.3.2-2,.2-2.3,1.3c-1.5,5.9-1.8,11.1-2.4,14-.5,1.9-1,3.9-1.9,5.6-.4.7-.8,1.2-1.2,1.9s-.5,1-.9,1.3-1,.3-1.5.3c-.8,0-1.4.2-2-.4-1.1-1.3-.9-3.6-1-5.2-.3-4.8-.4-9.6-.4-14.4,0-.8,0-1.7,0-2.5s0-1.6-.8-1.6c-1.4,0-2.9.4-4.4.6-1.8.2-3.6.5-5.5.7-2.1.2-4.2.2-6.3.3s-2.1-.2-2.5.3-.1,1.8-.1,2.4c0,2.1,0,4.3.1,6.4.2,8.8,1.7,17.6,1.8,26.5,0,4.7-.1,9.5,0,14.3,0,4.4-.4,8.9-.2,13.3s.2,1.7,1.2,1.9c2.4.4,5.1.1,7.5,0s6.5-.5,9.7-1,2.3-.3,2.3-1.7-.1-2.3-.2-3.4c-.2-3.5-.7-7-.7-10.5s0-3.4,0-5-.2-2.6,1.2-3.4c.4.4.5,1.1.6,1.6.3,1.1.6,2.2,1,3.2,1.3,3.6,3.3,6.9,4.8,10.4.7,1.7,1.4,3.4,2.3,5.1.3.6.7,1.5,1.3,1.9s1.4.3,2.1.4c3.2.2,6.3-.2,9.5-.2s3.3.1,4.9.2c.8,0,2.1.3,2.9,0,2.5-1.3.7-4.8-.1-6.6-1.8-4-4.1-7.8-6.4-11.6ZM189.3,384c-4.2-4.6-9.4-8.7-15.8-9.5-6.2-.7-12.5,1.6-17.6,5-11.4,7.8-15.1,22-13.2,35.2,1.7,12.2,9.6,25.1,22.4,27.7,5.8,1.2,12.3.2,17.4-2.8,5.3-3.1,9.2-8.3,11.6-13.9,2.7-6.4,3.1-13.2,2.6-20-.5-6.2-1.3-12.7-4.6-18.2s-1.7-2.5-2.7-3.6h-.2ZM176.3,417.1c-.8.8-1.7,1.7-2.7,2.2s-1.8.7-2.8.8c-2.1.3-3.8.2-5.3-1.4s-2.8-3-3.5-4.9c-.9-2.1-.9-4.3-.7-6.5.5-4,2.8-8.9,7.2-9.4,1.9-.2,4.1-.4,5.7.6s2,2,2.8,3.1,1.4,2.9,1.6,4.6c.4,2.8.4,5.8-.7,8.5l-1.6,2.4ZM244.9,417.7c-3.1.2-6.1,1.3-9.2,1.2s-3,.2-4.6.2-1.7-.1-2.6,0c-1.6,0-3.4-.2-3.9-2-.2-.6-.1-1.6,0-2.3s.2-1,.5-1.3.5-.3.5-.4c.3-1.4,3.1-1.1,4.2-1.2,1.6-.1,3.2-.2,4.8-.3s3.5.2,5.2.3c.9,0,1-.5,1-1.3s0-2.1.2-3.2c.3-2.1.3-4.2.5-6.3s.3-2.6.6-3.9.5-.9.5-.9c.4-.4-2.1-.9-3-.6-1.1.2-1.8.3-2.1.4-1.6.2-3.2.5-4.7.6s-2,.1-2.9.3-2,.3-2.9.3-1.3-.4-1.9-.9-.7-.4-.9-.8c-.4-.8-.3-1.8-.4-2.6s0-.5,0-.7c.4-1.2,1.9-1.3,2.9-1.4s2.7-.2,4-.2c2.6,0,5.3,0,7.9,0,.8,0,1.6,0,2.4,0s1.5.2,2,0,.3-1.5.3-2c-.1-2.6-.3-5.2-.6-7.7-.3-2.5-.8-5-1.5-7.4s-4-1.5-6-1.3c-5.4.7-10.9,1.3-16.4,1.6s-7,.4-10.5.3c-1.4,0-2.9-.2-4.3-.2s-1.2,0-1.4.5,0,.9,0,1.3c.4,3.8.5,7.7.9,11.6.4,3.9.6,7.8.6,11.7,0,2.5-.1,5.1,0,7.6.2,3,.3,6,.4,9,.1,4.2.2,8.4.3,12.6,0,3.1.1,6.2.4,9.3,0,.6.2,1.2.9,1.4s1.5,0,2.2,0c2,0,3.9,0,5.9-.1,3.6-.2,7.2-.5,10.7-.7,4.2-.3,8.3-.4,12.5-.3s2.5,0,3.7.1,2.8.6,3.4-.8c.4-1,.1-2.5.1-3.5,0-1.9,0-3.8.1-5.7.1-1.7.4-3.3.6-5s.4-2.3.4-3.5h0c0-1.1-.4-1.6-1-1.6h0ZM293.8,416.4c-1.4-2.2-3.1-4.2-4.7-6.2s-.9-1.1-1.3-1.6c-.9-.9-1.3-.1-1.9.6-1,1.1-1.8,1.9-3.1,2.7-1.1.6-2.1,1.4-3.4,1.7-1.3.3-2.6.3-3.9.4s-2,0-2.9-.3c-1.9-.8-3.5-3-4.4-4.7s-1.3-4.1-1.4-6.3c-.3-4.4,1.2-10.8,6.1-12.2,1.4-.4,3-.5,4.5-.6,1.3,0,2.3.4,3.5,1s2.8,1.4,4,2.5c.6.5,2,2.4,2.8,1.3.3-.4.5-1,.7-1.5.4-1,.8-2,1.2-3.1,1-2.5,1.9-5.1,3-7.6s1.1-2.6,1.7-3.9.7-1.3.6-2c-.2-1.2-1.6-2.4-2.5-3.2s-1.9-1.7-3-2.5c-4.4-3-9.7-4.2-15.1-3.8-5.4.4-10.5,3-14.4,6.6-4.2,3.9-7.1,9-9,14.4-2.1,5.9-2.8,12.2-2.1,18.5,1.2,11,6.5,21.9,16.7,27.3,4.8,2.5,10.6,3.5,15.9,2.2,5.2-1.3,9.5-4.8,12.8-9,.9-1.1,1.6-2.3,2.4-3.4.3-.6.8-1.4.7-2s-.3-.6-.4-.9c-.8-1.5-1.8-2.9-2.7-4.4h0ZM353.5,411.6c-.6-5.2-.9-10.3-1.2-15.5s0-10.6-.3-15.8c0-3,0-6,0-8.9s0-2.3,0-3.4.1-2.1-.1-3-1.2-.8-2-.7c-1.2,0-2.4.1-3.6.3-2.4.3-4.8.5-7.3.5-1.9,0-3.7.2-5.6.3s-1.4,0-1.9.2c-.9.4-.5,1.8-.5,2.6.4,4.9,1,9.7,1.7,14.5.2,1.4.6,3.1-1,3.7s-1.7.3-2.6.4c-2.2.2-4.5.5-6.7.4-.4,0-.6-.2-.9-.4-.8-.6-.9-1.4-.9-2.4s-.1-1.5-.1-2.3c-.1-2.6-.1-5.2-.2-7.8s0-4.8-.3-7.2-1.2-.9-2.3-.8c-1.5.2-2.9.4-4.4.5-3.3.4-6.7.8-10.1.8s-1.3,0-1.9,0-1.2,0-1.6.1c-.8.4-.4,1.9-.3,2.6.2,2.4.4,4.8.7,7.2.6,5.9,1.2,11.7,1.4,17.6.1,4.4.4,8.8.5,13.3,0,3.3.3,6.5.2,9.8,0,3.1-.4,6.2-.6,9.2s-.2,2.3-.1,3.4.2,1.9,1.3,2c1.4.1,3-.3,4.4-.5,2.2-.3,4.3-.6,6.5-.8,2.3-.2,4.7-.3,7-.6s1.4-.1,1.9-.5c.8-.6.5-1.9.4-2.7-.1-2.7-.3-5.3-.5-8-.2-2.6-.5-5.1-.6-7.7s-.7-4,.8-4.6,1.4-.5,2.2-.6c1.3-.2,2.6-.3,3.9-.3s1.8-.3,2.5,0,0,.4.4.5c1.2.3,1,2.5,1.1,3.4s0,2.6,0,3.9c0,3.8.2,7.7.4,11.5,0,.7,0,1.4.1,2.1s0,1.4.6,1.8,2.1.3,2.9.3c2.9,0,5.9-.4,8.8-.4s3.2,0,4.9,0c1.1,0,2.3,0,3.4-.2.6-.1,1-.2,1.1-.3.6-.5.2-2.4,0-3.1-.1-1.4-.3-2.8-.4-4.1-.4-3.4-.8-6.8-1.2-10.2ZM380.4,377.7c0-3.9.1-7.9.2-11.8,0-.6,0-1.2,0-1.9,0-.9-.2-1.4-1.2-1.4-.7,0-1.5-.2-2.2-.3s-1.5,0-2.2,0c-2.5.2-4.9.2-7.4.3-1.6,0-3.2.1-4.7.2-.8,0-1.7,0-2.5,0s-1,.6-1,1.4c.1,3.4,0,6.8.1,10.2.2,4.3.8,8.6,1.1,12.9.5,5.3.7,10.6.9,15.9.2,4.8.4,9.6.5,14.4,0,2.3,0,4.5-.2,6.8s-.3,1.8-.3,2.4c.1,1.8,2.7,1.4,4,1.4,2.1,0,4.2-.2,6.2-.4,1.9-.1,3.9-.2,5.8-.4s1.7-.1,2.5-.2,1.4,0,1.9-.4c.4-.3.3-1.2.2-1.7s0-1.3,0-2c0-1.6,0-3.2-.1-4.8-.1-3.9-.3-7.8-.7-11.6-.3-3.5-.6-6.9-.9-10.4-.2-2.4-.4-4.8-.3-7.2.1-3.9.3-7.8.2-11.6ZM438.9,357.9c-3.1.2-6.2.3-9.4.6-2,.2-4,.5-6,.7s-1.6,0-2.2.2-.6,1.3-.5,1.9c.4,6.4,1.1,12.9,2.1,19.2.2,1.1.2,2.3.2,3.5s.2,1.5-.2,1.8c-.6.5-1.6-.9-1.9-1.2-5.1-6.9-10.1-14-15-21-.6-.8-1.6-2.7-2.5-3s-1.5.2-2,.3c-1,.2-1.9.6-2.9.8-1.2.3-2.3.4-3.5.5-1.5,0-3,.1-4.5.1s-2.8-.2-3.2.7,0,1.1,0,1.6c0,.7,0,1.3,0,2,0,1.5,0,3,.1,4.4.2,4.1.8,8.2.9,12.4s-.1,6.8,0,10.2c0,2.9.3,5.8.4,8.7.2,4.2.3,8.3.4,12.5,0,3.5,0,7,.2,10.5s.3,1.7,1.3,1.7c.5,0,.9,0,1.4,0,4.1-.2,8.1-.5,12.2-.7.7,0,1.4,0,2.1-.1s.8,0,1.1-.1c1.1-.5.5-2.5.5-3.4-.1-1.5-.2-2.9-.4-4.4-.3-3.9-.8-7.8-1-11.7,0-1-.1-2,0-2.9s.2-.8.3-1.2c.1-.8-.3-2.1.2-2.7.3.2.5.3.6.5,5.3,6.9,10.8,13.6,15.6,20.9.5.7.9,1.4,1.5,2.1s.8,1.1,1.3,1.3,1,0,1.5,0c1.1,0,2.2,0,3.4,0,1.8,0,3.7,0,5.5-.1,1.4-.1,2.8-.3,4.2-.5,1,0,1.7-.2,1.6-1.4,0-1.6-.2-3.2-.3-4.8-.2-3.4-.4-6.7-.6-10.1-.3-5.5-.7-11.1-1-16.6-.3-4.3.1-8.5.1-12.8,0-5.9-.3-11.9-.7-17.8s.1-2.6-.9-2.5h0ZM501.2,416.8c-.6-4.5-.7-9-.7-13.5s-.2-6.8-.3-10.3c0-2.1,0-4.2-.2-6.3,0-.7,0-1.5-.3-2.2s-1.2-.5-1.9-.4c-1.5.2-3,.4-4.4.5-1.5,0-2.9.1-4.4.2-1.2,0-2.3.1-3.5.1s-2.4,0-3.6,0-2.3-.3-3.1.2c-.9.4-.3,2.8-.1,3.6.2,1.6.5,3.2.8,4.8s.7,2.6.9,4c-2.3,1.3-4.7,3.4-7.6,2.5-1.5-.5-2.8-1.6-3.8-2.8-.9-1-1.9-2-2.6-3-1.7-2.3-2-6-1.4-8.8s1-2.9,1.9-4.2,1.8-2.8,3.2-3.5,3.1-.6,4.8-.7,1.6-.1,2.3,0,1.7.7,2.5,1,1.5.5,2.1,1c.7.5,1.3,1.3,2.2,1.5s1.4-.4,2-1.1c2.8-2.9,4.7-6.5,6.7-10s1.7-2.5,1.7-3.7c0-.6-.6-1.3-.9-1.8-.6-.8-1.2-1.6-1.9-2.3-2.6-2.8-5.8-5.4-9.4-6.5-3.4-1.1-7.2-1.4-10.8-1.3-6.9.2-13.2,3.1-17.7,8.3-4.8,5.7-7.3,13-7.8,20.3-.5,7.8.6,16.1,4,23.2,1.5,3.2,3.6,6.1,6.1,8.6,2.7,2.7,5.7,5.1,9.1,6.8,6.3,3.1,13.9,2.7,19.9-1.1,1.5-.9,2.9-2,4.2-3.1.9.3,1.9.3,2.8.4,1.4.2,2.8.4,4.3.7,1.2.2,2.4.6,3.6.6s1.4-.8,1.2-1.8Z"/>
        </g>
      </g>
      <g id="Ezel_snuit">
        <path class="cls-4" d="M542,277.7c-19.5-4-28.4-4.5-41.1-3.7-.2,0-31.5,8.3-32.4,9.9-4,6.9.7,23.3-2,24.2-4.6,1.6-12.4,11.6-3.9,17.9,7.9,5.9,3.5,29.5,28.8,36.6,16,4.5,17.4,5.7,33.7,1.5,11.8-3,21.7-34.9,27.9-42.1,9.1-10.5,3.7-9.7-4.5-16.8s-4.1-27.1-6.5-27.5h0Z"/>
        <path class="cls-4" d="M547.8,304c4.7-1.4,12.6,5.8,9.7,11.3-1.8,3.3-3.5,7.5-6.3,9.7-2.4,1.9-2.8-.1-3-3.1-.2-2.5.2-7.6.6-10.2.2-1.3-.7-5.6-1-7.7h0Z"/>
        <path d="M512.8,369.4c-3,.2-6.2.1-9.4-.3-8.3-1-16.6-4.2-23.2-8.8-10.5-7.3-15.9-17.3-15.1-27.5-.2-.2-.5-.5-.7-.7-1.6-1.5-2.8-2.5-3.4-3.3-2-2.8-4.8-6.6-4.4-12.8.3-5.2,3.1-7.6,5.4-8.8.8-.4,1.6-.7,2.5-.9v-5.2c.1-1.4.2-6.3.3-10,.1-5.8.5-9.4.8-12.9.2-2.2.4-4.4.5-7.2.4-8,2.3-16,3.8-22l4.1,1c-1.5,5.9-3.3,13.6-3.7,21.2-.2,2.9-.4,5.2-.6,7.4,0,.6,0,1.1-.1,1.7,3.3-2.2,6.9-3.4,9.1-4.2.2,0,.4-.1.6-.2,5.7-2,18.4-3.8,24.9-4.3,17.3-1.3,20.4-.5,32.1,2.5.9.2,1.8.5,2.7.7-3.7-12.8-8.4-25.5-13.4-34.9l-.2-.4v-.5c-.3-21.8-16.7-37.1-22.1-42.1l2.9-3.1c3.9,3.7,9.7,9.4,14.5,16.9,5.6,8.9,8.6,18.2,8.9,27.7,9.3,17.7,17,44.8,20.1,64.5,1.5-.2,2.8-.2,3.9,0,2.2.4,3.8,1.8,4.6,3.8.1.4.3.7.4,1,.5,1.2,1,2.3,1.2,4.9.3,4-1.3,6.1-2.7,7.9-.3.4-.6.8-.8,1.1-.4.6-.9,1.1-1.3,1.5-.1.1-.2.3-.3.4-.3.4-.6.9-1,1.5-.7,1.2-1.6,2.8-3.2,3.9-1,7.6-2.9,14.3-5.9,20-3.9,7.3-9.3,12.8-16.2,16.4-4.7,2.4-10,3.9-15.5,4.3ZM469.2,334.8c0,8.1,4.7,16,13.4,22,13.2,9.2,31.2,11.1,43.8,4.5,9.2-4.8,20.3-16,20.5-42.9,0-8.8-2.5-23.7-6.7-39.1-1.9-.5-3.5-.9-5.1-1.3-11.4-2.9-14.1-3.6-30.7-2.4s-18.5,2.3-23.9,4.1c-.2,0-.4.1-.6.2-2.9,1-7.7,2.6-10.9,6,0,1.5-.1,3.2-.2,5.2,0,3.6-.2,8.6-.2,9.9v4.7c4.6,0,9.6,1.9,13.2,4.2l-2.3,3.5c-4.5-2.9-11.6-4.7-15.8-2.6-1.9,1-2.9,2.7-3.1,5.3-.3,4.8,1.8,7.6,3.6,10.1.4.5,1.9,1.9,2.8,2.7.4.4.8.7,1.1,1,1.4.2,2.5.3,3.2.5,1.1.2,2.5.5,2.8,2,.2.9-.3,1.8-1.2,2.2-.3.2-.9.4-3.5,0-.1,0-.2,0-.3,0ZM550.3,306.9c.6,4.5.9,8.4.8,11.6,0,.8,0,1.7,0,2.5.1-.2.2-.3.4-.5.1-.2.3-.3.5-.5.3-.3.6-.7.9-1,.3-.5.6-.9,1-1.3,1.2-1.6,2-2.7,1.9-5.1-.1-1.9-.4-2.5-.8-3.5-.1-.3-.3-.7-.5-1.1-.2-.5-.6-1.7-4-1.2Z"/>
        <path class="cls-3" d="M483.2,324.7c.9-2.8-4.1-6.2-6.2-6.8-1.2-.3-5.5-1.2-6.7-.6-1.1.5-2.1,1-1.4,2.5.7,1.5,1.6,3.1,2.6,4.5.8,1.1,5.5,1.6,7.1,1.6,2,0,3.1-.7,4.7-1.2h0Z"/>
      </g>
      <g id="Bel">
        <path class="cls-4" d="M355.7,317.9c0,.6-.1,1.1-.2,1.5,1.8-1.5,4.1-2.5,6.4-2.8s.3,0,.5,0c.8-1,1.8-1.9,2.9-2.6-.4-.9-.5-2.8-2.3-5.6-3.1-4.7-7.7-13.6-15.3-7.7-.8.6-2.8,8.1-.2,7.7,4.1-.8,8.8-3.2,8.1,9.5Z"/>
        <path d="M357.9,319.6l-3.7.3c-.2-2.6-.8-5.6-1.2-7.2,0-.4-.1-.7-.2-.9-.3-1.8-.7-2.7-.9-3.2h-1.7c0-3.1,1.4-3.7,2.2-3.8,1.2-.1,2.1.6,2.8,2.2.4,1,.8,2.4,1.2,4.1,0,.2,0,.5.2.8.4,1.7,1,4.8,1.2,7.7ZM366.4,315.5l-3.7.4c-.2-2.4-1.7-14.4-7.8-13.9-3.1.2-4.9.8-5.8,1.7-.8,1-1.1,2.7-1,5.9h-3.7c-.3-8,2.2-10.8,10.2-11.4,6.3-.5,10.7,6,11.7,17.3Z"/>
        <polygon class="cls-4" points="394.9 339.9 375.2 315.5 351.7 314.6 347.8 327.2 348.6 357.5 389.5 358.6 394.9 339.9"/>
        <polygon class="cls-3" points="394.9 339.9 389.5 358.6 348.6 357.5 357.8 334.3 394.9 339.9"/>
        <path d="M346.7,359.5l-.2-1.5c-.5-4.4-.5-10.4-.5-16.3,0-5.1,0-9.9-.4-13.2v-.2c0-1.2,1.5-5.3,2.4-7.6,2.5-6.4,3.2-7,3.6-7.3l.3-.3h.4c7.3-1.5,17.4-.4,24.4,1.1h.6c0,.1.4.6.4.6,2.3,2.8,5,6.4,8,10.3,3.4,4.5,7,9.2,10.3,13.3l.7.8-.4,1c-.8,2-1.5,5-2.3,8.2-.8,3.5-1.8,7.4-3,10.8l-.5,1.4-1.5-.2c-3.9-.6-12.4-.6-20.6-.5-8.3,0-16.2,0-20.4-.5l-1.5-.2ZM349.4,328.4c.3,3.5.3,8.3.4,13.4,0,5.1,0,10.3.4,14.4,4.3.4,11.5.3,18.4.3,7.8,0,15.2,0,19.6.4.9-2.8,1.7-6,2.4-9,.7-2.8,1.3-5.5,2.1-7.7-3.2-4-6.5-8.4-9.8-12.6-2.7-3.6-5.3-7-7.5-9.7-6.1-1.3-15.1-2.3-21.6-1.2-1.2,2.2-4.2,10.2-4.5,11.8Z"/>
        <g>
          <path class="cls-4" d="M366.7,337.5c.3,1.5-1.7,2.3-1.8,4.1-.9,10.7,3.3,9.2,13,6.5,1.5-1.2-2.6-9.7-2.6-9.7,0,0-5-1-8.6-.9Z"/>
          <path class="cls-4" d="M379.2,336.4c-1.5.5-2.8,1.3-4.3,1.5.2.7.2,1.1.4,1.9.8,5.1.4,7.6,0,8.3-2.2,2.3-6.4,1.6-6.8,1.5-3.3-.7-1.1-7.9-1.7-11.9,0,0,0-.2,0-.2-2-.3-3.9-.9-5.6-1.7,0,1.2,0,2.3.2,3.2,0,.1-3,12.8,4.6,14.4,2.2.4,9.3.7,12.1-2.5,1.4-1.6,4.1-3.5,2.6-12.5-.1-.9-.3-1.7-.5-2.5-.3.1-.7.2-1,.3Z"/>
        </g>
        <polygon points="350.2 358.5 346.7 357.1 356.6 332.5 393.8 338.3 393.2 341.9 378.3 339.6 373.2 338.8 358.9 336.6 350.2 358.5"/>
      </g>
    </g>
  </g>
</svg>