<?xml version="1.0" encoding="utf-8"?>
<!-- Generator: Adobe Illustrator 26.3.1, SVG Export Plug-In . SVG Version: 6.00 Build 0)  -->
<svg version="1.1" id="Laag_1" xmlns="http://www.w3.org/2000/svg" xmlns:xlink="http://www.w3.org/1999/xlink" x="0px" y="0px"
	 viewBox="0 0 118.3 98.4" style="enable-background:new 0 0 118.3 98.4;" xml:space="preserve">
<style type="text/css">
	.st0{opacity:0.15;}
	.st1{fill:#9A8566;}
</style>
<g class="st0">
	<g>
		<path class="st1" d="M39.4,91.4c-0.7-2.8,1-4.3,3.6-2.9c1.4,1.1,0.5,2.3-1.2,2.2l-0.1,0.1c0,0,0,0,0,0c0,0,0,0,0,0
			C42,92,39.9,93.1,39.4,91.4z M41.7,90.7C41.7,90.7,41.7,90.7,41.7,90.7C41.7,90.7,41.7,90.7,41.7,90.7L41.7,90.7
			C41.7,90.7,41.7,90.7,41.7,90.7C41.7,90.7,41.7,90.7,41.7,90.7L41.7,90.7z"/>
		<path class="st1" d="M41.8,90.7C41.8,90.7,41.8,90.7,41.8,90.7C41.8,90.7,41.8,90.7,41.8,90.7z"/>
		<path class="st1" d="M39.3,88.3c0,0.1,0,0.2-0.1,0.3c-1.2,2.1-3.8-1.7-1.5-1.7C38.2,87.1,39.2,87.5,39.3,88.3z"/>
		<path class="st1" d="M40.9,86.9c0,1-1.3,1.3-1.8,0.3l0,0C37.8,85,40.5,84.3,40.9,86.9z"/>
		<path class="st1" d="M37.1,90.5C36.8,89.5,38,89,38.7,90c0.4,0.6-0.3,1.3-1.1,0.9C37.4,90.8,37.2,90.8,37.1,90.5z"/>
		<path class="st1" d="M42.2,87.7c-0.4,0.1-0.8-0.4-0.8-0.9C41.4,84.6,44.1,86.7,42.2,87.7z"/>
	</g>
	<g>
		<path class="st1" d="M35.5,68.9c-0.7-2.8,1-4.3,3.6-2.9c1.4,1.1,0.5,2.3-1.2,2.2l-0.1,0.1c0,0,0,0,0,0c0,0,0,0,0,0
			C38.1,69.6,36,70.6,35.5,68.9z M37.9,68.3C37.9,68.3,37.9,68.3,37.9,68.3C37.9,68.3,37.9,68.3,37.9,68.3L37.9,68.3
			C37.9,68.3,37.9,68.3,37.9,68.3C37.8,68.3,37.9,68.3,37.9,68.3L37.9,68.3z"/>
		<path class="st1" d="M37.9,68.3C37.9,68.3,37.9,68.3,37.9,68.3C37.9,68.3,37.9,68.3,37.9,68.3z"/>
		<path class="st1" d="M35.4,65.8c0,0.1,0,0.2-0.1,0.3c-1.2,2.1-3.8-1.7-1.5-1.7C34.3,64.6,35.3,65.1,35.4,65.8z"/>
		<path class="st1" d="M37.1,64.4c0,1-1.3,1.3-1.8,0.3l0,0C33.9,62.5,36.6,61.8,37.1,64.4z"/>
		<path class="st1" d="M33.2,68c-0.3-0.9,0.9-1.4,1.7-0.5c0.4,0.6-0.3,1.3-1.1,0.9C33.5,68.4,33.3,68.3,33.2,68z"/>
		<path class="st1" d="M38.3,65.2c-0.4,0.1-0.8-0.4-0.8-0.9C37.5,62.2,40.2,64.2,38.3,65.2z"/>
	</g>
	<g>
		<path class="st1" d="M61.3,90.2c-1.7-2.3-0.7-4.3,2.2-4.1c1.7,0.5,1.3,2-0.2,2.4l0,0.1c0,0,0,0,0,0c0,0,0,0,0,0
			C63.9,89.8,62.4,91.6,61.3,90.2z M63.2,88.7C63.2,88.7,63.2,88.7,63.2,88.7C63.2,88.7,63.2,88.7,63.2,88.7L63.2,88.7
			C63.2,88.7,63.2,88.7,63.2,88.7C63.2,88.7,63.2,88.7,63.2,88.7L63.2,88.7z"/>
		<path class="st1" d="M63.2,88.7C63.2,88.7,63.2,88.7,63.2,88.7C63.2,88.7,63.2,88.7,63.2,88.7z"/>
		<path class="st1" d="M60,87.4c0,0.1,0,0.2,0,0.3c-0.3,2.4-4.2-0.1-2-1C58.5,86.7,59.6,86.7,60,87.4z"/>
		<path class="st1" d="M61,85.4c0.4,0.9-0.7,1.6-1.6,1l0,0C57.4,84.9,59.5,83.2,61,85.4z"/>
		<path class="st1" d="M58.8,90.2c-0.6-0.7,0.3-1.7,1.4-1.1c0.6,0.4,0.2,1.3-0.7,1.3C59.2,90.5,59,90.4,58.8,90.2z"/>
		<path class="st1" d="M62.4,85.7c-0.3,0.2-0.9-0.1-1.1-0.5C60.5,83.2,63.8,84,62.4,85.7z"/>
	</g>
	<g>
		<path class="st1" d="M51.9,76.8c-1.7-2.3-0.7-4.3,2.2-4.1c1.7,0.5,1.3,2-0.2,2.4l0,0.1c0,0,0,0,0,0c0,0,0,0,0,0
			C54.5,76.4,53,78.1,51.9,76.8z M53.8,75.2C53.8,75.2,53.8,75.2,53.8,75.2C53.8,75.2,53.8,75.2,53.8,75.2L53.8,75.2
			C53.8,75.2,53.8,75.2,53.8,75.2C53.8,75.2,53.8,75.2,53.8,75.2L53.8,75.2z"/>
		<path class="st1" d="M53.8,75.2C53.8,75.2,53.8,75.2,53.8,75.2C53.8,75.2,53.8,75.2,53.8,75.2z"/>
		<path class="st1" d="M50.6,73.9c0,0.1,0,0.2,0,0.3c-0.3,2.4-4.2-0.1-2-1C49.1,73.2,50.2,73.2,50.6,73.9z"/>
		<path class="st1" d="M51.6,72c0.4,0.9-0.7,1.6-1.6,1l0,0C48,71.5,50.1,69.8,51.6,72z"/>
		<path class="st1" d="M49.4,76.8c-0.6-0.7,0.3-1.7,1.4-1.1c0.6,0.4,0.2,1.3-0.7,1.3C49.8,77,49.6,77,49.4,76.8z"/>
		<path class="st1" d="M53,72.3c-0.3,0.2-0.9-0.1-1.1-0.5C51.1,69.7,54.4,70.6,53,72.3z"/>
	</g>
	<g>
		<path class="st1" d="M81.9,91.4c-2.6-1.1-2.8-3.4-0.1-4.6c1.8-0.4,2.1,1.1,1,2.2l0,0.1c0,0,0,0,0,0c0,0,0,0,0,0
			C83.9,89.7,83.5,92,81.9,91.4z M82.8,89.1C82.8,89.1,82.8,89.1,82.8,89.1C82.8,89.1,82.8,89.1,82.8,89.1L82.8,89.1
			C82.8,89.1,82.8,89.1,82.8,89.1C82.8,89.1,82.8,89.1,82.8,89.1L82.8,89.1z"/>
		<path class="st1" d="M82.8,89.1C82.8,89.1,82.8,89.1,82.8,89.1C82.8,89.1,82.8,89.1,82.8,89.1z"/>
		<path class="st1" d="M79.3,89.6c0.1,0.1,0.1,0.2,0.2,0.3c0.9,2.3-3.7,1.9-2.2,0.2C77.7,89.6,78.7,89.1,79.3,89.6z"/>
		<path class="st1" d="M79.2,87.4c0.8,0.6,0.2,1.8-0.9,1.7l0,0C75.8,88.7,76.9,86.1,79.2,87.4z"/>
		<path class="st1" d="M79.7,92.6c-0.9-0.3-0.6-1.6,0.7-1.6c0.7,0.1,0.9,1,0,1.5C80.2,92.6,80,92.7,79.7,92.6z"/>
		<path class="st1" d="M80.6,86.9c-0.2,0.4-0.8,0.4-1.2,0.1C77.7,85.6,81,84.7,80.6,86.9z"/>
	</g>
	<g>
		<path class="st1" d="M71.4,72.1c-2.6-1.1-2.8-3.4-0.1-4.6c1.8-0.4,2.1,1.1,1,2.2l0,0.1c0,0,0,0,0,0c0,0,0,0,0,0
			C73.4,70.5,73,72.8,71.4,72.1z M72.3,69.9C72.3,69.9,72.3,69.9,72.3,69.9C72.3,69.9,72.3,69.9,72.3,69.9L72.3,69.9
			C72.3,69.9,72.3,69.9,72.3,69.9C72.3,69.9,72.3,69.9,72.3,69.9L72.3,69.9z"/>
		<path class="st1" d="M72.3,69.8C72.3,69.8,72.3,69.8,72.3,69.8C72.3,69.8,72.3,69.8,72.3,69.8z"/>
		<path class="st1" d="M68.8,70.3c0.1,0.1,0.1,0.2,0.2,0.3c0.9,2.3-3.7,1.9-2.2,0.2C67.2,70.4,68.2,69.9,68.8,70.3z"/>
		<path class="st1" d="M68.7,68.1c0.8,0.6,0.2,1.8-0.9,1.7l0,0C65.3,69.5,66.4,66.9,68.7,68.1z"/>
		<path class="st1" d="M69.2,73.4c-0.9-0.3-0.6-1.6,0.7-1.6c0.7,0.1,0.9,1,0,1.5C69.7,73.4,69.5,73.4,69.2,73.4z"/>
		<path class="st1" d="M70.1,67.6c-0.2,0.4-0.8,0.4-1.2,0.1C67.2,66.4,70.5,65.5,70.1,67.6z"/>
	</g>
	<g>
		<path class="st1" d="M97.9,97.5c-1-2.7,0.5-4.4,3.3-3.3c1.5,1,0.7,2.3-0.9,2.3l-0.1,0.1c0,0,0,0,0,0c0,0,0,0,0,0
			C100.5,97.8,98.6,99.1,97.9,97.5z M100.2,96.5C100.2,96.5,100.2,96.5,100.2,96.5C100.2,96.5,100.2,96.5,100.2,96.5L100.2,96.5
			C100.2,96.5,100.2,96.5,100.2,96.5C100.2,96.6,100.2,96.5,100.2,96.5L100.2,96.5z"/>
		<path class="st1" d="M100.2,96.6C100.2,96.6,100.2,96.6,100.2,96.6C100.2,96.6,100.2,96.6,100.2,96.6z"/>
		<path class="st1" d="M97.5,94.4c0,0.1,0,0.2-0.1,0.3c-1,2.2-4-1.3-1.6-1.5C96.3,93.3,97.4,93.6,97.5,94.4z"/>
		<path class="st1" d="M99,92.8c0.1,1-1.1,1.4-1.8,0.5l0,0C95.7,91.3,98.2,90.2,99,92.8z"/>
		<path class="st1" d="M95.5,96.8c-0.4-0.9,0.7-1.5,1.6-0.6c0.4,0.6-0.2,1.3-1,1C95.9,97.1,95.7,97,95.5,96.8z"/>
		<path class="st1" d="M100.3,93.5c-0.4,0.1-0.9-0.3-0.9-0.8C99.2,90.5,102.1,92.3,100.3,93.5z"/>
	</g>
	<g>
		<path class="st1" d="M89.1,75c-1.5-2.4-0.3-4.4,2.6-3.8c1.7,0.7,1.1,2.1-0.5,2.4l0,0.1c0,0,0,0,0,0c0,0,0,0,0,0
			C91.8,74.9,90.1,76.4,89.1,75z M91.2,73.7C91.2,73.7,91.2,73.7,91.2,73.7C91.2,73.7,91.2,73.7,91.2,73.7L91.2,73.7
			C91.2,73.7,91.2,73.7,91.2,73.7C91.2,73.7,91.2,73.7,91.2,73.7L91.2,73.7z"/>
		<path class="st1" d="M91.2,73.7C91.2,73.7,91.2,73.7,91.2,73.7C91.2,73.7,91.2,73.7,91.2,73.7z"/>
		<path class="st1" d="M88.1,72c0,0.1,0,0.2,0,0.3c-0.6,2.4-4.1-0.6-1.9-1.2C86.8,71.2,87.9,71.3,88.1,72z"/>
		<path class="st1" d="M89.3,70.2c0.3,0.9-0.9,1.6-1.7,0.9l0,0C85.8,69.3,88.1,67.8,89.3,70.2z"/>
		<path class="st1" d="M86.6,74.7c-0.6-0.8,0.4-1.6,1.5-0.9c0.5,0.5,0.1,1.3-0.8,1.2C87,75,86.9,75,86.6,74.7z"/>
		<path class="st1" d="M90.7,70.6c-0.4,0.2-0.9-0.2-1.1-0.6C89.1,67.9,92.3,69.1,90.7,70.6z"/>
	</g>
	<g>
		<path class="st1" d="M114.6,97.8c-1.5-2.4-0.3-4.4,2.6-3.8c1.7,0.7,1.1,2.1-0.5,2.4l0,0.1c0,0,0,0,0,0c0,0,0,0,0,0
			C117.2,97.7,115.5,99.3,114.6,97.8z M116.7,96.5C116.7,96.5,116.7,96.5,116.7,96.5C116.7,96.5,116.7,96.5,116.7,96.5L116.7,96.5
			C116.7,96.5,116.7,96.5,116.7,96.5C116.7,96.5,116.7,96.5,116.7,96.5L116.7,96.5z"/>
		<path class="st1" d="M116.7,96.5C116.7,96.5,116.7,96.5,116.7,96.5C116.7,96.5,116.7,96.5,116.7,96.5z"/>
		<path class="st1" d="M113.6,94.9c0,0.1,0,0.2,0,0.3c-0.6,2.4-4.1-0.6-1.9-1.2C112.3,94,113.4,94.1,113.6,94.9z"/>
		<path class="st1" d="M114.8,93c0.3,0.9-0.9,1.6-1.7,0.8l0,0C111.3,92.1,113.6,90.7,114.8,93z"/>
		<path class="st1" d="M112.1,97.5c-0.5-0.8,0.5-1.6,1.5-0.9c0.5,0.5,0.1,1.3-0.8,1.2C112.5,97.8,112.3,97.8,112.1,97.5z"/>
		<path class="st1" d="M116.2,93.5c-0.4,0.2-0.9-0.2-1.1-0.6C114.6,90.7,117.8,92,116.2,93.5z"/>
	</g>
	<g>
		<path class="st1" d="M108.6,81.7c-1.5-2.4-0.3-4.4,2.6-3.8c1.7,0.7,1.1,2.1-0.5,2.4l0,0.1c0,0,0,0,0,0c0,0,0,0,0,0
			C111.2,81.5,109.5,83.1,108.6,81.7z M110.6,80.3C110.6,80.3,110.6,80.3,110.6,80.3C110.6,80.3,110.6,80.3,110.6,80.3L110.6,80.3
			C110.6,80.3,110.6,80.3,110.6,80.3C110.6,80.3,110.6,80.3,110.6,80.3L110.6,80.3z"/>
		<path class="st1" d="M110.7,80.3C110.7,80.3,110.7,80.3,110.7,80.3C110.7,80.3,110.7,80.3,110.7,80.3z"/>
		<path class="st1" d="M107.6,78.7c0,0.1,0,0.2,0,0.3c-0.6,2.4-4.1-0.6-1.9-1.2C106.2,77.8,107.3,78,107.6,78.7z"/>
		<path class="st1" d="M108.8,76.9c0.3,0.9-0.9,1.6-1.7,0.8l0,0C105.2,76,107.6,74.5,108.8,76.9z"/>
		<path class="st1" d="M106.1,81.4c-0.5-0.8,0.5-1.6,1.5-0.9c0.5,0.5,0.1,1.3-0.8,1.2C106.5,81.7,106.3,81.6,106.1,81.4z"/>
		<path class="st1" d="M110.2,77.3c-0.4,0.2-0.9-0.2-1.1-0.6C108.6,74.6,111.8,75.8,110.2,77.3z"/>
	</g>
	<g>
		<path class="st1" d="M22.7,74.9c-0.5-2.8,1.4-4.2,3.9-2.6c1.3,1.3,0.2,2.4-1.4,2l-0.1,0.1c0,0,0,0,0,0c0,0,0,0,0,0
			C25.1,75.8,23,76.6,22.7,74.9z M25.1,74.4C25.1,74.4,25.1,74.4,25.1,74.4C25.1,74.4,25.1,74.4,25.1,74.4L25.1,74.4
			C25.1,74.4,25.1,74.4,25.1,74.4C25,74.4,25.1,74.4,25.1,74.4L25.1,74.4z"/>
		<path class="st1" d="M25.1,74.5C25.1,74.5,25.1,74.5,25.1,74.5C25.1,74.4,25.1,74.5,25.1,74.5z"/>
		<path class="st1" d="M22.8,71.8c0,0.1-0.1,0.2-0.1,0.3c-1.4,2-3.6-2.1-1.3-1.8C21.9,70.4,22.9,71,22.8,71.8z"/>
		<path class="st1" d="M24.6,70.5c-0.1,1-1.4,1.1-1.9,0.2l0,0C21.7,68.4,24.4,67.9,24.6,70.5z"/>
		<path class="st1" d="M20.4,73.7c-0.2-0.9,1-1.3,1.7-0.3c0.3,0.6-0.4,1.3-1.2,0.8C20.7,74.1,20.6,74,20.4,73.7z"/>
		<path class="st1" d="M25.8,71.4c-0.4,0-0.8-0.5-0.7-1C25.2,68.3,27.8,70.6,25.8,71.4z"/>
	</g>
	<g>
		<path class="st1" d="M9.7,41.9c-0.1-2.8,1.9-4,4.1-2.1c1.1,1.4,0,2.4-1.6,1.9l-0.1,0c0,0,0,0,0,0c0,0,0,0,0,0
			C12,43.1,9.8,43.6,9.7,41.9z M12.1,41.7C12.1,41.7,12.1,41.7,12.1,41.7C12.1,41.7,12.1,41.7,12.1,41.7L12.1,41.7
			C12.1,41.7,12.1,41.7,12.1,41.7C12.1,41.7,12.1,41.7,12.1,41.7L12.1,41.7z"/>
		<path class="st1" d="M12.1,41.7C12.1,41.7,12.1,41.7,12.1,41.7C12.2,41.7,12.2,41.7,12.1,41.7z"/>
		<path class="st1" d="M10.2,38.8c0,0.1-0.1,0.2-0.2,0.3c-1.7,1.8-3.3-2.5-1.1-1.9C9.5,37.4,10.4,38,10.2,38.8z"/>
		<path class="st1" d="M12.2,37.8c-0.2,1-1.5,0.9-1.9-0.1l0,0C9.5,35.3,12.3,35.1,12.2,37.8z"/>
		<path class="st1" d="M7.6,40.4c-0.1-1,1.2-1.2,1.7-0.1C9.6,41,8.8,41.6,8,41C7.8,40.9,7.7,40.8,7.6,40.4z"/>
		<path class="st1" d="M13.2,38.8c-0.4,0-0.7-0.6-0.6-1.1C13.1,35.7,15.3,38.3,13.2,38.8z"/>
	</g>
	<g>
		<path class="st1" d="M19.4,55.8c-0.5-2.8,1.4-4.2,3.9-2.6c1.3,1.3,0.2,2.4-1.4,2l-0.1,0.1c0,0,0,0,0,0c0,0,0,0,0,0
			C21.9,56.7,19.7,57.5,19.4,55.8z M21.8,55.4C21.8,55.4,21.8,55.4,21.8,55.4C21.8,55.4,21.8,55.4,21.8,55.4L21.8,55.4
			C21.8,55.4,21.8,55.4,21.8,55.4C21.8,55.4,21.8,55.4,21.8,55.4L21.8,55.4z"/>
		<path class="st1" d="M21.8,55.4C21.8,55.4,21.8,55.4,21.8,55.4C21.8,55.4,21.8,55.4,21.8,55.4z"/>
		<path class="st1" d="M19.6,52.7c0,0.1-0.1,0.2-0.1,0.3c-1.4,2-3.6-2.1-1.3-1.8C18.6,51.4,19.6,51.9,19.6,52.7z"/>
		<path class="st1" d="M21.4,51.4c-0.1,1-1.4,1.1-1.9,0.2l0,0C18.4,49.3,21.1,48.8,21.4,51.4z"/>
		<path class="st1" d="M17.2,54.7c-0.2-0.9,1-1.3,1.7-0.3c0.3,0.6-0.4,1.3-1.2,0.8C17.5,55.1,17.3,55,17.2,54.7z"/>
		<path class="st1" d="M22.5,52.4c-0.4,0-0.8-0.5-0.7-1C22,49.3,24.6,51.6,22.5,52.4z"/>
	</g>
	<g>
		<path class="st1" d="M11.6,24.2c-0.1-2.8,1.9-4,4.1-2.1c1.1,1.4,0,2.4-1.6,1.9l-0.1,0c0,0,0,0,0,0c0,0,0,0,0,0
			C14,25.4,11.7,25.9,11.6,24.2z M14.1,24C14.1,24,14.1,24,14.1,24C14.1,24,14.1,24,14.1,24L14.1,24C14.1,24,14.1,24,14.1,24
			C14,24,14.1,24,14.1,24L14.1,24z"/>
		<path class="st1" d="M14.1,24.1C14.1,24.1,14.1,24.1,14.1,24.1C14.1,24.1,14.1,24.1,14.1,24.1z"/>
		<path class="st1" d="M12.2,21.1c0,0.1-0.1,0.2-0.2,0.3c-1.7,1.8-3.3-2.5-1.1-1.9C11.4,19.7,12.3,20.4,12.2,21.1z"/>
		<path class="st1" d="M14.1,20.1c-0.2,1-1.5,0.9-1.9-0.1l0,0C11.4,17.6,14.2,17.4,14.1,20.1z"/>
		<path class="st1" d="M9.6,22.8c-0.1-1,1.2-1.2,1.7-0.1c0.2,0.7-0.6,1.2-1.3,0.7C9.8,23.2,9.6,23.1,9.6,22.8z"/>
		<path class="st1" d="M15.1,21.2c-0.4,0-0.7-0.6-0.6-1.1C15,18,17.3,20.6,15.1,21.2z"/>
	</g>
	<g>
		<path class="st1" d="M1.1,15.2c1.3-2.5,3.6-2.5,4.6,0.3c0.3,1.8-1.2,2.1-2.3,0.8l-0.1,0c0,0,0,0,0,0c0,0,0,0,0,0
			C2.6,17.3,0.4,16.7,1.1,15.2z M3.3,16.2C3.3,16.2,3.3,16.2,3.3,16.2C3.3,16.2,3.3,16.2,3.3,16.2L3.3,16.2
			C3.3,16.2,3.3,16.2,3.3,16.2C3.3,16.2,3.3,16.2,3.3,16.2L3.3,16.2z"/>
		<path class="st1" d="M3.3,16.3C3.3,16.3,3.3,16.3,3.3,16.3C3.3,16.3,3.3,16.3,3.3,16.3z"/>
		<path class="st1" d="M3.1,12.8c-0.1,0.1-0.2,0.1-0.3,0.2c-2.4,0.7-1.7-3.8,0-2.2C3.2,11.1,3.6,12.2,3.1,12.8z"/>
		<path class="st1" d="M5.3,12.8c-0.6,0.8-1.8,0.1-1.6-1l0,0C4.2,9.3,6.7,10.6,5.3,12.8z"/>
		<path class="st1" d="M0,12.9c0.4-0.9,1.6-0.5,1.5,0.8c-0.1,0.7-1.1,0.8-1.5-0.1C0,13.4-0.1,13.2,0,12.9z"/>
		<path class="st1" d="M5.7,14.3c-0.4-0.2-0.3-0.9,0-1.2C7.1,11.4,7.8,14.8,5.7,14.3z"/>
	</g>
	<g>
		<path class="st1" d="M18,4.3c2-2.1,4.2-1.4,4.3,1.6c-0.3,1.8-1.8,1.6-2.5,0.1l-0.1,0c0,0,0,0,0,0c0,0,0,0,0,0
			C18.8,6.8,16.9,5.6,18,4.3z M19.8,6C19.8,6,19.8,6,19.8,6C19.8,6,19.8,6,19.8,6L19.8,6C19.8,6,19.8,6,19.8,6C19.8,6,19.8,6,19.8,6
			L19.8,6z"/>
		<path class="st1" d="M19.8,6C19.8,6,19.8,6,19.8,6C19.8,6,19.8,6,19.8,6z"/>
		<path class="st1" d="M20.6,2.6c-0.1,0.1-0.2,0.1-0.3,0.1c-2.5,0-0.5-4.1,0.7-2.1C21.2,1.1,21.3,2.2,20.6,2.6z"/>
		<path class="st1" d="M22.7,3.3c-0.8,0.5-1.7-0.4-1.2-1.4l0,0C22.7-0.3,24.7,1.5,22.7,3.3z"/>
		<path class="st1" d="M17.7,1.8c0.6-0.7,1.7,0,1.2,1.2c-0.3,0.6-1.3,0.4-1.4-0.5C17.5,2.3,17.5,2.1,17.7,1.8z"/>
		<path class="st1" d="M22.7,4.8c-0.3-0.3-0.1-0.9,0.4-1.2C24.9,2.5,24.5,5.9,22.7,4.8z"/>
	</g>
	<path class="st1" d="M34.1,74.9c-0.1,0.4-0.2,0.8-0.3,1.1c-0.2,0.7-0.1,0.9,0.6,1.2c0.2,0.1,0.5,0.1,0.7,0.2
		c0.6,0.3,0.9,0.8,0.8,1.4c-0.1,0.7-0.5,1-1.3,1c-0.8,0-0.9,0.1-0.9,0.9c0,0.7-0.3,1.1-0.8,1.2c-0.7,0.2-1.3,0-1.7-0.6
		c-0.7-1.1-0.7-1.1-1.9-0.5c-0.4,0.2-0.7,0.1-1-0.2c-0.4-0.3-0.5-0.6-0.4-1.1c0.1-0.4,0.3-0.6,0.5-1c0.4-0.8,0.3-1.1-0.5-1.4
		c-0.4-0.2-0.5-0.5-0.4-0.8c0.2-0.7,0.9-1.2,1.6-1.3c0.1,0,0.3,0,0.4,0c0.7,0,1.2-0.2,1.3-0.9c0.4-1.3,2.3-1.2,3-0.3
		C34,74.3,34.1,74.6,34.1,74.9z"/>
	<path class="st1" d="M24.7,78.5c0.6,0,1.1,0.6,1.1,1.2c0,0.6-0.6,1.1-1.2,1.1c-0.6,0-1.1-0.6-1.1-1.2C23.5,79,24.1,78.5,24.7,78.5z
		"/>
	<path class="st1" d="M112.8,80.8c0.6,0,1.1,0.6,1.1,1.2c0,0.6-0.6,1.1-1.2,1.1c-0.6,0-1.1-0.6-1.1-1.2
		C111.6,81.3,112.2,80.8,112.8,80.8z"/>
	<path class="st1" d="M31.1,69.5c0,0.4-0.4,0.7-0.8,0.7c-0.4,0-0.8-0.4-0.7-0.8c0-0.4,0.4-0.7,0.8-0.7
		C30.8,68.8,31.1,69.1,31.1,69.5z"/>
	<path class="st1" d="M87.5,67.5c-0.2,0.1-0.5,0.2-0.6,0.5c-0.2,0.3-0.3,0.6-0.5,0.9c-0.4,0.6-0.9,0.8-1.6,0.6
		c-0.6-0.2-1-0.6-1.1-1.3c-0.1-1.1,0.3-1.9,1.2-2.6c0.3-0.2,0.7-0.4,1-0.7c0.6-0.5,0.6-1,0.2-1.6c-0.3-0.4-0.6-0.7-0.9-1.1
		c-0.3-0.3-0.4-0.7-0.2-1.1c0.4-0.7,0.9-0.8,1.5-0.3c0.6,0.5,0.9,1.1,1.3,1.7c0.2,0.2,0.3,0.5,0.4,0.7c0.2,0.4,0.5,0.4,0.8,0
		c0.3-0.3,0.3-0.8,0.4-1.2c0.1-0.7,0.5-1,1.2-1.1c0.6,0,1.2,0.3,1.4,0.9c0.2,0.6-0.2,1.2-0.8,1.6c-0.2,0.1-0.5,0.2-0.7,0.3
		c-0.6,0.4-0.7,1,0,1.3c0.3,0.2,0.6,0.3,0.9,0.4c1.1,0.5,1.7,1.3,1.6,2.3c-0.1,0.8-0.5,1.5-1.2,1.9c-0.6,0.4-1.2,0.2-1.8-0.1
		c-0.4-0.3-0.7-0.7-0.9-1.2c-0.2-0.3-0.3-0.7-0.6-1C88.2,67.5,87.9,67.4,87.5,67.5z M92.2,64.1c-0.3,0.1-0.5,0.4-0.5,0.7
		c0.1,0.3,0.4,0.5,0.7,0.5c0.3-0.1,0.5-0.4,0.4-0.7C92.9,64.3,92.5,64,92.2,64.1z"/>
	<path class="st1" d="M91.4,85.4c-0.8-0.6-1-1.3-0.8-2.2c0-0.2,0-0.4,0-0.5c0-0.4-0.2-0.8-0.6-1c-1-0.6-1.8-0.5-2.4,0.5
		c-0.1,0.2-0.3,0.5-0.4,0.7c-0.2,0.7-0.5,1.1-1.2,1.3c-0.6,0.2-0.7,0.6-0.6,1.2c0,0.2,0.1,0.3,0.1,0.5c0.5,0.8,0.3,1.6-0.3,2.2
		c-0.1,0.2-0.3,0.4-0.4,0.6c-0.2,0.4-0.3,0.8-0.2,1.2c0.1,0.5,0.3,0.6,0.8,0.5c0.3-0.1,0.5-0.3,0.8-0.5c0.1,0,0.2-0.2,0.3-0.1
		c0.1,0.1,0.1,0.2,0.1,0.4c-0.1,0.3-0.2,0.6-0.3,0.9c-0.1,0.5,0.1,0.7,0.6,0.7c0.3,0,0.5-0.2,0.7-0.4c0.2-0.3,0.4-0.7,0.5-1.1
		c0.3-0.6,0.8-1,1.4-1.1c0.4-0.1,0.8-0.2,1.2-0.2c0.5-0.1,0.9-0.4,1.1-0.9C92.3,87.3,92,85.9,91.4,85.4z"/>
	<g>
		<path class="st1" d="M9.3,1.9c-0.9,0-1.7,0.6-2,1.5c0,0,0,0,0,0l0,0l0,0C7.2,3.5,7.2,3.7,7.1,3.8C7,4,7,4.4,6.7,4.4
			C6.4,4.3,6.4,4,6.4,3.7C6.3,3.4,6.3,3,6.1,2.6c-0.2-0.7-0.8-1-1.4-1.1c-0.4,0-0.8,0-1.1,0.4C3.4,2.4,3.5,2.8,3.8,3.1
			c0.2,0.3,0.4,0.5,0.5,0.8c0.4,0.6,0.2,1-0.4,1.3C3.5,5.4,3.1,5.5,2.8,5.6C2.2,5.9,1.9,6.4,1.9,7.1c0,0.5,0.3,0.9,0.8,1.1
			c0.6,0.2,1.1-0.1,1.5-0.5C4.4,7.4,4.6,7.2,4.8,7c0.5-0.4,1.1-0.3,1.4,0.3C6.3,7.5,6.4,7.8,6.4,8c0.1,0.3,0.1,0.6,0.3,0.9
			c0.3,0.8,1.1,0.9,1.7,0.4c0.7-0.6,0.8-1.6,0.3-2.3C8.6,6.7,8.5,6.5,8.3,6.3C7.9,5.5,8.1,5,8.9,4.7C9.3,4.6,9.6,4.5,10,4.4
			c0.6-0.2,0.9-0.7,0.8-1.3C10.6,2.3,10.1,1.9,9.3,1.9z"/>
		<path class="st1" d="M10.2,6.3C9.8,6.4,9.6,6.8,9.7,7.2c0.1,0.4,0.6,0.6,0.9,0.5c0.4-0.1,0.6-0.6,0.5-1C11,6.4,10.5,6.2,10.2,6.3z
			"/>
	</g>
</g>
</svg>
