<svg version="1.1" xmlns="http://www.w3.org/2000/svg" xmlns:xlink="http://www.w3.org/1999/xlink" x="0px" y="0px"
	viewBox="0 0 877.1 10.2" style="enable-background:new 0 0 877.1 10.2;" preserveAspectRatio="none">
	<style type="text/css">
		.st0 {
			clip-path: url(#SVGID_00000160183782700983618750000011615594260580501159_);
			fill: #F6F2EF;
		}

		.st1 {
			clip-path: url(#SVGID_00000016063288787282959490000015437449780583747505_);
			fill: #959493;
		}

		.st2 {
			clip-path: url(#SVGID_00000096753168912767766060000006318548920034931865_);
			fill: #959493;
		}
	</style>
	<g>
		<g>
			<defs>
				<rect id="SVGID_1_" width="877.1" height="10.2" />
			</defs>
			<clipPath id="SVGID_00000092438221401057427960000008776487694317624208_">
				<use xlink:href="#SVGID_1_" style="overflow:visible;" />
			</clipPath>
			<path style="clip-path:url(#SVGID_00000092438221401057427960000008776487694317624208_);fill:#F6F2EF;" d="M433.1,12.3
			c15.3,0,30.5,0,45.7,0.1c41,0.1,337.6,0.7,378.6,2.5c0-8.8,0-17.6,0-26.5c-39.3,0.3-334.2,1.2-373.4,2.3
			C403.7-7,323.5-5.1,243.2-7c-39.8-0.9-79.7-2.2-119.5-1.8C104.9-8.6,86.1-7.5,67.4-7C55-6.9,32.9-7.2,20.6-9
			c0.1,8.3,0.2,15.8,0.3,22.5c40.6-0.1,90.7-0.8,131.3-1.4c82-1.3,164-2.6,246,0.3c10.2,0.4,20.4,0.8,30.7,1.3
			C429.9,12.8,431.4,12.3,433.1,12.3z" />
		</g>
		<g>
			<defs>
				<rect id="SVGID_00000148622344999801177840000002713318222226727075_" width="877.1" height="10.2" />
			</defs>
			<clipPath id="SVGID_00000174597817165405489660000017820639583680774797_">
				<use xlink:href="#SVGID_00000148622344999801177840000002713318222226727075_" style="overflow:visible;" />
			</clipPath>
			<path style="clip-path:url(#SVGID_00000174597817165405489660000017820639583680774797_);fill:#959493;" d="M859,15
			c0-8.8,0-17.7,0.1-26.6c-0.6,0-1.1,0-1.8,0c0,8.8,0,17.7,0,26.5C857.8,14.9,858.4,14.9,859,15z" />
		</g>
		<g>
			<defs>
				<rect id="SVGID_00000079444232291962929390000009861794131585792420_" width="877.1" height="10.2" />
			</defs>
			<clipPath id="SVGID_00000026852271674696209330000004118384539466134182_">
				<use xlink:href="#SVGID_00000079444232291962929390000009861794131585792420_" style="overflow:visible;" />
			</clipPath>
			<path style="clip-path:url(#SVGID_00000026852271674696209330000004118384539466134182_);fill:#959493;" d="M20.9,13.5
			C20.8,6.7,20.7-0.8,20.6-9c-1-0.1-2-0.3-3-0.5c0.1,8.5,0.1,16.3,0.3,23C18.9,13.5,19.8,13.5,20.9,13.5z" />
		</g>
	</g>
</svg>