<?xml version="1.0" encoding="utf-8"?>
<!-- Generator: Adobe Illustrator 26.3.1, SVG Export Plug-In . SVG Version: 6.00 Build 0)  -->
<svg version="1.1" id="Laag_1" xmlns="http://www.w3.org/2000/svg" xmlns:xlink="http://www.w3.org/1999/xlink" x="0px" y="0px"
	 viewBox="0 0 877.1 123.6" style="enable-background:new 0 0 877.1 123.6;" xml:space="preserve">
<style type="text/css">
	.st0{clip-path:url(#SVGID_00000027569798222884442880000012923283948836230285_);fill:#FFFFFF;}
	.st1{clip-path:url(#SVGID_00000027569798222884442880000012923283948836230285_);fill:#959493;}
	.st2{clip-path:url(#SVGID_00000027569798222884442880000012923283948836230285_);fill:#F6F2EF;}
</style>
<g>
	<defs>
		<rect id="SVGID_1_" width="877.1" height="123.6"/>
	</defs>
	<clipPath id="SVGID_00000170252279977352321440000003541607892981159592_">
		<use xlink:href="#SVGID_1_"  style="overflow:visible;"/>
	</clipPath>
	<path style="clip-path:url(#SVGID_00000170252279977352321440000003541607892981159592_);fill:#FFFFFF;" d="M833.6,120.7
		c-3-0.3-5.6-2.2-5.6-5.6c0-2,1.3-4.1,3.1-5.1c-0.5-1.1-1.5-1.9-2.3-3.4c-1.5-3.2-2-7-2.2-10.6c-0.4-7.2,10.8-7.1,11.2,0
		c0.1,2.2,0.4,4.4,1.7,6.2c1.8,2.5,2.7,4.3,2.9,7.3C843,115.1,840,121.5,833.6,120.7z M39,55.8c-0.8,0-1.5,0.1-2.2,0.1
		c0.1-1.1,0.2-2.2,0.1-3.4c-0.3-2.9-2.4-5.7-5.6-5.6c-2.7,0.1-6,2.5-5.6,5.6c0.2,2.2-0.1,3.1-0.3,5.1c-0.4,2.7,0.4,5.1,2.7,6.8
		c3.1,2.5,7.2,2.7,11.1,2.6c2.9-0.1,5.7-2.5,5.6-5.6C44.5,58.5,42.1,55.8,39,55.8z"/>
	<path style="clip-path:url(#SVGID_00000170252279977352321440000003541607892981159592_);fill:#959493;" d="M857.1-14.8
		c-0.1,61.5-0.3,116.1-0.8,119.1c-0.6,3.7-2.4,7.1-5,9.9c-3.1,0-7.3-1.6-10.1,0.8c-1.8,4.1-4.1,5.5-8.3,5.1
		c-14.4-2.5-29-4.6-43.5-6.4c-12.7-1.7-25.5-3.4-38.3-4.8c-11.3-1.2-634.5-2.2-645.9-2.4c-14.1-0.3-37.2-2.2-50.8-5.7
		c-4.4-1.1-8.8-2.1-13.4-1.9c-0.8,0-1.5-0.1-2.2-0.2c-1.9-2.9-2.7-6.3-3.7-9.6c-2.8-8.9-5.5-17.9-8.2-26.7
		c-1.4-3.5,0.1-6.9,0.2-10.4c0.1-0.6,0.1-1,0.2-1.6c-0.4-5-1.7-9.8-2.4-14.7c-1.3-8.8-2.5-17.6-3.6-26.3c-0.2-1.7-0.4-9.8-0.6-22.4
		c-1.1,0-2.1,0-3.1,0c0.1,9.6,0.3,15.5,0.4,16.8c1.5,12.5,3.2,25,5.3,37.4c0.8,5.1,1.8,10.2,0.8,15.4c-0.6,3.1,0,6.1,1.1,9.1
		c1.9,5,3.3,10.2,4.8,15.3c1.7,5.7,3.3,11.3,5.5,16.8c0.8,2,2,3.4,4.4,3.4c5.7-0.3,11.1,1.2,16.6,2.5c12.4,2.9,34.2,4.8,46.9,5
		c13.9,0.1,639.6,1.6,653.2,3c12.6,1.3,25.2,3.1,37.8,4.8c12.9,1.7,25.8,3.2,38.5,5.7c0.9,0.1,1.8,0.1,2.7-0.1
		c3.6-0.8,5.9-3,7.3-6.1c2.8-1.6,6.5,0.7,9.3-0.4c2.1-2.1,3.6-4.6,4.6-7.4c1.3-3.4,1.8-59.9,2-122.9
		C858.7-14.8,857.1-14.8,857.1-14.8z"/>
	<path style="clip-path:url(#SVGID_00000170252279977352321440000003541607892981159592_);fill:#F6F2EF;" d="M362.5-14.8
		c-38.4,0-76.6-0.5-115-0.7c-19.3-0.1-38.6,0-58,0.6c-19.3,0.6-38.6,2.1-58,2.7c-18.8,0.6-47,0.9-65.5-1.8
		c-15.2,0.2-30.3,0.7-45.5,0.8C20.8-0.5,21,7.6,21.2,9.3c1.1,8.8,2.3,17.6,3.6,26.3c0.7,4.9,2,9.7,2.4,14.7c3,2.2,5.7,4.9,8,7.9
		c1.3,1.6,3.1,2.7,4.1,5c-4.4,0.3-8.5-0.9-12.5-1c2.7,8.9,5.4,17.8,8.2,26.7c1,3.3,1.8,6.7,3.7,9.6c0.8,0.1,1.5,0.2,2.2,0.2
		c4.6-0.2,9,0.8,13.4,1.9c13.7,3.5,36.7,5.4,50.8,5.7c11.3,0.2,634.7,1.3,645.9,2.5c12.8,1.3,25.6,3.1,38.3,4.8
		c14.6,1.9,29,3.9,43.5,6.4c-0.8-2.8,0.6-5.5,0.8-8.2c0.3-4.2,1.3-8.3,2-12.5c0.1-1,0.6-2,1.2-2.9c2.2,6.2,3.1,12.4,4.3,18.5
		c2.8-2.4,7-0.8,10.1-0.8c2.6-2.7,4.3-6.2,5-9.9c0.6-3,0.8-57.6,0.9-119L362.5-14.8L362.5-14.8z"/>
</g>
</svg>
