<?xml version="1.0" encoding="utf-8"?>
<!-- Generator: Adobe Illustrator 26.3.1, SVG Export Plug-In . SVG Version: 6.00 Build 0)  -->
<svg version="1.1" id="Laag_1" xmlns="http://www.w3.org/2000/svg" xmlns:xlink="http://www.w3.org/1999/xlink" x="0px" y="0px"
	 viewBox="0 0 2703.5 2206.5" style="enable-background:new 0 0 2703.5 2206.5;" xml:space="preserve">
<style type="text/css">
	.st0{fill:#3F3F3F;}
	.st1{fill:#080707;}
	.st2{opacity:0.15;}
	.st3{fill:#B1B2B2;}
	.st4{fill:#373737;}
	.st5{fill:#4C4C4C;}
	.st6{fill:#2C2C2C;}
	.st7{fill:#343434;}
	.st8{fill:#505252;}
	.st9{fill:#545555;}
	.st10{fill:#585858;}
	.st11{fill:#525252;}
	.st12{fill:#5A5A5A;}
	.st13{fill:#252525;}
	.st14{fill:#0A0909;}
	.st15{fill:#304927;}
	.st16{fill:#191919;}
	.st17{fill:#1F1F1F;}
	.st18{fill:#161616;}
	.st19{fill:#519E3F;}
	.st20{fill:#238631;}
	.st21{fill:#FFFFFF;}
</style>
<path class="st0" d="M2702.2,507.1c0-10.9-3.3-23.9-9.8-32.4c-29.7-38.7-59.1-77.9-92.2-113.6c-46.3-50-101.5-85.9-171.3-96.2
	c-29.7-4.4-58.6-14.4-82.1-20.4c-19.5-46.5-37.3-89.1-54-129c-54.8-13.3-103.4-25.5-152.2-37c-149.5-35.3-301-59.3-454.3-68.3
	c-110.9-6.6-222-9.5-333.1-10.1c-108.8-0.6-217.8,0-326.3,6.8C834.9,19.2,645.9,52,459.3,98.9c-21.4,5.4-36.2,14.4-44.6,34.2
	c-14,33.2-27.7,66.5-42.7,102.5c-21.3,5.3-47.4,10.9-72.8,18.4c-35.5,10.4-74.1,16.3-105.1,34.8C132,325.8,80.5,376.7,39.6,437
	c-12.3,18.1-29.1,38.2-30,58.1c-5.5,118.7-9,237.5-9.4,356.3c-0.6,201.5,0,403,3.3,604.4c2.5,150.7,9.8,301.3,15.8,451.9
	c2,50.5,6.4,100.8,9.7,151.2c20.4,41.6,58.1,44,98,45.8c146,6.7,291.8,16.6,437.8,22.3c140,5.4,280.2,8.2,420.3,10.1
	c109.9,1.5,219.8-0.4,329.7,0.1c88.6,0.4,177.1,3.5,265.7,2.7c168.8-1.5,337.7-2.6,506.4-8.3c177.6-6.1,355.1-16.7,532.4-27.8
	c15.4-1,29.8-19.5,44.4-30.4c3.2-2.4,4.9-6.9,7.3-10.4c0.2-1.3,0.4-2.6,0.6-3.8c0.4-0.8,0.7-1.7,1.1-2.5
	c2.7-41.5,6.3-82.9,8.1-124.5c7.6-178.5,18.8-357,20.9-535.6C2705.1,1100.1,2702.7,803.6,2702.2,507.1z M2472.3,1877.7
	c-747.7,61.7-1494.6,52.8-2242.5-5.4c-30.9-424-41.6-850.9-33.1-1279.8c774,40.6,1546.8,46,2320.6,7.3
	C2518.5,1027.7,2506.1,1453,2472.3,1877.7z"/>
<path class="st1" d="M2671.6,2059.2c-0.2,1.3-0.4,2.6-0.6,3.8c-2.4,3.5-4.1,8-7.3,10.4c-14.5,10.9-29,29.5-44.4,30.4
	c-177.4,11.1-354.8,21.7-532.4,27.8c-168.7,5.8-337.6,6.8-506.4,8.3c-88.5,0.8-177.1-2.4-265.7-2.7c-109.9-0.5-219.8,1.5-329.7-0.1
	c-140.1-2-280.3-4.7-420.3-10.1c-146-5.7-291.8-15.6-437.8-22.3c-39.9-1.8-77.6-4.2-98-45.8c-3.3-50.4-7.7-100.8-9.7-151.2
	c-6-150.6-13.3-301.2-15.8-451.9c-3.4-201.4-3.9-403-3.3-604.4c0.3-118.8,3.9-237.6,9.4-356.3c0.9-19.8,17.8-40,30-58.1
	c40.9-60.3,92.4-111.2,154.5-148.2c31-18.5,69.6-24.3,105.1-34.8c25.5-7.5,51.5-13,72.8-18.4c15-36,28.8-69.3,42.7-102.5
	c8.3-19.8,23.2-28.8,44.6-34.2C645.9,52,834.9,19.2,1026.8,7c108.5-6.9,217.5-7.4,326.3-6.8c111.1,0.6,222.2,3.5,333.1,10.1
	c153.3,9.1,304.8,33,454.3,68.3c48.8,11.5,97.5,23.7,152.2,37c16.7,39.9,34.5,82.4,54,129c23.5,6,52.4,16,82.1,20.4
	c69.8,10.4,125,46.3,171.3,96.2c33.1,35.7,62.5,74.9,92.2,113.6c6.5,8.4,9.8,21.4,9.8,32.4c0.5,296.5,2.9,593-0.5,889.5
	c-2.1,178.6-13.4,357.1-20.9,535.6c-1.8,41.5-5.3,83-8.1,124.5C2672.3,2057.5,2672,2058.3,2671.6,2059.2z M2430.3,430
	c2.2,0.4,4.4,0.7,6.6,1.1c4.7,0.3,9.3,0.5,14,0.8c4.1,0.5,8.1,0.9,12.2,1.4c62.8,3.8,125.5,7.6,192.1,11.7
	c-14.3-17.3-24.5-32.4-37.3-44.7c-26.2-25.4-53.9-49.4-80.9-74.1c-25.5-23.3-56.4-34-89.9-38.6c-1.6-1-3.1-2.6-4.9-3.1
	c-41.9-11.7-83.3-25.9-125.8-34.4c-117.6-23.5-235-49.4-353.7-65.4c-125.6-16.9-252.5-25.9-379.1-33.9
	c-82.9-5.2-166.4-3.8-249.6-2.9c-116.8,1.3-233.7,2.4-350.3,8.5c-87.5,4.6-175.2,12.7-261.6,26.8c-117.5,19.2-233.9,45.2-350.5,69.2
	c-35.7,7.4-70.8,17.9-106.2,27c-34.4,5.3-65.9,16.7-92.2,40.6c-11.1,10-23.8,18.3-34.4,28.8c-26.8,26.5-52.7,53.9-79,80.9
	c1,1.8,2,3.7,2.9,5.5c77-4,154-8,231.1-12c24.9-1.1,49.8-2.2,74.7-3.1c109.7-4.1,219.4-8.8,329.1-11.8c88.8-2.5,177.7-3.8,266.6-4
	c121.9-0.4,243.8,0.8,365.6,1.2c82.5,0.2,165.1-0.5,247.6,0.2c78.5,0.6,157.1,2,235.6,4c117.4,2.9,234.8,6.4,352.1,10.2
	c53.2,1.7,106.3,5.2,159.4,7.5c32.8,1.4,65.6,2,98.5,2.9C2425.4,430.1,2427.9,430,2430.3,430z M422,226c42-8.7,84.1-17.4,126.1-26
	c34.4-5.5,68.6-12.1,103.1-16.3c113.5-13.7,226.8-28.9,340.6-39c77.7-6.9,156-7.4,234-8.4c76.1-1,152.2-0.6,228.2,2
	c112.8,3.8,225.6,8.9,338.2,15.9c57.5,3.6,114.8,11.1,171.8,19.3c69.2,10,138,22.7,207,34.2c41.9,8.7,83.9,17.5,125.8,26.2
	c8.4,2.2,16.7,4.4,29.2,7.8c-7.3-22.6-13.1-41.2-19.2-59.7c-12-36.3-33.2-57.4-73.9-67.4c-232.8-57-468.4-92.5-708-98
	c-122.4-2.8-245.1-3.5-367.5-0.3c-93.6,2.5-187.9,7-280.4,21c-138.5,21-275.7,51.3-413.5,76.9c-18.2,3.4-30.5,11.7-37.4,28.4
	c-12.2,29.4-24.2,58.8-38.6,93.8C404.4,231.3,413.2,228.7,422,226z M859.3,417.4C859.3,418.6,859.3,416.2,859.3,417.4
	c-31.3,0-62.6-0.8-93.8,0.1c-101.4,3-202.7,6.5-304.1,9.9c-53.2,1.8-106.3,3.7-159.4,6c-73.4,3.2-146.7,6.9-220.1,10.1
	c-27.6,1.2-57.3,28.4-58.1,53.9c-1.9,60.5-4.3,121-5.7,181.5c-1.8,73.5-3.7,147.1-3.9,220.6c-0.2,121.5,0.3,243.1,1.6,364.7
	c1.1,105.1,3.4,210.3,6,315.4c1.8,73.4,4.9,146.9,7.9,220.3c3.1,75.7,6.8,151.4,10.3,227.1c1.5,31.6,22.5,58.7,46.4,60
	c57.7,3.3,115.4,6.9,173.1,10c88.6,4.8,177.1,9.8,265.8,13.8c75.1,3.4,150.2,6,225.3,8c78.5,2,157.1,3.7,235.6,4
	c104.6,0.3,209.2-1.3,313.7-1.2c49.2,0.1,98.4,3.4,147.6,3.2c139.9-0.6,279.7-1.7,419.6-3.5c79.8-1,159.7-3.4,239.5-6
	c60.1-2,120.2-4.9,180.3-7.9c104.9-5.2,209.7-10.9,314.6-16.1c30-1.5,56-22.3,57.5-47.5c4.1-69,8.4-137.9,11.9-206.9
	c3.8-73.3,7.1-146.7,10-220.1c3.1-77.1,6.2-154.2,7.9-231.3c2.1-96.2,3.8-192.4,4-288.6c0.3-128.6-0.9-257.1-1.6-385.7
	c-0.4-66.6-1.3-133.2-2.1-199.8c-0.3-25.2-27.5-56.1-51.2-57.6c-79.2-4.8-158.4-9.7-237.7-13.9c-71.7-3.8-143.4-7.1-215.1-10
	c-90.7-3.7-181.4-7.3-272.1-9.9c-76.5-2.2-153.1-3-229.6-4.1c-61.3-0.9-122.5-1.7-183.8-2c-66.2-0.3-132.4-0.1-198.6-0.1
	C1153.8,413.8,1006.5,417.4,859.3,417.4z"/>
<path class="st2" d="M29,2058.9c20.4,41.6,58.1,44,98,45.8c146,6.7,291.8,16.6,437.8,22.3c140,5.4,280.2,8.2,420.3,10.1
	c109.9,1.5,219.8-0.4,329.7,0.1c88.6,0.4,177.1,3.5,265.7,2.7c168.8-1.5,337.7-2.6,506.4-8.3c177.6-6.1,355.1-16.7,532.4-27.8
	c15.4-1,29.8-19.5,44.4-30.4c3.2-2.4,4.9-6.9,7.3-10.4c23.9,20.4,22.7,46.9-1.9,65.5c-30.5,23.1-66.4,25.2-102.2,28.4
	c-93.7,8.4-187.3,17.5-281,25.3c-56,4.6-112.1,7.4-168.2,10.7c-375.7,22.1-751.7,10.2-1127.6,10.7c-129.6,0.2-259.2-9.2-388.8-15.3
	c-91.7-4.3-183.2-10-274.8-15.8c-75.6-4.7-151.3-9.1-226.8-16.1c-37.4-3.5-72.6-16.9-83.1-58.4C13.7,2086.9,24.5,2072.1,29,2058.9z"
	/>
<path class="st3" d="M2671.6,2059.2c0.4-0.8,0.7-1.7,1.1-2.5C2672.3,2057.5,2672,2058.3,2671.6,2059.2z"/>
<path class="st4" d="M859.3,417.4c147.2,0,294.5-3.6,441.7-3.6c66.2,0,132.4-0.3,198.6,0.1c61.3,0.3,122.5,1.1,183.8,2
	c76.5,1.1,153.1,1.9,229.6,4.1c90.7,2.6,181.4,6.2,272.1,9.9c71.7,2.9,143.4,6.2,215.1,10c79.3,4.2,158.5,9.1,237.7,13.9
	c23.7,1.4,50.9,32.4,51.2,57.6c0.7,66.6,1.7,133.2,2.1,199.8c0.8,128.6,1.9,257.1,1.6,385.7c-0.2,96.2-1.9,192.4-4,288.6
	c-1.7,77.1-4.8,154.2-7.9,231.3c-2.9,73.4-6.3,146.7-10,220.1c-3.5,69-7.8,137.9-11.9,206.9c-1.5,25.3-27.5,46-57.5,47.5
	c-104.9,5.2-209.7,10.9-314.6,16.1c-60.1,3-120.2,5.9-180.3,7.9c-79.8,2.6-159.6,5-239.5,6c-139.8,1.8-279.7,3-419.6,3.5
	c-49.2,0.2-98.4-3.1-147.6-3.2c-104.6-0.1-209.2,1.5-313.7,1.2c-78.5-0.3-157.1-1.9-235.6-4c-75.1-1.9-150.2-4.6-225.3-8
	c-88.6-4-177.2-9-265.8-13.8c-57.7-3.1-115.4-6.7-173.1-10c-23.8-1.4-44.9-28.4-46.4-60c-3.5-75.7-7.2-151.4-10.3-227.1
	c-3-73.4-6.1-146.8-7.9-220.3c-2.6-105.1-4.8-210.3-6-315.4c-1.3-121.5-1.9-243.1-1.6-364.7c0.2-73.5,2.1-147.1,3.9-220.6
	c1.5-60.5,3.8-121,5.7-181.5c0.8-25.5,30.4-52.6,58.1-53.9c73.4-3.2,146.7-6.9,220.1-10.1c53.1-2.3,106.3-4.2,159.4-6
	c101.4-3.5,202.7-7,304.1-9.9C796.8,416.6,828,417.4,859.3,417.4C859.3,416.2,859.3,418.6,859.3,417.4z M110.1,2029.9
	c9.4,1.2,17.3,2.6,25.1,3.1c71.2,4.1,142.3,8.3,213.5,12c56.3,3,112.7,5.5,169,8c62.7,2.8,125.3,5.7,188,7.9
	c51.1,1.8,102.3,3,153.5,4c73.8,1.5,147.6,3.2,221.5,3.9c102.9,1.1,205.8,1.9,308.7,2c90.2,0,180.4-1.1,270.7-1.9
	c40.2-0.4,80.5-1.1,120.7-2c56.5-1.2,113-2.4,169.5-4c59.8-1.7,119.5-3.6,179.2-6c73.6-3,147.2-6.4,220.8-10
	c62.9-3.1,125.9-6.5,188.8-10c17.1-0.9,34.1-2.6,51.5-3.9c4.2-52.1,8.6-102.6,12.3-153.1c5.6-77.7,11.1-155.3,16-233.1
	c3.9-62.6,6.9-125.2,10.1-187.8c2.9-58.3,5.8-116.7,8-175c2.5-66.4,4.3-132.8,6-199.2c1.6-63.8,3-127.6,4-191.5
	c1-60.2,1.7-120.5,2-180.7c0.3-59,0.2-118,0-176.9c0-8.5-1.7-16.9-2.5-25.1c-8-1.1-14.8-2.4-21.7-3c-85.2-6.8-170.4-13.8-255.6-20
	c-63.8-4.6-127.7-8.5-191.5-12c-69.9-3.8-139.8-7-209.8-10.1c-54.4-2.4-108.8-4.4-163.3-6c-57.3-1.7-114.7-2.9-172.1-4
	c-49.8-0.9-99.6-2-149.4-1.9c-152.5,0.3-305.1,1.1-457.6,1.9c-50.6,0.3-101.2,1-151.7,2.1c-33.8,0.7-67.7,2.5-101.5,3.9
	c-82.3,3.3-164.5,6.4-246.8,10.1c-47.4,2.1-94.7,5-142,7.9c-85,5.2-170.1,10.5-255.1,16.1c-20.6,1.4-41.2,3.9-61.7,5.9
	c-1.1,8-2.6,14.2-2.7,20.4c-0.8,74.6-1.9,149.1-2,223.7c-0.1,55.6,1.1,111.1,1.9,166.7c0.6,44.9,1.2,89.8,2,134.7
	c1.2,69.2,2.4,138.3,4.1,207.5c0.9,38.2,2.5,76.3,3.9,114.5c3.3,86.9,6.6,173.8,10,260.7c1.1,28.5,2.4,57,4.1,85.5
	c4.4,70.1,9,140.2,13.9,210.3C104.3,1960.2,107.3,1994.8,110.1,2029.9z"/>
<path class="st5" d="M2422.9,430.1c-32.8-0.9-65.7-1.5-98.5-2.9c-53.1-2.3-106.2-5.7-159.4-7.5c-117.4-3.9-234.8-7.3-352.1-10.2
	c-78.5-2-157.1-3.3-235.6-4c-82.5-0.7-165.1,0-247.6-0.2c-121.9-0.3-243.8-1.5-365.6-1.2c-88.9,0.3-177.8,1.6-266.6,4
	c-109.7,3-219.4,7.8-329.1,11.8c-24.9,0.9-49.8,2.1-74.7,3.1c-8-7.2-15.8-14.8-24.2-21.6c-43.7-35.3-60.5-74.5-5.8-115.4
	c1.5-1.1,1.2-4.6,1.7-6.9c35.4-9.1,70.5-19.6,106.2-27c116.6-24,233-50,350.5-69.2c86.4-14.1,174.1-22.2,261.6-26.8
	c116.6-6.1,233.5-7.2,350.3-8.5c83.2-0.9,166.6-2.3,249.6,2.9c126.6,8,253.5,16.9,379.1,33.9c118.7,16,236.1,41.9,353.7,65.4
	c42.5,8.5,83.9,22.7,125.8,34.4c1.8,0.5,3.3,2,4.9,3.1c2.8,3.5,5,7.7,8.4,10.3c22.9,17.1,37.6,46.3,27.6,63.9
	c-10,17.6-24.9,32.5-38.3,48C2438.3,417.1,2430.2,423.3,2422.9,430.1z M2313.6,294.8c-6.5-8.7-8.2-13.3-11.4-14.7
	c-23.7-10.5-46.9-25.8-71.7-29.4c-106.7-15.6-213.7-29.6-321-40.2c-71.9-7.1-144.4-8.2-216.7-10.5c-61.2-1.9-122.4-1.8-183.7-2.2
	c-55.5-0.3-111-0.1-166.5-0.1c-90.5,0-180.9-0.5-271.4,0.2c-53.5,0.4-107,1.6-160.5,4c-67.5,3.1-135.2,6-202.5,12.3
	c-69.5,6.5-138.8,15.4-207.7,26.3c-27,4.3-53.7,14.5-78.8,26c-19.5,8.9-19.8,23.9-0.9,33.1c25.4,12.4,52.3,24.9,79.8,29.1
	C606.7,344.7,713,359.2,819.5,371c65.8,7.3,132.2,9.6,198.5,12.3c75.7,3.1,151.5,4.4,227.2,6.2c38.6,0.9,77.1,2,115.7,1.9
	c53.6-0.1,107.1-0.6,160.7-1.9c94.3-2.3,188.6-5,282.9-8.1c31.8-1.1,63.6-3.1,95.2-6.2c69.5-6.7,139.2-12.3,208.3-22.3
	c55.6-8,110.6-20.9,165.3-33.9C2287.3,315.8,2299.2,303.8,2313.6,294.8z"/>
<path class="st6" d="M2171.2,207.6c-69-11.5-137.8-24.2-207-34.2c-57-8.2-114.4-15.8-171.8-19.3c-112.6-7-225.4-12-338.2-15.9
	c-76-2.6-152.2-3-228.2-2c-78.1,1-156.4,1.6-234,8.4c-113.8,10.1-227.2,25.2-340.6,39c-34.5,4.2-68.7,10.8-103.1,16.3
	c-4.1-9.5-10.2-18.6-12.1-28.6c-6.2-32.7,35.9-60.9,64.2-66.8c38.1-7.9,77.2-11.2,116.1-14.7c81.1-7.3,162.2-15.9,243.5-19.4
	c94.6-4.1,189.5-3.3,284.3-4.6c4-0.1,8,0.3,11.9,0.5c41.7,1.8,83.5,4.8,125.2,5.1c71,0.4,142.1-2.9,213.1-1.2
	c89.8,2.1,179.6,7,269.4,11.9c38.9,2.1,77.8,6.8,116.6,11.2c42.7,4.9,85.2,12.7,128,16C2161.4,113.4,2193,160.9,2171.2,207.6z"/>
<path class="st7" d="M2171.2,207.6c21.8-46.7-9.8-94.2-62.9-98.3c-42.8-3.3-85.3-11.1-128-16c-38.8-4.5-77.6-9.1-116.6-11.2
	c-89.7-4.9-179.5-9.8-269.4-11.9c-71-1.7-142.1,1.6-213.1,1.2c-41.8-0.2-83.5-3.3-125.2-5.1c-4-0.2-8-0.6-11.9-0.5
	c-94.8,1.3-189.6,0.5-284.3,4.6c-81.3,3.5-162.4,12.1-243.5,19.4c-38.9,3.5-78,6.8-116.1,14.7c-28.3,5.9-70.4,34.1-64.2,66.8
	c1.9,9.9,7.9,19.1,12.1,28.6c-42,8.7-84.1,17.4-126.1,26c-0.1-6.7-0.3-13.3-0.2-20c0.9-36.9,35.1-83.2,68.3-91.3
	c137.2-33.5,276.2-59,416.9-70c131.3-10.3,263.2-13.3,394.8-18.5c28.1-1.1,56.3,3,84.5,3.3c58.2,0.6,116.4-2.2,174.5,0.8
	c89.7,4.6,179.4,11,268.7,20.1c66.1,6.7,131.8,17.7,197.4,28.6c44.4,7.4,88.4,17.4,132.4,27c27.5,6,57.1,8.8,81.3,21.5
	c40.8,21.4,59.2,59.5,56.6,106.3C2255.1,225.1,2213.1,216.4,2171.2,207.6z"/>
<path class="st8" d="M2297,233.8c2.6-46.9-15.8-84.9-56.6-106.3c-24.2-12.7-53.8-15.5-81.3-21.5c-44-9.6-88-19.6-132.4-27
	c-65.6-10.9-131.3-22-197.4-28.6c-89.3-9-179-15.5-268.7-20.1c-58-3-116.3-0.2-174.5-0.8c-28.2-0.3-56.4-4.4-84.5-3.3
	c-131.7,5.2-263.5,8.2-394.8,18.5c-140.7,11-279.6,36.5-416.9,70c-33.1,8.1-67.4,54.4-68.3,91.3c-0.2,6.7,0.1,13.3,0.2,20
	c-8.8,2.7-17.6,5.4-34.2,10.5c14.4-35,26.4-64.4,38.6-93.8c6.9-16.7,19.2-25,37.4-28.4c137.8-25.7,275-56,413.5-76.9
	c92.4-14,186.7-18.5,280.4-21c122.4-3.3,245-2.6,367.5,0.3c239.6,5.5,475.2,40.9,708,98c54.4,11.2,54.4,11.2,73.9,67.4
	c6.1,18.5,11.9,37.1,19.2,59.7C2313.7,238.3,2305.4,236,2297,233.8z"/>
<path class="st9" d="M265.4,279.3c-0.5,2.4-0.2,5.8-1.7,6.9c-54.7,40.9-37.8,80.1,5.8,115.4c8.4,6.8,16.1,14.4,24.2,21.6
	c-77,4-154,8-231.1,12c-1-1.8-2-3.7-2.9-5.5c26.3-27,52.2-54.4,79-80.9c10.6-10.5,23.3-18.7,34.4-28.8
	C199.4,296,231,284.6,265.4,279.3z"/>
<path class="st9" d="M2422.9,430.1c7.3-6.8,15.4-13,21.9-20.5c13.4-15.5,28.3-30.4,38.3-48c10-17.5-4.8-46.7-27.6-63.9
	c-3.4-2.6-5.6-6.8-8.4-10.3c33.5,4.6,64.4,15.3,89.9,38.6c27,24.7,54.6,48.7,80.9,74.1c12.8,12.4,23,27.4,37.3,44.7
	c-66.6-4-129.3-7.9-192.1-11.7c-4.1-0.5-8.1-0.9-12.2-1.4c-4.7-0.3-9.3-0.5-14-0.8c-2.2-0.4-4.4-0.7-6.6-1.1
	C2427.9,430,2425.4,430.1,2422.9,430.1z"/>
<path class="st4" d="M2450.9,431.9c4.1,0.5,8.1,0.9,12.2,1.4C2459,432.8,2454.9,432.3,2450.9,431.9z"/>
<path class="st5" d="M2430.3,430c2.2,0.4,4.4,0.7,6.6,1.1C2434.7,430.7,2432.5,430.4,2430.3,430z"/>
<path class="st0" d="M110.1,2029.9c-2.8-35-5.8-69.7-8.2-104.3c-4.8-70.1-9.5-140.2-13.9-210.3c-1.8-28.5-3-57-4.1-85.5
	c-3.4-86.9-6.8-173.8-10-260.7c-1.4-38.2-3-76.3-3.9-114.5c-1.6-69.1-2.8-138.3-4.1-207.5c-0.8-44.9-1.4-89.8-2-134.7
	c-0.7-55.6-1.9-111.1-1.9-166.7c0.1-74.6,1.1-149.1,2-223.7c0.1-6.2,1.6-12.4,2.7-20.4c20.5-2,41-4.5,61.7-5.9
	c85-5.6,170-10.9,255.1-16.1c47.3-2.9,94.7-5.7,142-7.9c82.2-3.7,164.5-6.8,246.8-10.1c33.8-1.4,67.7-3.1,101.5-3.9
	c50.6-1.1,101.1-1.8,151.7-2.1c152.5-0.8,305.1-1.6,457.6-1.9c49.8-0.1,99.6,1,149.4,1.9c57.4,1.1,114.7,2.3,172.1,4
	c54.4,1.6,108.8,3.6,163.3,6c69.9,3,139.9,6.2,209.8,10.1c63.9,3.5,127.7,7.4,191.5,12c85.2,6.2,170.4,13.2,255.6,20
	c6.9,0.5,13.7,1.9,21.7,3c0.9,8.2,2.5,16.6,2.5,25.1c0.2,59,0.4,118,0,176.9c-0.3,60.2-1,120.5-2,180.7c-1,63.8-2.4,127.6-4,191.5
	c-1.7,66.4-3.6,132.8-6,199.2c-2.2,58.4-5.1,116.7-8,175c-3.1,62.6-6.2,125.2-10.1,187.8c-4.9,77.7-10.3,155.4-16,233.1
	c-3.7,50.5-8.1,100.9-12.3,153.1c-17.5,1.3-34.5,3-51.5,3.9c-62.9,3.5-125.8,7-188.8,10c-73.6,3.6-147.2,7-220.8,10
	c-59.7,2.4-119.5,4.3-179.2,6c-56.5,1.6-113,2.8-169.5,4c-40.2,0.8-80.5,1.6-120.7,2c-90.2,0.8-180.4,1.9-270.7,1.9
	c-102.9,0-205.8-0.9-308.7-2c-73.8-0.8-147.6-2.4-221.5-3.9c-51.2-1.1-102.3-2.2-153.5-4c-62.7-2.2-125.3-5.1-188-7.9
	c-56.3-2.5-112.7-5-169-8c-71.2-3.8-142.3-7.9-213.5-12C127.3,2032.5,119.5,2031,110.1,2029.9z M1351.2,587.8
	c2.7,0.6,5.4,1.1,8.1,1.7c2.5,0.7,4.9,2,7.4,2c29.3-0.5,58.6-0.3,87.7-2c85.4-4.9,171-8.2,256.1-16.8
	c52.8-5.3,104.9-18.2,156.9-29.7c9.6-2.1,17.2-13.4,25.7-20.5c-8.6-7-16.1-17.9-25.9-20.4c-34.5-9.1-69.5-18.7-104.8-22
	c-90-8.5-180.3-14.7-270.6-20.1c-46.1-2.7-92.5-2.2-138.7-2.2c-65.6,0.1-131.2-0.9-196.7,2.3c-73.4,3.6-146.8,10-219.9,18.2
	c-33.3,3.8-65.8,14.6-98.3,23.5c-5.8,1.6-13.7,9.5-13.7,14.5c0,5.7,6.5,14,12.3,16.7c14.3,6.8,29.4,12.5,44.8,16.2
	c96.5,23,195,30,293.6,36.2c27.5,1.7,55,3.4,82.5,3.7C1288.9,589.6,1320.1,588.3,1351.2,587.8z M110.7,565
	c-1.1,10.2-2.7,18.4-2.8,26.6c-0.2,83.8-0.4,167.6-0.1,251.4c0.4,112.9,1,225.7,2.1,338.6c0.4,40.5,2.5,81,3.8,121.5
	c2.7,80.7,5.1,161.3,8.2,242c1.5,39.4,3.6,78.9,6.1,118.3c5,78.4,10.4,156.7,15.8,235c1.6,23.4,3.9,46.7,6,70.1c3.9,1,6.4,2.1,9,2.3
	c44.7,2.8,89.4,5.6,134.1,8.1c52,2.9,104,5.7,156.1,7.9c86.3,3.6,172.5,7,258.8,10.1c48.2,1.7,96.3,2.9,144.5,4
	c61.8,1.5,123.6,2.9,185.5,4c51.2,0.9,102.5,2,153.7,1.9c155.9-0.3,311.7-0.8,467.6-1.9c91.8-0.7,183.6-2.1,275.4-4.1
	c53.4-1.1,106.9-3.7,160.3-5.8c80.6-3.2,161.2-6.5,241.8-10c57-2.5,114-5.2,171-8.1c15-0.8,30-2.6,44.5-3.9
	c5.8-72,11.8-142,16.8-212c5.2-72.7,9.9-145.5,14-218.3c3.9-67.9,7.1-135.8,10-203.8c2.5-57.7,4.3-115.5,6-173.3
	c1.6-54.2,3-108.3,4-162.5c1-51.6,1.8-103.1,2-154.7c0.3-78.6,0.2-157.3,0-235.9c0-12.7-1.8-25.5-2.9-39.3
	c-42.7,2.2-84.4,4.4-126.2,6.4c-47.4,2.2-94.9,4.1-142.3,6c-82.6,3.4-165.2,7-247.8,9.9c-51.8,1.9-103.7,3.1-155.5,4
	c-86.1,1.6-172.3,3.6-258.5,3.8c-107.2,0.3-214.4-1-321.6-1.7c-96.6-0.6-193.1-1.2-289.7-2.1c-29.3-0.3-58.5-1.3-87.7-1.9
	c-73.8-1.4-147.6-2.5-221.5-4.1c-39.8-0.9-79.7-2.2-119.5-3.9c-71.9-3.1-143.9-6.8-215.8-9.9c-52.4-2.3-104.9-4-157.3-6.2
	c-17.2-0.7-34.4-2.1-51.6-3.1C175.3,568.6,143.5,566.8,110.7,565z"/>
<path class="st10" d="M2313.6,294.8c-14.4,9-26.3,21-40.2,24.3c-54.7,13-109.7,25.8-165.3,33.9c-69.1,10-138.8,15.6-208.3,22.3
	c-31.7,3.1-63.5,5.1-95.2,6.2c-94.3,3.1-188.6,5.8-282.9,8.1c-53.6,1.3-107.1,1.8-160.7,1.9c-38.6,0.1-77.2-1-115.7-1.9
	c-75.7-1.8-151.5-3.1-227.2-6.2c-66.2-2.7-132.7-5.1-198.5-12.3c-106.5-11.8-212.8-26.3-318.7-42.4c-27.5-4.2-54.4-16.7-79.8-29.1
	c-18.9-9.2-18.6-24.2,0.9-33.1c25-11.5,51.7-21.8,78.8-26c68.9-10.9,138.3-19.8,207.7-26.3c67.3-6.3,134.9-9.2,202.5-12.3
	c53.4-2.4,107-3.7,160.5-4c90.5-0.6,180.9-0.2,271.4-0.2c55.5,0,111-0.3,166.5,0.1c61.2,0.4,122.5,0.3,183.7,2.2
	c72.3,2.3,144.8,3.4,216.7,10.5c107.3,10.6,214.3,24.7,321,40.2c24.8,3.6,48,19,71.7,29.4C2305.3,281.5,2307,286.2,2313.6,294.8z"/>
<path class="st11" d="M110.7,565c32.8,1.8,64.6,3.5,96.3,5.3c17.2,1,34.4,2.4,51.6,3.1c52.4,2.2,104.9,3.9,157.3,6.2
	c71.9,3.1,143.9,6.8,215.8,9.9c39.8,1.7,79.7,3.1,119.5,3.9c73.8,1.6,147.6,2.7,221.5,4.1c29.3,0.6,58.5,1.6,87.7,1.9
	c96.5,0.8,193.1,1.4,289.7,2.1c107.2,0.7,214.4,2,321.6,1.7c86.2-0.2,172.3-2.3,258.5-3.8c51.8-1,103.7-2.2,155.5-4
	c82.6-3,165.2-6.6,247.8-9.9c47.4-1.9,94.9-3.8,142.3-6c41.7-1.9,83.4-4.2,126.2-6.4c1.1,13.8,2.9,26.5,2.9,39.3
	c0.3,78.6,0.4,157.3,0,235.9c-0.2,51.6-1,103.1-2,154.7c-1,54.2-2.4,108.3-4,162.5c-1.7,57.8-3.6,115.5-6,173.3
	c-2.9,68-6.1,135.9-10,203.8c-4.2,72.8-8.8,145.6-14,218.3c-5,70-11.1,140-16.8,212c-14.5,1.3-29.5,3.2-44.5,3.9
	c-57,2.9-114,5.6-171,8.1c-80.6,3.5-161.2,6.8-241.8,10c-53.4,2.1-106.8,4.7-160.3,5.8c-91.8,1.9-183.6,3.4-275.4,4.1
	c-155.9,1.1-311.7,1.6-467.6,1.9c-51.2,0.1-102.5-1-153.7-1.9c-61.8-1.1-123.7-2.5-185.5-4c-48.2-1.2-96.3-2.3-144.5-4
	c-86.3-3.1-172.5-6.4-258.8-10.1c-52-2.2-104-5.1-156.1-7.9c-44.7-2.5-89.4-5.3-134.1-8.1c-2.5-0.2-5-1.3-9-2.3
	c-2-23.4-4.3-46.7-6-70.1c-5.4-78.3-10.8-156.7-15.8-235c-2.5-39.4-4.6-78.8-6.1-118.3c-3-80.7-5.5-161.3-8.2-242
	c-1.3-40.5-3.4-81-3.8-121.5c-1.1-112.9-1.7-225.7-2.1-338.6c-0.3-83.8-0.1-167.6,0.1-251.4C108,583.4,109.6,575.2,110.7,565z
	 M166.2,1957.8c790.7,47.9,1580.1,50.6,2370.6,3.9c37.2-458.5,55.7-915,49.4-1374.5C1770.3,629.7,956,626,141.9,579.6
	c-4.6-0.3-9.1,0-15.9,0C117.8,1039.8,128.2,1498.1,166.2,1957.8z"/>
<path class="st12" d="M1351.2,587.8c-31.2,0.5-62.3,1.8-93.5,1.4c-27.5-0.3-55.1-2-82.5-3.7c-98.6-6.1-197.1-13.1-293.6-36.2
	c-15.4-3.7-30.5-9.4-44.8-16.2c-5.8-2.8-12.3-11-12.3-16.7c0-5,7.9-13,13.7-14.5c32.5-8.9,65.1-19.7,98.3-23.5
	c73-8.3,146.4-14.6,219.9-18.2c65.4-3.2,131.1-2.2,196.7-2.3c46.2-0.1,92.6-0.6,138.7,2.2c90.3,5.4,180.6,11.5,270.6,20.1
	c35.4,3.4,70.3,12.9,104.8,22c9.7,2.6,17.3,13.4,25.9,20.4c-8.5,7.1-16.1,18.4-25.7,20.5c-52,11.4-104.1,24.4-156.9,29.7
	c-85.1,8.6-170.7,11.9-256.1,16.8c-29.2,1.7-58.5,1.5-87.7,2c-2.4,0-4.9-1.3-7.4-2c34,0.5,56.9-26.6,56.2-66.5
	c-0.5-29.6-26.9-55.1-57.2-55.3c-29.8-0.2-55.9,23.5-57,51.6C1299.8,557.7,1320.2,585.6,1351.2,587.8z"/>
<path class="st13" d="M1351.2,587.8c-31-2.2-51.4-30.1-49.9-68.5c1.1-28.2,27.3-51.8,57-51.6c30.3,0.2,56.7,25.7,57.2,55.3
	c0.7,39.9-22.2,67-56.2,66.5C1356.7,588.9,1354,588.4,1351.2,587.8z M1401.4,529.5c0-30.4-18-48.6-47.4-47.7
	c-18.5,0.5-38.4,23.5-38.6,44.5c-0.2,28.5,18.9,47.1,48.7,47.4C1383.3,573.8,1401.4,552.3,1401.4,529.5z"/>
<path class="st14" d="M166.2,1957.8c-38-459.8-48.3-918.1-40.2-1378.3c6.8,0,11.4-0.2,15.9,0c814.1,46.4,1628.4,50.1,2444.3,7.6
	c6.2,459.6-12.2,916-49.4,1374.5C1746.3,2008.4,956.8,2005.7,166.2,1957.8z M2509,1909.2c5.9,8.3,11.9,16.7,19.9,27.9
	c3.6-45.9,7.2-87.8,10-129.8c3.1-45.3,5.5-90.7,8.2-136.1c5.3-88.7,10.8-177.4,15.7-266.1c2.6-46.4,4.4-92.8,6-139.3
	c2.3-66.7,4.4-133.5,6-200.2c1.1-43.9,1.8-87.8,2-131.7c0.3-83.5,0.1-167,0.2-250.4c0-28.2,0-56.3,0-86.1
	c-17.5,1.4-33.6,2.7-49.9,3.9c0,30.4,0,58.3,0,86.2c0,26.6-0.1,53.3-0.1,79.9c-0.6,9.6-1.7,19.2-1.8,28.8
	c-0.8,72.2-1.1,144.5-2.2,216.7c-0.7,46.9-2.5,93.7-3.8,140.5c-2,70.8-3.9,141.5-6.2,212.3c-1,31.9-2.3,63.7-4.2,95.5
	c-5.1,87.1-10.3,174.2-15.8,261.3c-2.2,35.1-4.6,70.1-7.8,105.1C2482.5,1858.3,2479.3,1888.4,2509,1909.2z M193.8,1905.2
	c11.3-14.1,27.6-24.8,25.9-46.6c-5-63.4-9.8-126.8-13.8-190.3c-3.4-55-5.8-110-8.1-165c-3-71.6-5.7-143.3-8-215
	c-1.8-55.1-3.2-110.3-4-165.4c-1.1-73.5-1.6-147-2.1-220.6c-0.3-47.6-0.1-95.2,0-142.8c0.6-26.6,1.2-53.3,1.9-79.9
	c0-28.1,0-56.3,0-86.8c-15.3-1.1-32-2.3-51.8-3.8c0,29.7,0,57.1,0,84.5c0.6,157.8,1,315.5,2.1,473.3c0.3,42.2,2.4,84.3,3.8,126.5
	c2.7,84.3,5.3,168.6,8.2,252.9c1,29.8,2.3,59.7,4.2,89.5c5,77,10.4,154.1,15.7,231.1c1.9,27.5,4.2,55,6.6,86.1
	C182.3,1921.8,188.1,1913.5,193.8,1905.2z M2472.3,1877.7c33.8-424.7,46.2-850,44.9-1277.8c-773.8,38.7-1546.6,33.3-2320.6-7.3
	c-8.5,428.9,2.3,855.8,33.1,1279.8C977.7,1930.5,1724.5,1939.4,2472.3,1877.7z M2527.5,1952c-15.2-19.9-29-38.6-43.6-56.6
	c-2.8-3.5-9-6.2-13.6-6c-17.2,0.5-34.4,2.4-51.5,3.6c-69.1,4.7-138.2,9.8-207.3,13.9c-75.2,4.5-150.3,8.5-225.6,12
	c-58.1,2.7-116.2,4.4-174.2,6.1c-57.8,1.7-115.7,4.3-173.5,3.8c-268.8-2.4-537.7,8.8-806.3-11.5c-48.3-3.7-96.7-5.6-145-8
	c-82.8-4.2-165.7-8.1-248.5-12.2c-27.8-1.4-55.6-3-83.5-4.6c-43.7-2.5-87.3-5-131.4-7.5c-16,20.9-31.7,41.5-48,62.8
	c38.4,2.5,75,5.1,111.7,7.2c60.6,3.5,121.2,7,181.8,9.9c78.6,3.7,157.2,7.1,235.8,10c49.8,1.9,99.7,2.9,149.5,4.1
	c59.5,1.4,119,3.3,178.5,3.9c75.5,0.7,151,0,226.5,0.3c40.8,0.2,81.5,1.9,122.3,1.7c100.1-0.3,200.1-0.9,300.2-2
	c62.8-0.7,125.7-2.5,188.5-3.8c59.5-1.3,119-2.3,178.5-4.2c41.1-1.3,82.2-3.9,123.3-5.7c89.2-4.1,178.4-8,267.6-12.2
	C2468.3,1955.7,2496.9,1953.8,2527.5,1952z"/>
<path class="st15" d="M1401.4,529.5c0,22.9-18.1,44.3-37.3,44.1c-29.8-0.3-48.9-18.9-48.7-47.4c0.1-20.9,20.1-43.9,38.6-44.5
	C1383.4,480.9,1401.4,499,1401.4,529.5z M1383.4,503.6L1383.4,503.6c-6.9-4-13.3-9.7-20.7-11.6c-15.9-4-26.5,4.5-34.2,17.8
	c-9.1,15.8-4,38.3,11.2,48.9c14.7,10.1,35.8,7,46.2-6.9C1396.8,537.3,1395.6,514.2,1383.4,503.6z"/>
<path class="st16" d="M2527.5,1952c-30.5,1.7-59.2,3.6-87.9,5c-89.2,4.2-178.4,8.1-267.6,12.2c-41.1,1.9-82.2,4.5-123.3,5.7
	c-59.5,1.9-119,2.9-178.5,4.2c-62.8,1.4-125.6,3.1-188.5,3.8c-100.1,1.1-200.1,1.7-300.2,2c-40.8,0.1-81.5-1.6-122.3-1.7
	c-75.5-0.3-151,0.4-226.5-0.3c-59.5-0.5-119-2.4-178.5-3.9c-49.8-1.2-99.7-2.2-149.5-4.1c-78.6-3-157.2-6.3-235.8-10
	c-60.6-2.9-121.2-6.4-181.8-9.9c-36.7-2.1-73.3-4.7-111.7-7.2c16.3-21.4,32-41.9,48-62.8c44,2.5,87.7,5,131.4,7.5
	c27.8,1.6,55.6,3.2,83.5,4.6c82.8,4.1,165.7,8,248.5,12.2c48.4,2.4,96.8,4.4,145,8c268.5,20.4,537.5,9.2,806.3,11.5
	c57.8,0.5,115.7-2.1,173.5-3.8c58.1-1.7,116.2-3.4,174.2-6.1c75.2-3.5,150.4-7.5,225.6-12c69.1-4.1,138.2-9.2,207.3-13.9
	c17.2-1.2,34.3-3.1,51.5-3.6c4.5-0.1,10.7,2.6,13.6,6C2498.5,1913.4,2512.3,1932.1,2527.5,1952z"/>
<path class="st17" d="M185.7,679.6c-0.6,26.6-1.2,53.3-1.9,79.9c-5.6,0-11.1,0-18.9,0c1,21.6,2.2,41.7,2.8,61.8
	c2.1,80,4.1,160,6,240.1c1.4,56.8,2.7,113.6,4,170.4c1.3,56.5,2.6,112.9,4,169.4c1.3,50.8,2.7,101.6,4,152.4
	c1.4,52.5,2.8,104.9,4,157.4c1.5,64.8,2.7,129.6,4.1,194.4c-5.8,8.3-11.6,16.6-19.4,27.8c-2.4-31.1-4.7-58.6-6.6-86.1
	c-5.4-77-10.7-154-15.7-231.1c-1.9-29.8-3.2-59.6-4.2-89.5c-2.9-84.3-5.5-168.6-8.2-252.9c-1.3-42.2-3.5-84.3-3.8-126.5
	c-1-157.8-1.4-315.5-2.1-473.3C151.2,675.6,168.4,677.6,185.7,679.6z"/>
<path class="st17" d="M2577,683.5c0,83.5,0.2,167-0.2,250.4c-0.2,43.9-0.9,87.8-2,131.7c-1.7,66.8-3.7,133.5-6,200.2
	c-1.6,46.4-3.4,92.9-6,139.3c-4.9,88.7-10.4,177.4-15.7,266.1c-2.7,45.4-5.1,90.7-8.2,136.1c-2.9,41.9-6.5,83.8-10,129.8
	c-8-11.2-13.9-19.6-19.9-27.9c2-54.4,4-108.8,6-163.2c1.3-35.5,2.8-71,3.9-106.5c2.1-62.4,4-124.8,6.1-187.1
	c1.9-58.4,4-116.8,5.9-175.2c2.1-63.7,4.2-127.4,6-191.1c1.5-53.1,2.5-106.3,4.1-159.4c0.8-24.8,3.1-49.6,3.7-74.5
	c0.7-27.8,0.2-55.6,0.2-84.8c-5.5,0-11.7,0-18,0c0-26.6,0.1-53.3,0.1-79.9C2543.7,686.2,2560.4,684.9,2577,683.5z"/>
<path class="st13" d="M2527,767.5c6.2,0,12.4,0,18,0c0,29.2,0.5,57-0.2,84.8c-0.6,24.8-2.9,49.6-3.7,74.5
	c-1.6,53.1-2.6,106.3-4.1,159.4c-1.8,63.7-3.9,127.4-6,191.1c-1.9,58.4-4,116.8-5.9,175.2c-2.1,62.4-4,124.8-6.1,187.1
	c-1.2,35.5-2.6,71-3.9,106.5c-2,54.4-4,108.8-6,163.2c-29.7-20.8-26.5-51-23.8-81.4c3.1-35,5.6-70.1,7.8-105.1
	c5.5-87.1,10.7-174.2,15.8-261.3c1.8-31.8,3.2-63.7,4.2-95.5c2.2-70.8,4.1-141.5,6.2-212.3c1.3-46.8,3.1-93.7,3.8-140.5
	c1.1-72.2,1.4-144.5,2.2-216.7C2525.3,786.7,2526.4,777.1,2527,767.5z"/>
<path class="st13" d="M193.8,1905.2c-1.3-64.8-2.6-129.6-4.1-194.4c-1.2-52.5-2.6-104.9-4-157.4c-1.3-50.8-2.7-101.6-4-152.4
	c-1.4-56.5-2.7-112.9-4-169.4c-1.3-56.8-2.6-113.6-4-170.4c-2-80-3.9-160.1-6-240.1c-0.5-20.1-1.8-40.2-2.8-61.8
	c7.8,0,13.3,0,18.9,0c0,47.6-0.2,95.2,0,142.8c0.5,73.5,1,147,2.1,220.6c0.8,55.1,2.2,110.3,4,165.4c2.3,71.7,5,143.3,8,215
	c2.3,55,4.7,110,8.1,165c3.9,63.5,8.8,126.9,13.8,190.3C221.5,1880.4,205.1,1891.2,193.8,1905.2z"/>
<path class="st18" d="M185.7,679.6c-17.3-2-34.5-4-51.8-6c0-27.4,0-54.9,0-84.5c19.8,1.4,36.4,2.6,51.8,3.8
	C185.7,623.3,185.7,651.5,185.7,679.6z"/>
<path class="st18" d="M2577,683.5c-16.6,1.4-33.3,2.7-49.9,4.1c0-27.9,0-55.8,0-86.2c16.3-1.3,32.4-2.6,49.9-3.9
	C2577,627.2,2577,655.3,2577,683.5z"/>
<path class="st19" d="M1383.4,503.6c12.1,10.6,13.4,33.7,2.5,48.2c-10.4,13.9-31.5,17-46.2,6.9c-15.3-10.6-20.3-33.1-11.2-48.9
	c7.7-13.3,18.3-21.9,34.2-17.8C1370.1,493.8,1376.5,499.6,1383.4,503.6"/>
<circle class="st20" cx="1360" cy="527.8" r="26.2"/>
<circle class="st21" cx="1372.6" cy="503.1" r="10"/>
<circle class="st21" cx="1353.5" cy="514.8" r="5.9"/>
</svg>
