<?xml version="1.0" standalone="no"?>
<!DOCTYPE svg PUBLIC "-//W3C//DTD SVG 20010904//EN"
 "http://www.w3.org/TR/2001/REC-SVG-20010904/DTD/svg10.dtd">
<svg version="1.0" xmlns="http://www.w3.org/2000/svg"
 width="512.000000pt" height="512.000000pt" viewBox="0 0 512.000000 512.000000"
 preserveAspectRatio="xMidYMid meet">
<metadata>
Created by potrace 1.14, written by Peter Selinger 2001-2017
</metadata>
<g transform="translate(0.000000,512.000000) scale(0.100000,-0.100000)"
fill="#000000" stroke="none">
<path d="M555 5104 c-38 -8 -112 -36 -164 -60 -78 -38 -109 -60 -181 -132 -75
-74 -94 -101 -133 -182 -83 -172 -77 -10 -77 -2170 0 -2160 -6 -1998 77 -2170
39 -81 58 -108 132 -180 95 -94 175 -142 301 -182 l75 -23 1975 0 1975 0 75
23 c126 40 206 88 301 182 74 72 93 99 132 180 83 172 77 10 77 2170 0 2160 6
1998 -77 2170 -39 81 -58 108 -133 182 -72 72 -103 94 -181 131 -171 83 -9 77
-2176 76 -1657 -1 -1938 -3 -1998 -15z m3293 -874 c1 -25 -4 -76 -12 -115
-176 -858 -211 -994 -306 -1185 -47 -94 -64 -116 -153 -203 -118 -116 -116
-96 -32 -308 75 -190 141 -320 297 -584 198 -333 202 -339 277 -495 106 -217
123 -313 66 -374 l-24 -26 -471 0 c-516 0 -517 0 -559 59 -30 42 -110 205
-156 316 -20 50 -74 164 -119 255 -98 195 -115 237 -161 394 -19 66 -37 121
-39 123 -10 10 -44 -19 -56 -47 -16 -39 -7 -462 15 -720 34 -405 33 -426 -28
-448 -97 -34 -438 -65 -725 -66 l-244 -1 -19 24 c-18 22 -19 49 -19 805 0 819
-7 1003 -50 1386 -23 206 -37 455 -46 821 -5 218 -4 268 7 275 8 4 117 11 244
15 179 6 273 14 425 37 262 41 293 44 310 33 12 -8 15 -71 21 -368 16 -809 32
-886 177 -868 31 4 65 11 74 16 25 13 116 170 150 257 41 108 63 208 93 427
27 196 80 477 96 507 16 30 45 38 167 48 371 30 514 43 572 50 36 4 101 7 145
6 l80 -1 3 -45z"/>
</g>
</svg>
